%TF.GenerationSoftware,KiCad,Pcbnew,(6.0.7)*%
%TF.CreationDate,2023-03-05T02:27:35+08:00*%
%TF.ProjectId,CameraPosition,43616d65-7261-4506-9f73-6974696f6e2e,rev?*%
%TF.SameCoordinates,Original*%
%TF.FileFunction,Soldermask,Top*%
%TF.FilePolarity,Negative*%
%FSLAX46Y46*%
G04 Gerber Fmt 4.6, Leading zero omitted, Abs format (unit mm)*
G04 Created by KiCad (PCBNEW (6.0.7)) date 2023-03-05 02:27:35*
%MOMM*%
%LPD*%
G01*
G04 APERTURE LIST*
G04 Aperture macros list*
%AMRoundRect*
0 Rectangle with rounded corners*
0 $1 Rounding radius*
0 $2 $3 $4 $5 $6 $7 $8 $9 X,Y pos of 4 corners*
0 Add a 4 corners polygon primitive as box body*
4,1,4,$2,$3,$4,$5,$6,$7,$8,$9,$2,$3,0*
0 Add four circle primitives for the rounded corners*
1,1,$1+$1,$2,$3*
1,1,$1+$1,$4,$5*
1,1,$1+$1,$6,$7*
1,1,$1+$1,$8,$9*
0 Add four rect primitives between the rounded corners*
20,1,$1+$1,$2,$3,$4,$5,0*
20,1,$1+$1,$4,$5,$6,$7,0*
20,1,$1+$1,$6,$7,$8,$9,0*
20,1,$1+$1,$8,$9,$2,$3,0*%
G04 Aperture macros list end*
%ADD10RoundRect,0.250000X-0.450000X0.262500X-0.450000X-0.262500X0.450000X-0.262500X0.450000X0.262500X0*%
%ADD11RoundRect,0.250000X-0.475000X0.250000X-0.475000X-0.250000X0.475000X-0.250000X0.475000X0.250000X0*%
%ADD12RoundRect,0.250000X-0.250000X-0.475000X0.250000X-0.475000X0.250000X0.475000X-0.250000X0.475000X0*%
%ADD13RoundRect,0.150000X-0.587500X-0.150000X0.587500X-0.150000X0.587500X0.150000X-0.587500X0.150000X0*%
%ADD14RoundRect,0.250000X-0.262500X-0.450000X0.262500X-0.450000X0.262500X0.450000X-0.262500X0.450000X0*%
%ADD15RoundRect,0.250000X0.475000X-0.250000X0.475000X0.250000X-0.475000X0.250000X-0.475000X-0.250000X0*%
%ADD16RoundRect,0.250000X0.262500X0.450000X-0.262500X0.450000X-0.262500X-0.450000X0.262500X-0.450000X0*%
%ADD17RoundRect,0.150000X-0.825000X-0.150000X0.825000X-0.150000X0.825000X0.150000X-0.825000X0.150000X0*%
%ADD18R,2.290000X3.000000*%
%ADD19RoundRect,0.250000X0.250000X0.475000X-0.250000X0.475000X-0.250000X-0.475000X0.250000X-0.475000X0*%
%ADD20R,0.300000X1.300000*%
%ADD21R,1.800000X2.200000*%
%ADD22RoundRect,0.150000X-0.150000X0.587500X-0.150000X-0.587500X0.150000X-0.587500X0.150000X0.587500X0*%
%ADD23RoundRect,0.250000X0.450000X-0.262500X0.450000X0.262500X-0.450000X0.262500X-0.450000X-0.262500X0*%
%ADD24R,0.850000X2.300000*%
%ADD25R,0.900000X1.500000*%
%ADD26R,1.500000X0.900000*%
%ADD27R,0.900000X0.900000*%
%ADD28R,1.700000X1.700000*%
%ADD29O,1.700000X1.700000*%
%ADD30R,1.350000X1.350000*%
%ADD31O,1.350000X1.350000*%
%ADD32R,0.350000X2.500000*%
%ADD33C,0.650000*%
%ADD34R,1.450000X0.600000*%
%ADD35R,1.450000X0.300000*%
%ADD36O,1.600000X1.000000*%
%ADD37O,2.100000X1.000000*%
%ADD38R,1.500000X2.000000*%
%ADD39R,3.800000X2.000000*%
G04 APERTURE END LIST*
D10*
%TO.C,R12*%
X51250000Y-24837500D03*
X51250000Y-26662500D03*
%TD*%
D11*
%TO.C,C5*%
X53000000Y-21350000D03*
X53000000Y-23250000D03*
%TD*%
D12*
%TO.C,C20*%
X69550000Y-31500000D03*
X71450000Y-31500000D03*
%TD*%
%TO.C,C3*%
X32100000Y-40000000D03*
X34000000Y-40000000D03*
%TD*%
D13*
%TO.C,Q3*%
X65562500Y-58300000D03*
X65562500Y-60200000D03*
X67437500Y-59250000D03*
%TD*%
D14*
%TO.C,R8*%
X39087500Y-59000000D03*
X40912500Y-59000000D03*
%TD*%
D12*
%TO.C,C21*%
X71050000Y-33500000D03*
X72950000Y-33500000D03*
%TD*%
D13*
%TO.C,U4*%
X57312500Y-24850000D03*
X57312500Y-26750000D03*
X59187500Y-25800000D03*
%TD*%
D12*
%TO.C,C15*%
X51050000Y-56000000D03*
X52950000Y-56000000D03*
%TD*%
D14*
%TO.C,R11*%
X68587500Y-35500000D03*
X70412500Y-35500000D03*
%TD*%
D11*
%TO.C,C12*%
X55250000Y-24850000D03*
X55250000Y-26750000D03*
%TD*%
D12*
%TO.C,C2*%
X37550000Y-45000000D03*
X39450000Y-45000000D03*
%TD*%
D15*
%TO.C,C14*%
X46000000Y-26700000D03*
X46000000Y-24800000D03*
%TD*%
D10*
%TO.C,R13*%
X63500000Y-58337500D03*
X63500000Y-60162500D03*
%TD*%
%TO.C,R5*%
X31570000Y-50587500D03*
X31570000Y-52412500D03*
%TD*%
D16*
%TO.C,R9*%
X54162500Y-53750000D03*
X52337500Y-53750000D03*
%TD*%
D17*
%TO.C,U3*%
X34095000Y-47095000D03*
X34095000Y-48365000D03*
X34095000Y-49635000D03*
X34095000Y-50905000D03*
X39045000Y-50905000D03*
X39045000Y-49635000D03*
X39045000Y-48365000D03*
X39045000Y-47095000D03*
D18*
X36570000Y-49000000D03*
%TD*%
D19*
%TO.C,C16*%
X49450000Y-56000000D03*
X47550000Y-56000000D03*
%TD*%
D15*
%TO.C,C4*%
X27000000Y-35950000D03*
X27000000Y-34050000D03*
%TD*%
D20*
%TO.C,J2*%
X43050000Y-28800000D03*
X43550000Y-28800000D03*
X44050000Y-28800000D03*
X44550000Y-28800000D03*
X45050000Y-28800000D03*
X45550000Y-28800000D03*
X46050000Y-28800000D03*
X46550000Y-28800000D03*
X47050000Y-28800000D03*
X47550000Y-28800000D03*
X48050000Y-28800000D03*
X48550000Y-28800000D03*
X49050000Y-28800000D03*
X49550000Y-28800000D03*
X50050000Y-28800000D03*
X50550000Y-28800000D03*
X51050000Y-28800000D03*
X51550000Y-28800000D03*
X52050000Y-28800000D03*
X52550000Y-28800000D03*
X53050000Y-28800000D03*
X53550000Y-28800000D03*
X54050000Y-28800000D03*
X54550000Y-28800000D03*
D21*
X41150000Y-32050000D03*
X56450000Y-32050000D03*
%TD*%
D12*
%TO.C,C1*%
X37550000Y-43000000D03*
X39450000Y-43000000D03*
%TD*%
D22*
%TO.C,Q2*%
X36950000Y-55062500D03*
X35050000Y-55062500D03*
X36000000Y-56937500D03*
%TD*%
D10*
%TO.C,R10*%
X39000000Y-55087500D03*
X39000000Y-56912500D03*
%TD*%
D23*
%TO.C,R7*%
X59000000Y-32962500D03*
X59000000Y-31137500D03*
%TD*%
D13*
%TO.C,Q1*%
X33562500Y-27050000D03*
X33562500Y-28950000D03*
X35437500Y-28000000D03*
%TD*%
D11*
%TO.C,C13*%
X53250000Y-24800000D03*
X53250000Y-26700000D03*
%TD*%
D24*
%TO.C,L1*%
X41050000Y-48000000D03*
X43000000Y-48000000D03*
%TD*%
D12*
%TO.C,C8*%
X41600000Y-52500000D03*
X43500000Y-52500000D03*
%TD*%
D14*
%TO.C,R6*%
X34087500Y-53000000D03*
X35912500Y-53000000D03*
%TD*%
D11*
%TO.C,C19*%
X61000000Y-31100000D03*
X61000000Y-33000000D03*
%TD*%
D25*
%TO.C,U6*%
X73760000Y-37750000D03*
X72490000Y-37750000D03*
X71220000Y-37750000D03*
X69950000Y-37750000D03*
X68680000Y-37750000D03*
X67410000Y-37750000D03*
X66140000Y-37750000D03*
X64870000Y-37750000D03*
X63600000Y-37750000D03*
X62330000Y-37750000D03*
X61060000Y-37750000D03*
X59790000Y-37750000D03*
X58520000Y-37750000D03*
X57250000Y-37750000D03*
D26*
X56000000Y-39515000D03*
X56000000Y-40785000D03*
X56000000Y-42055000D03*
X56000000Y-43325000D03*
X56000000Y-44595000D03*
X56000000Y-45865000D03*
X56000000Y-47135000D03*
X56000000Y-48405000D03*
X56000000Y-49675000D03*
X56000000Y-50945000D03*
X56000000Y-52215000D03*
X56000000Y-53485000D03*
D25*
X57250000Y-55250000D03*
X58520000Y-55250000D03*
X59790000Y-55250000D03*
X61060000Y-55250000D03*
X62330000Y-55250000D03*
X63600000Y-55250000D03*
X64870000Y-55250000D03*
X66140000Y-55250000D03*
X67410000Y-55250000D03*
X68680000Y-55250000D03*
X69950000Y-55250000D03*
X71220000Y-55250000D03*
X72490000Y-55250000D03*
X73760000Y-55250000D03*
D27*
X67440000Y-45000000D03*
X67440000Y-43600000D03*
X66040000Y-45000000D03*
X66040000Y-46400000D03*
X64640000Y-45000000D03*
X67440000Y-46400000D03*
X64640000Y-43600000D03*
X64640000Y-46400000D03*
X66040000Y-43600000D03*
%TD*%
D23*
%TO.C,R2*%
X29570000Y-48912500D03*
X29570000Y-47087500D03*
%TD*%
D12*
%TO.C,C11*%
X37550000Y-53000000D03*
X39450000Y-53000000D03*
%TD*%
D13*
%TO.C,U2*%
X55062500Y-21350000D03*
X55062500Y-23250000D03*
X56937500Y-22300000D03*
%TD*%
D28*
%TO.C,BT1*%
X44300000Y-55500000D03*
D29*
X41760000Y-55500000D03*
%TD*%
D30*
%TO.C,TP3*%
X66000000Y-62500000D03*
D31*
X64000000Y-62500000D03*
%TD*%
D30*
%TO.C,TP2*%
X58000000Y-60000000D03*
D31*
X58000000Y-58000000D03*
%TD*%
D32*
%TO.C,U5*%
X45150000Y-58750000D03*
X45850000Y-58750000D03*
X46550000Y-58750000D03*
X47250000Y-58750000D03*
X47950000Y-58750000D03*
X48650000Y-58750000D03*
X49350000Y-58750000D03*
X50050000Y-58750000D03*
X50750000Y-58750000D03*
X51450000Y-58750000D03*
X52150000Y-58750000D03*
X52850000Y-58750000D03*
%TD*%
D10*
%TO.C,R1*%
X31500000Y-27087500D03*
X31500000Y-28912500D03*
%TD*%
D30*
%TO.C,TP1*%
X30500000Y-55500000D03*
D31*
X32500000Y-55500000D03*
%TD*%
D12*
%TO.C,C7*%
X34050000Y-25000000D03*
X35950000Y-25000000D03*
%TD*%
%TO.C,C22*%
X72050000Y-35500000D03*
X73950000Y-35500000D03*
%TD*%
D14*
%TO.C,R4*%
X41087500Y-50500000D03*
X42912500Y-50500000D03*
%TD*%
D33*
%TO.C,J1*%
X25740000Y-46110000D03*
X25740000Y-51890000D03*
D34*
X27185000Y-45750000D03*
X27185000Y-46550000D03*
D35*
X27185000Y-47750000D03*
X27185000Y-48750000D03*
X27185000Y-49250000D03*
X27185000Y-50250000D03*
D34*
X27185000Y-51450000D03*
X27185000Y-52250000D03*
X27185000Y-52250000D03*
X27185000Y-51450000D03*
D35*
X27185000Y-50750000D03*
X27185000Y-49750000D03*
X27185000Y-48250000D03*
X27185000Y-47250000D03*
D34*
X27185000Y-46550000D03*
X27185000Y-45750000D03*
D36*
X22090000Y-53320000D03*
D37*
X26270000Y-44680000D03*
D36*
X22090000Y-44680000D03*
D37*
X26270000Y-53320000D03*
%TD*%
D15*
%TO.C,C17*%
X48000000Y-26700000D03*
X48000000Y-24800000D03*
%TD*%
%TO.C,C10*%
X31570000Y-48950000D03*
X31570000Y-47050000D03*
%TD*%
D38*
%TO.C,U1*%
X29700000Y-37650000D03*
D39*
X32000000Y-31350000D03*
D38*
X32000000Y-37650000D03*
X34300000Y-37650000D03*
%TD*%
D15*
%TO.C,C9*%
X29570000Y-52450000D03*
X29570000Y-50550000D03*
%TD*%
D11*
%TO.C,C6*%
X51000000Y-21350000D03*
X51000000Y-23250000D03*
%TD*%
M02*
