%TF.GenerationSoftware,KiCad,Pcbnew,(6.0.7)*%
%TF.CreationDate,2023-03-05T02:27:35+08:00*%
%TF.ProjectId,CameraPosition,43616d65-7261-4506-9f73-6974696f6e2e,rev?*%
%TF.SameCoordinates,Original*%
%TF.FileFunction,Copper,L3,Inr*%
%TF.FilePolarity,Positive*%
%FSLAX46Y46*%
G04 Gerber Fmt 4.6, Leading zero omitted, Abs format (unit mm)*
G04 Created by KiCad (PCBNEW (6.0.7)) date 2023-03-05 02:27:35*
%MOMM*%
%LPD*%
G01*
G04 APERTURE LIST*
%TA.AperFunction,ComponentPad*%
%ADD10R,1.700000X1.700000*%
%TD*%
%TA.AperFunction,ComponentPad*%
%ADD11O,1.700000X1.700000*%
%TD*%
%TA.AperFunction,ComponentPad*%
%ADD12R,1.350000X1.350000*%
%TD*%
%TA.AperFunction,ComponentPad*%
%ADD13O,1.350000X1.350000*%
%TD*%
%TA.AperFunction,ComponentPad*%
%ADD14O,1.600000X1.000000*%
%TD*%
%TA.AperFunction,ComponentPad*%
%ADD15O,2.100000X1.000000*%
%TD*%
%TA.AperFunction,ViaPad*%
%ADD16C,0.800000*%
%TD*%
%TA.AperFunction,ViaPad*%
%ADD17C,0.600000*%
%TD*%
%TA.AperFunction,ViaPad*%
%ADD18C,1.000000*%
%TD*%
G04 APERTURE END LIST*
D10*
%TO.N,/BAT*%
%TO.C,BT1*%
X44300000Y-55500000D03*
D11*
%TO.N,GND*%
X41760000Y-55500000D03*
%TD*%
D12*
%TO.N,Net-(Q3-Pad3)*%
%TO.C,TP3*%
X66000000Y-62500000D03*
D13*
%TO.N,+3V3*%
X64000000Y-62500000D03*
%TD*%
D12*
%TO.N,GND*%
%TO.C,TP2*%
X58000000Y-60000000D03*
D13*
%TO.N,Net-(TP2-Pad2)*%
X58000000Y-58000000D03*
%TD*%
D12*
%TO.N,GND*%
%TO.C,TP1*%
X30500000Y-55500000D03*
D13*
%TO.N,/D13*%
X32500000Y-55500000D03*
%TD*%
D14*
%TO.N,GND*%
%TO.C,J1*%
X22090000Y-53320000D03*
D15*
X26270000Y-44680000D03*
D14*
X22090000Y-44680000D03*
D15*
X26270000Y-53320000D03*
%TD*%
D16*
%TO.N,GND*%
X22750000Y-38000000D03*
D17*
X66000000Y-45000000D03*
D16*
X55500000Y-76750000D03*
X27500000Y-30250000D03*
X21250000Y-55500000D03*
D17*
X64750000Y-45000000D03*
D16*
X38000000Y-75250000D03*
X20500000Y-46500000D03*
X46500000Y-77500000D03*
D17*
X51000000Y-56000000D03*
X67500000Y-46250000D03*
X67500000Y-45000000D03*
D16*
X77250000Y-51500000D03*
X56500000Y-32000000D03*
D17*
X64750000Y-46250000D03*
D16*
X30250000Y-70500000D03*
X27750000Y-52299502D03*
X63750000Y-73500000D03*
X27500000Y-45500000D03*
X67750000Y-27500000D03*
D17*
X66000000Y-46250000D03*
D16*
X37250000Y-66250000D03*
X76750000Y-42500000D03*
X73000000Y-34000000D03*
X70500000Y-67750000D03*
D17*
X64750000Y-43500000D03*
D16*
X34250000Y-24500000D03*
X69500000Y-53500000D03*
D17*
X67500000Y-43500000D03*
X66000000Y-43500000D03*
D16*
X60000000Y-22750000D03*
D17*
X49500000Y-56000000D03*
D16*
X51000000Y-20750000D03*
X42500000Y-21250000D03*
X24500000Y-63750000D03*
X75250000Y-60250000D03*
D17*
X64750000Y-35750000D03*
%TO.N,VCC*%
X29366250Y-46883750D03*
X28450000Y-51450000D03*
X27816606Y-46608236D03*
D16*
%TO.N,+5V*%
X34250000Y-37750000D03*
X39500000Y-45000000D03*
X39045000Y-46955000D03*
X39500000Y-43000000D03*
X34000000Y-40000000D03*
%TO.N,+3V3*%
X69500000Y-31500000D03*
X59000000Y-33050000D03*
X72000000Y-35000000D03*
X72500000Y-37250000D03*
X47500000Y-56000000D03*
X52250000Y-53750000D03*
X48000000Y-26750000D03*
X71000000Y-33500000D03*
X33500000Y-30750000D03*
X32000000Y-37750000D03*
X33500000Y-31750000D03*
X27000000Y-34000000D03*
%TO.N,Net-(D1-Pad2)*%
X31500000Y-50500000D03*
D17*
%TO.N,Net-(J1-PadA5)*%
X24750000Y-48500000D03*
%TO.N,/D+*%
X57250000Y-37750000D03*
X28570000Y-42500000D03*
%TO.N,/D-*%
X25875000Y-49125000D03*
X58500000Y-37750000D03*
D16*
%TO.N,/BAT*%
X34095000Y-50905000D03*
X42956250Y-50456250D03*
D17*
%TO.N,/LED_IN*%
X56000000Y-51000000D03*
D18*
%TO.N,Net-(C7-Pad2)*%
X58000000Y-23250000D03*
X41250000Y-25750000D03*
D16*
%TO.N,Net-(C18-Pad2)*%
X68500000Y-35500000D03*
%TD*%
%TA.AperFunction,Conductor*%
%TO.N,GND*%
G36*
X50074919Y-18169263D02*
G01*
X50078367Y-18169384D01*
X50142066Y-18172722D01*
X51150225Y-18225558D01*
X51153672Y-18225799D01*
X52222922Y-18319346D01*
X52226359Y-18319707D01*
X53291708Y-18450515D01*
X53295130Y-18450996D01*
X53720243Y-18518327D01*
X54355278Y-18618907D01*
X54358628Y-18619497D01*
X55407073Y-18823295D01*
X55412264Y-18824304D01*
X55415643Y-18825022D01*
X56461498Y-19066476D01*
X56464828Y-19067306D01*
X56924759Y-19190544D01*
X57501617Y-19345113D01*
X57504939Y-19346066D01*
X57581242Y-19369394D01*
X58531396Y-19659885D01*
X58534642Y-19660941D01*
X59549521Y-20010391D01*
X59552745Y-20011564D01*
X60554812Y-20396222D01*
X60558004Y-20397512D01*
X61546041Y-20816908D01*
X61549198Y-20818314D01*
X62521944Y-21271913D01*
X62525050Y-21273427D01*
X63481440Y-21760732D01*
X63484491Y-21762355D01*
X64423217Y-22282699D01*
X64426210Y-22284426D01*
X65346286Y-22837264D01*
X65349216Y-22839096D01*
X66249362Y-23423658D01*
X66252227Y-23425590D01*
X66634903Y-23693542D01*
X67131481Y-24041250D01*
X67134231Y-24043247D01*
X67672896Y-24449160D01*
X67991479Y-24689230D01*
X67994202Y-24691358D01*
X68828331Y-25366823D01*
X68830978Y-25369044D01*
X69641037Y-26073217D01*
X69643605Y-26075529D01*
X70428589Y-26807539D01*
X70431075Y-26809939D01*
X71190061Y-27568925D01*
X71192461Y-27571411D01*
X71924471Y-28356395D01*
X71926783Y-28358963D01*
X72630956Y-29169022D01*
X72633177Y-29171669D01*
X73308642Y-30005798D01*
X73310770Y-30008521D01*
X73956753Y-30865769D01*
X73958750Y-30868519D01*
X74245554Y-31278117D01*
X74574410Y-31747773D01*
X74576342Y-31750638D01*
X75160904Y-32650784D01*
X75162736Y-32653714D01*
X75689780Y-33530861D01*
X75715574Y-33573790D01*
X75717295Y-33576772D01*
X76102459Y-34271627D01*
X76237645Y-34515509D01*
X76239268Y-34518560D01*
X76726573Y-35474950D01*
X76728087Y-35478056D01*
X77181686Y-36450802D01*
X77183092Y-36453959D01*
X77602488Y-37441996D01*
X77603778Y-37445188D01*
X77948879Y-38344204D01*
X77988427Y-38447231D01*
X77989607Y-38450474D01*
X78338479Y-39463670D01*
X78339053Y-39465338D01*
X78340115Y-39468604D01*
X78460609Y-39862722D01*
X78653934Y-40495061D01*
X78654887Y-40498383D01*
X78932691Y-41535161D01*
X78933524Y-41538502D01*
X79160678Y-42522415D01*
X79174978Y-42584356D01*
X79175696Y-42587736D01*
X79363763Y-43555250D01*
X79380498Y-43641346D01*
X79381098Y-43644749D01*
X79549004Y-44704870D01*
X79549485Y-44708292D01*
X79680293Y-45773641D01*
X79680654Y-45777078D01*
X79774201Y-46846328D01*
X79774442Y-46849775D01*
X79830616Y-47921631D01*
X79830737Y-47925081D01*
X79848064Y-48917700D01*
X79849470Y-48998272D01*
X79849470Y-49001719D01*
X79832518Y-49972905D01*
X79830737Y-50074916D01*
X79830616Y-50078369D01*
X79774442Y-51150225D01*
X79774201Y-51153672D01*
X79680654Y-52222922D01*
X79680293Y-52226359D01*
X79549485Y-53291708D01*
X79549004Y-53295130D01*
X79499721Y-53606291D01*
X79391880Y-54287177D01*
X79381098Y-54355251D01*
X79380503Y-54358628D01*
X79298781Y-54779050D01*
X79175696Y-55412264D01*
X79174978Y-55415643D01*
X78948514Y-56396572D01*
X78933527Y-56461486D01*
X78932694Y-56464828D01*
X78914200Y-56533847D01*
X78654887Y-57501617D01*
X78653934Y-57504939D01*
X78650367Y-57516606D01*
X78354791Y-58483394D01*
X78340121Y-58531376D01*
X78339059Y-58534642D01*
X78274909Y-58720950D01*
X77989609Y-59549521D01*
X77988436Y-59552745D01*
X77603782Y-60554801D01*
X77602488Y-60558004D01*
X77183092Y-61546041D01*
X77181686Y-61549198D01*
X76728087Y-62521944D01*
X76726573Y-62525050D01*
X76239268Y-63481440D01*
X76237645Y-63484491D01*
X75717301Y-64423217D01*
X75715574Y-64426210D01*
X75162736Y-65346286D01*
X75160904Y-65349216D01*
X74576342Y-66249362D01*
X74574410Y-66252227D01*
X74455594Y-66421914D01*
X73958750Y-67131481D01*
X73956753Y-67134231D01*
X73611909Y-67591854D01*
X73310770Y-67991479D01*
X73308642Y-67994202D01*
X72633177Y-68828331D01*
X72630956Y-68830978D01*
X71926783Y-69641037D01*
X71924471Y-69643605D01*
X71192461Y-70428589D01*
X71190061Y-70431075D01*
X70431075Y-71190061D01*
X70428589Y-71192461D01*
X69643605Y-71924471D01*
X69641037Y-71926783D01*
X68830978Y-72630956D01*
X68828331Y-72633177D01*
X67994202Y-73308642D01*
X67991479Y-73310770D01*
X67134231Y-73956753D01*
X67131481Y-73958750D01*
X66779373Y-74205299D01*
X66252227Y-74574410D01*
X66249362Y-74576342D01*
X65349216Y-75160904D01*
X65346286Y-75162736D01*
X64426210Y-75715574D01*
X64423217Y-75717301D01*
X63484491Y-76237645D01*
X63481440Y-76239268D01*
X62525050Y-76726573D01*
X62521944Y-76728087D01*
X61549198Y-77181686D01*
X61546041Y-77183092D01*
X60558004Y-77602488D01*
X60554812Y-77603778D01*
X59552745Y-77988436D01*
X59549526Y-77989607D01*
X58534642Y-78339059D01*
X58531396Y-78340115D01*
X57926494Y-78525052D01*
X57504939Y-78653934D01*
X57501617Y-78654887D01*
X56924759Y-78809456D01*
X56464828Y-78932694D01*
X56461498Y-78933524D01*
X55415644Y-79174978D01*
X55412264Y-79175696D01*
X54358628Y-79380503D01*
X54355278Y-79381093D01*
X53764641Y-79474641D01*
X53295130Y-79549004D01*
X53291708Y-79549485D01*
X52226359Y-79680293D01*
X52222922Y-79680654D01*
X51153672Y-79774201D01*
X51150225Y-79774442D01*
X50142066Y-79827278D01*
X50078367Y-79830616D01*
X50074919Y-79830737D01*
X49001719Y-79849470D01*
X48998281Y-79849470D01*
X47925081Y-79830737D01*
X47921633Y-79830616D01*
X47857934Y-79827278D01*
X46849775Y-79774442D01*
X46846328Y-79774201D01*
X45777078Y-79680654D01*
X45773641Y-79680293D01*
X44708292Y-79549485D01*
X44704870Y-79549004D01*
X44235359Y-79474641D01*
X43644722Y-79381093D01*
X43641372Y-79380503D01*
X42587736Y-79175696D01*
X42584356Y-79174978D01*
X41538502Y-78933524D01*
X41535172Y-78932694D01*
X41075241Y-78809456D01*
X40498383Y-78654887D01*
X40495061Y-78653934D01*
X40073506Y-78525052D01*
X39468604Y-78340115D01*
X39465358Y-78339059D01*
X38450474Y-77989607D01*
X38447255Y-77988436D01*
X37445188Y-77603778D01*
X37441996Y-77602488D01*
X36453959Y-77183092D01*
X36450802Y-77181686D01*
X35478056Y-76728087D01*
X35474950Y-76726573D01*
X34518560Y-76239268D01*
X34515509Y-76237645D01*
X33576783Y-75717301D01*
X33573790Y-75715574D01*
X32653714Y-75162736D01*
X32650784Y-75160904D01*
X31750638Y-74576342D01*
X31747773Y-74574410D01*
X31220627Y-74205299D01*
X30868519Y-73958750D01*
X30865769Y-73956753D01*
X30008521Y-73310770D01*
X30005798Y-73308642D01*
X29171669Y-72633177D01*
X29169022Y-72630956D01*
X28358963Y-71926783D01*
X28356395Y-71924471D01*
X27571411Y-71192461D01*
X27568925Y-71190061D01*
X26809939Y-70431075D01*
X26807539Y-70428589D01*
X26075529Y-69643605D01*
X26073217Y-69641037D01*
X25369044Y-68830978D01*
X25366823Y-68828331D01*
X24696053Y-68000000D01*
X41345384Y-68000000D01*
X41361797Y-68145666D01*
X41410211Y-68284027D01*
X41488201Y-68408146D01*
X41591854Y-68511799D01*
X41715973Y-68589789D01*
X41854334Y-68638203D01*
X41992317Y-68653750D01*
X42000000Y-68655809D01*
X42012589Y-68652436D01*
X42018145Y-68652436D01*
X42032847Y-68650500D01*
X55967153Y-68650500D01*
X55981855Y-68652436D01*
X55987411Y-68652436D01*
X56000000Y-68655809D01*
X56007683Y-68653750D01*
X56018858Y-68652491D01*
X56018859Y-68652491D01*
X56072902Y-68646402D01*
X56145666Y-68638203D01*
X56284027Y-68589789D01*
X56408146Y-68511799D01*
X56511799Y-68408146D01*
X56589789Y-68284027D01*
X56638203Y-68145666D01*
X56654616Y-68000000D01*
X56638203Y-67854334D01*
X56589789Y-67715973D01*
X56511799Y-67591854D01*
X56408146Y-67488201D01*
X56284027Y-67410211D01*
X56145666Y-67361797D01*
X56007683Y-67346250D01*
X56000000Y-67344191D01*
X55987411Y-67347564D01*
X55981855Y-67347564D01*
X55967153Y-67349500D01*
X42032847Y-67349500D01*
X42018145Y-67347564D01*
X42012589Y-67347564D01*
X42000000Y-67344191D01*
X41992317Y-67346250D01*
X41981142Y-67347509D01*
X41981141Y-67347509D01*
X41927098Y-67353598D01*
X41854334Y-67361797D01*
X41715973Y-67410211D01*
X41591854Y-67488201D01*
X41488201Y-67591854D01*
X41410211Y-67715973D01*
X41361797Y-67854334D01*
X41345384Y-68000000D01*
X24696053Y-68000000D01*
X24691358Y-67994202D01*
X24689230Y-67991479D01*
X24388091Y-67591854D01*
X24043247Y-67134231D01*
X24041250Y-67131481D01*
X23544406Y-66421914D01*
X23425590Y-66252227D01*
X23423658Y-66249362D01*
X22839096Y-65349216D01*
X22837264Y-65346286D01*
X22284426Y-64426210D01*
X22282699Y-64423217D01*
X21762355Y-63484491D01*
X21760732Y-63481440D01*
X21273427Y-62525050D01*
X21271913Y-62521944D01*
X21261680Y-62500000D01*
X63169953Y-62500000D01*
X63170495Y-62505157D01*
X63186524Y-62657656D01*
X63188092Y-62672576D01*
X63241714Y-62837611D01*
X63328478Y-62987889D01*
X63331946Y-62991741D01*
X63331950Y-62991746D01*
X63441120Y-63112992D01*
X63441124Y-63112996D01*
X63444590Y-63116845D01*
X63584976Y-63218842D01*
X63589708Y-63220949D01*
X63589710Y-63220950D01*
X63738763Y-63287313D01*
X63738767Y-63287314D01*
X63743501Y-63289422D01*
X63748571Y-63290500D01*
X63748572Y-63290500D01*
X63782539Y-63297720D01*
X63913236Y-63325500D01*
X64086764Y-63325500D01*
X64217461Y-63297720D01*
X64251428Y-63290500D01*
X64251429Y-63290500D01*
X64256499Y-63289422D01*
X64261233Y-63287314D01*
X64261237Y-63287313D01*
X64410290Y-63220950D01*
X64410292Y-63220949D01*
X64415024Y-63218842D01*
X64454969Y-63189820D01*
X65174500Y-63189820D01*
X65183233Y-63233722D01*
X65216496Y-63283504D01*
X65266278Y-63316767D01*
X65275838Y-63318669D01*
X65275839Y-63318669D01*
X65305417Y-63324553D01*
X65305422Y-63324553D01*
X65310180Y-63325500D01*
X66689820Y-63325500D01*
X66694578Y-63324553D01*
X66694583Y-63324553D01*
X66724161Y-63318669D01*
X66724162Y-63318669D01*
X66733722Y-63316767D01*
X66783504Y-63283504D01*
X66816767Y-63233722D01*
X66825500Y-63189820D01*
X66825500Y-61810180D01*
X66816767Y-61766278D01*
X66783504Y-61716496D01*
X66733722Y-61683233D01*
X66724162Y-61681331D01*
X66724161Y-61681331D01*
X66694583Y-61675447D01*
X66694578Y-61675447D01*
X66689820Y-61674500D01*
X65310180Y-61674500D01*
X65305422Y-61675447D01*
X65305417Y-61675447D01*
X65275839Y-61681331D01*
X65275838Y-61681331D01*
X65266278Y-61683233D01*
X65216496Y-61716496D01*
X65183233Y-61766278D01*
X65174500Y-61810180D01*
X65174500Y-63189820D01*
X64454969Y-63189820D01*
X64555410Y-63116845D01*
X64558876Y-63112996D01*
X64558880Y-63112992D01*
X64668050Y-62991746D01*
X64668054Y-62991741D01*
X64671522Y-62987889D01*
X64758286Y-62837611D01*
X64811908Y-62672576D01*
X64813477Y-62657656D01*
X64829505Y-62505157D01*
X64830047Y-62500000D01*
X64811908Y-62327424D01*
X64758286Y-62162389D01*
X64671522Y-62012111D01*
X64668054Y-62008259D01*
X64668050Y-62008254D01*
X64558880Y-61887008D01*
X64558876Y-61887004D01*
X64555410Y-61883155D01*
X64415024Y-61781158D01*
X64410292Y-61779051D01*
X64410290Y-61779050D01*
X64261237Y-61712687D01*
X64261233Y-61712686D01*
X64256499Y-61710578D01*
X64251429Y-61709500D01*
X64251428Y-61709500D01*
X64217461Y-61702280D01*
X64086764Y-61674500D01*
X63913236Y-61674500D01*
X63782539Y-61702280D01*
X63748572Y-61709500D01*
X63748571Y-61709500D01*
X63743501Y-61710578D01*
X63738767Y-61712686D01*
X63738763Y-61712687D01*
X63589711Y-61779050D01*
X63589709Y-61779051D01*
X63584977Y-61781158D01*
X63444590Y-61883155D01*
X63441124Y-61887004D01*
X63441120Y-61887008D01*
X63331950Y-62008254D01*
X63331946Y-62008259D01*
X63328478Y-62012111D01*
X63241714Y-62162389D01*
X63188092Y-62327424D01*
X63169953Y-62500000D01*
X21261680Y-62500000D01*
X20818314Y-61549198D01*
X20816908Y-61546041D01*
X20397512Y-60558004D01*
X20396218Y-60554801D01*
X20011564Y-59552745D01*
X20010391Y-59549521D01*
X19725091Y-58720950D01*
X19660941Y-58534642D01*
X19659879Y-58531376D01*
X19645210Y-58483394D01*
X19497421Y-58000000D01*
X57169953Y-58000000D01*
X57188092Y-58172576D01*
X57241714Y-58337611D01*
X57328478Y-58487889D01*
X57331946Y-58491741D01*
X57331950Y-58491746D01*
X57441120Y-58612992D01*
X57441124Y-58612996D01*
X57444590Y-58616845D01*
X57584976Y-58718842D01*
X57589708Y-58720949D01*
X57589710Y-58720950D01*
X57738763Y-58787313D01*
X57738767Y-58787314D01*
X57743501Y-58789422D01*
X57748571Y-58790500D01*
X57748572Y-58790500D01*
X57782539Y-58797720D01*
X57913236Y-58825500D01*
X58086764Y-58825500D01*
X58217461Y-58797720D01*
X58251428Y-58790500D01*
X58251429Y-58790500D01*
X58256499Y-58789422D01*
X58261233Y-58787314D01*
X58261237Y-58787313D01*
X58410290Y-58720950D01*
X58410292Y-58720949D01*
X58415024Y-58718842D01*
X58555410Y-58616845D01*
X58558876Y-58612996D01*
X58558880Y-58612992D01*
X58668050Y-58491746D01*
X58668054Y-58491741D01*
X58671522Y-58487889D01*
X58758286Y-58337611D01*
X58811908Y-58172576D01*
X58830047Y-58000000D01*
X58811908Y-57827424D01*
X58758286Y-57662389D01*
X58671522Y-57512111D01*
X58668054Y-57508259D01*
X58668050Y-57508254D01*
X58558880Y-57387008D01*
X58558876Y-57387004D01*
X58555410Y-57383155D01*
X58415024Y-57281158D01*
X58410292Y-57279051D01*
X58410290Y-57279050D01*
X58261237Y-57212687D01*
X58261233Y-57212686D01*
X58256499Y-57210578D01*
X58251429Y-57209500D01*
X58251428Y-57209500D01*
X58217461Y-57202280D01*
X58086764Y-57174500D01*
X57913236Y-57174500D01*
X57782539Y-57202280D01*
X57748572Y-57209500D01*
X57748571Y-57209500D01*
X57743501Y-57210578D01*
X57738767Y-57212686D01*
X57738763Y-57212687D01*
X57589711Y-57279050D01*
X57589709Y-57279051D01*
X57584977Y-57281158D01*
X57444590Y-57383155D01*
X57441124Y-57387004D01*
X57441120Y-57387008D01*
X57331950Y-57508254D01*
X57331946Y-57508259D01*
X57328478Y-57512111D01*
X57241714Y-57662389D01*
X57188092Y-57827424D01*
X57169953Y-58000000D01*
X19497421Y-58000000D01*
X19349633Y-57516606D01*
X19346066Y-57504939D01*
X19345113Y-57501617D01*
X19085800Y-56533847D01*
X19067306Y-56464828D01*
X19066473Y-56461486D01*
X19051487Y-56396572D01*
X19044156Y-56364820D01*
X43299500Y-56364820D01*
X43308233Y-56408722D01*
X43341496Y-56458504D01*
X43349606Y-56463923D01*
X43369043Y-56476910D01*
X43391278Y-56491767D01*
X43400838Y-56493669D01*
X43400839Y-56493669D01*
X43430417Y-56499553D01*
X43430422Y-56499553D01*
X43435180Y-56500500D01*
X45164820Y-56500500D01*
X45169578Y-56499553D01*
X45169583Y-56499553D01*
X45199161Y-56493669D01*
X45199162Y-56493669D01*
X45208722Y-56491767D01*
X45230958Y-56476910D01*
X45250394Y-56463923D01*
X45258504Y-56458504D01*
X45291767Y-56408722D01*
X45300500Y-56364820D01*
X45300500Y-56000000D01*
X46944750Y-56000000D01*
X46963670Y-56143709D01*
X47019139Y-56277625D01*
X47107379Y-56392621D01*
X47222375Y-56480861D01*
X47356291Y-56536330D01*
X47362720Y-56537176D01*
X47362722Y-56537177D01*
X47493567Y-56554403D01*
X47500000Y-56555250D01*
X47506433Y-56554403D01*
X47637278Y-56537177D01*
X47637280Y-56537176D01*
X47643709Y-56536330D01*
X47777625Y-56480861D01*
X47892621Y-56392621D01*
X47980861Y-56277625D01*
X48036330Y-56143709D01*
X48055250Y-56000000D01*
X48036330Y-55856291D01*
X47980861Y-55722375D01*
X47892621Y-55607379D01*
X47777625Y-55519139D01*
X47643709Y-55463670D01*
X47637280Y-55462824D01*
X47637278Y-55462823D01*
X47506433Y-55445597D01*
X47500000Y-55444750D01*
X47493567Y-55445597D01*
X47362722Y-55462823D01*
X47362720Y-55462824D01*
X47356291Y-55463670D01*
X47222375Y-55519139D01*
X47107379Y-55607379D01*
X47019139Y-55722375D01*
X46963670Y-55856291D01*
X46944750Y-56000000D01*
X45300500Y-56000000D01*
X45300500Y-54635180D01*
X45291767Y-54591278D01*
X45258504Y-54541496D01*
X45208722Y-54508233D01*
X45199162Y-54506331D01*
X45199161Y-54506331D01*
X45169583Y-54500447D01*
X45169578Y-54500447D01*
X45164820Y-54499500D01*
X43435180Y-54499500D01*
X43430422Y-54500447D01*
X43430417Y-54500447D01*
X43400839Y-54506331D01*
X43400838Y-54506331D01*
X43391278Y-54508233D01*
X43341496Y-54541496D01*
X43308233Y-54591278D01*
X43299500Y-54635180D01*
X43299500Y-56364820D01*
X19044156Y-56364820D01*
X18844497Y-55500000D01*
X31669953Y-55500000D01*
X31670495Y-55505157D01*
X31681781Y-55612528D01*
X31688092Y-55672576D01*
X31741714Y-55837611D01*
X31828478Y-55987889D01*
X31831946Y-55991741D01*
X31831950Y-55991746D01*
X31941120Y-56112992D01*
X31941124Y-56112996D01*
X31944590Y-56116845D01*
X32084976Y-56218842D01*
X32089708Y-56220949D01*
X32089710Y-56220950D01*
X32238763Y-56287313D01*
X32238767Y-56287314D01*
X32243501Y-56289422D01*
X32248571Y-56290500D01*
X32248572Y-56290500D01*
X32282539Y-56297720D01*
X32413236Y-56325500D01*
X32586764Y-56325500D01*
X32717461Y-56297720D01*
X32751428Y-56290500D01*
X32751429Y-56290500D01*
X32756499Y-56289422D01*
X32761233Y-56287314D01*
X32761237Y-56287313D01*
X32910290Y-56220950D01*
X32910292Y-56220949D01*
X32915024Y-56218842D01*
X33055410Y-56116845D01*
X33058876Y-56112996D01*
X33058880Y-56112992D01*
X33168050Y-55991746D01*
X33168054Y-55991741D01*
X33171522Y-55987889D01*
X33258286Y-55837611D01*
X33311908Y-55672576D01*
X33318220Y-55612528D01*
X33329505Y-55505157D01*
X33330047Y-55500000D01*
X33327691Y-55477585D01*
X33312450Y-55332576D01*
X33312449Y-55332571D01*
X33311908Y-55327424D01*
X33258286Y-55162389D01*
X33171522Y-55012111D01*
X33168054Y-55008259D01*
X33168050Y-55008254D01*
X33058880Y-54887008D01*
X33058876Y-54887004D01*
X33055410Y-54883155D01*
X32915024Y-54781158D01*
X32910292Y-54779051D01*
X32910290Y-54779050D01*
X32761237Y-54712687D01*
X32761233Y-54712686D01*
X32756499Y-54710578D01*
X32751429Y-54709500D01*
X32751428Y-54709500D01*
X32717461Y-54702280D01*
X32586764Y-54674500D01*
X32413236Y-54674500D01*
X32282539Y-54702280D01*
X32248572Y-54709500D01*
X32248571Y-54709500D01*
X32243501Y-54710578D01*
X32238767Y-54712686D01*
X32238763Y-54712687D01*
X32089711Y-54779050D01*
X32089709Y-54779051D01*
X32084977Y-54781158D01*
X31944590Y-54883155D01*
X31941124Y-54887004D01*
X31941120Y-54887008D01*
X31831950Y-55008254D01*
X31831946Y-55008259D01*
X31828478Y-55012111D01*
X31741714Y-55162389D01*
X31688092Y-55327424D01*
X31687551Y-55332571D01*
X31687550Y-55332576D01*
X31672309Y-55477585D01*
X31669953Y-55500000D01*
X18844497Y-55500000D01*
X18825022Y-55415643D01*
X18824304Y-55412264D01*
X18701219Y-54779050D01*
X18619497Y-54358628D01*
X18618902Y-54355251D01*
X18608121Y-54287177D01*
X18523040Y-53750000D01*
X51694750Y-53750000D01*
X51713670Y-53893709D01*
X51769139Y-54027625D01*
X51857379Y-54142621D01*
X51972375Y-54230861D01*
X52106291Y-54286330D01*
X52112720Y-54287176D01*
X52112722Y-54287177D01*
X52243567Y-54304403D01*
X52250000Y-54305250D01*
X52256433Y-54304403D01*
X52387278Y-54287177D01*
X52387280Y-54287176D01*
X52393709Y-54286330D01*
X52527625Y-54230861D01*
X52642621Y-54142621D01*
X52730861Y-54027625D01*
X52786330Y-53893709D01*
X52805250Y-53750000D01*
X52786330Y-53606291D01*
X52730861Y-53472375D01*
X52642621Y-53357379D01*
X52527625Y-53269139D01*
X52393709Y-53213670D01*
X52387280Y-53212824D01*
X52387278Y-53212823D01*
X52256433Y-53195597D01*
X52250000Y-53194750D01*
X52243567Y-53195597D01*
X52112722Y-53212823D01*
X52112720Y-53212824D01*
X52106291Y-53213670D01*
X51972375Y-53269139D01*
X51857379Y-53357379D01*
X51769139Y-53472375D01*
X51713670Y-53606291D01*
X51694750Y-53750000D01*
X18523040Y-53750000D01*
X18500279Y-53606291D01*
X18450996Y-53295130D01*
X18450515Y-53291708D01*
X18319707Y-52226359D01*
X18319346Y-52222922D01*
X18290219Y-51890000D01*
X25159534Y-51890000D01*
X25179313Y-52040236D01*
X25181797Y-52046233D01*
X25234819Y-52174240D01*
X25234821Y-52174244D01*
X25237302Y-52180233D01*
X25241248Y-52185375D01*
X25241250Y-52185379D01*
X25295926Y-52256633D01*
X25329549Y-52300451D01*
X25334698Y-52304402D01*
X25444621Y-52388750D01*
X25444625Y-52388752D01*
X25449767Y-52392698D01*
X25455756Y-52395179D01*
X25455760Y-52395181D01*
X25583767Y-52448203D01*
X25589764Y-52450687D01*
X25702280Y-52465500D01*
X25777720Y-52465500D01*
X25890236Y-52450687D01*
X25896233Y-52448203D01*
X26024240Y-52395181D01*
X26024244Y-52395179D01*
X26030233Y-52392698D01*
X26035375Y-52388752D01*
X26035379Y-52388750D01*
X26145302Y-52304402D01*
X26150451Y-52300451D01*
X26184074Y-52256633D01*
X26238750Y-52185379D01*
X26238752Y-52185375D01*
X26242698Y-52180233D01*
X26245179Y-52174244D01*
X26245181Y-52174240D01*
X26298203Y-52046233D01*
X26300687Y-52040236D01*
X26320466Y-51890000D01*
X26300687Y-51739764D01*
X26277611Y-51684054D01*
X26245181Y-51605760D01*
X26245179Y-51605756D01*
X26242698Y-51599767D01*
X26238752Y-51594625D01*
X26238750Y-51594621D01*
X26154402Y-51484698D01*
X26150451Y-51479549D01*
X26145302Y-51475598D01*
X26104697Y-51444440D01*
X27994901Y-51444440D01*
X27995816Y-51451437D01*
X27995816Y-51451438D01*
X27996858Y-51459403D01*
X28011633Y-51572394D01*
X28014471Y-51578845D01*
X28014472Y-51578847D01*
X28021413Y-51594621D01*
X28063605Y-51690510D01*
X28099966Y-51733767D01*
X28142100Y-51783892D01*
X28142103Y-51783894D01*
X28146639Y-51789291D01*
X28254060Y-51860796D01*
X28260788Y-51862898D01*
X28260790Y-51862899D01*
X28315646Y-51880037D01*
X28377233Y-51899278D01*
X28441744Y-51900460D01*
X28499202Y-51901514D01*
X28499204Y-51901514D01*
X28506255Y-51901643D01*
X28513058Y-51899788D01*
X28513060Y-51899788D01*
X28554828Y-51888400D01*
X28630755Y-51867700D01*
X28740724Y-51800179D01*
X28755466Y-51783892D01*
X28822590Y-51709735D01*
X28822590Y-51709734D01*
X28827322Y-51704507D01*
X28883588Y-51588375D01*
X28894596Y-51522941D01*
X28904363Y-51464891D01*
X28904363Y-51464886D01*
X28904997Y-51461120D01*
X28905133Y-51450000D01*
X28886839Y-51322259D01*
X28849670Y-51240510D01*
X28836349Y-51211212D01*
X28836348Y-51211211D01*
X28833428Y-51204788D01*
X28770209Y-51131418D01*
X28753798Y-51112372D01*
X28753797Y-51112371D01*
X28749193Y-51107028D01*
X28743276Y-51103193D01*
X28743274Y-51103191D01*
X28646824Y-51040677D01*
X28640906Y-51036841D01*
X28634150Y-51034821D01*
X28634149Y-51034820D01*
X28567512Y-51014891D01*
X28517273Y-50999866D01*
X28440644Y-50999398D01*
X28395282Y-50999121D01*
X28388231Y-50999078D01*
X28381454Y-51001015D01*
X28381453Y-51001015D01*
X28270935Y-51032601D01*
X28270933Y-51032602D01*
X28264155Y-51034539D01*
X28155019Y-51103399D01*
X28069596Y-51200122D01*
X28014754Y-51316932D01*
X27994901Y-51444440D01*
X26104697Y-51444440D01*
X26035379Y-51391250D01*
X26035375Y-51391248D01*
X26030233Y-51387302D01*
X26024244Y-51384821D01*
X26024240Y-51384819D01*
X25896233Y-51331797D01*
X25890236Y-51329313D01*
X25777720Y-51314500D01*
X25702280Y-51314500D01*
X25589764Y-51329313D01*
X25583767Y-51331797D01*
X25455760Y-51384819D01*
X25455756Y-51384821D01*
X25449767Y-51387302D01*
X25444625Y-51391248D01*
X25444621Y-51391250D01*
X25334698Y-51475598D01*
X25329549Y-51479549D01*
X25325598Y-51484698D01*
X25241250Y-51594621D01*
X25241248Y-51594625D01*
X25237302Y-51599767D01*
X25234821Y-51605756D01*
X25234819Y-51605760D01*
X25202389Y-51684054D01*
X25179313Y-51739764D01*
X25159534Y-51890000D01*
X18290219Y-51890000D01*
X18225799Y-51153672D01*
X18225558Y-51150225D01*
X18191481Y-50500000D01*
X30944750Y-50500000D01*
X30945597Y-50506433D01*
X30961520Y-50627375D01*
X30963670Y-50643709D01*
X31019139Y-50777625D01*
X31107379Y-50892621D01*
X31222375Y-50980861D01*
X31356291Y-51036330D01*
X31362720Y-51037176D01*
X31362722Y-51037177D01*
X31493567Y-51054403D01*
X31500000Y-51055250D01*
X31506433Y-51054403D01*
X31637278Y-51037177D01*
X31637280Y-51037176D01*
X31643709Y-51036330D01*
X31777625Y-50980861D01*
X31876488Y-50905000D01*
X33539750Y-50905000D01*
X33540597Y-50911433D01*
X33557613Y-51040677D01*
X33558670Y-51048709D01*
X33614139Y-51182625D01*
X33702379Y-51297621D01*
X33817375Y-51385861D01*
X33951291Y-51441330D01*
X33957720Y-51442176D01*
X33957722Y-51442177D01*
X34088567Y-51459403D01*
X34095000Y-51460250D01*
X34101433Y-51459403D01*
X34232278Y-51442177D01*
X34232280Y-51442176D01*
X34238709Y-51441330D01*
X34372625Y-51385861D01*
X34487621Y-51297621D01*
X34575861Y-51182625D01*
X34631330Y-51048709D01*
X34632388Y-51040677D01*
X34649403Y-50911433D01*
X34650250Y-50905000D01*
X34646156Y-50873902D01*
X34632177Y-50767722D01*
X34632176Y-50767720D01*
X34631330Y-50761291D01*
X34575861Y-50627375D01*
X34487621Y-50512379D01*
X34414473Y-50456250D01*
X42401000Y-50456250D01*
X42401847Y-50462683D01*
X42417635Y-50582601D01*
X42419920Y-50599959D01*
X42475389Y-50733875D01*
X42563629Y-50848871D01*
X42678625Y-50937111D01*
X42812541Y-50992580D01*
X42818970Y-50993426D01*
X42818972Y-50993427D01*
X42949817Y-51010653D01*
X42956250Y-51011500D01*
X42962683Y-51010653D01*
X43085833Y-50994440D01*
X55544901Y-50994440D01*
X55545816Y-51001437D01*
X55545816Y-51001438D01*
X55547021Y-51010653D01*
X55561633Y-51122394D01*
X55564471Y-51128845D01*
X55564472Y-51128847D01*
X55610764Y-51234054D01*
X55613605Y-51240510D01*
X55655122Y-51289901D01*
X55692100Y-51333892D01*
X55692103Y-51333894D01*
X55696639Y-51339291D01*
X55804060Y-51410796D01*
X55810788Y-51412898D01*
X55810790Y-51412899D01*
X55865647Y-51430037D01*
X55927233Y-51449278D01*
X55991744Y-51450460D01*
X56049202Y-51451514D01*
X56049204Y-51451514D01*
X56056255Y-51451643D01*
X56063058Y-51449788D01*
X56063060Y-51449788D01*
X56108255Y-51437466D01*
X56180755Y-51417700D01*
X56290724Y-51350179D01*
X56377322Y-51254507D01*
X56433588Y-51138375D01*
X56449755Y-51042278D01*
X56454363Y-51014891D01*
X56454363Y-51014886D01*
X56454997Y-51011120D01*
X56455133Y-51000000D01*
X56436839Y-50872259D01*
X56396153Y-50782774D01*
X56386349Y-50761212D01*
X56386348Y-50761211D01*
X56383428Y-50754788D01*
X56299193Y-50657028D01*
X56293276Y-50653193D01*
X56293274Y-50653191D01*
X56196824Y-50590677D01*
X56190906Y-50586841D01*
X56184150Y-50584821D01*
X56184149Y-50584820D01*
X56141335Y-50572016D01*
X56067273Y-50549866D01*
X55990644Y-50549398D01*
X55945282Y-50549121D01*
X55938231Y-50549078D01*
X55931454Y-50551015D01*
X55931453Y-50551015D01*
X55820935Y-50582601D01*
X55820933Y-50582602D01*
X55814155Y-50584539D01*
X55705019Y-50653399D01*
X55619596Y-50750122D01*
X55564754Y-50866932D01*
X55544901Y-50994440D01*
X43085833Y-50994440D01*
X43093528Y-50993427D01*
X43093530Y-50993426D01*
X43099959Y-50992580D01*
X43233875Y-50937111D01*
X43348871Y-50848871D01*
X43437111Y-50733875D01*
X43492580Y-50599959D01*
X43494866Y-50582601D01*
X43510653Y-50462683D01*
X43511500Y-50456250D01*
X43492580Y-50312541D01*
X43437111Y-50178625D01*
X43348871Y-50063629D01*
X43233875Y-49975389D01*
X43099959Y-49919920D01*
X43093530Y-49919074D01*
X43093528Y-49919073D01*
X42962683Y-49901847D01*
X42956250Y-49901000D01*
X42949817Y-49901847D01*
X42818972Y-49919073D01*
X42818970Y-49919074D01*
X42812541Y-49919920D01*
X42678625Y-49975389D01*
X42563629Y-50063629D01*
X42475389Y-50178625D01*
X42419920Y-50312541D01*
X42401000Y-50456250D01*
X34414473Y-50456250D01*
X34372625Y-50424139D01*
X34238709Y-50368670D01*
X34232280Y-50367824D01*
X34232278Y-50367823D01*
X34101433Y-50350597D01*
X34095000Y-50349750D01*
X34088567Y-50350597D01*
X33957722Y-50367823D01*
X33957720Y-50367824D01*
X33951291Y-50368670D01*
X33817375Y-50424139D01*
X33702379Y-50512379D01*
X33614139Y-50627375D01*
X33558670Y-50761291D01*
X33557824Y-50767720D01*
X33557823Y-50767722D01*
X33543844Y-50873902D01*
X33539750Y-50905000D01*
X31876488Y-50905000D01*
X31892621Y-50892621D01*
X31980861Y-50777625D01*
X32036330Y-50643709D01*
X32038481Y-50627375D01*
X32054403Y-50506433D01*
X32055250Y-50500000D01*
X32045263Y-50424139D01*
X32037177Y-50362722D01*
X32037176Y-50362720D01*
X32036330Y-50356291D01*
X31980861Y-50222375D01*
X31892621Y-50107379D01*
X31777625Y-50019139D01*
X31643709Y-49963670D01*
X31637280Y-49962824D01*
X31637278Y-49962823D01*
X31506433Y-49945597D01*
X31500000Y-49944750D01*
X31493567Y-49945597D01*
X31362722Y-49962823D01*
X31362720Y-49962824D01*
X31356291Y-49963670D01*
X31222375Y-50019139D01*
X31107379Y-50107379D01*
X31019139Y-50222375D01*
X30963670Y-50356291D01*
X30962824Y-50362720D01*
X30962823Y-50362722D01*
X30954737Y-50424139D01*
X30944750Y-50500000D01*
X18191481Y-50500000D01*
X18169384Y-50078369D01*
X18169263Y-50074916D01*
X18167482Y-49972905D01*
X18152585Y-49119440D01*
X25419901Y-49119440D01*
X25420816Y-49126437D01*
X25420816Y-49126438D01*
X25422082Y-49136120D01*
X25436633Y-49247394D01*
X25439471Y-49253845D01*
X25439472Y-49253847D01*
X25446458Y-49269724D01*
X25488605Y-49365510D01*
X25530122Y-49414901D01*
X25567100Y-49458892D01*
X25567103Y-49458894D01*
X25571639Y-49464291D01*
X25679060Y-49535796D01*
X25685788Y-49537898D01*
X25685790Y-49537899D01*
X25740647Y-49555037D01*
X25802233Y-49574278D01*
X25866744Y-49575461D01*
X25924202Y-49576514D01*
X25924204Y-49576514D01*
X25931255Y-49576643D01*
X25938058Y-49574788D01*
X25938060Y-49574788D01*
X25979828Y-49563400D01*
X26055755Y-49542700D01*
X26125299Y-49500000D01*
X40250000Y-49500000D01*
X43750000Y-49500000D01*
X43750000Y-46500000D01*
X40250000Y-46500000D01*
X40250000Y-49500000D01*
X26125299Y-49500000D01*
X26165724Y-49475179D01*
X26252322Y-49379507D01*
X26308588Y-49263375D01*
X26329997Y-49136120D01*
X26330133Y-49125000D01*
X26311839Y-48997259D01*
X26258428Y-48879788D01*
X26174193Y-48782028D01*
X26168276Y-48778193D01*
X26168274Y-48778191D01*
X26071824Y-48715677D01*
X26065906Y-48711841D01*
X26059150Y-48709821D01*
X26059149Y-48709820D01*
X26016335Y-48697016D01*
X25942273Y-48674866D01*
X25865644Y-48674398D01*
X25820282Y-48674121D01*
X25813231Y-48674078D01*
X25806454Y-48676015D01*
X25806453Y-48676015D01*
X25695935Y-48707601D01*
X25695933Y-48707602D01*
X25689155Y-48709539D01*
X25580019Y-48778399D01*
X25494596Y-48875122D01*
X25439754Y-48991932D01*
X25419901Y-49119440D01*
X18152585Y-49119440D01*
X18150530Y-49001719D01*
X18150530Y-48998272D01*
X18151937Y-48917700D01*
X18159325Y-48494440D01*
X24294901Y-48494440D01*
X24295816Y-48501437D01*
X24295816Y-48501438D01*
X24297082Y-48511120D01*
X24311633Y-48622394D01*
X24314471Y-48628845D01*
X24314472Y-48628847D01*
X24350101Y-48709820D01*
X24363605Y-48740510D01*
X24402997Y-48787372D01*
X24442100Y-48833892D01*
X24442103Y-48833894D01*
X24446639Y-48839291D01*
X24554060Y-48910796D01*
X24560788Y-48912898D01*
X24560790Y-48912899D01*
X24615646Y-48930037D01*
X24677233Y-48949278D01*
X24741744Y-48950461D01*
X24799202Y-48951514D01*
X24799204Y-48951514D01*
X24806255Y-48951643D01*
X24813058Y-48949788D01*
X24813060Y-48949788D01*
X24854828Y-48938400D01*
X24930755Y-48917700D01*
X25040724Y-48850179D01*
X25127322Y-48754507D01*
X25183588Y-48638375D01*
X25204997Y-48511120D01*
X25205133Y-48500000D01*
X25186839Y-48372259D01*
X25133428Y-48254788D01*
X25049193Y-48157028D01*
X25043276Y-48153193D01*
X25043274Y-48153191D01*
X24946824Y-48090677D01*
X24940906Y-48086841D01*
X24934150Y-48084821D01*
X24934149Y-48084820D01*
X24891335Y-48072016D01*
X24817273Y-48049866D01*
X24740644Y-48049398D01*
X24695282Y-48049121D01*
X24688231Y-48049078D01*
X24681454Y-48051015D01*
X24681453Y-48051015D01*
X24570935Y-48082601D01*
X24570933Y-48082602D01*
X24564155Y-48084539D01*
X24455019Y-48153399D01*
X24369596Y-48250122D01*
X24314754Y-48366932D01*
X24294901Y-48494440D01*
X18159325Y-48494440D01*
X18169263Y-47925081D01*
X18169384Y-47921631D01*
X18225558Y-46849775D01*
X18225799Y-46846328D01*
X18290219Y-46110000D01*
X25159534Y-46110000D01*
X25179313Y-46260236D01*
X25181797Y-46266233D01*
X25234819Y-46394240D01*
X25234821Y-46394244D01*
X25237302Y-46400233D01*
X25241248Y-46405375D01*
X25241250Y-46405379D01*
X25313856Y-46500000D01*
X25329549Y-46520451D01*
X25334698Y-46524402D01*
X25444621Y-46608750D01*
X25444625Y-46608752D01*
X25449767Y-46612698D01*
X25455756Y-46615179D01*
X25455760Y-46615181D01*
X25583767Y-46668203D01*
X25589764Y-46670687D01*
X25702280Y-46685500D01*
X25777720Y-46685500D01*
X25890236Y-46670687D01*
X25896233Y-46668203D01*
X26024240Y-46615181D01*
X26024244Y-46615179D01*
X26030233Y-46612698D01*
X26035375Y-46608752D01*
X26035379Y-46608750D01*
X26043295Y-46602676D01*
X27361507Y-46602676D01*
X27362422Y-46609673D01*
X27362422Y-46609674D01*
X27366421Y-46640254D01*
X27378239Y-46730630D01*
X27381077Y-46737081D01*
X27381078Y-46737083D01*
X27427370Y-46842290D01*
X27430211Y-46848746D01*
X27456449Y-46879960D01*
X27508706Y-46942128D01*
X27508709Y-46942130D01*
X27513245Y-46947527D01*
X27620666Y-47019032D01*
X27627394Y-47021134D01*
X27627396Y-47021135D01*
X27682252Y-47038273D01*
X27743839Y-47057514D01*
X27808350Y-47058696D01*
X27865808Y-47059750D01*
X27865810Y-47059750D01*
X27872861Y-47059879D01*
X27879664Y-47058024D01*
X27879666Y-47058024D01*
X27921434Y-47046636D01*
X27997361Y-47025936D01*
X28107330Y-46958415D01*
X28173612Y-46885188D01*
X28179946Y-46878190D01*
X28911151Y-46878190D01*
X28912066Y-46885187D01*
X28912066Y-46885188D01*
X28913332Y-46894870D01*
X28927883Y-47006144D01*
X28930721Y-47012595D01*
X28930722Y-47012597D01*
X28977014Y-47117804D01*
X28979855Y-47124260D01*
X29021372Y-47173651D01*
X29058350Y-47217642D01*
X29058353Y-47217644D01*
X29062889Y-47223041D01*
X29170310Y-47294546D01*
X29177038Y-47296648D01*
X29177040Y-47296649D01*
X29231896Y-47313787D01*
X29293483Y-47333028D01*
X29357994Y-47334211D01*
X29415452Y-47335264D01*
X29415454Y-47335264D01*
X29422505Y-47335393D01*
X29429308Y-47333538D01*
X29429310Y-47333538D01*
X29471078Y-47322150D01*
X29547005Y-47301450D01*
X29656974Y-47233929D01*
X29663292Y-47226949D01*
X29738840Y-47143485D01*
X29738840Y-47143484D01*
X29743572Y-47138257D01*
X29799838Y-47022125D01*
X29811131Y-46955000D01*
X38489750Y-46955000D01*
X38490597Y-46961433D01*
X38503314Y-47058024D01*
X38508670Y-47098709D01*
X38564139Y-47232625D01*
X38652379Y-47347621D01*
X38767375Y-47435861D01*
X38901291Y-47491330D01*
X38907720Y-47492176D01*
X38907722Y-47492177D01*
X39038567Y-47509403D01*
X39045000Y-47510250D01*
X39051433Y-47509403D01*
X39182278Y-47492177D01*
X39182280Y-47492176D01*
X39188709Y-47491330D01*
X39322625Y-47435861D01*
X39437621Y-47347621D01*
X39525861Y-47232625D01*
X39581330Y-47098709D01*
X39586687Y-47058024D01*
X39599403Y-46961433D01*
X39600250Y-46955000D01*
X39590138Y-46878190D01*
X39582177Y-46817722D01*
X39582176Y-46817720D01*
X39581330Y-46811291D01*
X39525861Y-46677375D01*
X39473203Y-46608750D01*
X39441572Y-46567528D01*
X39437621Y-46562379D01*
X39322625Y-46474139D01*
X39188709Y-46418670D01*
X39182280Y-46417824D01*
X39182278Y-46417823D01*
X39051433Y-46400597D01*
X39045000Y-46399750D01*
X39038567Y-46400597D01*
X38907722Y-46417823D01*
X38907720Y-46417824D01*
X38901291Y-46418670D01*
X38767375Y-46474139D01*
X38652379Y-46562379D01*
X38648428Y-46567528D01*
X38616797Y-46608750D01*
X38564139Y-46677375D01*
X38508670Y-46811291D01*
X38507824Y-46817720D01*
X38507823Y-46817722D01*
X38499862Y-46878190D01*
X38489750Y-46955000D01*
X29811131Y-46955000D01*
X29812388Y-46947527D01*
X29820613Y-46898641D01*
X29820613Y-46898636D01*
X29821247Y-46894870D01*
X29821383Y-46883750D01*
X29803089Y-46756009D01*
X29764995Y-46672226D01*
X29752599Y-46644962D01*
X29752598Y-46644961D01*
X29749678Y-46638538D01*
X29665443Y-46540778D01*
X29659526Y-46536943D01*
X29659524Y-46536941D01*
X29572436Y-46480495D01*
X29557156Y-46470591D01*
X29550400Y-46468571D01*
X29550399Y-46468570D01*
X29507585Y-46455766D01*
X29433523Y-46433616D01*
X29356894Y-46433148D01*
X29311532Y-46432871D01*
X29304481Y-46432828D01*
X29297704Y-46434765D01*
X29297703Y-46434765D01*
X29187185Y-46466351D01*
X29187183Y-46466352D01*
X29180405Y-46468289D01*
X29071269Y-46537149D01*
X28985846Y-46633872D01*
X28931004Y-46750682D01*
X28911151Y-46878190D01*
X28179946Y-46878190D01*
X28189196Y-46867971D01*
X28189196Y-46867970D01*
X28193928Y-46862743D01*
X28250194Y-46746611D01*
X28269161Y-46633872D01*
X28270969Y-46623127D01*
X28270969Y-46623122D01*
X28271603Y-46619356D01*
X28271739Y-46608236D01*
X28253445Y-46480495D01*
X28219292Y-46405379D01*
X28202955Y-46369448D01*
X28202954Y-46369447D01*
X28200034Y-46363024D01*
X28115799Y-46265264D01*
X28109882Y-46261429D01*
X28109880Y-46261427D01*
X28013430Y-46198913D01*
X28007512Y-46195077D01*
X28000756Y-46193057D01*
X28000755Y-46193056D01*
X27957941Y-46180252D01*
X27883879Y-46158102D01*
X27807250Y-46157634D01*
X27761888Y-46157357D01*
X27754837Y-46157314D01*
X27748060Y-46159251D01*
X27748059Y-46159251D01*
X27637541Y-46190837D01*
X27637539Y-46190838D01*
X27630761Y-46192775D01*
X27521625Y-46261635D01*
X27436202Y-46358358D01*
X27381360Y-46475168D01*
X27361507Y-46602676D01*
X26043295Y-46602676D01*
X26145302Y-46524402D01*
X26150451Y-46520451D01*
X26166144Y-46500000D01*
X26238750Y-46405379D01*
X26238752Y-46405375D01*
X26242698Y-46400233D01*
X26245179Y-46394244D01*
X26245181Y-46394240D01*
X26298203Y-46266233D01*
X26300687Y-46260236D01*
X26320466Y-46110000D01*
X26300687Y-45959764D01*
X26298203Y-45953767D01*
X26245181Y-45825760D01*
X26245179Y-45825756D01*
X26242698Y-45819767D01*
X26238752Y-45814625D01*
X26238750Y-45814621D01*
X26154402Y-45704698D01*
X26150451Y-45699549D01*
X26145302Y-45695598D01*
X26035379Y-45611250D01*
X26035375Y-45611248D01*
X26030233Y-45607302D01*
X26024244Y-45604821D01*
X26024240Y-45604819D01*
X25896233Y-45551797D01*
X25890236Y-45549313D01*
X25777720Y-45534500D01*
X25702280Y-45534500D01*
X25589764Y-45549313D01*
X25583767Y-45551797D01*
X25455760Y-45604819D01*
X25455756Y-45604821D01*
X25449767Y-45607302D01*
X25444625Y-45611248D01*
X25444621Y-45611250D01*
X25334698Y-45695598D01*
X25329549Y-45699549D01*
X25325598Y-45704698D01*
X25241250Y-45814621D01*
X25241248Y-45814625D01*
X25237302Y-45819767D01*
X25234821Y-45825756D01*
X25234819Y-45825760D01*
X25181797Y-45953767D01*
X25179313Y-45959764D01*
X25159534Y-46110000D01*
X18290219Y-46110000D01*
X18319346Y-45777078D01*
X18319707Y-45773641D01*
X18414698Y-45000000D01*
X38944750Y-45000000D01*
X38963670Y-45143709D01*
X39019139Y-45277625D01*
X39107379Y-45392621D01*
X39222375Y-45480861D01*
X39356291Y-45536330D01*
X39362720Y-45537176D01*
X39362722Y-45537177D01*
X39493567Y-45554403D01*
X39500000Y-45555250D01*
X39506433Y-45554403D01*
X39637278Y-45537177D01*
X39637280Y-45537176D01*
X39643709Y-45536330D01*
X39777625Y-45480861D01*
X39892621Y-45392621D01*
X39980861Y-45277625D01*
X40036330Y-45143709D01*
X40055250Y-45000000D01*
X40036330Y-44856291D01*
X39980861Y-44722375D01*
X39892621Y-44607379D01*
X39777625Y-44519139D01*
X39643709Y-44463670D01*
X39637280Y-44462824D01*
X39637278Y-44462823D01*
X39506433Y-44445597D01*
X39500000Y-44444750D01*
X39493567Y-44445597D01*
X39362722Y-44462823D01*
X39362720Y-44462824D01*
X39356291Y-44463670D01*
X39222375Y-44519139D01*
X39107379Y-44607379D01*
X39019139Y-44722375D01*
X38963670Y-44856291D01*
X38944750Y-45000000D01*
X18414698Y-45000000D01*
X18450515Y-44708292D01*
X18450996Y-44704870D01*
X18618902Y-43644749D01*
X18619502Y-43641346D01*
X18636238Y-43555250D01*
X18744168Y-43000000D01*
X38944750Y-43000000D01*
X38963670Y-43143709D01*
X39019139Y-43277625D01*
X39107379Y-43392621D01*
X39222375Y-43480861D01*
X39356291Y-43536330D01*
X39362720Y-43537176D01*
X39362722Y-43537177D01*
X39493567Y-43554403D01*
X39500000Y-43555250D01*
X39506433Y-43554403D01*
X39637278Y-43537177D01*
X39637280Y-43537176D01*
X39643709Y-43536330D01*
X39777625Y-43480861D01*
X39892621Y-43392621D01*
X39980861Y-43277625D01*
X40036330Y-43143709D01*
X40055250Y-43000000D01*
X40043506Y-42910796D01*
X40037177Y-42862722D01*
X40037176Y-42862720D01*
X40036330Y-42856291D01*
X39980861Y-42722375D01*
X39892621Y-42607379D01*
X39777625Y-42519139D01*
X39643709Y-42463670D01*
X39637280Y-42462824D01*
X39637278Y-42462823D01*
X39506433Y-42445597D01*
X39500000Y-42444750D01*
X39493567Y-42445597D01*
X39362722Y-42462823D01*
X39362720Y-42462824D01*
X39356291Y-42463670D01*
X39222375Y-42519139D01*
X39107379Y-42607379D01*
X39019139Y-42722375D01*
X38963670Y-42856291D01*
X38962824Y-42862720D01*
X38962823Y-42862722D01*
X38956494Y-42910796D01*
X38944750Y-43000000D01*
X18744168Y-43000000D01*
X18824304Y-42587736D01*
X18825022Y-42584356D01*
X18839322Y-42522415D01*
X18845781Y-42494440D01*
X28114901Y-42494440D01*
X28115816Y-42501437D01*
X28115816Y-42501438D01*
X28117082Y-42511120D01*
X28131633Y-42622394D01*
X28134471Y-42628845D01*
X28134472Y-42628847D01*
X28180764Y-42734054D01*
X28183605Y-42740510D01*
X28225122Y-42789901D01*
X28262100Y-42833892D01*
X28262103Y-42833894D01*
X28266639Y-42839291D01*
X28374060Y-42910796D01*
X28380788Y-42912898D01*
X28380790Y-42912899D01*
X28435647Y-42930037D01*
X28497233Y-42949278D01*
X28561744Y-42950461D01*
X28619202Y-42951514D01*
X28619204Y-42951514D01*
X28626255Y-42951643D01*
X28633058Y-42949788D01*
X28633060Y-42949788D01*
X28674828Y-42938400D01*
X28750755Y-42917700D01*
X28860724Y-42850179D01*
X28947322Y-42754507D01*
X29003588Y-42638375D01*
X29014596Y-42572941D01*
X29024363Y-42514891D01*
X29024363Y-42514886D01*
X29024997Y-42511120D01*
X29025133Y-42500000D01*
X29006839Y-42372259D01*
X28953428Y-42254788D01*
X28869193Y-42157028D01*
X28863276Y-42153193D01*
X28863274Y-42153191D01*
X28766824Y-42090677D01*
X28760906Y-42086841D01*
X28754150Y-42084821D01*
X28754149Y-42084820D01*
X28711335Y-42072016D01*
X28637273Y-42049866D01*
X28560644Y-42049398D01*
X28515282Y-42049121D01*
X28508231Y-42049078D01*
X28501454Y-42051015D01*
X28501453Y-42051015D01*
X28390935Y-42082601D01*
X28390933Y-42082602D01*
X28384155Y-42084539D01*
X28275019Y-42153399D01*
X28189596Y-42250122D01*
X28134754Y-42366932D01*
X28114901Y-42494440D01*
X18845781Y-42494440D01*
X19066476Y-41538502D01*
X19067309Y-41535161D01*
X19345113Y-40498383D01*
X19346066Y-40495061D01*
X19497421Y-40000000D01*
X33444750Y-40000000D01*
X33463670Y-40143709D01*
X33519139Y-40277625D01*
X33607379Y-40392621D01*
X33722375Y-40480861D01*
X33856291Y-40536330D01*
X33862720Y-40537176D01*
X33862722Y-40537177D01*
X33993567Y-40554403D01*
X34000000Y-40555250D01*
X34006433Y-40554403D01*
X34137278Y-40537177D01*
X34137280Y-40537176D01*
X34143709Y-40536330D01*
X34277625Y-40480861D01*
X34392621Y-40392621D01*
X34480861Y-40277625D01*
X34536330Y-40143709D01*
X34555250Y-40000000D01*
X34536330Y-39856291D01*
X34480861Y-39722375D01*
X34392621Y-39607379D01*
X34277625Y-39519139D01*
X34143709Y-39463670D01*
X34137280Y-39462824D01*
X34137278Y-39462823D01*
X34006433Y-39445597D01*
X34000000Y-39444750D01*
X33993567Y-39445597D01*
X33862722Y-39462823D01*
X33862720Y-39462824D01*
X33856291Y-39463670D01*
X33722375Y-39519139D01*
X33607379Y-39607379D01*
X33519139Y-39722375D01*
X33463670Y-39856291D01*
X33444750Y-40000000D01*
X19497421Y-40000000D01*
X19539391Y-39862722D01*
X19659885Y-39468604D01*
X19660947Y-39465338D01*
X19661522Y-39463670D01*
X20010393Y-38450474D01*
X20011573Y-38447231D01*
X20051122Y-38344204D01*
X20279216Y-37750000D01*
X31444750Y-37750000D01*
X31448407Y-37777779D01*
X31460864Y-37872394D01*
X31463670Y-37893709D01*
X31519139Y-38027625D01*
X31607379Y-38142621D01*
X31722375Y-38230861D01*
X31856291Y-38286330D01*
X31862720Y-38287176D01*
X31862722Y-38287177D01*
X31993567Y-38304403D01*
X32000000Y-38305250D01*
X32006433Y-38304403D01*
X32137278Y-38287177D01*
X32137280Y-38287176D01*
X32143709Y-38286330D01*
X32277625Y-38230861D01*
X32392621Y-38142621D01*
X32480861Y-38027625D01*
X32536330Y-37893709D01*
X32539137Y-37872394D01*
X32551593Y-37777779D01*
X32555250Y-37750000D01*
X33694750Y-37750000D01*
X33698407Y-37777779D01*
X33710864Y-37872394D01*
X33713670Y-37893709D01*
X33769139Y-38027625D01*
X33857379Y-38142621D01*
X33972375Y-38230861D01*
X34106291Y-38286330D01*
X34112720Y-38287176D01*
X34112722Y-38287177D01*
X34243567Y-38304403D01*
X34250000Y-38305250D01*
X34256433Y-38304403D01*
X34387278Y-38287177D01*
X34387280Y-38287176D01*
X34393709Y-38286330D01*
X34527625Y-38230861D01*
X34642621Y-38142621D01*
X34730861Y-38027625D01*
X34786330Y-37893709D01*
X34789137Y-37872394D01*
X34801593Y-37777779D01*
X34805250Y-37750000D01*
X34804518Y-37744440D01*
X56794901Y-37744440D01*
X56795816Y-37751437D01*
X56795816Y-37751438D01*
X56797082Y-37761120D01*
X56811633Y-37872394D01*
X56814471Y-37878845D01*
X56814472Y-37878847D01*
X56821458Y-37894724D01*
X56863605Y-37990510D01*
X56899132Y-38032774D01*
X56942100Y-38083892D01*
X56942103Y-38083894D01*
X56946639Y-38089291D01*
X57054060Y-38160796D01*
X57060788Y-38162898D01*
X57060790Y-38162899D01*
X57115646Y-38180037D01*
X57177233Y-38199278D01*
X57241744Y-38200461D01*
X57299202Y-38201514D01*
X57299204Y-38201514D01*
X57306255Y-38201643D01*
X57313058Y-38199788D01*
X57313060Y-38199788D01*
X57354828Y-38188400D01*
X57430755Y-38167700D01*
X57540724Y-38100179D01*
X57627322Y-38004507D01*
X57683588Y-37888375D01*
X57697715Y-37804403D01*
X57704363Y-37764891D01*
X57704363Y-37764886D01*
X57704997Y-37761120D01*
X57705133Y-37750000D01*
X57704337Y-37744440D01*
X58044901Y-37744440D01*
X58045816Y-37751437D01*
X58045816Y-37751438D01*
X58047082Y-37761120D01*
X58061633Y-37872394D01*
X58064471Y-37878845D01*
X58064472Y-37878847D01*
X58071458Y-37894724D01*
X58113605Y-37990510D01*
X58149132Y-38032774D01*
X58192100Y-38083892D01*
X58192103Y-38083894D01*
X58196639Y-38089291D01*
X58304060Y-38160796D01*
X58310788Y-38162898D01*
X58310790Y-38162899D01*
X58365646Y-38180037D01*
X58427233Y-38199278D01*
X58491744Y-38200461D01*
X58549202Y-38201514D01*
X58549204Y-38201514D01*
X58556255Y-38201643D01*
X58563058Y-38199788D01*
X58563060Y-38199788D01*
X58604828Y-38188400D01*
X58680755Y-38167700D01*
X58790724Y-38100179D01*
X58877322Y-38004507D01*
X58933588Y-37888375D01*
X58947715Y-37804403D01*
X58954363Y-37764891D01*
X58954363Y-37764886D01*
X58954997Y-37761120D01*
X58955133Y-37750000D01*
X58936839Y-37622259D01*
X58896153Y-37532774D01*
X58886349Y-37511212D01*
X58886348Y-37511211D01*
X58883428Y-37504788D01*
X58799193Y-37407028D01*
X58793276Y-37403193D01*
X58793274Y-37403191D01*
X58696824Y-37340677D01*
X58690906Y-37336841D01*
X58684150Y-37334821D01*
X58684149Y-37334820D01*
X58641335Y-37322016D01*
X58567273Y-37299866D01*
X58490644Y-37299398D01*
X58445282Y-37299121D01*
X58438231Y-37299078D01*
X58431454Y-37301015D01*
X58431453Y-37301015D01*
X58320935Y-37332601D01*
X58320933Y-37332602D01*
X58314155Y-37334539D01*
X58205019Y-37403399D01*
X58119596Y-37500122D01*
X58064754Y-37616932D01*
X58044901Y-37744440D01*
X57704337Y-37744440D01*
X57686839Y-37622259D01*
X57646153Y-37532774D01*
X57636349Y-37511212D01*
X57636348Y-37511211D01*
X57633428Y-37504788D01*
X57549193Y-37407028D01*
X57543276Y-37403193D01*
X57543274Y-37403191D01*
X57446824Y-37340677D01*
X57440906Y-37336841D01*
X57434150Y-37334821D01*
X57434149Y-37334820D01*
X57391335Y-37322016D01*
X57317273Y-37299866D01*
X57240644Y-37299398D01*
X57195282Y-37299121D01*
X57188231Y-37299078D01*
X57181454Y-37301015D01*
X57181453Y-37301015D01*
X57070935Y-37332601D01*
X57070933Y-37332602D01*
X57064155Y-37334539D01*
X56955019Y-37403399D01*
X56869596Y-37500122D01*
X56814754Y-37616932D01*
X56794901Y-37744440D01*
X34804518Y-37744440D01*
X34788649Y-37623902D01*
X34787177Y-37612722D01*
X34787176Y-37612720D01*
X34786330Y-37606291D01*
X34730861Y-37472375D01*
X34642621Y-37357379D01*
X34615856Y-37336841D01*
X34532774Y-37273090D01*
X34527625Y-37269139D01*
X34481419Y-37250000D01*
X71944750Y-37250000D01*
X71963670Y-37393709D01*
X72019139Y-37527625D01*
X72107379Y-37642621D01*
X72222375Y-37730861D01*
X72356291Y-37786330D01*
X72362720Y-37787176D01*
X72362722Y-37787177D01*
X72493567Y-37804403D01*
X72500000Y-37805250D01*
X72506433Y-37804403D01*
X72637278Y-37787177D01*
X72637280Y-37787176D01*
X72643709Y-37786330D01*
X72777625Y-37730861D01*
X72892621Y-37642621D01*
X72980861Y-37527625D01*
X73036330Y-37393709D01*
X73055250Y-37250000D01*
X73036330Y-37106291D01*
X72980861Y-36972375D01*
X72892621Y-36857379D01*
X72777625Y-36769139D01*
X72643709Y-36713670D01*
X72637280Y-36712824D01*
X72637278Y-36712823D01*
X72506433Y-36695597D01*
X72500000Y-36694750D01*
X72493567Y-36695597D01*
X72362722Y-36712823D01*
X72362720Y-36712824D01*
X72356291Y-36713670D01*
X72222375Y-36769139D01*
X72107379Y-36857379D01*
X72019139Y-36972375D01*
X71963670Y-37106291D01*
X71944750Y-37250000D01*
X34481419Y-37250000D01*
X34393709Y-37213670D01*
X34387280Y-37212824D01*
X34387278Y-37212823D01*
X34256433Y-37195597D01*
X34250000Y-37194750D01*
X34243567Y-37195597D01*
X34112722Y-37212823D01*
X34112720Y-37212824D01*
X34106291Y-37213670D01*
X33972375Y-37269139D01*
X33967226Y-37273090D01*
X33884145Y-37336841D01*
X33857379Y-37357379D01*
X33769139Y-37472375D01*
X33713670Y-37606291D01*
X33712824Y-37612720D01*
X33712823Y-37612722D01*
X33711351Y-37623902D01*
X33694750Y-37750000D01*
X32555250Y-37750000D01*
X32538649Y-37623902D01*
X32537177Y-37612722D01*
X32537176Y-37612720D01*
X32536330Y-37606291D01*
X32480861Y-37472375D01*
X32392621Y-37357379D01*
X32365856Y-37336841D01*
X32282774Y-37273090D01*
X32277625Y-37269139D01*
X32143709Y-37213670D01*
X32137280Y-37212824D01*
X32137278Y-37212823D01*
X32006433Y-37195597D01*
X32000000Y-37194750D01*
X31993567Y-37195597D01*
X31862722Y-37212823D01*
X31862720Y-37212824D01*
X31856291Y-37213670D01*
X31722375Y-37269139D01*
X31717226Y-37273090D01*
X31634145Y-37336841D01*
X31607379Y-37357379D01*
X31519139Y-37472375D01*
X31463670Y-37606291D01*
X31462824Y-37612720D01*
X31462823Y-37612722D01*
X31461351Y-37623902D01*
X31444750Y-37750000D01*
X20279216Y-37750000D01*
X20396222Y-37445188D01*
X20397512Y-37441996D01*
X20816908Y-36453959D01*
X20818314Y-36450802D01*
X21261680Y-35500000D01*
X67944750Y-35500000D01*
X67963670Y-35643709D01*
X68019139Y-35777625D01*
X68107379Y-35892621D01*
X68222375Y-35980861D01*
X68356291Y-36036330D01*
X68362720Y-36037176D01*
X68362722Y-36037177D01*
X68493567Y-36054403D01*
X68500000Y-36055250D01*
X68506433Y-36054403D01*
X68637278Y-36037177D01*
X68637280Y-36037176D01*
X68643709Y-36036330D01*
X68777625Y-35980861D01*
X68892621Y-35892621D01*
X68980861Y-35777625D01*
X69036330Y-35643709D01*
X69055250Y-35500000D01*
X69036330Y-35356291D01*
X68980861Y-35222375D01*
X68892621Y-35107379D01*
X68777625Y-35019139D01*
X68731419Y-35000000D01*
X71444750Y-35000000D01*
X71463670Y-35143709D01*
X71519139Y-35277625D01*
X71607379Y-35392621D01*
X71722375Y-35480861D01*
X71856291Y-35536330D01*
X71862720Y-35537176D01*
X71862722Y-35537177D01*
X71993567Y-35554403D01*
X72000000Y-35555250D01*
X72006433Y-35554403D01*
X72137278Y-35537177D01*
X72137280Y-35537176D01*
X72143709Y-35536330D01*
X72277625Y-35480861D01*
X72392621Y-35392621D01*
X72480861Y-35277625D01*
X72536330Y-35143709D01*
X72555250Y-35000000D01*
X72536330Y-34856291D01*
X72480861Y-34722375D01*
X72392621Y-34607379D01*
X72277625Y-34519139D01*
X72143709Y-34463670D01*
X72137280Y-34462824D01*
X72137278Y-34462823D01*
X72006433Y-34445597D01*
X72000000Y-34444750D01*
X71993567Y-34445597D01*
X71862722Y-34462823D01*
X71862720Y-34462824D01*
X71856291Y-34463670D01*
X71722375Y-34519139D01*
X71607379Y-34607379D01*
X71519139Y-34722375D01*
X71463670Y-34856291D01*
X71444750Y-35000000D01*
X68731419Y-35000000D01*
X68643709Y-34963670D01*
X68637280Y-34962824D01*
X68637278Y-34962823D01*
X68506433Y-34945597D01*
X68500000Y-34944750D01*
X68493567Y-34945597D01*
X68362722Y-34962823D01*
X68362720Y-34962824D01*
X68356291Y-34963670D01*
X68222375Y-35019139D01*
X68107379Y-35107379D01*
X68019139Y-35222375D01*
X67963670Y-35356291D01*
X67944750Y-35500000D01*
X21261680Y-35500000D01*
X21271913Y-35478056D01*
X21273427Y-35474950D01*
X21760732Y-34518560D01*
X21762355Y-34515509D01*
X21897541Y-34271627D01*
X22048106Y-34000000D01*
X26444750Y-34000000D01*
X26463670Y-34143709D01*
X26519139Y-34277625D01*
X26607379Y-34392621D01*
X26722375Y-34480861D01*
X26856291Y-34536330D01*
X26862720Y-34537176D01*
X26862722Y-34537177D01*
X26993567Y-34554403D01*
X27000000Y-34555250D01*
X27006433Y-34554403D01*
X27137278Y-34537177D01*
X27137280Y-34537176D01*
X27143709Y-34536330D01*
X27277625Y-34480861D01*
X27392621Y-34392621D01*
X27480861Y-34277625D01*
X27536330Y-34143709D01*
X27555250Y-34000000D01*
X27536330Y-33856291D01*
X27480861Y-33722375D01*
X27392621Y-33607379D01*
X27277625Y-33519139D01*
X27143709Y-33463670D01*
X27137280Y-33462824D01*
X27137278Y-33462823D01*
X27006433Y-33445597D01*
X27000000Y-33444750D01*
X26993567Y-33445597D01*
X26862722Y-33462823D01*
X26862720Y-33462824D01*
X26856291Y-33463670D01*
X26722375Y-33519139D01*
X26607379Y-33607379D01*
X26519139Y-33722375D01*
X26463670Y-33856291D01*
X26444750Y-34000000D01*
X22048106Y-34000000D01*
X22282705Y-33576772D01*
X22284426Y-33573790D01*
X22310221Y-33530861D01*
X22599151Y-33050000D01*
X58444750Y-33050000D01*
X58463670Y-33193709D01*
X58519139Y-33327625D01*
X58607379Y-33442621D01*
X58722375Y-33530861D01*
X58856291Y-33586330D01*
X58862720Y-33587176D01*
X58862722Y-33587177D01*
X58993567Y-33604403D01*
X59000000Y-33605250D01*
X59006433Y-33604403D01*
X59137278Y-33587177D01*
X59137280Y-33587176D01*
X59143709Y-33586330D01*
X59277625Y-33530861D01*
X59317844Y-33500000D01*
X70444750Y-33500000D01*
X70445597Y-33506433D01*
X70458607Y-33605250D01*
X70463670Y-33643709D01*
X70519139Y-33777625D01*
X70607379Y-33892621D01*
X70722375Y-33980861D01*
X70856291Y-34036330D01*
X70862720Y-34037176D01*
X70862722Y-34037177D01*
X70993567Y-34054403D01*
X71000000Y-34055250D01*
X71006433Y-34054403D01*
X71137278Y-34037177D01*
X71137280Y-34037176D01*
X71143709Y-34036330D01*
X71277625Y-33980861D01*
X71392621Y-33892621D01*
X71480861Y-33777625D01*
X71536330Y-33643709D01*
X71541394Y-33605250D01*
X71554403Y-33506433D01*
X71555250Y-33500000D01*
X71536330Y-33356291D01*
X71480861Y-33222375D01*
X71392621Y-33107379D01*
X71277625Y-33019139D01*
X71143709Y-32963670D01*
X71137280Y-32962824D01*
X71137278Y-32962823D01*
X71006433Y-32945597D01*
X71000000Y-32944750D01*
X70993567Y-32945597D01*
X70862722Y-32962823D01*
X70862720Y-32962824D01*
X70856291Y-32963670D01*
X70722375Y-33019139D01*
X70607379Y-33107379D01*
X70519139Y-33222375D01*
X70463670Y-33356291D01*
X70444750Y-33500000D01*
X59317844Y-33500000D01*
X59392621Y-33442621D01*
X59480861Y-33327625D01*
X59536330Y-33193709D01*
X59555250Y-33050000D01*
X59541505Y-32945597D01*
X59537177Y-32912722D01*
X59537176Y-32912720D01*
X59536330Y-32906291D01*
X59480861Y-32772375D01*
X59392621Y-32657379D01*
X59277625Y-32569139D01*
X59143709Y-32513670D01*
X59137280Y-32512824D01*
X59137278Y-32512823D01*
X59006433Y-32495597D01*
X59000000Y-32494750D01*
X58993567Y-32495597D01*
X58862722Y-32512823D01*
X58862720Y-32512824D01*
X58856291Y-32513670D01*
X58722375Y-32569139D01*
X58607379Y-32657379D01*
X58519139Y-32772375D01*
X58463670Y-32906291D01*
X58462824Y-32912720D01*
X58462823Y-32912722D01*
X58458495Y-32945597D01*
X58444750Y-33050000D01*
X22599151Y-33050000D01*
X22837264Y-32653714D01*
X22839096Y-32650784D01*
X23423658Y-31750638D01*
X23424088Y-31750000D01*
X32944750Y-31750000D01*
X32963670Y-31893709D01*
X33019139Y-32027625D01*
X33107379Y-32142621D01*
X33222375Y-32230861D01*
X33356291Y-32286330D01*
X33362720Y-32287176D01*
X33362722Y-32287177D01*
X33493567Y-32304403D01*
X33500000Y-32305250D01*
X33506433Y-32304403D01*
X33637278Y-32287177D01*
X33637280Y-32287176D01*
X33643709Y-32286330D01*
X33777625Y-32230861D01*
X33892621Y-32142621D01*
X33980861Y-32027625D01*
X34036330Y-31893709D01*
X34055250Y-31750000D01*
X34051593Y-31722221D01*
X34037177Y-31612722D01*
X34037176Y-31612720D01*
X34036330Y-31606291D01*
X33992303Y-31500000D01*
X68944750Y-31500000D01*
X68945597Y-31506433D01*
X68957955Y-31600297D01*
X68963670Y-31643709D01*
X69019139Y-31777625D01*
X69107379Y-31892621D01*
X69222375Y-31980861D01*
X69356291Y-32036330D01*
X69362720Y-32037176D01*
X69362722Y-32037177D01*
X69493567Y-32054403D01*
X69500000Y-32055250D01*
X69506433Y-32054403D01*
X69637278Y-32037177D01*
X69637280Y-32037176D01*
X69643709Y-32036330D01*
X69777625Y-31980861D01*
X69892621Y-31892621D01*
X69980861Y-31777625D01*
X70036330Y-31643709D01*
X70042046Y-31600297D01*
X70054403Y-31506433D01*
X70055250Y-31500000D01*
X70036330Y-31356291D01*
X69980861Y-31222375D01*
X69892621Y-31107379D01*
X69777625Y-31019139D01*
X69643709Y-30963670D01*
X69637280Y-30962824D01*
X69637278Y-30962823D01*
X69506433Y-30945597D01*
X69500000Y-30944750D01*
X69493567Y-30945597D01*
X69362722Y-30962823D01*
X69362720Y-30962824D01*
X69356291Y-30963670D01*
X69222375Y-31019139D01*
X69107379Y-31107379D01*
X69019139Y-31222375D01*
X68963670Y-31356291D01*
X68944750Y-31500000D01*
X33992303Y-31500000D01*
X33980861Y-31472375D01*
X33892621Y-31357379D01*
X33887472Y-31353428D01*
X33887469Y-31353425D01*
X33855041Y-31328542D01*
X33820385Y-31278117D01*
X33821987Y-31216953D01*
X33855041Y-31171458D01*
X33887469Y-31146575D01*
X33887472Y-31146572D01*
X33892621Y-31142621D01*
X33980861Y-31027625D01*
X34036330Y-30893709D01*
X34039644Y-30868542D01*
X34054403Y-30756433D01*
X34055250Y-30750000D01*
X34036330Y-30606291D01*
X33980861Y-30472375D01*
X33892621Y-30357379D01*
X33777625Y-30269139D01*
X33643709Y-30213670D01*
X33637280Y-30212824D01*
X33637278Y-30212823D01*
X33506433Y-30195597D01*
X33500000Y-30194750D01*
X33493567Y-30195597D01*
X33362722Y-30212823D01*
X33362720Y-30212824D01*
X33356291Y-30213670D01*
X33222375Y-30269139D01*
X33107379Y-30357379D01*
X33019139Y-30472375D01*
X32963670Y-30606291D01*
X32944750Y-30750000D01*
X32945597Y-30756433D01*
X32960357Y-30868542D01*
X32963670Y-30893709D01*
X33019139Y-31027625D01*
X33107379Y-31142621D01*
X33112528Y-31146572D01*
X33112531Y-31146575D01*
X33144959Y-31171458D01*
X33179615Y-31221883D01*
X33178013Y-31283047D01*
X33144959Y-31328542D01*
X33112531Y-31353425D01*
X33112528Y-31353428D01*
X33107379Y-31357379D01*
X33019139Y-31472375D01*
X32963670Y-31606291D01*
X32962824Y-31612720D01*
X32962823Y-31612722D01*
X32948407Y-31722221D01*
X32944750Y-31750000D01*
X23424088Y-31750000D01*
X23425590Y-31747773D01*
X23754446Y-31278117D01*
X24041250Y-30868519D01*
X24043247Y-30865769D01*
X24689230Y-30008521D01*
X24691358Y-30005798D01*
X25366823Y-29171669D01*
X25369044Y-29169022D01*
X26073217Y-28358963D01*
X26075529Y-28356395D01*
X26807539Y-27571411D01*
X26809939Y-27568925D01*
X27568925Y-26809939D01*
X27571411Y-26807539D01*
X27633114Y-26750000D01*
X47444750Y-26750000D01*
X47463670Y-26893709D01*
X47519139Y-27027625D01*
X47607379Y-27142621D01*
X47722375Y-27230861D01*
X47856291Y-27286330D01*
X47862720Y-27287176D01*
X47862722Y-27287177D01*
X47993567Y-27304403D01*
X48000000Y-27305250D01*
X48006433Y-27304403D01*
X48137278Y-27287177D01*
X48137280Y-27287176D01*
X48143709Y-27286330D01*
X48277625Y-27230861D01*
X48392621Y-27142621D01*
X48480861Y-27027625D01*
X48536330Y-26893709D01*
X48555250Y-26750000D01*
X48536330Y-26606291D01*
X48480861Y-26472375D01*
X48392621Y-26357379D01*
X48277625Y-26269139D01*
X48143709Y-26213670D01*
X48137280Y-26212824D01*
X48137278Y-26212823D01*
X48006433Y-26195597D01*
X48000000Y-26194750D01*
X47993567Y-26195597D01*
X47862722Y-26212823D01*
X47862720Y-26212824D01*
X47856291Y-26213670D01*
X47722375Y-26269139D01*
X47607379Y-26357379D01*
X47519139Y-26472375D01*
X47463670Y-26606291D01*
X47444750Y-26750000D01*
X27633114Y-26750000D01*
X28356395Y-26075529D01*
X28358963Y-26073217D01*
X28738676Y-25743138D01*
X40594758Y-25743138D01*
X40595413Y-25749071D01*
X40595413Y-25749075D01*
X40606222Y-25846979D01*
X40612035Y-25899633D01*
X40666143Y-26047490D01*
X40669472Y-26052444D01*
X40750629Y-26173219D01*
X40750632Y-26173223D01*
X40753958Y-26178172D01*
X40758369Y-26182186D01*
X40758371Y-26182188D01*
X40865995Y-26280118D01*
X40870410Y-26284135D01*
X40891885Y-26295795D01*
X41003530Y-26356414D01*
X41003532Y-26356415D01*
X41008776Y-26359262D01*
X41088534Y-26380186D01*
X41155300Y-26397702D01*
X41155304Y-26397702D01*
X41161069Y-26399215D01*
X41167030Y-26399309D01*
X41167033Y-26399309D01*
X41239782Y-26400452D01*
X41318495Y-26401688D01*
X41335899Y-26397702D01*
X41466149Y-26367871D01*
X41466151Y-26367870D01*
X41471968Y-26366538D01*
X41479941Y-26362528D01*
X41607299Y-26298474D01*
X41607301Y-26298473D01*
X41612625Y-26295795D01*
X41626277Y-26284135D01*
X41727810Y-26197418D01*
X41727811Y-26197417D01*
X41732348Y-26193542D01*
X41817149Y-26075529D01*
X41820740Y-26070532D01*
X41820741Y-26070530D01*
X41824224Y-26065683D01*
X41882950Y-25919598D01*
X41884994Y-25905240D01*
X41904678Y-25766929D01*
X41904678Y-25766925D01*
X41905134Y-25763723D01*
X41905278Y-25750000D01*
X41886363Y-25593694D01*
X41830710Y-25446412D01*
X41741531Y-25316657D01*
X41737078Y-25312690D01*
X41737075Y-25312686D01*
X41669557Y-25252531D01*
X41623976Y-25211919D01*
X41611462Y-25205293D01*
X41490105Y-25141037D01*
X41490102Y-25141036D01*
X41484831Y-25138245D01*
X41408479Y-25119067D01*
X41337918Y-25101343D01*
X41337915Y-25101343D01*
X41332128Y-25099889D01*
X41252564Y-25099473D01*
X41180650Y-25099096D01*
X41180648Y-25099096D01*
X41174684Y-25099065D01*
X41021588Y-25135820D01*
X40949035Y-25173267D01*
X40886985Y-25205293D01*
X40886983Y-25205295D01*
X40881679Y-25208032D01*
X40763034Y-25311533D01*
X40672501Y-25440348D01*
X40615309Y-25587039D01*
X40614531Y-25592950D01*
X40614530Y-25592953D01*
X40613653Y-25599616D01*
X40594758Y-25743138D01*
X28738676Y-25743138D01*
X29169022Y-25369044D01*
X29171669Y-25366823D01*
X30005798Y-24691358D01*
X30008521Y-24689230D01*
X30327104Y-24449160D01*
X30865769Y-24043247D01*
X30868519Y-24041250D01*
X31365097Y-23693542D01*
X31747773Y-23425590D01*
X31750638Y-23423658D01*
X32028614Y-23243138D01*
X57344758Y-23243138D01*
X57345413Y-23249071D01*
X57345413Y-23249075D01*
X57361330Y-23393251D01*
X57362035Y-23399633D01*
X57416143Y-23547490D01*
X57419472Y-23552444D01*
X57500629Y-23673219D01*
X57500632Y-23673223D01*
X57503958Y-23678172D01*
X57508369Y-23682186D01*
X57508371Y-23682188D01*
X57520849Y-23693542D01*
X57620410Y-23784135D01*
X57641885Y-23795795D01*
X57753530Y-23856414D01*
X57753532Y-23856415D01*
X57758776Y-23859262D01*
X57838534Y-23880186D01*
X57905300Y-23897702D01*
X57905304Y-23897702D01*
X57911069Y-23899215D01*
X57917030Y-23899309D01*
X57917033Y-23899309D01*
X57989782Y-23900451D01*
X58068495Y-23901688D01*
X58085899Y-23897702D01*
X58216149Y-23867871D01*
X58216151Y-23867870D01*
X58221968Y-23866538D01*
X58227299Y-23863857D01*
X58357299Y-23798474D01*
X58357301Y-23798473D01*
X58362625Y-23795795D01*
X58376277Y-23784135D01*
X58477810Y-23697418D01*
X58477811Y-23697417D01*
X58482348Y-23693542D01*
X58574224Y-23565683D01*
X58632950Y-23419598D01*
X58634994Y-23405240D01*
X58654678Y-23266929D01*
X58654678Y-23266925D01*
X58655134Y-23263723D01*
X58655278Y-23250000D01*
X58636363Y-23093694D01*
X58580710Y-22946412D01*
X58491531Y-22816657D01*
X58487078Y-22812690D01*
X58487075Y-22812686D01*
X58419557Y-22752531D01*
X58373976Y-22711919D01*
X58361462Y-22705293D01*
X58240105Y-22641037D01*
X58240102Y-22641036D01*
X58234831Y-22638245D01*
X58158479Y-22619067D01*
X58087918Y-22601343D01*
X58087915Y-22601343D01*
X58082128Y-22599889D01*
X58002564Y-22599473D01*
X57930650Y-22599096D01*
X57930648Y-22599096D01*
X57924684Y-22599065D01*
X57771588Y-22635820D01*
X57699035Y-22673267D01*
X57636985Y-22705293D01*
X57636983Y-22705295D01*
X57631679Y-22708032D01*
X57513034Y-22811533D01*
X57422501Y-22940348D01*
X57365309Y-23087039D01*
X57364531Y-23092950D01*
X57364530Y-23092953D01*
X57363653Y-23099616D01*
X57344758Y-23243138D01*
X32028614Y-23243138D01*
X32650784Y-22839096D01*
X32653714Y-22837264D01*
X33573790Y-22284426D01*
X33576783Y-22282699D01*
X34515509Y-21762355D01*
X34518560Y-21760732D01*
X35474950Y-21273427D01*
X35478056Y-21271913D01*
X36450802Y-20818314D01*
X36453959Y-20816908D01*
X37441996Y-20397512D01*
X37445188Y-20396222D01*
X38447255Y-20011564D01*
X38450479Y-20010391D01*
X39465358Y-19660941D01*
X39468604Y-19659885D01*
X40418758Y-19369394D01*
X40495061Y-19346066D01*
X40498383Y-19345113D01*
X41075241Y-19190544D01*
X41535172Y-19067306D01*
X41538502Y-19066476D01*
X42584357Y-18825022D01*
X42587736Y-18824304D01*
X42592927Y-18823295D01*
X43641372Y-18619497D01*
X43644722Y-18618907D01*
X44279757Y-18518327D01*
X44704870Y-18450996D01*
X44708292Y-18450515D01*
X45773641Y-18319707D01*
X45777078Y-18319346D01*
X46846328Y-18225799D01*
X46849775Y-18225558D01*
X47857934Y-18172722D01*
X47921633Y-18169384D01*
X47925081Y-18169263D01*
X48998281Y-18150530D01*
X49001719Y-18150530D01*
X50074919Y-18169263D01*
G37*
%TD.AperFunction*%
%TD*%
M02*
