%TF.GenerationSoftware,KiCad,Pcbnew,(6.0.7)*%
%TF.CreationDate,2023-03-05T02:27:35+08:00*%
%TF.ProjectId,CameraPosition,43616d65-7261-4506-9f73-6974696f6e2e,rev?*%
%TF.SameCoordinates,Original*%
%TF.FileFunction,Legend,Bot*%
%TF.FilePolarity,Positive*%
%FSLAX46Y46*%
G04 Gerber Fmt 4.6, Leading zero omitted, Abs format (unit mm)*
G04 Created by KiCad (PCBNEW (6.0.7)) date 2023-03-05 02:27:35*
%MOMM*%
%LPD*%
G01*
G04 APERTURE LIST*
%ADD10C,0.200000*%
%ADD11C,0.150000*%
%ADD12C,0.120000*%
G04 APERTURE END LIST*
D10*
X57613285Y-28721857D02*
X57399000Y-28793285D01*
X57327571Y-28864714D01*
X57256142Y-29007571D01*
X57256142Y-29221857D01*
X57327571Y-29364714D01*
X57399000Y-29436142D01*
X57541857Y-29507571D01*
X58113285Y-29507571D01*
X58113285Y-28007571D01*
X57613285Y-28007571D01*
X57470428Y-28079000D01*
X57399000Y-28150428D01*
X57327571Y-28293285D01*
X57327571Y-28436142D01*
X57399000Y-28579000D01*
X57470428Y-28650428D01*
X57613285Y-28721857D01*
X58113285Y-28721857D01*
X56756142Y-28507571D02*
X56399000Y-29507571D01*
X56041857Y-28507571D02*
X56399000Y-29507571D01*
X56541857Y-29864714D01*
X56613285Y-29936142D01*
X56756142Y-30007571D01*
X54399000Y-29079000D02*
X53684714Y-29079000D01*
X54541857Y-29507571D02*
X54041857Y-28007571D01*
X53541857Y-29507571D01*
X53041857Y-28507571D02*
X53041857Y-29507571D01*
X53041857Y-28650428D02*
X52970428Y-28579000D01*
X52827571Y-28507571D01*
X52613285Y-28507571D01*
X52470428Y-28579000D01*
X52399000Y-28721857D01*
X52399000Y-29507571D01*
X51041857Y-29507571D02*
X51041857Y-28007571D01*
X51041857Y-29436142D02*
X51184714Y-29507571D01*
X51470428Y-29507571D01*
X51613285Y-29436142D01*
X51684714Y-29364714D01*
X51756142Y-29221857D01*
X51756142Y-28793285D01*
X51684714Y-28650428D01*
X51613285Y-28579000D01*
X51470428Y-28507571D01*
X51184714Y-28507571D01*
X51041857Y-28579000D01*
X50470428Y-28507571D02*
X50113285Y-29507571D01*
X49756142Y-28507571D02*
X50113285Y-29507571D01*
X50256142Y-29864714D01*
X50327571Y-29936142D01*
X50470428Y-30007571D01*
X48113285Y-28150428D02*
X48041857Y-28079000D01*
X47899000Y-28007571D01*
X47541857Y-28007571D01*
X47399000Y-28079000D01*
X47327571Y-28150428D01*
X47256142Y-28293285D01*
X47256142Y-28436142D01*
X47327571Y-28650428D01*
X48184714Y-29507571D01*
X47256142Y-29507571D01*
X46756142Y-28007571D02*
X45827571Y-28007571D01*
X46327571Y-28579000D01*
X46113285Y-28579000D01*
X45970428Y-28650428D01*
X45899000Y-28721857D01*
X45827571Y-28864714D01*
X45827571Y-29221857D01*
X45899000Y-29364714D01*
X45970428Y-29436142D01*
X46113285Y-29507571D01*
X46541857Y-29507571D01*
X46684714Y-29436142D01*
X46756142Y-29364714D01*
X44899000Y-28007571D02*
X44756142Y-28007571D01*
X44613285Y-28079000D01*
X44541857Y-28150428D01*
X44470428Y-28293285D01*
X44399000Y-28579000D01*
X44399000Y-28936142D01*
X44470428Y-29221857D01*
X44541857Y-29364714D01*
X44613285Y-29436142D01*
X44756142Y-29507571D01*
X44899000Y-29507571D01*
X45041857Y-29436142D01*
X45113285Y-29364714D01*
X45184714Y-29221857D01*
X45256142Y-28936142D01*
X45256142Y-28579000D01*
X45184714Y-28293285D01*
X45113285Y-28150428D01*
X45041857Y-28079000D01*
X44899000Y-28007571D01*
X43899000Y-28007571D02*
X42970428Y-28007571D01*
X43470428Y-28579000D01*
X43256142Y-28579000D01*
X43113285Y-28650428D01*
X43041857Y-28721857D01*
X42970428Y-28864714D01*
X42970428Y-29221857D01*
X43041857Y-29364714D01*
X43113285Y-29436142D01*
X43256142Y-29507571D01*
X43684714Y-29507571D01*
X43827571Y-29436142D01*
X43899000Y-29364714D01*
X42041857Y-28007571D02*
X41899000Y-28007571D01*
X41756142Y-28079000D01*
X41684714Y-28150428D01*
X41613285Y-28293285D01*
X41541857Y-28579000D01*
X41541857Y-28936142D01*
X41613285Y-29221857D01*
X41684714Y-29364714D01*
X41756142Y-29436142D01*
X41899000Y-29507571D01*
X42041857Y-29507571D01*
X42184714Y-29436142D01*
X42256142Y-29364714D01*
X42327571Y-29221857D01*
X42399000Y-28936142D01*
X42399000Y-28579000D01*
X42327571Y-28293285D01*
X42256142Y-28150428D01*
X42184714Y-28079000D01*
X42041857Y-28007571D01*
X40184714Y-28007571D02*
X40899000Y-28007571D01*
X40970428Y-28721857D01*
X40899000Y-28650428D01*
X40756142Y-28579000D01*
X40399000Y-28579000D01*
X40256142Y-28650428D01*
X40184714Y-28721857D01*
X40113285Y-28864714D01*
X40113285Y-29221857D01*
X40184714Y-29364714D01*
X40256142Y-29436142D01*
X40399000Y-29507571D01*
X40756142Y-29507571D01*
X40899000Y-29436142D01*
X40970428Y-29364714D01*
D11*
%TO.C,D15*%
X55185035Y-26034908D02*
X54876018Y-26985964D01*
X55102460Y-27059540D01*
X55253040Y-27058397D01*
X55373047Y-26997250D01*
X55447766Y-26921388D01*
X55551914Y-26754950D01*
X55596060Y-26619085D01*
X55609632Y-26423216D01*
X55593773Y-26317924D01*
X55532627Y-26197917D01*
X55411477Y-26108483D01*
X55185035Y-26034908D01*
X56634264Y-26505791D02*
X56090803Y-26329210D01*
X56362533Y-26417500D02*
X56053516Y-27368557D01*
X56007085Y-27203261D01*
X55945938Y-27083254D01*
X55870076Y-27008536D01*
X57185726Y-27736434D02*
X56732842Y-27589283D01*
X56834705Y-27121684D01*
X56865278Y-27181687D01*
X56941140Y-27256406D01*
X57167582Y-27329982D01*
X57272874Y-27314123D01*
X57332877Y-27283550D01*
X57407596Y-27207688D01*
X57481171Y-26981246D01*
X57465313Y-26875954D01*
X57434740Y-26815951D01*
X57358878Y-26741232D01*
X57132436Y-26667657D01*
X57027144Y-26683515D01*
X56967141Y-26714088D01*
X53251866Y-23409005D02*
X52708405Y-23232424D01*
X52980136Y-23320715D02*
X52671119Y-24271771D01*
X52624687Y-24106476D01*
X52563541Y-23986469D01*
X52487679Y-23911750D01*
%TO.C,D18*%
X35411280Y-28100244D02*
X34823495Y-27291227D01*
X34630872Y-27431176D01*
X34543288Y-27553670D01*
X34522218Y-27686699D01*
X34539673Y-27791738D01*
X34613107Y-27973826D01*
X34697077Y-28089400D01*
X34847560Y-28215509D01*
X34942065Y-28264568D01*
X35075093Y-28285638D01*
X35218657Y-28240193D01*
X35411280Y-28100244D01*
X34178492Y-28995917D02*
X34640788Y-28660040D01*
X34409640Y-28827978D02*
X33821855Y-28018961D01*
X33982873Y-28078556D01*
X34115902Y-28099625D01*
X34220941Y-28082170D01*
X33380320Y-28869499D02*
X33429379Y-28774995D01*
X33439914Y-28708480D01*
X33422459Y-28603441D01*
X33394469Y-28564917D01*
X33299965Y-28515857D01*
X33233451Y-28505322D01*
X33128412Y-28522777D01*
X32974313Y-28634736D01*
X32925254Y-28729240D01*
X32914719Y-28795755D01*
X32932174Y-28900794D01*
X32960164Y-28939318D01*
X33054668Y-28988378D01*
X33121182Y-28998913D01*
X33226221Y-28981458D01*
X33380320Y-28869499D01*
X33485359Y-28852044D01*
X33551873Y-28862579D01*
X33646377Y-28911638D01*
X33758336Y-29065737D01*
X33775791Y-29170776D01*
X33765256Y-29237290D01*
X33716197Y-29331794D01*
X33562098Y-29443753D01*
X33457059Y-29461208D01*
X33390545Y-29450673D01*
X33296041Y-29401614D01*
X33184082Y-29247515D01*
X33166627Y-29142476D01*
X33177162Y-29075962D01*
X33226221Y-28981458D01*
X30865146Y-31586002D02*
X31327441Y-31250125D01*
X31096293Y-31418063D02*
X30508508Y-30609046D01*
X30669527Y-30668641D01*
X30802555Y-30689710D01*
X30907594Y-30672255D01*
%TO.C,D14*%
X61978921Y-29070179D02*
X61391135Y-29879196D01*
X61583758Y-30019145D01*
X61727322Y-30064590D01*
X61860351Y-30043520D01*
X61954855Y-29994461D01*
X62105339Y-29868352D01*
X62189308Y-29752778D01*
X62262743Y-29570690D01*
X62280197Y-29465651D01*
X62259128Y-29332622D01*
X62171544Y-29210128D01*
X61978921Y-29070179D01*
X63211708Y-29965852D02*
X62749413Y-29629975D01*
X62980561Y-29797914D02*
X62392775Y-30606931D01*
X62399695Y-30435377D01*
X62378626Y-30302348D01*
X62329566Y-30207844D01*
X63513295Y-31009013D02*
X63905152Y-30469668D01*
X63096753Y-31177261D02*
X63323977Y-30459443D01*
X63824797Y-30823310D01*
X60951817Y-25975416D02*
X60489522Y-25639539D01*
X60720669Y-25807478D02*
X60132884Y-26616495D01*
X60139804Y-26444941D01*
X60118734Y-26311912D01*
X60069675Y-26217408D01*
%TO.C,D4*%
X34973374Y-67050270D02*
X34385589Y-67859287D01*
X34578212Y-67999236D01*
X34721775Y-68044681D01*
X34854804Y-68023611D01*
X34949308Y-67974552D01*
X35099792Y-67848443D01*
X35183761Y-67732869D01*
X35257196Y-67550781D01*
X35274651Y-67445742D01*
X35253581Y-67312713D01*
X35165997Y-67190219D01*
X34973374Y-67050270D01*
X35737255Y-68429308D02*
X36129112Y-67889963D01*
X35320714Y-68597556D02*
X35547938Y-67879738D01*
X36048758Y-68243605D01*
X38042282Y-71628491D02*
X37579987Y-71292614D01*
X37811134Y-71460553D02*
X37223349Y-72269570D01*
X37230269Y-72098016D01*
X37209199Y-71964987D01*
X37160140Y-71870483D01*
%TO.C,D17*%
X43094550Y-26895387D02*
X42785533Y-25944331D01*
X42559091Y-26017906D01*
X42437941Y-26107340D01*
X42376794Y-26227347D01*
X42360936Y-26332639D01*
X42374508Y-26528508D01*
X42418654Y-26664373D01*
X42522802Y-26830811D01*
X42597521Y-26906673D01*
X42717528Y-26967820D01*
X42868108Y-26968963D01*
X43094550Y-26895387D01*
X41645321Y-27366270D02*
X42188782Y-27189689D01*
X41917052Y-27277980D02*
X41608035Y-26326923D01*
X41742757Y-26433358D01*
X41862764Y-26494505D01*
X41968056Y-26510363D01*
X41019285Y-26518220D02*
X40385248Y-26724231D01*
X41101860Y-27542852D01*
X37133949Y-26834326D02*
X37677410Y-26657745D01*
X37405680Y-26746035D02*
X37096663Y-25794979D01*
X37231385Y-25901414D01*
X37351392Y-25962560D01*
X37456684Y-25978419D01*
%TO.C,D1*%
X29952380Y-50511904D02*
X28952380Y-50511904D01*
X28952380Y-50750000D01*
X29000000Y-50892857D01*
X29095238Y-50988095D01*
X29190476Y-51035714D01*
X29380952Y-51083333D01*
X29523809Y-51083333D01*
X29714285Y-51035714D01*
X29809523Y-50988095D01*
X29904761Y-50892857D01*
X29952380Y-50750000D01*
X29952380Y-50511904D01*
X29952380Y-52035714D02*
X29952380Y-51464285D01*
X29952380Y-51750000D02*
X28952380Y-51750000D01*
X29095238Y-51654761D01*
X29190476Y-51559523D01*
X29238095Y-51464285D01*
%TO.C,D11*%
X72752380Y-47785714D02*
X71752380Y-47785714D01*
X71752380Y-48023809D01*
X71800000Y-48166666D01*
X71895238Y-48261904D01*
X71990476Y-48309523D01*
X72180952Y-48357142D01*
X72323809Y-48357142D01*
X72514285Y-48309523D01*
X72609523Y-48261904D01*
X72704761Y-48166666D01*
X72752380Y-48023809D01*
X72752380Y-47785714D01*
X72752380Y-49309523D02*
X72752380Y-48738095D01*
X72752380Y-49023809D02*
X71752380Y-49023809D01*
X71895238Y-48928571D01*
X71990476Y-48833333D01*
X72038095Y-48738095D01*
X72752380Y-50261904D02*
X72752380Y-49690476D01*
X72752380Y-49976190D02*
X71752380Y-49976190D01*
X71895238Y-49880952D01*
X71990476Y-49785714D01*
X72038095Y-49690476D01*
X74652380Y-45135714D02*
X74652380Y-44564285D01*
X74652380Y-44850000D02*
X73652380Y-44850000D01*
X73795238Y-44754761D01*
X73890476Y-44659523D01*
X73938095Y-44564285D01*
%TO.C,R3*%
X29102380Y-46495833D02*
X28626190Y-46162500D01*
X29102380Y-45924404D02*
X28102380Y-45924404D01*
X28102380Y-46305357D01*
X28150000Y-46400595D01*
X28197619Y-46448214D01*
X28292857Y-46495833D01*
X28435714Y-46495833D01*
X28530952Y-46448214D01*
X28578571Y-46400595D01*
X28626190Y-46305357D01*
X28626190Y-45924404D01*
X28102380Y-46829166D02*
X28102380Y-47448214D01*
X28483333Y-47114880D01*
X28483333Y-47257738D01*
X28530952Y-47352976D01*
X28578571Y-47400595D01*
X28673809Y-47448214D01*
X28911904Y-47448214D01*
X29007142Y-47400595D01*
X29054761Y-47352976D01*
X29102380Y-47257738D01*
X29102380Y-46972023D01*
X29054761Y-46876785D01*
X29007142Y-46829166D01*
%TO.C,D2*%
X27042538Y-55358332D02*
X26091482Y-55667349D01*
X26165057Y-55893791D01*
X26254491Y-56014941D01*
X26374498Y-56076088D01*
X26479790Y-56091946D01*
X26675659Y-56078374D01*
X26811524Y-56034229D01*
X26977962Y-55930080D01*
X27053824Y-55855361D01*
X27114971Y-55735354D01*
X27116114Y-55584774D01*
X27042538Y-55358332D01*
X26476361Y-56543687D02*
X26445787Y-56603690D01*
X26429929Y-56708982D01*
X26503505Y-56935424D01*
X26578223Y-57011286D01*
X26638227Y-57041859D01*
X26743519Y-57057717D01*
X26834095Y-57028287D01*
X26955245Y-56938854D01*
X27322125Y-56218812D01*
X27513421Y-56807561D01*
X26834326Y-60866049D02*
X26657745Y-60322588D01*
X26746035Y-60594318D02*
X25794979Y-60903335D01*
X25901414Y-60768613D01*
X25962560Y-60648606D01*
X25978419Y-60543314D01*
%TO.C,D20*%
X27645857Y-40784842D02*
X26694801Y-40475825D01*
X26621225Y-40702267D01*
X26622368Y-40852847D01*
X26683515Y-40972854D01*
X26759377Y-41047573D01*
X26925815Y-41151721D01*
X27061680Y-41195867D01*
X27257549Y-41209439D01*
X27362841Y-41193580D01*
X27482848Y-41132434D01*
X27572282Y-41011284D01*
X27645857Y-40784842D01*
X26491076Y-41411023D02*
X26431072Y-41441596D01*
X26356354Y-41517458D01*
X26282778Y-41743900D01*
X26298636Y-41849192D01*
X26329210Y-41909195D01*
X26405071Y-41983914D01*
X26495648Y-42013344D01*
X26646228Y-42012201D01*
X27366270Y-41645321D01*
X27174974Y-42234071D01*
X26032621Y-42513803D02*
X26003191Y-42604380D01*
X26019050Y-42709672D01*
X26049623Y-42769675D01*
X26125485Y-42844394D01*
X26291923Y-42948542D01*
X26518365Y-43022118D01*
X26714234Y-43035690D01*
X26819526Y-43019832D01*
X26879529Y-42989258D01*
X26954248Y-42913397D01*
X26983678Y-42822820D01*
X26967820Y-42717528D01*
X26937246Y-42657524D01*
X26861385Y-42582806D01*
X26694946Y-42478657D01*
X26468504Y-42405082D01*
X26272635Y-42391510D01*
X26167344Y-42407368D01*
X26107340Y-42437941D01*
X26032621Y-42513803D01*
X24092904Y-45571179D02*
X24269485Y-45027718D01*
X24181194Y-45299449D02*
X23230138Y-44990432D01*
X23395433Y-44944000D01*
X23515440Y-44882854D01*
X23590159Y-44806992D01*
%TO.C,D3*%
X30082045Y-61832361D02*
X29273028Y-62420146D01*
X29412977Y-62612769D01*
X29535471Y-62700353D01*
X29668499Y-62721423D01*
X29773538Y-62703968D01*
X29955627Y-62630534D01*
X30071201Y-62546564D01*
X30197309Y-62396081D01*
X30246369Y-62301577D01*
X30267438Y-62168548D01*
X30221994Y-62024984D01*
X30082045Y-61832361D01*
X29804834Y-63152114D02*
X30168701Y-63652934D01*
X30280969Y-63159344D01*
X30364939Y-63274917D01*
X30459443Y-63323977D01*
X30525957Y-63334512D01*
X30630996Y-63317057D01*
X30823619Y-63177108D01*
X30872679Y-63082604D01*
X30883213Y-63016089D01*
X30865759Y-62911050D01*
X30697820Y-62679903D01*
X30603316Y-62630843D01*
X30536801Y-62620308D01*
X31586002Y-67134852D02*
X31250125Y-66672557D01*
X31418063Y-66903705D02*
X30609046Y-67491490D01*
X30668641Y-67330471D01*
X30689710Y-67197443D01*
X30672255Y-67092404D01*
%TO.C,D12*%
X71214620Y-40505255D02*
X70263564Y-40814272D01*
X70337139Y-41040714D01*
X70426573Y-41161864D01*
X70546580Y-41223011D01*
X70651872Y-41238869D01*
X70847741Y-41225297D01*
X70983606Y-41181151D01*
X71150044Y-41077003D01*
X71225906Y-41002284D01*
X71287053Y-40882277D01*
X71288196Y-40731697D01*
X71214620Y-40505255D01*
X71685503Y-41954484D02*
X71508922Y-41411023D01*
X71597213Y-41682753D02*
X70646156Y-41991770D01*
X70752591Y-41857048D01*
X70813738Y-41737041D01*
X70829596Y-41631749D01*
X70942745Y-42596378D02*
X70912171Y-42656381D01*
X70896313Y-42761673D01*
X70969888Y-42988115D01*
X71044607Y-43063977D01*
X71104611Y-43094550D01*
X71209902Y-43110408D01*
X71300479Y-43080978D01*
X71421629Y-42991545D01*
X71788509Y-42271503D01*
X71979805Y-42860252D01*
X72202733Y-37397824D02*
X72026152Y-36854363D01*
X72114442Y-37126093D02*
X71163386Y-37435110D01*
X71269821Y-37300388D01*
X71330967Y-37180381D01*
X71346826Y-37075089D01*
%TO.C,C18*%
X66642857Y-37537142D02*
X66690476Y-37584761D01*
X66833333Y-37632380D01*
X66928571Y-37632380D01*
X67071428Y-37584761D01*
X67166666Y-37489523D01*
X67214285Y-37394285D01*
X67261904Y-37203809D01*
X67261904Y-37060952D01*
X67214285Y-36870476D01*
X67166666Y-36775238D01*
X67071428Y-36680000D01*
X66928571Y-36632380D01*
X66833333Y-36632380D01*
X66690476Y-36680000D01*
X66642857Y-36727619D01*
X65690476Y-37632380D02*
X66261904Y-37632380D01*
X65976190Y-37632380D02*
X65976190Y-36632380D01*
X66071428Y-36775238D01*
X66166666Y-36870476D01*
X66261904Y-36918095D01*
X65119047Y-37060952D02*
X65214285Y-37013333D01*
X65261904Y-36965714D01*
X65309523Y-36870476D01*
X65309523Y-36822857D01*
X65261904Y-36727619D01*
X65214285Y-36680000D01*
X65119047Y-36632380D01*
X64928571Y-36632380D01*
X64833333Y-36680000D01*
X64785714Y-36727619D01*
X64738095Y-36822857D01*
X64738095Y-36870476D01*
X64785714Y-36965714D01*
X64833333Y-37013333D01*
X64928571Y-37060952D01*
X65119047Y-37060952D01*
X65214285Y-37108571D01*
X65261904Y-37156190D01*
X65309523Y-37251428D01*
X65309523Y-37441904D01*
X65261904Y-37537142D01*
X65214285Y-37584761D01*
X65119047Y-37632380D01*
X64928571Y-37632380D01*
X64833333Y-37584761D01*
X64785714Y-37537142D01*
X64738095Y-37441904D01*
X64738095Y-37251428D01*
X64785714Y-37156190D01*
X64833333Y-37108571D01*
X64928571Y-37060952D01*
%TO.C,D21*%
X23952380Y-47785713D02*
X22952380Y-47785713D01*
X22952380Y-48023808D01*
X23000000Y-48166665D01*
X23095238Y-48261903D01*
X23190476Y-48309522D01*
X23380952Y-48357141D01*
X23523809Y-48357141D01*
X23714285Y-48309522D01*
X23809523Y-48261903D01*
X23904761Y-48166665D01*
X23952380Y-48023808D01*
X23952380Y-47785713D01*
X23047619Y-48738094D02*
X23000000Y-48785713D01*
X22952380Y-48880951D01*
X22952380Y-49119046D01*
X23000000Y-49214284D01*
X23047619Y-49261903D01*
X23142857Y-49309522D01*
X23238095Y-49309522D01*
X23380952Y-49261903D01*
X23952380Y-48690475D01*
X23952380Y-49309522D01*
X23952380Y-50261903D02*
X23952380Y-49690475D01*
X23952380Y-49976189D02*
X22952380Y-49976189D01*
X23095238Y-49880951D01*
X23190476Y-49785713D01*
X23238095Y-49690475D01*
X24252380Y-53435713D02*
X24252380Y-52864284D01*
X24252380Y-53149999D02*
X23252380Y-53149999D01*
X23395238Y-53054760D01*
X23490476Y-52959522D01*
X23538095Y-52864284D01*
%TO.C,D16*%
X50214285Y-26152380D02*
X50214285Y-25152380D01*
X49976190Y-25152380D01*
X49833333Y-25200000D01*
X49738095Y-25295238D01*
X49690476Y-25390476D01*
X49642857Y-25580952D01*
X49642857Y-25723809D01*
X49690476Y-25914285D01*
X49738095Y-26009523D01*
X49833333Y-26104761D01*
X49976190Y-26152380D01*
X50214285Y-26152380D01*
X48690476Y-26152380D02*
X49261904Y-26152380D01*
X48976190Y-26152380D02*
X48976190Y-25152380D01*
X49071428Y-25295238D01*
X49166666Y-25390476D01*
X49261904Y-25438095D01*
X47833333Y-25152380D02*
X48023809Y-25152380D01*
X48119047Y-25200000D01*
X48166666Y-25247619D01*
X48261904Y-25390476D01*
X48309523Y-25580952D01*
X48309523Y-25961904D01*
X48261904Y-26057142D01*
X48214285Y-26104761D01*
X48119047Y-26152380D01*
X47928571Y-26152380D01*
X47833333Y-26104761D01*
X47785714Y-26057142D01*
X47738095Y-25961904D01*
X47738095Y-25723809D01*
X47785714Y-25628571D01*
X47833333Y-25580952D01*
X47928571Y-25533333D01*
X48119047Y-25533333D01*
X48214285Y-25580952D01*
X48261904Y-25628571D01*
X48309523Y-25723809D01*
X44564285Y-24252380D02*
X45135714Y-24252380D01*
X44850000Y-24252380D02*
X44850000Y-23252380D01*
X44945238Y-23395238D01*
X45040476Y-23490476D01*
X45135714Y-23538095D01*
%TO.C,D6*%
X49738095Y-72752380D02*
X49738095Y-71752380D01*
X49500000Y-71752380D01*
X49357142Y-71800000D01*
X49261904Y-71895238D01*
X49214285Y-71990476D01*
X49166666Y-72180952D01*
X49166666Y-72323809D01*
X49214285Y-72514285D01*
X49261904Y-72609523D01*
X49357142Y-72704761D01*
X49500000Y-72752380D01*
X49738095Y-72752380D01*
X48309523Y-71752380D02*
X48500000Y-71752380D01*
X48595238Y-71800000D01*
X48642857Y-71847619D01*
X48738095Y-71990476D01*
X48785714Y-72180952D01*
X48785714Y-72561904D01*
X48738095Y-72657142D01*
X48690476Y-72704761D01*
X48595238Y-72752380D01*
X48404761Y-72752380D01*
X48309523Y-72704761D01*
X48261904Y-72657142D01*
X48214285Y-72561904D01*
X48214285Y-72323809D01*
X48261904Y-72228571D01*
X48309523Y-72180952D01*
X48404761Y-72133333D01*
X48595238Y-72133333D01*
X48690476Y-72180952D01*
X48738095Y-72228571D01*
X48785714Y-72323809D01*
X52864285Y-74652380D02*
X53435714Y-74652380D01*
X53150000Y-74652380D02*
X53150000Y-73652380D01*
X53245238Y-73795238D01*
X53340476Y-73890476D01*
X53435714Y-73938095D01*
%TO.C,D10*%
X71965090Y-55185035D02*
X71014034Y-54876018D01*
X70940458Y-55102460D01*
X70941601Y-55253040D01*
X71002748Y-55373047D01*
X71078610Y-55447766D01*
X71245048Y-55551914D01*
X71380913Y-55596060D01*
X71576782Y-55609632D01*
X71682074Y-55593773D01*
X71802081Y-55532627D01*
X71891515Y-55411477D01*
X71965090Y-55185035D01*
X71494207Y-56634264D02*
X71670788Y-56090803D01*
X71582498Y-56362533D02*
X70631441Y-56053516D01*
X70796737Y-56007085D01*
X70916744Y-55945938D01*
X70991462Y-55870076D01*
X70351854Y-56913996D02*
X70322424Y-57004573D01*
X70338283Y-57109865D01*
X70368856Y-57169868D01*
X70444718Y-57244587D01*
X70611156Y-57348735D01*
X70837598Y-57422311D01*
X71033467Y-57435883D01*
X71138759Y-57420025D01*
X71198762Y-57389451D01*
X71273481Y-57313590D01*
X71302911Y-57223013D01*
X71287053Y-57117721D01*
X71256479Y-57057717D01*
X71180618Y-56982999D01*
X71014179Y-56878850D01*
X70787737Y-56805275D01*
X70591868Y-56791703D01*
X70486577Y-56807561D01*
X70426573Y-56838134D01*
X70351854Y-56913996D01*
X74590993Y-53251866D02*
X74767574Y-52708405D01*
X74679283Y-52980136D02*
X73728227Y-52671119D01*
X73893522Y-52624687D01*
X74013529Y-52563541D01*
X74088248Y-52487679D01*
%TO.C,SW1*%
X32004922Y-64109459D02*
X32139609Y-64176802D01*
X32307968Y-64345161D01*
X32341640Y-64446176D01*
X32341640Y-64513520D01*
X32307968Y-64614535D01*
X32240625Y-64681878D01*
X32139609Y-64715550D01*
X32072266Y-64715550D01*
X31971251Y-64681878D01*
X31802892Y-64580863D01*
X31701877Y-64547191D01*
X31634533Y-64547191D01*
X31533518Y-64580863D01*
X31466174Y-64648207D01*
X31432503Y-64749222D01*
X31432503Y-64816565D01*
X31466174Y-64917581D01*
X31634533Y-65085939D01*
X31769220Y-65153283D01*
X31971251Y-65422657D02*
X32846716Y-64883909D01*
X32476327Y-65523672D01*
X33116090Y-65153283D01*
X32577342Y-66028748D01*
X33924212Y-65961405D02*
X33520151Y-65557344D01*
X33722182Y-65759374D02*
X33015075Y-66466481D01*
X33048747Y-66298122D01*
X33048747Y-66163435D01*
X33015075Y-66062420D01*
%TO.C,D8*%
X63558430Y-67782238D02*
X62970645Y-66973221D01*
X62778022Y-67113170D01*
X62690438Y-67235664D01*
X62669368Y-67368692D01*
X62686823Y-67473731D01*
X62760257Y-67655820D01*
X62844227Y-67771394D01*
X62994710Y-67897502D01*
X63089214Y-67946562D01*
X63222243Y-67967631D01*
X63365807Y-67922187D01*
X63558430Y-67782238D01*
X62297962Y-67991697D02*
X62347021Y-67897193D01*
X62357556Y-67830678D01*
X62340101Y-67725639D01*
X62312111Y-67687115D01*
X62217607Y-67638055D01*
X62151093Y-67627521D01*
X62046054Y-67644975D01*
X61891955Y-67756935D01*
X61842896Y-67851439D01*
X61832361Y-67917953D01*
X61849816Y-68022992D01*
X61877806Y-68061517D01*
X61972310Y-68110576D01*
X62038824Y-68121111D01*
X62143863Y-68103656D01*
X62297962Y-67991697D01*
X62403001Y-67974242D01*
X62469515Y-67984777D01*
X62564019Y-68033836D01*
X62675978Y-68187935D01*
X62693433Y-68292974D01*
X62682899Y-68359488D01*
X62633839Y-68453992D01*
X62479741Y-68565952D01*
X62374702Y-68583406D01*
X62308187Y-68572872D01*
X62213683Y-68523812D01*
X62101724Y-68369714D01*
X62084269Y-68264675D01*
X62094804Y-68198160D01*
X62143863Y-68103656D01*
X67204363Y-67481841D02*
X67666658Y-67145964D01*
X67435510Y-67313902D02*
X66847725Y-66504885D01*
X67008744Y-66564480D01*
X67141772Y-66585549D01*
X67246811Y-66568094D01*
%TO.C,D13*%
X68652244Y-36251719D02*
X67843227Y-36839504D01*
X67983176Y-37032127D01*
X68105670Y-37119711D01*
X68238699Y-37140781D01*
X68343738Y-37123326D01*
X68525826Y-37049892D01*
X68641400Y-36965922D01*
X68767509Y-36815439D01*
X68816568Y-36720934D01*
X68837638Y-36587906D01*
X68792193Y-36444342D01*
X68652244Y-36251719D01*
X69547917Y-37484507D02*
X69212040Y-37022211D01*
X69379978Y-37253359D02*
X68570961Y-37841144D01*
X68630556Y-37680126D01*
X68651625Y-37547097D01*
X68634170Y-37442058D01*
X68934828Y-38341964D02*
X69298695Y-38842784D01*
X69410964Y-38349194D01*
X69494933Y-38464768D01*
X69589437Y-38513827D01*
X69655952Y-38524362D01*
X69760991Y-38506907D01*
X69953614Y-38366958D01*
X70002673Y-38272454D01*
X70013208Y-38205940D01*
X69995753Y-38100901D01*
X69827815Y-37869753D01*
X69733310Y-37820693D01*
X69666796Y-37810159D01*
X67481841Y-30795635D02*
X67145964Y-30333340D01*
X67313902Y-30564488D02*
X66504885Y-31152273D01*
X66564480Y-30991254D01*
X66585549Y-30858226D01*
X66568094Y-30753187D01*
%TO.C,D5*%
X41237726Y-70501292D02*
X40928709Y-71452348D01*
X41155151Y-71525924D01*
X41305731Y-71524781D01*
X41425738Y-71463634D01*
X41500457Y-71387772D01*
X41604605Y-71221334D01*
X41648751Y-71085468D01*
X41662323Y-70889600D01*
X41646464Y-70784308D01*
X41585318Y-70664301D01*
X41464168Y-70574867D01*
X41237726Y-70501292D01*
X42332649Y-71908516D02*
X41879765Y-71761365D01*
X41981628Y-71293766D01*
X42012201Y-71353770D01*
X42088063Y-71428488D01*
X42314505Y-71502064D01*
X42419797Y-71486205D01*
X42479800Y-71455632D01*
X42554519Y-71379770D01*
X42628094Y-71153328D01*
X42612236Y-71048036D01*
X42581663Y-70988033D01*
X42505801Y-70913314D01*
X42279359Y-70839739D01*
X42174067Y-70855597D01*
X42114064Y-70886170D01*
X45571179Y-73907094D02*
X45027718Y-73730513D01*
X45299449Y-73818804D02*
X44990432Y-74769860D01*
X44944000Y-74604565D01*
X44882854Y-74484558D01*
X44806992Y-74409839D01*
%TO.C,D7*%
X57041859Y-71361771D02*
X56732842Y-70410715D01*
X56506400Y-70484290D01*
X56385250Y-70573724D01*
X56324103Y-70693731D01*
X56308245Y-70799023D01*
X56321817Y-70994892D01*
X56365962Y-71130757D01*
X56470111Y-71297195D01*
X56544830Y-71373057D01*
X56664837Y-71434204D01*
X56815417Y-71435347D01*
X57041859Y-71361771D01*
X55872362Y-70690302D02*
X55238325Y-70896313D01*
X55954937Y-71714934D01*
X60602174Y-72202733D02*
X61145635Y-72026152D01*
X60873905Y-72114442D02*
X60564888Y-71163386D01*
X60699610Y-71269821D01*
X60819617Y-71330967D01*
X60924909Y-71346826D01*
%TO.C,SW2*%
X67154761Y-48166666D02*
X67202380Y-48309523D01*
X67202380Y-48547619D01*
X67154761Y-48642857D01*
X67107142Y-48690476D01*
X67011904Y-48738095D01*
X66916666Y-48738095D01*
X66821428Y-48690476D01*
X66773809Y-48642857D01*
X66726190Y-48547619D01*
X66678571Y-48357142D01*
X66630952Y-48261904D01*
X66583333Y-48214285D01*
X66488095Y-48166666D01*
X66392857Y-48166666D01*
X66297619Y-48214285D01*
X66250000Y-48261904D01*
X66202380Y-48357142D01*
X66202380Y-48595238D01*
X66250000Y-48738095D01*
X66202380Y-49071428D02*
X67202380Y-49309523D01*
X66488095Y-49500000D01*
X67202380Y-49690476D01*
X66202380Y-49928571D01*
X66297619Y-50261904D02*
X66250000Y-50309523D01*
X66202380Y-50404761D01*
X66202380Y-50642857D01*
X66250000Y-50738095D01*
X66297619Y-50785714D01*
X66392857Y-50833333D01*
X66488095Y-50833333D01*
X66630952Y-50785714D01*
X67202380Y-50214285D01*
X67202380Y-50833333D01*
%TO.C,D9*%
X68649921Y-62364167D02*
X67840904Y-61776382D01*
X67700955Y-61969005D01*
X67655510Y-62112568D01*
X67676580Y-62245597D01*
X67725639Y-62340101D01*
X67851748Y-62490585D01*
X67967322Y-62574554D01*
X68149410Y-62647989D01*
X68254449Y-62665444D01*
X68387478Y-62644374D01*
X68509972Y-62556790D01*
X68649921Y-62364167D01*
X68034146Y-63211708D02*
X67922187Y-63365807D01*
X67827683Y-63414866D01*
X67761168Y-63425401D01*
X67589615Y-63418481D01*
X67407527Y-63345047D01*
X67099330Y-63121128D01*
X67050270Y-63026624D01*
X67039735Y-62960110D01*
X67057190Y-62855071D01*
X67169149Y-62700972D01*
X67263653Y-62651913D01*
X67330168Y-62641378D01*
X67435207Y-62658833D01*
X67627830Y-62798782D01*
X67676889Y-62893286D01*
X67687424Y-62959800D01*
X67669969Y-63064839D01*
X67558010Y-63218938D01*
X67463506Y-63267997D01*
X67396992Y-63278532D01*
X67291953Y-63261077D01*
X72024582Y-60951817D02*
X72360459Y-60489522D01*
X72192520Y-60720669D02*
X71383503Y-60132884D01*
X71555057Y-60139804D01*
X71688086Y-60118734D01*
X71782590Y-60069675D01*
%TO.C,D19*%
X29908723Y-33573525D02*
X29099706Y-32985739D01*
X28959757Y-33178362D01*
X28914312Y-33321926D01*
X28935382Y-33454955D01*
X28984441Y-33549459D01*
X29110550Y-33699943D01*
X29226124Y-33783912D01*
X29408212Y-33857347D01*
X29513251Y-33874801D01*
X29646280Y-33853732D01*
X29768774Y-33766148D01*
X29908723Y-33573525D01*
X29013050Y-34806312D02*
X29348927Y-34344017D01*
X29180988Y-34575165D02*
X28371971Y-33987379D01*
X28543525Y-33994299D01*
X28676554Y-33973230D01*
X28771058Y-33924170D01*
X28733152Y-35191559D02*
X28621193Y-35345657D01*
X28526689Y-35394717D01*
X28460174Y-35405251D01*
X28288621Y-35398331D01*
X28106533Y-35324897D01*
X27798336Y-35100979D01*
X27749276Y-35006474D01*
X27738742Y-34939960D01*
X27756196Y-34834921D01*
X27868156Y-34680823D01*
X27962660Y-34631763D01*
X28029174Y-34621228D01*
X28134213Y-34638683D01*
X28326836Y-34778632D01*
X28375896Y-34873136D01*
X28386431Y-34939651D01*
X28368976Y-35044690D01*
X28257017Y-35198788D01*
X28162512Y-35247848D01*
X28095998Y-35258382D01*
X27990959Y-35240927D01*
X26371507Y-38042282D02*
X26707384Y-37579987D01*
X26539445Y-37811134D02*
X25730428Y-37223349D01*
X25901982Y-37230269D01*
X26035011Y-37209199D01*
X26129515Y-37160140D01*
%TO.C,G\u002A\u002A\u002A*%
G36*
X36692413Y-29292103D02*
G01*
X36819309Y-29293075D01*
X36914770Y-29296287D01*
X36988846Y-29302857D01*
X37051588Y-29313899D01*
X37113044Y-29330531D01*
X37183266Y-29353869D01*
X37267627Y-29384706D01*
X37555461Y-29516897D01*
X37808754Y-29678798D01*
X38027324Y-29870256D01*
X38210986Y-30091116D01*
X38359559Y-30341226D01*
X38367760Y-30358024D01*
X38429971Y-30499688D01*
X38485788Y-30650095D01*
X38529678Y-30793156D01*
X38556108Y-30912783D01*
X38556774Y-30917835D01*
X38559876Y-30972467D01*
X38561263Y-31060023D01*
X38560863Y-31169529D01*
X38558603Y-31290010D01*
X38557526Y-31328695D01*
X38552420Y-31453512D01*
X38544258Y-31549673D01*
X38530980Y-31630732D01*
X38510527Y-31710243D01*
X38480838Y-31801760D01*
X38459748Y-31861052D01*
X38343966Y-32124298D01*
X38200820Y-32355982D01*
X38025043Y-32563602D01*
X37811369Y-32754653D01*
X37780038Y-32777775D01*
X37685231Y-32827611D01*
X37601226Y-32843076D01*
X37533922Y-32825227D01*
X37489215Y-32775127D01*
X37473002Y-32693834D01*
X37477794Y-32651053D01*
X37497367Y-32613174D01*
X37539460Y-32570165D01*
X37611816Y-32511880D01*
X37734933Y-32404992D01*
X37896196Y-32224515D01*
X38034788Y-32020594D01*
X38143403Y-31804429D01*
X38214740Y-31587220D01*
X38232765Y-31483371D01*
X38245686Y-31333636D01*
X38248821Y-31173833D01*
X38241908Y-31022147D01*
X38224686Y-30896761D01*
X38175953Y-30718446D01*
X38069582Y-30471817D01*
X37923636Y-30244136D01*
X37741099Y-30040682D01*
X37731643Y-30031784D01*
X37523667Y-29867704D01*
X37294705Y-29741362D01*
X37050279Y-29653815D01*
X36795911Y-29606122D01*
X36537123Y-29599339D01*
X36279436Y-29634524D01*
X36028372Y-29712733D01*
X35864913Y-29789758D01*
X35645444Y-29931787D01*
X35455696Y-30102705D01*
X35297294Y-30298059D01*
X35171861Y-30513399D01*
X35081022Y-30744274D01*
X35026402Y-30986232D01*
X35009623Y-31234823D01*
X35032311Y-31485595D01*
X35096089Y-31734098D01*
X35202581Y-31975879D01*
X35318630Y-32161087D01*
X35492778Y-32365984D01*
X35694879Y-32537151D01*
X35921320Y-32672101D01*
X36168488Y-32768343D01*
X36432768Y-32823389D01*
X36474362Y-32829092D01*
X36580120Y-32852421D01*
X36648291Y-32886572D01*
X36684828Y-32935628D01*
X36695684Y-33003671D01*
X36690977Y-33045008D01*
X36655305Y-33103744D01*
X36583470Y-33136674D01*
X36474120Y-33144659D01*
X36288094Y-33125782D01*
X36042922Y-33064748D01*
X35801317Y-32966389D01*
X35570460Y-32834937D01*
X35357536Y-32674625D01*
X35169725Y-32489685D01*
X35014211Y-32284350D01*
X34961238Y-32197037D01*
X34831522Y-31928453D01*
X34744464Y-31651752D01*
X34699615Y-31370920D01*
X34696524Y-31089943D01*
X34734745Y-30812804D01*
X34813826Y-30543489D01*
X34933318Y-30285984D01*
X35092774Y-30044272D01*
X35291742Y-29822340D01*
X35330238Y-29785741D01*
X35455086Y-29676197D01*
X35576923Y-29586873D01*
X35707722Y-29510536D01*
X35859459Y-29439955D01*
X36044109Y-29367895D01*
X36111508Y-29343558D01*
X36176755Y-29322423D01*
X36236657Y-29308083D01*
X36301428Y-29299208D01*
X36381283Y-29294470D01*
X36486435Y-29292542D01*
X36627097Y-29292095D01*
X36692413Y-29292103D01*
G37*
G36*
X36853713Y-30028258D02*
G01*
X37071160Y-30088359D01*
X37271130Y-30186735D01*
X37449102Y-30319952D01*
X37600560Y-30484573D01*
X37720984Y-30677166D01*
X37805856Y-30894294D01*
X37820337Y-30963092D01*
X37832102Y-31093939D01*
X37832219Y-31242973D01*
X37821427Y-31394713D01*
X37800464Y-31533674D01*
X37770070Y-31644376D01*
X37769006Y-31647153D01*
X37668864Y-31848115D01*
X37535339Y-32024435D01*
X37374016Y-32173152D01*
X37190482Y-32291306D01*
X36990324Y-32375936D01*
X36779127Y-32424082D01*
X36562479Y-32432784D01*
X36345964Y-32399081D01*
X36327187Y-32394033D01*
X36115193Y-32313654D01*
X35925865Y-32199171D01*
X35762040Y-32055577D01*
X35626552Y-31887867D01*
X35522236Y-31701033D01*
X35451929Y-31500069D01*
X35418466Y-31289968D01*
X35420753Y-31211134D01*
X35747560Y-31211134D01*
X35748349Y-31319296D01*
X35753447Y-31396918D01*
X35765855Y-31459075D01*
X35788574Y-31520842D01*
X35824607Y-31597294D01*
X35843483Y-31634101D01*
X35950113Y-31794344D01*
X36083393Y-31921663D01*
X36251178Y-32023914D01*
X36253317Y-32024966D01*
X36329055Y-32060595D01*
X36390374Y-32082987D01*
X36452305Y-32095115D01*
X36529880Y-32099954D01*
X36638128Y-32100478D01*
X36717844Y-32099503D01*
X36806197Y-32094874D01*
X36873587Y-32084008D01*
X36934726Y-32064179D01*
X37004325Y-32032664D01*
X37115037Y-31967051D01*
X37248637Y-31856687D01*
X37362700Y-31727856D01*
X37444412Y-31593353D01*
X37467592Y-31538907D01*
X37491402Y-31460765D01*
X37504665Y-31372234D01*
X37510845Y-31255717D01*
X37511556Y-31219667D01*
X37510699Y-31119700D01*
X37506140Y-31034696D01*
X37498562Y-30980007D01*
X37488450Y-30944808D01*
X37416539Y-30784346D01*
X37309426Y-30634517D01*
X37175721Y-30505698D01*
X37024035Y-30408263D01*
X37014179Y-30403397D01*
X36952437Y-30375243D01*
X36896942Y-30357222D01*
X36834705Y-30347090D01*
X36752737Y-30342598D01*
X36638048Y-30341502D01*
X36594361Y-30341520D01*
X36493645Y-30343100D01*
X36420619Y-30348885D01*
X36361889Y-30361351D01*
X36304059Y-30382973D01*
X36233732Y-30416227D01*
X36227312Y-30419422D01*
X36063212Y-30527182D01*
X35924105Y-30671567D01*
X35813615Y-30848846D01*
X35791054Y-30896593D01*
X35768348Y-30957117D01*
X35755292Y-31019941D01*
X35749245Y-31099529D01*
X35747563Y-31210344D01*
X35747560Y-31211134D01*
X35420753Y-31211134D01*
X35424681Y-31075726D01*
X35473411Y-30862334D01*
X35535064Y-30707457D01*
X35653941Y-30501754D01*
X35802361Y-30329418D01*
X35977857Y-30192249D01*
X36177964Y-30092044D01*
X36400217Y-30030603D01*
X36638048Y-30010076D01*
X36642152Y-30009722D01*
X36853713Y-30028258D01*
G37*
G36*
X32963408Y-32124818D02*
G01*
X33186802Y-32177188D01*
X33392192Y-32268672D01*
X33575393Y-32396197D01*
X33732215Y-32556689D01*
X33858471Y-32747072D01*
X33949974Y-32964274D01*
X33976728Y-33076875D01*
X33994634Y-33231848D01*
X33997102Y-33393416D01*
X33984009Y-33545080D01*
X33955231Y-33670339D01*
X33891716Y-33827297D01*
X33771104Y-34035580D01*
X33622078Y-34210237D01*
X33447107Y-34349430D01*
X33248662Y-34451324D01*
X33029212Y-34514081D01*
X32791228Y-34535865D01*
X32688137Y-34531970D01*
X32465313Y-34493577D01*
X32260250Y-34417587D01*
X32076058Y-34308218D01*
X31915841Y-34169686D01*
X31782707Y-34006209D01*
X31679762Y-33822004D01*
X31610114Y-33621289D01*
X31576869Y-33408281D01*
X31579236Y-33324754D01*
X31908295Y-33324754D01*
X31909056Y-33433176D01*
X31913639Y-33514562D01*
X31924489Y-33577291D01*
X31944035Y-33635163D01*
X31974706Y-33701982D01*
X32009911Y-33766123D01*
X32120661Y-33913636D01*
X32258092Y-34041909D01*
X32409006Y-34137700D01*
X32419850Y-34142990D01*
X32482697Y-34171347D01*
X32538785Y-34189447D01*
X32601231Y-34199556D01*
X32683152Y-34203942D01*
X32797664Y-34204871D01*
X32817980Y-34204849D01*
X32926165Y-34203511D01*
X33003129Y-34198535D01*
X33061425Y-34187752D01*
X33113602Y-34168989D01*
X33172212Y-34140076D01*
X33330940Y-34035392D01*
X33476387Y-33893592D01*
X33588314Y-33730262D01*
X33619997Y-33668669D01*
X33644576Y-33608450D01*
X33659037Y-33546563D01*
X33666634Y-33468324D01*
X33670624Y-33359047D01*
X33671474Y-33298779D01*
X33669967Y-33199868D01*
X33665165Y-33120311D01*
X33657667Y-33073269D01*
X33580404Y-32901483D01*
X33466127Y-32741598D01*
X33324447Y-32607540D01*
X33163461Y-32508559D01*
X33107195Y-32483671D01*
X33046356Y-32462998D01*
X32981839Y-32451170D01*
X32899640Y-32445814D01*
X32785753Y-32444556D01*
X32767752Y-32444567D01*
X32661836Y-32445908D01*
X32585522Y-32451379D01*
X32524677Y-32463680D01*
X32465170Y-32485506D01*
X32392868Y-32519557D01*
X32357998Y-32537816D01*
X32201623Y-32648811D01*
X32068381Y-32792325D01*
X31967590Y-32958739D01*
X31949362Y-32999802D01*
X31928291Y-33060565D01*
X31915905Y-33125827D01*
X31909981Y-33209314D01*
X31908295Y-33324754D01*
X31579236Y-33324754D01*
X31583133Y-33187197D01*
X31632014Y-32962255D01*
X31693588Y-32803761D01*
X31810156Y-32604467D01*
X31958352Y-32435081D01*
X32134328Y-32298426D01*
X32334234Y-32197322D01*
X32554223Y-32134590D01*
X32785753Y-32113481D01*
X32790446Y-32113053D01*
X32963408Y-32124818D01*
G37*
G36*
X30854547Y-35124369D02*
G01*
X31073859Y-35136690D01*
X31269287Y-35169396D01*
X31457346Y-35226180D01*
X31654550Y-35310738D01*
X31908223Y-35457322D01*
X32134333Y-35638902D01*
X32329724Y-35852089D01*
X32492032Y-36093875D01*
X32618894Y-36361254D01*
X32707946Y-36651217D01*
X32709909Y-36660042D01*
X32725637Y-36771008D01*
X32732828Y-36919184D01*
X32731683Y-37108462D01*
X32731533Y-37114469D01*
X32726687Y-37254018D01*
X32719057Y-37361488D01*
X32706850Y-37450022D01*
X32688275Y-37532766D01*
X32661538Y-37622864D01*
X32620335Y-37739508D01*
X32492705Y-38008439D01*
X32329830Y-38250741D01*
X32134786Y-38463771D01*
X31910648Y-38644885D01*
X31660492Y-38791438D01*
X31387392Y-38900786D01*
X31094424Y-38970285D01*
X30987927Y-38984104D01*
X30707969Y-38989725D01*
X30429850Y-38952976D01*
X30158870Y-38876045D01*
X29900329Y-38761118D01*
X29659529Y-38610382D01*
X29441769Y-38426025D01*
X29252351Y-38210233D01*
X29237629Y-38190406D01*
X29113444Y-37997601D01*
X29016233Y-37791609D01*
X28941972Y-37562419D01*
X28886637Y-37300014D01*
X28866313Y-37129296D01*
X28866156Y-37061616D01*
X29189305Y-37061616D01*
X29209364Y-37320384D01*
X29269519Y-37567805D01*
X29367812Y-37800220D01*
X29502286Y-38013971D01*
X29670983Y-38205397D01*
X29871945Y-38370841D01*
X30103213Y-38506644D01*
X30362831Y-38609146D01*
X30498155Y-38640970D01*
X30689072Y-38662541D01*
X30889992Y-38664428D01*
X31083823Y-38646632D01*
X31253475Y-38609151D01*
X31445626Y-38538236D01*
X31689672Y-38409656D01*
X31902477Y-38248105D01*
X32083082Y-38054493D01*
X32230529Y-37829728D01*
X32343860Y-37574719D01*
X32367780Y-37502396D01*
X32386730Y-37426576D01*
X32398917Y-37344390D01*
X32406214Y-37242724D01*
X32410496Y-37108462D01*
X32412100Y-37031963D01*
X32413366Y-36918459D01*
X32411146Y-36832258D01*
X32403956Y-36761390D01*
X32390315Y-36693884D01*
X32368739Y-36617770D01*
X32337747Y-36521078D01*
X32336409Y-36516998D01*
X32241249Y-36297174D01*
X32107252Y-36088394D01*
X31941066Y-35898284D01*
X31749338Y-35734468D01*
X31538715Y-35604572D01*
X31399389Y-35541202D01*
X31218878Y-35483379D01*
X31027016Y-35451172D01*
X30808646Y-35441191D01*
X30771379Y-35441297D01*
X30643805Y-35444363D01*
X30543259Y-35452981D01*
X30454838Y-35468919D01*
X30363637Y-35493943D01*
X30362235Y-35494377D01*
X30105211Y-35596000D01*
X29873582Y-35732221D01*
X29670609Y-35899875D01*
X29499551Y-36095794D01*
X29363669Y-36316814D01*
X29266222Y-36559767D01*
X29211301Y-36795161D01*
X29189305Y-37061616D01*
X28866156Y-37061616D01*
X28865905Y-36953277D01*
X28888368Y-36768701D01*
X28934671Y-36560642D01*
X28944772Y-36523440D01*
X29045173Y-36250399D01*
X29185313Y-35996030D01*
X29361656Y-35765058D01*
X29570664Y-35562212D01*
X29808803Y-35392216D01*
X29906714Y-35336044D01*
X30117885Y-35237643D01*
X30332448Y-35171647D01*
X30562484Y-35134853D01*
X30808646Y-35124535D01*
X30820077Y-35124056D01*
X30854547Y-35124369D01*
G37*
G36*
X32981469Y-32757066D02*
G01*
X33122012Y-32821614D01*
X33237922Y-32923835D01*
X33326165Y-33061838D01*
X33339499Y-33092537D01*
X33376140Y-33236922D01*
X33378031Y-33387670D01*
X33347182Y-33533912D01*
X33285604Y-33664779D01*
X33195306Y-33769403D01*
X33166217Y-33793014D01*
X33041646Y-33869906D01*
X32908808Y-33909251D01*
X32753925Y-33915613D01*
X32699128Y-33912041D01*
X32616140Y-33899714D01*
X32547791Y-33875222D01*
X32473585Y-33832488D01*
X32409214Y-33785799D01*
X32297942Y-33667738D01*
X32225651Y-33530520D01*
X32193878Y-33379662D01*
X32200864Y-33271667D01*
X32517845Y-33271667D01*
X32519931Y-33364643D01*
X32548470Y-33453192D01*
X32599926Y-33529224D01*
X32670762Y-33584650D01*
X32757440Y-33611379D01*
X32856424Y-33601322D01*
X32864627Y-33598640D01*
X32931411Y-33563412D01*
X32994752Y-33511276D01*
X33042018Y-33454383D01*
X33060581Y-33404888D01*
X33060986Y-33394650D01*
X33069925Y-33343770D01*
X33073562Y-33318202D01*
X33059783Y-33247552D01*
X33021834Y-33172267D01*
X32967215Y-33109458D01*
X32903050Y-33072476D01*
X32807869Y-33050463D01*
X32711029Y-33054569D01*
X32631154Y-33086088D01*
X32607183Y-33104793D01*
X32545750Y-33182354D01*
X32517845Y-33271667D01*
X32200864Y-33271667D01*
X32204162Y-33220683D01*
X32258039Y-33059100D01*
X32276491Y-33022603D01*
X32367954Y-32894355D01*
X32484169Y-32803833D01*
X32626839Y-32750005D01*
X32797664Y-32731840D01*
X32807869Y-32731956D01*
X32819323Y-32732086D01*
X32981469Y-32757066D01*
G37*
G36*
X31143109Y-35887391D02*
G01*
X31350467Y-35968661D01*
X31541554Y-36088227D01*
X31710648Y-36245124D01*
X31725134Y-36261768D01*
X31823025Y-36395228D01*
X31907579Y-36545571D01*
X31971267Y-36697744D01*
X32006558Y-36836690D01*
X32013806Y-36887743D01*
X32024574Y-36981884D01*
X32027139Y-37059486D01*
X32021568Y-37140368D01*
X32007929Y-37244347D01*
X31993408Y-37323298D01*
X31923690Y-37531671D01*
X31810993Y-37728332D01*
X31656838Y-37910394D01*
X31590511Y-37973278D01*
X31443613Y-38086730D01*
X31287385Y-38168746D01*
X31106768Y-38228018D01*
X30915022Y-38259336D01*
X30689913Y-38256261D01*
X30464458Y-38213651D01*
X30248520Y-38132605D01*
X30242599Y-38129710D01*
X30127780Y-38057502D01*
X30006707Y-37956030D01*
X29891013Y-37837179D01*
X29792328Y-37712833D01*
X29722283Y-37594878D01*
X29712072Y-37572280D01*
X29663645Y-37443093D01*
X29623611Y-37301483D01*
X29596366Y-37165028D01*
X29587318Y-37062738D01*
X29919590Y-37062738D01*
X29919660Y-37103768D01*
X29922908Y-37198379D01*
X29933348Y-37270608D01*
X29954392Y-37337752D01*
X29989448Y-37417103D01*
X30040946Y-37509429D01*
X30152159Y-37653169D01*
X30286152Y-37777293D01*
X30430222Y-37868784D01*
X30430303Y-37868823D01*
X30491851Y-37896787D01*
X30547580Y-37914858D01*
X30610367Y-37925151D01*
X30693096Y-37929777D01*
X30808646Y-37930850D01*
X30923057Y-37929799D01*
X31006193Y-37925212D01*
X31069173Y-37914990D01*
X31124850Y-37897036D01*
X31186079Y-37869252D01*
X31227255Y-37847664D01*
X31383377Y-37736940D01*
X31515862Y-37596146D01*
X31617380Y-37434304D01*
X31680602Y-37260438D01*
X31688478Y-37223831D01*
X31705379Y-37025335D01*
X31679083Y-36834709D01*
X31611653Y-36656203D01*
X31505153Y-36494067D01*
X31361645Y-36352550D01*
X31183194Y-36235903D01*
X31172826Y-36230478D01*
X31116149Y-36203318D01*
X31063935Y-36185971D01*
X31003643Y-36176268D01*
X30922728Y-36172037D01*
X30808646Y-36171109D01*
X30749430Y-36171220D01*
X30654826Y-36173086D01*
X30586806Y-36179264D01*
X30532475Y-36192298D01*
X30478941Y-36214731D01*
X30413311Y-36249108D01*
X30411821Y-36249918D01*
X30274085Y-36342647D01*
X30147443Y-36460683D01*
X30043020Y-36592039D01*
X29971940Y-36724728D01*
X29961975Y-36751291D01*
X29936815Y-36839770D01*
X29923614Y-36937597D01*
X29919590Y-37062738D01*
X29587318Y-37062738D01*
X29586307Y-37051307D01*
X29586735Y-37031192D01*
X29600570Y-36911635D01*
X29630673Y-36772877D01*
X29672647Y-36632514D01*
X29722092Y-36508142D01*
X29771948Y-36420417D01*
X29864220Y-36297560D01*
X29976224Y-36176867D01*
X30095922Y-36071023D01*
X30211273Y-35992712D01*
X30265377Y-35964526D01*
X30480613Y-35882984D01*
X30702461Y-35843589D01*
X30808646Y-35844442D01*
X30925200Y-35845379D01*
X31143109Y-35887391D01*
G37*
D12*
%TO.C,D15*%
X54660095Y-19768368D02*
X61602808Y-22024192D01*
X61602808Y-22024192D02*
X61247438Y-23117907D01*
X52960502Y-24999178D02*
X59903215Y-27255002D01*
%TO.C,D18*%
X28678034Y-27238963D02*
X34583858Y-22948131D01*
X31910852Y-31688557D02*
X37816676Y-27397725D01*
X34583858Y-22948131D02*
X35259811Y-23878501D01*
%TO.C,D14*%
X63416141Y-22948131D02*
X69321965Y-27238963D01*
X60183323Y-27397725D02*
X66089147Y-31688557D01*
X69321965Y-27238963D02*
X68646012Y-28169333D01*
%TO.C,D4*%
X34583858Y-75051868D02*
X28678034Y-70761036D01*
X37816676Y-70602274D02*
X31910852Y-66311442D01*
X28678034Y-70761036D02*
X29353987Y-69830666D01*
%TO.C,D17*%
X43339904Y-19768368D02*
X43695273Y-20862083D01*
X36397191Y-22024192D02*
X43339904Y-19768368D01*
X38096784Y-27255002D02*
X45039497Y-24999178D01*
%TO.C,D1*%
X27960000Y-52935000D02*
X26040000Y-52935000D01*
X27960000Y-50250000D02*
X27960000Y-52935000D01*
X26040000Y-52935000D02*
X26040000Y-50250000D01*
%TO.C,D11*%
X78550000Y-52650000D02*
X77400000Y-52650000D01*
X73050000Y-45350000D02*
X73050000Y-52650000D01*
X78550000Y-45350000D02*
X78550000Y-52650000D01*
%TO.C,R3*%
X27735000Y-46889564D02*
X27735000Y-46435436D01*
X26265000Y-46889564D02*
X26265000Y-46435436D01*
%TO.C,D2*%
X19768368Y-54660095D02*
X20862083Y-54304726D01*
X27255002Y-59903215D02*
X24999178Y-52960502D01*
X22024192Y-61602808D02*
X19768368Y-54660095D01*
%TO.C,D20*%
X19768368Y-43339904D02*
X22024192Y-36397191D01*
X22024192Y-36397191D02*
X23117907Y-36752561D01*
X24999178Y-45039497D02*
X27255002Y-38096784D01*
%TO.C,D3*%
X31688557Y-66089147D02*
X27397725Y-60183323D01*
X27238963Y-69321965D02*
X22948131Y-63416141D01*
X22948131Y-63416141D02*
X23878501Y-62740188D01*
%TO.C,D12*%
X70744997Y-38096784D02*
X73000821Y-45039497D01*
X78231631Y-43339904D02*
X77137916Y-43695273D01*
X75975807Y-36397191D02*
X78231631Y-43339904D01*
%TO.C,C18*%
X65738748Y-34765000D02*
X66261252Y-34765000D01*
X65738748Y-36235000D02*
X66261252Y-36235000D01*
%TO.C,D21*%
X24950000Y-52649999D02*
X24950000Y-45349999D01*
X19450000Y-52649999D02*
X19450000Y-45349999D01*
X19450000Y-45349999D02*
X20600000Y-45349999D01*
%TO.C,D16*%
X45350000Y-24950000D02*
X52650000Y-24950000D01*
X45350000Y-19450000D02*
X52650000Y-19450000D01*
X52650000Y-19450000D02*
X52650000Y-20600000D01*
%TO.C,D6*%
X52650000Y-78550000D02*
X45350000Y-78550000D01*
X45350000Y-78550000D02*
X45350000Y-77400000D01*
X52650000Y-73050000D02*
X45350000Y-73050000D01*
%TO.C,D10*%
X75975807Y-61602808D02*
X74882092Y-61247438D01*
X78231631Y-54660095D02*
X75975807Y-61602808D01*
X73000821Y-52960502D02*
X70744997Y-59903215D01*
%TO.C,SW1*%
X31028106Y-62644401D02*
X35355599Y-66971894D01*
X35355599Y-66971894D02*
X37971894Y-64355599D01*
X33644401Y-60028106D02*
X31028106Y-62644401D01*
X37971894Y-64355599D02*
X33644401Y-60028106D01*
%TO.C,D8*%
X66089147Y-66311442D02*
X60183323Y-70602274D01*
X69321965Y-70761036D02*
X63416141Y-75051868D01*
X63416141Y-75051868D02*
X62740188Y-74121498D01*
%TO.C,D13*%
X66311442Y-31910852D02*
X70602274Y-37816676D01*
X70761036Y-28678034D02*
X75051868Y-34583858D01*
X75051868Y-34583858D02*
X74121498Y-35259811D01*
%TO.C,D5*%
X43339904Y-78231631D02*
X36397191Y-75975807D01*
X36397191Y-75975807D02*
X36752561Y-74882092D01*
X45039497Y-73000821D02*
X38096784Y-70744997D01*
%TO.C,D7*%
X59903215Y-70744997D02*
X52960502Y-73000821D01*
X54660095Y-78231631D02*
X54304726Y-77137916D01*
X61602808Y-75975807D02*
X54660095Y-78231631D01*
%TO.C,SW2*%
X71350000Y-52560000D02*
X71350000Y-46440000D01*
X71350000Y-46440000D02*
X67650000Y-46440000D01*
X67650000Y-52560000D02*
X71350000Y-52560000D01*
X67650000Y-46440000D02*
X67650000Y-52560000D01*
%TO.C,D9*%
X70602274Y-60183323D02*
X66311442Y-66089147D01*
X70761036Y-69321965D02*
X69830666Y-68646012D01*
X75051868Y-63416141D02*
X70761036Y-69321965D01*
%TO.C,D19*%
X27238963Y-28678034D02*
X28169333Y-29353987D01*
X27397725Y-37816676D02*
X31688557Y-31910852D01*
X22948131Y-34583858D02*
X27238963Y-28678034D01*
%TD*%
M02*
