%TF.GenerationSoftware,KiCad,Pcbnew,(6.0.7)*%
%TF.CreationDate,2023-03-05T02:27:35+08:00*%
%TF.ProjectId,CameraPosition,43616d65-7261-4506-9f73-6974696f6e2e,rev?*%
%TF.SameCoordinates,Original*%
%TF.FileFunction,Paste,Bot*%
%TF.FilePolarity,Positive*%
%FSLAX46Y46*%
G04 Gerber Fmt 4.6, Leading zero omitted, Abs format (unit mm)*
G04 Created by KiCad (PCBNEW (6.0.7)) date 2023-03-05 02:27:35*
%MOMM*%
%LPD*%
G01*
G04 APERTURE LIST*
G04 Aperture macros list*
%AMRoundRect*
0 Rectangle with rounded corners*
0 $1 Rounding radius*
0 $2 $3 $4 $5 $6 $7 $8 $9 X,Y pos of 4 corners*
0 Add a 4 corners polygon primitive as box body*
4,1,4,$2,$3,$4,$5,$6,$7,$8,$9,$2,$3,0*
0 Add four circle primitives for the rounded corners*
1,1,$1+$1,$2,$3*
1,1,$1+$1,$4,$5*
1,1,$1+$1,$6,$7*
1,1,$1+$1,$8,$9*
0 Add four rect primitives between the rounded corners*
20,1,$1+$1,$2,$3,$4,$5,0*
20,1,$1+$1,$4,$5,$6,$7,0*
20,1,$1+$1,$6,$7,$8,$9,0*
20,1,$1+$1,$8,$9,$2,$3,0*%
%AMRotRect*
0 Rectangle, with rotation*
0 The origin of the aperture is its center*
0 $1 length*
0 $2 width*
0 $3 Rotation angle, in degrees counterclockwise*
0 Add horizontal line*
21,1,$1,$2,0,0,$3*%
G04 Aperture macros list end*
%ADD10RotRect,1.500000X1.000000X342.000000*%
%ADD11RotRect,1.500000X1.000000X36.000000*%
%ADD12RotRect,1.500000X1.000000X324.000000*%
%ADD13RotRect,1.500000X1.000000X144.000000*%
%ADD14RotRect,1.500000X1.000000X18.000000*%
%ADD15RoundRect,0.243750X0.456250X-0.243750X0.456250X0.243750X-0.456250X0.243750X-0.456250X-0.243750X0*%
%ADD16R,1.000000X1.500000*%
%ADD17RoundRect,0.250000X0.450000X-0.262500X0.450000X0.262500X-0.450000X0.262500X-0.450000X-0.262500X0*%
%ADD18RotRect,1.500000X1.000000X108.000000*%
%ADD19RotRect,1.500000X1.000000X72.000000*%
%ADD20RotRect,1.500000X1.000000X126.000000*%
%ADD21RotRect,1.500000X1.000000X288.000000*%
%ADD22RoundRect,0.250000X-0.250000X-0.475000X0.250000X-0.475000X0.250000X0.475000X-0.250000X0.475000X0*%
%ADD23R,1.500000X1.000000*%
%ADD24RotRect,1.500000X1.000000X252.000000*%
%ADD25RotRect,1.500000X1.500000X315.000000*%
%ADD26RotRect,1.500000X1.000000X216.000000*%
%ADD27RotRect,1.500000X1.000000X306.000000*%
%ADD28RotRect,1.500000X1.000000X162.000000*%
%ADD29RotRect,1.500000X1.000000X198.000000*%
%ADD30R,1.500000X1.500000*%
%ADD31RotRect,1.500000X1.000000X234.000000*%
%ADD32RotRect,1.500000X1.000000X54.000000*%
G04 APERTURE END LIST*
D10*
%TO.C,D15*%
X54457139Y-24276284D03*
X55445994Y-21232903D03*
X60106171Y-22747086D03*
X59117316Y-25790467D03*
%TD*%
D11*
%TO.C,D18*%
X32205720Y-30052845D03*
X30324807Y-27463991D03*
X34288990Y-24583843D03*
X36169903Y-27172697D03*
%TD*%
D12*
%TO.C,D14*%
X61830096Y-27172697D03*
X63711009Y-24583843D03*
X67675192Y-27463991D03*
X65794279Y-30052845D03*
%TD*%
D13*
%TO.C,D4*%
X36169903Y-70827302D03*
X34288990Y-73416156D03*
X30324807Y-70536008D03*
X32205720Y-67947154D03*
%TD*%
D14*
%TO.C,D17*%
X38882683Y-25790467D03*
X37893828Y-22747086D03*
X42554005Y-21232903D03*
X43542860Y-24276284D03*
%TD*%
D15*
%TO.C,D1*%
X27000000Y-52187500D03*
X27000000Y-50312500D03*
%TD*%
D16*
%TO.C,D11*%
X74200000Y-46550000D03*
X77400000Y-46550000D03*
X77400000Y-51450000D03*
X74200000Y-51450000D03*
%TD*%
D17*
%TO.C,R3*%
X27000000Y-47575000D03*
X27000000Y-45750000D03*
%TD*%
D18*
%TO.C,D2*%
X25790467Y-59117316D03*
X22747086Y-60106171D03*
X21232903Y-55445994D03*
X24276284Y-54457139D03*
%TD*%
D19*
%TO.C,D20*%
X24276284Y-43542860D03*
X21232903Y-42554005D03*
X22747086Y-37893828D03*
X25790467Y-38882683D03*
%TD*%
D20*
%TO.C,D3*%
X30052845Y-65794279D03*
X27463991Y-67675192D03*
X24583843Y-63711009D03*
X27172697Y-61830096D03*
%TD*%
D21*
%TO.C,D12*%
X72209532Y-38882683D03*
X75252913Y-37893828D03*
X76767096Y-42554005D03*
X73723715Y-43542860D03*
%TD*%
D22*
%TO.C,C18*%
X65050000Y-35500000D03*
X66950000Y-35500000D03*
%TD*%
D16*
%TO.C,D21*%
X23800000Y-51449999D03*
X20600000Y-51449999D03*
X20600000Y-46549999D03*
X23800000Y-46549999D03*
%TD*%
D23*
%TO.C,D16*%
X46550000Y-23800000D03*
X46550000Y-20600000D03*
X51450000Y-20600000D03*
X51450000Y-23800000D03*
%TD*%
%TO.C,D6*%
X51450000Y-74200000D03*
X51450000Y-77400000D03*
X46550000Y-77400000D03*
X46550000Y-74200000D03*
%TD*%
D24*
%TO.C,D10*%
X73723715Y-54457139D03*
X76767096Y-55445994D03*
X75252913Y-60106171D03*
X72209532Y-59117316D03*
%TD*%
D25*
%TO.C,SW1*%
X31742284Y-60742284D03*
X37257716Y-66257716D03*
%TD*%
D26*
%TO.C,D8*%
X65794279Y-67947154D03*
X67675192Y-70536008D03*
X63711009Y-73416156D03*
X61830096Y-70827302D03*
%TD*%
D27*
%TO.C,D13*%
X67947154Y-32205720D03*
X70536008Y-30324807D03*
X73416156Y-34288990D03*
X70827302Y-36169903D03*
%TD*%
D28*
%TO.C,D5*%
X43542860Y-73723715D03*
X42554005Y-76767096D03*
X37893828Y-75252913D03*
X38882683Y-72209532D03*
%TD*%
D29*
%TO.C,D7*%
X59117316Y-72209532D03*
X60106171Y-75252913D03*
X55445994Y-76767096D03*
X54457139Y-73723715D03*
%TD*%
D30*
%TO.C,SW2*%
X69500000Y-53400000D03*
X69500000Y-45600000D03*
%TD*%
D31*
%TO.C,D9*%
X70827302Y-61830096D03*
X73416156Y-63711009D03*
X70536008Y-67675192D03*
X67947154Y-65794279D03*
%TD*%
D32*
%TO.C,D19*%
X27172697Y-36169903D03*
X24583843Y-34288990D03*
X27463991Y-30324807D03*
X30052845Y-32205720D03*
%TD*%
M02*
