M48
; DRILL file {KiCad (6.0.7)} date Sun Mar  5 02:05:49 2023
; FORMAT={-:-/ absolute / inch / decimal}
; #@! TF.CreationDate,2023-03-05T02:05:49+08:00
; #@! TF.GenerationSoftware,Kicad,Pcbnew,(6.0.7)
; #@! TF.FileFunction,Plated,1,4,PTH
FMAT,2
INCH
; #@! TA.AperFunction,Plated,PTH,ViaDrill
T1C0.0118
; #@! TA.AperFunction,Plated,PTH,ViaDrill
T2C0.0157
; #@! TA.AperFunction,Plated,PTH,ViaDrill
T3C0.0197
; #@! TA.AperFunction,Plated,PTH,ComponentDrill
T4C0.0236
; #@! TA.AperFunction,Plated,PTH,ComponentDrill
T5C0.0315
; #@! TA.AperFunction,Plated,PTH,ComponentDrill
T6C0.0394
%
G90
G05
T1
X0.9744Y-1.9094
X1.0187Y-1.9341
X1.0951Y-1.835
X1.1201Y-2.0256
X1.1248Y-1.6732
X1.1562Y-1.8458
X1.9488Y-2.2047
X2.0079Y-2.2047
X2.2047Y-2.0079
X2.2539Y-1.4862
X2.3031Y-1.4862
X2.5492Y-1.4075
X2.5492Y-1.7126
X2.5492Y-1.7717
X2.5492Y-1.8209
X2.5984Y-1.7126
X2.5984Y-1.7717
X2.5984Y-1.8209
X2.6575Y-1.7126
X2.6575Y-1.7717
X2.6575Y-1.8209
T2
X0.8071Y-1.8307
X0.8366Y-2.185
X0.8957Y-1.4961
X0.9646Y-2.5098
X1.063Y-1.3386
X1.0827Y-1.1909
X1.0827Y-1.7913
X1.0925Y-2.059
X1.1909Y-2.7756
X1.2402Y-1.9882
X1.2598Y-1.4862
X1.3189Y-1.2106
X1.3189Y-1.25
X1.3386Y-1.5748
X1.3423Y-2.0041
X1.3484Y-0.9646
X1.3484Y-1.4862
X1.4665Y-2.6083
X1.4961Y-2.9626
X1.5372Y-1.8486
X1.5551Y-1.6929
X1.5551Y-1.7717
X1.6732Y-0.8366
X1.6912Y-1.9865
X1.8307Y-3.0512
X1.8701Y-2.2047
X1.8898Y-1.0531
X2.0079Y-0.8169
X2.0571Y-2.1161
X2.185Y-3.0217
X2.2244Y-1.2598
X2.3228Y-1.3012
X2.3622Y-0.8957
X2.5098Y-2.8937
X2.6673Y-1.0827
X2.6969Y-1.3976
X2.7362Y-1.2402
X2.7362Y-2.1063
X2.7756Y-2.6673
X2.7953Y-1.3189
X2.8346Y-1.378
X2.8543Y-1.4665
X2.874Y-1.3386
X2.9626Y-2.372
X3.0217Y-1.6732
X3.0413Y-2.0276
T3
X1.624Y-1.0138
X2.2835Y-0.9154
T5
X1.2008Y-2.185
X1.2795Y-2.185
X2.2835Y-2.2835
X2.2835Y-2.3622
X2.5197Y-2.4606
X2.5984Y-2.4606
T6
X1.6441Y-2.185
X1.7441Y-2.185
T4
G00X0.8815Y-1.7591
M15
G01X0.8579Y-1.7591
M16
G05
G00X0.8815Y-2.0992
M15
G01X0.8579Y-2.0992
M16
G05
G00X1.0559Y-1.7591
M15
G01X1.0126Y-1.7591
M16
G05
G00X1.0559Y-2.0992
M15
G01X1.0126Y-2.0992
M16
G05
T0
M30
