%TF.GenerationSoftware,KiCad,Pcbnew,(6.0.7)*%
%TF.CreationDate,2023-03-05T02:27:35+08:00*%
%TF.ProjectId,CameraPosition,43616d65-7261-4506-9f73-6974696f6e2e,rev?*%
%TF.SameCoordinates,Original*%
%TF.FileFunction,Legend,Top*%
%TF.FilePolarity,Positive*%
%FSLAX46Y46*%
G04 Gerber Fmt 4.6, Leading zero omitted, Abs format (unit mm)*
G04 Created by KiCad (PCBNEW (6.0.7)) date 2023-03-05 02:27:35*
%MOMM*%
%LPD*%
G01*
G04 APERTURE LIST*
%ADD10C,0.300000*%
%ADD11C,0.150000*%
%ADD12C,0.120000*%
G04 APERTURE END LIST*
D10*
X40195571Y-57384142D02*
X41338428Y-57384142D01*
X45529571Y-56241142D02*
X46672428Y-56241142D01*
X46101000Y-56812571D02*
X46101000Y-55669714D01*
D11*
%TO.C,R12*%
X50202380Y-26392857D02*
X49726190Y-26726190D01*
X50202380Y-26964285D02*
X49202380Y-26964285D01*
X49202380Y-26583333D01*
X49250000Y-26488095D01*
X49297619Y-26440476D01*
X49392857Y-26392857D01*
X49535714Y-26392857D01*
X49630952Y-26440476D01*
X49678571Y-26488095D01*
X49726190Y-26583333D01*
X49726190Y-26964285D01*
X50202380Y-25440476D02*
X50202380Y-26011904D01*
X50202380Y-25726190D02*
X49202380Y-25726190D01*
X49345238Y-25821428D01*
X49440476Y-25916666D01*
X49488095Y-26011904D01*
X49297619Y-25059523D02*
X49250000Y-25011904D01*
X49202380Y-24916666D01*
X49202380Y-24678571D01*
X49250000Y-24583333D01*
X49297619Y-24535714D01*
X49392857Y-24488095D01*
X49488095Y-24488095D01*
X49630952Y-24535714D01*
X50202380Y-25107142D01*
X50202380Y-24488095D01*
%TO.C,C5*%
X52083333Y-20607142D02*
X52035714Y-20654761D01*
X51892857Y-20702380D01*
X51797619Y-20702380D01*
X51654761Y-20654761D01*
X51559523Y-20559523D01*
X51511904Y-20464285D01*
X51464285Y-20273809D01*
X51464285Y-20130952D01*
X51511904Y-19940476D01*
X51559523Y-19845238D01*
X51654761Y-19750000D01*
X51797619Y-19702380D01*
X51892857Y-19702380D01*
X52035714Y-19750000D01*
X52083333Y-19797619D01*
X52988095Y-19702380D02*
X52511904Y-19702380D01*
X52464285Y-20178571D01*
X52511904Y-20130952D01*
X52607142Y-20083333D01*
X52845238Y-20083333D01*
X52940476Y-20130952D01*
X52988095Y-20178571D01*
X53035714Y-20273809D01*
X53035714Y-20511904D01*
X52988095Y-20607142D01*
X52940476Y-20654761D01*
X52845238Y-20702380D01*
X52607142Y-20702380D01*
X52511904Y-20654761D01*
X52464285Y-20607142D01*
%TO.C,C20*%
X66107142Y-31357142D02*
X66059523Y-31404761D01*
X65916666Y-31452380D01*
X65821428Y-31452380D01*
X65678571Y-31404761D01*
X65583333Y-31309523D01*
X65535714Y-31214285D01*
X65488095Y-31023809D01*
X65488095Y-30880952D01*
X65535714Y-30690476D01*
X65583333Y-30595238D01*
X65678571Y-30500000D01*
X65821428Y-30452380D01*
X65916666Y-30452380D01*
X66059523Y-30500000D01*
X66107142Y-30547619D01*
X66488095Y-30547619D02*
X66535714Y-30500000D01*
X66630952Y-30452380D01*
X66869047Y-30452380D01*
X66964285Y-30500000D01*
X67011904Y-30547619D01*
X67059523Y-30642857D01*
X67059523Y-30738095D01*
X67011904Y-30880952D01*
X66440476Y-31452380D01*
X67059523Y-31452380D01*
X67678571Y-30452380D02*
X67773809Y-30452380D01*
X67869047Y-30500000D01*
X67916666Y-30547619D01*
X67964285Y-30642857D01*
X68011904Y-30833333D01*
X68011904Y-31071428D01*
X67964285Y-31261904D01*
X67916666Y-31357142D01*
X67869047Y-31404761D01*
X67773809Y-31452380D01*
X67678571Y-31452380D01*
X67583333Y-31404761D01*
X67535714Y-31357142D01*
X67488095Y-31261904D01*
X67440476Y-31071428D01*
X67440476Y-30833333D01*
X67488095Y-30642857D01*
X67535714Y-30547619D01*
X67583333Y-30500000D01*
X67678571Y-30452380D01*
%TO.C,C3*%
X33144585Y-42107142D02*
X33096966Y-42154761D01*
X32954109Y-42202380D01*
X32858871Y-42202380D01*
X32716013Y-42154761D01*
X32620775Y-42059523D01*
X32573156Y-41964285D01*
X32525537Y-41773809D01*
X32525537Y-41630952D01*
X32573156Y-41440476D01*
X32620775Y-41345238D01*
X32716013Y-41250000D01*
X32858871Y-41202380D01*
X32954109Y-41202380D01*
X33096966Y-41250000D01*
X33144585Y-41297619D01*
X33477918Y-41202380D02*
X34096966Y-41202380D01*
X33763632Y-41583333D01*
X33906490Y-41583333D01*
X34001728Y-41630952D01*
X34049347Y-41678571D01*
X34096966Y-41773809D01*
X34096966Y-42011904D01*
X34049347Y-42107142D01*
X34001728Y-42154761D01*
X33906490Y-42202380D01*
X33620775Y-42202380D01*
X33525537Y-42154761D01*
X33477918Y-42107142D01*
%TO.C,Q3*%
X68654761Y-58297619D02*
X68559523Y-58250000D01*
X68464285Y-58154761D01*
X68321428Y-58011904D01*
X68226190Y-57964285D01*
X68130952Y-57964285D01*
X68178571Y-58202380D02*
X68083333Y-58154761D01*
X67988095Y-58059523D01*
X67940476Y-57869047D01*
X67940476Y-57535714D01*
X67988095Y-57345238D01*
X68083333Y-57250000D01*
X68178571Y-57202380D01*
X68369047Y-57202380D01*
X68464285Y-57250000D01*
X68559523Y-57345238D01*
X68607142Y-57535714D01*
X68607142Y-57869047D01*
X68559523Y-58059523D01*
X68464285Y-58154761D01*
X68369047Y-58202380D01*
X68178571Y-58202380D01*
X68940476Y-57202380D02*
X69559523Y-57202380D01*
X69226190Y-57583333D01*
X69369047Y-57583333D01*
X69464285Y-57630952D01*
X69511904Y-57678571D01*
X69559523Y-57773809D01*
X69559523Y-58011904D01*
X69511904Y-58107142D01*
X69464285Y-58154761D01*
X69369047Y-58202380D01*
X69083333Y-58202380D01*
X68988095Y-58154761D01*
X68940476Y-58107142D01*
%TO.C,R8*%
X39583333Y-61202380D02*
X39250000Y-60726190D01*
X39011904Y-61202380D02*
X39011904Y-60202380D01*
X39392857Y-60202380D01*
X39488095Y-60250000D01*
X39535714Y-60297619D01*
X39583333Y-60392857D01*
X39583333Y-60535714D01*
X39535714Y-60630952D01*
X39488095Y-60678571D01*
X39392857Y-60726190D01*
X39011904Y-60726190D01*
X40154761Y-60630952D02*
X40059523Y-60583333D01*
X40011904Y-60535714D01*
X39964285Y-60440476D01*
X39964285Y-60392857D01*
X40011904Y-60297619D01*
X40059523Y-60250000D01*
X40154761Y-60202380D01*
X40345238Y-60202380D01*
X40440476Y-60250000D01*
X40488095Y-60297619D01*
X40535714Y-60392857D01*
X40535714Y-60440476D01*
X40488095Y-60535714D01*
X40440476Y-60583333D01*
X40345238Y-60630952D01*
X40154761Y-60630952D01*
X40059523Y-60678571D01*
X40011904Y-60726190D01*
X39964285Y-60821428D01*
X39964285Y-61011904D01*
X40011904Y-61107142D01*
X40059523Y-61154761D01*
X40154761Y-61202380D01*
X40345238Y-61202380D01*
X40440476Y-61154761D01*
X40488095Y-61107142D01*
X40535714Y-61011904D01*
X40535714Y-60821428D01*
X40488095Y-60726190D01*
X40440476Y-60678571D01*
X40345238Y-60630952D01*
%TO.C,C21*%
X67107142Y-32857142D02*
X67059523Y-32904761D01*
X66916666Y-32952380D01*
X66821428Y-32952380D01*
X66678571Y-32904761D01*
X66583333Y-32809523D01*
X66535714Y-32714285D01*
X66488095Y-32523809D01*
X66488095Y-32380952D01*
X66535714Y-32190476D01*
X66583333Y-32095238D01*
X66678571Y-32000000D01*
X66821428Y-31952380D01*
X66916666Y-31952380D01*
X67059523Y-32000000D01*
X67107142Y-32047619D01*
X67488095Y-32047619D02*
X67535714Y-32000000D01*
X67630952Y-31952380D01*
X67869047Y-31952380D01*
X67964285Y-32000000D01*
X68011904Y-32047619D01*
X68059523Y-32142857D01*
X68059523Y-32238095D01*
X68011904Y-32380952D01*
X67440476Y-32952380D01*
X68059523Y-32952380D01*
X69011904Y-32952380D02*
X68440476Y-32952380D01*
X68726190Y-32952380D02*
X68726190Y-31952380D01*
X68630952Y-32095238D01*
X68535714Y-32190476D01*
X68440476Y-32238095D01*
%TO.C,U4*%
X60488095Y-25452380D02*
X60488095Y-26261904D01*
X60535714Y-26357142D01*
X60583333Y-26404761D01*
X60678571Y-26452380D01*
X60869047Y-26452380D01*
X60964285Y-26404761D01*
X61011904Y-26357142D01*
X61059523Y-26261904D01*
X61059523Y-25452380D01*
X61964285Y-25785714D02*
X61964285Y-26452380D01*
X61726190Y-25404761D02*
X61488095Y-26119047D01*
X62107142Y-26119047D01*
%TO.C,C15*%
X49607142Y-54607142D02*
X49559523Y-54654761D01*
X49416666Y-54702380D01*
X49321428Y-54702380D01*
X49178571Y-54654761D01*
X49083333Y-54559523D01*
X49035714Y-54464285D01*
X48988095Y-54273809D01*
X48988095Y-54130952D01*
X49035714Y-53940476D01*
X49083333Y-53845238D01*
X49178571Y-53750000D01*
X49321428Y-53702380D01*
X49416666Y-53702380D01*
X49559523Y-53750000D01*
X49607142Y-53797619D01*
X50559523Y-54702380D02*
X49988095Y-54702380D01*
X50273809Y-54702380D02*
X50273809Y-53702380D01*
X50178571Y-53845238D01*
X50083333Y-53940476D01*
X49988095Y-53988095D01*
X51464285Y-53702380D02*
X50988095Y-53702380D01*
X50940476Y-54178571D01*
X50988095Y-54130952D01*
X51083333Y-54083333D01*
X51321428Y-54083333D01*
X51416666Y-54130952D01*
X51464285Y-54178571D01*
X51511904Y-54273809D01*
X51511904Y-54511904D01*
X51464285Y-54607142D01*
X51416666Y-54654761D01*
X51321428Y-54702380D01*
X51083333Y-54702380D01*
X50988095Y-54654761D01*
X50940476Y-54607142D01*
%TO.C,R11*%
X65857142Y-35952380D02*
X65523809Y-35476190D01*
X65285714Y-35952380D02*
X65285714Y-34952380D01*
X65666666Y-34952380D01*
X65761904Y-35000000D01*
X65809523Y-35047619D01*
X65857142Y-35142857D01*
X65857142Y-35285714D01*
X65809523Y-35380952D01*
X65761904Y-35428571D01*
X65666666Y-35476190D01*
X65285714Y-35476190D01*
X66809523Y-35952380D02*
X66238095Y-35952380D01*
X66523809Y-35952380D02*
X66523809Y-34952380D01*
X66428571Y-35095238D01*
X66333333Y-35190476D01*
X66238095Y-35238095D01*
X67761904Y-35952380D02*
X67190476Y-35952380D01*
X67476190Y-35952380D02*
X67476190Y-34952380D01*
X67380952Y-35095238D01*
X67285714Y-35190476D01*
X67190476Y-35238095D01*
%TO.C,C12*%
X59107142Y-28607142D02*
X59059523Y-28654761D01*
X58916666Y-28702380D01*
X58821428Y-28702380D01*
X58678571Y-28654761D01*
X58583333Y-28559523D01*
X58535714Y-28464285D01*
X58488095Y-28273809D01*
X58488095Y-28130952D01*
X58535714Y-27940476D01*
X58583333Y-27845238D01*
X58678571Y-27750000D01*
X58821428Y-27702380D01*
X58916666Y-27702380D01*
X59059523Y-27750000D01*
X59107142Y-27797619D01*
X60059523Y-28702380D02*
X59488095Y-28702380D01*
X59773809Y-28702380D02*
X59773809Y-27702380D01*
X59678571Y-27845238D01*
X59583333Y-27940476D01*
X59488095Y-27988095D01*
X60440476Y-27797619D02*
X60488095Y-27750000D01*
X60583333Y-27702380D01*
X60821428Y-27702380D01*
X60916666Y-27750000D01*
X60964285Y-27797619D01*
X61011904Y-27892857D01*
X61011904Y-27988095D01*
X60964285Y-28130952D01*
X60392857Y-28702380D01*
X61011904Y-28702380D01*
%TO.C,C2*%
X40833333Y-44857142D02*
X40785714Y-44904761D01*
X40642857Y-44952380D01*
X40547619Y-44952380D01*
X40404761Y-44904761D01*
X40309523Y-44809523D01*
X40261904Y-44714285D01*
X40214285Y-44523809D01*
X40214285Y-44380952D01*
X40261904Y-44190476D01*
X40309523Y-44095238D01*
X40404761Y-44000000D01*
X40547619Y-43952380D01*
X40642857Y-43952380D01*
X40785714Y-44000000D01*
X40833333Y-44047619D01*
X41214285Y-44047619D02*
X41261904Y-44000000D01*
X41357142Y-43952380D01*
X41595238Y-43952380D01*
X41690476Y-44000000D01*
X41738095Y-44047619D01*
X41785714Y-44142857D01*
X41785714Y-44238095D01*
X41738095Y-44380952D01*
X41166666Y-44952380D01*
X41785714Y-44952380D01*
%TO.C,C14*%
X44677142Y-26392857D02*
X44724761Y-26440476D01*
X44772380Y-26583333D01*
X44772380Y-26678571D01*
X44724761Y-26821428D01*
X44629523Y-26916666D01*
X44534285Y-26964285D01*
X44343809Y-27011904D01*
X44200952Y-27011904D01*
X44010476Y-26964285D01*
X43915238Y-26916666D01*
X43820000Y-26821428D01*
X43772380Y-26678571D01*
X43772380Y-26583333D01*
X43820000Y-26440476D01*
X43867619Y-26392857D01*
X44772380Y-25440476D02*
X44772380Y-26011904D01*
X44772380Y-25726190D02*
X43772380Y-25726190D01*
X43915238Y-25821428D01*
X44010476Y-25916666D01*
X44058095Y-26011904D01*
X44105714Y-24583333D02*
X44772380Y-24583333D01*
X43724761Y-24821428D02*
X44439047Y-25059523D01*
X44439047Y-24440476D01*
%TO.C,R13*%
X62452380Y-59892857D02*
X61976190Y-60226190D01*
X62452380Y-60464285D02*
X61452380Y-60464285D01*
X61452380Y-60083333D01*
X61500000Y-59988095D01*
X61547619Y-59940476D01*
X61642857Y-59892857D01*
X61785714Y-59892857D01*
X61880952Y-59940476D01*
X61928571Y-59988095D01*
X61976190Y-60083333D01*
X61976190Y-60464285D01*
X62452380Y-58940476D02*
X62452380Y-59511904D01*
X62452380Y-59226190D02*
X61452380Y-59226190D01*
X61595238Y-59321428D01*
X61690476Y-59416666D01*
X61738095Y-59511904D01*
X61452380Y-58607142D02*
X61452380Y-57988095D01*
X61833333Y-58321428D01*
X61833333Y-58178571D01*
X61880952Y-58083333D01*
X61928571Y-58035714D01*
X62023809Y-57988095D01*
X62261904Y-57988095D01*
X62357142Y-58035714D01*
X62404761Y-58083333D01*
X62452380Y-58178571D01*
X62452380Y-58464285D01*
X62404761Y-58559523D01*
X62357142Y-58607142D01*
%TO.C,R5*%
X31333333Y-54202380D02*
X31000000Y-53726190D01*
X30761904Y-54202380D02*
X30761904Y-53202380D01*
X31142857Y-53202380D01*
X31238095Y-53250000D01*
X31285714Y-53297619D01*
X31333333Y-53392857D01*
X31333333Y-53535714D01*
X31285714Y-53630952D01*
X31238095Y-53678571D01*
X31142857Y-53726190D01*
X30761904Y-53726190D01*
X32238095Y-53202380D02*
X31761904Y-53202380D01*
X31714285Y-53678571D01*
X31761904Y-53630952D01*
X31857142Y-53583333D01*
X32095238Y-53583333D01*
X32190476Y-53630952D01*
X32238095Y-53678571D01*
X32285714Y-53773809D01*
X32285714Y-54011904D01*
X32238095Y-54107142D01*
X32190476Y-54154761D01*
X32095238Y-54202380D01*
X31857142Y-54202380D01*
X31761904Y-54154761D01*
X31714285Y-54107142D01*
%TO.C,R9*%
X53310397Y-52702380D02*
X52977064Y-52226190D01*
X52738968Y-52702380D02*
X52738968Y-51702380D01*
X53119921Y-51702380D01*
X53215159Y-51750000D01*
X53262778Y-51797619D01*
X53310397Y-51892857D01*
X53310397Y-52035714D01*
X53262778Y-52130952D01*
X53215159Y-52178571D01*
X53119921Y-52226190D01*
X52738968Y-52226190D01*
X53786587Y-52702380D02*
X53977064Y-52702380D01*
X54072302Y-52654761D01*
X54119921Y-52607142D01*
X54215159Y-52464285D01*
X54262778Y-52273809D01*
X54262778Y-51892857D01*
X54215159Y-51797619D01*
X54167540Y-51750000D01*
X54072302Y-51702380D01*
X53881825Y-51702380D01*
X53786587Y-51750000D01*
X53738968Y-51797619D01*
X53691349Y-51892857D01*
X53691349Y-52130952D01*
X53738968Y-52226190D01*
X53786587Y-52273809D01*
X53881825Y-52321428D01*
X54072302Y-52321428D01*
X54167540Y-52273809D01*
X54215159Y-52226190D01*
X54262778Y-52130952D01*
%TO.C,U3*%
X33488095Y-45202380D02*
X33488095Y-46011904D01*
X33535714Y-46107142D01*
X33583333Y-46154761D01*
X33678571Y-46202380D01*
X33869047Y-46202380D01*
X33964285Y-46154761D01*
X34011904Y-46107142D01*
X34059523Y-46011904D01*
X34059523Y-45202380D01*
X34440476Y-45202380D02*
X35059523Y-45202380D01*
X34726190Y-45583333D01*
X34869047Y-45583333D01*
X34964285Y-45630952D01*
X35011904Y-45678571D01*
X35059523Y-45773809D01*
X35059523Y-46011904D01*
X35011904Y-46107142D01*
X34964285Y-46154761D01*
X34869047Y-46202380D01*
X34583333Y-46202380D01*
X34488095Y-46154761D01*
X34440476Y-46107142D01*
%TO.C,C16*%
X46607142Y-54607142D02*
X46559523Y-54654761D01*
X46416666Y-54702380D01*
X46321428Y-54702380D01*
X46178571Y-54654761D01*
X46083333Y-54559523D01*
X46035714Y-54464285D01*
X45988095Y-54273809D01*
X45988095Y-54130952D01*
X46035714Y-53940476D01*
X46083333Y-53845238D01*
X46178571Y-53750000D01*
X46321428Y-53702380D01*
X46416666Y-53702380D01*
X46559523Y-53750000D01*
X46607142Y-53797619D01*
X47559523Y-54702380D02*
X46988095Y-54702380D01*
X47273809Y-54702380D02*
X47273809Y-53702380D01*
X47178571Y-53845238D01*
X47083333Y-53940476D01*
X46988095Y-53988095D01*
X48416666Y-53702380D02*
X48226190Y-53702380D01*
X48130952Y-53750000D01*
X48083333Y-53797619D01*
X47988095Y-53940476D01*
X47940476Y-54130952D01*
X47940476Y-54511904D01*
X47988095Y-54607142D01*
X48035714Y-54654761D01*
X48130952Y-54702380D01*
X48321428Y-54702380D01*
X48416666Y-54654761D01*
X48464285Y-54607142D01*
X48511904Y-54511904D01*
X48511904Y-54273809D01*
X48464285Y-54178571D01*
X48416666Y-54130952D01*
X48321428Y-54083333D01*
X48130952Y-54083333D01*
X48035714Y-54130952D01*
X47988095Y-54178571D01*
X47940476Y-54273809D01*
%TO.C,C4*%
X25677142Y-35166666D02*
X25724761Y-35214285D01*
X25772380Y-35357142D01*
X25772380Y-35452380D01*
X25724761Y-35595238D01*
X25629523Y-35690476D01*
X25534285Y-35738095D01*
X25343809Y-35785714D01*
X25200952Y-35785714D01*
X25010476Y-35738095D01*
X24915238Y-35690476D01*
X24820000Y-35595238D01*
X24772380Y-35452380D01*
X24772380Y-35357142D01*
X24820000Y-35214285D01*
X24867619Y-35166666D01*
X25105714Y-34309523D02*
X25772380Y-34309523D01*
X24724761Y-34547619D02*
X25439047Y-34785714D01*
X25439047Y-34166666D01*
%TO.C,J2*%
X45416666Y-35702380D02*
X45416666Y-36416666D01*
X45369047Y-36559523D01*
X45273809Y-36654761D01*
X45130952Y-36702380D01*
X45035714Y-36702380D01*
X45845238Y-35797619D02*
X45892857Y-35750000D01*
X45988095Y-35702380D01*
X46226190Y-35702380D01*
X46321428Y-35750000D01*
X46369047Y-35797619D01*
X46416666Y-35892857D01*
X46416666Y-35988095D01*
X46369047Y-36130952D01*
X45797619Y-36702380D01*
X46416666Y-36702380D01*
%TO.C,C1*%
X40833333Y-42607142D02*
X40785714Y-42654761D01*
X40642857Y-42702380D01*
X40547619Y-42702380D01*
X40404761Y-42654761D01*
X40309523Y-42559523D01*
X40261904Y-42464285D01*
X40214285Y-42273809D01*
X40214285Y-42130952D01*
X40261904Y-41940476D01*
X40309523Y-41845238D01*
X40404761Y-41750000D01*
X40547619Y-41702380D01*
X40642857Y-41702380D01*
X40785714Y-41750000D01*
X40833333Y-41797619D01*
X41785714Y-42702380D02*
X41214285Y-42702380D01*
X41500000Y-42702380D02*
X41500000Y-41702380D01*
X41404761Y-41845238D01*
X41309523Y-41940476D01*
X41214285Y-41988095D01*
%TO.C,Q2*%
X36047619Y-59595238D02*
X36000000Y-59690476D01*
X35904761Y-59785714D01*
X35761904Y-59928571D01*
X35714285Y-60023809D01*
X35714285Y-60119047D01*
X35952380Y-60071428D02*
X35904761Y-60166666D01*
X35809523Y-60261904D01*
X35619047Y-60309523D01*
X35285714Y-60309523D01*
X35095238Y-60261904D01*
X35000000Y-60166666D01*
X34952380Y-60071428D01*
X34952380Y-59880952D01*
X35000000Y-59785714D01*
X35095238Y-59690476D01*
X35285714Y-59642857D01*
X35619047Y-59642857D01*
X35809523Y-59690476D01*
X35904761Y-59785714D01*
X35952380Y-59880952D01*
X35952380Y-60071428D01*
X35047619Y-59261904D02*
X35000000Y-59214285D01*
X34952380Y-59119047D01*
X34952380Y-58880952D01*
X35000000Y-58785714D01*
X35047619Y-58738095D01*
X35142857Y-58690476D01*
X35238095Y-58690476D01*
X35380952Y-58738095D01*
X35952380Y-59309523D01*
X35952380Y-58690476D01*
%TO.C,R10*%
X37702380Y-61892857D02*
X37226190Y-62226190D01*
X37702380Y-62464285D02*
X36702380Y-62464285D01*
X36702380Y-62083333D01*
X36750000Y-61988095D01*
X36797619Y-61940476D01*
X36892857Y-61892857D01*
X37035714Y-61892857D01*
X37130952Y-61940476D01*
X37178571Y-61988095D01*
X37226190Y-62083333D01*
X37226190Y-62464285D01*
X37702380Y-60940476D02*
X37702380Y-61511904D01*
X37702380Y-61226190D02*
X36702380Y-61226190D01*
X36845238Y-61321428D01*
X36940476Y-61416666D01*
X36988095Y-61511904D01*
X36702380Y-60321428D02*
X36702380Y-60226190D01*
X36750000Y-60130952D01*
X36797619Y-60083333D01*
X36892857Y-60035714D01*
X37083333Y-59988095D01*
X37321428Y-59988095D01*
X37511904Y-60035714D01*
X37607142Y-60083333D01*
X37654761Y-60130952D01*
X37702380Y-60226190D01*
X37702380Y-60321428D01*
X37654761Y-60416666D01*
X37607142Y-60464285D01*
X37511904Y-60511904D01*
X37321428Y-60559523D01*
X37083333Y-60559523D01*
X36892857Y-60511904D01*
X36797619Y-60464285D01*
X36750000Y-60416666D01*
X36702380Y-60321428D01*
%TO.C,R7*%
X59452380Y-34916666D02*
X58976190Y-35250000D01*
X59452380Y-35488095D02*
X58452380Y-35488095D01*
X58452380Y-35107142D01*
X58500000Y-35011904D01*
X58547619Y-34964285D01*
X58642857Y-34916666D01*
X58785714Y-34916666D01*
X58880952Y-34964285D01*
X58928571Y-35011904D01*
X58976190Y-35107142D01*
X58976190Y-35488095D01*
X58452380Y-34583333D02*
X58452380Y-33916666D01*
X59452380Y-34345238D01*
%TO.C,Q1*%
X36404761Y-30047619D02*
X36309523Y-30000000D01*
X36214285Y-29904761D01*
X36071428Y-29761904D01*
X35976190Y-29714285D01*
X35880952Y-29714285D01*
X35928571Y-29952380D02*
X35833333Y-29904761D01*
X35738095Y-29809523D01*
X35690476Y-29619047D01*
X35690476Y-29285714D01*
X35738095Y-29095238D01*
X35833333Y-29000000D01*
X35928571Y-28952380D01*
X36119047Y-28952380D01*
X36214285Y-29000000D01*
X36309523Y-29095238D01*
X36357142Y-29285714D01*
X36357142Y-29619047D01*
X36309523Y-29809523D01*
X36214285Y-29904761D01*
X36119047Y-29952380D01*
X35928571Y-29952380D01*
X37309523Y-29952380D02*
X36738095Y-29952380D01*
X37023809Y-29952380D02*
X37023809Y-28952380D01*
X36928571Y-29095238D01*
X36833333Y-29190476D01*
X36738095Y-29238095D01*
%TO.C,C13*%
X55607142Y-28607142D02*
X55559523Y-28654761D01*
X55416666Y-28702380D01*
X55321428Y-28702380D01*
X55178571Y-28654761D01*
X55083333Y-28559523D01*
X55035714Y-28464285D01*
X54988095Y-28273809D01*
X54988095Y-28130952D01*
X55035714Y-27940476D01*
X55083333Y-27845238D01*
X55178571Y-27750000D01*
X55321428Y-27702380D01*
X55416666Y-27702380D01*
X55559523Y-27750000D01*
X55607142Y-27797619D01*
X56559523Y-28702380D02*
X55988095Y-28702380D01*
X56273809Y-28702380D02*
X56273809Y-27702380D01*
X56178571Y-27845238D01*
X56083333Y-27940476D01*
X55988095Y-27988095D01*
X56892857Y-27702380D02*
X57511904Y-27702380D01*
X57178571Y-28083333D01*
X57321428Y-28083333D01*
X57416666Y-28130952D01*
X57464285Y-28178571D01*
X57511904Y-28273809D01*
X57511904Y-28511904D01*
X57464285Y-28607142D01*
X57416666Y-28654761D01*
X57321428Y-28702380D01*
X57035714Y-28702380D01*
X56940476Y-28654761D01*
X56892857Y-28607142D01*
%TO.C,L1*%
X41858333Y-46302380D02*
X41382142Y-46302380D01*
X41382142Y-45302380D01*
X42715476Y-46302380D02*
X42144047Y-46302380D01*
X42429761Y-46302380D02*
X42429761Y-45302380D01*
X42334523Y-45445238D01*
X42239285Y-45540476D01*
X42144047Y-45588095D01*
%TO.C,C8*%
X44583333Y-50607142D02*
X44535714Y-50654761D01*
X44392857Y-50702380D01*
X44297619Y-50702380D01*
X44154761Y-50654761D01*
X44059523Y-50559523D01*
X44011904Y-50464285D01*
X43964285Y-50273809D01*
X43964285Y-50130952D01*
X44011904Y-49940476D01*
X44059523Y-49845238D01*
X44154761Y-49750000D01*
X44297619Y-49702380D01*
X44392857Y-49702380D01*
X44535714Y-49750000D01*
X44583333Y-49797619D01*
X45154761Y-50130952D02*
X45059523Y-50083333D01*
X45011904Y-50035714D01*
X44964285Y-49940476D01*
X44964285Y-49892857D01*
X45011904Y-49797619D01*
X45059523Y-49750000D01*
X45154761Y-49702380D01*
X45345238Y-49702380D01*
X45440476Y-49750000D01*
X45488095Y-49797619D01*
X45535714Y-49892857D01*
X45535714Y-49940476D01*
X45488095Y-50035714D01*
X45440476Y-50083333D01*
X45345238Y-50130952D01*
X45154761Y-50130952D01*
X45059523Y-50178571D01*
X45011904Y-50226190D01*
X44964285Y-50321428D01*
X44964285Y-50511904D01*
X45011904Y-50607142D01*
X45059523Y-50654761D01*
X45154761Y-50702380D01*
X45345238Y-50702380D01*
X45440476Y-50654761D01*
X45488095Y-50607142D01*
X45535714Y-50511904D01*
X45535714Y-50321428D01*
X45488095Y-50226190D01*
X45440476Y-50178571D01*
X45345238Y-50130952D01*
%TO.C,R6*%
X34083333Y-58202380D02*
X33750000Y-57726190D01*
X33511904Y-58202380D02*
X33511904Y-57202380D01*
X33892857Y-57202380D01*
X33988095Y-57250000D01*
X34035714Y-57297619D01*
X34083333Y-57392857D01*
X34083333Y-57535714D01*
X34035714Y-57630952D01*
X33988095Y-57678571D01*
X33892857Y-57726190D01*
X33511904Y-57726190D01*
X34940476Y-57202380D02*
X34750000Y-57202380D01*
X34654761Y-57250000D01*
X34607142Y-57297619D01*
X34511904Y-57440476D01*
X34464285Y-57630952D01*
X34464285Y-58011904D01*
X34511904Y-58107142D01*
X34559523Y-58154761D01*
X34654761Y-58202380D01*
X34845238Y-58202380D01*
X34940476Y-58154761D01*
X34988095Y-58107142D01*
X35035714Y-58011904D01*
X35035714Y-57773809D01*
X34988095Y-57678571D01*
X34940476Y-57630952D01*
X34845238Y-57583333D01*
X34654761Y-57583333D01*
X34559523Y-57630952D01*
X34511904Y-57678571D01*
X34464285Y-57773809D01*
%TO.C,C19*%
X61357142Y-35892857D02*
X61404761Y-35940476D01*
X61452380Y-36083333D01*
X61452380Y-36178571D01*
X61404761Y-36321428D01*
X61309523Y-36416666D01*
X61214285Y-36464285D01*
X61023809Y-36511904D01*
X60880952Y-36511904D01*
X60690476Y-36464285D01*
X60595238Y-36416666D01*
X60500000Y-36321428D01*
X60452380Y-36178571D01*
X60452380Y-36083333D01*
X60500000Y-35940476D01*
X60547619Y-35892857D01*
X61452380Y-34940476D02*
X61452380Y-35511904D01*
X61452380Y-35226190D02*
X60452380Y-35226190D01*
X60595238Y-35321428D01*
X60690476Y-35416666D01*
X60738095Y-35511904D01*
X61452380Y-34464285D02*
X61452380Y-34273809D01*
X61404761Y-34178571D01*
X61357142Y-34130952D01*
X61214285Y-34035714D01*
X61023809Y-33988095D01*
X60642857Y-33988095D01*
X60547619Y-34035714D01*
X60500000Y-34083333D01*
X60452380Y-34178571D01*
X60452380Y-34369047D01*
X60500000Y-34464285D01*
X60547619Y-34511904D01*
X60642857Y-34559523D01*
X60880952Y-34559523D01*
X60976190Y-34511904D01*
X61023809Y-34464285D01*
X61071428Y-34369047D01*
X61071428Y-34178571D01*
X61023809Y-34083333D01*
X60976190Y-34035714D01*
X60880952Y-33988095D01*
%TO.C,U6*%
X75902380Y-47261904D02*
X76711904Y-47261904D01*
X76807142Y-47214285D01*
X76854761Y-47166666D01*
X76902380Y-47071428D01*
X76902380Y-46880952D01*
X76854761Y-46785714D01*
X76807142Y-46738095D01*
X76711904Y-46690476D01*
X75902380Y-46690476D01*
X75902380Y-45785714D02*
X75902380Y-45976190D01*
X75950000Y-46071428D01*
X75997619Y-46119047D01*
X76140476Y-46214285D01*
X76330952Y-46261904D01*
X76711904Y-46261904D01*
X76807142Y-46214285D01*
X76854761Y-46166666D01*
X76902380Y-46071428D01*
X76902380Y-45880952D01*
X76854761Y-45785714D01*
X76807142Y-45738095D01*
X76711904Y-45690476D01*
X76473809Y-45690476D01*
X76378571Y-45738095D01*
X76330952Y-45785714D01*
X76283333Y-45880952D01*
X76283333Y-46071428D01*
X76330952Y-46166666D01*
X76378571Y-46214285D01*
X76473809Y-46261904D01*
%TO.C,R2*%
X30202380Y-45416666D02*
X29726190Y-45750000D01*
X30202380Y-45988095D02*
X29202380Y-45988095D01*
X29202380Y-45607142D01*
X29250000Y-45511904D01*
X29297619Y-45464285D01*
X29392857Y-45416666D01*
X29535714Y-45416666D01*
X29630952Y-45464285D01*
X29678571Y-45511904D01*
X29726190Y-45607142D01*
X29726190Y-45988095D01*
X29297619Y-45035714D02*
X29250000Y-44988095D01*
X29202380Y-44892857D01*
X29202380Y-44654761D01*
X29250000Y-44559523D01*
X29297619Y-44511904D01*
X29392857Y-44464285D01*
X29488095Y-44464285D01*
X29630952Y-44511904D01*
X30202380Y-45083333D01*
X30202380Y-44464285D01*
%TO.C,C11*%
X37607142Y-58642857D02*
X37654761Y-58690476D01*
X37702380Y-58833333D01*
X37702380Y-58928571D01*
X37654761Y-59071428D01*
X37559523Y-59166666D01*
X37464285Y-59214285D01*
X37273809Y-59261904D01*
X37130952Y-59261904D01*
X36940476Y-59214285D01*
X36845238Y-59166666D01*
X36750000Y-59071428D01*
X36702380Y-58928571D01*
X36702380Y-58833333D01*
X36750000Y-58690476D01*
X36797619Y-58642857D01*
X37702380Y-57690476D02*
X37702380Y-58261904D01*
X37702380Y-57976190D02*
X36702380Y-57976190D01*
X36845238Y-58071428D01*
X36940476Y-58166666D01*
X36988095Y-58261904D01*
X37702380Y-56738095D02*
X37702380Y-57309523D01*
X37702380Y-57023809D02*
X36702380Y-57023809D01*
X36845238Y-57119047D01*
X36940476Y-57214285D01*
X36988095Y-57309523D01*
%TO.C,U2*%
X57988095Y-21202380D02*
X57988095Y-22011904D01*
X58035714Y-22107142D01*
X58083333Y-22154761D01*
X58178571Y-22202380D01*
X58369047Y-22202380D01*
X58464285Y-22154761D01*
X58511904Y-22107142D01*
X58559523Y-22011904D01*
X58559523Y-21202380D01*
X58988095Y-21297619D02*
X59035714Y-21250000D01*
X59130952Y-21202380D01*
X59369047Y-21202380D01*
X59464285Y-21250000D01*
X59511904Y-21297619D01*
X59559523Y-21392857D01*
X59559523Y-21488095D01*
X59511904Y-21630952D01*
X58940476Y-22202380D01*
X59559523Y-22202380D01*
%TO.C,BT1*%
X44964285Y-51928571D02*
X45107142Y-51976190D01*
X45154761Y-52023809D01*
X45202380Y-52119047D01*
X45202380Y-52261904D01*
X45154761Y-52357142D01*
X45107142Y-52404761D01*
X45011904Y-52452380D01*
X44630952Y-52452380D01*
X44630952Y-51452380D01*
X44964285Y-51452380D01*
X45059523Y-51500000D01*
X45107142Y-51547619D01*
X45154761Y-51642857D01*
X45154761Y-51738095D01*
X45107142Y-51833333D01*
X45059523Y-51880952D01*
X44964285Y-51928571D01*
X44630952Y-51928571D01*
X45488095Y-51452380D02*
X46059523Y-51452380D01*
X45773809Y-52452380D02*
X45773809Y-51452380D01*
X46916666Y-52452380D02*
X46345238Y-52452380D01*
X46630952Y-52452380D02*
X46630952Y-51452380D01*
X46535714Y-51595238D01*
X46440476Y-51690476D01*
X46345238Y-51738095D01*
%TO.C,TP3*%
X67512380Y-64011904D02*
X67512380Y-63440476D01*
X68512380Y-63726190D02*
X67512380Y-63726190D01*
X68512380Y-63107142D02*
X67512380Y-63107142D01*
X67512380Y-62726190D01*
X67560000Y-62630952D01*
X67607619Y-62583333D01*
X67702857Y-62535714D01*
X67845714Y-62535714D01*
X67940952Y-62583333D01*
X67988571Y-62630952D01*
X68036190Y-62726190D01*
X68036190Y-63107142D01*
X67512380Y-62202380D02*
X67512380Y-61583333D01*
X67893333Y-61916666D01*
X67893333Y-61773809D01*
X67940952Y-61678571D01*
X67988571Y-61630952D01*
X68083809Y-61583333D01*
X68321904Y-61583333D01*
X68417142Y-61630952D01*
X68464761Y-61678571D01*
X68512380Y-61773809D01*
X68512380Y-62059523D01*
X68464761Y-62154761D01*
X68417142Y-62202380D01*
%TO.C,TP2*%
X56738095Y-61512380D02*
X57309523Y-61512380D01*
X57023809Y-62512380D02*
X57023809Y-61512380D01*
X57642857Y-62512380D02*
X57642857Y-61512380D01*
X58023809Y-61512380D01*
X58119047Y-61560000D01*
X58166666Y-61607619D01*
X58214285Y-61702857D01*
X58214285Y-61845714D01*
X58166666Y-61940952D01*
X58119047Y-61988571D01*
X58023809Y-62036190D01*
X57642857Y-62036190D01*
X58595238Y-61607619D02*
X58642857Y-61560000D01*
X58738095Y-61512380D01*
X58976190Y-61512380D01*
X59071428Y-61560000D01*
X59119047Y-61607619D01*
X59166666Y-61702857D01*
X59166666Y-61798095D01*
X59119047Y-61940952D01*
X58547619Y-62512380D01*
X59166666Y-62512380D01*
%TO.C,U5*%
X48238095Y-63902380D02*
X48238095Y-64711904D01*
X48285714Y-64807142D01*
X48333333Y-64854761D01*
X48428571Y-64902380D01*
X48619047Y-64902380D01*
X48714285Y-64854761D01*
X48761904Y-64807142D01*
X48809523Y-64711904D01*
X48809523Y-63902380D01*
X49761904Y-63902380D02*
X49285714Y-63902380D01*
X49238095Y-64378571D01*
X49285714Y-64330952D01*
X49380952Y-64283333D01*
X49619047Y-64283333D01*
X49714285Y-64330952D01*
X49761904Y-64378571D01*
X49809523Y-64473809D01*
X49809523Y-64711904D01*
X49761904Y-64807142D01*
X49714285Y-64854761D01*
X49619047Y-64902380D01*
X49380952Y-64902380D01*
X49285714Y-64854761D01*
X49238095Y-64807142D01*
X52159523Y-61402380D02*
X51588095Y-61402380D01*
X51873809Y-61402380D02*
X51873809Y-60402380D01*
X51778571Y-60545238D01*
X51683333Y-60640476D01*
X51588095Y-60688095D01*
X52540476Y-60497619D02*
X52588095Y-60450000D01*
X52683333Y-60402380D01*
X52921428Y-60402380D01*
X53016666Y-60450000D01*
X53064285Y-60497619D01*
X53111904Y-60592857D01*
X53111904Y-60688095D01*
X53064285Y-60830952D01*
X52492857Y-61402380D01*
X53111904Y-61402380D01*
X45435714Y-61452380D02*
X44864285Y-61452380D01*
X45150000Y-61452380D02*
X45150000Y-60452380D01*
X45054761Y-60595238D01*
X44959523Y-60690476D01*
X44864285Y-60738095D01*
%TO.C,R1*%
X30202380Y-28666666D02*
X29726190Y-29000000D01*
X30202380Y-29238095D02*
X29202380Y-29238095D01*
X29202380Y-28857142D01*
X29250000Y-28761904D01*
X29297619Y-28714285D01*
X29392857Y-28666666D01*
X29535714Y-28666666D01*
X29630952Y-28714285D01*
X29678571Y-28761904D01*
X29726190Y-28857142D01*
X29726190Y-29238095D01*
X30202380Y-27714285D02*
X30202380Y-28285714D01*
X30202380Y-28000000D02*
X29202380Y-28000000D01*
X29345238Y-28095238D01*
X29440476Y-28190476D01*
X29488095Y-28285714D01*
%TO.C,TP1*%
X29988095Y-56952380D02*
X30559523Y-56952380D01*
X30273809Y-57952380D02*
X30273809Y-56952380D01*
X30892857Y-57952380D02*
X30892857Y-56952380D01*
X31273809Y-56952380D01*
X31369047Y-57000000D01*
X31416666Y-57047619D01*
X31464285Y-57142857D01*
X31464285Y-57285714D01*
X31416666Y-57380952D01*
X31369047Y-57428571D01*
X31273809Y-57476190D01*
X30892857Y-57476190D01*
X32416666Y-57952380D02*
X31845238Y-57952380D01*
X32130952Y-57952380D02*
X32130952Y-56952380D01*
X32035714Y-57095238D01*
X31940476Y-57190476D01*
X31845238Y-57238095D01*
%TO.C,C7*%
X36083333Y-23677142D02*
X36035714Y-23724761D01*
X35892857Y-23772380D01*
X35797619Y-23772380D01*
X35654761Y-23724761D01*
X35559523Y-23629523D01*
X35511904Y-23534285D01*
X35464285Y-23343809D01*
X35464285Y-23200952D01*
X35511904Y-23010476D01*
X35559523Y-22915238D01*
X35654761Y-22820000D01*
X35797619Y-22772380D01*
X35892857Y-22772380D01*
X36035714Y-22820000D01*
X36083333Y-22867619D01*
X36416666Y-22772380D02*
X37083333Y-22772380D01*
X36654761Y-23772380D01*
%TO.C,C22*%
X68107142Y-34357142D02*
X68059523Y-34404761D01*
X67916666Y-34452380D01*
X67821428Y-34452380D01*
X67678571Y-34404761D01*
X67583333Y-34309523D01*
X67535714Y-34214285D01*
X67488095Y-34023809D01*
X67488095Y-33880952D01*
X67535714Y-33690476D01*
X67583333Y-33595238D01*
X67678571Y-33500000D01*
X67821428Y-33452380D01*
X67916666Y-33452380D01*
X68059523Y-33500000D01*
X68107142Y-33547619D01*
X68488095Y-33547619D02*
X68535714Y-33500000D01*
X68630952Y-33452380D01*
X68869047Y-33452380D01*
X68964285Y-33500000D01*
X69011904Y-33547619D01*
X69059523Y-33642857D01*
X69059523Y-33738095D01*
X69011904Y-33880952D01*
X68440476Y-34452380D01*
X69059523Y-34452380D01*
X69440476Y-33547619D02*
X69488095Y-33500000D01*
X69583333Y-33452380D01*
X69821428Y-33452380D01*
X69916666Y-33500000D01*
X69964285Y-33547619D01*
X70011904Y-33642857D01*
X70011904Y-33738095D01*
X69964285Y-33880952D01*
X69392857Y-34452380D01*
X70011904Y-34452380D01*
%TO.C,R4*%
X44583333Y-49202380D02*
X44250000Y-48726190D01*
X44011904Y-49202380D02*
X44011904Y-48202380D01*
X44392857Y-48202380D01*
X44488095Y-48250000D01*
X44535714Y-48297619D01*
X44583333Y-48392857D01*
X44583333Y-48535714D01*
X44535714Y-48630952D01*
X44488095Y-48678571D01*
X44392857Y-48726190D01*
X44011904Y-48726190D01*
X45440476Y-48535714D02*
X45440476Y-49202380D01*
X45202380Y-48154761D02*
X44964285Y-48869047D01*
X45583333Y-48869047D01*
%TO.C,J1*%
X23916666Y-54202380D02*
X23916666Y-54916666D01*
X23869047Y-55059523D01*
X23773809Y-55154761D01*
X23630952Y-55202380D01*
X23535714Y-55202380D01*
X24916666Y-55202380D02*
X24345238Y-55202380D01*
X24630952Y-55202380D02*
X24630952Y-54202380D01*
X24535714Y-54345238D01*
X24440476Y-54440476D01*
X24345238Y-54488095D01*
%TO.C,C17*%
X48357142Y-23392857D02*
X48404761Y-23440476D01*
X48452380Y-23583333D01*
X48452380Y-23678571D01*
X48404761Y-23821428D01*
X48309523Y-23916666D01*
X48214285Y-23964285D01*
X48023809Y-24011904D01*
X47880952Y-24011904D01*
X47690476Y-23964285D01*
X47595238Y-23916666D01*
X47500000Y-23821428D01*
X47452380Y-23678571D01*
X47452380Y-23583333D01*
X47500000Y-23440476D01*
X47547619Y-23392857D01*
X48452380Y-22440476D02*
X48452380Y-23011904D01*
X48452380Y-22726190D02*
X47452380Y-22726190D01*
X47595238Y-22821428D01*
X47690476Y-22916666D01*
X47738095Y-23011904D01*
X47452380Y-22107142D02*
X47452380Y-21440476D01*
X48452380Y-21869047D01*
%TO.C,C10*%
X31857142Y-45392857D02*
X31904761Y-45440476D01*
X31952380Y-45583333D01*
X31952380Y-45678571D01*
X31904761Y-45821428D01*
X31809523Y-45916666D01*
X31714285Y-45964285D01*
X31523809Y-46011904D01*
X31380952Y-46011904D01*
X31190476Y-45964285D01*
X31095238Y-45916666D01*
X31000000Y-45821428D01*
X30952380Y-45678571D01*
X30952380Y-45583333D01*
X31000000Y-45440476D01*
X31047619Y-45392857D01*
X31952380Y-44440476D02*
X31952380Y-45011904D01*
X31952380Y-44726190D02*
X30952380Y-44726190D01*
X31095238Y-44821428D01*
X31190476Y-44916666D01*
X31238095Y-45011904D01*
X30952380Y-43821428D02*
X30952380Y-43726190D01*
X31000000Y-43630952D01*
X31047619Y-43583333D01*
X31142857Y-43535714D01*
X31333333Y-43488095D01*
X31571428Y-43488095D01*
X31761904Y-43535714D01*
X31857142Y-43583333D01*
X31904761Y-43630952D01*
X31952380Y-43726190D01*
X31952380Y-43821428D01*
X31904761Y-43916666D01*
X31857142Y-43964285D01*
X31761904Y-44011904D01*
X31571428Y-44059523D01*
X31333333Y-44059523D01*
X31142857Y-44011904D01*
X31047619Y-43964285D01*
X31000000Y-43916666D01*
X30952380Y-43821428D01*
%TO.C,U1*%
X30988095Y-33952380D02*
X30988095Y-34761904D01*
X31035714Y-34857142D01*
X31083333Y-34904761D01*
X31178571Y-34952380D01*
X31369047Y-34952380D01*
X31464285Y-34904761D01*
X31511904Y-34857142D01*
X31559523Y-34761904D01*
X31559523Y-33952380D01*
X32559523Y-34952380D02*
X31988095Y-34952380D01*
X32273809Y-34952380D02*
X32273809Y-33952380D01*
X32178571Y-34095238D01*
X32083333Y-34190476D01*
X31988095Y-34238095D01*
%TO.C,C9*%
X29333333Y-54107142D02*
X29285714Y-54154761D01*
X29142857Y-54202380D01*
X29047619Y-54202380D01*
X28904761Y-54154761D01*
X28809523Y-54059523D01*
X28761904Y-53964285D01*
X28714285Y-53773809D01*
X28714285Y-53630952D01*
X28761904Y-53440476D01*
X28809523Y-53345238D01*
X28904761Y-53250000D01*
X29047619Y-53202380D01*
X29142857Y-53202380D01*
X29285714Y-53250000D01*
X29333333Y-53297619D01*
X29809523Y-54202380D02*
X30000000Y-54202380D01*
X30095238Y-54154761D01*
X30142857Y-54107142D01*
X30238095Y-53964285D01*
X30285714Y-53773809D01*
X30285714Y-53392857D01*
X30238095Y-53297619D01*
X30190476Y-53250000D01*
X30095238Y-53202380D01*
X29904761Y-53202380D01*
X29809523Y-53250000D01*
X29761904Y-53297619D01*
X29714285Y-53392857D01*
X29714285Y-53630952D01*
X29761904Y-53726190D01*
X29809523Y-53773809D01*
X29904761Y-53821428D01*
X30095238Y-53821428D01*
X30190476Y-53773809D01*
X30238095Y-53726190D01*
X30285714Y-53630952D01*
%TO.C,C6*%
X49607142Y-20916666D02*
X49654761Y-20964285D01*
X49702380Y-21107142D01*
X49702380Y-21202380D01*
X49654761Y-21345238D01*
X49559523Y-21440476D01*
X49464285Y-21488095D01*
X49273809Y-21535714D01*
X49130952Y-21535714D01*
X48940476Y-21488095D01*
X48845238Y-21440476D01*
X48750000Y-21345238D01*
X48702380Y-21202380D01*
X48702380Y-21107142D01*
X48750000Y-20964285D01*
X48797619Y-20916666D01*
X48702380Y-20059523D02*
X48702380Y-20250000D01*
X48750000Y-20345238D01*
X48797619Y-20392857D01*
X48940476Y-20488095D01*
X49130952Y-20535714D01*
X49511904Y-20535714D01*
X49607142Y-20488095D01*
X49654761Y-20440476D01*
X49702380Y-20345238D01*
X49702380Y-20154761D01*
X49654761Y-20059523D01*
X49607142Y-20011904D01*
X49511904Y-19964285D01*
X49273809Y-19964285D01*
X49178571Y-20011904D01*
X49130952Y-20059523D01*
X49083333Y-20154761D01*
X49083333Y-20345238D01*
X49130952Y-20440476D01*
X49178571Y-20488095D01*
X49273809Y-20535714D01*
D12*
%TO.C,R12*%
X51985000Y-25522936D02*
X51985000Y-25977064D01*
X50515000Y-25522936D02*
X50515000Y-25977064D01*
%TO.C,C5*%
X52265000Y-22038748D02*
X52265000Y-22561252D01*
X53735000Y-22038748D02*
X53735000Y-22561252D01*
%TO.C,C20*%
X70238748Y-32235000D02*
X70761252Y-32235000D01*
X70238748Y-30765000D02*
X70761252Y-30765000D01*
%TO.C,C3*%
X32788748Y-40735000D02*
X33311252Y-40735000D01*
X32788748Y-39265000D02*
X33311252Y-39265000D01*
%TO.C,Q3*%
X66500000Y-57690000D02*
X64825000Y-57690000D01*
X66500000Y-60810000D02*
X65850000Y-60810000D01*
X66500000Y-60810000D02*
X67150000Y-60810000D01*
X66500000Y-57690000D02*
X67150000Y-57690000D01*
%TO.C,R8*%
X39772936Y-59735000D02*
X40227064Y-59735000D01*
X39772936Y-58265000D02*
X40227064Y-58265000D01*
%TO.C,C21*%
X71738748Y-32765000D02*
X72261252Y-32765000D01*
X71738748Y-34235000D02*
X72261252Y-34235000D01*
%TO.C,U4*%
X58250000Y-24240000D02*
X58900000Y-24240000D01*
X58250000Y-27360000D02*
X57600000Y-27360000D01*
X58250000Y-24240000D02*
X56575000Y-24240000D01*
X58250000Y-27360000D02*
X58900000Y-27360000D01*
%TO.C,C15*%
X51738748Y-56735000D02*
X52261252Y-56735000D01*
X51738748Y-55265000D02*
X52261252Y-55265000D01*
%TO.C,R11*%
X69272936Y-34765000D02*
X69727064Y-34765000D01*
X69272936Y-36235000D02*
X69727064Y-36235000D01*
%TO.C,C12*%
X55985000Y-25538748D02*
X55985000Y-26061252D01*
X54515000Y-25538748D02*
X54515000Y-26061252D01*
%TO.C,C2*%
X38238748Y-45735000D02*
X38761252Y-45735000D01*
X38238748Y-44265000D02*
X38761252Y-44265000D01*
%TO.C,C14*%
X46735000Y-26011252D02*
X46735000Y-25488748D01*
X45265000Y-26011252D02*
X45265000Y-25488748D01*
%TO.C,R13*%
X62765000Y-59022936D02*
X62765000Y-59477064D01*
X64235000Y-59022936D02*
X64235000Y-59477064D01*
%TO.C,R5*%
X30835000Y-51272936D02*
X30835000Y-51727064D01*
X32305000Y-51272936D02*
X32305000Y-51727064D01*
%TO.C,R9*%
X53477064Y-53015000D02*
X53022936Y-53015000D01*
X53477064Y-54485000D02*
X53022936Y-54485000D01*
%TO.C,U3*%
X36570000Y-51560000D02*
X34620000Y-51560000D01*
X36570000Y-46440000D02*
X33120000Y-46440000D01*
X36570000Y-46440000D02*
X38520000Y-46440000D01*
X36570000Y-51560000D02*
X38520000Y-51560000D01*
%TO.C,C16*%
X48761252Y-55265000D02*
X48238748Y-55265000D01*
X48761252Y-56735000D02*
X48238748Y-56735000D01*
%TO.C,C4*%
X27735000Y-35261252D02*
X27735000Y-34738748D01*
X26265000Y-35261252D02*
X26265000Y-34738748D01*
%TO.C,J2*%
X41150000Y-35150000D02*
X56450000Y-35150000D01*
X56450000Y-29350000D02*
X56450000Y-30690000D01*
X41150000Y-33410000D02*
X41150000Y-35150000D01*
X42640000Y-29350000D02*
X41150000Y-29350000D01*
X56450000Y-35150000D02*
X56450000Y-33410000D01*
X54960000Y-29350000D02*
X56450000Y-29350000D01*
X41150000Y-29350000D02*
X41150000Y-30690000D01*
X42640000Y-29350000D02*
X42640000Y-28150000D01*
%TO.C,C1*%
X38238748Y-42265000D02*
X38761252Y-42265000D01*
X38238748Y-43735000D02*
X38761252Y-43735000D01*
%TO.C,Q2*%
X34440000Y-56000000D02*
X34440000Y-56650000D01*
X37560000Y-56000000D02*
X37560000Y-54325000D01*
X37560000Y-56000000D02*
X37560000Y-56650000D01*
X34440000Y-56000000D02*
X34440000Y-55350000D01*
%TO.C,R10*%
X39735000Y-55772936D02*
X39735000Y-56227064D01*
X38265000Y-55772936D02*
X38265000Y-56227064D01*
%TO.C,R7*%
X59735000Y-32277064D02*
X59735000Y-31822936D01*
X58265000Y-32277064D02*
X58265000Y-31822936D01*
%TO.C,Q1*%
X34500000Y-26440000D02*
X35150000Y-26440000D01*
X34500000Y-29560000D02*
X35150000Y-29560000D01*
X34500000Y-29560000D02*
X33850000Y-29560000D01*
X34500000Y-26440000D02*
X32825000Y-26440000D01*
%TO.C,C13*%
X52515000Y-25488748D02*
X52515000Y-26011252D01*
X53985000Y-25488748D02*
X53985000Y-26011252D01*
%TO.C,L1*%
X41675000Y-49100000D02*
X42375000Y-49100000D01*
X41675000Y-46900000D02*
X42375000Y-46900000D01*
%TO.C,C8*%
X42288748Y-53235000D02*
X42811252Y-53235000D01*
X42288748Y-51765000D02*
X42811252Y-51765000D01*
%TO.C,R6*%
X34772936Y-52265000D02*
X35227064Y-52265000D01*
X34772936Y-53735000D02*
X35227064Y-53735000D01*
%TO.C,C19*%
X61735000Y-31788748D02*
X61735000Y-32311252D01*
X60265000Y-31788748D02*
X60265000Y-32311252D01*
%TO.C,U6*%
X74950000Y-37500000D02*
X74450000Y-37500000D01*
X75100000Y-37300000D02*
X75100000Y-38400000D01*
X55750000Y-55500000D02*
X55750000Y-54150000D01*
X74950000Y-55500000D02*
X74450000Y-55500000D01*
X55750000Y-37500000D02*
X55750000Y-38800000D01*
X55600000Y-37350000D02*
X56600000Y-37350000D01*
X56600000Y-37500000D02*
X55750000Y-37500000D01*
X74950000Y-55500000D02*
X74950000Y-37500000D01*
X56500000Y-55500000D02*
X55750000Y-55500000D01*
X74450000Y-55650000D02*
X75100000Y-55650000D01*
X55600000Y-55650000D02*
X55600000Y-54650000D01*
X55600000Y-37350000D02*
X55600000Y-38350000D01*
X56500000Y-55650000D02*
X55600000Y-55650000D01*
X75100000Y-55650000D02*
X75100000Y-54650000D01*
%TO.C,R2*%
X30305000Y-48227064D02*
X30305000Y-47772936D01*
X28835000Y-48227064D02*
X28835000Y-47772936D01*
%TO.C,C11*%
X38238748Y-53735000D02*
X38761252Y-53735000D01*
X38238748Y-52265000D02*
X38761252Y-52265000D01*
%TO.C,U2*%
X56000000Y-23860000D02*
X56650000Y-23860000D01*
X56000000Y-20740000D02*
X54325000Y-20740000D01*
X56000000Y-20740000D02*
X56650000Y-20740000D01*
X56000000Y-23860000D02*
X55350000Y-23860000D01*
%TO.C,BT1*%
X43030000Y-54170000D02*
X40430000Y-54170000D01*
X40430000Y-54170000D02*
X40430000Y-56830000D01*
X43030000Y-54170000D02*
X43030000Y-56830000D01*
X45630000Y-54170000D02*
X45630000Y-55500000D01*
X43030000Y-56830000D02*
X40430000Y-56830000D01*
X44300000Y-54170000D02*
X45630000Y-54170000D01*
%TO.C,TP3*%
X62940000Y-61440000D02*
X62940000Y-63560000D01*
X65000000Y-61440000D02*
X65000000Y-63560000D01*
X67060000Y-61440000D02*
X67060000Y-62500000D01*
X66000000Y-61440000D02*
X67060000Y-61440000D01*
X65000000Y-63560000D02*
X62940000Y-63560000D01*
X65000000Y-61440000D02*
X62940000Y-61440000D01*
%TO.C,TP2*%
X56940000Y-59000000D02*
X56940000Y-56940000D01*
X59060000Y-59000000D02*
X59060000Y-56940000D01*
X59060000Y-56940000D02*
X56940000Y-56940000D01*
X59060000Y-59000000D02*
X56940000Y-59000000D01*
X59060000Y-61060000D02*
X58000000Y-61060000D01*
X59060000Y-60000000D02*
X59060000Y-61060000D01*
D11*
%TO.C,U5*%
X42500000Y-67800000D02*
X42500000Y-61550000D01*
X54300000Y-57800000D02*
X53300000Y-57800000D01*
X42900000Y-68200000D02*
X54300000Y-68200000D01*
X54700000Y-67800000D02*
X54700000Y-58200000D01*
X43300000Y-60750000D02*
X43300000Y-58150000D01*
X44700000Y-57800000D02*
X43700000Y-57800000D01*
X43700000Y-57800000D02*
G75*
G03*
X43300000Y-58200000I0J-400000D01*
G01*
X42900000Y-61150000D02*
G75*
G03*
X43300000Y-60750000I0J400000D01*
G01*
X54700000Y-58200000D02*
G75*
G03*
X54300000Y-57800000I-399999J1D01*
G01*
X54300000Y-68200000D02*
G75*
G03*
X54700000Y-67800000I1J399999D01*
G01*
X42500000Y-67800000D02*
G75*
G03*
X42900000Y-68200000I400000J0D01*
G01*
X42900000Y-61150000D02*
G75*
G03*
X42500000Y-61550000I0J-400000D01*
G01*
X54200000Y-62050000D02*
G75*
G03*
X54200000Y-62050000I-500000J0D01*
G01*
X44200000Y-62050000D02*
G75*
G03*
X44200000Y-62050000I-500000J0D01*
G01*
D12*
%TO.C,R1*%
X30765000Y-27772936D02*
X30765000Y-28227064D01*
X32235000Y-27772936D02*
X32235000Y-28227064D01*
%TO.C,TP1*%
X31500000Y-56560000D02*
X31500000Y-54440000D01*
X29440000Y-56560000D02*
X29440000Y-55500000D01*
X33560000Y-56560000D02*
X33560000Y-54440000D01*
X31500000Y-54440000D02*
X33560000Y-54440000D01*
X31500000Y-56560000D02*
X33560000Y-56560000D01*
X30500000Y-56560000D02*
X29440000Y-56560000D01*
%TO.C,C7*%
X34738748Y-25735000D02*
X35261252Y-25735000D01*
X34738748Y-24265000D02*
X35261252Y-24265000D01*
%TO.C,C22*%
X72738748Y-34765000D02*
X73261252Y-34765000D01*
X72738748Y-36235000D02*
X73261252Y-36235000D01*
%TO.C,R4*%
X41772936Y-49765000D02*
X42227064Y-49765000D01*
X41772936Y-51235000D02*
X42227064Y-51235000D01*
%TO.C,J1*%
X25040000Y-53700000D02*
X23040000Y-53700000D01*
X21140000Y-53700000D02*
X19240000Y-53700000D01*
X21140000Y-44300000D02*
X19240000Y-44300000D01*
X19240000Y-44300000D02*
X19240000Y-53700000D01*
X25040000Y-44300000D02*
X23040000Y-44300000D01*
%TO.C,C17*%
X48735000Y-26011252D02*
X48735000Y-25488748D01*
X47265000Y-26011252D02*
X47265000Y-25488748D01*
%TO.C,C10*%
X32305000Y-48261252D02*
X32305000Y-47738748D01*
X30835000Y-48261252D02*
X30835000Y-47738748D01*
%TO.C,U1*%
X35410000Y-32590000D02*
X34150000Y-32590000D01*
X28590000Y-38600000D02*
X28590000Y-32590000D01*
X35410000Y-36350000D02*
X35410000Y-32590000D01*
X28590000Y-32590000D02*
X29850000Y-32590000D01*
%TO.C,C9*%
X28835000Y-51761252D02*
X28835000Y-51238748D01*
X30305000Y-51761252D02*
X30305000Y-51238748D01*
%TO.C,C6*%
X50265000Y-22038748D02*
X50265000Y-22561252D01*
X51735000Y-22038748D02*
X51735000Y-22561252D01*
%TD*%
M02*
