M48
; DRILL file {KiCad (6.0.7)} date Sun Sep 25 18:43:41 2022
; FORMAT={-:-/ absolute / inch / decimal}
; #@! TF.CreationDate,2022-09-25T18:43:41+08:00
; #@! TF.GenerationSoftware,Kicad,Pcbnew,(6.0.7)
; #@! TF.FileFunction,Plated,1,2,PTH
FMAT,2
INCH
; #@! TA.AperFunction,Plated,PTH,ViaDrill
T1C0.0197
%
G90
G05
T1
X4.2185Y-2.6752
X4.2185Y-3.0689
X4.2185Y-3.4626
X4.2185Y-3.8563
X4.2185Y-4.25
X4.2185Y-4.6437
X4.2185Y-5.0374
X4.2185Y-5.4311
X4.2185Y-5.8248
X4.2185Y-6.2185
X4.3051Y-2.7618
X4.3051Y-3.1555
X4.3051Y-3.5492
X4.3051Y-3.9429
X4.3051Y-4.3366
X4.3051Y-4.7303
X4.3051Y-5.124
X4.3051Y-5.5177
X4.3051Y-5.9114
X4.3051Y-6.3051
X4.3524Y-2.5413
X4.3524Y-2.935
X4.3524Y-3.3287
X4.3524Y-3.7224
X4.3524Y-4.1161
X4.3524Y-4.5098
X4.3524Y-4.9035
X4.3524Y-5.2972
X4.3524Y-5.6909
X4.3524Y-6.0846
X4.439Y-2.628
X4.439Y-3.0217
X4.439Y-3.4154
X4.439Y-3.8091
X4.439Y-4.2028
X4.439Y-4.5965
X4.439Y-4.9902
X4.439Y-5.3839
X4.439Y-5.7776
X4.439Y-6.1713
X4.6122Y-2.6752
X4.6122Y-3.0689
X4.6122Y-3.4626
X4.6122Y-3.8563
X4.6122Y-4.25
X4.6122Y-4.6437
X4.6122Y-5.0374
X4.6122Y-5.4311
X4.6122Y-5.8248
X4.6122Y-6.2185
X4.6988Y-2.7618
X4.6988Y-3.1555
X4.6988Y-3.5492
X4.6988Y-3.9429
X4.6988Y-4.3366
X4.6988Y-4.7303
X4.6988Y-5.124
X4.6988Y-5.5177
X4.6988Y-5.9114
X4.6988Y-6.3051
X4.7461Y-2.5413
X4.7461Y-2.935
X4.7461Y-3.3287
X4.7461Y-3.7224
X4.7461Y-4.1161
X4.7461Y-4.5098
X4.7461Y-4.9035
X4.7461Y-5.2972
X4.7461Y-5.6909
X4.7461Y-6.0846
X4.8327Y-2.628
X4.8327Y-3.0217
X4.8327Y-3.4154
X4.8327Y-3.8091
X4.8327Y-4.2028
X4.8327Y-4.5965
X4.8327Y-4.9902
X4.8327Y-5.3839
X4.8327Y-5.7776
X4.8327Y-6.1713
X5.0059Y-2.6752
X5.0059Y-3.0689
X5.0059Y-3.4626
X5.0059Y-3.8563
X5.0059Y-4.25
X5.0059Y-4.6437
X5.0059Y-5.0374
X5.0059Y-5.4311
X5.0059Y-5.8248
X5.0059Y-6.2185
X5.0925Y-2.7618
X5.0925Y-3.1555
X5.0925Y-3.5492
X5.0925Y-3.9429
X5.0925Y-4.3366
X5.0925Y-4.7303
X5.0925Y-5.124
X5.0925Y-5.5177
X5.0925Y-5.9114
X5.0925Y-6.3051
X5.1398Y-2.5413
X5.1398Y-2.935
X5.1398Y-3.3287
X5.1398Y-3.7224
X5.1398Y-4.1161
X5.1398Y-4.5098
X5.1398Y-4.9035
X5.1398Y-5.2972
X5.1398Y-5.6909
X5.1398Y-6.0846
X5.2264Y-2.628
X5.2264Y-3.0217
X5.2264Y-3.4154
X5.2264Y-3.8091
X5.2264Y-4.2028
X5.2264Y-4.5965
X5.2264Y-4.9902
X5.2264Y-5.3839
X5.2264Y-5.7776
X5.2264Y-6.1713
X5.3996Y-2.6752
X5.3996Y-3.0689
X5.3996Y-3.4626
X5.3996Y-3.8563
X5.3996Y-4.25
X5.3996Y-4.6437
X5.3996Y-5.0374
X5.3996Y-5.4311
X5.3996Y-5.8248
X5.3996Y-6.2185
X5.4862Y-2.7618
X5.4862Y-3.1555
X5.4862Y-3.5492
X5.4862Y-3.9429
X5.4862Y-4.3366
X5.4862Y-4.7303
X5.4862Y-5.124
X5.4862Y-5.5177
X5.4862Y-5.9114
X5.4862Y-6.3051
X5.5335Y-2.5413
X5.5335Y-2.935
X5.5335Y-3.3287
X5.5335Y-3.7224
X5.5335Y-4.1161
X5.5335Y-4.5098
X5.5335Y-4.9035
X5.5335Y-5.2972
X5.5335Y-5.6909
X5.5335Y-6.0846
X5.6201Y-2.628
X5.6201Y-3.0217
X5.6201Y-3.4154
X5.6201Y-3.8091
X5.6201Y-4.2028
X5.6201Y-4.5965
X5.6201Y-4.9902
X5.6201Y-5.3839
X5.6201Y-5.7776
X5.6201Y-6.1713
X5.7933Y-2.6752
X5.7933Y-3.0689
X5.7933Y-3.4626
X5.7933Y-3.8563
X5.7933Y-4.25
X5.7933Y-4.6437
X5.7933Y-5.0374
X5.7933Y-5.4311
X5.7933Y-5.8248
X5.7933Y-6.2185
X5.8799Y-2.7618
X5.8799Y-3.1555
X5.8799Y-3.5492
X5.8799Y-3.9429
X5.8799Y-4.3366
X5.8799Y-4.7303
X5.8799Y-5.124
X5.8799Y-5.5177
X5.8799Y-5.9114
X5.8799Y-6.3051
X5.9272Y-2.5413
X5.9272Y-2.935
X5.9272Y-3.3287
X5.9272Y-3.7224
X5.9272Y-4.1161
X5.9272Y-4.5098
X5.9272Y-4.9035
X5.9272Y-5.2972
X5.9272Y-5.6909
X5.9272Y-6.0846
X6.0138Y-2.628
X6.0138Y-3.0217
X6.0138Y-3.4154
X6.0138Y-3.8091
X6.0138Y-4.2028
X6.0138Y-4.5965
X6.0138Y-4.9902
X6.0138Y-5.3839
X6.0138Y-5.7776
X6.0138Y-6.1713
X6.187Y-2.6752
X6.187Y-3.0689
X6.187Y-3.4626
X6.187Y-3.8563
X6.187Y-4.25
X6.187Y-4.6437
X6.187Y-5.0374
X6.187Y-5.4311
X6.187Y-5.8248
X6.187Y-6.2185
X6.2736Y-2.7618
X6.2736Y-3.1555
X6.2736Y-3.5492
X6.2736Y-3.9429
X6.2736Y-4.3366
X6.2736Y-4.7303
X6.2736Y-5.124
X6.2736Y-5.5177
X6.2736Y-5.9114
X6.2736Y-6.3051
X6.3209Y-2.5413
X6.3209Y-2.935
X6.3209Y-3.3287
X6.3209Y-3.7224
X6.3209Y-4.1161
X6.3209Y-4.5098
X6.3209Y-4.9035
X6.3209Y-5.2972
X6.3209Y-5.6909
X6.3209Y-6.0846
X6.4075Y-2.628
X6.4075Y-3.0217
X6.4075Y-3.4154
X6.4075Y-3.8091
X6.4075Y-4.2028
X6.4075Y-4.5965
X6.4075Y-4.9902
X6.4075Y-5.3839
X6.4075Y-5.7776
X6.4075Y-6.1713
X6.5807Y-2.6752
X6.5807Y-3.0689
X6.5807Y-3.4626
X6.5807Y-3.8563
X6.5807Y-4.25
X6.5807Y-4.6437
X6.5807Y-5.0374
X6.5807Y-5.4311
X6.5807Y-5.8248
X6.5807Y-6.2185
X6.6673Y-2.7618
X6.6673Y-3.1555
X6.6673Y-3.5492
X6.6673Y-3.9429
X6.6673Y-4.3366
X6.6673Y-4.7303
X6.6673Y-5.124
X6.6673Y-5.5177
X6.6673Y-5.9114
X6.6673Y-6.3051
X6.7146Y-2.5413
X6.7146Y-2.935
X6.7146Y-3.3287
X6.7146Y-3.7224
X6.7146Y-4.1161
X6.7146Y-4.5098
X6.7146Y-4.9035
X6.7146Y-5.2972
X6.7146Y-5.6909
X6.7146Y-6.0846
X6.8012Y-2.628
X6.8012Y-3.0217
X6.8012Y-3.4154
X6.8012Y-3.8091
X6.8012Y-4.2028
X6.8012Y-4.5965
X6.8012Y-4.9902
X6.8012Y-5.3839
X6.8012Y-5.7776
X6.8012Y-6.1713
X6.9744Y-2.6752
X6.9744Y-3.0689
X6.9744Y-3.4626
X6.9744Y-3.8563
X6.9744Y-4.25
X6.9744Y-4.6437
X6.9744Y-5.0374
X6.9744Y-5.4311
X6.9744Y-5.8248
X6.9744Y-6.2185
X7.061Y-2.7618
X7.061Y-3.1555
X7.061Y-3.5492
X7.061Y-3.9429
X7.061Y-4.3366
X7.061Y-4.7303
X7.061Y-5.124
X7.061Y-5.5177
X7.061Y-5.9114
X7.061Y-6.3051
X7.1083Y-2.5413
X7.1083Y-2.935
X7.1083Y-3.3287
X7.1083Y-3.7224
X7.1083Y-4.1161
X7.1083Y-4.5098
X7.1083Y-4.9035
X7.1083Y-5.2972
X7.1083Y-5.6909
X7.1083Y-6.0846
X7.1949Y-2.628
X7.1949Y-3.0217
X7.1949Y-3.4154
X7.1949Y-3.8091
X7.1949Y-4.2028
X7.1949Y-4.5965
X7.1949Y-4.9902
X7.1949Y-5.3839
X7.1949Y-5.7776
X7.1949Y-6.1713
X7.3681Y-2.6752
X7.3681Y-3.0689
X7.3681Y-3.4626
X7.3681Y-3.8563
X7.3681Y-4.25
X7.3681Y-4.6437
X7.3681Y-5.0374
X7.3681Y-5.4311
X7.3681Y-5.8248
X7.3681Y-6.2185
X7.4547Y-2.7618
X7.4547Y-3.1555
X7.4547Y-3.5492
X7.4547Y-3.9429
X7.4547Y-4.3366
X7.4547Y-4.7303
X7.4547Y-5.124
X7.4547Y-5.5177
X7.4547Y-5.9114
X7.4547Y-6.3051
X7.502Y-2.5413
X7.502Y-2.935
X7.502Y-3.3287
X7.502Y-3.7224
X7.502Y-4.1161
X7.502Y-4.5098
X7.502Y-4.9035
X7.502Y-5.2972
X7.502Y-5.6909
X7.502Y-6.0846
X7.5886Y-2.628
X7.5886Y-3.0217
X7.5886Y-3.4154
X7.5886Y-3.8091
X7.5886Y-4.2028
X7.5886Y-4.5965
X7.5886Y-4.9902
X7.5886Y-5.3839
X7.5886Y-5.7776
X7.5886Y-6.1713
X7.7618Y-2.6752
X7.7618Y-3.0689
X7.7618Y-3.4626
X7.7618Y-3.8563
X7.7618Y-4.25
X7.7618Y-4.6437
X7.7618Y-5.0374
X7.7618Y-5.4311
X7.7618Y-5.8248
X7.7618Y-6.2185
X7.8484Y-2.7618
X7.8484Y-3.1555
X7.8484Y-3.5492
X7.8484Y-3.9429
X7.8484Y-4.3366
X7.8484Y-4.7303
X7.8484Y-5.124
X7.8484Y-5.5177
X7.8484Y-5.9114
X7.8484Y-6.3051
X7.8957Y-2.5413
X7.8957Y-2.935
X7.8957Y-3.3287
X7.8957Y-3.7224
X7.8957Y-4.1161
X7.8957Y-4.5098
X7.8957Y-4.9035
X7.8957Y-5.2972
X7.8957Y-5.6909
X7.8957Y-6.0846
X7.9823Y-2.628
X7.9823Y-3.0217
X7.9823Y-3.4154
X7.9823Y-3.8091
X7.9823Y-4.2028
X7.9823Y-4.5965
X7.9823Y-4.9902
X7.9823Y-5.3839
X7.9823Y-5.7776
X7.9823Y-6.1713
T0
M30
