%TF.GenerationSoftware,KiCad,Pcbnew,(6.0.7)*%
%TF.CreationDate,2023-02-24T04:41:47+08:00*%
%TF.ProjectId,PowerPanelization,506f7765-7250-4616-9e65-6c697a617469,rev?*%
%TF.SameCoordinates,Original*%
%TF.FileFunction,Paste,Top*%
%TF.FilePolarity,Positive*%
%FSLAX46Y46*%
G04 Gerber Fmt 4.6, Leading zero omitted, Abs format (unit mm)*
G04 Created by KiCad (PCBNEW (6.0.7)) date 2023-02-24 04:41:47*
%MOMM*%
%LPD*%
G01*
G04 APERTURE LIST*
G04 Aperture macros list*
%AMRoundRect*
0 Rectangle with rounded corners*
0 $1 Rounding radius*
0 $2 $3 $4 $5 $6 $7 $8 $9 X,Y pos of 4 corners*
0 Add a 4 corners polygon primitive as box body*
4,1,4,$2,$3,$4,$5,$6,$7,$8,$9,$2,$3,0*
0 Add four circle primitives for the rounded corners*
1,1,$1+$1,$2,$3*
1,1,$1+$1,$4,$5*
1,1,$1+$1,$6,$7*
1,1,$1+$1,$8,$9*
0 Add four rect primitives between the rounded corners*
20,1,$1+$1,$2,$3,$4,$5,0*
20,1,$1+$1,$4,$5,$6,$7,0*
20,1,$1+$1,$6,$7,$8,$9,0*
20,1,$1+$1,$8,$9,$2,$3,0*%
G04 Aperture macros list end*
%ADD10RoundRect,0.250000X-0.450000X0.262500X-0.450000X-0.262500X0.450000X-0.262500X0.450000X0.262500X0*%
%ADD11RoundRect,0.250000X-0.475000X0.250000X-0.475000X-0.250000X0.475000X-0.250000X0.475000X0.250000X0*%
%ADD12RoundRect,0.250000X0.450000X-0.262500X0.450000X0.262500X-0.450000X0.262500X-0.450000X-0.262500X0*%
%ADD13RoundRect,0.250000X-0.262500X-0.450000X0.262500X-0.450000X0.262500X0.450000X-0.262500X0.450000X0*%
%ADD14RoundRect,0.243750X-0.456250X0.243750X-0.456250X-0.243750X0.456250X-0.243750X0.456250X0.243750X0*%
%ADD15RoundRect,0.250000X0.475000X-0.250000X0.475000X0.250000X-0.475000X0.250000X-0.475000X-0.250000X0*%
%ADD16R,2.500000X2.000000*%
%ADD17RoundRect,0.250000X0.250000X0.475000X-0.250000X0.475000X-0.250000X-0.475000X0.250000X-0.475000X0*%
%ADD18RoundRect,0.250000X0.262500X0.450000X-0.262500X0.450000X-0.262500X-0.450000X0.262500X-0.450000X0*%
%ADD19RoundRect,0.250000X-0.850000X0.375000X-0.850000X-0.375000X0.850000X-0.375000X0.850000X0.375000X0*%
%ADD20R,3.000000X3.500000*%
%ADD21RoundRect,0.250000X-0.460000X0.315000X-0.460000X-0.315000X0.460000X-0.315000X0.460000X0.315000X0*%
%ADD22RoundRect,0.150000X-0.150000X0.737500X-0.150000X-0.737500X0.150000X-0.737500X0.150000X0.737500X0*%
%ADD23R,2.750000X3.050000*%
%ADD24R,1.200000X2.200000*%
%ADD25RoundRect,0.250000X-0.250000X-0.475000X0.250000X-0.475000X0.250000X0.475000X-0.250000X0.475000X0*%
%ADD26RoundRect,0.250000X0.460000X-0.315000X0.460000X0.315000X-0.460000X0.315000X-0.460000X-0.315000X0*%
%ADD27RoundRect,0.150000X0.150000X-0.737500X0.150000X0.737500X-0.150000X0.737500X-0.150000X-0.737500X0*%
%ADD28RoundRect,0.750000X-2.250000X0.750000X-2.250000X-0.750000X2.250000X-0.750000X2.250000X0.750000X0*%
%ADD29R,1.800000X2.500000*%
%ADD30RoundRect,0.250000X1.159000X-0.362500X1.159000X0.362500X-1.159000X0.362500X-1.159000X-0.362500X0*%
%ADD31RoundRect,0.051837X0.075163X-0.560663X0.075163X0.560663X-0.075163X0.560663X-0.075163X-0.560663X0*%
%ADD32RoundRect,0.246123X1.162877X-0.356877X1.162877X0.356877X-1.162877X0.356877X-1.162877X-0.356877X0*%
%ADD33R,3.050000X2.750000*%
%ADD34R,2.200000X1.200000*%
%ADD35R,1.000000X0.800000*%
%ADD36R,0.700000X1.500000*%
%ADD37R,1.200000X1.200000*%
%ADD38R,1.500000X1.600000*%
%ADD39RoundRect,0.243750X0.456250X-0.243750X0.456250X0.243750X-0.456250X0.243750X-0.456250X-0.243750X0*%
%ADD40RoundRect,0.150000X-0.150000X0.587500X-0.150000X-0.587500X0.150000X-0.587500X0.150000X0.587500X0*%
%ADD41R,2.500000X1.800000*%
%ADD42R,2.500000X2.300000*%
%ADD43O,2.031000X0.560000*%
G04 APERTURE END LIST*
D10*
%TO.C,R2*%
X107330000Y-152837500D03*
X107330000Y-154662500D03*
%TD*%
D11*
%TO.C,C20*%
X169230000Y-148100000D03*
X169230000Y-150000000D03*
%TD*%
D12*
%TO.C,R8*%
X106830000Y-134512500D03*
X106830000Y-132687500D03*
%TD*%
%TO.C,R9*%
X104830000Y-134512500D03*
X104830000Y-132687500D03*
%TD*%
D13*
%TO.C,R12*%
X160317500Y-147300000D03*
X162142500Y-147300000D03*
%TD*%
D12*
%TO.C,R14*%
X170230000Y-146550000D03*
X170230000Y-144725000D03*
%TD*%
D14*
%TO.C,D2*%
X138330000Y-132012500D03*
X138330000Y-133887500D03*
%TD*%
D15*
%TO.C,C8*%
X96830000Y-139700000D03*
X96830000Y-137800000D03*
%TD*%
D16*
%TO.C,DC2*%
X141280000Y-140700000D03*
X153280000Y-140700000D03*
X153280000Y-137200000D03*
%TD*%
D17*
%TO.C,C17*%
X164880000Y-138450000D03*
X162980000Y-138450000D03*
%TD*%
D18*
%TO.C,R16*%
X161050000Y-138460000D03*
X159225000Y-138460000D03*
%TD*%
D13*
%TO.C,R7*%
X176417500Y-137050000D03*
X178242500Y-137050000D03*
%TD*%
D19*
%TO.C,L4*%
X153430000Y-143875000D03*
X153430000Y-146025000D03*
%TD*%
D20*
%TO.C,L1*%
X136928000Y-151950000D03*
X143532000Y-151950000D03*
%TD*%
D21*
%TO.C,U3*%
X165480000Y-144230000D03*
X165480000Y-142870000D03*
X167180000Y-142870000D03*
X167180000Y-144230000D03*
D22*
X168235000Y-140987500D03*
X166965000Y-140987500D03*
X165695000Y-140987500D03*
X164425000Y-140987500D03*
X164425000Y-146112500D03*
X165695000Y-146112500D03*
X166965000Y-146112500D03*
X168235000Y-146112500D03*
%TD*%
D17*
%TO.C,C2*%
X119680000Y-143500000D03*
X117780000Y-143500000D03*
%TD*%
D11*
%TO.C,C19*%
X164430000Y-148150000D03*
X164430000Y-150050000D03*
%TD*%
D18*
%TO.C,R6*%
X102042500Y-132050000D03*
X100217500Y-132050000D03*
%TD*%
D10*
%TO.C,R10*%
X104830000Y-136775000D03*
X104830000Y-138600000D03*
%TD*%
D18*
%TO.C,R1*%
X107142500Y-150750000D03*
X105317500Y-150750000D03*
%TD*%
D23*
%TO.C,Q1*%
X111705000Y-149525000D03*
X111705000Y-146175000D03*
X114755000Y-149525000D03*
X114755000Y-146175000D03*
D24*
X110950000Y-154150000D03*
X115510000Y-154150000D03*
%TD*%
D25*
%TO.C,C4*%
X126980000Y-152275000D03*
X128880000Y-152275000D03*
%TD*%
D18*
%TO.C,R5*%
X148642500Y-146950000D03*
X146817500Y-146950000D03*
%TD*%
D20*
%TO.C,L3*%
X173332000Y-135250000D03*
X166728000Y-135250000D03*
%TD*%
D25*
%TO.C,C15*%
X175280000Y-140550000D03*
X177180000Y-140550000D03*
%TD*%
D17*
%TO.C,C7*%
X99180000Y-142050000D03*
X97280000Y-142050000D03*
%TD*%
D26*
%TO.C,U2*%
X101675000Y-137730000D03*
X99975000Y-137730000D03*
X101675000Y-136370000D03*
X99975000Y-136370000D03*
D27*
X98920000Y-139612500D03*
X100190000Y-139612500D03*
X101460000Y-139612500D03*
X102730000Y-139612500D03*
X102730000Y-134487500D03*
X101460000Y-134487500D03*
X100190000Y-134487500D03*
X98920000Y-134487500D03*
%TD*%
D28*
%TO.C,BT1*%
X153830000Y-149650000D03*
X153830000Y-153650000D03*
%TD*%
D25*
%TO.C,C21*%
X156080000Y-141550000D03*
X157980000Y-141550000D03*
%TD*%
D29*
%TO.C,D3*%
X132230000Y-153950000D03*
X132230000Y-149950000D03*
%TD*%
D17*
%TO.C,C13*%
X173130000Y-140550000D03*
X171230000Y-140550000D03*
%TD*%
%TO.C,C6*%
X98530000Y-144350000D03*
X96630000Y-144350000D03*
%TD*%
D18*
%TO.C,R15*%
X157630000Y-138450000D03*
X155805000Y-138450000D03*
%TD*%
D17*
%TO.C,C1*%
X119680000Y-145600000D03*
X117780000Y-145600000D03*
%TD*%
D23*
%TO.C,Q4*%
X173505000Y-150175000D03*
X176555000Y-153525000D03*
X176555000Y-150175000D03*
X173505000Y-153525000D03*
D24*
X177310000Y-145550000D03*
X172750000Y-145550000D03*
%TD*%
D17*
%TO.C,C14*%
X173130000Y-142850000D03*
X171230000Y-142850000D03*
%TD*%
D30*
%TO.C,R4*%
X147464000Y-154912500D03*
D31*
X149254000Y-154912500D03*
X149254000Y-148997000D03*
D32*
X147464000Y-148997000D03*
%TD*%
D25*
%TO.C,C18*%
X160280000Y-149750000D03*
X162180000Y-149750000D03*
%TD*%
D33*
%TO.C,Q3*%
X122705000Y-150725000D03*
X119355000Y-150725000D03*
X119355000Y-153775000D03*
X122705000Y-153775000D03*
D34*
X127330000Y-154530000D03*
X127330000Y-149970000D03*
%TD*%
D17*
%TO.C,C3*%
X119695000Y-147700000D03*
X117795000Y-147700000D03*
%TD*%
D25*
%TO.C,C16*%
X175280000Y-142850000D03*
X177180000Y-142850000D03*
%TD*%
%TO.C,C22*%
X155680000Y-143950000D03*
X157580000Y-143950000D03*
%TD*%
D35*
%TO.C,SW1*%
X177080000Y-131720000D03*
X177080000Y-133930000D03*
X184380000Y-133930000D03*
X184380000Y-131720000D03*
D36*
X182980000Y-134580000D03*
X179980000Y-134580000D03*
X178480000Y-134580000D03*
%TD*%
D12*
%TO.C,R13*%
X166830000Y-149962500D03*
X166830000Y-148137500D03*
%TD*%
D37*
%TO.C,RV1*%
X139430000Y-144950000D03*
D38*
X142680000Y-145950000D03*
D37*
X139430000Y-146950000D03*
%TD*%
D17*
%TO.C,C5*%
X98530000Y-146650000D03*
X96630000Y-146650000D03*
%TD*%
D39*
%TO.C,D5*%
X106930000Y-138562500D03*
X106930000Y-136687500D03*
%TD*%
D10*
%TO.C,R3*%
X140830000Y-135637500D03*
X140830000Y-137462500D03*
%TD*%
D11*
%TO.C,C12*%
X110430000Y-140550000D03*
X110430000Y-142450000D03*
%TD*%
D40*
%TO.C,Q2*%
X104180000Y-152812500D03*
X102280000Y-152812500D03*
X103230000Y-154687500D03*
%TD*%
D41*
%TO.C,D4*%
X135730000Y-145950000D03*
X131730000Y-145950000D03*
%TD*%
D42*
%TO.C,D6*%
X157780000Y-133950000D03*
X162080000Y-133950000D03*
%TD*%
D16*
%TO.C,DC1*%
X125805000Y-140700000D03*
X137805000Y-140700000D03*
X137805000Y-137200000D03*
%TD*%
D20*
%TO.C,L2*%
X101128000Y-145350000D03*
X107732000Y-145350000D03*
%TD*%
D11*
%TO.C,C11*%
X112430000Y-140550000D03*
X112430000Y-142450000D03*
%TD*%
D17*
%TO.C,C9*%
X148680000Y-144950000D03*
X146780000Y-144950000D03*
%TD*%
D14*
%TO.C,D1*%
X140780000Y-132012500D03*
X140780000Y-133887500D03*
%TD*%
D11*
%TO.C,C10*%
X96930000Y-134150000D03*
X96930000Y-136050000D03*
%TD*%
D10*
%TO.C,R11*%
X162130000Y-140837500D03*
X162130000Y-142662500D03*
%TD*%
D43*
%TO.C,U1*%
X127996000Y-148025000D03*
X127996000Y-147025000D03*
X127996000Y-146025000D03*
X127996000Y-145025000D03*
X127996000Y-144025000D03*
X122464000Y-144025000D03*
X122464000Y-145025000D03*
X122464000Y-146025000D03*
X122464000Y-147025000D03*
X122464000Y-148025000D03*
%TD*%
D25*
%TO.C,C23*%
X155680000Y-146050000D03*
X157580000Y-146050000D03*
%TD*%
D10*
%TO.C,R2*%
X107330000Y-127837500D03*
X107330000Y-129662500D03*
%TD*%
D11*
%TO.C,C20*%
X169230000Y-123100000D03*
X169230000Y-125000000D03*
%TD*%
D12*
%TO.C,R8*%
X106830000Y-109512500D03*
X106830000Y-107687500D03*
%TD*%
%TO.C,R9*%
X104830000Y-109512500D03*
X104830000Y-107687500D03*
%TD*%
D13*
%TO.C,R12*%
X160317500Y-122300000D03*
X162142500Y-122300000D03*
%TD*%
D12*
%TO.C,R14*%
X170230000Y-121550000D03*
X170230000Y-119725000D03*
%TD*%
D14*
%TO.C,D2*%
X138330000Y-107012500D03*
X138330000Y-108887500D03*
%TD*%
D15*
%TO.C,C8*%
X96830000Y-114700000D03*
X96830000Y-112800000D03*
%TD*%
D16*
%TO.C,DC2*%
X141280000Y-115700000D03*
X153280000Y-115700000D03*
X153280000Y-112200000D03*
%TD*%
D17*
%TO.C,C17*%
X164880000Y-113450000D03*
X162980000Y-113450000D03*
%TD*%
D18*
%TO.C,R16*%
X161050000Y-113460000D03*
X159225000Y-113460000D03*
%TD*%
D13*
%TO.C,R7*%
X176417500Y-112050000D03*
X178242500Y-112050000D03*
%TD*%
D19*
%TO.C,L4*%
X153430000Y-118875000D03*
X153430000Y-121025000D03*
%TD*%
D20*
%TO.C,L1*%
X136928000Y-126950000D03*
X143532000Y-126950000D03*
%TD*%
D21*
%TO.C,U3*%
X165480000Y-119230000D03*
X165480000Y-117870000D03*
X167180000Y-117870000D03*
X167180000Y-119230000D03*
D22*
X168235000Y-115987500D03*
X166965000Y-115987500D03*
X165695000Y-115987500D03*
X164425000Y-115987500D03*
X164425000Y-121112500D03*
X165695000Y-121112500D03*
X166965000Y-121112500D03*
X168235000Y-121112500D03*
%TD*%
D17*
%TO.C,C2*%
X119680000Y-118500000D03*
X117780000Y-118500000D03*
%TD*%
D11*
%TO.C,C19*%
X164430000Y-123150000D03*
X164430000Y-125050000D03*
%TD*%
D18*
%TO.C,R6*%
X102042500Y-107050000D03*
X100217500Y-107050000D03*
%TD*%
D10*
%TO.C,R10*%
X104830000Y-111775000D03*
X104830000Y-113600000D03*
%TD*%
D18*
%TO.C,R1*%
X107142500Y-125750000D03*
X105317500Y-125750000D03*
%TD*%
D23*
%TO.C,Q1*%
X111705000Y-124525000D03*
X111705000Y-121175000D03*
X114755000Y-124525000D03*
X114755000Y-121175000D03*
D24*
X110950000Y-129150000D03*
X115510000Y-129150000D03*
%TD*%
D25*
%TO.C,C4*%
X126980000Y-127275000D03*
X128880000Y-127275000D03*
%TD*%
D18*
%TO.C,R5*%
X148642500Y-121950000D03*
X146817500Y-121950000D03*
%TD*%
D20*
%TO.C,L3*%
X173332000Y-110250000D03*
X166728000Y-110250000D03*
%TD*%
D25*
%TO.C,C15*%
X175280000Y-115550000D03*
X177180000Y-115550000D03*
%TD*%
D17*
%TO.C,C7*%
X99180000Y-117050000D03*
X97280000Y-117050000D03*
%TD*%
D26*
%TO.C,U2*%
X101675000Y-112730000D03*
X99975000Y-112730000D03*
X101675000Y-111370000D03*
X99975000Y-111370000D03*
D27*
X98920000Y-114612500D03*
X100190000Y-114612500D03*
X101460000Y-114612500D03*
X102730000Y-114612500D03*
X102730000Y-109487500D03*
X101460000Y-109487500D03*
X100190000Y-109487500D03*
X98920000Y-109487500D03*
%TD*%
D28*
%TO.C,BT1*%
X153830000Y-124650000D03*
X153830000Y-128650000D03*
%TD*%
D25*
%TO.C,C21*%
X156080000Y-116550000D03*
X157980000Y-116550000D03*
%TD*%
D29*
%TO.C,D3*%
X132230000Y-128950000D03*
X132230000Y-124950000D03*
%TD*%
D17*
%TO.C,C13*%
X173130000Y-115550000D03*
X171230000Y-115550000D03*
%TD*%
%TO.C,C6*%
X98530000Y-119350000D03*
X96630000Y-119350000D03*
%TD*%
D18*
%TO.C,R15*%
X157630000Y-113450000D03*
X155805000Y-113450000D03*
%TD*%
D17*
%TO.C,C1*%
X119680000Y-120600000D03*
X117780000Y-120600000D03*
%TD*%
D23*
%TO.C,Q4*%
X173505000Y-125175000D03*
X176555000Y-128525000D03*
X176555000Y-125175000D03*
X173505000Y-128525000D03*
D24*
X177310000Y-120550000D03*
X172750000Y-120550000D03*
%TD*%
D17*
%TO.C,C14*%
X173130000Y-117850000D03*
X171230000Y-117850000D03*
%TD*%
D30*
%TO.C,R4*%
X147464000Y-129912500D03*
D31*
X149254000Y-129912500D03*
X149254000Y-123997000D03*
D32*
X147464000Y-123997000D03*
%TD*%
D25*
%TO.C,C18*%
X160280000Y-124750000D03*
X162180000Y-124750000D03*
%TD*%
D33*
%TO.C,Q3*%
X122705000Y-125725000D03*
X119355000Y-125725000D03*
X119355000Y-128775000D03*
X122705000Y-128775000D03*
D34*
X127330000Y-129530000D03*
X127330000Y-124970000D03*
%TD*%
D17*
%TO.C,C3*%
X119695000Y-122700000D03*
X117795000Y-122700000D03*
%TD*%
D25*
%TO.C,C16*%
X175280000Y-117850000D03*
X177180000Y-117850000D03*
%TD*%
%TO.C,C22*%
X155680000Y-118950000D03*
X157580000Y-118950000D03*
%TD*%
D35*
%TO.C,SW1*%
X177080000Y-106720000D03*
X177080000Y-108930000D03*
X184380000Y-108930000D03*
X184380000Y-106720000D03*
D36*
X182980000Y-109580000D03*
X179980000Y-109580000D03*
X178480000Y-109580000D03*
%TD*%
D12*
%TO.C,R13*%
X166830000Y-124962500D03*
X166830000Y-123137500D03*
%TD*%
D37*
%TO.C,RV1*%
X139430000Y-119950000D03*
D38*
X142680000Y-120950000D03*
D37*
X139430000Y-121950000D03*
%TD*%
D17*
%TO.C,C5*%
X98530000Y-121650000D03*
X96630000Y-121650000D03*
%TD*%
D39*
%TO.C,D5*%
X106930000Y-113562500D03*
X106930000Y-111687500D03*
%TD*%
D10*
%TO.C,R3*%
X140830000Y-110637500D03*
X140830000Y-112462500D03*
%TD*%
D11*
%TO.C,C12*%
X110430000Y-115550000D03*
X110430000Y-117450000D03*
%TD*%
D40*
%TO.C,Q2*%
X104180000Y-127812500D03*
X102280000Y-127812500D03*
X103230000Y-129687500D03*
%TD*%
D41*
%TO.C,D4*%
X135730000Y-120950000D03*
X131730000Y-120950000D03*
%TD*%
D42*
%TO.C,D6*%
X157780000Y-108950000D03*
X162080000Y-108950000D03*
%TD*%
D16*
%TO.C,DC1*%
X125805000Y-115700000D03*
X137805000Y-115700000D03*
X137805000Y-112200000D03*
%TD*%
D20*
%TO.C,L2*%
X101128000Y-120350000D03*
X107732000Y-120350000D03*
%TD*%
D11*
%TO.C,C11*%
X112430000Y-115550000D03*
X112430000Y-117450000D03*
%TD*%
D17*
%TO.C,C9*%
X148680000Y-119950000D03*
X146780000Y-119950000D03*
%TD*%
D14*
%TO.C,D1*%
X140780000Y-107012500D03*
X140780000Y-108887500D03*
%TD*%
D11*
%TO.C,C10*%
X96930000Y-109150000D03*
X96930000Y-111050000D03*
%TD*%
D10*
%TO.C,R11*%
X162130000Y-115837500D03*
X162130000Y-117662500D03*
%TD*%
D43*
%TO.C,U1*%
X127996000Y-123025000D03*
X127996000Y-122025000D03*
X127996000Y-121025000D03*
X127996000Y-120025000D03*
X127996000Y-119025000D03*
X122464000Y-119025000D03*
X122464000Y-120025000D03*
X122464000Y-121025000D03*
X122464000Y-122025000D03*
X122464000Y-123025000D03*
%TD*%
D25*
%TO.C,C23*%
X155680000Y-121050000D03*
X157580000Y-121050000D03*
%TD*%
D10*
%TO.C,R2*%
X107330000Y-102837500D03*
X107330000Y-104662500D03*
%TD*%
D11*
%TO.C,C20*%
X169230000Y-98100000D03*
X169230000Y-100000000D03*
%TD*%
D12*
%TO.C,R8*%
X106830000Y-84512500D03*
X106830000Y-82687500D03*
%TD*%
%TO.C,R9*%
X104830000Y-84512500D03*
X104830000Y-82687500D03*
%TD*%
D13*
%TO.C,R12*%
X160317500Y-97300000D03*
X162142500Y-97300000D03*
%TD*%
D12*
%TO.C,R14*%
X170230000Y-96550000D03*
X170230000Y-94725000D03*
%TD*%
D14*
%TO.C,D2*%
X138330000Y-82012500D03*
X138330000Y-83887500D03*
%TD*%
D15*
%TO.C,C8*%
X96830000Y-89700000D03*
X96830000Y-87800000D03*
%TD*%
D16*
%TO.C,DC2*%
X141280000Y-90700000D03*
X153280000Y-90700000D03*
X153280000Y-87200000D03*
%TD*%
D17*
%TO.C,C17*%
X164880000Y-88450000D03*
X162980000Y-88450000D03*
%TD*%
D18*
%TO.C,R16*%
X161050000Y-88460000D03*
X159225000Y-88460000D03*
%TD*%
D13*
%TO.C,R7*%
X176417500Y-87050000D03*
X178242500Y-87050000D03*
%TD*%
D19*
%TO.C,L4*%
X153430000Y-93875000D03*
X153430000Y-96025000D03*
%TD*%
D20*
%TO.C,L1*%
X136928000Y-101950000D03*
X143532000Y-101950000D03*
%TD*%
D21*
%TO.C,U3*%
X165480000Y-94230000D03*
X165480000Y-92870000D03*
X167180000Y-92870000D03*
X167180000Y-94230000D03*
D22*
X168235000Y-90987500D03*
X166965000Y-90987500D03*
X165695000Y-90987500D03*
X164425000Y-90987500D03*
X164425000Y-96112500D03*
X165695000Y-96112500D03*
X166965000Y-96112500D03*
X168235000Y-96112500D03*
%TD*%
D17*
%TO.C,C2*%
X119680000Y-93500000D03*
X117780000Y-93500000D03*
%TD*%
D11*
%TO.C,C19*%
X164430000Y-98150000D03*
X164430000Y-100050000D03*
%TD*%
D18*
%TO.C,R6*%
X102042500Y-82050000D03*
X100217500Y-82050000D03*
%TD*%
D10*
%TO.C,R10*%
X104830000Y-86775000D03*
X104830000Y-88600000D03*
%TD*%
D18*
%TO.C,R1*%
X107142500Y-100750000D03*
X105317500Y-100750000D03*
%TD*%
D23*
%TO.C,Q1*%
X111705000Y-99525000D03*
X111705000Y-96175000D03*
X114755000Y-99525000D03*
X114755000Y-96175000D03*
D24*
X110950000Y-104150000D03*
X115510000Y-104150000D03*
%TD*%
D25*
%TO.C,C4*%
X126980000Y-102275000D03*
X128880000Y-102275000D03*
%TD*%
D18*
%TO.C,R5*%
X148642500Y-96950000D03*
X146817500Y-96950000D03*
%TD*%
D20*
%TO.C,L3*%
X173332000Y-85250000D03*
X166728000Y-85250000D03*
%TD*%
D25*
%TO.C,C15*%
X175280000Y-90550000D03*
X177180000Y-90550000D03*
%TD*%
D17*
%TO.C,C7*%
X99180000Y-92050000D03*
X97280000Y-92050000D03*
%TD*%
D26*
%TO.C,U2*%
X101675000Y-87730000D03*
X99975000Y-87730000D03*
X101675000Y-86370000D03*
X99975000Y-86370000D03*
D27*
X98920000Y-89612500D03*
X100190000Y-89612500D03*
X101460000Y-89612500D03*
X102730000Y-89612500D03*
X102730000Y-84487500D03*
X101460000Y-84487500D03*
X100190000Y-84487500D03*
X98920000Y-84487500D03*
%TD*%
D28*
%TO.C,BT1*%
X153830000Y-99650000D03*
X153830000Y-103650000D03*
%TD*%
D25*
%TO.C,C21*%
X156080000Y-91550000D03*
X157980000Y-91550000D03*
%TD*%
D29*
%TO.C,D3*%
X132230000Y-103950000D03*
X132230000Y-99950000D03*
%TD*%
D17*
%TO.C,C13*%
X173130000Y-90550000D03*
X171230000Y-90550000D03*
%TD*%
%TO.C,C6*%
X98530000Y-94350000D03*
X96630000Y-94350000D03*
%TD*%
D18*
%TO.C,R15*%
X157630000Y-88450000D03*
X155805000Y-88450000D03*
%TD*%
D17*
%TO.C,C1*%
X119680000Y-95600000D03*
X117780000Y-95600000D03*
%TD*%
D23*
%TO.C,Q4*%
X173505000Y-100175000D03*
X176555000Y-103525000D03*
X176555000Y-100175000D03*
X173505000Y-103525000D03*
D24*
X177310000Y-95550000D03*
X172750000Y-95550000D03*
%TD*%
D17*
%TO.C,C14*%
X173130000Y-92850000D03*
X171230000Y-92850000D03*
%TD*%
D30*
%TO.C,R4*%
X147464000Y-104912500D03*
D31*
X149254000Y-104912500D03*
X149254000Y-98997000D03*
D32*
X147464000Y-98997000D03*
%TD*%
D25*
%TO.C,C18*%
X160280000Y-99750000D03*
X162180000Y-99750000D03*
%TD*%
D33*
%TO.C,Q3*%
X122705000Y-100725000D03*
X119355000Y-100725000D03*
X119355000Y-103775000D03*
X122705000Y-103775000D03*
D34*
X127330000Y-104530000D03*
X127330000Y-99970000D03*
%TD*%
D17*
%TO.C,C3*%
X119695000Y-97700000D03*
X117795000Y-97700000D03*
%TD*%
D25*
%TO.C,C16*%
X175280000Y-92850000D03*
X177180000Y-92850000D03*
%TD*%
%TO.C,C22*%
X155680000Y-93950000D03*
X157580000Y-93950000D03*
%TD*%
D35*
%TO.C,SW1*%
X177080000Y-81720000D03*
X177080000Y-83930000D03*
X184380000Y-83930000D03*
X184380000Y-81720000D03*
D36*
X182980000Y-84580000D03*
X179980000Y-84580000D03*
X178480000Y-84580000D03*
%TD*%
D12*
%TO.C,R13*%
X166830000Y-99962500D03*
X166830000Y-98137500D03*
%TD*%
D37*
%TO.C,RV1*%
X139430000Y-94950000D03*
D38*
X142680000Y-95950000D03*
D37*
X139430000Y-96950000D03*
%TD*%
D17*
%TO.C,C5*%
X98530000Y-96650000D03*
X96630000Y-96650000D03*
%TD*%
D39*
%TO.C,D5*%
X106930000Y-88562500D03*
X106930000Y-86687500D03*
%TD*%
D10*
%TO.C,R3*%
X140830000Y-85637500D03*
X140830000Y-87462500D03*
%TD*%
D11*
%TO.C,C12*%
X110430000Y-90550000D03*
X110430000Y-92450000D03*
%TD*%
D40*
%TO.C,Q2*%
X104180000Y-102812500D03*
X102280000Y-102812500D03*
X103230000Y-104687500D03*
%TD*%
D41*
%TO.C,D4*%
X135730000Y-95950000D03*
X131730000Y-95950000D03*
%TD*%
D42*
%TO.C,D6*%
X157780000Y-83950000D03*
X162080000Y-83950000D03*
%TD*%
D16*
%TO.C,DC1*%
X125805000Y-90700000D03*
X137805000Y-90700000D03*
X137805000Y-87200000D03*
%TD*%
D20*
%TO.C,L2*%
X101128000Y-95350000D03*
X107732000Y-95350000D03*
%TD*%
D11*
%TO.C,C11*%
X112430000Y-90550000D03*
X112430000Y-92450000D03*
%TD*%
D17*
%TO.C,C9*%
X148680000Y-94950000D03*
X146780000Y-94950000D03*
%TD*%
D14*
%TO.C,D1*%
X140780000Y-82012500D03*
X140780000Y-83887500D03*
%TD*%
D11*
%TO.C,C10*%
X96930000Y-84150000D03*
X96930000Y-86050000D03*
%TD*%
D10*
%TO.C,R11*%
X162130000Y-90837500D03*
X162130000Y-92662500D03*
%TD*%
D43*
%TO.C,U1*%
X127996000Y-98025000D03*
X127996000Y-97025000D03*
X127996000Y-96025000D03*
X127996000Y-95025000D03*
X127996000Y-94025000D03*
X122464000Y-94025000D03*
X122464000Y-95025000D03*
X122464000Y-96025000D03*
X122464000Y-97025000D03*
X122464000Y-98025000D03*
%TD*%
D25*
%TO.C,C23*%
X155680000Y-96050000D03*
X157580000Y-96050000D03*
%TD*%
D41*
%TO.C,D4*%
X135730000Y-70950000D03*
X131730000Y-70950000D03*
%TD*%
D42*
%TO.C,D6*%
X157780000Y-58950000D03*
X162080000Y-58950000D03*
%TD*%
D40*
%TO.C,Q2*%
X104180000Y-77812500D03*
X102280000Y-77812500D03*
X103230000Y-79687500D03*
%TD*%
D12*
%TO.C,R14*%
X170230000Y-71550000D03*
X170230000Y-69725000D03*
%TD*%
D28*
%TO.C,BT1*%
X153830000Y-74650000D03*
X153830000Y-78650000D03*
%TD*%
D26*
%TO.C,U2*%
X101675000Y-62730000D03*
X99975000Y-62730000D03*
X101675000Y-61370000D03*
X99975000Y-61370000D03*
D27*
X98920000Y-64612500D03*
X100190000Y-64612500D03*
X101460000Y-64612500D03*
X102730000Y-64612500D03*
X102730000Y-59487500D03*
X101460000Y-59487500D03*
X100190000Y-59487500D03*
X98920000Y-59487500D03*
%TD*%
D13*
%TO.C,R12*%
X160317500Y-72300000D03*
X162142500Y-72300000D03*
%TD*%
D12*
%TO.C,R9*%
X104830000Y-59512500D03*
X104830000Y-57687500D03*
%TD*%
%TO.C,R8*%
X106830000Y-59512500D03*
X106830000Y-57687500D03*
%TD*%
D11*
%TO.C,C20*%
X169230000Y-73100000D03*
X169230000Y-75000000D03*
%TD*%
D10*
%TO.C,R2*%
X107330000Y-77837500D03*
X107330000Y-79662500D03*
%TD*%
D17*
%TO.C,C7*%
X99180000Y-67050000D03*
X97280000Y-67050000D03*
%TD*%
D25*
%TO.C,C15*%
X175280000Y-65550000D03*
X177180000Y-65550000D03*
%TD*%
D43*
%TO.C,U1*%
X127996000Y-73025000D03*
X127996000Y-72025000D03*
X127996000Y-71025000D03*
X127996000Y-70025000D03*
X127996000Y-69025000D03*
X122464000Y-69025000D03*
X122464000Y-70025000D03*
X122464000Y-71025000D03*
X122464000Y-72025000D03*
X122464000Y-73025000D03*
%TD*%
D10*
%TO.C,R11*%
X162130000Y-65837500D03*
X162130000Y-67662500D03*
%TD*%
D16*
%TO.C,DC1*%
X125805000Y-65700000D03*
X137805000Y-65700000D03*
X137805000Y-62200000D03*
%TD*%
D11*
%TO.C,C11*%
X112430000Y-65550000D03*
X112430000Y-67450000D03*
%TD*%
%TO.C,C10*%
X96930000Y-59150000D03*
X96930000Y-61050000D03*
%TD*%
D14*
%TO.C,D1*%
X140780000Y-57012500D03*
X140780000Y-58887500D03*
%TD*%
D17*
%TO.C,C9*%
X148680000Y-69950000D03*
X146780000Y-69950000D03*
%TD*%
D25*
%TO.C,C23*%
X155680000Y-71050000D03*
X157580000Y-71050000D03*
%TD*%
D20*
%TO.C,L2*%
X101128000Y-70350000D03*
X107732000Y-70350000D03*
%TD*%
D25*
%TO.C,C22*%
X155680000Y-68950000D03*
X157580000Y-68950000D03*
%TD*%
%TO.C,C18*%
X160280000Y-74750000D03*
X162180000Y-74750000D03*
%TD*%
D39*
%TO.C,D5*%
X106930000Y-63562500D03*
X106930000Y-61687500D03*
%TD*%
D18*
%TO.C,R15*%
X157630000Y-63450000D03*
X155805000Y-63450000D03*
%TD*%
D17*
%TO.C,C6*%
X98530000Y-69350000D03*
X96630000Y-69350000D03*
%TD*%
%TO.C,C5*%
X98530000Y-71650000D03*
X96630000Y-71650000D03*
%TD*%
D11*
%TO.C,C12*%
X110430000Y-65550000D03*
X110430000Y-67450000D03*
%TD*%
D37*
%TO.C,RV1*%
X139430000Y-69950000D03*
D38*
X142680000Y-70950000D03*
D37*
X139430000Y-71950000D03*
%TD*%
D35*
%TO.C,SW1*%
X177080000Y-56720000D03*
X177080000Y-58930000D03*
X184380000Y-58930000D03*
X184380000Y-56720000D03*
D36*
X182980000Y-59580000D03*
X179980000Y-59580000D03*
X178480000Y-59580000D03*
%TD*%
D25*
%TO.C,C16*%
X175280000Y-67850000D03*
X177180000Y-67850000D03*
%TD*%
D17*
%TO.C,C3*%
X119695000Y-72700000D03*
X117795000Y-72700000D03*
%TD*%
%TO.C,C14*%
X173130000Y-67850000D03*
X171230000Y-67850000D03*
%TD*%
D10*
%TO.C,R3*%
X140830000Y-60637500D03*
X140830000Y-62462500D03*
%TD*%
D12*
%TO.C,R13*%
X166830000Y-74962500D03*
X166830000Y-73137500D03*
%TD*%
D17*
%TO.C,C13*%
X173130000Y-65550000D03*
X171230000Y-65550000D03*
%TD*%
D33*
%TO.C,Q3*%
X122705000Y-75725000D03*
X119355000Y-75725000D03*
X119355000Y-78775000D03*
X122705000Y-78775000D03*
D34*
X127330000Y-79530000D03*
X127330000Y-74970000D03*
%TD*%
D29*
%TO.C,D3*%
X132230000Y-78950000D03*
X132230000Y-74950000D03*
%TD*%
D25*
%TO.C,C21*%
X156080000Y-66550000D03*
X157980000Y-66550000D03*
%TD*%
D30*
%TO.C,R4*%
X147464000Y-79912500D03*
D31*
X149254000Y-79912500D03*
X149254000Y-73997000D03*
D32*
X147464000Y-73997000D03*
%TD*%
D23*
%TO.C,Q4*%
X173505000Y-75175000D03*
X176555000Y-78525000D03*
X176555000Y-75175000D03*
X173505000Y-78525000D03*
D24*
X177310000Y-70550000D03*
X172750000Y-70550000D03*
%TD*%
D17*
%TO.C,C1*%
X119680000Y-70600000D03*
X117780000Y-70600000D03*
%TD*%
%TO.C,C17*%
X164880000Y-63450000D03*
X162980000Y-63450000D03*
%TD*%
D20*
%TO.C,L3*%
X173332000Y-60250000D03*
X166728000Y-60250000D03*
%TD*%
D18*
%TO.C,R16*%
X161050000Y-63460000D03*
X159225000Y-63460000D03*
%TD*%
D13*
%TO.C,R7*%
X176417500Y-62050000D03*
X178242500Y-62050000D03*
%TD*%
D18*
%TO.C,R5*%
X148642500Y-71950000D03*
X146817500Y-71950000D03*
%TD*%
D11*
%TO.C,C19*%
X164430000Y-73150000D03*
X164430000Y-75050000D03*
%TD*%
D14*
%TO.C,D2*%
X138330000Y-57012500D03*
X138330000Y-58887500D03*
%TD*%
D20*
%TO.C,L1*%
X136928000Y-76950000D03*
X143532000Y-76950000D03*
%TD*%
D18*
%TO.C,R6*%
X102042500Y-57050000D03*
X100217500Y-57050000D03*
%TD*%
D17*
%TO.C,C2*%
X119680000Y-68500000D03*
X117780000Y-68500000D03*
%TD*%
D23*
%TO.C,Q1*%
X111705000Y-74525000D03*
X111705000Y-71175000D03*
X114755000Y-74525000D03*
X114755000Y-71175000D03*
D24*
X110950000Y-79150000D03*
X115510000Y-79150000D03*
%TD*%
D25*
%TO.C,C4*%
X126980000Y-77275000D03*
X128880000Y-77275000D03*
%TD*%
D18*
%TO.C,R1*%
X107142500Y-75750000D03*
X105317500Y-75750000D03*
%TD*%
D16*
%TO.C,DC2*%
X141280000Y-65700000D03*
X153280000Y-65700000D03*
X153280000Y-62200000D03*
%TD*%
D10*
%TO.C,R10*%
X104830000Y-61775000D03*
X104830000Y-63600000D03*
%TD*%
D21*
%TO.C,U3*%
X165480000Y-69230000D03*
X165480000Y-67870000D03*
X167180000Y-67870000D03*
X167180000Y-69230000D03*
D22*
X168235000Y-65987500D03*
X166965000Y-65987500D03*
X165695000Y-65987500D03*
X164425000Y-65987500D03*
X164425000Y-71112500D03*
X165695000Y-71112500D03*
X166965000Y-71112500D03*
X168235000Y-71112500D03*
%TD*%
D15*
%TO.C,C8*%
X96830000Y-64700000D03*
X96830000Y-62800000D03*
%TD*%
D19*
%TO.C,L4*%
X153430000Y-68875000D03*
X153430000Y-71025000D03*
%TD*%
M02*
