M48
; DRILL file {KiCad (6.0.7)} date Fri Feb 24 04:41:49 2023
; FORMAT={-:-/ absolute / inch / decimal}
; #@! TF.CreationDate,2023-02-24T04:41:49+08:00
; #@! TF.GenerationSoftware,Kicad,Pcbnew,(6.0.7)
; #@! TF.FileFunction,NonPlated,1,2,NPTH
FMAT,2
INCH
; #@! TA.AperFunction,NonPlated,NPTH,ComponentDrill
T1C0.0354
; #@! TA.AperFunction,NonPlated,NPTH,ComponentDrill
T2C0.0906
%
G90
G05
T1
X7.0563Y-2.2764
X7.0563Y-3.2606
X7.0563Y-4.2449
X7.0563Y-5.2291
X7.1744Y-2.2764
X7.1744Y-3.2606
X7.1744Y-4.2449
X7.1744Y-5.2291
T2
X5.1467Y-2.3346
X5.1467Y-3.3189
X5.1467Y-4.3031
X5.1467Y-5.2874
X5.3329Y-2.2913
X5.3329Y-3.2756
X5.3329Y-4.2598
X5.3329Y-5.2441
X5.7559Y-2.3346
X5.7559Y-3.3189
X5.7559Y-4.3031
X5.7559Y-5.2874
X5.9421Y-2.2913
X5.9421Y-3.2756
X5.9421Y-4.2598
X5.9421Y-5.2441
T0
M30
