M48
; DRILL file {KiCad (6.0.7)} date Fri Feb 24 04:41:49 2023
; FORMAT={-:-/ absolute / inch / decimal}
; #@! TF.CreationDate,2023-02-24T04:41:49+08:00
; #@! TF.GenerationSoftware,Kicad,Pcbnew,(6.0.7)
; #@! TF.FileFunction,Plated,1,2,PTH
FMAT,2
INCH
; #@! TA.AperFunction,Plated,PTH,ViaDrill
T1C0.0079
; #@! TA.AperFunction,Plated,PTH,ComponentDrill
T2C0.0079
; #@! TA.AperFunction,Plated,PTH,ViaDrill
T3C0.0118
; #@! TA.AperFunction,Plated,PTH,ViaDrill
T4C0.0157
; #@! TA.AperFunction,Plated,PTH,ViaDrill
T5C0.0197
; #@! TA.AperFunction,Plated,PTH,ViaDrill
T6C0.0315
; #@! TA.AperFunction,Plated,PTH,ComponentDrill
T7C0.0787
; #@! TA.AperFunction,Plated,PTH,ComponentDrill
T8C0.1181
%
G90
G05
T1
X4.0169Y-2.248
X4.0169Y-3.2323
X4.0169Y-4.2165
X4.0169Y-5.2008
X4.1464Y-2.9823
X4.1464Y-3.9665
X4.1464Y-4.9508
X4.1464Y-5.935
X4.7925Y-2.7559
X4.7925Y-2.7953
X4.7925Y-3.7402
X4.7925Y-3.7795
X4.7925Y-4.7244
X4.7925Y-4.7638
X4.7925Y-5.7087
X4.7925Y-5.748
X5.4264Y-2.5886
X5.4264Y-3.5728
X5.4264Y-4.5571
X5.4264Y-5.5413
X5.8713Y-2.9508
X5.8713Y-3.935
X5.8713Y-4.9193
X5.8713Y-5.9035
X5.887Y-3.1063
X5.887Y-4.0906
X5.887Y-5.0748
X5.887Y-6.0591
X6.0406Y-2.5886
X6.0406Y-3.5728
X6.0406Y-4.5571
X6.0406Y-5.5413
T2
X3.8927Y-2.4173
X3.8927Y-2.4685
X3.8927Y-3.4016
X3.8927Y-3.4528
X3.8927Y-4.3858
X3.8927Y-4.437
X3.8927Y-5.3701
X3.8927Y-5.4213
X3.9439Y-2.4173
X3.9439Y-2.4685
X3.9439Y-3.4016
X3.9439Y-3.4528
X3.9439Y-4.3858
X3.9439Y-4.437
X3.9439Y-5.3701
X3.9439Y-5.4213
X3.9951Y-2.4173
X3.9951Y-2.4685
X3.9951Y-3.4016
X3.9951Y-3.4528
X3.9951Y-4.3858
X3.9951Y-4.437
X3.9951Y-5.3701
X3.9951Y-5.4213
X4.0463Y-2.4173
X4.0463Y-2.4685
X4.0463Y-3.4016
X4.0463Y-3.4528
X4.0463Y-4.3858
X4.0463Y-4.437
X4.0463Y-5.3701
X4.0463Y-5.4213
X6.4717Y-2.6732
X6.4717Y-2.7244
X6.4717Y-3.6575
X6.4717Y-3.7087
X6.4717Y-4.6417
X6.4717Y-4.6929
X6.4717Y-5.626
X6.4717Y-5.6772
X6.5228Y-2.6732
X6.5228Y-2.7244
X6.5228Y-3.6575
X6.5228Y-3.7087
X6.5228Y-4.6417
X6.5228Y-4.6929
X6.5228Y-5.626
X6.5228Y-5.6772
X6.574Y-2.6732
X6.574Y-2.7244
X6.574Y-3.6575
X6.574Y-3.7087
X6.574Y-4.6417
X6.574Y-4.6929
X6.574Y-5.626
X6.574Y-5.6772
X6.6252Y-2.6732
X6.6252Y-2.7244
X6.6252Y-3.6575
X6.6252Y-3.7087
X6.6252Y-4.6417
X6.6252Y-4.6929
X6.6252Y-5.626
X6.6252Y-5.6772
T3
X4.0287Y-3.0492
X4.0287Y-4.0335
X4.0287Y-5.0177
X4.0287Y-6.002
X4.7925Y-2.7185
X4.7925Y-3.7028
X4.7925Y-4.687
X4.7925Y-5.6713
X4.8772Y-3.0394
X4.8772Y-4.0236
X4.8772Y-5.0079
X4.8772Y-5.9921
X4.9953Y-3.0413
X4.9953Y-4.0256
X4.9953Y-5.0098
X4.9953Y-5.9941
X5.0406Y-2.8366
X5.0406Y-2.876
X5.0406Y-3.8209
X5.0406Y-3.8602
X5.0406Y-4.8051
X5.0406Y-4.8445
X5.0406Y-5.7894
X5.0406Y-5.8287
X5.074Y-3.0413
X5.074Y-4.0256
X5.074Y-5.0098
X5.074Y-5.9941
X5.4894Y-2.7539
X5.4894Y-3.7382
X5.4894Y-4.7224
X5.4894Y-5.7067
X6.2374Y-2.5
X6.2374Y-3.4843
X6.2374Y-4.4685
X6.2374Y-5.4528
X6.3043Y-2.7165
X6.3043Y-3.7008
X6.3043Y-4.685
X6.3043Y-5.6693
X6.887Y-2.9134
X6.887Y-3.8976
X6.887Y-4.8819
X6.887Y-5.8661
X6.9461Y-2.4449
X6.9461Y-3.4291
X6.9461Y-4.4134
X6.9461Y-5.3976
T4
X3.8122Y-2.4724
X3.8122Y-3.4567
X3.8122Y-4.4409
X3.8122Y-5.4252
X3.8161Y-2.4035
X3.8161Y-3.3878
X3.8161Y-4.372
X3.8161Y-5.3563
X3.8201Y-2.7323
X3.8201Y-2.8228
X3.8201Y-3.7165
X3.8201Y-3.8071
X3.8201Y-4.7008
X3.8201Y-4.7913
X3.8201Y-5.685
X3.8201Y-5.7756
X3.828Y-2.6398
X3.828Y-3.624
X3.828Y-4.6083
X3.828Y-5.5925
X3.9945Y-2.5657
X3.9945Y-3.55
X3.9945Y-4.5343
X3.9945Y-5.5185
X4.0445Y-2.5689
X4.0445Y-3.5531
X4.0445Y-4.5374
X4.0445Y-5.5217
X4.1272Y-2.3445
X4.1272Y-3.3287
X4.1272Y-4.313
X4.1272Y-5.2972
X4.2098Y-2.502
X4.2098Y-3.4862
X4.2098Y-4.4705
X4.2098Y-5.4547
X4.3476Y-2.6555
X4.3476Y-3.6398
X4.3476Y-4.624
X4.3476Y-5.6083
X4.4264Y-2.6555
X4.4264Y-3.6398
X4.4264Y-4.624
X4.4264Y-5.6083
X4.635Y-2.6969
X4.635Y-2.8622
X4.635Y-3.6811
X4.635Y-3.8465
X4.635Y-4.6654
X4.635Y-4.8307
X4.635Y-5.6496
X4.635Y-5.815
X4.639Y-2.7795
X4.639Y-3.7638
X4.639Y-4.748
X4.639Y-5.7323
X5.7768Y-2.752
X5.7768Y-3.7362
X5.7768Y-4.7205
X5.7768Y-5.7047
X6.1449Y-2.622
X6.1449Y-3.6063
X6.1449Y-4.5906
X6.1449Y-5.5748
X6.2039Y-2.7992
X6.2039Y-3.7835
X6.2039Y-4.7677
X6.2039Y-5.752
X6.2059Y-2.7146
X6.2059Y-3.6988
X6.2059Y-4.6831
X6.2059Y-5.6673
X6.2197Y-2.6201
X6.2197Y-3.6043
X6.2197Y-4.5886
X6.2197Y-5.5728
X6.3398Y-2.4961
X6.3398Y-3.4803
X6.3398Y-4.4646
X6.3398Y-5.4488
X6.3831Y-2.6634
X6.3831Y-3.6476
X6.3831Y-4.6319
X6.3831Y-5.6161
X6.385Y-2.9429
X6.385Y-3.9272
X6.385Y-4.9114
X6.385Y-5.8957
X6.4165Y-2.4961
X6.4165Y-3.4803
X6.4165Y-4.4646
X6.4165Y-5.4488
X6.4708Y-2.5953
X6.4708Y-3.5796
X6.4708Y-4.5638
X6.4708Y-5.5481
X6.4736Y-2.9547
X6.4736Y-3.939
X6.4736Y-4.9232
X6.4736Y-5.9075
X6.5681Y-2.9508
X6.5681Y-3.935
X6.5681Y-4.9193
X6.5681Y-5.9035
X6.6626Y-2.9508
X6.6626Y-3.935
X6.6626Y-4.9193
X6.6626Y-5.9035
X6.7039Y-2.7441
X6.7039Y-3.7283
X6.7039Y-4.7126
X6.7039Y-5.6969
X6.7413Y-2.5807
X6.7413Y-2.6693
X6.7413Y-3.565
X6.7413Y-3.6535
X6.7413Y-4.5492
X6.7413Y-4.6378
X6.7413Y-5.5335
X6.7413Y-5.622
X6.8142Y-2.6732
X6.8142Y-3.6575
X6.8142Y-4.6417
X6.8142Y-5.626
X6.9756Y-2.5807
X6.9756Y-2.6693
X6.9756Y-3.565
X6.9756Y-3.6535
X6.9756Y-4.5492
X6.9756Y-4.6378
X6.9756Y-5.5335
X6.9756Y-5.622
X7.2059Y-2.3583
X7.2059Y-3.3425
X7.2059Y-4.3268
X7.2059Y-5.311
T5
X5.3969Y-2.4665
X5.3969Y-3.4508
X5.3969Y-4.435
X5.3969Y-5.4193
X5.452Y-2.4331
X5.452Y-3.4173
X5.452Y-4.4016
X5.452Y-5.3858
X5.4894Y-2.8327
X5.4894Y-3.8169
X5.4894Y-4.8012
X5.4894Y-5.7854
X5.9717Y-3.065
X5.9717Y-3.124
X5.9717Y-4.0492
X5.9717Y-4.1083
X5.9717Y-5.0335
X5.9717Y-5.0925
X5.9717Y-6.0177
X5.9717Y-6.0768
X6.0071Y-2.4665
X6.0071Y-3.4508
X6.0071Y-4.435
X6.0071Y-5.4193
X6.0504Y-3.065
X6.0504Y-3.124
X6.0504Y-4.0492
X6.0504Y-4.1083
X6.0504Y-5.0335
X6.0504Y-5.0925
X6.0504Y-6.0177
X6.0504Y-6.0768
X6.0602Y-2.4331
X6.0602Y-3.4173
X6.0602Y-4.4016
X6.0602Y-5.3858
X6.1291Y-3.065
X6.1291Y-3.124
X6.1291Y-4.0492
X6.1291Y-4.1083
X6.1291Y-5.0335
X6.1291Y-5.0925
X6.1291Y-6.0177
X6.1291Y-6.0768
T6
X5.1823Y-2.7933
X5.1823Y-3.7776
X5.1823Y-4.7618
X5.1823Y-5.7461
T7
G00X4.3815Y-2.2815
M15
G01X4.3815Y-2.4783
M16
G05
G00X4.3815Y-3.2657
M15
G01X4.3815Y-3.4626
M16
G05
G00X4.3815Y-4.25
M15
G01X4.3815Y-4.4469
M16
G05
G00X4.3815Y-5.2343
M15
G01X4.3815Y-5.4311
M16
G05
G00X4.5374Y-2.2815
M15
G01X4.5374Y-2.4783
M16
G05
G00X4.5374Y-3.2657
M15
G01X4.5374Y-3.4626
M16
G05
G00X4.5374Y-4.25
M15
G01X4.5374Y-4.4469
M16
G05
G00X4.5374Y-5.2343
M15
G01X4.5374Y-5.4311
M16
G05
G00X4.6933Y-2.2815
M15
G01X4.6933Y-2.4783
M16
G05
G00X4.6933Y-3.2657
M15
G01X4.6933Y-3.4626
M16
G05
G00X4.6933Y-4.25
M15
G01X4.6933Y-4.4469
M16
G05
G00X4.6933Y-5.2343
M15
G01X4.6933Y-5.4311
M16
G05
G00X4.8492Y-2.2815
M15
G01X4.8492Y-2.4783
M16
G05
G00X4.8492Y-3.2657
M15
G01X4.8492Y-3.4626
M16
G05
G00X4.8492Y-4.25
M15
G01X4.8492Y-4.4469
M16
G05
G00X4.8492Y-5.2343
M15
G01X4.8492Y-5.4311
M16
G05
T8
G00X7.1547Y-2.5531
M15
G01X7.1547Y-3.0256
M16
G05
G00X7.1547Y-3.5374
M15
G01X7.1547Y-4.0098
M16
G05
G00X7.1547Y-4.5217
M15
G01X7.1547Y-4.9941
M16
G05
G00X7.1547Y-5.5059
M15
G01X7.1547Y-5.9783
M16
G05
T0
M30
