%TF.GenerationSoftware,KiCad,Pcbnew,(6.0.7)*%
%TF.CreationDate,2023-02-24T04:41:47+08:00*%
%TF.ProjectId,PowerPanelization,506f7765-7250-4616-9e65-6c697a617469,rev?*%
%TF.SameCoordinates,Original*%
%TF.FileFunction,Soldermask,Bot*%
%TF.FilePolarity,Negative*%
%FSLAX46Y46*%
G04 Gerber Fmt 4.6, Leading zero omitted, Abs format (unit mm)*
G04 Created by KiCad (PCBNEW (6.0.7)) date 2023-02-24 04:41:47*
%MOMM*%
%LPD*%
G01*
G04 APERTURE LIST*
%ADD10C,2.300000*%
%ADD11O,3.000000X8.000000*%
%ADD12O,5.000000X18.000000*%
%ADD13C,0.900000*%
G04 APERTURE END LIST*
D10*
%TO.C,DC2*%
X146200000Y-134300000D03*
X150930000Y-133200000D03*
%TD*%
D11*
%TO.C,J2*%
X111290000Y-135450000D03*
X115250000Y-135450000D03*
X119210000Y-135450000D03*
X123170000Y-135450000D03*
%TD*%
D12*
%TO.C,J1*%
X181730000Y-145850000D03*
%TD*%
D13*
%TO.C,SW1*%
X182230000Y-132820000D03*
X179230000Y-132820000D03*
%TD*%
D10*
%TO.C,DC1*%
X130725000Y-134300000D03*
X135455000Y-133200000D03*
%TD*%
%TO.C,DC2*%
X146200000Y-109300000D03*
X150930000Y-108200000D03*
%TD*%
D11*
%TO.C,J2*%
X111290000Y-110450000D03*
X115250000Y-110450000D03*
X119210000Y-110450000D03*
X123170000Y-110450000D03*
%TD*%
D12*
%TO.C,J1*%
X181730000Y-120850000D03*
%TD*%
D13*
%TO.C,SW1*%
X182230000Y-107820000D03*
X179230000Y-107820000D03*
%TD*%
D10*
%TO.C,DC1*%
X130725000Y-109300000D03*
X135455000Y-108200000D03*
%TD*%
%TO.C,DC2*%
X146200000Y-84300000D03*
X150930000Y-83200000D03*
%TD*%
D11*
%TO.C,J2*%
X111290000Y-85450000D03*
X115250000Y-85450000D03*
X119210000Y-85450000D03*
X123170000Y-85450000D03*
%TD*%
D12*
%TO.C,J1*%
X181730000Y-95850000D03*
%TD*%
D13*
%TO.C,SW1*%
X182230000Y-82820000D03*
X179230000Y-82820000D03*
%TD*%
D10*
%TO.C,DC1*%
X130725000Y-84300000D03*
X135455000Y-83200000D03*
%TD*%
D11*
%TO.C,J2*%
X111290000Y-60450000D03*
X115250000Y-60450000D03*
X119210000Y-60450000D03*
X123170000Y-60450000D03*
%TD*%
D10*
%TO.C,DC1*%
X130725000Y-59300000D03*
X135455000Y-58200000D03*
%TD*%
D13*
%TO.C,SW1*%
X182230000Y-57820000D03*
X179230000Y-57820000D03*
%TD*%
D12*
%TO.C,J1*%
X181730000Y-70850000D03*
%TD*%
D10*
%TO.C,DC2*%
X146200000Y-59300000D03*
X150930000Y-58200000D03*
%TD*%
M02*
