M48
; DRILL file {KiCad (6.0.7)} date Sun Feb 26 08:18:59 2023
; FORMAT={-:-/ absolute / inch / decimal}
; #@! TF.CreationDate,2023-02-26T08:18:59+08:00
; #@! TF.GenerationSoftware,Kicad,Pcbnew,(6.0.7)
; #@! TF.FileFunction,Plated,1,2,PTH
FMAT,2
INCH
; #@! TA.AperFunction,Plated,PTH,ViaDrill
T1C0.0079
; #@! TA.AperFunction,Plated,PTH,ViaDrill
T2C0.0118
; #@! TA.AperFunction,Plated,PTH,ViaDrill
T3C0.0197
; #@! TA.AperFunction,Plated,PTH,ComponentDrill
T4C0.0236
; #@! TA.AperFunction,Plated,PTH,ComponentDrill
T5C0.0315
%
G90
G05
T1
X4.9114Y-2.5411
X4.9114Y-4.0766
X4.99Y-2.5884
X4.99Y-4.1238
X5.03Y-2.5
X5.03Y-4.0354
X5.1673Y-2.5411
X5.1673Y-4.0766
X5.22Y-3.545
X5.22Y-3.595
X5.22Y-5.0804
X5.22Y-5.1304
X6.025Y-3.655
X6.025Y-5.1904
X6.05Y-3.39
X6.05Y-4.9254
X6.08Y-3.655
X6.08Y-5.1904
X6.1Y-3.39
X6.1Y-4.9254
X6.105Y-3.655
X6.105Y-5.1904
X6.128Y-3.39
X6.128Y-4.9254
X6.155Y-3.655
X6.155Y-5.1904
X6.18Y-3.39
X6.18Y-3.655
X6.18Y-4.9254
X6.18Y-5.1904
X6.6043Y-2.5411
X6.6043Y-4.0766
X6.6829Y-2.5884
X6.6829Y-4.1238
X6.7229Y-2.5
X6.7229Y-4.0354
X6.8602Y-2.5411
X6.8602Y-4.0766
X6.9129Y-3.545
X6.9129Y-3.595
X6.9129Y-5.0804
X6.9129Y-5.1304
X7.7179Y-3.655
X7.7179Y-5.1904
X7.7429Y-3.39
X7.7429Y-4.9254
X7.7729Y-3.655
X7.7729Y-5.1904
X7.7929Y-3.39
X7.7929Y-4.9254
X7.7979Y-3.655
X7.7979Y-5.1904
X7.8209Y-3.39
X7.8209Y-4.9254
X7.8479Y-3.655
X7.8479Y-5.1904
X7.8729Y-3.39
X7.8729Y-3.655
X7.8729Y-4.9254
X7.8729Y-5.1904
T2
X4.645Y-2.74
X4.645Y-3.05
X4.645Y-3.62
X4.645Y-4.2754
X4.645Y-4.5854
X4.645Y-5.1554
X4.82Y-2.76
X4.82Y-2.955
X4.82Y-3.56
X4.82Y-3.66
X4.82Y-4.2954
X4.82Y-4.4904
X4.82Y-5.0954
X4.82Y-5.1954
X4.8994Y-2.6356
X4.8994Y-4.171
X5.02Y-2.76
X5.02Y-3.66
X5.02Y-4.2954
X5.02Y-5.1954
X5.215Y-2.815
X5.215Y-4.3504
X5.22Y-2.735
X5.22Y-2.945
X5.22Y-4.2704
X5.22Y-4.4804
X5.28Y-2.735
X5.28Y-4.2704
X5.3691Y-2.2819
X5.3691Y-3.8174
X5.4227Y-2.7323
X5.4227Y-4.2677
X5.44Y-3.655
X5.44Y-5.1904
X5.4499Y-3.195
X5.4499Y-3.2501
X5.4499Y-3.3052
X5.4499Y-4.7304
X5.4499Y-4.7856
X5.4499Y-4.8407
X5.485Y-2.38
X5.485Y-3.9154
X5.49Y-3.655
X5.49Y-5.1904
X5.5Y-2.735
X5.5Y-4.2704
X5.505Y-3.195
X5.505Y-3.2501
X5.505Y-3.3052
X5.505Y-4.7304
X5.505Y-4.7856
X5.505Y-4.8407
X5.5118Y-2.2835
X5.5118Y-3.8189
X5.54Y-3.655
X5.54Y-5.1904
X5.5601Y-3.195
X5.5601Y-3.2501
X5.5601Y-3.3052
X5.5601Y-4.7304
X5.5601Y-4.7856
X5.5601Y-4.8407
X5.57Y-2.41
X5.57Y-3.9454
X5.59Y-3.655
X5.59Y-5.1904
X5.595Y-2.81
X5.595Y-4.3454
X5.79Y-3.655
X5.79Y-5.1904
X5.91Y-2.945
X5.91Y-3.655
X5.91Y-4.4804
X5.91Y-5.1904
X6.01Y-2.84
X6.01Y-4.3754
X6.12Y-3.31
X6.12Y-4.8454
X6.14Y-2.84
X6.14Y-4.3754
X6.195Y-2.795
X6.195Y-4.3304
X6.2Y-2.415
X6.2Y-3.9504
X6.3379Y-2.74
X6.3379Y-3.05
X6.3379Y-3.62
X6.3379Y-4.2754
X6.3379Y-4.5854
X6.3379Y-5.1554
X6.5129Y-2.76
X6.5129Y-2.955
X6.5129Y-3.56
X6.5129Y-3.66
X6.5129Y-4.2954
X6.5129Y-4.4904
X6.5129Y-5.0954
X6.5129Y-5.1954
X6.5923Y-2.6356
X6.5923Y-4.171
X6.7129Y-2.76
X6.7129Y-3.66
X6.7129Y-4.2954
X6.7129Y-5.1954
X6.9079Y-2.815
X6.9079Y-4.3504
X6.9129Y-2.735
X6.9129Y-2.945
X6.9129Y-4.2704
X6.9129Y-4.4804
X6.9729Y-2.735
X6.9729Y-4.2704
X7.062Y-2.2819
X7.062Y-3.8174
X7.1156Y-2.7323
X7.1156Y-4.2677
X7.1329Y-3.655
X7.1329Y-5.1904
X7.1428Y-3.195
X7.1428Y-3.2501
X7.1428Y-3.3052
X7.1428Y-4.7304
X7.1428Y-4.7856
X7.1428Y-4.8407
X7.1779Y-2.38
X7.1779Y-3.9154
X7.1829Y-3.655
X7.1829Y-5.1904
X7.1929Y-2.735
X7.1929Y-4.2704
X7.1979Y-3.195
X7.1979Y-3.2501
X7.1979Y-3.3052
X7.1979Y-4.7304
X7.1979Y-4.7856
X7.1979Y-4.8407
X7.2047Y-2.2835
X7.2047Y-3.8189
X7.2329Y-3.655
X7.2329Y-5.1904
X7.253Y-3.195
X7.253Y-3.2501
X7.253Y-3.3052
X7.253Y-4.7304
X7.253Y-4.7856
X7.253Y-4.8407
X7.2629Y-2.41
X7.2629Y-3.9454
X7.2829Y-3.655
X7.2829Y-5.1904
X7.2879Y-2.81
X7.2879Y-4.3454
X7.4829Y-3.655
X7.4829Y-5.1904
X7.6029Y-2.945
X7.6029Y-3.655
X7.6029Y-4.4804
X7.6029Y-5.1904
X7.7029Y-2.84
X7.7029Y-4.3754
X7.8129Y-3.31
X7.8129Y-4.8454
X7.8329Y-2.84
X7.8329Y-4.3754
X7.8879Y-2.795
X7.8879Y-4.3304
X7.8929Y-2.415
X7.8929Y-3.9504
T3
X4.605Y-2.27
X4.605Y-2.335
X4.605Y-3.8054
X4.605Y-3.8704
X4.685Y-2.27
X4.685Y-2.335
X4.685Y-3.8054
X4.685Y-3.8704
X4.77Y-2.275
X4.77Y-2.335
X4.77Y-3.8104
X4.77Y-3.8704
X6.2979Y-2.27
X6.2979Y-2.335
X6.2979Y-3.8054
X6.2979Y-3.8704
X6.3779Y-2.27
X6.3779Y-2.335
X6.3779Y-3.8054
X6.3779Y-3.8704
X6.4629Y-2.275
X6.4629Y-2.335
X6.4629Y-3.8104
X6.4629Y-3.8704
T5
X4.6457Y-3.1693
X4.6457Y-3.248
X4.6457Y-4.7047
X4.6457Y-4.7835
X6.3386Y-3.1693
X6.3386Y-3.248
X6.3386Y-4.7047
X6.3386Y-4.7835
T4
G00X4.8693Y-2.3524
M15
G01X4.8693Y-2.3287
M16
G05
G00X4.8693Y-2.5268
M15
G01X4.8693Y-2.4835
M16
G05
G00X4.8693Y-3.8878
M15
G01X4.8693Y-3.8642
M16
G05
G00X4.8693Y-4.0622
M15
G01X4.8693Y-4.0189
M16
G05
G00X5.2094Y-2.3524
M15
G01X5.2094Y-2.3287
M16
G05
G00X5.2094Y-2.5268
M15
G01X5.2094Y-2.4835
M16
G05
G00X5.2094Y-3.8878
M15
G01X5.2094Y-3.8642
M16
G05
G00X5.2094Y-4.0622
M15
G01X5.2094Y-4.0189
M16
G05
G00X6.5622Y-2.3524
M15
G01X6.5622Y-2.3287
M16
G05
G00X6.5622Y-2.5268
M15
G01X6.5622Y-2.4835
M16
G05
G00X6.5622Y-3.8878
M15
G01X6.5622Y-3.8642
M16
G05
G00X6.5622Y-4.0622
M15
G01X6.5622Y-4.0189
M16
G05
G00X6.9024Y-2.3524
M15
G01X6.9024Y-2.3287
M16
G05
G00X6.9024Y-2.5268
M15
G01X6.9024Y-2.4835
M16
G05
G00X6.9024Y-3.8878
M15
G01X6.9024Y-3.8642
M16
G05
G00X6.9024Y-4.0622
M15
G01X6.9024Y-4.0189
M16
G05
T0
M30
