%TF.GenerationSoftware,KiCad,Pcbnew,(6.0.7)*%
%TF.CreationDate,2023-02-26T08:18:57+08:00*%
%TF.ProjectId,Led_Control_Circuit_Panelization,4c65645f-436f-46e7-9472-6f6c5f436972,rev?*%
%TF.SameCoordinates,Original*%
%TF.FileFunction,Soldermask,Top*%
%TF.FilePolarity,Negative*%
%FSLAX46Y46*%
G04 Gerber Fmt 4.6, Leading zero omitted, Abs format (unit mm)*
G04 Created by KiCad (PCBNEW (6.0.7)) date 2023-02-26 08:18:57*
%MOMM*%
%LPD*%
G01*
G04 APERTURE LIST*
G04 Aperture macros list*
%AMRoundRect*
0 Rectangle with rounded corners*
0 $1 Rounding radius*
0 $2 $3 $4 $5 $6 $7 $8 $9 X,Y pos of 4 corners*
0 Add a 4 corners polygon primitive as box body*
4,1,4,$2,$3,$4,$5,$6,$7,$8,$9,$2,$3,0*
0 Add four circle primitives for the rounded corners*
1,1,$1+$1,$2,$3*
1,1,$1+$1,$4,$5*
1,1,$1+$1,$6,$7*
1,1,$1+$1,$8,$9*
0 Add four rect primitives between the rounded corners*
20,1,$1+$1,$2,$3,$4,$5,0*
20,1,$1+$1,$4,$5,$6,$7,0*
20,1,$1+$1,$6,$7,$8,$9,0*
20,1,$1+$1,$8,$9,$2,$3,0*%
G04 Aperture macros list end*
%ADD10C,1.000000*%
%ADD11R,0.600000X1.300000*%
%ADD12R,1.200000X1.400000*%
%ADD13R,1.200000X2.000000*%
%ADD14RoundRect,0.250000X-0.450000X0.262500X-0.450000X-0.262500X0.450000X-0.262500X0.450000X0.262500X0*%
%ADD15RoundRect,0.250000X-0.250000X-0.475000X0.250000X-0.475000X0.250000X0.475000X-0.250000X0.475000X0*%
%ADD16RoundRect,0.100000X0.100000X-0.637500X0.100000X0.637500X-0.100000X0.637500X-0.100000X-0.637500X0*%
%ADD17R,1.500000X2.000000*%
%ADD18R,3.800000X2.000000*%
%ADD19R,1.500000X0.900000*%
%ADD20R,0.900000X1.500000*%
%ADD21R,0.900000X0.900000*%
%ADD22R,1.350000X1.350000*%
%ADD23O,1.350000X1.350000*%
%ADD24RoundRect,0.250000X-0.262500X-0.450000X0.262500X-0.450000X0.262500X0.450000X-0.262500X0.450000X0*%
%ADD25R,1.500000X1.500000*%
%ADD26RoundRect,0.250000X0.250000X0.475000X-0.250000X0.475000X-0.250000X-0.475000X0.250000X-0.475000X0*%
%ADD27R,0.900000X1.200000*%
%ADD28RoundRect,0.243750X0.456250X-0.243750X0.456250X0.243750X-0.456250X0.243750X-0.456250X-0.243750X0*%
%ADD29C,0.650000*%
%ADD30R,0.600000X1.450000*%
%ADD31R,0.300000X1.450000*%
%ADD32O,1.000000X1.600000*%
%ADD33O,1.000000X2.100000*%
%ADD34RoundRect,0.750000X2.250000X-0.750000X2.250000X0.750000X-2.250000X0.750000X-2.250000X-0.750000X0*%
%ADD35RoundRect,0.250000X0.450000X-0.262500X0.450000X0.262500X-0.450000X0.262500X-0.450000X-0.262500X0*%
%ADD36R,3.000000X1.000000*%
G04 APERTURE END LIST*
D10*
%TO.C,Card4*%
X197450000Y-100022000D03*
X189450000Y-100025000D03*
D11*
X190199000Y-110776000D03*
X191299000Y-110776000D03*
X192399000Y-110776000D03*
X193499000Y-110776000D03*
X194599000Y-110776000D03*
X195699000Y-110776000D03*
X196799000Y-110776000D03*
X197899000Y-110776000D03*
X198999000Y-110776000D03*
D12*
X200099000Y-109926000D03*
D13*
X200260000Y-100224000D03*
X184740000Y-100224000D03*
D12*
X185419000Y-109926000D03*
%TD*%
D14*
%TO.C,R26*%
X196500000Y-115087500D03*
X196500000Y-116912500D03*
%TD*%
D15*
%TO.C,C26*%
X173622000Y-108469000D03*
X175522000Y-108469000D03*
%TD*%
D16*
%TO.C,U10*%
X196050000Y-131362500D03*
X196700000Y-131362500D03*
X197350000Y-131362500D03*
X198000000Y-131362500D03*
X198650000Y-131362500D03*
X199300000Y-131362500D03*
X199950000Y-131362500D03*
X199950000Y-125637500D03*
X199300000Y-125637500D03*
X198650000Y-125637500D03*
X198000000Y-125637500D03*
X197350000Y-125637500D03*
X196700000Y-125637500D03*
X196050000Y-125637500D03*
%TD*%
D14*
%TO.C,R28*%
X199500000Y-115087500D03*
X199500000Y-116912500D03*
%TD*%
D17*
%TO.C,U11*%
X182300000Y-99350000D03*
D18*
X180000000Y-105650000D03*
D17*
X180000000Y-99350000D03*
X177700000Y-99350000D03*
%TD*%
D19*
%TO.C,U12*%
X175601000Y-113798000D03*
X175601000Y-115068000D03*
X175601000Y-116338000D03*
X175601000Y-117608000D03*
X175601000Y-118878000D03*
X175601000Y-120148000D03*
X175601000Y-121418000D03*
X175601000Y-122688000D03*
X175601000Y-123958000D03*
X175601000Y-125228000D03*
X175601000Y-126498000D03*
X175601000Y-127768000D03*
X175601000Y-129038000D03*
X175601000Y-130308000D03*
D20*
X177366000Y-131558000D03*
X178636000Y-131558000D03*
X179906000Y-131558000D03*
X181176000Y-131558000D03*
X182446000Y-131558000D03*
X183716000Y-131558000D03*
X184986000Y-131558000D03*
X186256000Y-131558000D03*
X187526000Y-131558000D03*
X188796000Y-131558000D03*
X190066000Y-131558000D03*
X191336000Y-131558000D03*
D19*
X193101000Y-130308000D03*
X193101000Y-129038000D03*
X193101000Y-127768000D03*
X193101000Y-126498000D03*
X193101000Y-125228000D03*
X193101000Y-123958000D03*
X193101000Y-122688000D03*
X193101000Y-121418000D03*
X193101000Y-120148000D03*
X193101000Y-118878000D03*
X193101000Y-117608000D03*
X193101000Y-116338000D03*
X193101000Y-115068000D03*
X193101000Y-113798000D03*
D21*
X181451000Y-121518000D03*
X181451000Y-122918000D03*
X182851000Y-121518000D03*
X182851000Y-122918000D03*
X184251000Y-120118000D03*
X184251000Y-122918000D03*
X184251000Y-121518000D03*
X182851000Y-120118000D03*
X181451000Y-120118000D03*
%TD*%
D15*
%TO.C,C24*%
X181050000Y-97000000D03*
X182950000Y-97000000D03*
%TD*%
D22*
%TO.C,TP4*%
X161000000Y-119500000D03*
D23*
X161000000Y-121500000D03*
%TD*%
D24*
%TO.C,R22*%
X165587500Y-106000000D03*
X167412500Y-106000000D03*
%TD*%
D25*
%TO.C,SW4*%
X161000000Y-116400000D03*
X161000000Y-108600000D03*
%TD*%
D26*
%TO.C,C25*%
X179078000Y-108469000D03*
X177178000Y-108469000D03*
%TD*%
D15*
%TO.C,C22*%
X196550000Y-123000000D03*
X198450000Y-123000000D03*
%TD*%
D27*
%TO.C,D12*%
X163150000Y-105000000D03*
X159850000Y-105000000D03*
%TD*%
D28*
%TO.C,D11*%
X161000000Y-130937500D03*
X161000000Y-129062500D03*
%TD*%
D14*
%TO.C,R25*%
X199500000Y-119087500D03*
X199500000Y-120912500D03*
%TD*%
D24*
%TO.C,R24*%
X180771500Y-110501000D03*
X182596500Y-110501000D03*
%TD*%
D29*
%TO.C,J10*%
X173890000Y-102100000D03*
X168110000Y-102100000D03*
D30*
X174250000Y-103545000D03*
X173450000Y-103545000D03*
D31*
X172250000Y-103545000D03*
X171250000Y-103545000D03*
X170750000Y-103545000D03*
X169750000Y-103545000D03*
D30*
X168550000Y-103545000D03*
X167750000Y-103545000D03*
X167750000Y-103545000D03*
X168550000Y-103545000D03*
D31*
X169250000Y-103545000D03*
X170250000Y-103545000D03*
X171750000Y-103545000D03*
X172750000Y-103545000D03*
D30*
X173450000Y-103545000D03*
X174250000Y-103545000D03*
D32*
X175320000Y-98450000D03*
D33*
X166680000Y-102630000D03*
X175320000Y-102630000D03*
D32*
X166680000Y-98450000D03*
%TD*%
D15*
%TO.C,C28*%
X173622000Y-110501000D03*
X175522000Y-110501000D03*
%TD*%
D27*
%TO.C,D10*%
X176150000Y-106000000D03*
X172850000Y-106000000D03*
%TD*%
D34*
%TO.C,J11*%
X162000000Y-101500000D03*
X162000000Y-97500000D03*
%TD*%
D26*
%TO.C,C27*%
X182634000Y-108397000D03*
X180734000Y-108397000D03*
%TD*%
D35*
%TO.C,R23*%
X161000000Y-126912500D03*
X161000000Y-125087500D03*
%TD*%
D15*
%TO.C,C23*%
X177550000Y-97000000D03*
X179450000Y-97000000D03*
%TD*%
D14*
%TO.C,R27*%
X196500000Y-119087500D03*
X196500000Y-120912500D03*
%TD*%
D36*
%TO.C,J12*%
X170520000Y-109070000D03*
X165480000Y-109070000D03*
X170520000Y-111610000D03*
X165480000Y-111610000D03*
X170520000Y-114150000D03*
X165480000Y-114150000D03*
X170520000Y-116690000D03*
X165480000Y-116690000D03*
X170520000Y-119230000D03*
X165480000Y-119230000D03*
X170520000Y-121770000D03*
X165480000Y-121770000D03*
X170520000Y-124310000D03*
X165480000Y-124310000D03*
X170520000Y-126850000D03*
X165480000Y-126850000D03*
X170520000Y-129390000D03*
X165480000Y-129390000D03*
X170520000Y-131930000D03*
X165480000Y-131930000D03*
%TD*%
D10*
%TO.C,Card3*%
X154450000Y-100022000D03*
X146450000Y-100025000D03*
D11*
X147199000Y-110776000D03*
X148299000Y-110776000D03*
X149399000Y-110776000D03*
X150499000Y-110776000D03*
X151599000Y-110776000D03*
X152699000Y-110776000D03*
X153799000Y-110776000D03*
X154899000Y-110776000D03*
X155999000Y-110776000D03*
D12*
X157099000Y-109926000D03*
D13*
X157260000Y-100224000D03*
X141740000Y-100224000D03*
D12*
X142419000Y-109926000D03*
%TD*%
D14*
%TO.C,R19*%
X153500000Y-115087500D03*
X153500000Y-116912500D03*
%TD*%
D15*
%TO.C,C19*%
X130622000Y-108469000D03*
X132522000Y-108469000D03*
%TD*%
D16*
%TO.C,U7*%
X153050000Y-131362500D03*
X153700000Y-131362500D03*
X154350000Y-131362500D03*
X155000000Y-131362500D03*
X155650000Y-131362500D03*
X156300000Y-131362500D03*
X156950000Y-131362500D03*
X156950000Y-125637500D03*
X156300000Y-125637500D03*
X155650000Y-125637500D03*
X155000000Y-125637500D03*
X154350000Y-125637500D03*
X153700000Y-125637500D03*
X153050000Y-125637500D03*
%TD*%
D14*
%TO.C,R21*%
X156500000Y-115087500D03*
X156500000Y-116912500D03*
%TD*%
D17*
%TO.C,U8*%
X139300000Y-99350000D03*
D18*
X137000000Y-105650000D03*
D17*
X137000000Y-99350000D03*
X134700000Y-99350000D03*
%TD*%
D19*
%TO.C,U9*%
X132601000Y-113798000D03*
X132601000Y-115068000D03*
X132601000Y-116338000D03*
X132601000Y-117608000D03*
X132601000Y-118878000D03*
X132601000Y-120148000D03*
X132601000Y-121418000D03*
X132601000Y-122688000D03*
X132601000Y-123958000D03*
X132601000Y-125228000D03*
X132601000Y-126498000D03*
X132601000Y-127768000D03*
X132601000Y-129038000D03*
X132601000Y-130308000D03*
D20*
X134366000Y-131558000D03*
X135636000Y-131558000D03*
X136906000Y-131558000D03*
X138176000Y-131558000D03*
X139446000Y-131558000D03*
X140716000Y-131558000D03*
X141986000Y-131558000D03*
X143256000Y-131558000D03*
X144526000Y-131558000D03*
X145796000Y-131558000D03*
X147066000Y-131558000D03*
X148336000Y-131558000D03*
D19*
X150101000Y-130308000D03*
X150101000Y-129038000D03*
X150101000Y-127768000D03*
X150101000Y-126498000D03*
X150101000Y-125228000D03*
X150101000Y-123958000D03*
X150101000Y-122688000D03*
X150101000Y-121418000D03*
X150101000Y-120148000D03*
X150101000Y-118878000D03*
X150101000Y-117608000D03*
X150101000Y-116338000D03*
X150101000Y-115068000D03*
X150101000Y-113798000D03*
D21*
X138451000Y-121518000D03*
X138451000Y-122918000D03*
X139851000Y-121518000D03*
X139851000Y-122918000D03*
X141251000Y-120118000D03*
X141251000Y-122918000D03*
X141251000Y-121518000D03*
X139851000Y-120118000D03*
X138451000Y-120118000D03*
%TD*%
D15*
%TO.C,C17*%
X138050000Y-97000000D03*
X139950000Y-97000000D03*
%TD*%
D22*
%TO.C,TP3*%
X118000000Y-119500000D03*
D23*
X118000000Y-121500000D03*
%TD*%
D24*
%TO.C,R15*%
X122587500Y-106000000D03*
X124412500Y-106000000D03*
%TD*%
D25*
%TO.C,SW3*%
X118000000Y-116400000D03*
X118000000Y-108600000D03*
%TD*%
D26*
%TO.C,C18*%
X136078000Y-108469000D03*
X134178000Y-108469000D03*
%TD*%
D15*
%TO.C,C15*%
X153550000Y-123000000D03*
X155450000Y-123000000D03*
%TD*%
D27*
%TO.C,D9*%
X120150000Y-105000000D03*
X116850000Y-105000000D03*
%TD*%
D28*
%TO.C,D8*%
X118000000Y-130937500D03*
X118000000Y-129062500D03*
%TD*%
D14*
%TO.C,R18*%
X156500000Y-119087500D03*
X156500000Y-120912500D03*
%TD*%
D24*
%TO.C,R17*%
X137771500Y-110501000D03*
X139596500Y-110501000D03*
%TD*%
D29*
%TO.C,J7*%
X130890000Y-102100000D03*
X125110000Y-102100000D03*
D30*
X131250000Y-103545000D03*
X130450000Y-103545000D03*
D31*
X129250000Y-103545000D03*
X128250000Y-103545000D03*
X127750000Y-103545000D03*
X126750000Y-103545000D03*
D30*
X125550000Y-103545000D03*
X124750000Y-103545000D03*
X124750000Y-103545000D03*
X125550000Y-103545000D03*
D31*
X126250000Y-103545000D03*
X127250000Y-103545000D03*
X128750000Y-103545000D03*
X129750000Y-103545000D03*
D30*
X130450000Y-103545000D03*
X131250000Y-103545000D03*
D32*
X132320000Y-98450000D03*
D33*
X123680000Y-102630000D03*
X132320000Y-102630000D03*
D32*
X123680000Y-98450000D03*
%TD*%
D15*
%TO.C,C21*%
X130622000Y-110501000D03*
X132522000Y-110501000D03*
%TD*%
D27*
%TO.C,D7*%
X133150000Y-106000000D03*
X129850000Y-106000000D03*
%TD*%
D34*
%TO.C,J8*%
X119000000Y-101500000D03*
X119000000Y-97500000D03*
%TD*%
D26*
%TO.C,C20*%
X139634000Y-108397000D03*
X137734000Y-108397000D03*
%TD*%
D35*
%TO.C,R16*%
X118000000Y-126912500D03*
X118000000Y-125087500D03*
%TD*%
D15*
%TO.C,C16*%
X134550000Y-97000000D03*
X136450000Y-97000000D03*
%TD*%
D14*
%TO.C,R20*%
X153500000Y-119087500D03*
X153500000Y-120912500D03*
%TD*%
D36*
%TO.C,J9*%
X127520000Y-109070000D03*
X122480000Y-109070000D03*
X127520000Y-111610000D03*
X122480000Y-111610000D03*
X127520000Y-114150000D03*
X122480000Y-114150000D03*
X127520000Y-116690000D03*
X122480000Y-116690000D03*
X127520000Y-119230000D03*
X122480000Y-119230000D03*
X127520000Y-121770000D03*
X122480000Y-121770000D03*
X127520000Y-124310000D03*
X122480000Y-124310000D03*
X127520000Y-126850000D03*
X122480000Y-126850000D03*
X127520000Y-129390000D03*
X122480000Y-129390000D03*
X127520000Y-131930000D03*
X122480000Y-131930000D03*
%TD*%
D10*
%TO.C,Card2*%
X197450000Y-61022000D03*
X189450000Y-61025000D03*
D11*
X190199000Y-71776000D03*
X191299000Y-71776000D03*
X192399000Y-71776000D03*
X193499000Y-71776000D03*
X194599000Y-71776000D03*
X195699000Y-71776000D03*
X196799000Y-71776000D03*
X197899000Y-71776000D03*
X198999000Y-71776000D03*
D12*
X200099000Y-70926000D03*
D13*
X200260000Y-61224000D03*
X184740000Y-61224000D03*
D12*
X185419000Y-70926000D03*
%TD*%
D14*
%TO.C,R12*%
X196500000Y-76087500D03*
X196500000Y-77912500D03*
%TD*%
D15*
%TO.C,C12*%
X173622000Y-69469000D03*
X175522000Y-69469000D03*
%TD*%
D16*
%TO.C,U4*%
X196050000Y-92362500D03*
X196700000Y-92362500D03*
X197350000Y-92362500D03*
X198000000Y-92362500D03*
X198650000Y-92362500D03*
X199300000Y-92362500D03*
X199950000Y-92362500D03*
X199950000Y-86637500D03*
X199300000Y-86637500D03*
X198650000Y-86637500D03*
X198000000Y-86637500D03*
X197350000Y-86637500D03*
X196700000Y-86637500D03*
X196050000Y-86637500D03*
%TD*%
D14*
%TO.C,R14*%
X199500000Y-76087500D03*
X199500000Y-77912500D03*
%TD*%
D17*
%TO.C,U5*%
X182300000Y-60350000D03*
D18*
X180000000Y-66650000D03*
D17*
X180000000Y-60350000D03*
X177700000Y-60350000D03*
%TD*%
D19*
%TO.C,U6*%
X175601000Y-74798000D03*
X175601000Y-76068000D03*
X175601000Y-77338000D03*
X175601000Y-78608000D03*
X175601000Y-79878000D03*
X175601000Y-81148000D03*
X175601000Y-82418000D03*
X175601000Y-83688000D03*
X175601000Y-84958000D03*
X175601000Y-86228000D03*
X175601000Y-87498000D03*
X175601000Y-88768000D03*
X175601000Y-90038000D03*
X175601000Y-91308000D03*
D20*
X177366000Y-92558000D03*
X178636000Y-92558000D03*
X179906000Y-92558000D03*
X181176000Y-92558000D03*
X182446000Y-92558000D03*
X183716000Y-92558000D03*
X184986000Y-92558000D03*
X186256000Y-92558000D03*
X187526000Y-92558000D03*
X188796000Y-92558000D03*
X190066000Y-92558000D03*
X191336000Y-92558000D03*
D19*
X193101000Y-91308000D03*
X193101000Y-90038000D03*
X193101000Y-88768000D03*
X193101000Y-87498000D03*
X193101000Y-86228000D03*
X193101000Y-84958000D03*
X193101000Y-83688000D03*
X193101000Y-82418000D03*
X193101000Y-81148000D03*
X193101000Y-79878000D03*
X193101000Y-78608000D03*
X193101000Y-77338000D03*
X193101000Y-76068000D03*
X193101000Y-74798000D03*
D21*
X181451000Y-82518000D03*
X181451000Y-83918000D03*
X182851000Y-82518000D03*
X182851000Y-83918000D03*
X184251000Y-81118000D03*
X184251000Y-83918000D03*
X184251000Y-82518000D03*
X182851000Y-81118000D03*
X181451000Y-81118000D03*
%TD*%
D15*
%TO.C,C10*%
X181050000Y-58000000D03*
X182950000Y-58000000D03*
%TD*%
D22*
%TO.C,TP2*%
X161000000Y-80500000D03*
D23*
X161000000Y-82500000D03*
%TD*%
D24*
%TO.C,R8*%
X165587500Y-67000000D03*
X167412500Y-67000000D03*
%TD*%
D25*
%TO.C,SW2*%
X161000000Y-77400000D03*
X161000000Y-69600000D03*
%TD*%
D26*
%TO.C,C11*%
X179078000Y-69469000D03*
X177178000Y-69469000D03*
%TD*%
D15*
%TO.C,C8*%
X196550000Y-84000000D03*
X198450000Y-84000000D03*
%TD*%
D27*
%TO.C,D6*%
X163150000Y-66000000D03*
X159850000Y-66000000D03*
%TD*%
D28*
%TO.C,D5*%
X161000000Y-91937500D03*
X161000000Y-90062500D03*
%TD*%
D14*
%TO.C,R11*%
X199500000Y-80087500D03*
X199500000Y-81912500D03*
%TD*%
D24*
%TO.C,R10*%
X180771500Y-71501000D03*
X182596500Y-71501000D03*
%TD*%
D29*
%TO.C,J4*%
X173890000Y-63100000D03*
X168110000Y-63100000D03*
D30*
X174250000Y-64545000D03*
X173450000Y-64545000D03*
D31*
X172250000Y-64545000D03*
X171250000Y-64545000D03*
X170750000Y-64545000D03*
X169750000Y-64545000D03*
D30*
X168550000Y-64545000D03*
X167750000Y-64545000D03*
X167750000Y-64545000D03*
X168550000Y-64545000D03*
D31*
X169250000Y-64545000D03*
X170250000Y-64545000D03*
X171750000Y-64545000D03*
X172750000Y-64545000D03*
D30*
X173450000Y-64545000D03*
X174250000Y-64545000D03*
D32*
X175320000Y-59450000D03*
D33*
X166680000Y-63630000D03*
X175320000Y-63630000D03*
D32*
X166680000Y-59450000D03*
%TD*%
D15*
%TO.C,C14*%
X173622000Y-71501000D03*
X175522000Y-71501000D03*
%TD*%
D27*
%TO.C,D4*%
X176150000Y-67000000D03*
X172850000Y-67000000D03*
%TD*%
D34*
%TO.C,J5*%
X162000000Y-62500000D03*
X162000000Y-58500000D03*
%TD*%
D26*
%TO.C,C13*%
X182634000Y-69397000D03*
X180734000Y-69397000D03*
%TD*%
D35*
%TO.C,R9*%
X161000000Y-87912500D03*
X161000000Y-86087500D03*
%TD*%
D15*
%TO.C,C9*%
X177550000Y-58000000D03*
X179450000Y-58000000D03*
%TD*%
D14*
%TO.C,R13*%
X196500000Y-80087500D03*
X196500000Y-81912500D03*
%TD*%
D36*
%TO.C,J6*%
X170520000Y-70070000D03*
X165480000Y-70070000D03*
X170520000Y-72610000D03*
X165480000Y-72610000D03*
X170520000Y-75150000D03*
X165480000Y-75150000D03*
X170520000Y-77690000D03*
X165480000Y-77690000D03*
X170520000Y-80230000D03*
X165480000Y-80230000D03*
X170520000Y-82770000D03*
X165480000Y-82770000D03*
X170520000Y-85310000D03*
X165480000Y-85310000D03*
X170520000Y-87850000D03*
X165480000Y-87850000D03*
X170520000Y-90390000D03*
X165480000Y-90390000D03*
X170520000Y-92930000D03*
X165480000Y-92930000D03*
%TD*%
D10*
%TO.C,Card1*%
X154450000Y-61022000D03*
X146450000Y-61025000D03*
D11*
X147199000Y-71776000D03*
X148299000Y-71776000D03*
X149399000Y-71776000D03*
X150499000Y-71776000D03*
X151599000Y-71776000D03*
X152699000Y-71776000D03*
X153799000Y-71776000D03*
X154899000Y-71776000D03*
X155999000Y-71776000D03*
D12*
X157099000Y-70926000D03*
D13*
X157260000Y-61224000D03*
X141740000Y-61224000D03*
D12*
X142419000Y-70926000D03*
%TD*%
D14*
%TO.C,R5*%
X153500000Y-76087500D03*
X153500000Y-77912500D03*
%TD*%
D19*
%TO.C,U3*%
X132601000Y-74798000D03*
X132601000Y-76068000D03*
X132601000Y-77338000D03*
X132601000Y-78608000D03*
X132601000Y-79878000D03*
X132601000Y-81148000D03*
X132601000Y-82418000D03*
X132601000Y-83688000D03*
X132601000Y-84958000D03*
X132601000Y-86228000D03*
X132601000Y-87498000D03*
X132601000Y-88768000D03*
X132601000Y-90038000D03*
X132601000Y-91308000D03*
D20*
X134366000Y-92558000D03*
X135636000Y-92558000D03*
X136906000Y-92558000D03*
X138176000Y-92558000D03*
X139446000Y-92558000D03*
X140716000Y-92558000D03*
X141986000Y-92558000D03*
X143256000Y-92558000D03*
X144526000Y-92558000D03*
X145796000Y-92558000D03*
X147066000Y-92558000D03*
X148336000Y-92558000D03*
D19*
X150101000Y-91308000D03*
X150101000Y-90038000D03*
X150101000Y-88768000D03*
X150101000Y-87498000D03*
X150101000Y-86228000D03*
X150101000Y-84958000D03*
X150101000Y-83688000D03*
X150101000Y-82418000D03*
X150101000Y-81148000D03*
X150101000Y-79878000D03*
X150101000Y-78608000D03*
X150101000Y-77338000D03*
X150101000Y-76068000D03*
X150101000Y-74798000D03*
D21*
X138451000Y-82518000D03*
X138451000Y-83918000D03*
X139851000Y-82518000D03*
X139851000Y-83918000D03*
X141251000Y-81118000D03*
X141251000Y-83918000D03*
X141251000Y-82518000D03*
X139851000Y-81118000D03*
X138451000Y-81118000D03*
%TD*%
D22*
%TO.C,TP1*%
X118000000Y-80500000D03*
D23*
X118000000Y-82500000D03*
%TD*%
D15*
%TO.C,C5*%
X130622000Y-69469000D03*
X132522000Y-69469000D03*
%TD*%
D16*
%TO.C,U1*%
X153050000Y-92362500D03*
X153700000Y-92362500D03*
X154350000Y-92362500D03*
X155000000Y-92362500D03*
X155650000Y-92362500D03*
X156300000Y-92362500D03*
X156950000Y-92362500D03*
X156950000Y-86637500D03*
X156300000Y-86637500D03*
X155650000Y-86637500D03*
X155000000Y-86637500D03*
X154350000Y-86637500D03*
X153700000Y-86637500D03*
X153050000Y-86637500D03*
%TD*%
D15*
%TO.C,C3*%
X138050000Y-58000000D03*
X139950000Y-58000000D03*
%TD*%
D17*
%TO.C,U2*%
X139300000Y-60350000D03*
D18*
X137000000Y-66650000D03*
D17*
X137000000Y-60350000D03*
X134700000Y-60350000D03*
%TD*%
D14*
%TO.C,R7*%
X156500000Y-76087500D03*
X156500000Y-77912500D03*
%TD*%
D15*
%TO.C,C1*%
X153550000Y-84000000D03*
X155450000Y-84000000D03*
%TD*%
D26*
%TO.C,C4*%
X136078000Y-69469000D03*
X134178000Y-69469000D03*
%TD*%
D25*
%TO.C,SW1*%
X118000000Y-77400000D03*
X118000000Y-69600000D03*
%TD*%
D24*
%TO.C,R1*%
X122587500Y-67000000D03*
X124412500Y-67000000D03*
%TD*%
D27*
%TO.C,D1*%
X133150000Y-67000000D03*
X129850000Y-67000000D03*
%TD*%
D15*
%TO.C,C2*%
X134550000Y-58000000D03*
X136450000Y-58000000D03*
%TD*%
%TO.C,C7*%
X130622000Y-71501000D03*
X132522000Y-71501000D03*
%TD*%
D29*
%TO.C,J1*%
X130890000Y-63100000D03*
X125110000Y-63100000D03*
D30*
X131250000Y-64545000D03*
X130450000Y-64545000D03*
D31*
X129250000Y-64545000D03*
X128250000Y-64545000D03*
X127750000Y-64545000D03*
X126750000Y-64545000D03*
D30*
X125550000Y-64545000D03*
X124750000Y-64545000D03*
X124750000Y-64545000D03*
X125550000Y-64545000D03*
D31*
X126250000Y-64545000D03*
X127250000Y-64545000D03*
X128750000Y-64545000D03*
X129750000Y-64545000D03*
D30*
X130450000Y-64545000D03*
X131250000Y-64545000D03*
D32*
X132320000Y-59450000D03*
D33*
X123680000Y-63630000D03*
X132320000Y-63630000D03*
D32*
X123680000Y-59450000D03*
%TD*%
D26*
%TO.C,C6*%
X139634000Y-69397000D03*
X137734000Y-69397000D03*
%TD*%
D14*
%TO.C,R6*%
X153500000Y-80087500D03*
X153500000Y-81912500D03*
%TD*%
D34*
%TO.C,J2*%
X119000000Y-62500000D03*
X119000000Y-58500000D03*
%TD*%
D36*
%TO.C,J3*%
X127520000Y-70070000D03*
X122480000Y-70070000D03*
X127520000Y-72610000D03*
X122480000Y-72610000D03*
X127520000Y-75150000D03*
X122480000Y-75150000D03*
X127520000Y-77690000D03*
X122480000Y-77690000D03*
X127520000Y-80230000D03*
X122480000Y-80230000D03*
X127520000Y-82770000D03*
X122480000Y-82770000D03*
X127520000Y-85310000D03*
X122480000Y-85310000D03*
X127520000Y-87850000D03*
X122480000Y-87850000D03*
X127520000Y-90390000D03*
X122480000Y-90390000D03*
X127520000Y-92930000D03*
X122480000Y-92930000D03*
%TD*%
D35*
%TO.C,R2*%
X118000000Y-87912500D03*
X118000000Y-86087500D03*
%TD*%
D14*
%TO.C,R4*%
X156500000Y-80087500D03*
X156500000Y-81912500D03*
%TD*%
D24*
%TO.C,R3*%
X137771500Y-71501000D03*
X139596500Y-71501000D03*
%TD*%
D27*
%TO.C,D3*%
X120150000Y-66000000D03*
X116850000Y-66000000D03*
%TD*%
D28*
%TO.C,D2*%
X118000000Y-91937500D03*
X118000000Y-90062500D03*
%TD*%
M02*
