%TF.GenerationSoftware,KiCad,Pcbnew,(6.0.7)*%
%TF.CreationDate,2023-02-26T08:18:57+08:00*%
%TF.ProjectId,Led_Control_Circuit_Panelization,4c65645f-436f-46e7-9472-6f6c5f436972,rev?*%
%TF.SameCoordinates,Original*%
%TF.FileFunction,Legend,Top*%
%TF.FilePolarity,Positive*%
%FSLAX46Y46*%
G04 Gerber Fmt 4.6, Leading zero omitted, Abs format (unit mm)*
G04 Created by KiCad (PCBNEW (6.0.7)) date 2023-02-26 08:18:57*
%MOMM*%
%LPD*%
G01*
G04 APERTURE LIST*
%ADD10C,0.150000*%
%ADD11C,0.254000*%
%ADD12C,0.102000*%
%ADD13C,0.120000*%
G04 APERTURE END LIST*
D10*
X165301047Y-97491428D02*
X166062952Y-97491428D01*
X165301047Y-101555428D02*
X166062952Y-101555428D01*
X165682000Y-101936380D02*
X165682000Y-101174476D01*
X122301047Y-97491428D02*
X123062952Y-97491428D01*
X122301047Y-101555428D02*
X123062952Y-101555428D01*
X122682000Y-101936380D02*
X122682000Y-101174476D01*
X165301047Y-58491428D02*
X166062952Y-58491428D01*
X165301047Y-62555428D02*
X166062952Y-62555428D01*
X165682000Y-62936380D02*
X165682000Y-62174476D01*
X122301047Y-62555428D02*
X123062952Y-62555428D01*
X122682000Y-62936380D02*
X122682000Y-62174476D01*
X122301047Y-58491428D02*
X123062952Y-58491428D01*
%TO.C,Card4*%
X188831071Y-109064142D02*
X188783452Y-109111761D01*
X188640595Y-109159380D01*
X188545357Y-109159380D01*
X188402500Y-109111761D01*
X188307261Y-109016523D01*
X188259642Y-108921285D01*
X188212023Y-108730809D01*
X188212023Y-108587952D01*
X188259642Y-108397476D01*
X188307261Y-108302238D01*
X188402500Y-108207000D01*
X188545357Y-108159380D01*
X188640595Y-108159380D01*
X188783452Y-108207000D01*
X188831071Y-108254619D01*
X189688214Y-109159380D02*
X189688214Y-108635571D01*
X189640595Y-108540333D01*
X189545357Y-108492714D01*
X189354880Y-108492714D01*
X189259642Y-108540333D01*
X189688214Y-109111761D02*
X189592976Y-109159380D01*
X189354880Y-109159380D01*
X189259642Y-109111761D01*
X189212023Y-109016523D01*
X189212023Y-108921285D01*
X189259642Y-108826047D01*
X189354880Y-108778428D01*
X189592976Y-108778428D01*
X189688214Y-108730809D01*
X190164404Y-109159380D02*
X190164404Y-108492714D01*
X190164404Y-108683190D02*
X190212023Y-108587952D01*
X190259642Y-108540333D01*
X190354880Y-108492714D01*
X190450119Y-108492714D01*
X191212023Y-109159380D02*
X191212023Y-108159380D01*
X191212023Y-109111761D02*
X191116785Y-109159380D01*
X190926309Y-109159380D01*
X190831071Y-109111761D01*
X190783452Y-109064142D01*
X190735833Y-108968904D01*
X190735833Y-108683190D01*
X190783452Y-108587952D01*
X190831071Y-108540333D01*
X190926309Y-108492714D01*
X191116785Y-108492714D01*
X191212023Y-108540333D01*
X192116785Y-108492714D02*
X192116785Y-109159380D01*
X191878690Y-108111761D02*
X191640595Y-108826047D01*
X192259642Y-108826047D01*
%TO.C,R26*%
X195471380Y-116731857D02*
X194995190Y-117065190D01*
X195471380Y-117303285D02*
X194471380Y-117303285D01*
X194471380Y-116922333D01*
X194519000Y-116827095D01*
X194566619Y-116779476D01*
X194661857Y-116731857D01*
X194804714Y-116731857D01*
X194899952Y-116779476D01*
X194947571Y-116827095D01*
X194995190Y-116922333D01*
X194995190Y-117303285D01*
X194566619Y-116350904D02*
X194519000Y-116303285D01*
X194471380Y-116208047D01*
X194471380Y-115969952D01*
X194519000Y-115874714D01*
X194566619Y-115827095D01*
X194661857Y-115779476D01*
X194757095Y-115779476D01*
X194899952Y-115827095D01*
X195471380Y-116398523D01*
X195471380Y-115779476D01*
X194471380Y-114922333D02*
X194471380Y-115112809D01*
X194519000Y-115208047D01*
X194566619Y-115255666D01*
X194709476Y-115350904D01*
X194899952Y-115398523D01*
X195280904Y-115398523D01*
X195376142Y-115350904D01*
X195423761Y-115303285D01*
X195471380Y-115208047D01*
X195471380Y-115017571D01*
X195423761Y-114922333D01*
X195376142Y-114874714D01*
X195280904Y-114827095D01*
X195042809Y-114827095D01*
X194947571Y-114874714D01*
X194899952Y-114922333D01*
X194852333Y-115017571D01*
X194852333Y-115208047D01*
X194899952Y-115303285D01*
X194947571Y-115350904D01*
X195042809Y-115398523D01*
%TO.C,C26*%
X171262142Y-107937142D02*
X171214523Y-107984761D01*
X171071666Y-108032380D01*
X170976428Y-108032380D01*
X170833571Y-107984761D01*
X170738333Y-107889523D01*
X170690714Y-107794285D01*
X170643095Y-107603809D01*
X170643095Y-107460952D01*
X170690714Y-107270476D01*
X170738333Y-107175238D01*
X170833571Y-107080000D01*
X170976428Y-107032380D01*
X171071666Y-107032380D01*
X171214523Y-107080000D01*
X171262142Y-107127619D01*
X171643095Y-107127619D02*
X171690714Y-107080000D01*
X171785952Y-107032380D01*
X172024047Y-107032380D01*
X172119285Y-107080000D01*
X172166904Y-107127619D01*
X172214523Y-107222857D01*
X172214523Y-107318095D01*
X172166904Y-107460952D01*
X171595476Y-108032380D01*
X172214523Y-108032380D01*
X173071666Y-107032380D02*
X172881190Y-107032380D01*
X172785952Y-107080000D01*
X172738333Y-107127619D01*
X172643095Y-107270476D01*
X172595476Y-107460952D01*
X172595476Y-107841904D01*
X172643095Y-107937142D01*
X172690714Y-107984761D01*
X172785952Y-108032380D01*
X172976428Y-108032380D01*
X173071666Y-107984761D01*
X173119285Y-107937142D01*
X173166904Y-107841904D01*
X173166904Y-107603809D01*
X173119285Y-107508571D01*
X173071666Y-107460952D01*
X172976428Y-107413333D01*
X172785952Y-107413333D01*
X172690714Y-107460952D01*
X172643095Y-107508571D01*
X172595476Y-107603809D01*
%TO.C,U10*%
X199932380Y-134472095D02*
X200741904Y-134472095D01*
X200837142Y-134424476D01*
X200884761Y-134376857D01*
X200932380Y-134281619D01*
X200932380Y-134091142D01*
X200884761Y-133995904D01*
X200837142Y-133948285D01*
X200741904Y-133900666D01*
X199932380Y-133900666D01*
X200932380Y-132900666D02*
X200932380Y-133472095D01*
X200932380Y-133186380D02*
X199932380Y-133186380D01*
X200075238Y-133281619D01*
X200170476Y-133376857D01*
X200218095Y-133472095D01*
X199932380Y-132281619D02*
X199932380Y-132186380D01*
X199980000Y-132091142D01*
X200027619Y-132043523D01*
X200122857Y-131995904D01*
X200313333Y-131948285D01*
X200551428Y-131948285D01*
X200741904Y-131995904D01*
X200837142Y-132043523D01*
X200884761Y-132091142D01*
X200932380Y-132186380D01*
X200932380Y-132281619D01*
X200884761Y-132376857D01*
X200837142Y-132424476D01*
X200741904Y-132472095D01*
X200551428Y-132519714D01*
X200313333Y-132519714D01*
X200122857Y-132472095D01*
X200027619Y-132424476D01*
X199980000Y-132376857D01*
X199932380Y-132281619D01*
%TO.C,R28*%
X198519380Y-116731857D02*
X198043190Y-117065190D01*
X198519380Y-117303285D02*
X197519380Y-117303285D01*
X197519380Y-116922333D01*
X197567000Y-116827095D01*
X197614619Y-116779476D01*
X197709857Y-116731857D01*
X197852714Y-116731857D01*
X197947952Y-116779476D01*
X197995571Y-116827095D01*
X198043190Y-116922333D01*
X198043190Y-117303285D01*
X197614619Y-116350904D02*
X197567000Y-116303285D01*
X197519380Y-116208047D01*
X197519380Y-115969952D01*
X197567000Y-115874714D01*
X197614619Y-115827095D01*
X197709857Y-115779476D01*
X197805095Y-115779476D01*
X197947952Y-115827095D01*
X198519380Y-116398523D01*
X198519380Y-115779476D01*
X197947952Y-115208047D02*
X197900333Y-115303285D01*
X197852714Y-115350904D01*
X197757476Y-115398523D01*
X197709857Y-115398523D01*
X197614619Y-115350904D01*
X197567000Y-115303285D01*
X197519380Y-115208047D01*
X197519380Y-115017571D01*
X197567000Y-114922333D01*
X197614619Y-114874714D01*
X197709857Y-114827095D01*
X197757476Y-114827095D01*
X197852714Y-114874714D01*
X197900333Y-114922333D01*
X197947952Y-115017571D01*
X197947952Y-115208047D01*
X197995571Y-115303285D01*
X198043190Y-115350904D01*
X198138428Y-115398523D01*
X198328904Y-115398523D01*
X198424142Y-115350904D01*
X198471761Y-115303285D01*
X198519380Y-115208047D01*
X198519380Y-115017571D01*
X198471761Y-114922333D01*
X198424142Y-114874714D01*
X198328904Y-114827095D01*
X198138428Y-114827095D01*
X198043190Y-114874714D01*
X197995571Y-114922333D01*
X197947952Y-115017571D01*
%TO.C,U11*%
X183803380Y-103738095D02*
X184612904Y-103738095D01*
X184708142Y-103690476D01*
X184755761Y-103642857D01*
X184803380Y-103547619D01*
X184803380Y-103357142D01*
X184755761Y-103261904D01*
X184708142Y-103214285D01*
X184612904Y-103166666D01*
X183803380Y-103166666D01*
X184803380Y-102166666D02*
X184803380Y-102738095D01*
X184803380Y-102452380D02*
X183803380Y-102452380D01*
X183946238Y-102547619D01*
X184041476Y-102642857D01*
X184089095Y-102738095D01*
X184803380Y-101214285D02*
X184803380Y-101785714D01*
X184803380Y-101500000D02*
X183803380Y-101500000D01*
X183946238Y-101595238D01*
X184041476Y-101690476D01*
X184089095Y-101785714D01*
%TO.C,U12*%
X172317904Y-112493380D02*
X172317904Y-113302904D01*
X172365523Y-113398142D01*
X172413142Y-113445761D01*
X172508380Y-113493380D01*
X172698857Y-113493380D01*
X172794095Y-113445761D01*
X172841714Y-113398142D01*
X172889333Y-113302904D01*
X172889333Y-112493380D01*
X173889333Y-113493380D02*
X173317904Y-113493380D01*
X173603619Y-113493380D02*
X173603619Y-112493380D01*
X173508380Y-112636238D01*
X173413142Y-112731476D01*
X173317904Y-112779095D01*
X174270285Y-112588619D02*
X174317904Y-112541000D01*
X174413142Y-112493380D01*
X174651238Y-112493380D01*
X174746476Y-112541000D01*
X174794095Y-112588619D01*
X174841714Y-112683857D01*
X174841714Y-112779095D01*
X174794095Y-112921952D01*
X174222666Y-113493380D01*
X174841714Y-113493380D01*
%TO.C,C24*%
X186359142Y-97681857D02*
X186406761Y-97729476D01*
X186454380Y-97872333D01*
X186454380Y-97967571D01*
X186406761Y-98110428D01*
X186311523Y-98205666D01*
X186216285Y-98253285D01*
X186025809Y-98300904D01*
X185882952Y-98300904D01*
X185692476Y-98253285D01*
X185597238Y-98205666D01*
X185502000Y-98110428D01*
X185454380Y-97967571D01*
X185454380Y-97872333D01*
X185502000Y-97729476D01*
X185549619Y-97681857D01*
X185549619Y-97300904D02*
X185502000Y-97253285D01*
X185454380Y-97158047D01*
X185454380Y-96919952D01*
X185502000Y-96824714D01*
X185549619Y-96777095D01*
X185644857Y-96729476D01*
X185740095Y-96729476D01*
X185882952Y-96777095D01*
X186454380Y-97348523D01*
X186454380Y-96729476D01*
X185787714Y-95872333D02*
X186454380Y-95872333D01*
X185406761Y-96110428D02*
X186121047Y-96348523D01*
X186121047Y-95729476D01*
%TO.C,TP4*%
X159594095Y-123161380D02*
X160165523Y-123161380D01*
X159879809Y-124161380D02*
X159879809Y-123161380D01*
X160498857Y-124161380D02*
X160498857Y-123161380D01*
X160879809Y-123161380D01*
X160975047Y-123209000D01*
X161022666Y-123256619D01*
X161070285Y-123351857D01*
X161070285Y-123494714D01*
X161022666Y-123589952D01*
X160975047Y-123637571D01*
X160879809Y-123685190D01*
X160498857Y-123685190D01*
X161927428Y-123494714D02*
X161927428Y-124161380D01*
X161689333Y-123113761D02*
X161451238Y-123828047D01*
X162070285Y-123828047D01*
%TO.C,R22*%
X166055142Y-104984380D02*
X165721809Y-104508190D01*
X165483714Y-104984380D02*
X165483714Y-103984380D01*
X165864666Y-103984380D01*
X165959904Y-104032000D01*
X166007523Y-104079619D01*
X166055142Y-104174857D01*
X166055142Y-104317714D01*
X166007523Y-104412952D01*
X165959904Y-104460571D01*
X165864666Y-104508190D01*
X165483714Y-104508190D01*
X166436095Y-104079619D02*
X166483714Y-104032000D01*
X166578952Y-103984380D01*
X166817047Y-103984380D01*
X166912285Y-104032000D01*
X166959904Y-104079619D01*
X167007523Y-104174857D01*
X167007523Y-104270095D01*
X166959904Y-104412952D01*
X166388476Y-104984380D01*
X167007523Y-104984380D01*
X167388476Y-104079619D02*
X167436095Y-104032000D01*
X167531333Y-103984380D01*
X167769428Y-103984380D01*
X167864666Y-104032000D01*
X167912285Y-104079619D01*
X167959904Y-104174857D01*
X167959904Y-104270095D01*
X167912285Y-104412952D01*
X167340857Y-104984380D01*
X167959904Y-104984380D01*
%TO.C,SW4*%
X163292761Y-118565333D02*
X163340380Y-118422476D01*
X163340380Y-118184380D01*
X163292761Y-118089142D01*
X163245142Y-118041523D01*
X163149904Y-117993904D01*
X163054666Y-117993904D01*
X162959428Y-118041523D01*
X162911809Y-118089142D01*
X162864190Y-118184380D01*
X162816571Y-118374857D01*
X162768952Y-118470095D01*
X162721333Y-118517714D01*
X162626095Y-118565333D01*
X162530857Y-118565333D01*
X162435619Y-118517714D01*
X162388000Y-118470095D01*
X162340380Y-118374857D01*
X162340380Y-118136761D01*
X162388000Y-117993904D01*
X162340380Y-117660571D02*
X163340380Y-117422476D01*
X162626095Y-117232000D01*
X163340380Y-117041523D01*
X162340380Y-116803428D01*
X162673714Y-115993904D02*
X163340380Y-115993904D01*
X162292761Y-116232000D02*
X163007047Y-116470095D01*
X163007047Y-115851047D01*
%TO.C,C25*%
X177485142Y-110477142D02*
X177437523Y-110524761D01*
X177294666Y-110572380D01*
X177199428Y-110572380D01*
X177056571Y-110524761D01*
X176961333Y-110429523D01*
X176913714Y-110334285D01*
X176866095Y-110143809D01*
X176866095Y-110000952D01*
X176913714Y-109810476D01*
X176961333Y-109715238D01*
X177056571Y-109620000D01*
X177199428Y-109572380D01*
X177294666Y-109572380D01*
X177437523Y-109620000D01*
X177485142Y-109667619D01*
X177866095Y-109667619D02*
X177913714Y-109620000D01*
X178008952Y-109572380D01*
X178247047Y-109572380D01*
X178342285Y-109620000D01*
X178389904Y-109667619D01*
X178437523Y-109762857D01*
X178437523Y-109858095D01*
X178389904Y-110000952D01*
X177818476Y-110572380D01*
X178437523Y-110572380D01*
X179342285Y-109572380D02*
X178866095Y-109572380D01*
X178818476Y-110048571D01*
X178866095Y-110000952D01*
X178961333Y-109953333D01*
X179199428Y-109953333D01*
X179294666Y-110000952D01*
X179342285Y-110048571D01*
X179389904Y-110143809D01*
X179389904Y-110381904D01*
X179342285Y-110477142D01*
X179294666Y-110524761D01*
X179199428Y-110572380D01*
X178961333Y-110572380D01*
X178866095Y-110524761D01*
X178818476Y-110477142D01*
%TO.C,C22*%
X199837142Y-123558142D02*
X199789523Y-123605761D01*
X199646666Y-123653380D01*
X199551428Y-123653380D01*
X199408571Y-123605761D01*
X199313333Y-123510523D01*
X199265714Y-123415285D01*
X199218095Y-123224809D01*
X199218095Y-123081952D01*
X199265714Y-122891476D01*
X199313333Y-122796238D01*
X199408571Y-122701000D01*
X199551428Y-122653380D01*
X199646666Y-122653380D01*
X199789523Y-122701000D01*
X199837142Y-122748619D01*
X200218095Y-122748619D02*
X200265714Y-122701000D01*
X200360952Y-122653380D01*
X200599047Y-122653380D01*
X200694285Y-122701000D01*
X200741904Y-122748619D01*
X200789523Y-122843857D01*
X200789523Y-122939095D01*
X200741904Y-123081952D01*
X200170476Y-123653380D01*
X200789523Y-123653380D01*
X201170476Y-122748619D02*
X201218095Y-122701000D01*
X201313333Y-122653380D01*
X201551428Y-122653380D01*
X201646666Y-122701000D01*
X201694285Y-122748619D01*
X201741904Y-122843857D01*
X201741904Y-122939095D01*
X201694285Y-123081952D01*
X201122857Y-123653380D01*
X201741904Y-123653380D01*
%TO.C,D12*%
X160285714Y-107452380D02*
X160285714Y-106452380D01*
X160523809Y-106452380D01*
X160666666Y-106500000D01*
X160761904Y-106595238D01*
X160809523Y-106690476D01*
X160857142Y-106880952D01*
X160857142Y-107023809D01*
X160809523Y-107214285D01*
X160761904Y-107309523D01*
X160666666Y-107404761D01*
X160523809Y-107452380D01*
X160285714Y-107452380D01*
X161809523Y-107452380D02*
X161238095Y-107452380D01*
X161523809Y-107452380D02*
X161523809Y-106452380D01*
X161428571Y-106595238D01*
X161333333Y-106690476D01*
X161238095Y-106738095D01*
X162190476Y-106547619D02*
X162238095Y-106500000D01*
X162333333Y-106452380D01*
X162571428Y-106452380D01*
X162666666Y-106500000D01*
X162714285Y-106547619D01*
X162761904Y-106642857D01*
X162761904Y-106738095D01*
X162714285Y-106880952D01*
X162142857Y-107452380D01*
X162761904Y-107452380D01*
%TO.C,D11*%
X159802380Y-131214285D02*
X158802380Y-131214285D01*
X158802380Y-130976190D01*
X158850000Y-130833333D01*
X158945238Y-130738095D01*
X159040476Y-130690476D01*
X159230952Y-130642857D01*
X159373809Y-130642857D01*
X159564285Y-130690476D01*
X159659523Y-130738095D01*
X159754761Y-130833333D01*
X159802380Y-130976190D01*
X159802380Y-131214285D01*
X159802380Y-129690476D02*
X159802380Y-130261904D01*
X159802380Y-129976190D02*
X158802380Y-129976190D01*
X158945238Y-130071428D01*
X159040476Y-130166666D01*
X159088095Y-130261904D01*
X159802380Y-128738095D02*
X159802380Y-129309523D01*
X159802380Y-129023809D02*
X158802380Y-129023809D01*
X158945238Y-129119047D01*
X159040476Y-129214285D01*
X159088095Y-129309523D01*
%TO.C,R25*%
X198519380Y-120642857D02*
X198043190Y-120976190D01*
X198519380Y-121214285D02*
X197519380Y-121214285D01*
X197519380Y-120833333D01*
X197567000Y-120738095D01*
X197614619Y-120690476D01*
X197709857Y-120642857D01*
X197852714Y-120642857D01*
X197947952Y-120690476D01*
X197995571Y-120738095D01*
X198043190Y-120833333D01*
X198043190Y-121214285D01*
X197614619Y-120261904D02*
X197567000Y-120214285D01*
X197519380Y-120119047D01*
X197519380Y-119880952D01*
X197567000Y-119785714D01*
X197614619Y-119738095D01*
X197709857Y-119690476D01*
X197805095Y-119690476D01*
X197947952Y-119738095D01*
X198519380Y-120309523D01*
X198519380Y-119690476D01*
X197519380Y-118785714D02*
X197519380Y-119261904D01*
X197995571Y-119309523D01*
X197947952Y-119261904D01*
X197900333Y-119166666D01*
X197900333Y-118928571D01*
X197947952Y-118833333D01*
X197995571Y-118785714D01*
X198090809Y-118738095D01*
X198328904Y-118738095D01*
X198424142Y-118785714D01*
X198471761Y-118833333D01*
X198519380Y-118928571D01*
X198519380Y-119166666D01*
X198471761Y-119261904D01*
X198424142Y-119309523D01*
%TO.C,R24*%
X182946142Y-107016380D02*
X182612809Y-106540190D01*
X182374714Y-107016380D02*
X182374714Y-106016380D01*
X182755666Y-106016380D01*
X182850904Y-106064000D01*
X182898523Y-106111619D01*
X182946142Y-106206857D01*
X182946142Y-106349714D01*
X182898523Y-106444952D01*
X182850904Y-106492571D01*
X182755666Y-106540190D01*
X182374714Y-106540190D01*
X183327095Y-106111619D02*
X183374714Y-106064000D01*
X183469952Y-106016380D01*
X183708047Y-106016380D01*
X183803285Y-106064000D01*
X183850904Y-106111619D01*
X183898523Y-106206857D01*
X183898523Y-106302095D01*
X183850904Y-106444952D01*
X183279476Y-107016380D01*
X183898523Y-107016380D01*
X184755666Y-106349714D02*
X184755666Y-107016380D01*
X184517571Y-105968761D02*
X184279476Y-106683047D01*
X184898523Y-106683047D01*
%TO.C,J10*%
X170190476Y-99031380D02*
X170190476Y-99745666D01*
X170142857Y-99888523D01*
X170047619Y-99983761D01*
X169904761Y-100031380D01*
X169809523Y-100031380D01*
X171190476Y-100031380D02*
X170619047Y-100031380D01*
X170904761Y-100031380D02*
X170904761Y-99031380D01*
X170809523Y-99174238D01*
X170714285Y-99269476D01*
X170619047Y-99317095D01*
X171809523Y-99031380D02*
X171904761Y-99031380D01*
X172000000Y-99079000D01*
X172047619Y-99126619D01*
X172095238Y-99221857D01*
X172142857Y-99412333D01*
X172142857Y-99650428D01*
X172095238Y-99840904D01*
X172047619Y-99936142D01*
X172000000Y-99983761D01*
X171904761Y-100031380D01*
X171809523Y-100031380D01*
X171714285Y-99983761D01*
X171666666Y-99936142D01*
X171619047Y-99840904D01*
X171571428Y-99650428D01*
X171571428Y-99412333D01*
X171619047Y-99221857D01*
X171666666Y-99126619D01*
X171714285Y-99079000D01*
X171809523Y-99031380D01*
%TO.C,C28*%
X171262142Y-110731142D02*
X171214523Y-110778761D01*
X171071666Y-110826380D01*
X170976428Y-110826380D01*
X170833571Y-110778761D01*
X170738333Y-110683523D01*
X170690714Y-110588285D01*
X170643095Y-110397809D01*
X170643095Y-110254952D01*
X170690714Y-110064476D01*
X170738333Y-109969238D01*
X170833571Y-109874000D01*
X170976428Y-109826380D01*
X171071666Y-109826380D01*
X171214523Y-109874000D01*
X171262142Y-109921619D01*
X171643095Y-109921619D02*
X171690714Y-109874000D01*
X171785952Y-109826380D01*
X172024047Y-109826380D01*
X172119285Y-109874000D01*
X172166904Y-109921619D01*
X172214523Y-110016857D01*
X172214523Y-110112095D01*
X172166904Y-110254952D01*
X171595476Y-110826380D01*
X172214523Y-110826380D01*
X172785952Y-110254952D02*
X172690714Y-110207333D01*
X172643095Y-110159714D01*
X172595476Y-110064476D01*
X172595476Y-110016857D01*
X172643095Y-109921619D01*
X172690714Y-109874000D01*
X172785952Y-109826380D01*
X172976428Y-109826380D01*
X173071666Y-109874000D01*
X173119285Y-109921619D01*
X173166904Y-110016857D01*
X173166904Y-110064476D01*
X173119285Y-110159714D01*
X173071666Y-110207333D01*
X172976428Y-110254952D01*
X172785952Y-110254952D01*
X172690714Y-110302571D01*
X172643095Y-110350190D01*
X172595476Y-110445428D01*
X172595476Y-110635904D01*
X172643095Y-110731142D01*
X172690714Y-110778761D01*
X172785952Y-110826380D01*
X172976428Y-110826380D01*
X173071666Y-110778761D01*
X173119285Y-110731142D01*
X173166904Y-110635904D01*
X173166904Y-110445428D01*
X173119285Y-110350190D01*
X173071666Y-110302571D01*
X172976428Y-110254952D01*
%TO.C,D10*%
X169801714Y-106635380D02*
X169801714Y-105635380D01*
X170039809Y-105635380D01*
X170182666Y-105683000D01*
X170277904Y-105778238D01*
X170325523Y-105873476D01*
X170373142Y-106063952D01*
X170373142Y-106206809D01*
X170325523Y-106397285D01*
X170277904Y-106492523D01*
X170182666Y-106587761D01*
X170039809Y-106635380D01*
X169801714Y-106635380D01*
X171325523Y-106635380D02*
X170754095Y-106635380D01*
X171039809Y-106635380D02*
X171039809Y-105635380D01*
X170944571Y-105778238D01*
X170849333Y-105873476D01*
X170754095Y-105921095D01*
X171944571Y-105635380D02*
X172039809Y-105635380D01*
X172135047Y-105683000D01*
X172182666Y-105730619D01*
X172230285Y-105825857D01*
X172277904Y-106016333D01*
X172277904Y-106254428D01*
X172230285Y-106444904D01*
X172182666Y-106540142D01*
X172135047Y-106587761D01*
X172039809Y-106635380D01*
X171944571Y-106635380D01*
X171849333Y-106587761D01*
X171801714Y-106540142D01*
X171754095Y-106444904D01*
X171706476Y-106254428D01*
X171706476Y-106016333D01*
X171754095Y-105825857D01*
X171801714Y-105730619D01*
X171849333Y-105683000D01*
X171944571Y-105635380D01*
%TO.C,J11*%
X163856476Y-103222380D02*
X163856476Y-103936666D01*
X163808857Y-104079523D01*
X163713619Y-104174761D01*
X163570761Y-104222380D01*
X163475523Y-104222380D01*
X164856476Y-104222380D02*
X164285047Y-104222380D01*
X164570761Y-104222380D02*
X164570761Y-103222380D01*
X164475523Y-103365238D01*
X164380285Y-103460476D01*
X164285047Y-103508095D01*
X165808857Y-104222380D02*
X165237428Y-104222380D01*
X165523142Y-104222380D02*
X165523142Y-103222380D01*
X165427904Y-103365238D01*
X165332666Y-103460476D01*
X165237428Y-103508095D01*
%TO.C,C27*%
X182946142Y-105524142D02*
X182898523Y-105571761D01*
X182755666Y-105619380D01*
X182660428Y-105619380D01*
X182517571Y-105571761D01*
X182422333Y-105476523D01*
X182374714Y-105381285D01*
X182327095Y-105190809D01*
X182327095Y-105047952D01*
X182374714Y-104857476D01*
X182422333Y-104762238D01*
X182517571Y-104667000D01*
X182660428Y-104619380D01*
X182755666Y-104619380D01*
X182898523Y-104667000D01*
X182946142Y-104714619D01*
X183327095Y-104714619D02*
X183374714Y-104667000D01*
X183469952Y-104619380D01*
X183708047Y-104619380D01*
X183803285Y-104667000D01*
X183850904Y-104714619D01*
X183898523Y-104809857D01*
X183898523Y-104905095D01*
X183850904Y-105047952D01*
X183279476Y-105619380D01*
X183898523Y-105619380D01*
X184231857Y-104619380D02*
X184898523Y-104619380D01*
X184469952Y-105619380D01*
%TO.C,R23*%
X159802380Y-126642857D02*
X159326190Y-126976190D01*
X159802380Y-127214285D02*
X158802380Y-127214285D01*
X158802380Y-126833333D01*
X158850000Y-126738095D01*
X158897619Y-126690476D01*
X158992857Y-126642857D01*
X159135714Y-126642857D01*
X159230952Y-126690476D01*
X159278571Y-126738095D01*
X159326190Y-126833333D01*
X159326190Y-127214285D01*
X158897619Y-126261904D02*
X158850000Y-126214285D01*
X158802380Y-126119047D01*
X158802380Y-125880952D01*
X158850000Y-125785714D01*
X158897619Y-125738095D01*
X158992857Y-125690476D01*
X159088095Y-125690476D01*
X159230952Y-125738095D01*
X159802380Y-126309523D01*
X159802380Y-125690476D01*
X158802380Y-125357142D02*
X158802380Y-124738095D01*
X159183333Y-125071428D01*
X159183333Y-124928571D01*
X159230952Y-124833333D01*
X159278571Y-124785714D01*
X159373809Y-124738095D01*
X159611904Y-124738095D01*
X159707142Y-124785714D01*
X159754761Y-124833333D01*
X159802380Y-124928571D01*
X159802380Y-125214285D01*
X159754761Y-125309523D01*
X159707142Y-125357142D01*
%TO.C,C23*%
X184708142Y-97681857D02*
X184755761Y-97729476D01*
X184803380Y-97872333D01*
X184803380Y-97967571D01*
X184755761Y-98110428D01*
X184660523Y-98205666D01*
X184565285Y-98253285D01*
X184374809Y-98300904D01*
X184231952Y-98300904D01*
X184041476Y-98253285D01*
X183946238Y-98205666D01*
X183851000Y-98110428D01*
X183803380Y-97967571D01*
X183803380Y-97872333D01*
X183851000Y-97729476D01*
X183898619Y-97681857D01*
X183898619Y-97300904D02*
X183851000Y-97253285D01*
X183803380Y-97158047D01*
X183803380Y-96919952D01*
X183851000Y-96824714D01*
X183898619Y-96777095D01*
X183993857Y-96729476D01*
X184089095Y-96729476D01*
X184231952Y-96777095D01*
X184803380Y-97348523D01*
X184803380Y-96729476D01*
X183803380Y-96396142D02*
X183803380Y-95777095D01*
X184184333Y-96110428D01*
X184184333Y-95967571D01*
X184231952Y-95872333D01*
X184279571Y-95824714D01*
X184374809Y-95777095D01*
X184612904Y-95777095D01*
X184708142Y-95824714D01*
X184755761Y-95872333D01*
X184803380Y-95967571D01*
X184803380Y-96253285D01*
X184755761Y-96348523D01*
X184708142Y-96396142D01*
%TO.C,R27*%
X195471380Y-120642857D02*
X194995190Y-120976190D01*
X195471380Y-121214285D02*
X194471380Y-121214285D01*
X194471380Y-120833333D01*
X194519000Y-120738095D01*
X194566619Y-120690476D01*
X194661857Y-120642857D01*
X194804714Y-120642857D01*
X194899952Y-120690476D01*
X194947571Y-120738095D01*
X194995190Y-120833333D01*
X194995190Y-121214285D01*
X194566619Y-120261904D02*
X194519000Y-120214285D01*
X194471380Y-120119047D01*
X194471380Y-119880952D01*
X194519000Y-119785714D01*
X194566619Y-119738095D01*
X194661857Y-119690476D01*
X194757095Y-119690476D01*
X194899952Y-119738095D01*
X195471380Y-120309523D01*
X195471380Y-119690476D01*
X194471380Y-119357142D02*
X194471380Y-118690476D01*
X195471380Y-119119047D01*
%TO.C,J12*%
X163348476Y-107032380D02*
X163348476Y-107746666D01*
X163300857Y-107889523D01*
X163205619Y-107984761D01*
X163062761Y-108032380D01*
X162967523Y-108032380D01*
X164348476Y-108032380D02*
X163777047Y-108032380D01*
X164062761Y-108032380D02*
X164062761Y-107032380D01*
X163967523Y-107175238D01*
X163872285Y-107270476D01*
X163777047Y-107318095D01*
X164729428Y-107127619D02*
X164777047Y-107080000D01*
X164872285Y-107032380D01*
X165110380Y-107032380D01*
X165205619Y-107080000D01*
X165253238Y-107127619D01*
X165300857Y-107222857D01*
X165300857Y-107318095D01*
X165253238Y-107460952D01*
X164681809Y-108032380D01*
X165300857Y-108032380D01*
%TO.C,Card3*%
X145831071Y-109064142D02*
X145783452Y-109111761D01*
X145640595Y-109159380D01*
X145545357Y-109159380D01*
X145402500Y-109111761D01*
X145307261Y-109016523D01*
X145259642Y-108921285D01*
X145212023Y-108730809D01*
X145212023Y-108587952D01*
X145259642Y-108397476D01*
X145307261Y-108302238D01*
X145402500Y-108207000D01*
X145545357Y-108159380D01*
X145640595Y-108159380D01*
X145783452Y-108207000D01*
X145831071Y-108254619D01*
X146688214Y-109159380D02*
X146688214Y-108635571D01*
X146640595Y-108540333D01*
X146545357Y-108492714D01*
X146354880Y-108492714D01*
X146259642Y-108540333D01*
X146688214Y-109111761D02*
X146592976Y-109159380D01*
X146354880Y-109159380D01*
X146259642Y-109111761D01*
X146212023Y-109016523D01*
X146212023Y-108921285D01*
X146259642Y-108826047D01*
X146354880Y-108778428D01*
X146592976Y-108778428D01*
X146688214Y-108730809D01*
X147164404Y-109159380D02*
X147164404Y-108492714D01*
X147164404Y-108683190D02*
X147212023Y-108587952D01*
X147259642Y-108540333D01*
X147354880Y-108492714D01*
X147450119Y-108492714D01*
X148212023Y-109159380D02*
X148212023Y-108159380D01*
X148212023Y-109111761D02*
X148116785Y-109159380D01*
X147926309Y-109159380D01*
X147831071Y-109111761D01*
X147783452Y-109064142D01*
X147735833Y-108968904D01*
X147735833Y-108683190D01*
X147783452Y-108587952D01*
X147831071Y-108540333D01*
X147926309Y-108492714D01*
X148116785Y-108492714D01*
X148212023Y-108540333D01*
X148592976Y-108159380D02*
X149212023Y-108159380D01*
X148878690Y-108540333D01*
X149021547Y-108540333D01*
X149116785Y-108587952D01*
X149164404Y-108635571D01*
X149212023Y-108730809D01*
X149212023Y-108968904D01*
X149164404Y-109064142D01*
X149116785Y-109111761D01*
X149021547Y-109159380D01*
X148735833Y-109159380D01*
X148640595Y-109111761D01*
X148592976Y-109064142D01*
%TO.C,R19*%
X152471380Y-116731857D02*
X151995190Y-117065190D01*
X152471380Y-117303285D02*
X151471380Y-117303285D01*
X151471380Y-116922333D01*
X151519000Y-116827095D01*
X151566619Y-116779476D01*
X151661857Y-116731857D01*
X151804714Y-116731857D01*
X151899952Y-116779476D01*
X151947571Y-116827095D01*
X151995190Y-116922333D01*
X151995190Y-117303285D01*
X152471380Y-115779476D02*
X152471380Y-116350904D01*
X152471380Y-116065190D02*
X151471380Y-116065190D01*
X151614238Y-116160428D01*
X151709476Y-116255666D01*
X151757095Y-116350904D01*
X152471380Y-115303285D02*
X152471380Y-115112809D01*
X152423761Y-115017571D01*
X152376142Y-114969952D01*
X152233285Y-114874714D01*
X152042809Y-114827095D01*
X151661857Y-114827095D01*
X151566619Y-114874714D01*
X151519000Y-114922333D01*
X151471380Y-115017571D01*
X151471380Y-115208047D01*
X151519000Y-115303285D01*
X151566619Y-115350904D01*
X151661857Y-115398523D01*
X151899952Y-115398523D01*
X151995190Y-115350904D01*
X152042809Y-115303285D01*
X152090428Y-115208047D01*
X152090428Y-115017571D01*
X152042809Y-114922333D01*
X151995190Y-114874714D01*
X151899952Y-114827095D01*
%TO.C,C19*%
X128262142Y-107937142D02*
X128214523Y-107984761D01*
X128071666Y-108032380D01*
X127976428Y-108032380D01*
X127833571Y-107984761D01*
X127738333Y-107889523D01*
X127690714Y-107794285D01*
X127643095Y-107603809D01*
X127643095Y-107460952D01*
X127690714Y-107270476D01*
X127738333Y-107175238D01*
X127833571Y-107080000D01*
X127976428Y-107032380D01*
X128071666Y-107032380D01*
X128214523Y-107080000D01*
X128262142Y-107127619D01*
X129214523Y-108032380D02*
X128643095Y-108032380D01*
X128928809Y-108032380D02*
X128928809Y-107032380D01*
X128833571Y-107175238D01*
X128738333Y-107270476D01*
X128643095Y-107318095D01*
X129690714Y-108032380D02*
X129881190Y-108032380D01*
X129976428Y-107984761D01*
X130024047Y-107937142D01*
X130119285Y-107794285D01*
X130166904Y-107603809D01*
X130166904Y-107222857D01*
X130119285Y-107127619D01*
X130071666Y-107080000D01*
X129976428Y-107032380D01*
X129785952Y-107032380D01*
X129690714Y-107080000D01*
X129643095Y-107127619D01*
X129595476Y-107222857D01*
X129595476Y-107460952D01*
X129643095Y-107556190D01*
X129690714Y-107603809D01*
X129785952Y-107651428D01*
X129976428Y-107651428D01*
X130071666Y-107603809D01*
X130119285Y-107556190D01*
X130166904Y-107460952D01*
%TO.C,U7*%
X156932380Y-133995904D02*
X157741904Y-133995904D01*
X157837142Y-133948285D01*
X157884761Y-133900666D01*
X157932380Y-133805428D01*
X157932380Y-133614952D01*
X157884761Y-133519714D01*
X157837142Y-133472095D01*
X157741904Y-133424476D01*
X156932380Y-133424476D01*
X156932380Y-133043523D02*
X156932380Y-132376857D01*
X157932380Y-132805428D01*
%TO.C,R21*%
X155519380Y-116731857D02*
X155043190Y-117065190D01*
X155519380Y-117303285D02*
X154519380Y-117303285D01*
X154519380Y-116922333D01*
X154567000Y-116827095D01*
X154614619Y-116779476D01*
X154709857Y-116731857D01*
X154852714Y-116731857D01*
X154947952Y-116779476D01*
X154995571Y-116827095D01*
X155043190Y-116922333D01*
X155043190Y-117303285D01*
X154614619Y-116350904D02*
X154567000Y-116303285D01*
X154519380Y-116208047D01*
X154519380Y-115969952D01*
X154567000Y-115874714D01*
X154614619Y-115827095D01*
X154709857Y-115779476D01*
X154805095Y-115779476D01*
X154947952Y-115827095D01*
X155519380Y-116398523D01*
X155519380Y-115779476D01*
X155519380Y-114827095D02*
X155519380Y-115398523D01*
X155519380Y-115112809D02*
X154519380Y-115112809D01*
X154662238Y-115208047D01*
X154757476Y-115303285D01*
X154805095Y-115398523D01*
%TO.C,U8*%
X140803380Y-103261904D02*
X141612904Y-103261904D01*
X141708142Y-103214285D01*
X141755761Y-103166666D01*
X141803380Y-103071428D01*
X141803380Y-102880952D01*
X141755761Y-102785714D01*
X141708142Y-102738095D01*
X141612904Y-102690476D01*
X140803380Y-102690476D01*
X141231952Y-102071428D02*
X141184333Y-102166666D01*
X141136714Y-102214285D01*
X141041476Y-102261904D01*
X140993857Y-102261904D01*
X140898619Y-102214285D01*
X140851000Y-102166666D01*
X140803380Y-102071428D01*
X140803380Y-101880952D01*
X140851000Y-101785714D01*
X140898619Y-101738095D01*
X140993857Y-101690476D01*
X141041476Y-101690476D01*
X141136714Y-101738095D01*
X141184333Y-101785714D01*
X141231952Y-101880952D01*
X141231952Y-102071428D01*
X141279571Y-102166666D01*
X141327190Y-102214285D01*
X141422428Y-102261904D01*
X141612904Y-102261904D01*
X141708142Y-102214285D01*
X141755761Y-102166666D01*
X141803380Y-102071428D01*
X141803380Y-101880952D01*
X141755761Y-101785714D01*
X141708142Y-101738095D01*
X141612904Y-101690476D01*
X141422428Y-101690476D01*
X141327190Y-101738095D01*
X141279571Y-101785714D01*
X141231952Y-101880952D01*
%TO.C,U9*%
X129794095Y-112493380D02*
X129794095Y-113302904D01*
X129841714Y-113398142D01*
X129889333Y-113445761D01*
X129984571Y-113493380D01*
X130175047Y-113493380D01*
X130270285Y-113445761D01*
X130317904Y-113398142D01*
X130365523Y-113302904D01*
X130365523Y-112493380D01*
X130889333Y-113493380D02*
X131079809Y-113493380D01*
X131175047Y-113445761D01*
X131222666Y-113398142D01*
X131317904Y-113255285D01*
X131365523Y-113064809D01*
X131365523Y-112683857D01*
X131317904Y-112588619D01*
X131270285Y-112541000D01*
X131175047Y-112493380D01*
X130984571Y-112493380D01*
X130889333Y-112541000D01*
X130841714Y-112588619D01*
X130794095Y-112683857D01*
X130794095Y-112921952D01*
X130841714Y-113017190D01*
X130889333Y-113064809D01*
X130984571Y-113112428D01*
X131175047Y-113112428D01*
X131270285Y-113064809D01*
X131317904Y-113017190D01*
X131365523Y-112921952D01*
%TO.C,C17*%
X143359142Y-97681857D02*
X143406761Y-97729476D01*
X143454380Y-97872333D01*
X143454380Y-97967571D01*
X143406761Y-98110428D01*
X143311523Y-98205666D01*
X143216285Y-98253285D01*
X143025809Y-98300904D01*
X142882952Y-98300904D01*
X142692476Y-98253285D01*
X142597238Y-98205666D01*
X142502000Y-98110428D01*
X142454380Y-97967571D01*
X142454380Y-97872333D01*
X142502000Y-97729476D01*
X142549619Y-97681857D01*
X143454380Y-96729476D02*
X143454380Y-97300904D01*
X143454380Y-97015190D02*
X142454380Y-97015190D01*
X142597238Y-97110428D01*
X142692476Y-97205666D01*
X142740095Y-97300904D01*
X142454380Y-96396142D02*
X142454380Y-95729476D01*
X143454380Y-96158047D01*
%TO.C,TP3*%
X116594095Y-123161380D02*
X117165523Y-123161380D01*
X116879809Y-124161380D02*
X116879809Y-123161380D01*
X117498857Y-124161380D02*
X117498857Y-123161380D01*
X117879809Y-123161380D01*
X117975047Y-123209000D01*
X118022666Y-123256619D01*
X118070285Y-123351857D01*
X118070285Y-123494714D01*
X118022666Y-123589952D01*
X117975047Y-123637571D01*
X117879809Y-123685190D01*
X117498857Y-123685190D01*
X118403619Y-123161380D02*
X119022666Y-123161380D01*
X118689333Y-123542333D01*
X118832190Y-123542333D01*
X118927428Y-123589952D01*
X118975047Y-123637571D01*
X119022666Y-123732809D01*
X119022666Y-123970904D01*
X118975047Y-124066142D01*
X118927428Y-124113761D01*
X118832190Y-124161380D01*
X118546476Y-124161380D01*
X118451238Y-124113761D01*
X118403619Y-124066142D01*
%TO.C,R15*%
X123055142Y-104984380D02*
X122721809Y-104508190D01*
X122483714Y-104984380D02*
X122483714Y-103984380D01*
X122864666Y-103984380D01*
X122959904Y-104032000D01*
X123007523Y-104079619D01*
X123055142Y-104174857D01*
X123055142Y-104317714D01*
X123007523Y-104412952D01*
X122959904Y-104460571D01*
X122864666Y-104508190D01*
X122483714Y-104508190D01*
X124007523Y-104984380D02*
X123436095Y-104984380D01*
X123721809Y-104984380D02*
X123721809Y-103984380D01*
X123626571Y-104127238D01*
X123531333Y-104222476D01*
X123436095Y-104270095D01*
X124912285Y-103984380D02*
X124436095Y-103984380D01*
X124388476Y-104460571D01*
X124436095Y-104412952D01*
X124531333Y-104365333D01*
X124769428Y-104365333D01*
X124864666Y-104412952D01*
X124912285Y-104460571D01*
X124959904Y-104555809D01*
X124959904Y-104793904D01*
X124912285Y-104889142D01*
X124864666Y-104936761D01*
X124769428Y-104984380D01*
X124531333Y-104984380D01*
X124436095Y-104936761D01*
X124388476Y-104889142D01*
%TO.C,SW3*%
X120292761Y-118565333D02*
X120340380Y-118422476D01*
X120340380Y-118184380D01*
X120292761Y-118089142D01*
X120245142Y-118041523D01*
X120149904Y-117993904D01*
X120054666Y-117993904D01*
X119959428Y-118041523D01*
X119911809Y-118089142D01*
X119864190Y-118184380D01*
X119816571Y-118374857D01*
X119768952Y-118470095D01*
X119721333Y-118517714D01*
X119626095Y-118565333D01*
X119530857Y-118565333D01*
X119435619Y-118517714D01*
X119388000Y-118470095D01*
X119340380Y-118374857D01*
X119340380Y-118136761D01*
X119388000Y-117993904D01*
X119340380Y-117660571D02*
X120340380Y-117422476D01*
X119626095Y-117232000D01*
X120340380Y-117041523D01*
X119340380Y-116803428D01*
X119340380Y-116517714D02*
X119340380Y-115898666D01*
X119721333Y-116232000D01*
X119721333Y-116089142D01*
X119768952Y-115993904D01*
X119816571Y-115946285D01*
X119911809Y-115898666D01*
X120149904Y-115898666D01*
X120245142Y-115946285D01*
X120292761Y-115993904D01*
X120340380Y-116089142D01*
X120340380Y-116374857D01*
X120292761Y-116470095D01*
X120245142Y-116517714D01*
%TO.C,C18*%
X134485142Y-110477142D02*
X134437523Y-110524761D01*
X134294666Y-110572380D01*
X134199428Y-110572380D01*
X134056571Y-110524761D01*
X133961333Y-110429523D01*
X133913714Y-110334285D01*
X133866095Y-110143809D01*
X133866095Y-110000952D01*
X133913714Y-109810476D01*
X133961333Y-109715238D01*
X134056571Y-109620000D01*
X134199428Y-109572380D01*
X134294666Y-109572380D01*
X134437523Y-109620000D01*
X134485142Y-109667619D01*
X135437523Y-110572380D02*
X134866095Y-110572380D01*
X135151809Y-110572380D02*
X135151809Y-109572380D01*
X135056571Y-109715238D01*
X134961333Y-109810476D01*
X134866095Y-109858095D01*
X136008952Y-110000952D02*
X135913714Y-109953333D01*
X135866095Y-109905714D01*
X135818476Y-109810476D01*
X135818476Y-109762857D01*
X135866095Y-109667619D01*
X135913714Y-109620000D01*
X136008952Y-109572380D01*
X136199428Y-109572380D01*
X136294666Y-109620000D01*
X136342285Y-109667619D01*
X136389904Y-109762857D01*
X136389904Y-109810476D01*
X136342285Y-109905714D01*
X136294666Y-109953333D01*
X136199428Y-110000952D01*
X136008952Y-110000952D01*
X135913714Y-110048571D01*
X135866095Y-110096190D01*
X135818476Y-110191428D01*
X135818476Y-110381904D01*
X135866095Y-110477142D01*
X135913714Y-110524761D01*
X136008952Y-110572380D01*
X136199428Y-110572380D01*
X136294666Y-110524761D01*
X136342285Y-110477142D01*
X136389904Y-110381904D01*
X136389904Y-110191428D01*
X136342285Y-110096190D01*
X136294666Y-110048571D01*
X136199428Y-110000952D01*
%TO.C,C15*%
X156837142Y-123558142D02*
X156789523Y-123605761D01*
X156646666Y-123653380D01*
X156551428Y-123653380D01*
X156408571Y-123605761D01*
X156313333Y-123510523D01*
X156265714Y-123415285D01*
X156218095Y-123224809D01*
X156218095Y-123081952D01*
X156265714Y-122891476D01*
X156313333Y-122796238D01*
X156408571Y-122701000D01*
X156551428Y-122653380D01*
X156646666Y-122653380D01*
X156789523Y-122701000D01*
X156837142Y-122748619D01*
X157789523Y-123653380D02*
X157218095Y-123653380D01*
X157503809Y-123653380D02*
X157503809Y-122653380D01*
X157408571Y-122796238D01*
X157313333Y-122891476D01*
X157218095Y-122939095D01*
X158694285Y-122653380D02*
X158218095Y-122653380D01*
X158170476Y-123129571D01*
X158218095Y-123081952D01*
X158313333Y-123034333D01*
X158551428Y-123034333D01*
X158646666Y-123081952D01*
X158694285Y-123129571D01*
X158741904Y-123224809D01*
X158741904Y-123462904D01*
X158694285Y-123558142D01*
X158646666Y-123605761D01*
X158551428Y-123653380D01*
X158313333Y-123653380D01*
X158218095Y-123605761D01*
X158170476Y-123558142D01*
%TO.C,D9*%
X117761904Y-107452380D02*
X117761904Y-106452380D01*
X118000000Y-106452380D01*
X118142857Y-106500000D01*
X118238095Y-106595238D01*
X118285714Y-106690476D01*
X118333333Y-106880952D01*
X118333333Y-107023809D01*
X118285714Y-107214285D01*
X118238095Y-107309523D01*
X118142857Y-107404761D01*
X118000000Y-107452380D01*
X117761904Y-107452380D01*
X118809523Y-107452380D02*
X119000000Y-107452380D01*
X119095238Y-107404761D01*
X119142857Y-107357142D01*
X119238095Y-107214285D01*
X119285714Y-107023809D01*
X119285714Y-106642857D01*
X119238095Y-106547619D01*
X119190476Y-106500000D01*
X119095238Y-106452380D01*
X118904761Y-106452380D01*
X118809523Y-106500000D01*
X118761904Y-106547619D01*
X118714285Y-106642857D01*
X118714285Y-106880952D01*
X118761904Y-106976190D01*
X118809523Y-107023809D01*
X118904761Y-107071428D01*
X119095238Y-107071428D01*
X119190476Y-107023809D01*
X119238095Y-106976190D01*
X119285714Y-106880952D01*
%TO.C,D8*%
X116802380Y-130738095D02*
X115802380Y-130738095D01*
X115802380Y-130500000D01*
X115850000Y-130357142D01*
X115945238Y-130261904D01*
X116040476Y-130214285D01*
X116230952Y-130166666D01*
X116373809Y-130166666D01*
X116564285Y-130214285D01*
X116659523Y-130261904D01*
X116754761Y-130357142D01*
X116802380Y-130500000D01*
X116802380Y-130738095D01*
X116230952Y-129595238D02*
X116183333Y-129690476D01*
X116135714Y-129738095D01*
X116040476Y-129785714D01*
X115992857Y-129785714D01*
X115897619Y-129738095D01*
X115850000Y-129690476D01*
X115802380Y-129595238D01*
X115802380Y-129404761D01*
X115850000Y-129309523D01*
X115897619Y-129261904D01*
X115992857Y-129214285D01*
X116040476Y-129214285D01*
X116135714Y-129261904D01*
X116183333Y-129309523D01*
X116230952Y-129404761D01*
X116230952Y-129595238D01*
X116278571Y-129690476D01*
X116326190Y-129738095D01*
X116421428Y-129785714D01*
X116611904Y-129785714D01*
X116707142Y-129738095D01*
X116754761Y-129690476D01*
X116802380Y-129595238D01*
X116802380Y-129404761D01*
X116754761Y-129309523D01*
X116707142Y-129261904D01*
X116611904Y-129214285D01*
X116421428Y-129214285D01*
X116326190Y-129261904D01*
X116278571Y-129309523D01*
X116230952Y-129404761D01*
%TO.C,R18*%
X155519380Y-120642857D02*
X155043190Y-120976190D01*
X155519380Y-121214285D02*
X154519380Y-121214285D01*
X154519380Y-120833333D01*
X154567000Y-120738095D01*
X154614619Y-120690476D01*
X154709857Y-120642857D01*
X154852714Y-120642857D01*
X154947952Y-120690476D01*
X154995571Y-120738095D01*
X155043190Y-120833333D01*
X155043190Y-121214285D01*
X155519380Y-119690476D02*
X155519380Y-120261904D01*
X155519380Y-119976190D02*
X154519380Y-119976190D01*
X154662238Y-120071428D01*
X154757476Y-120166666D01*
X154805095Y-120261904D01*
X154947952Y-119119047D02*
X154900333Y-119214285D01*
X154852714Y-119261904D01*
X154757476Y-119309523D01*
X154709857Y-119309523D01*
X154614619Y-119261904D01*
X154567000Y-119214285D01*
X154519380Y-119119047D01*
X154519380Y-118928571D01*
X154567000Y-118833333D01*
X154614619Y-118785714D01*
X154709857Y-118738095D01*
X154757476Y-118738095D01*
X154852714Y-118785714D01*
X154900333Y-118833333D01*
X154947952Y-118928571D01*
X154947952Y-119119047D01*
X154995571Y-119214285D01*
X155043190Y-119261904D01*
X155138428Y-119309523D01*
X155328904Y-119309523D01*
X155424142Y-119261904D01*
X155471761Y-119214285D01*
X155519380Y-119119047D01*
X155519380Y-118928571D01*
X155471761Y-118833333D01*
X155424142Y-118785714D01*
X155328904Y-118738095D01*
X155138428Y-118738095D01*
X155043190Y-118785714D01*
X154995571Y-118833333D01*
X154947952Y-118928571D01*
%TO.C,R17*%
X139946142Y-107016380D02*
X139612809Y-106540190D01*
X139374714Y-107016380D02*
X139374714Y-106016380D01*
X139755666Y-106016380D01*
X139850904Y-106064000D01*
X139898523Y-106111619D01*
X139946142Y-106206857D01*
X139946142Y-106349714D01*
X139898523Y-106444952D01*
X139850904Y-106492571D01*
X139755666Y-106540190D01*
X139374714Y-106540190D01*
X140898523Y-107016380D02*
X140327095Y-107016380D01*
X140612809Y-107016380D02*
X140612809Y-106016380D01*
X140517571Y-106159238D01*
X140422333Y-106254476D01*
X140327095Y-106302095D01*
X141231857Y-106016380D02*
X141898523Y-106016380D01*
X141469952Y-107016380D01*
%TO.C,J7*%
X127666666Y-99031380D02*
X127666666Y-99745666D01*
X127619047Y-99888523D01*
X127523809Y-99983761D01*
X127380952Y-100031380D01*
X127285714Y-100031380D01*
X128047619Y-99031380D02*
X128714285Y-99031380D01*
X128285714Y-100031380D01*
%TO.C,C21*%
X128262142Y-110731142D02*
X128214523Y-110778761D01*
X128071666Y-110826380D01*
X127976428Y-110826380D01*
X127833571Y-110778761D01*
X127738333Y-110683523D01*
X127690714Y-110588285D01*
X127643095Y-110397809D01*
X127643095Y-110254952D01*
X127690714Y-110064476D01*
X127738333Y-109969238D01*
X127833571Y-109874000D01*
X127976428Y-109826380D01*
X128071666Y-109826380D01*
X128214523Y-109874000D01*
X128262142Y-109921619D01*
X128643095Y-109921619D02*
X128690714Y-109874000D01*
X128785952Y-109826380D01*
X129024047Y-109826380D01*
X129119285Y-109874000D01*
X129166904Y-109921619D01*
X129214523Y-110016857D01*
X129214523Y-110112095D01*
X129166904Y-110254952D01*
X128595476Y-110826380D01*
X129214523Y-110826380D01*
X130166904Y-110826380D02*
X129595476Y-110826380D01*
X129881190Y-110826380D02*
X129881190Y-109826380D01*
X129785952Y-109969238D01*
X129690714Y-110064476D01*
X129595476Y-110112095D01*
%TO.C,D7*%
X127277904Y-106635380D02*
X127277904Y-105635380D01*
X127516000Y-105635380D01*
X127658857Y-105683000D01*
X127754095Y-105778238D01*
X127801714Y-105873476D01*
X127849333Y-106063952D01*
X127849333Y-106206809D01*
X127801714Y-106397285D01*
X127754095Y-106492523D01*
X127658857Y-106587761D01*
X127516000Y-106635380D01*
X127277904Y-106635380D01*
X128182666Y-105635380D02*
X128849333Y-105635380D01*
X128420761Y-106635380D01*
%TO.C,J8*%
X121332666Y-103222380D02*
X121332666Y-103936666D01*
X121285047Y-104079523D01*
X121189809Y-104174761D01*
X121046952Y-104222380D01*
X120951714Y-104222380D01*
X121951714Y-103650952D02*
X121856476Y-103603333D01*
X121808857Y-103555714D01*
X121761238Y-103460476D01*
X121761238Y-103412857D01*
X121808857Y-103317619D01*
X121856476Y-103270000D01*
X121951714Y-103222380D01*
X122142190Y-103222380D01*
X122237428Y-103270000D01*
X122285047Y-103317619D01*
X122332666Y-103412857D01*
X122332666Y-103460476D01*
X122285047Y-103555714D01*
X122237428Y-103603333D01*
X122142190Y-103650952D01*
X121951714Y-103650952D01*
X121856476Y-103698571D01*
X121808857Y-103746190D01*
X121761238Y-103841428D01*
X121761238Y-104031904D01*
X121808857Y-104127142D01*
X121856476Y-104174761D01*
X121951714Y-104222380D01*
X122142190Y-104222380D01*
X122237428Y-104174761D01*
X122285047Y-104127142D01*
X122332666Y-104031904D01*
X122332666Y-103841428D01*
X122285047Y-103746190D01*
X122237428Y-103698571D01*
X122142190Y-103650952D01*
%TO.C,C20*%
X139946142Y-105524142D02*
X139898523Y-105571761D01*
X139755666Y-105619380D01*
X139660428Y-105619380D01*
X139517571Y-105571761D01*
X139422333Y-105476523D01*
X139374714Y-105381285D01*
X139327095Y-105190809D01*
X139327095Y-105047952D01*
X139374714Y-104857476D01*
X139422333Y-104762238D01*
X139517571Y-104667000D01*
X139660428Y-104619380D01*
X139755666Y-104619380D01*
X139898523Y-104667000D01*
X139946142Y-104714619D01*
X140327095Y-104714619D02*
X140374714Y-104667000D01*
X140469952Y-104619380D01*
X140708047Y-104619380D01*
X140803285Y-104667000D01*
X140850904Y-104714619D01*
X140898523Y-104809857D01*
X140898523Y-104905095D01*
X140850904Y-105047952D01*
X140279476Y-105619380D01*
X140898523Y-105619380D01*
X141517571Y-104619380D02*
X141612809Y-104619380D01*
X141708047Y-104667000D01*
X141755666Y-104714619D01*
X141803285Y-104809857D01*
X141850904Y-105000333D01*
X141850904Y-105238428D01*
X141803285Y-105428904D01*
X141755666Y-105524142D01*
X141708047Y-105571761D01*
X141612809Y-105619380D01*
X141517571Y-105619380D01*
X141422333Y-105571761D01*
X141374714Y-105524142D01*
X141327095Y-105428904D01*
X141279476Y-105238428D01*
X141279476Y-105000333D01*
X141327095Y-104809857D01*
X141374714Y-104714619D01*
X141422333Y-104667000D01*
X141517571Y-104619380D01*
%TO.C,R16*%
X116802380Y-126642857D02*
X116326190Y-126976190D01*
X116802380Y-127214285D02*
X115802380Y-127214285D01*
X115802380Y-126833333D01*
X115850000Y-126738095D01*
X115897619Y-126690476D01*
X115992857Y-126642857D01*
X116135714Y-126642857D01*
X116230952Y-126690476D01*
X116278571Y-126738095D01*
X116326190Y-126833333D01*
X116326190Y-127214285D01*
X116802380Y-125690476D02*
X116802380Y-126261904D01*
X116802380Y-125976190D02*
X115802380Y-125976190D01*
X115945238Y-126071428D01*
X116040476Y-126166666D01*
X116088095Y-126261904D01*
X115802380Y-124833333D02*
X115802380Y-125023809D01*
X115850000Y-125119047D01*
X115897619Y-125166666D01*
X116040476Y-125261904D01*
X116230952Y-125309523D01*
X116611904Y-125309523D01*
X116707142Y-125261904D01*
X116754761Y-125214285D01*
X116802380Y-125119047D01*
X116802380Y-124928571D01*
X116754761Y-124833333D01*
X116707142Y-124785714D01*
X116611904Y-124738095D01*
X116373809Y-124738095D01*
X116278571Y-124785714D01*
X116230952Y-124833333D01*
X116183333Y-124928571D01*
X116183333Y-125119047D01*
X116230952Y-125214285D01*
X116278571Y-125261904D01*
X116373809Y-125309523D01*
%TO.C,C16*%
X141708142Y-97681857D02*
X141755761Y-97729476D01*
X141803380Y-97872333D01*
X141803380Y-97967571D01*
X141755761Y-98110428D01*
X141660523Y-98205666D01*
X141565285Y-98253285D01*
X141374809Y-98300904D01*
X141231952Y-98300904D01*
X141041476Y-98253285D01*
X140946238Y-98205666D01*
X140851000Y-98110428D01*
X140803380Y-97967571D01*
X140803380Y-97872333D01*
X140851000Y-97729476D01*
X140898619Y-97681857D01*
X141803380Y-96729476D02*
X141803380Y-97300904D01*
X141803380Y-97015190D02*
X140803380Y-97015190D01*
X140946238Y-97110428D01*
X141041476Y-97205666D01*
X141089095Y-97300904D01*
X140803380Y-95872333D02*
X140803380Y-96062809D01*
X140851000Y-96158047D01*
X140898619Y-96205666D01*
X141041476Y-96300904D01*
X141231952Y-96348523D01*
X141612904Y-96348523D01*
X141708142Y-96300904D01*
X141755761Y-96253285D01*
X141803380Y-96158047D01*
X141803380Y-95967571D01*
X141755761Y-95872333D01*
X141708142Y-95824714D01*
X141612904Y-95777095D01*
X141374809Y-95777095D01*
X141279571Y-95824714D01*
X141231952Y-95872333D01*
X141184333Y-95967571D01*
X141184333Y-96158047D01*
X141231952Y-96253285D01*
X141279571Y-96300904D01*
X141374809Y-96348523D01*
%TO.C,R20*%
X152471380Y-120642857D02*
X151995190Y-120976190D01*
X152471380Y-121214285D02*
X151471380Y-121214285D01*
X151471380Y-120833333D01*
X151519000Y-120738095D01*
X151566619Y-120690476D01*
X151661857Y-120642857D01*
X151804714Y-120642857D01*
X151899952Y-120690476D01*
X151947571Y-120738095D01*
X151995190Y-120833333D01*
X151995190Y-121214285D01*
X151566619Y-120261904D02*
X151519000Y-120214285D01*
X151471380Y-120119047D01*
X151471380Y-119880952D01*
X151519000Y-119785714D01*
X151566619Y-119738095D01*
X151661857Y-119690476D01*
X151757095Y-119690476D01*
X151899952Y-119738095D01*
X152471380Y-120309523D01*
X152471380Y-119690476D01*
X151471380Y-119071428D02*
X151471380Y-118976190D01*
X151519000Y-118880952D01*
X151566619Y-118833333D01*
X151661857Y-118785714D01*
X151852333Y-118738095D01*
X152090428Y-118738095D01*
X152280904Y-118785714D01*
X152376142Y-118833333D01*
X152423761Y-118880952D01*
X152471380Y-118976190D01*
X152471380Y-119071428D01*
X152423761Y-119166666D01*
X152376142Y-119214285D01*
X152280904Y-119261904D01*
X152090428Y-119309523D01*
X151852333Y-119309523D01*
X151661857Y-119261904D01*
X151566619Y-119214285D01*
X151519000Y-119166666D01*
X151471380Y-119071428D01*
%TO.C,J9*%
X120824666Y-107032380D02*
X120824666Y-107746666D01*
X120777047Y-107889523D01*
X120681809Y-107984761D01*
X120538952Y-108032380D01*
X120443714Y-108032380D01*
X121348476Y-108032380D02*
X121538952Y-108032380D01*
X121634190Y-107984761D01*
X121681809Y-107937142D01*
X121777047Y-107794285D01*
X121824666Y-107603809D01*
X121824666Y-107222857D01*
X121777047Y-107127619D01*
X121729428Y-107080000D01*
X121634190Y-107032380D01*
X121443714Y-107032380D01*
X121348476Y-107080000D01*
X121300857Y-107127619D01*
X121253238Y-107222857D01*
X121253238Y-107460952D01*
X121300857Y-107556190D01*
X121348476Y-107603809D01*
X121443714Y-107651428D01*
X121634190Y-107651428D01*
X121729428Y-107603809D01*
X121777047Y-107556190D01*
X121824666Y-107460952D01*
%TO.C,Card2*%
X188831071Y-70064142D02*
X188783452Y-70111761D01*
X188640595Y-70159380D01*
X188545357Y-70159380D01*
X188402500Y-70111761D01*
X188307261Y-70016523D01*
X188259642Y-69921285D01*
X188212023Y-69730809D01*
X188212023Y-69587952D01*
X188259642Y-69397476D01*
X188307261Y-69302238D01*
X188402500Y-69207000D01*
X188545357Y-69159380D01*
X188640595Y-69159380D01*
X188783452Y-69207000D01*
X188831071Y-69254619D01*
X189688214Y-70159380D02*
X189688214Y-69635571D01*
X189640595Y-69540333D01*
X189545357Y-69492714D01*
X189354880Y-69492714D01*
X189259642Y-69540333D01*
X189688214Y-70111761D02*
X189592976Y-70159380D01*
X189354880Y-70159380D01*
X189259642Y-70111761D01*
X189212023Y-70016523D01*
X189212023Y-69921285D01*
X189259642Y-69826047D01*
X189354880Y-69778428D01*
X189592976Y-69778428D01*
X189688214Y-69730809D01*
X190164404Y-70159380D02*
X190164404Y-69492714D01*
X190164404Y-69683190D02*
X190212023Y-69587952D01*
X190259642Y-69540333D01*
X190354880Y-69492714D01*
X190450119Y-69492714D01*
X191212023Y-70159380D02*
X191212023Y-69159380D01*
X191212023Y-70111761D02*
X191116785Y-70159380D01*
X190926309Y-70159380D01*
X190831071Y-70111761D01*
X190783452Y-70064142D01*
X190735833Y-69968904D01*
X190735833Y-69683190D01*
X190783452Y-69587952D01*
X190831071Y-69540333D01*
X190926309Y-69492714D01*
X191116785Y-69492714D01*
X191212023Y-69540333D01*
X191640595Y-69254619D02*
X191688214Y-69207000D01*
X191783452Y-69159380D01*
X192021547Y-69159380D01*
X192116785Y-69207000D01*
X192164404Y-69254619D01*
X192212023Y-69349857D01*
X192212023Y-69445095D01*
X192164404Y-69587952D01*
X191592976Y-70159380D01*
X192212023Y-70159380D01*
%TO.C,R12*%
X195471380Y-77731857D02*
X194995190Y-78065190D01*
X195471380Y-78303285D02*
X194471380Y-78303285D01*
X194471380Y-77922333D01*
X194519000Y-77827095D01*
X194566619Y-77779476D01*
X194661857Y-77731857D01*
X194804714Y-77731857D01*
X194899952Y-77779476D01*
X194947571Y-77827095D01*
X194995190Y-77922333D01*
X194995190Y-78303285D01*
X195471380Y-76779476D02*
X195471380Y-77350904D01*
X195471380Y-77065190D02*
X194471380Y-77065190D01*
X194614238Y-77160428D01*
X194709476Y-77255666D01*
X194757095Y-77350904D01*
X194566619Y-76398523D02*
X194519000Y-76350904D01*
X194471380Y-76255666D01*
X194471380Y-76017571D01*
X194519000Y-75922333D01*
X194566619Y-75874714D01*
X194661857Y-75827095D01*
X194757095Y-75827095D01*
X194899952Y-75874714D01*
X195471380Y-76446142D01*
X195471380Y-75827095D01*
%TO.C,C12*%
X171262142Y-68937142D02*
X171214523Y-68984761D01*
X171071666Y-69032380D01*
X170976428Y-69032380D01*
X170833571Y-68984761D01*
X170738333Y-68889523D01*
X170690714Y-68794285D01*
X170643095Y-68603809D01*
X170643095Y-68460952D01*
X170690714Y-68270476D01*
X170738333Y-68175238D01*
X170833571Y-68080000D01*
X170976428Y-68032380D01*
X171071666Y-68032380D01*
X171214523Y-68080000D01*
X171262142Y-68127619D01*
X172214523Y-69032380D02*
X171643095Y-69032380D01*
X171928809Y-69032380D02*
X171928809Y-68032380D01*
X171833571Y-68175238D01*
X171738333Y-68270476D01*
X171643095Y-68318095D01*
X172595476Y-68127619D02*
X172643095Y-68080000D01*
X172738333Y-68032380D01*
X172976428Y-68032380D01*
X173071666Y-68080000D01*
X173119285Y-68127619D01*
X173166904Y-68222857D01*
X173166904Y-68318095D01*
X173119285Y-68460952D01*
X172547857Y-69032380D01*
X173166904Y-69032380D01*
%TO.C,U4*%
X199932380Y-94995904D02*
X200741904Y-94995904D01*
X200837142Y-94948285D01*
X200884761Y-94900666D01*
X200932380Y-94805428D01*
X200932380Y-94614952D01*
X200884761Y-94519714D01*
X200837142Y-94472095D01*
X200741904Y-94424476D01*
X199932380Y-94424476D01*
X200265714Y-93519714D02*
X200932380Y-93519714D01*
X199884761Y-93757809D02*
X200599047Y-93995904D01*
X200599047Y-93376857D01*
%TO.C,R14*%
X198519380Y-77731857D02*
X198043190Y-78065190D01*
X198519380Y-78303285D02*
X197519380Y-78303285D01*
X197519380Y-77922333D01*
X197567000Y-77827095D01*
X197614619Y-77779476D01*
X197709857Y-77731857D01*
X197852714Y-77731857D01*
X197947952Y-77779476D01*
X197995571Y-77827095D01*
X198043190Y-77922333D01*
X198043190Y-78303285D01*
X198519380Y-76779476D02*
X198519380Y-77350904D01*
X198519380Y-77065190D02*
X197519380Y-77065190D01*
X197662238Y-77160428D01*
X197757476Y-77255666D01*
X197805095Y-77350904D01*
X197852714Y-75922333D02*
X198519380Y-75922333D01*
X197471761Y-76160428D02*
X198186047Y-76398523D01*
X198186047Y-75779476D01*
%TO.C,U5*%
X183803380Y-64261904D02*
X184612904Y-64261904D01*
X184708142Y-64214285D01*
X184755761Y-64166666D01*
X184803380Y-64071428D01*
X184803380Y-63880952D01*
X184755761Y-63785714D01*
X184708142Y-63738095D01*
X184612904Y-63690476D01*
X183803380Y-63690476D01*
X183803380Y-62738095D02*
X183803380Y-63214285D01*
X184279571Y-63261904D01*
X184231952Y-63214285D01*
X184184333Y-63119047D01*
X184184333Y-62880952D01*
X184231952Y-62785714D01*
X184279571Y-62738095D01*
X184374809Y-62690476D01*
X184612904Y-62690476D01*
X184708142Y-62738095D01*
X184755761Y-62785714D01*
X184803380Y-62880952D01*
X184803380Y-63119047D01*
X184755761Y-63214285D01*
X184708142Y-63261904D01*
%TO.C,U6*%
X172794095Y-73493380D02*
X172794095Y-74302904D01*
X172841714Y-74398142D01*
X172889333Y-74445761D01*
X172984571Y-74493380D01*
X173175047Y-74493380D01*
X173270285Y-74445761D01*
X173317904Y-74398142D01*
X173365523Y-74302904D01*
X173365523Y-73493380D01*
X174270285Y-73493380D02*
X174079809Y-73493380D01*
X173984571Y-73541000D01*
X173936952Y-73588619D01*
X173841714Y-73731476D01*
X173794095Y-73921952D01*
X173794095Y-74302904D01*
X173841714Y-74398142D01*
X173889333Y-74445761D01*
X173984571Y-74493380D01*
X174175047Y-74493380D01*
X174270285Y-74445761D01*
X174317904Y-74398142D01*
X174365523Y-74302904D01*
X174365523Y-74064809D01*
X174317904Y-73969571D01*
X174270285Y-73921952D01*
X174175047Y-73874333D01*
X173984571Y-73874333D01*
X173889333Y-73921952D01*
X173841714Y-73969571D01*
X173794095Y-74064809D01*
%TO.C,C10*%
X186359142Y-58681857D02*
X186406761Y-58729476D01*
X186454380Y-58872333D01*
X186454380Y-58967571D01*
X186406761Y-59110428D01*
X186311523Y-59205666D01*
X186216285Y-59253285D01*
X186025809Y-59300904D01*
X185882952Y-59300904D01*
X185692476Y-59253285D01*
X185597238Y-59205666D01*
X185502000Y-59110428D01*
X185454380Y-58967571D01*
X185454380Y-58872333D01*
X185502000Y-58729476D01*
X185549619Y-58681857D01*
X186454380Y-57729476D02*
X186454380Y-58300904D01*
X186454380Y-58015190D02*
X185454380Y-58015190D01*
X185597238Y-58110428D01*
X185692476Y-58205666D01*
X185740095Y-58300904D01*
X185454380Y-57110428D02*
X185454380Y-57015190D01*
X185502000Y-56919952D01*
X185549619Y-56872333D01*
X185644857Y-56824714D01*
X185835333Y-56777095D01*
X186073428Y-56777095D01*
X186263904Y-56824714D01*
X186359142Y-56872333D01*
X186406761Y-56919952D01*
X186454380Y-57015190D01*
X186454380Y-57110428D01*
X186406761Y-57205666D01*
X186359142Y-57253285D01*
X186263904Y-57300904D01*
X186073428Y-57348523D01*
X185835333Y-57348523D01*
X185644857Y-57300904D01*
X185549619Y-57253285D01*
X185502000Y-57205666D01*
X185454380Y-57110428D01*
%TO.C,TP2*%
X159594095Y-84161380D02*
X160165523Y-84161380D01*
X159879809Y-85161380D02*
X159879809Y-84161380D01*
X160498857Y-85161380D02*
X160498857Y-84161380D01*
X160879809Y-84161380D01*
X160975047Y-84209000D01*
X161022666Y-84256619D01*
X161070285Y-84351857D01*
X161070285Y-84494714D01*
X161022666Y-84589952D01*
X160975047Y-84637571D01*
X160879809Y-84685190D01*
X160498857Y-84685190D01*
X161451238Y-84256619D02*
X161498857Y-84209000D01*
X161594095Y-84161380D01*
X161832190Y-84161380D01*
X161927428Y-84209000D01*
X161975047Y-84256619D01*
X162022666Y-84351857D01*
X162022666Y-84447095D01*
X161975047Y-84589952D01*
X161403619Y-85161380D01*
X162022666Y-85161380D01*
%TO.C,R8*%
X166531333Y-65984380D02*
X166198000Y-65508190D01*
X165959904Y-65984380D02*
X165959904Y-64984380D01*
X166340857Y-64984380D01*
X166436095Y-65032000D01*
X166483714Y-65079619D01*
X166531333Y-65174857D01*
X166531333Y-65317714D01*
X166483714Y-65412952D01*
X166436095Y-65460571D01*
X166340857Y-65508190D01*
X165959904Y-65508190D01*
X167102761Y-65412952D02*
X167007523Y-65365333D01*
X166959904Y-65317714D01*
X166912285Y-65222476D01*
X166912285Y-65174857D01*
X166959904Y-65079619D01*
X167007523Y-65032000D01*
X167102761Y-64984380D01*
X167293238Y-64984380D01*
X167388476Y-65032000D01*
X167436095Y-65079619D01*
X167483714Y-65174857D01*
X167483714Y-65222476D01*
X167436095Y-65317714D01*
X167388476Y-65365333D01*
X167293238Y-65412952D01*
X167102761Y-65412952D01*
X167007523Y-65460571D01*
X166959904Y-65508190D01*
X166912285Y-65603428D01*
X166912285Y-65793904D01*
X166959904Y-65889142D01*
X167007523Y-65936761D01*
X167102761Y-65984380D01*
X167293238Y-65984380D01*
X167388476Y-65936761D01*
X167436095Y-65889142D01*
X167483714Y-65793904D01*
X167483714Y-65603428D01*
X167436095Y-65508190D01*
X167388476Y-65460571D01*
X167293238Y-65412952D01*
%TO.C,SW2*%
X163292761Y-79565333D02*
X163340380Y-79422476D01*
X163340380Y-79184380D01*
X163292761Y-79089142D01*
X163245142Y-79041523D01*
X163149904Y-78993904D01*
X163054666Y-78993904D01*
X162959428Y-79041523D01*
X162911809Y-79089142D01*
X162864190Y-79184380D01*
X162816571Y-79374857D01*
X162768952Y-79470095D01*
X162721333Y-79517714D01*
X162626095Y-79565333D01*
X162530857Y-79565333D01*
X162435619Y-79517714D01*
X162388000Y-79470095D01*
X162340380Y-79374857D01*
X162340380Y-79136761D01*
X162388000Y-78993904D01*
X162340380Y-78660571D02*
X163340380Y-78422476D01*
X162626095Y-78232000D01*
X163340380Y-78041523D01*
X162340380Y-77803428D01*
X162435619Y-77470095D02*
X162388000Y-77422476D01*
X162340380Y-77327238D01*
X162340380Y-77089142D01*
X162388000Y-76993904D01*
X162435619Y-76946285D01*
X162530857Y-76898666D01*
X162626095Y-76898666D01*
X162768952Y-76946285D01*
X163340380Y-77517714D01*
X163340380Y-76898666D01*
%TO.C,C11*%
X177485142Y-71477142D02*
X177437523Y-71524761D01*
X177294666Y-71572380D01*
X177199428Y-71572380D01*
X177056571Y-71524761D01*
X176961333Y-71429523D01*
X176913714Y-71334285D01*
X176866095Y-71143809D01*
X176866095Y-71000952D01*
X176913714Y-70810476D01*
X176961333Y-70715238D01*
X177056571Y-70620000D01*
X177199428Y-70572380D01*
X177294666Y-70572380D01*
X177437523Y-70620000D01*
X177485142Y-70667619D01*
X178437523Y-71572380D02*
X177866095Y-71572380D01*
X178151809Y-71572380D02*
X178151809Y-70572380D01*
X178056571Y-70715238D01*
X177961333Y-70810476D01*
X177866095Y-70858095D01*
X179389904Y-71572380D02*
X178818476Y-71572380D01*
X179104190Y-71572380D02*
X179104190Y-70572380D01*
X179008952Y-70715238D01*
X178913714Y-70810476D01*
X178818476Y-70858095D01*
%TO.C,C8*%
X200313333Y-84558142D02*
X200265714Y-84605761D01*
X200122857Y-84653380D01*
X200027619Y-84653380D01*
X199884761Y-84605761D01*
X199789523Y-84510523D01*
X199741904Y-84415285D01*
X199694285Y-84224809D01*
X199694285Y-84081952D01*
X199741904Y-83891476D01*
X199789523Y-83796238D01*
X199884761Y-83701000D01*
X200027619Y-83653380D01*
X200122857Y-83653380D01*
X200265714Y-83701000D01*
X200313333Y-83748619D01*
X200884761Y-84081952D02*
X200789523Y-84034333D01*
X200741904Y-83986714D01*
X200694285Y-83891476D01*
X200694285Y-83843857D01*
X200741904Y-83748619D01*
X200789523Y-83701000D01*
X200884761Y-83653380D01*
X201075238Y-83653380D01*
X201170476Y-83701000D01*
X201218095Y-83748619D01*
X201265714Y-83843857D01*
X201265714Y-83891476D01*
X201218095Y-83986714D01*
X201170476Y-84034333D01*
X201075238Y-84081952D01*
X200884761Y-84081952D01*
X200789523Y-84129571D01*
X200741904Y-84177190D01*
X200694285Y-84272428D01*
X200694285Y-84462904D01*
X200741904Y-84558142D01*
X200789523Y-84605761D01*
X200884761Y-84653380D01*
X201075238Y-84653380D01*
X201170476Y-84605761D01*
X201218095Y-84558142D01*
X201265714Y-84462904D01*
X201265714Y-84272428D01*
X201218095Y-84177190D01*
X201170476Y-84129571D01*
X201075238Y-84081952D01*
%TO.C,D6*%
X160761904Y-68452380D02*
X160761904Y-67452380D01*
X161000000Y-67452380D01*
X161142857Y-67500000D01*
X161238095Y-67595238D01*
X161285714Y-67690476D01*
X161333333Y-67880952D01*
X161333333Y-68023809D01*
X161285714Y-68214285D01*
X161238095Y-68309523D01*
X161142857Y-68404761D01*
X161000000Y-68452380D01*
X160761904Y-68452380D01*
X162190476Y-67452380D02*
X162000000Y-67452380D01*
X161904761Y-67500000D01*
X161857142Y-67547619D01*
X161761904Y-67690476D01*
X161714285Y-67880952D01*
X161714285Y-68261904D01*
X161761904Y-68357142D01*
X161809523Y-68404761D01*
X161904761Y-68452380D01*
X162095238Y-68452380D01*
X162190476Y-68404761D01*
X162238095Y-68357142D01*
X162285714Y-68261904D01*
X162285714Y-68023809D01*
X162238095Y-67928571D01*
X162190476Y-67880952D01*
X162095238Y-67833333D01*
X161904761Y-67833333D01*
X161809523Y-67880952D01*
X161761904Y-67928571D01*
X161714285Y-68023809D01*
%TO.C,D5*%
X159802380Y-91738095D02*
X158802380Y-91738095D01*
X158802380Y-91500000D01*
X158850000Y-91357142D01*
X158945238Y-91261904D01*
X159040476Y-91214285D01*
X159230952Y-91166666D01*
X159373809Y-91166666D01*
X159564285Y-91214285D01*
X159659523Y-91261904D01*
X159754761Y-91357142D01*
X159802380Y-91500000D01*
X159802380Y-91738095D01*
X158802380Y-90261904D02*
X158802380Y-90738095D01*
X159278571Y-90785714D01*
X159230952Y-90738095D01*
X159183333Y-90642857D01*
X159183333Y-90404761D01*
X159230952Y-90309523D01*
X159278571Y-90261904D01*
X159373809Y-90214285D01*
X159611904Y-90214285D01*
X159707142Y-90261904D01*
X159754761Y-90309523D01*
X159802380Y-90404761D01*
X159802380Y-90642857D01*
X159754761Y-90738095D01*
X159707142Y-90785714D01*
%TO.C,R11*%
X198519380Y-81642857D02*
X198043190Y-81976190D01*
X198519380Y-82214285D02*
X197519380Y-82214285D01*
X197519380Y-81833333D01*
X197567000Y-81738095D01*
X197614619Y-81690476D01*
X197709857Y-81642857D01*
X197852714Y-81642857D01*
X197947952Y-81690476D01*
X197995571Y-81738095D01*
X198043190Y-81833333D01*
X198043190Y-82214285D01*
X198519380Y-80690476D02*
X198519380Y-81261904D01*
X198519380Y-80976190D02*
X197519380Y-80976190D01*
X197662238Y-81071428D01*
X197757476Y-81166666D01*
X197805095Y-81261904D01*
X198519380Y-79738095D02*
X198519380Y-80309523D01*
X198519380Y-80023809D02*
X197519380Y-80023809D01*
X197662238Y-80119047D01*
X197757476Y-80214285D01*
X197805095Y-80309523D01*
%TO.C,R10*%
X182946142Y-68016380D02*
X182612809Y-67540190D01*
X182374714Y-68016380D02*
X182374714Y-67016380D01*
X182755666Y-67016380D01*
X182850904Y-67064000D01*
X182898523Y-67111619D01*
X182946142Y-67206857D01*
X182946142Y-67349714D01*
X182898523Y-67444952D01*
X182850904Y-67492571D01*
X182755666Y-67540190D01*
X182374714Y-67540190D01*
X183898523Y-68016380D02*
X183327095Y-68016380D01*
X183612809Y-68016380D02*
X183612809Y-67016380D01*
X183517571Y-67159238D01*
X183422333Y-67254476D01*
X183327095Y-67302095D01*
X184517571Y-67016380D02*
X184612809Y-67016380D01*
X184708047Y-67064000D01*
X184755666Y-67111619D01*
X184803285Y-67206857D01*
X184850904Y-67397333D01*
X184850904Y-67635428D01*
X184803285Y-67825904D01*
X184755666Y-67921142D01*
X184708047Y-67968761D01*
X184612809Y-68016380D01*
X184517571Y-68016380D01*
X184422333Y-67968761D01*
X184374714Y-67921142D01*
X184327095Y-67825904D01*
X184279476Y-67635428D01*
X184279476Y-67397333D01*
X184327095Y-67206857D01*
X184374714Y-67111619D01*
X184422333Y-67064000D01*
X184517571Y-67016380D01*
%TO.C,J4*%
X170666666Y-60031380D02*
X170666666Y-60745666D01*
X170619047Y-60888523D01*
X170523809Y-60983761D01*
X170380952Y-61031380D01*
X170285714Y-61031380D01*
X171571428Y-60364714D02*
X171571428Y-61031380D01*
X171333333Y-59983761D02*
X171095238Y-60698047D01*
X171714285Y-60698047D01*
%TO.C,C14*%
X171262142Y-71731142D02*
X171214523Y-71778761D01*
X171071666Y-71826380D01*
X170976428Y-71826380D01*
X170833571Y-71778761D01*
X170738333Y-71683523D01*
X170690714Y-71588285D01*
X170643095Y-71397809D01*
X170643095Y-71254952D01*
X170690714Y-71064476D01*
X170738333Y-70969238D01*
X170833571Y-70874000D01*
X170976428Y-70826380D01*
X171071666Y-70826380D01*
X171214523Y-70874000D01*
X171262142Y-70921619D01*
X172214523Y-71826380D02*
X171643095Y-71826380D01*
X171928809Y-71826380D02*
X171928809Y-70826380D01*
X171833571Y-70969238D01*
X171738333Y-71064476D01*
X171643095Y-71112095D01*
X173071666Y-71159714D02*
X173071666Y-71826380D01*
X172833571Y-70778761D02*
X172595476Y-71493047D01*
X173214523Y-71493047D01*
%TO.C,D4*%
X170277904Y-67635380D02*
X170277904Y-66635380D01*
X170516000Y-66635380D01*
X170658857Y-66683000D01*
X170754095Y-66778238D01*
X170801714Y-66873476D01*
X170849333Y-67063952D01*
X170849333Y-67206809D01*
X170801714Y-67397285D01*
X170754095Y-67492523D01*
X170658857Y-67587761D01*
X170516000Y-67635380D01*
X170277904Y-67635380D01*
X171706476Y-66968714D02*
X171706476Y-67635380D01*
X171468380Y-66587761D02*
X171230285Y-67302047D01*
X171849333Y-67302047D01*
%TO.C,J5*%
X164332666Y-64222380D02*
X164332666Y-64936666D01*
X164285047Y-65079523D01*
X164189809Y-65174761D01*
X164046952Y-65222380D01*
X163951714Y-65222380D01*
X165285047Y-64222380D02*
X164808857Y-64222380D01*
X164761238Y-64698571D01*
X164808857Y-64650952D01*
X164904095Y-64603333D01*
X165142190Y-64603333D01*
X165237428Y-64650952D01*
X165285047Y-64698571D01*
X165332666Y-64793809D01*
X165332666Y-65031904D01*
X165285047Y-65127142D01*
X165237428Y-65174761D01*
X165142190Y-65222380D01*
X164904095Y-65222380D01*
X164808857Y-65174761D01*
X164761238Y-65127142D01*
%TO.C,C13*%
X182946142Y-66524142D02*
X182898523Y-66571761D01*
X182755666Y-66619380D01*
X182660428Y-66619380D01*
X182517571Y-66571761D01*
X182422333Y-66476523D01*
X182374714Y-66381285D01*
X182327095Y-66190809D01*
X182327095Y-66047952D01*
X182374714Y-65857476D01*
X182422333Y-65762238D01*
X182517571Y-65667000D01*
X182660428Y-65619380D01*
X182755666Y-65619380D01*
X182898523Y-65667000D01*
X182946142Y-65714619D01*
X183898523Y-66619380D02*
X183327095Y-66619380D01*
X183612809Y-66619380D02*
X183612809Y-65619380D01*
X183517571Y-65762238D01*
X183422333Y-65857476D01*
X183327095Y-65905095D01*
X184231857Y-65619380D02*
X184850904Y-65619380D01*
X184517571Y-66000333D01*
X184660428Y-66000333D01*
X184755666Y-66047952D01*
X184803285Y-66095571D01*
X184850904Y-66190809D01*
X184850904Y-66428904D01*
X184803285Y-66524142D01*
X184755666Y-66571761D01*
X184660428Y-66619380D01*
X184374714Y-66619380D01*
X184279476Y-66571761D01*
X184231857Y-66524142D01*
%TO.C,R9*%
X159802380Y-87166666D02*
X159326190Y-87500000D01*
X159802380Y-87738095D02*
X158802380Y-87738095D01*
X158802380Y-87357142D01*
X158850000Y-87261904D01*
X158897619Y-87214285D01*
X158992857Y-87166666D01*
X159135714Y-87166666D01*
X159230952Y-87214285D01*
X159278571Y-87261904D01*
X159326190Y-87357142D01*
X159326190Y-87738095D01*
X159802380Y-86690476D02*
X159802380Y-86500000D01*
X159754761Y-86404761D01*
X159707142Y-86357142D01*
X159564285Y-86261904D01*
X159373809Y-86214285D01*
X158992857Y-86214285D01*
X158897619Y-86261904D01*
X158850000Y-86309523D01*
X158802380Y-86404761D01*
X158802380Y-86595238D01*
X158850000Y-86690476D01*
X158897619Y-86738095D01*
X158992857Y-86785714D01*
X159230952Y-86785714D01*
X159326190Y-86738095D01*
X159373809Y-86690476D01*
X159421428Y-86595238D01*
X159421428Y-86404761D01*
X159373809Y-86309523D01*
X159326190Y-86261904D01*
X159230952Y-86214285D01*
%TO.C,C9*%
X184708142Y-58205666D02*
X184755761Y-58253285D01*
X184803380Y-58396142D01*
X184803380Y-58491380D01*
X184755761Y-58634238D01*
X184660523Y-58729476D01*
X184565285Y-58777095D01*
X184374809Y-58824714D01*
X184231952Y-58824714D01*
X184041476Y-58777095D01*
X183946238Y-58729476D01*
X183851000Y-58634238D01*
X183803380Y-58491380D01*
X183803380Y-58396142D01*
X183851000Y-58253285D01*
X183898619Y-58205666D01*
X184803380Y-57729476D02*
X184803380Y-57539000D01*
X184755761Y-57443761D01*
X184708142Y-57396142D01*
X184565285Y-57300904D01*
X184374809Y-57253285D01*
X183993857Y-57253285D01*
X183898619Y-57300904D01*
X183851000Y-57348523D01*
X183803380Y-57443761D01*
X183803380Y-57634238D01*
X183851000Y-57729476D01*
X183898619Y-57777095D01*
X183993857Y-57824714D01*
X184231952Y-57824714D01*
X184327190Y-57777095D01*
X184374809Y-57729476D01*
X184422428Y-57634238D01*
X184422428Y-57443761D01*
X184374809Y-57348523D01*
X184327190Y-57300904D01*
X184231952Y-57253285D01*
%TO.C,R13*%
X195471380Y-81642857D02*
X194995190Y-81976190D01*
X195471380Y-82214285D02*
X194471380Y-82214285D01*
X194471380Y-81833333D01*
X194519000Y-81738095D01*
X194566619Y-81690476D01*
X194661857Y-81642857D01*
X194804714Y-81642857D01*
X194899952Y-81690476D01*
X194947571Y-81738095D01*
X194995190Y-81833333D01*
X194995190Y-82214285D01*
X195471380Y-80690476D02*
X195471380Y-81261904D01*
X195471380Y-80976190D02*
X194471380Y-80976190D01*
X194614238Y-81071428D01*
X194709476Y-81166666D01*
X194757095Y-81261904D01*
X194471380Y-80357142D02*
X194471380Y-79738095D01*
X194852333Y-80071428D01*
X194852333Y-79928571D01*
X194899952Y-79833333D01*
X194947571Y-79785714D01*
X195042809Y-79738095D01*
X195280904Y-79738095D01*
X195376142Y-79785714D01*
X195423761Y-79833333D01*
X195471380Y-79928571D01*
X195471380Y-80214285D01*
X195423761Y-80309523D01*
X195376142Y-80357142D01*
%TO.C,J6*%
X163824666Y-68032380D02*
X163824666Y-68746666D01*
X163777047Y-68889523D01*
X163681809Y-68984761D01*
X163538952Y-69032380D01*
X163443714Y-69032380D01*
X164729428Y-68032380D02*
X164538952Y-68032380D01*
X164443714Y-68080000D01*
X164396095Y-68127619D01*
X164300857Y-68270476D01*
X164253238Y-68460952D01*
X164253238Y-68841904D01*
X164300857Y-68937142D01*
X164348476Y-68984761D01*
X164443714Y-69032380D01*
X164634190Y-69032380D01*
X164729428Y-68984761D01*
X164777047Y-68937142D01*
X164824666Y-68841904D01*
X164824666Y-68603809D01*
X164777047Y-68508571D01*
X164729428Y-68460952D01*
X164634190Y-68413333D01*
X164443714Y-68413333D01*
X164348476Y-68460952D01*
X164300857Y-68508571D01*
X164253238Y-68603809D01*
%TO.C,Card1*%
X145831071Y-70064142D02*
X145783452Y-70111761D01*
X145640595Y-70159380D01*
X145545357Y-70159380D01*
X145402500Y-70111761D01*
X145307261Y-70016523D01*
X145259642Y-69921285D01*
X145212023Y-69730809D01*
X145212023Y-69587952D01*
X145259642Y-69397476D01*
X145307261Y-69302238D01*
X145402500Y-69207000D01*
X145545357Y-69159380D01*
X145640595Y-69159380D01*
X145783452Y-69207000D01*
X145831071Y-69254619D01*
X146688214Y-70159380D02*
X146688214Y-69635571D01*
X146640595Y-69540333D01*
X146545357Y-69492714D01*
X146354880Y-69492714D01*
X146259642Y-69540333D01*
X146688214Y-70111761D02*
X146592976Y-70159380D01*
X146354880Y-70159380D01*
X146259642Y-70111761D01*
X146212023Y-70016523D01*
X146212023Y-69921285D01*
X146259642Y-69826047D01*
X146354880Y-69778428D01*
X146592976Y-69778428D01*
X146688214Y-69730809D01*
X147164404Y-70159380D02*
X147164404Y-69492714D01*
X147164404Y-69683190D02*
X147212023Y-69587952D01*
X147259642Y-69540333D01*
X147354880Y-69492714D01*
X147450119Y-69492714D01*
X148212023Y-70159380D02*
X148212023Y-69159380D01*
X148212023Y-70111761D02*
X148116785Y-70159380D01*
X147926309Y-70159380D01*
X147831071Y-70111761D01*
X147783452Y-70064142D01*
X147735833Y-69968904D01*
X147735833Y-69683190D01*
X147783452Y-69587952D01*
X147831071Y-69540333D01*
X147926309Y-69492714D01*
X148116785Y-69492714D01*
X148212023Y-69540333D01*
X149212023Y-70159380D02*
X148640595Y-70159380D01*
X148926309Y-70159380D02*
X148926309Y-69159380D01*
X148831071Y-69302238D01*
X148735833Y-69397476D01*
X148640595Y-69445095D01*
%TO.C,R5*%
X152471380Y-77255666D02*
X151995190Y-77589000D01*
X152471380Y-77827095D02*
X151471380Y-77827095D01*
X151471380Y-77446142D01*
X151519000Y-77350904D01*
X151566619Y-77303285D01*
X151661857Y-77255666D01*
X151804714Y-77255666D01*
X151899952Y-77303285D01*
X151947571Y-77350904D01*
X151995190Y-77446142D01*
X151995190Y-77827095D01*
X151471380Y-76350904D02*
X151471380Y-76827095D01*
X151947571Y-76874714D01*
X151899952Y-76827095D01*
X151852333Y-76731857D01*
X151852333Y-76493761D01*
X151899952Y-76398523D01*
X151947571Y-76350904D01*
X152042809Y-76303285D01*
X152280904Y-76303285D01*
X152376142Y-76350904D01*
X152423761Y-76398523D01*
X152471380Y-76493761D01*
X152471380Y-76731857D01*
X152423761Y-76827095D01*
X152376142Y-76874714D01*
%TO.C,U3*%
X129794095Y-73493380D02*
X129794095Y-74302904D01*
X129841714Y-74398142D01*
X129889333Y-74445761D01*
X129984571Y-74493380D01*
X130175047Y-74493380D01*
X130270285Y-74445761D01*
X130317904Y-74398142D01*
X130365523Y-74302904D01*
X130365523Y-73493380D01*
X130746476Y-73493380D02*
X131365523Y-73493380D01*
X131032190Y-73874333D01*
X131175047Y-73874333D01*
X131270285Y-73921952D01*
X131317904Y-73969571D01*
X131365523Y-74064809D01*
X131365523Y-74302904D01*
X131317904Y-74398142D01*
X131270285Y-74445761D01*
X131175047Y-74493380D01*
X130889333Y-74493380D01*
X130794095Y-74445761D01*
X130746476Y-74398142D01*
%TO.C,TP1*%
X116594095Y-84161380D02*
X117165523Y-84161380D01*
X116879809Y-85161380D02*
X116879809Y-84161380D01*
X117498857Y-85161380D02*
X117498857Y-84161380D01*
X117879809Y-84161380D01*
X117975047Y-84209000D01*
X118022666Y-84256619D01*
X118070285Y-84351857D01*
X118070285Y-84494714D01*
X118022666Y-84589952D01*
X117975047Y-84637571D01*
X117879809Y-84685190D01*
X117498857Y-84685190D01*
X119022666Y-85161380D02*
X118451238Y-85161380D01*
X118736952Y-85161380D02*
X118736952Y-84161380D01*
X118641714Y-84304238D01*
X118546476Y-84399476D01*
X118451238Y-84447095D01*
%TO.C,C5*%
X128738333Y-68937142D02*
X128690714Y-68984761D01*
X128547857Y-69032380D01*
X128452619Y-69032380D01*
X128309761Y-68984761D01*
X128214523Y-68889523D01*
X128166904Y-68794285D01*
X128119285Y-68603809D01*
X128119285Y-68460952D01*
X128166904Y-68270476D01*
X128214523Y-68175238D01*
X128309761Y-68080000D01*
X128452619Y-68032380D01*
X128547857Y-68032380D01*
X128690714Y-68080000D01*
X128738333Y-68127619D01*
X129643095Y-68032380D02*
X129166904Y-68032380D01*
X129119285Y-68508571D01*
X129166904Y-68460952D01*
X129262142Y-68413333D01*
X129500238Y-68413333D01*
X129595476Y-68460952D01*
X129643095Y-68508571D01*
X129690714Y-68603809D01*
X129690714Y-68841904D01*
X129643095Y-68937142D01*
X129595476Y-68984761D01*
X129500238Y-69032380D01*
X129262142Y-69032380D01*
X129166904Y-68984761D01*
X129119285Y-68937142D01*
%TO.C,U1*%
X156932380Y-94995904D02*
X157741904Y-94995904D01*
X157837142Y-94948285D01*
X157884761Y-94900666D01*
X157932380Y-94805428D01*
X157932380Y-94614952D01*
X157884761Y-94519714D01*
X157837142Y-94472095D01*
X157741904Y-94424476D01*
X156932380Y-94424476D01*
X157932380Y-93424476D02*
X157932380Y-93995904D01*
X157932380Y-93710190D02*
X156932380Y-93710190D01*
X157075238Y-93805428D01*
X157170476Y-93900666D01*
X157218095Y-93995904D01*
%TO.C,C3*%
X143359142Y-58205666D02*
X143406761Y-58253285D01*
X143454380Y-58396142D01*
X143454380Y-58491380D01*
X143406761Y-58634238D01*
X143311523Y-58729476D01*
X143216285Y-58777095D01*
X143025809Y-58824714D01*
X142882952Y-58824714D01*
X142692476Y-58777095D01*
X142597238Y-58729476D01*
X142502000Y-58634238D01*
X142454380Y-58491380D01*
X142454380Y-58396142D01*
X142502000Y-58253285D01*
X142549619Y-58205666D01*
X142454380Y-57872333D02*
X142454380Y-57253285D01*
X142835333Y-57586619D01*
X142835333Y-57443761D01*
X142882952Y-57348523D01*
X142930571Y-57300904D01*
X143025809Y-57253285D01*
X143263904Y-57253285D01*
X143359142Y-57300904D01*
X143406761Y-57348523D01*
X143454380Y-57443761D01*
X143454380Y-57729476D01*
X143406761Y-57824714D01*
X143359142Y-57872333D01*
%TO.C,U2*%
X140803380Y-64261904D02*
X141612904Y-64261904D01*
X141708142Y-64214285D01*
X141755761Y-64166666D01*
X141803380Y-64071428D01*
X141803380Y-63880952D01*
X141755761Y-63785714D01*
X141708142Y-63738095D01*
X141612904Y-63690476D01*
X140803380Y-63690476D01*
X140898619Y-63261904D02*
X140851000Y-63214285D01*
X140803380Y-63119047D01*
X140803380Y-62880952D01*
X140851000Y-62785714D01*
X140898619Y-62738095D01*
X140993857Y-62690476D01*
X141089095Y-62690476D01*
X141231952Y-62738095D01*
X141803380Y-63309523D01*
X141803380Y-62690476D01*
%TO.C,R7*%
X155519380Y-77255666D02*
X155043190Y-77589000D01*
X155519380Y-77827095D02*
X154519380Y-77827095D01*
X154519380Y-77446142D01*
X154567000Y-77350904D01*
X154614619Y-77303285D01*
X154709857Y-77255666D01*
X154852714Y-77255666D01*
X154947952Y-77303285D01*
X154995571Y-77350904D01*
X155043190Y-77446142D01*
X155043190Y-77827095D01*
X154519380Y-76922333D02*
X154519380Y-76255666D01*
X155519380Y-76684238D01*
%TO.C,C1*%
X157313333Y-84558142D02*
X157265714Y-84605761D01*
X157122857Y-84653380D01*
X157027619Y-84653380D01*
X156884761Y-84605761D01*
X156789523Y-84510523D01*
X156741904Y-84415285D01*
X156694285Y-84224809D01*
X156694285Y-84081952D01*
X156741904Y-83891476D01*
X156789523Y-83796238D01*
X156884761Y-83701000D01*
X157027619Y-83653380D01*
X157122857Y-83653380D01*
X157265714Y-83701000D01*
X157313333Y-83748619D01*
X158265714Y-84653380D02*
X157694285Y-84653380D01*
X157980000Y-84653380D02*
X157980000Y-83653380D01*
X157884761Y-83796238D01*
X157789523Y-83891476D01*
X157694285Y-83939095D01*
%TO.C,C4*%
X134961333Y-71477142D02*
X134913714Y-71524761D01*
X134770857Y-71572380D01*
X134675619Y-71572380D01*
X134532761Y-71524761D01*
X134437523Y-71429523D01*
X134389904Y-71334285D01*
X134342285Y-71143809D01*
X134342285Y-71000952D01*
X134389904Y-70810476D01*
X134437523Y-70715238D01*
X134532761Y-70620000D01*
X134675619Y-70572380D01*
X134770857Y-70572380D01*
X134913714Y-70620000D01*
X134961333Y-70667619D01*
X135818476Y-70905714D02*
X135818476Y-71572380D01*
X135580380Y-70524761D02*
X135342285Y-71239047D01*
X135961333Y-71239047D01*
%TO.C,SW1*%
X120292761Y-79565333D02*
X120340380Y-79422476D01*
X120340380Y-79184380D01*
X120292761Y-79089142D01*
X120245142Y-79041523D01*
X120149904Y-78993904D01*
X120054666Y-78993904D01*
X119959428Y-79041523D01*
X119911809Y-79089142D01*
X119864190Y-79184380D01*
X119816571Y-79374857D01*
X119768952Y-79470095D01*
X119721333Y-79517714D01*
X119626095Y-79565333D01*
X119530857Y-79565333D01*
X119435619Y-79517714D01*
X119388000Y-79470095D01*
X119340380Y-79374857D01*
X119340380Y-79136761D01*
X119388000Y-78993904D01*
X119340380Y-78660571D02*
X120340380Y-78422476D01*
X119626095Y-78232000D01*
X120340380Y-78041523D01*
X119340380Y-77803428D01*
X120340380Y-76898666D02*
X120340380Y-77470095D01*
X120340380Y-77184380D02*
X119340380Y-77184380D01*
X119483238Y-77279619D01*
X119578476Y-77374857D01*
X119626095Y-77470095D01*
%TO.C,R1*%
X123531333Y-65984380D02*
X123198000Y-65508190D01*
X122959904Y-65984380D02*
X122959904Y-64984380D01*
X123340857Y-64984380D01*
X123436095Y-65032000D01*
X123483714Y-65079619D01*
X123531333Y-65174857D01*
X123531333Y-65317714D01*
X123483714Y-65412952D01*
X123436095Y-65460571D01*
X123340857Y-65508190D01*
X122959904Y-65508190D01*
X124483714Y-65984380D02*
X123912285Y-65984380D01*
X124198000Y-65984380D02*
X124198000Y-64984380D01*
X124102761Y-65127238D01*
X124007523Y-65222476D01*
X123912285Y-65270095D01*
%TO.C,D1*%
X127277904Y-67635380D02*
X127277904Y-66635380D01*
X127516000Y-66635380D01*
X127658857Y-66683000D01*
X127754095Y-66778238D01*
X127801714Y-66873476D01*
X127849333Y-67063952D01*
X127849333Y-67206809D01*
X127801714Y-67397285D01*
X127754095Y-67492523D01*
X127658857Y-67587761D01*
X127516000Y-67635380D01*
X127277904Y-67635380D01*
X128801714Y-67635380D02*
X128230285Y-67635380D01*
X128516000Y-67635380D02*
X128516000Y-66635380D01*
X128420761Y-66778238D01*
X128325523Y-66873476D01*
X128230285Y-66921095D01*
%TO.C,C2*%
X141708142Y-58205666D02*
X141755761Y-58253285D01*
X141803380Y-58396142D01*
X141803380Y-58491380D01*
X141755761Y-58634238D01*
X141660523Y-58729476D01*
X141565285Y-58777095D01*
X141374809Y-58824714D01*
X141231952Y-58824714D01*
X141041476Y-58777095D01*
X140946238Y-58729476D01*
X140851000Y-58634238D01*
X140803380Y-58491380D01*
X140803380Y-58396142D01*
X140851000Y-58253285D01*
X140898619Y-58205666D01*
X140898619Y-57824714D02*
X140851000Y-57777095D01*
X140803380Y-57681857D01*
X140803380Y-57443761D01*
X140851000Y-57348523D01*
X140898619Y-57300904D01*
X140993857Y-57253285D01*
X141089095Y-57253285D01*
X141231952Y-57300904D01*
X141803380Y-57872333D01*
X141803380Y-57253285D01*
%TO.C,C7*%
X128738333Y-71731142D02*
X128690714Y-71778761D01*
X128547857Y-71826380D01*
X128452619Y-71826380D01*
X128309761Y-71778761D01*
X128214523Y-71683523D01*
X128166904Y-71588285D01*
X128119285Y-71397809D01*
X128119285Y-71254952D01*
X128166904Y-71064476D01*
X128214523Y-70969238D01*
X128309761Y-70874000D01*
X128452619Y-70826380D01*
X128547857Y-70826380D01*
X128690714Y-70874000D01*
X128738333Y-70921619D01*
X129071666Y-70826380D02*
X129738333Y-70826380D01*
X129309761Y-71826380D01*
%TO.C,J1*%
X127666666Y-60031380D02*
X127666666Y-60745666D01*
X127619047Y-60888523D01*
X127523809Y-60983761D01*
X127380952Y-61031380D01*
X127285714Y-61031380D01*
X128666666Y-61031380D02*
X128095238Y-61031380D01*
X128380952Y-61031380D02*
X128380952Y-60031380D01*
X128285714Y-60174238D01*
X128190476Y-60269476D01*
X128095238Y-60317095D01*
%TO.C,C6*%
X140422333Y-66524142D02*
X140374714Y-66571761D01*
X140231857Y-66619380D01*
X140136619Y-66619380D01*
X139993761Y-66571761D01*
X139898523Y-66476523D01*
X139850904Y-66381285D01*
X139803285Y-66190809D01*
X139803285Y-66047952D01*
X139850904Y-65857476D01*
X139898523Y-65762238D01*
X139993761Y-65667000D01*
X140136619Y-65619380D01*
X140231857Y-65619380D01*
X140374714Y-65667000D01*
X140422333Y-65714619D01*
X141279476Y-65619380D02*
X141089000Y-65619380D01*
X140993761Y-65667000D01*
X140946142Y-65714619D01*
X140850904Y-65857476D01*
X140803285Y-66047952D01*
X140803285Y-66428904D01*
X140850904Y-66524142D01*
X140898523Y-66571761D01*
X140993761Y-66619380D01*
X141184238Y-66619380D01*
X141279476Y-66571761D01*
X141327095Y-66524142D01*
X141374714Y-66428904D01*
X141374714Y-66190809D01*
X141327095Y-66095571D01*
X141279476Y-66047952D01*
X141184238Y-66000333D01*
X140993761Y-66000333D01*
X140898523Y-66047952D01*
X140850904Y-66095571D01*
X140803285Y-66190809D01*
%TO.C,R6*%
X152471380Y-81166666D02*
X151995190Y-81500000D01*
X152471380Y-81738095D02*
X151471380Y-81738095D01*
X151471380Y-81357142D01*
X151519000Y-81261904D01*
X151566619Y-81214285D01*
X151661857Y-81166666D01*
X151804714Y-81166666D01*
X151899952Y-81214285D01*
X151947571Y-81261904D01*
X151995190Y-81357142D01*
X151995190Y-81738095D01*
X151471380Y-80309523D02*
X151471380Y-80500000D01*
X151519000Y-80595238D01*
X151566619Y-80642857D01*
X151709476Y-80738095D01*
X151899952Y-80785714D01*
X152280904Y-80785714D01*
X152376142Y-80738095D01*
X152423761Y-80690476D01*
X152471380Y-80595238D01*
X152471380Y-80404761D01*
X152423761Y-80309523D01*
X152376142Y-80261904D01*
X152280904Y-80214285D01*
X152042809Y-80214285D01*
X151947571Y-80261904D01*
X151899952Y-80309523D01*
X151852333Y-80404761D01*
X151852333Y-80595238D01*
X151899952Y-80690476D01*
X151947571Y-80738095D01*
X152042809Y-80785714D01*
%TO.C,J2*%
X121332666Y-64222380D02*
X121332666Y-64936666D01*
X121285047Y-65079523D01*
X121189809Y-65174761D01*
X121046952Y-65222380D01*
X120951714Y-65222380D01*
X121761238Y-64317619D02*
X121808857Y-64270000D01*
X121904095Y-64222380D01*
X122142190Y-64222380D01*
X122237428Y-64270000D01*
X122285047Y-64317619D01*
X122332666Y-64412857D01*
X122332666Y-64508095D01*
X122285047Y-64650952D01*
X121713619Y-65222380D01*
X122332666Y-65222380D01*
%TO.C,J3*%
X120824666Y-68032380D02*
X120824666Y-68746666D01*
X120777047Y-68889523D01*
X120681809Y-68984761D01*
X120538952Y-69032380D01*
X120443714Y-69032380D01*
X121205619Y-68032380D02*
X121824666Y-68032380D01*
X121491333Y-68413333D01*
X121634190Y-68413333D01*
X121729428Y-68460952D01*
X121777047Y-68508571D01*
X121824666Y-68603809D01*
X121824666Y-68841904D01*
X121777047Y-68937142D01*
X121729428Y-68984761D01*
X121634190Y-69032380D01*
X121348476Y-69032380D01*
X121253238Y-68984761D01*
X121205619Y-68937142D01*
%TO.C,R2*%
X116802380Y-87166666D02*
X116326190Y-87500000D01*
X116802380Y-87738095D02*
X115802380Y-87738095D01*
X115802380Y-87357142D01*
X115850000Y-87261904D01*
X115897619Y-87214285D01*
X115992857Y-87166666D01*
X116135714Y-87166666D01*
X116230952Y-87214285D01*
X116278571Y-87261904D01*
X116326190Y-87357142D01*
X116326190Y-87738095D01*
X115897619Y-86785714D02*
X115850000Y-86738095D01*
X115802380Y-86642857D01*
X115802380Y-86404761D01*
X115850000Y-86309523D01*
X115897619Y-86261904D01*
X115992857Y-86214285D01*
X116088095Y-86214285D01*
X116230952Y-86261904D01*
X116802380Y-86833333D01*
X116802380Y-86214285D01*
%TO.C,R4*%
X155519380Y-81166666D02*
X155043190Y-81500000D01*
X155519380Y-81738095D02*
X154519380Y-81738095D01*
X154519380Y-81357142D01*
X154567000Y-81261904D01*
X154614619Y-81214285D01*
X154709857Y-81166666D01*
X154852714Y-81166666D01*
X154947952Y-81214285D01*
X154995571Y-81261904D01*
X155043190Y-81357142D01*
X155043190Y-81738095D01*
X154852714Y-80309523D02*
X155519380Y-80309523D01*
X154471761Y-80547619D02*
X155186047Y-80785714D01*
X155186047Y-80166666D01*
%TO.C,R3*%
X140422333Y-68016380D02*
X140089000Y-67540190D01*
X139850904Y-68016380D02*
X139850904Y-67016380D01*
X140231857Y-67016380D01*
X140327095Y-67064000D01*
X140374714Y-67111619D01*
X140422333Y-67206857D01*
X140422333Y-67349714D01*
X140374714Y-67444952D01*
X140327095Y-67492571D01*
X140231857Y-67540190D01*
X139850904Y-67540190D01*
X140755666Y-67016380D02*
X141374714Y-67016380D01*
X141041380Y-67397333D01*
X141184238Y-67397333D01*
X141279476Y-67444952D01*
X141327095Y-67492571D01*
X141374714Y-67587809D01*
X141374714Y-67825904D01*
X141327095Y-67921142D01*
X141279476Y-67968761D01*
X141184238Y-68016380D01*
X140898523Y-68016380D01*
X140803285Y-67968761D01*
X140755666Y-67921142D01*
%TO.C,D3*%
X117761904Y-68452380D02*
X117761904Y-67452380D01*
X118000000Y-67452380D01*
X118142857Y-67500000D01*
X118238095Y-67595238D01*
X118285714Y-67690476D01*
X118333333Y-67880952D01*
X118333333Y-68023809D01*
X118285714Y-68214285D01*
X118238095Y-68309523D01*
X118142857Y-68404761D01*
X118000000Y-68452380D01*
X117761904Y-68452380D01*
X118666666Y-67452380D02*
X119285714Y-67452380D01*
X118952380Y-67833333D01*
X119095238Y-67833333D01*
X119190476Y-67880952D01*
X119238095Y-67928571D01*
X119285714Y-68023809D01*
X119285714Y-68261904D01*
X119238095Y-68357142D01*
X119190476Y-68404761D01*
X119095238Y-68452380D01*
X118809523Y-68452380D01*
X118714285Y-68404761D01*
X118666666Y-68357142D01*
%TO.C,D2*%
X116802380Y-91738095D02*
X115802380Y-91738095D01*
X115802380Y-91500000D01*
X115850000Y-91357142D01*
X115945238Y-91261904D01*
X116040476Y-91214285D01*
X116230952Y-91166666D01*
X116373809Y-91166666D01*
X116564285Y-91214285D01*
X116659523Y-91261904D01*
X116754761Y-91357142D01*
X116802380Y-91500000D01*
X116802380Y-91738095D01*
X115897619Y-90785714D02*
X115850000Y-90738095D01*
X115802380Y-90642857D01*
X115802380Y-90404761D01*
X115850000Y-90309523D01*
X115897619Y-90261904D01*
X115992857Y-90214285D01*
X116088095Y-90214285D01*
X116230952Y-90261904D01*
X116802380Y-90833333D01*
X116802380Y-90214285D01*
D11*
%TO.C,Card4*%
X199866000Y-108906000D02*
X199866000Y-101397000D01*
X199866000Y-98984000D02*
X199866000Y-95936000D01*
X199866000Y-96833000D02*
X191500000Y-96834000D01*
X199866000Y-95936000D02*
X185134000Y-95936000D01*
X185134000Y-95936000D02*
X185134000Y-98834000D01*
X191500000Y-96834000D02*
X188563000Y-95937000D01*
X185134000Y-101500000D02*
X185134000Y-108993000D01*
X199866000Y-96409000D02*
X199866000Y-96833000D01*
D12*
X189714000Y-110472000D02*
X186615000Y-110473000D01*
D13*
%TO.C,R26*%
X197235000Y-115772936D02*
X197235000Y-116227064D01*
X195765000Y-115772936D02*
X195765000Y-116227064D01*
%TO.C,C26*%
X174310748Y-107734000D02*
X174833252Y-107734000D01*
X174310748Y-109204000D02*
X174833252Y-109204000D01*
%TO.C,U10*%
X195390000Y-128500000D02*
X195390000Y-132100000D01*
X200610000Y-128500000D02*
X200610000Y-130700000D01*
X195390000Y-128500000D02*
X195390000Y-126300000D01*
X200610000Y-128500000D02*
X200610000Y-126300000D01*
%TO.C,R28*%
X200235000Y-115772936D02*
X200235000Y-116227064D01*
X198765000Y-115772936D02*
X198765000Y-116227064D01*
%TO.C,U11*%
X183410000Y-104410000D02*
X182150000Y-104410000D01*
X176590000Y-104410000D02*
X177850000Y-104410000D01*
X183410000Y-98400000D02*
X183410000Y-104410000D01*
X176590000Y-100650000D02*
X176590000Y-104410000D01*
%TO.C,U12*%
X193351000Y-112608000D02*
X175351000Y-112608000D01*
X175351000Y-112608000D02*
X175351000Y-113108000D01*
X175201000Y-131958000D02*
X175201000Y-130958000D01*
X193351000Y-112608000D02*
X193351000Y-113108000D01*
X193351000Y-131058000D02*
X193351000Y-131808000D01*
X193501000Y-131058000D02*
X193501000Y-131958000D01*
X193501000Y-113108000D02*
X193501000Y-112458000D01*
X175201000Y-131958000D02*
X176201000Y-131958000D01*
X193501000Y-131958000D02*
X192501000Y-131958000D01*
X193501000Y-112458000D02*
X192501000Y-112458000D01*
X175351000Y-131808000D02*
X176651000Y-131808000D01*
X193351000Y-131808000D02*
X192001000Y-131808000D01*
X175351000Y-130958000D02*
X175351000Y-131808000D01*
X175151000Y-112458000D02*
X176251000Y-112458000D01*
%TO.C,C24*%
X181738748Y-96265000D02*
X182261252Y-96265000D01*
X181738748Y-97735000D02*
X182261252Y-97735000D01*
%TO.C,TP4*%
X159940000Y-118440000D02*
X161000000Y-118440000D01*
X159940000Y-119500000D02*
X159940000Y-118440000D01*
X162060000Y-120500000D02*
X162060000Y-122560000D01*
X159940000Y-120500000D02*
X159940000Y-122560000D01*
X159940000Y-122560000D02*
X162060000Y-122560000D01*
X159940000Y-120500000D02*
X162060000Y-120500000D01*
%TO.C,R22*%
X166272936Y-106735000D02*
X166727064Y-106735000D01*
X166272936Y-105265000D02*
X166727064Y-105265000D01*
%TO.C,SW4*%
X159150000Y-115560000D02*
X159150000Y-109440000D01*
X162850000Y-115560000D02*
X159150000Y-115560000D01*
X159150000Y-109440000D02*
X162850000Y-109440000D01*
X162850000Y-109440000D02*
X162850000Y-115560000D01*
%TO.C,C25*%
X178389252Y-107734000D02*
X177866748Y-107734000D01*
X178389252Y-109204000D02*
X177866748Y-109204000D01*
%TO.C,C22*%
X197238748Y-123735000D02*
X197761252Y-123735000D01*
X197238748Y-122265000D02*
X197761252Y-122265000D01*
%TO.C,D12*%
X163750000Y-104000000D02*
X159850000Y-104000000D01*
X163750000Y-106000000D02*
X163750000Y-104000000D01*
X163750000Y-106000000D02*
X159850000Y-106000000D01*
%TO.C,D11*%
X160040000Y-131685000D02*
X161960000Y-131685000D01*
X160040000Y-129000000D02*
X160040000Y-131685000D01*
X161960000Y-131685000D02*
X161960000Y-129000000D01*
%TO.C,R25*%
X198765000Y-119772936D02*
X198765000Y-120227064D01*
X200235000Y-119772936D02*
X200235000Y-120227064D01*
%TO.C,R24*%
X181456936Y-109766000D02*
X181911064Y-109766000D01*
X181456936Y-111236000D02*
X181911064Y-111236000D01*
%TO.C,J10*%
X175700000Y-95600000D02*
X166300000Y-95600000D01*
X166300000Y-97500000D02*
X166300000Y-95600000D01*
X175700000Y-101400000D02*
X175700000Y-99400000D01*
X166300000Y-101400000D02*
X166300000Y-99400000D01*
X175700000Y-97500000D02*
X175700000Y-95600000D01*
%TO.C,C28*%
X174310748Y-109766000D02*
X174833252Y-109766000D01*
X174310748Y-111236000D02*
X174833252Y-111236000D01*
%TO.C,D10*%
X176750000Y-107000000D02*
X172850000Y-107000000D01*
X176750000Y-105000000D02*
X172850000Y-105000000D01*
X176750000Y-107000000D02*
X176750000Y-105000000D01*
%TO.C,C27*%
X181945252Y-109132000D02*
X181422748Y-109132000D01*
X181945252Y-107662000D02*
X181422748Y-107662000D01*
%TO.C,R23*%
X160265000Y-126227064D02*
X160265000Y-125772936D01*
X161735000Y-126227064D02*
X161735000Y-125772936D01*
%TO.C,C23*%
X178238748Y-96265000D02*
X178761252Y-96265000D01*
X178238748Y-97735000D02*
X178761252Y-97735000D01*
%TO.C,R27*%
X197235000Y-119772936D02*
X197235000Y-120227064D01*
X195765000Y-119772936D02*
X195765000Y-120227064D01*
%TO.C,J12*%
X165400000Y-133260000D02*
X170600000Y-133260000D01*
X170600000Y-108310000D02*
X171960000Y-108310000D01*
X165400000Y-112370000D02*
X165400000Y-113390000D01*
X170600000Y-107740000D02*
X170600000Y-108310000D01*
X170600000Y-109830000D02*
X170600000Y-110850000D01*
X165400000Y-107740000D02*
X165400000Y-108310000D01*
X165400000Y-109830000D02*
X165400000Y-110850000D01*
X170600000Y-119990000D02*
X170600000Y-121010000D01*
X165400000Y-130150000D02*
X165400000Y-131170000D01*
X165400000Y-125070000D02*
X165400000Y-126090000D01*
X165400000Y-119990000D02*
X165400000Y-121010000D01*
X170600000Y-132690000D02*
X170600000Y-133260000D01*
X170600000Y-112370000D02*
X170600000Y-113390000D01*
X170600000Y-125070000D02*
X170600000Y-126090000D01*
X165400000Y-122530000D02*
X165400000Y-123550000D01*
X165400000Y-127610000D02*
X165400000Y-128630000D01*
X170600000Y-122530000D02*
X170600000Y-123550000D01*
X165400000Y-132690000D02*
X165400000Y-133260000D01*
X170600000Y-114910000D02*
X170600000Y-115930000D01*
X170600000Y-127610000D02*
X170600000Y-128630000D01*
X170600000Y-130150000D02*
X170600000Y-131170000D01*
X170600000Y-117450000D02*
X170600000Y-118470000D01*
X165400000Y-107740000D02*
X170600000Y-107740000D01*
X165400000Y-114910000D02*
X165400000Y-115930000D01*
X165400000Y-117450000D02*
X165400000Y-118470000D01*
D11*
%TO.C,Card3*%
X156866000Y-108906000D02*
X156866000Y-101397000D01*
X156866000Y-98984000D02*
X156866000Y-95936000D01*
X156866000Y-96833000D02*
X148500000Y-96834000D01*
X156866000Y-95936000D02*
X142134000Y-95936000D01*
X142134000Y-95936000D02*
X142134000Y-98834000D01*
X148500000Y-96834000D02*
X145563000Y-95937000D01*
X142134000Y-101500000D02*
X142134000Y-108993000D01*
X156866000Y-96409000D02*
X156866000Y-96833000D01*
D12*
X146714000Y-110472000D02*
X143615000Y-110473000D01*
D13*
%TO.C,R19*%
X154235000Y-115772936D02*
X154235000Y-116227064D01*
X152765000Y-115772936D02*
X152765000Y-116227064D01*
%TO.C,C19*%
X131310748Y-107734000D02*
X131833252Y-107734000D01*
X131310748Y-109204000D02*
X131833252Y-109204000D01*
%TO.C,U7*%
X152390000Y-128500000D02*
X152390000Y-132100000D01*
X157610000Y-128500000D02*
X157610000Y-130700000D01*
X152390000Y-128500000D02*
X152390000Y-126300000D01*
X157610000Y-128500000D02*
X157610000Y-126300000D01*
%TO.C,R21*%
X157235000Y-115772936D02*
X157235000Y-116227064D01*
X155765000Y-115772936D02*
X155765000Y-116227064D01*
%TO.C,U8*%
X140410000Y-104410000D02*
X139150000Y-104410000D01*
X133590000Y-104410000D02*
X134850000Y-104410000D01*
X140410000Y-98400000D02*
X140410000Y-104410000D01*
X133590000Y-100650000D02*
X133590000Y-104410000D01*
%TO.C,U9*%
X150351000Y-112608000D02*
X132351000Y-112608000D01*
X132351000Y-112608000D02*
X132351000Y-113108000D01*
X132201000Y-131958000D02*
X132201000Y-130958000D01*
X150351000Y-112608000D02*
X150351000Y-113108000D01*
X150351000Y-131058000D02*
X150351000Y-131808000D01*
X150501000Y-131058000D02*
X150501000Y-131958000D01*
X150501000Y-113108000D02*
X150501000Y-112458000D01*
X132201000Y-131958000D02*
X133201000Y-131958000D01*
X150501000Y-131958000D02*
X149501000Y-131958000D01*
X150501000Y-112458000D02*
X149501000Y-112458000D01*
X132351000Y-131808000D02*
X133651000Y-131808000D01*
X150351000Y-131808000D02*
X149001000Y-131808000D01*
X132351000Y-130958000D02*
X132351000Y-131808000D01*
X132151000Y-112458000D02*
X133251000Y-112458000D01*
%TO.C,C17*%
X138738748Y-96265000D02*
X139261252Y-96265000D01*
X138738748Y-97735000D02*
X139261252Y-97735000D01*
%TO.C,TP3*%
X116940000Y-118440000D02*
X118000000Y-118440000D01*
X116940000Y-119500000D02*
X116940000Y-118440000D01*
X119060000Y-120500000D02*
X119060000Y-122560000D01*
X116940000Y-120500000D02*
X116940000Y-122560000D01*
X116940000Y-122560000D02*
X119060000Y-122560000D01*
X116940000Y-120500000D02*
X119060000Y-120500000D01*
%TO.C,R15*%
X123272936Y-106735000D02*
X123727064Y-106735000D01*
X123272936Y-105265000D02*
X123727064Y-105265000D01*
%TO.C,SW3*%
X116150000Y-115560000D02*
X116150000Y-109440000D01*
X119850000Y-115560000D02*
X116150000Y-115560000D01*
X116150000Y-109440000D02*
X119850000Y-109440000D01*
X119850000Y-109440000D02*
X119850000Y-115560000D01*
%TO.C,C18*%
X135389252Y-107734000D02*
X134866748Y-107734000D01*
X135389252Y-109204000D02*
X134866748Y-109204000D01*
%TO.C,C15*%
X154238748Y-123735000D02*
X154761252Y-123735000D01*
X154238748Y-122265000D02*
X154761252Y-122265000D01*
%TO.C,D9*%
X120750000Y-104000000D02*
X116850000Y-104000000D01*
X120750000Y-106000000D02*
X120750000Y-104000000D01*
X120750000Y-106000000D02*
X116850000Y-106000000D01*
%TO.C,D8*%
X117040000Y-131685000D02*
X118960000Y-131685000D01*
X117040000Y-129000000D02*
X117040000Y-131685000D01*
X118960000Y-131685000D02*
X118960000Y-129000000D01*
%TO.C,R18*%
X155765000Y-119772936D02*
X155765000Y-120227064D01*
X157235000Y-119772936D02*
X157235000Y-120227064D01*
%TO.C,R17*%
X138456936Y-109766000D02*
X138911064Y-109766000D01*
X138456936Y-111236000D02*
X138911064Y-111236000D01*
%TO.C,J7*%
X132700000Y-95600000D02*
X123300000Y-95600000D01*
X123300000Y-97500000D02*
X123300000Y-95600000D01*
X132700000Y-101400000D02*
X132700000Y-99400000D01*
X123300000Y-101400000D02*
X123300000Y-99400000D01*
X132700000Y-97500000D02*
X132700000Y-95600000D01*
%TO.C,C21*%
X131310748Y-109766000D02*
X131833252Y-109766000D01*
X131310748Y-111236000D02*
X131833252Y-111236000D01*
%TO.C,D7*%
X133750000Y-107000000D02*
X129850000Y-107000000D01*
X133750000Y-105000000D02*
X129850000Y-105000000D01*
X133750000Y-107000000D02*
X133750000Y-105000000D01*
%TO.C,C20*%
X138945252Y-109132000D02*
X138422748Y-109132000D01*
X138945252Y-107662000D02*
X138422748Y-107662000D01*
%TO.C,R16*%
X117265000Y-126227064D02*
X117265000Y-125772936D01*
X118735000Y-126227064D02*
X118735000Y-125772936D01*
%TO.C,C16*%
X135238748Y-96265000D02*
X135761252Y-96265000D01*
X135238748Y-97735000D02*
X135761252Y-97735000D01*
%TO.C,R20*%
X154235000Y-119772936D02*
X154235000Y-120227064D01*
X152765000Y-119772936D02*
X152765000Y-120227064D01*
%TO.C,J9*%
X122400000Y-133260000D02*
X127600000Y-133260000D01*
X127600000Y-108310000D02*
X128960000Y-108310000D01*
X122400000Y-112370000D02*
X122400000Y-113390000D01*
X127600000Y-107740000D02*
X127600000Y-108310000D01*
X127600000Y-109830000D02*
X127600000Y-110850000D01*
X122400000Y-107740000D02*
X122400000Y-108310000D01*
X122400000Y-109830000D02*
X122400000Y-110850000D01*
X127600000Y-119990000D02*
X127600000Y-121010000D01*
X122400000Y-130150000D02*
X122400000Y-131170000D01*
X122400000Y-125070000D02*
X122400000Y-126090000D01*
X122400000Y-119990000D02*
X122400000Y-121010000D01*
X127600000Y-132690000D02*
X127600000Y-133260000D01*
X127600000Y-112370000D02*
X127600000Y-113390000D01*
X127600000Y-125070000D02*
X127600000Y-126090000D01*
X122400000Y-122530000D02*
X122400000Y-123550000D01*
X122400000Y-127610000D02*
X122400000Y-128630000D01*
X127600000Y-122530000D02*
X127600000Y-123550000D01*
X122400000Y-132690000D02*
X122400000Y-133260000D01*
X127600000Y-114910000D02*
X127600000Y-115930000D01*
X127600000Y-127610000D02*
X127600000Y-128630000D01*
X127600000Y-130150000D02*
X127600000Y-131170000D01*
X127600000Y-117450000D02*
X127600000Y-118470000D01*
X122400000Y-107740000D02*
X127600000Y-107740000D01*
X122400000Y-114910000D02*
X122400000Y-115930000D01*
X122400000Y-117450000D02*
X122400000Y-118470000D01*
D11*
%TO.C,Card2*%
X199866000Y-69906000D02*
X199866000Y-62397000D01*
X199866000Y-59984000D02*
X199866000Y-56936000D01*
X199866000Y-57833000D02*
X191500000Y-57834000D01*
X199866000Y-56936000D02*
X185134000Y-56936000D01*
X185134000Y-56936000D02*
X185134000Y-59834000D01*
X191500000Y-57834000D02*
X188563000Y-56937000D01*
X185134000Y-62500000D02*
X185134000Y-69993000D01*
X199866000Y-57409000D02*
X199866000Y-57833000D01*
D12*
X189714000Y-71472000D02*
X186615000Y-71473000D01*
D13*
%TO.C,R12*%
X197235000Y-76772936D02*
X197235000Y-77227064D01*
X195765000Y-76772936D02*
X195765000Y-77227064D01*
%TO.C,C12*%
X174310748Y-68734000D02*
X174833252Y-68734000D01*
X174310748Y-70204000D02*
X174833252Y-70204000D01*
%TO.C,U4*%
X195390000Y-89500000D02*
X195390000Y-93100000D01*
X200610000Y-89500000D02*
X200610000Y-91700000D01*
X195390000Y-89500000D02*
X195390000Y-87300000D01*
X200610000Y-89500000D02*
X200610000Y-87300000D01*
%TO.C,R14*%
X200235000Y-76772936D02*
X200235000Y-77227064D01*
X198765000Y-76772936D02*
X198765000Y-77227064D01*
%TO.C,U5*%
X183410000Y-65410000D02*
X182150000Y-65410000D01*
X176590000Y-65410000D02*
X177850000Y-65410000D01*
X183410000Y-59400000D02*
X183410000Y-65410000D01*
X176590000Y-61650000D02*
X176590000Y-65410000D01*
%TO.C,U6*%
X193351000Y-73608000D02*
X175351000Y-73608000D01*
X175351000Y-73608000D02*
X175351000Y-74108000D01*
X175201000Y-92958000D02*
X175201000Y-91958000D01*
X193351000Y-73608000D02*
X193351000Y-74108000D01*
X193351000Y-92058000D02*
X193351000Y-92808000D01*
X193501000Y-92058000D02*
X193501000Y-92958000D01*
X193501000Y-74108000D02*
X193501000Y-73458000D01*
X175201000Y-92958000D02*
X176201000Y-92958000D01*
X193501000Y-92958000D02*
X192501000Y-92958000D01*
X193501000Y-73458000D02*
X192501000Y-73458000D01*
X175351000Y-92808000D02*
X176651000Y-92808000D01*
X193351000Y-92808000D02*
X192001000Y-92808000D01*
X175351000Y-91958000D02*
X175351000Y-92808000D01*
X175151000Y-73458000D02*
X176251000Y-73458000D01*
%TO.C,C10*%
X181738748Y-57265000D02*
X182261252Y-57265000D01*
X181738748Y-58735000D02*
X182261252Y-58735000D01*
%TO.C,TP2*%
X159940000Y-79440000D02*
X161000000Y-79440000D01*
X159940000Y-80500000D02*
X159940000Y-79440000D01*
X162060000Y-81500000D02*
X162060000Y-83560000D01*
X159940000Y-81500000D02*
X159940000Y-83560000D01*
X159940000Y-83560000D02*
X162060000Y-83560000D01*
X159940000Y-81500000D02*
X162060000Y-81500000D01*
%TO.C,R8*%
X166272936Y-67735000D02*
X166727064Y-67735000D01*
X166272936Y-66265000D02*
X166727064Y-66265000D01*
%TO.C,SW2*%
X159150000Y-76560000D02*
X159150000Y-70440000D01*
X162850000Y-76560000D02*
X159150000Y-76560000D01*
X159150000Y-70440000D02*
X162850000Y-70440000D01*
X162850000Y-70440000D02*
X162850000Y-76560000D01*
%TO.C,C11*%
X178389252Y-68734000D02*
X177866748Y-68734000D01*
X178389252Y-70204000D02*
X177866748Y-70204000D01*
%TO.C,C8*%
X197238748Y-84735000D02*
X197761252Y-84735000D01*
X197238748Y-83265000D02*
X197761252Y-83265000D01*
%TO.C,D6*%
X163750000Y-65000000D02*
X159850000Y-65000000D01*
X163750000Y-67000000D02*
X163750000Y-65000000D01*
X163750000Y-67000000D02*
X159850000Y-67000000D01*
%TO.C,D5*%
X160040000Y-92685000D02*
X161960000Y-92685000D01*
X160040000Y-90000000D02*
X160040000Y-92685000D01*
X161960000Y-92685000D02*
X161960000Y-90000000D01*
%TO.C,R11*%
X198765000Y-80772936D02*
X198765000Y-81227064D01*
X200235000Y-80772936D02*
X200235000Y-81227064D01*
%TO.C,R10*%
X181456936Y-70766000D02*
X181911064Y-70766000D01*
X181456936Y-72236000D02*
X181911064Y-72236000D01*
%TO.C,J4*%
X175700000Y-56600000D02*
X166300000Y-56600000D01*
X166300000Y-58500000D02*
X166300000Y-56600000D01*
X175700000Y-62400000D02*
X175700000Y-60400000D01*
X166300000Y-62400000D02*
X166300000Y-60400000D01*
X175700000Y-58500000D02*
X175700000Y-56600000D01*
%TO.C,C14*%
X174310748Y-70766000D02*
X174833252Y-70766000D01*
X174310748Y-72236000D02*
X174833252Y-72236000D01*
%TO.C,D4*%
X176750000Y-68000000D02*
X172850000Y-68000000D01*
X176750000Y-66000000D02*
X172850000Y-66000000D01*
X176750000Y-68000000D02*
X176750000Y-66000000D01*
%TO.C,C13*%
X181945252Y-70132000D02*
X181422748Y-70132000D01*
X181945252Y-68662000D02*
X181422748Y-68662000D01*
%TO.C,R9*%
X160265000Y-87227064D02*
X160265000Y-86772936D01*
X161735000Y-87227064D02*
X161735000Y-86772936D01*
%TO.C,C9*%
X178238748Y-57265000D02*
X178761252Y-57265000D01*
X178238748Y-58735000D02*
X178761252Y-58735000D01*
%TO.C,R13*%
X197235000Y-80772936D02*
X197235000Y-81227064D01*
X195765000Y-80772936D02*
X195765000Y-81227064D01*
%TO.C,J6*%
X165400000Y-94260000D02*
X170600000Y-94260000D01*
X170600000Y-69310000D02*
X171960000Y-69310000D01*
X165400000Y-73370000D02*
X165400000Y-74390000D01*
X170600000Y-68740000D02*
X170600000Y-69310000D01*
X170600000Y-70830000D02*
X170600000Y-71850000D01*
X165400000Y-68740000D02*
X165400000Y-69310000D01*
X165400000Y-70830000D02*
X165400000Y-71850000D01*
X170600000Y-80990000D02*
X170600000Y-82010000D01*
X165400000Y-91150000D02*
X165400000Y-92170000D01*
X165400000Y-86070000D02*
X165400000Y-87090000D01*
X165400000Y-80990000D02*
X165400000Y-82010000D01*
X170600000Y-93690000D02*
X170600000Y-94260000D01*
X170600000Y-73370000D02*
X170600000Y-74390000D01*
X170600000Y-86070000D02*
X170600000Y-87090000D01*
X165400000Y-83530000D02*
X165400000Y-84550000D01*
X165400000Y-88610000D02*
X165400000Y-89630000D01*
X170600000Y-83530000D02*
X170600000Y-84550000D01*
X165400000Y-93690000D02*
X165400000Y-94260000D01*
X170600000Y-75910000D02*
X170600000Y-76930000D01*
X170600000Y-88610000D02*
X170600000Y-89630000D01*
X170600000Y-91150000D02*
X170600000Y-92170000D01*
X170600000Y-78450000D02*
X170600000Y-79470000D01*
X165400000Y-68740000D02*
X170600000Y-68740000D01*
X165400000Y-75910000D02*
X165400000Y-76930000D01*
X165400000Y-78450000D02*
X165400000Y-79470000D01*
D11*
%TO.C,Card1*%
X156866000Y-69906000D02*
X156866000Y-62397000D01*
X156866000Y-59984000D02*
X156866000Y-56936000D01*
X156866000Y-57833000D02*
X148500000Y-57834000D01*
X156866000Y-56936000D02*
X142134000Y-56936000D01*
X142134000Y-56936000D02*
X142134000Y-59834000D01*
X148500000Y-57834000D02*
X145563000Y-56937000D01*
X142134000Y-62500000D02*
X142134000Y-69993000D01*
X156866000Y-57409000D02*
X156866000Y-57833000D01*
D12*
X146714000Y-71472000D02*
X143615000Y-71473000D01*
D13*
%TO.C,R5*%
X154235000Y-76772936D02*
X154235000Y-77227064D01*
X152765000Y-76772936D02*
X152765000Y-77227064D01*
%TO.C,U3*%
X150351000Y-73608000D02*
X132351000Y-73608000D01*
X132351000Y-73608000D02*
X132351000Y-74108000D01*
X132201000Y-92958000D02*
X132201000Y-91958000D01*
X150351000Y-73608000D02*
X150351000Y-74108000D01*
X150351000Y-92058000D02*
X150351000Y-92808000D01*
X150501000Y-92058000D02*
X150501000Y-92958000D01*
X150501000Y-74108000D02*
X150501000Y-73458000D01*
X132201000Y-92958000D02*
X133201000Y-92958000D01*
X150501000Y-92958000D02*
X149501000Y-92958000D01*
X150501000Y-73458000D02*
X149501000Y-73458000D01*
X132351000Y-92808000D02*
X133651000Y-92808000D01*
X150351000Y-92808000D02*
X149001000Y-92808000D01*
X132351000Y-91958000D02*
X132351000Y-92808000D01*
X132151000Y-73458000D02*
X133251000Y-73458000D01*
%TO.C,TP1*%
X116940000Y-79440000D02*
X118000000Y-79440000D01*
X116940000Y-80500000D02*
X116940000Y-79440000D01*
X119060000Y-81500000D02*
X119060000Y-83560000D01*
X116940000Y-81500000D02*
X116940000Y-83560000D01*
X116940000Y-83560000D02*
X119060000Y-83560000D01*
X116940000Y-81500000D02*
X119060000Y-81500000D01*
%TO.C,C5*%
X131310748Y-68734000D02*
X131833252Y-68734000D01*
X131310748Y-70204000D02*
X131833252Y-70204000D01*
%TO.C,U1*%
X152390000Y-89500000D02*
X152390000Y-93100000D01*
X157610000Y-89500000D02*
X157610000Y-91700000D01*
X152390000Y-89500000D02*
X152390000Y-87300000D01*
X157610000Y-89500000D02*
X157610000Y-87300000D01*
%TO.C,C3*%
X138738748Y-57265000D02*
X139261252Y-57265000D01*
X138738748Y-58735000D02*
X139261252Y-58735000D01*
%TO.C,U2*%
X140410000Y-65410000D02*
X139150000Y-65410000D01*
X133590000Y-65410000D02*
X134850000Y-65410000D01*
X140410000Y-59400000D02*
X140410000Y-65410000D01*
X133590000Y-61650000D02*
X133590000Y-65410000D01*
%TO.C,R7*%
X157235000Y-76772936D02*
X157235000Y-77227064D01*
X155765000Y-76772936D02*
X155765000Y-77227064D01*
%TO.C,C1*%
X154238748Y-84735000D02*
X154761252Y-84735000D01*
X154238748Y-83265000D02*
X154761252Y-83265000D01*
%TO.C,C4*%
X135389252Y-68734000D02*
X134866748Y-68734000D01*
X135389252Y-70204000D02*
X134866748Y-70204000D01*
%TO.C,SW1*%
X116150000Y-76560000D02*
X116150000Y-70440000D01*
X119850000Y-76560000D02*
X116150000Y-76560000D01*
X116150000Y-70440000D02*
X119850000Y-70440000D01*
X119850000Y-70440000D02*
X119850000Y-76560000D01*
%TO.C,R1*%
X123272936Y-67735000D02*
X123727064Y-67735000D01*
X123272936Y-66265000D02*
X123727064Y-66265000D01*
%TO.C,D1*%
X133750000Y-68000000D02*
X129850000Y-68000000D01*
X133750000Y-66000000D02*
X129850000Y-66000000D01*
X133750000Y-68000000D02*
X133750000Y-66000000D01*
%TO.C,C2*%
X135238748Y-57265000D02*
X135761252Y-57265000D01*
X135238748Y-58735000D02*
X135761252Y-58735000D01*
%TO.C,C7*%
X131310748Y-70766000D02*
X131833252Y-70766000D01*
X131310748Y-72236000D02*
X131833252Y-72236000D01*
%TO.C,J1*%
X132700000Y-56600000D02*
X123300000Y-56600000D01*
X123300000Y-58500000D02*
X123300000Y-56600000D01*
X132700000Y-62400000D02*
X132700000Y-60400000D01*
X123300000Y-62400000D02*
X123300000Y-60400000D01*
X132700000Y-58500000D02*
X132700000Y-56600000D01*
%TO.C,C6*%
X138945252Y-70132000D02*
X138422748Y-70132000D01*
X138945252Y-68662000D02*
X138422748Y-68662000D01*
%TO.C,R6*%
X154235000Y-80772936D02*
X154235000Y-81227064D01*
X152765000Y-80772936D02*
X152765000Y-81227064D01*
%TO.C,J3*%
X122400000Y-94260000D02*
X127600000Y-94260000D01*
X127600000Y-69310000D02*
X128960000Y-69310000D01*
X122400000Y-73370000D02*
X122400000Y-74390000D01*
X127600000Y-68740000D02*
X127600000Y-69310000D01*
X127600000Y-70830000D02*
X127600000Y-71850000D01*
X122400000Y-68740000D02*
X122400000Y-69310000D01*
X122400000Y-70830000D02*
X122400000Y-71850000D01*
X127600000Y-80990000D02*
X127600000Y-82010000D01*
X122400000Y-91150000D02*
X122400000Y-92170000D01*
X122400000Y-86070000D02*
X122400000Y-87090000D01*
X122400000Y-80990000D02*
X122400000Y-82010000D01*
X127600000Y-93690000D02*
X127600000Y-94260000D01*
X127600000Y-73370000D02*
X127600000Y-74390000D01*
X127600000Y-86070000D02*
X127600000Y-87090000D01*
X122400000Y-83530000D02*
X122400000Y-84550000D01*
X122400000Y-88610000D02*
X122400000Y-89630000D01*
X127600000Y-83530000D02*
X127600000Y-84550000D01*
X122400000Y-93690000D02*
X122400000Y-94260000D01*
X127600000Y-75910000D02*
X127600000Y-76930000D01*
X127600000Y-88610000D02*
X127600000Y-89630000D01*
X127600000Y-91150000D02*
X127600000Y-92170000D01*
X127600000Y-78450000D02*
X127600000Y-79470000D01*
X122400000Y-68740000D02*
X127600000Y-68740000D01*
X122400000Y-75910000D02*
X122400000Y-76930000D01*
X122400000Y-78450000D02*
X122400000Y-79470000D01*
%TO.C,R2*%
X117265000Y-87227064D02*
X117265000Y-86772936D01*
X118735000Y-87227064D02*
X118735000Y-86772936D01*
%TO.C,R4*%
X155765000Y-80772936D02*
X155765000Y-81227064D01*
X157235000Y-80772936D02*
X157235000Y-81227064D01*
%TO.C,R3*%
X138456936Y-70766000D02*
X138911064Y-70766000D01*
X138456936Y-72236000D02*
X138911064Y-72236000D01*
%TO.C,D3*%
X120750000Y-65000000D02*
X116850000Y-65000000D01*
X120750000Y-67000000D02*
X120750000Y-65000000D01*
X120750000Y-67000000D02*
X116850000Y-67000000D01*
%TO.C,D2*%
X117040000Y-92685000D02*
X118960000Y-92685000D01*
X117040000Y-90000000D02*
X117040000Y-92685000D01*
X118960000Y-92685000D02*
X118960000Y-90000000D01*
%TD*%
M02*
