%TF.GenerationSoftware,KiCad,Pcbnew,(6.0.7)*%
%TF.CreationDate,2023-02-26T08:18:57+08:00*%
%TF.ProjectId,Led_Control_Circuit_Panelization,4c65645f-436f-46e7-9472-6f6c5f436972,rev?*%
%TF.SameCoordinates,Original*%
%TF.FileFunction,Soldermask,Bot*%
%TF.FilePolarity,Negative*%
%FSLAX46Y46*%
G04 Gerber Fmt 4.6, Leading zero omitted, Abs format (unit mm)*
G04 Created by KiCad (PCBNEW (6.0.7)) date 2023-02-26 08:18:57*
%MOMM*%
%LPD*%
G01*
G04 APERTURE LIST*
%ADD10C,1.000000*%
%ADD11R,1.350000X1.350000*%
%ADD12O,1.350000X1.350000*%
%ADD13C,0.650000*%
%ADD14O,1.000000X1.600000*%
%ADD15O,1.000000X2.100000*%
G04 APERTURE END LIST*
D10*
%TO.C,Card4*%
X197450000Y-100022000D03*
X189450000Y-100025000D03*
%TD*%
D11*
%TO.C,TP4*%
X161000000Y-119500000D03*
D12*
X161000000Y-121500000D03*
%TD*%
D13*
%TO.C,J10*%
X173890000Y-102100000D03*
X168110000Y-102100000D03*
D14*
X175320000Y-98450000D03*
D15*
X166680000Y-102630000D03*
X175320000Y-102630000D03*
D14*
X166680000Y-98450000D03*
%TD*%
D10*
%TO.C,Card3*%
X154450000Y-100022000D03*
X146450000Y-100025000D03*
%TD*%
D11*
%TO.C,TP3*%
X118000000Y-119500000D03*
D12*
X118000000Y-121500000D03*
%TD*%
D13*
%TO.C,J7*%
X130890000Y-102100000D03*
X125110000Y-102100000D03*
D14*
X132320000Y-98450000D03*
D15*
X123680000Y-102630000D03*
X132320000Y-102630000D03*
D14*
X123680000Y-98450000D03*
%TD*%
D10*
%TO.C,Card2*%
X197450000Y-61022000D03*
X189450000Y-61025000D03*
%TD*%
D11*
%TO.C,TP2*%
X161000000Y-80500000D03*
D12*
X161000000Y-82500000D03*
%TD*%
D13*
%TO.C,J4*%
X173890000Y-63100000D03*
X168110000Y-63100000D03*
D14*
X175320000Y-59450000D03*
D15*
X166680000Y-63630000D03*
X175320000Y-63630000D03*
D14*
X166680000Y-59450000D03*
%TD*%
D10*
%TO.C,Card1*%
X154450000Y-61022000D03*
X146450000Y-61025000D03*
%TD*%
D11*
%TO.C,TP1*%
X118000000Y-80500000D03*
D12*
X118000000Y-82500000D03*
%TD*%
D13*
%TO.C,J1*%
X130890000Y-63100000D03*
X125110000Y-63100000D03*
D14*
X132320000Y-59450000D03*
D15*
X123680000Y-63630000D03*
X132320000Y-63630000D03*
D14*
X123680000Y-59450000D03*
%TD*%
M02*
