%TF.GenerationSoftware,KiCad,Pcbnew,(6.0.7)*%
%TF.CreationDate,2023-02-26T08:18:56+08:00*%
%TF.ProjectId,Led_Control_Circuit_Panelization,4c65645f-436f-46e7-9472-6f6c5f436972,rev?*%
%TF.SameCoordinates,Original*%
%TF.FileFunction,Copper,L2,Bot*%
%TF.FilePolarity,Positive*%
%FSLAX46Y46*%
G04 Gerber Fmt 4.6, Leading zero omitted, Abs format (unit mm)*
G04 Created by KiCad (PCBNEW (6.0.7)) date 2023-02-26 08:18:56*
%MOMM*%
%LPD*%
G01*
G04 APERTURE LIST*
%TA.AperFunction,ComponentPad*%
%ADD10R,1.350000X1.350000*%
%TD*%
%TA.AperFunction,ComponentPad*%
%ADD11O,1.350000X1.350000*%
%TD*%
%TA.AperFunction,ComponentPad*%
%ADD12O,1.000000X1.600000*%
%TD*%
%TA.AperFunction,ComponentPad*%
%ADD13O,1.000000X2.100000*%
%TD*%
%TA.AperFunction,ViaPad*%
%ADD14C,0.600000*%
%TD*%
%TA.AperFunction,ViaPad*%
%ADD15C,0.400000*%
%TD*%
%TA.AperFunction,ViaPad*%
%ADD16C,1.000000*%
%TD*%
%TA.AperFunction,Conductor*%
%ADD17C,0.400000*%
%TD*%
%TA.AperFunction,Conductor*%
%ADD18C,0.600000*%
%TD*%
G04 APERTURE END LIST*
D10*
%TO.P,TP4,1,1*%
%TO.N,GND*%
X161000000Y-119500000D03*
D11*
%TO.P,TP4,2,2*%
%TO.N,Net-(TP1-Pad2)*%
X161000000Y-121500000D03*
%TD*%
D12*
%TO.P,J10,S1,SHIELD*%
%TO.N,GND*%
X175320000Y-98450000D03*
D13*
X166680000Y-102630000D03*
X175320000Y-102630000D03*
D12*
X166680000Y-98450000D03*
%TD*%
D10*
%TO.P,TP3,1,1*%
%TO.N,GND*%
X118000000Y-119500000D03*
D11*
%TO.P,TP3,2,2*%
%TO.N,Net-(TP1-Pad2)*%
X118000000Y-121500000D03*
%TD*%
D12*
%TO.P,J7,S1,SHIELD*%
%TO.N,GND*%
X132320000Y-98450000D03*
D13*
X123680000Y-102630000D03*
X132320000Y-102630000D03*
D12*
X123680000Y-98450000D03*
%TD*%
D10*
%TO.P,TP2,1,1*%
%TO.N,GND*%
X161000000Y-80500000D03*
D11*
%TO.P,TP2,2,2*%
%TO.N,Net-(TP1-Pad2)*%
X161000000Y-82500000D03*
%TD*%
D12*
%TO.P,J4,S1,SHIELD*%
%TO.N,GND*%
X175320000Y-59450000D03*
D13*
X166680000Y-63630000D03*
X175320000Y-63630000D03*
D12*
X166680000Y-59450000D03*
%TD*%
D10*
%TO.P,TP1,1,1*%
%TO.N,GND*%
X118000000Y-80500000D03*
D11*
%TO.P,TP1,2,2*%
%TO.N,Net-(TP1-Pad2)*%
X118000000Y-82500000D03*
%TD*%
D12*
%TO.P,J1,S1,SHIELD*%
%TO.N,GND*%
X132320000Y-59450000D03*
D13*
X123680000Y-63630000D03*
X132320000Y-63630000D03*
D12*
X123680000Y-59450000D03*
%TD*%
D14*
%TO.N,/SCK*%
X181176000Y-131837000D03*
%TO.N,/CS*%
X183716000Y-131837000D03*
D15*
%TO.N,/SCK*%
X197940000Y-125106000D03*
%TO.N,/MOSI*%
X199972000Y-125106000D03*
D14*
X182446000Y-131837000D03*
%TO.N,/CD*%
X198956000Y-111136000D03*
D16*
%TO.N,GND*%
X161999000Y-96658000D03*
D14*
%TO.N,Net-(C6-Pad2)*%
X180737000Y-108400000D03*
%TO.N,GND*%
X179374000Y-96961000D03*
D15*
X198067000Y-131837000D03*
D14*
%TO.N,Net-(C6-Pad2)*%
X160983000Y-108596000D03*
D15*
%TO.N,GND*%
X174250000Y-103545000D03*
%TO.N,/D-*%
X175588000Y-129043000D03*
%TO.N,GND*%
X198650000Y-125106000D03*
%TO.N,/CS*%
X199337000Y-131837000D03*
%TO.N,/MISO*%
X197432000Y-131837000D03*
D14*
%TO.N,GND*%
X170508000Y-131964000D03*
X160983000Y-116470000D03*
X182827000Y-121553000D03*
X177112000Y-108469000D03*
%TO.N,/MISO*%
X184986000Y-131837000D03*
%TO.N,Net-(TP1-Pad2)*%
X193114000Y-131837000D03*
D15*
%TO.N,/D-*%
X170762000Y-102500000D03*
%TO.N,/D+*%
X175588000Y-130313000D03*
X169746000Y-104744500D03*
D14*
%TO.N,/CD*%
X190066000Y-131837000D03*
D16*
%TO.N,GND*%
X161999000Y-98309000D03*
D14*
X200480000Y-100341000D03*
X175588000Y-108469000D03*
X183000000Y-97000000D03*
X200353000Y-109993000D03*
D16*
X164158000Y-98309000D03*
D14*
X193114000Y-113803000D03*
X181427000Y-120153000D03*
X165428000Y-131964000D03*
X175588000Y-113803000D03*
D15*
X167750000Y-103545000D03*
D14*
X198448000Y-123074000D03*
D16*
X159967000Y-96658000D03*
X164158000Y-96785000D03*
D14*
X165428000Y-109104000D03*
X182827000Y-122953000D03*
X185113000Y-110374000D03*
D16*
X159967000Y-98309000D03*
D14*
X182827000Y-120153000D03*
X165428000Y-114057000D03*
D15*
X196035000Y-131837000D03*
D14*
X182319000Y-99452000D03*
X184478000Y-100214000D03*
X165428000Y-129424000D03*
D15*
X196670000Y-125106000D03*
D14*
X160983000Y-130948000D03*
D15*
X199972000Y-131837000D03*
D14*
X184227000Y-121553000D03*
X170508000Y-109104000D03*
X167445000Y-105944000D03*
X182700000Y-108469000D03*
X175461000Y-110501000D03*
X184227000Y-122953000D03*
X181427000Y-121553000D03*
X181427000Y-122953000D03*
X195654000Y-111136000D03*
X184227000Y-120153000D03*
%TO.N,/SCK*%
X138176000Y-131837000D03*
%TO.N,/CS*%
X140716000Y-131837000D03*
D15*
%TO.N,/SCK*%
X154940000Y-125106000D03*
%TO.N,/MOSI*%
X156972000Y-125106000D03*
D14*
X139446000Y-131837000D03*
%TO.N,/CD*%
X155956000Y-111136000D03*
D16*
%TO.N,GND*%
X118999000Y-96658000D03*
D14*
%TO.N,Net-(C6-Pad2)*%
X137737000Y-108400000D03*
%TO.N,GND*%
X136374000Y-96961000D03*
D15*
X155067000Y-131837000D03*
D14*
%TO.N,Net-(C6-Pad2)*%
X117983000Y-108596000D03*
D15*
%TO.N,GND*%
X131250000Y-103545000D03*
%TO.N,/D-*%
X132588000Y-129043000D03*
%TO.N,GND*%
X155650000Y-125106000D03*
%TO.N,/CS*%
X156337000Y-131837000D03*
%TO.N,/MISO*%
X154432000Y-131837000D03*
D14*
%TO.N,GND*%
X127508000Y-131964000D03*
X117983000Y-116470000D03*
X139827000Y-121553000D03*
X134112000Y-108469000D03*
%TO.N,/MISO*%
X141986000Y-131837000D03*
%TO.N,Net-(TP1-Pad2)*%
X150114000Y-131837000D03*
D15*
%TO.N,/D-*%
X127762000Y-102500000D03*
%TO.N,/D+*%
X132588000Y-130313000D03*
X126746000Y-104744500D03*
D14*
%TO.N,/CD*%
X147066000Y-131837000D03*
D16*
%TO.N,GND*%
X118999000Y-98309000D03*
D14*
X157480000Y-100341000D03*
X132588000Y-108469000D03*
X140000000Y-97000000D03*
X157353000Y-109993000D03*
D16*
X121158000Y-98309000D03*
D14*
X150114000Y-113803000D03*
X138427000Y-120153000D03*
X122428000Y-131964000D03*
X132588000Y-113803000D03*
D15*
X124750000Y-103545000D03*
D14*
X155448000Y-123074000D03*
D16*
X116967000Y-96658000D03*
X121158000Y-96785000D03*
D14*
X122428000Y-109104000D03*
X139827000Y-122953000D03*
X142113000Y-110374000D03*
D16*
X116967000Y-98309000D03*
D14*
X139827000Y-120153000D03*
X122428000Y-114057000D03*
D15*
X153035000Y-131837000D03*
D14*
X139319000Y-99452000D03*
X141478000Y-100214000D03*
X122428000Y-129424000D03*
D15*
X153670000Y-125106000D03*
D14*
X117983000Y-130948000D03*
D15*
X156972000Y-131837000D03*
D14*
X141227000Y-121553000D03*
X127508000Y-109104000D03*
X124445000Y-105944000D03*
X139700000Y-108469000D03*
X132461000Y-110501000D03*
X141227000Y-122953000D03*
X138427000Y-121553000D03*
X138427000Y-122953000D03*
X152654000Y-111136000D03*
X141227000Y-120153000D03*
%TO.N,/SCK*%
X181176000Y-92837000D03*
%TO.N,/CS*%
X183716000Y-92837000D03*
D15*
%TO.N,/SCK*%
X197940000Y-86106000D03*
%TO.N,/MOSI*%
X199972000Y-86106000D03*
D14*
X182446000Y-92837000D03*
%TO.N,/CD*%
X198956000Y-72136000D03*
D16*
%TO.N,GND*%
X161999000Y-57658000D03*
D14*
%TO.N,Net-(C6-Pad2)*%
X180737000Y-69400000D03*
%TO.N,GND*%
X179374000Y-57961000D03*
D15*
X198067000Y-92837000D03*
D14*
%TO.N,Net-(C6-Pad2)*%
X160983000Y-69596000D03*
D15*
%TO.N,GND*%
X174250000Y-64545000D03*
%TO.N,/D-*%
X175588000Y-90043000D03*
%TO.N,GND*%
X198650000Y-86106000D03*
%TO.N,/CS*%
X199337000Y-92837000D03*
%TO.N,/MISO*%
X197432000Y-92837000D03*
D14*
%TO.N,GND*%
X170508000Y-92964000D03*
X160983000Y-77470000D03*
X182827000Y-82553000D03*
X177112000Y-69469000D03*
%TO.N,/MISO*%
X184986000Y-92837000D03*
%TO.N,Net-(TP1-Pad2)*%
X193114000Y-92837000D03*
D15*
%TO.N,/D-*%
X170762000Y-63500000D03*
%TO.N,/D+*%
X175588000Y-91313000D03*
X169746000Y-65744500D03*
D14*
%TO.N,/CD*%
X190066000Y-92837000D03*
D16*
%TO.N,GND*%
X161999000Y-59309000D03*
D14*
X200480000Y-61341000D03*
X175588000Y-69469000D03*
X183000000Y-58000000D03*
X200353000Y-70993000D03*
D16*
X164158000Y-59309000D03*
D14*
X193114000Y-74803000D03*
X181427000Y-81153000D03*
X165428000Y-92964000D03*
X175588000Y-74803000D03*
D15*
X167750000Y-64545000D03*
D14*
X198448000Y-84074000D03*
D16*
X159967000Y-57658000D03*
X164158000Y-57785000D03*
D14*
X165428000Y-70104000D03*
X182827000Y-83953000D03*
X185113000Y-71374000D03*
D16*
X159967000Y-59309000D03*
D14*
X182827000Y-81153000D03*
X165428000Y-75057000D03*
D15*
X196035000Y-92837000D03*
D14*
X182319000Y-60452000D03*
X184478000Y-61214000D03*
X165428000Y-90424000D03*
D15*
X196670000Y-86106000D03*
D14*
X160983000Y-91948000D03*
D15*
X199972000Y-92837000D03*
D14*
X184227000Y-82553000D03*
X170508000Y-70104000D03*
X167445000Y-66944000D03*
X182700000Y-69469000D03*
X175461000Y-71501000D03*
X184227000Y-83953000D03*
X181427000Y-82553000D03*
X181427000Y-83953000D03*
X195654000Y-72136000D03*
X184227000Y-81153000D03*
X141227000Y-81153000D03*
D15*
X124750000Y-64545000D03*
D14*
X155448000Y-84074000D03*
X152654000Y-72136000D03*
D16*
X116967000Y-57658000D03*
D14*
X132588000Y-74803000D03*
X141478000Y-61214000D03*
X122428000Y-92964000D03*
X138427000Y-82553000D03*
X127508000Y-70104000D03*
X124445000Y-66944000D03*
X141227000Y-82553000D03*
X138427000Y-81153000D03*
X150114000Y-74803000D03*
D16*
X121158000Y-59309000D03*
D15*
X156972000Y-92837000D03*
D14*
X138427000Y-83953000D03*
X122428000Y-90424000D03*
X140000000Y-58000000D03*
D16*
X118999000Y-59309000D03*
D14*
X141227000Y-83953000D03*
X132588000Y-69469000D03*
X157480000Y-61341000D03*
X132461000Y-71501000D03*
X117983000Y-91948000D03*
D15*
X153670000Y-86106000D03*
D14*
X139700000Y-69469000D03*
X139319000Y-60452000D03*
D15*
X153035000Y-92837000D03*
D14*
X122428000Y-75057000D03*
X139827000Y-81153000D03*
X157353000Y-70993000D03*
D16*
X116967000Y-59309000D03*
D14*
X142113000Y-71374000D03*
X139827000Y-83953000D03*
X122428000Y-70104000D03*
D16*
X121158000Y-57785000D03*
X118999000Y-57658000D03*
D14*
X139827000Y-82553000D03*
X117983000Y-77470000D03*
X134112000Y-69469000D03*
D15*
X155067000Y-92837000D03*
X131250000Y-64545000D03*
X155650000Y-86106000D03*
D14*
X127508000Y-92964000D03*
X136374000Y-57961000D03*
%TO.N,Net-(C6-Pad2)*%
X117983000Y-69596000D03*
X137737000Y-69400000D03*
%TO.N,/CD*%
X147066000Y-92837000D03*
X155956000Y-72136000D03*
D15*
%TO.N,/D+*%
X126746000Y-65744500D03*
X132588000Y-91313000D03*
%TO.N,/D-*%
X127762000Y-63500000D03*
X132588000Y-90043000D03*
D14*
%TO.N,Net-(TP1-Pad2)*%
X150114000Y-92837000D03*
%TO.N,/MISO*%
X141986000Y-92837000D03*
D15*
X154432000Y-92837000D03*
%TO.N,/CS*%
X156337000Y-92837000D03*
D14*
X140716000Y-92837000D03*
%TO.N,/MOSI*%
X139446000Y-92837000D03*
D15*
X156972000Y-86106000D03*
%TO.N,/SCK*%
X154940000Y-86106000D03*
D14*
X138176000Y-92837000D03*
%TD*%
D17*
%TO.N,/MOSI*%
X182446000Y-131837000D02*
X184308000Y-129975000D01*
%TO.N,/SCK*%
X183588000Y-129425000D02*
X193621000Y-129425000D01*
X193621000Y-129425000D02*
X197940000Y-125106000D01*
%TO.N,/MISO*%
X197432000Y-131837000D02*
X196670000Y-131075000D01*
%TO.N,Net-(TP1-Pad2)*%
X191914000Y-133037000D02*
X172537000Y-133037000D01*
X172537000Y-133037000D02*
X161000000Y-121500000D01*
%TO.N,/MISO*%
X196670000Y-131075000D02*
X185748000Y-131075000D01*
%TO.N,/SCK*%
X181176000Y-131837000D02*
X183588000Y-129425000D01*
%TO.N,/MOSI*%
X195103000Y-129975000D02*
X199972000Y-125106000D01*
%TO.N,/CS*%
X183716000Y-131837000D02*
X185028000Y-130525000D01*
%TO.N,Net-(TP1-Pad2)*%
X193114000Y-131837000D02*
X191914000Y-133037000D01*
%TO.N,/MISO*%
X185748000Y-131075000D02*
X184986000Y-131837000D01*
%TO.N,/MOSI*%
X184308000Y-129975000D02*
X195103000Y-129975000D01*
%TO.N,/CS*%
X185028000Y-130525000D02*
X198025000Y-130525000D01*
X198025000Y-130525000D02*
X199337000Y-131837000D01*
%TO.N,/D+*%
X169406500Y-104405000D02*
X163476944Y-104405000D01*
X169746000Y-104744500D02*
X169406500Y-104405000D01*
%TO.N,/D-*%
X170762000Y-104659000D02*
X170762000Y-102500000D01*
X159967000Y-108692762D02*
X163619762Y-105040000D01*
%TO.N,/D+*%
X174445000Y-129170000D02*
X175588000Y-130313000D01*
%TO.N,/D-*%
X175588000Y-129043000D02*
X159967000Y-113422000D01*
X170106500Y-105314500D02*
X170762000Y-104659000D01*
%TO.N,/D+*%
X174445000Y-128677818D02*
X174445000Y-129170000D01*
X159417000Y-113649818D02*
X174445000Y-128677818D01*
%TO.N,/D-*%
X169509898Y-105314500D02*
X170106500Y-105314500D01*
X169235398Y-105040000D02*
X169509898Y-105314500D01*
X163619762Y-105040000D02*
X169235398Y-105040000D01*
X159967000Y-113422000D02*
X159967000Y-108692762D01*
%TO.N,/D+*%
X163476944Y-104405000D02*
X159417000Y-108464944D01*
X159417000Y-108464944D02*
X159417000Y-113649818D01*
%TO.N,/CD*%
X197686000Y-111136000D02*
X180160000Y-128662000D01*
X180906761Y-132487000D02*
X185255239Y-132487000D01*
X180160000Y-128662000D02*
X180160000Y-131740239D01*
X180160000Y-131740239D02*
X180906761Y-132487000D01*
X185255239Y-132487000D02*
X185270239Y-132472000D01*
X198956000Y-111136000D02*
X197686000Y-111136000D01*
X189431000Y-132472000D02*
X190066000Y-131837000D01*
X185270239Y-132472000D02*
X189431000Y-132472000D01*
D18*
%TO.N,Net-(C6-Pad2)*%
X161860000Y-107719000D02*
X160983000Y-108596000D01*
X180056000Y-107719000D02*
X161860000Y-107719000D01*
X180737000Y-108400000D02*
X180056000Y-107719000D01*
D17*
%TO.N,/MOSI*%
X139446000Y-131837000D02*
X141308000Y-129975000D01*
%TO.N,/SCK*%
X140588000Y-129425000D02*
X150621000Y-129425000D01*
X150621000Y-129425000D02*
X154940000Y-125106000D01*
%TO.N,/MISO*%
X154432000Y-131837000D02*
X153670000Y-131075000D01*
%TO.N,Net-(TP1-Pad2)*%
X148914000Y-133037000D02*
X129537000Y-133037000D01*
X129537000Y-133037000D02*
X118000000Y-121500000D01*
%TO.N,/MISO*%
X153670000Y-131075000D02*
X142748000Y-131075000D01*
%TO.N,/SCK*%
X138176000Y-131837000D02*
X140588000Y-129425000D01*
%TO.N,/MOSI*%
X152103000Y-129975000D02*
X156972000Y-125106000D01*
%TO.N,/CS*%
X140716000Y-131837000D02*
X142028000Y-130525000D01*
%TO.N,Net-(TP1-Pad2)*%
X150114000Y-131837000D02*
X148914000Y-133037000D01*
%TO.N,/MISO*%
X142748000Y-131075000D02*
X141986000Y-131837000D01*
%TO.N,/MOSI*%
X141308000Y-129975000D02*
X152103000Y-129975000D01*
%TO.N,/CS*%
X142028000Y-130525000D02*
X155025000Y-130525000D01*
X155025000Y-130525000D02*
X156337000Y-131837000D01*
%TO.N,/D+*%
X126406500Y-104405000D02*
X120476944Y-104405000D01*
X126746000Y-104744500D02*
X126406500Y-104405000D01*
%TO.N,/D-*%
X127762000Y-104659000D02*
X127762000Y-102500000D01*
X116967000Y-108692762D02*
X120619762Y-105040000D01*
%TO.N,/D+*%
X131445000Y-129170000D02*
X132588000Y-130313000D01*
%TO.N,/D-*%
X132588000Y-129043000D02*
X116967000Y-113422000D01*
X127106500Y-105314500D02*
X127762000Y-104659000D01*
%TO.N,/D+*%
X131445000Y-128677818D02*
X131445000Y-129170000D01*
X116417000Y-113649818D02*
X131445000Y-128677818D01*
%TO.N,/D-*%
X126509898Y-105314500D02*
X127106500Y-105314500D01*
X126235398Y-105040000D02*
X126509898Y-105314500D01*
X120619762Y-105040000D02*
X126235398Y-105040000D01*
X116967000Y-113422000D02*
X116967000Y-108692762D01*
%TO.N,/D+*%
X120476944Y-104405000D02*
X116417000Y-108464944D01*
X116417000Y-108464944D02*
X116417000Y-113649818D01*
%TO.N,/CD*%
X154686000Y-111136000D02*
X137160000Y-128662000D01*
X137906761Y-132487000D02*
X142255239Y-132487000D01*
X137160000Y-128662000D02*
X137160000Y-131740239D01*
X137160000Y-131740239D02*
X137906761Y-132487000D01*
X142255239Y-132487000D02*
X142270239Y-132472000D01*
X155956000Y-111136000D02*
X154686000Y-111136000D01*
X146431000Y-132472000D02*
X147066000Y-131837000D01*
X142270239Y-132472000D02*
X146431000Y-132472000D01*
D18*
%TO.N,Net-(C6-Pad2)*%
X118860000Y-107719000D02*
X117983000Y-108596000D01*
X137056000Y-107719000D02*
X118860000Y-107719000D01*
X137737000Y-108400000D02*
X137056000Y-107719000D01*
D17*
%TO.N,/MOSI*%
X182446000Y-92837000D02*
X184308000Y-90975000D01*
%TO.N,/SCK*%
X183588000Y-90425000D02*
X193621000Y-90425000D01*
X193621000Y-90425000D02*
X197940000Y-86106000D01*
%TO.N,/MISO*%
X197432000Y-92837000D02*
X196670000Y-92075000D01*
%TO.N,Net-(TP1-Pad2)*%
X191914000Y-94037000D02*
X172537000Y-94037000D01*
X172537000Y-94037000D02*
X161000000Y-82500000D01*
%TO.N,/MISO*%
X196670000Y-92075000D02*
X185748000Y-92075000D01*
%TO.N,/SCK*%
X181176000Y-92837000D02*
X183588000Y-90425000D01*
%TO.N,/MOSI*%
X195103000Y-90975000D02*
X199972000Y-86106000D01*
%TO.N,/CS*%
X183716000Y-92837000D02*
X185028000Y-91525000D01*
%TO.N,Net-(TP1-Pad2)*%
X193114000Y-92837000D02*
X191914000Y-94037000D01*
%TO.N,/MISO*%
X185748000Y-92075000D02*
X184986000Y-92837000D01*
%TO.N,/MOSI*%
X184308000Y-90975000D02*
X195103000Y-90975000D01*
%TO.N,/CS*%
X185028000Y-91525000D02*
X198025000Y-91525000D01*
X198025000Y-91525000D02*
X199337000Y-92837000D01*
%TO.N,/D+*%
X169406500Y-65405000D02*
X163476944Y-65405000D01*
X169746000Y-65744500D02*
X169406500Y-65405000D01*
%TO.N,/D-*%
X170762000Y-65659000D02*
X170762000Y-63500000D01*
X159967000Y-69692762D02*
X163619762Y-66040000D01*
%TO.N,/D+*%
X174445000Y-90170000D02*
X175588000Y-91313000D01*
%TO.N,/D-*%
X175588000Y-90043000D02*
X159967000Y-74422000D01*
X170106500Y-66314500D02*
X170762000Y-65659000D01*
%TO.N,/D+*%
X174445000Y-89677818D02*
X174445000Y-90170000D01*
X159417000Y-74649818D02*
X174445000Y-89677818D01*
%TO.N,/D-*%
X169509898Y-66314500D02*
X170106500Y-66314500D01*
X169235398Y-66040000D02*
X169509898Y-66314500D01*
X163619762Y-66040000D02*
X169235398Y-66040000D01*
X159967000Y-74422000D02*
X159967000Y-69692762D01*
%TO.N,/D+*%
X163476944Y-65405000D02*
X159417000Y-69464944D01*
X159417000Y-69464944D02*
X159417000Y-74649818D01*
%TO.N,/CD*%
X197686000Y-72136000D02*
X180160000Y-89662000D01*
X180906761Y-93487000D02*
X185255239Y-93487000D01*
X180160000Y-89662000D02*
X180160000Y-92740239D01*
X180160000Y-92740239D02*
X180906761Y-93487000D01*
X185255239Y-93487000D02*
X185270239Y-93472000D01*
X198956000Y-72136000D02*
X197686000Y-72136000D01*
X189431000Y-93472000D02*
X190066000Y-92837000D01*
X185270239Y-93472000D02*
X189431000Y-93472000D01*
D18*
%TO.N,Net-(C6-Pad2)*%
X161860000Y-68719000D02*
X160983000Y-69596000D01*
X180056000Y-68719000D02*
X161860000Y-68719000D01*
X180737000Y-69400000D02*
X180056000Y-68719000D01*
X137056000Y-68719000D02*
X118860000Y-68719000D01*
X137737000Y-69400000D02*
X137056000Y-68719000D01*
X118860000Y-68719000D02*
X117983000Y-69596000D01*
D17*
%TO.N,/CD*%
X137906761Y-93487000D02*
X142255239Y-93487000D01*
X137160000Y-92740239D02*
X137906761Y-93487000D01*
X146431000Y-93472000D02*
X147066000Y-92837000D01*
X154686000Y-72136000D02*
X137160000Y-89662000D01*
X155956000Y-72136000D02*
X154686000Y-72136000D01*
X137160000Y-89662000D02*
X137160000Y-92740239D01*
X142270239Y-93472000D02*
X146431000Y-93472000D01*
X142255239Y-93487000D02*
X142270239Y-93472000D01*
%TO.N,/D+*%
X131445000Y-90170000D02*
X132588000Y-91313000D01*
X126746000Y-65744500D02*
X126406500Y-65405000D01*
X131445000Y-89677818D02*
X131445000Y-90170000D01*
X116417000Y-69464944D02*
X116417000Y-74649818D01*
X126406500Y-65405000D02*
X120476944Y-65405000D01*
X120476944Y-65405000D02*
X116417000Y-69464944D01*
X116417000Y-74649818D02*
X131445000Y-89677818D01*
%TO.N,/D-*%
X116967000Y-74422000D02*
X116967000Y-69692762D01*
X116967000Y-69692762D02*
X120619762Y-66040000D01*
X120619762Y-66040000D02*
X126235398Y-66040000D01*
X126235398Y-66040000D02*
X126509898Y-66314500D01*
X132588000Y-90043000D02*
X116967000Y-74422000D01*
X126509898Y-66314500D02*
X127106500Y-66314500D01*
X127106500Y-66314500D02*
X127762000Y-65659000D01*
X127762000Y-65659000D02*
X127762000Y-63500000D01*
%TO.N,Net-(TP1-Pad2)*%
X129537000Y-94037000D02*
X118000000Y-82500000D01*
X148914000Y-94037000D02*
X129537000Y-94037000D01*
X150114000Y-92837000D02*
X148914000Y-94037000D01*
%TO.N,/MISO*%
X154432000Y-92837000D02*
X153670000Y-92075000D01*
X142748000Y-92075000D02*
X141986000Y-92837000D01*
X153670000Y-92075000D02*
X142748000Y-92075000D01*
%TO.N,/CS*%
X140716000Y-92837000D02*
X142028000Y-91525000D01*
X142028000Y-91525000D02*
X155025000Y-91525000D01*
X155025000Y-91525000D02*
X156337000Y-92837000D01*
%TO.N,/MOSI*%
X152103000Y-90975000D02*
X156972000Y-86106000D01*
X141308000Y-90975000D02*
X152103000Y-90975000D01*
X139446000Y-92837000D02*
X141308000Y-90975000D01*
%TO.N,/SCK*%
X138176000Y-92837000D02*
X140588000Y-90425000D01*
X150621000Y-90425000D02*
X154940000Y-86106000D01*
X140588000Y-90425000D02*
X150621000Y-90425000D01*
%TD*%
%TA.AperFunction,Conductor*%
%TO.N,GND*%
G36*
X158308691Y-56669407D02*
G01*
X158344655Y-56718907D01*
X158349500Y-56749500D01*
X158349500Y-95250500D01*
X158330593Y-95308691D01*
X158281093Y-95344655D01*
X158250500Y-95349500D01*
X115749500Y-95349500D01*
X115691309Y-95330593D01*
X115655345Y-95281093D01*
X115650500Y-95250500D01*
X115650500Y-82500000D01*
X117169953Y-82500000D01*
X117188092Y-82672576D01*
X117241714Y-82837611D01*
X117328478Y-82987889D01*
X117331946Y-82991741D01*
X117331950Y-82991746D01*
X117441120Y-83112992D01*
X117441124Y-83112996D01*
X117444590Y-83116845D01*
X117584976Y-83218842D01*
X117589708Y-83220949D01*
X117589710Y-83220950D01*
X117738763Y-83287313D01*
X117738767Y-83287314D01*
X117743501Y-83289422D01*
X117748571Y-83290500D01*
X117748572Y-83290500D01*
X117765368Y-83294070D01*
X117913236Y-83325500D01*
X118086764Y-83325500D01*
X118144385Y-83313252D01*
X118234634Y-83294070D01*
X118295484Y-83300466D01*
X118325221Y-83320903D01*
X129255253Y-94250934D01*
X129268418Y-94267236D01*
X129274175Y-94276152D01*
X129280604Y-94281220D01*
X129299328Y-94295981D01*
X129303737Y-94299898D01*
X129303738Y-94299897D01*
X129306867Y-94302548D01*
X129309747Y-94305428D01*
X129313065Y-94307799D01*
X129313066Y-94307800D01*
X129324584Y-94316031D01*
X129328313Y-94318831D01*
X129365811Y-94348392D01*
X129373116Y-94350957D01*
X129374366Y-94351607D01*
X129380669Y-94356111D01*
X129412458Y-94365618D01*
X129426415Y-94369792D01*
X129430851Y-94371233D01*
X129470033Y-94384993D01*
X129470036Y-94384994D01*
X129475906Y-94387055D01*
X129481044Y-94387500D01*
X129483182Y-94387500D01*
X129484901Y-94387574D01*
X129486262Y-94387689D01*
X129492464Y-94389544D01*
X129500635Y-94389223D01*
X129542554Y-94387576D01*
X129546441Y-94387500D01*
X148866052Y-94387500D01*
X148886888Y-94389718D01*
X148888170Y-94389994D01*
X148897261Y-94391951D01*
X148929071Y-94388186D01*
X148934963Y-94387839D01*
X148934963Y-94387836D01*
X148939030Y-94387500D01*
X148943115Y-94387500D01*
X148947141Y-94386830D01*
X148947152Y-94386829D01*
X148961119Y-94384504D01*
X148965726Y-94383848D01*
X148988689Y-94381130D01*
X149005012Y-94379198D01*
X149005013Y-94379198D01*
X149013138Y-94378236D01*
X149020122Y-94374882D01*
X149021454Y-94374461D01*
X149029103Y-94373188D01*
X149071160Y-94350495D01*
X149075283Y-94348395D01*
X149112717Y-94330420D01*
X149112721Y-94330418D01*
X149118326Y-94327726D01*
X149122274Y-94324408D01*
X149123782Y-94322900D01*
X149125071Y-94321718D01*
X149126097Y-94320852D01*
X149131794Y-94317778D01*
X149137345Y-94311773D01*
X149137350Y-94311769D01*
X149165809Y-94280982D01*
X149168503Y-94278179D01*
X150134867Y-93311815D01*
X150178831Y-93286305D01*
X150200468Y-93280406D01*
X150294755Y-93254700D01*
X150404724Y-93187179D01*
X150473352Y-93111360D01*
X150486590Y-93096735D01*
X150486590Y-93096734D01*
X150491322Y-93091507D01*
X150525718Y-93020515D01*
X150544512Y-92981724D01*
X150544512Y-92981723D01*
X150547588Y-92975375D01*
X150566571Y-92862540D01*
X150568363Y-92851891D01*
X150568363Y-92851886D01*
X150568997Y-92848120D01*
X150569133Y-92837000D01*
X150550839Y-92709259D01*
X150508669Y-92616511D01*
X150500349Y-92598212D01*
X150500348Y-92598211D01*
X150497428Y-92591788D01*
X150492822Y-92586442D01*
X150489024Y-92580504D01*
X150490989Y-92579247D01*
X150471470Y-92532691D01*
X150485498Y-92473136D01*
X150531853Y-92433200D01*
X150570131Y-92425500D01*
X153483810Y-92425500D01*
X153542001Y-92444407D01*
X153553814Y-92454496D01*
X154088054Y-92988736D01*
X154106260Y-93013795D01*
X154128523Y-93057489D01*
X154211511Y-93140477D01*
X154218448Y-93144012D01*
X154218450Y-93144013D01*
X154309141Y-93190222D01*
X154309144Y-93190223D01*
X154316082Y-93193758D01*
X154323776Y-93194977D01*
X154323777Y-93194977D01*
X154424304Y-93210899D01*
X154432000Y-93212118D01*
X154439696Y-93210899D01*
X154540223Y-93194977D01*
X154540224Y-93194977D01*
X154547918Y-93193758D01*
X154554856Y-93190223D01*
X154554859Y-93190222D01*
X154645550Y-93144013D01*
X154645552Y-93144012D01*
X154652489Y-93140477D01*
X154735477Y-93057489D01*
X154767448Y-92994742D01*
X154785222Y-92959859D01*
X154785223Y-92959856D01*
X154788758Y-92952918D01*
X154790970Y-92938956D01*
X154805899Y-92844696D01*
X154807118Y-92837000D01*
X154788758Y-92721082D01*
X154785223Y-92714144D01*
X154785222Y-92714141D01*
X154739013Y-92623450D01*
X154739012Y-92623448D01*
X154735477Y-92616511D01*
X154652489Y-92533523D01*
X154645552Y-92529988D01*
X154645550Y-92529987D01*
X154608795Y-92511260D01*
X154583736Y-92493054D01*
X154135186Y-92044504D01*
X154107409Y-91989987D01*
X154116980Y-91929555D01*
X154160245Y-91886290D01*
X154205190Y-91875500D01*
X154838810Y-91875500D01*
X154897001Y-91894407D01*
X154908814Y-91904496D01*
X155993054Y-92988736D01*
X156011260Y-93013795D01*
X156033523Y-93057489D01*
X156116511Y-93140477D01*
X156123448Y-93144012D01*
X156123450Y-93144013D01*
X156214141Y-93190222D01*
X156214144Y-93190223D01*
X156221082Y-93193758D01*
X156228776Y-93194977D01*
X156228777Y-93194977D01*
X156329304Y-93210899D01*
X156337000Y-93212118D01*
X156344696Y-93210899D01*
X156445223Y-93194977D01*
X156445224Y-93194977D01*
X156452918Y-93193758D01*
X156459856Y-93190223D01*
X156459859Y-93190222D01*
X156550550Y-93144013D01*
X156550552Y-93144012D01*
X156557489Y-93140477D01*
X156640477Y-93057489D01*
X156672448Y-92994742D01*
X156690222Y-92959859D01*
X156690223Y-92959856D01*
X156693758Y-92952918D01*
X156695970Y-92938956D01*
X156710899Y-92844696D01*
X156712118Y-92837000D01*
X156693758Y-92721082D01*
X156690223Y-92714144D01*
X156690222Y-92714141D01*
X156644013Y-92623450D01*
X156644012Y-92623448D01*
X156640477Y-92616511D01*
X156557489Y-92533523D01*
X156550552Y-92529988D01*
X156550550Y-92529987D01*
X156513795Y-92511260D01*
X156488736Y-92493054D01*
X155306745Y-91311063D01*
X155293580Y-91294760D01*
X155292267Y-91292726D01*
X155292264Y-91292722D01*
X155287825Y-91285848D01*
X155262668Y-91266015D01*
X155258263Y-91262101D01*
X155258262Y-91262102D01*
X155255131Y-91259449D01*
X155252254Y-91256572D01*
X155237399Y-91245956D01*
X155233681Y-91243165D01*
X155202614Y-91218673D01*
X155202613Y-91218673D01*
X155196189Y-91213608D01*
X155188882Y-91211042D01*
X155187637Y-91210395D01*
X155181331Y-91205889D01*
X155149542Y-91196382D01*
X155135585Y-91192208D01*
X155131149Y-91190767D01*
X155091967Y-91177007D01*
X155091964Y-91177006D01*
X155086094Y-91174945D01*
X155080956Y-91174500D01*
X155078818Y-91174500D01*
X155077099Y-91174426D01*
X155075738Y-91174311D01*
X155069536Y-91172456D01*
X155061365Y-91172777D01*
X155019446Y-91174424D01*
X155015559Y-91174500D01*
X152638190Y-91174500D01*
X152579999Y-91155593D01*
X152544035Y-91106093D01*
X152544035Y-91044907D01*
X152568186Y-91005496D01*
X157123734Y-86449947D01*
X157148793Y-86431741D01*
X157185550Y-86413013D01*
X157185552Y-86413012D01*
X157192489Y-86409477D01*
X157275477Y-86326489D01*
X157279013Y-86319550D01*
X157325222Y-86228859D01*
X157325223Y-86228856D01*
X157328758Y-86221918D01*
X157347118Y-86106000D01*
X157328758Y-85990082D01*
X157325223Y-85983144D01*
X157325222Y-85983141D01*
X157279013Y-85892450D01*
X157279012Y-85892448D01*
X157275477Y-85885511D01*
X157192489Y-85802523D01*
X157185552Y-85798988D01*
X157185550Y-85798987D01*
X157094859Y-85752778D01*
X157094856Y-85752777D01*
X157087918Y-85749242D01*
X157080224Y-85748023D01*
X157080223Y-85748023D01*
X156979696Y-85732101D01*
X156972000Y-85730882D01*
X156964304Y-85732101D01*
X156863777Y-85748023D01*
X156863776Y-85748023D01*
X156856082Y-85749242D01*
X156849144Y-85752777D01*
X156849141Y-85752778D01*
X156758450Y-85798987D01*
X156758448Y-85798988D01*
X156751511Y-85802523D01*
X156668523Y-85885511D01*
X156664988Y-85892448D01*
X156664987Y-85892450D01*
X156646260Y-85929205D01*
X156628054Y-85954264D01*
X151986814Y-90595504D01*
X151932297Y-90623281D01*
X151916810Y-90624500D01*
X151156190Y-90624500D01*
X151097999Y-90605593D01*
X151062035Y-90556093D01*
X151062035Y-90494907D01*
X151086186Y-90455496D01*
X155091736Y-86449946D01*
X155116795Y-86431740D01*
X155153550Y-86413013D01*
X155153552Y-86413012D01*
X155160489Y-86409477D01*
X155243477Y-86326489D01*
X155247013Y-86319550D01*
X155293222Y-86228859D01*
X155293223Y-86228856D01*
X155296758Y-86221918D01*
X155315118Y-86106000D01*
X155296758Y-85990082D01*
X155293223Y-85983144D01*
X155293222Y-85983141D01*
X155247013Y-85892450D01*
X155247012Y-85892448D01*
X155243477Y-85885511D01*
X155160489Y-85802523D01*
X155153552Y-85798988D01*
X155153550Y-85798987D01*
X155062859Y-85752778D01*
X155062856Y-85752777D01*
X155055918Y-85749242D01*
X155048224Y-85748023D01*
X155048223Y-85748023D01*
X154947696Y-85732101D01*
X154940000Y-85730882D01*
X154932304Y-85732101D01*
X154831777Y-85748023D01*
X154831776Y-85748023D01*
X154824082Y-85749242D01*
X154817144Y-85752777D01*
X154817141Y-85752778D01*
X154726450Y-85798987D01*
X154726448Y-85798988D01*
X154719511Y-85802523D01*
X154636523Y-85885511D01*
X154632988Y-85892448D01*
X154632987Y-85892450D01*
X154614260Y-85929205D01*
X154596054Y-85954264D01*
X150504814Y-90045504D01*
X150450297Y-90073281D01*
X150434810Y-90074500D01*
X140635948Y-90074500D01*
X140615112Y-90072282D01*
X140613830Y-90072006D01*
X140604739Y-90070049D01*
X140572929Y-90073814D01*
X140567037Y-90074161D01*
X140567037Y-90074164D01*
X140562970Y-90074500D01*
X140558885Y-90074500D01*
X140554859Y-90075170D01*
X140554848Y-90075171D01*
X140540881Y-90077496D01*
X140536269Y-90078153D01*
X140488861Y-90083764D01*
X140481878Y-90087117D01*
X140480544Y-90087539D01*
X140472897Y-90088812D01*
X140465696Y-90092698D01*
X140465695Y-90092698D01*
X140430861Y-90111494D01*
X140426703Y-90113612D01*
X140389288Y-90131578D01*
X140389287Y-90131579D01*
X140383674Y-90134274D01*
X140379726Y-90137592D01*
X140378216Y-90139102D01*
X140376929Y-90140282D01*
X140375903Y-90141148D01*
X140370206Y-90144222D01*
X140364655Y-90150227D01*
X140364650Y-90150231D01*
X140336191Y-90181018D01*
X140333497Y-90183821D01*
X138156183Y-92361135D01*
X138113384Y-92386320D01*
X137996935Y-92419601D01*
X137996933Y-92419602D01*
X137990155Y-92421539D01*
X137984191Y-92425302D01*
X137953912Y-92444407D01*
X137881019Y-92490399D01*
X137795596Y-92587122D01*
X137784383Y-92611005D01*
X137761895Y-92658903D01*
X137720049Y-92703542D01*
X137659958Y-92715059D01*
X137602276Y-92686833D01*
X137539496Y-92624053D01*
X137511719Y-92569536D01*
X137510500Y-92554049D01*
X137510500Y-89848190D01*
X137529407Y-89789999D01*
X137539496Y-89778186D01*
X154802185Y-72515496D01*
X154856702Y-72487719D01*
X154872189Y-72486500D01*
X155639541Y-72486500D01*
X155694398Y-72503088D01*
X155760060Y-72546796D01*
X155766788Y-72548898D01*
X155766790Y-72548899D01*
X155821646Y-72566037D01*
X155883233Y-72585278D01*
X155947744Y-72586461D01*
X156005202Y-72587514D01*
X156005204Y-72587514D01*
X156012255Y-72587643D01*
X156019058Y-72585788D01*
X156019060Y-72585788D01*
X156060828Y-72574400D01*
X156136755Y-72553700D01*
X156246724Y-72486179D01*
X156333322Y-72390507D01*
X156389588Y-72274375D01*
X156410997Y-72147120D01*
X156411133Y-72136000D01*
X156392839Y-72008259D01*
X156339428Y-71890788D01*
X156264386Y-71803697D01*
X156259798Y-71798372D01*
X156259797Y-71798371D01*
X156255193Y-71793028D01*
X156249276Y-71789193D01*
X156249274Y-71789191D01*
X156152824Y-71726677D01*
X156146906Y-71722841D01*
X156140150Y-71720821D01*
X156140149Y-71720820D01*
X156097335Y-71708016D01*
X156023273Y-71685866D01*
X155946644Y-71685398D01*
X155901282Y-71685121D01*
X155894231Y-71685078D01*
X155887454Y-71687015D01*
X155887453Y-71687015D01*
X155776935Y-71718601D01*
X155776933Y-71718602D01*
X155770155Y-71720539D01*
X155764191Y-71724302D01*
X155691405Y-71770227D01*
X155638577Y-71785500D01*
X154733948Y-71785500D01*
X154713112Y-71783282D01*
X154711830Y-71783006D01*
X154702739Y-71781049D01*
X154670929Y-71784814D01*
X154665037Y-71785161D01*
X154665037Y-71785164D01*
X154660970Y-71785500D01*
X154656885Y-71785500D01*
X154652859Y-71786170D01*
X154652848Y-71786171D01*
X154638881Y-71788496D01*
X154634274Y-71789152D01*
X154611311Y-71791870D01*
X154594988Y-71793802D01*
X154594987Y-71793802D01*
X154586862Y-71794764D01*
X154579878Y-71798118D01*
X154578546Y-71798539D01*
X154570897Y-71799812D01*
X154528840Y-71822505D01*
X154524717Y-71824605D01*
X154487283Y-71842580D01*
X154487279Y-71842582D01*
X154481674Y-71845274D01*
X154477726Y-71848592D01*
X154476218Y-71850100D01*
X154474929Y-71851282D01*
X154473903Y-71852148D01*
X154468206Y-71855222D01*
X154462655Y-71861227D01*
X154462650Y-71861231D01*
X154434191Y-71892018D01*
X154431497Y-71894821D01*
X136946063Y-89380255D01*
X136929760Y-89393420D01*
X136927726Y-89394733D01*
X136927722Y-89394736D01*
X136920848Y-89399175D01*
X136901015Y-89424332D01*
X136897101Y-89428737D01*
X136897102Y-89428738D01*
X136894449Y-89431869D01*
X136891572Y-89434746D01*
X136880956Y-89449601D01*
X136878170Y-89453312D01*
X136848608Y-89490811D01*
X136846042Y-89498118D01*
X136845395Y-89499363D01*
X136840889Y-89505669D01*
X136838545Y-89513508D01*
X136827208Y-89551415D01*
X136825767Y-89555851D01*
X136809945Y-89600906D01*
X136809500Y-89606044D01*
X136809500Y-89608182D01*
X136809426Y-89609901D01*
X136809311Y-89611262D01*
X136807456Y-89617464D01*
X136807777Y-89625635D01*
X136809424Y-89667554D01*
X136809500Y-89671441D01*
X136809500Y-92692291D01*
X136807282Y-92713127D01*
X136805049Y-92723500D01*
X136806011Y-92731625D01*
X136808814Y-92755310D01*
X136809161Y-92761202D01*
X136809164Y-92761202D01*
X136809500Y-92765269D01*
X136809500Y-92769354D01*
X136810170Y-92773380D01*
X136810171Y-92773391D01*
X136812496Y-92787358D01*
X136813152Y-92791965D01*
X136818764Y-92839377D01*
X136822118Y-92846361D01*
X136822539Y-92847693D01*
X136823812Y-92855342D01*
X136846505Y-92897399D01*
X136848605Y-92901522D01*
X136866580Y-92938956D01*
X136866582Y-92938960D01*
X136869274Y-92944565D01*
X136872592Y-92948513D01*
X136874100Y-92950021D01*
X136875282Y-92951310D01*
X136876148Y-92952336D01*
X136879222Y-92958033D01*
X136885227Y-92963584D01*
X136885231Y-92963589D01*
X136916018Y-92992048D01*
X136918821Y-92994742D01*
X137441575Y-93517496D01*
X137469352Y-93572013D01*
X137459781Y-93632445D01*
X137416516Y-93675710D01*
X137371571Y-93686500D01*
X129723190Y-93686500D01*
X129664999Y-93667593D01*
X129653186Y-93657504D01*
X118819578Y-82823896D01*
X118791801Y-82769379D01*
X118795427Y-82723300D01*
X118810307Y-82677504D01*
X118810307Y-82677502D01*
X118811908Y-82672576D01*
X118830047Y-82500000D01*
X118811908Y-82327424D01*
X118758286Y-82162389D01*
X118671522Y-82012111D01*
X118668054Y-82008259D01*
X118668050Y-82008254D01*
X118558880Y-81887008D01*
X118558876Y-81887004D01*
X118555410Y-81883155D01*
X118415024Y-81781158D01*
X118410292Y-81779051D01*
X118410290Y-81779050D01*
X118261237Y-81712687D01*
X118261233Y-81712686D01*
X118256499Y-81710578D01*
X118251429Y-81709500D01*
X118251428Y-81709500D01*
X118217461Y-81702280D01*
X118086764Y-81674500D01*
X117913236Y-81674500D01*
X117782539Y-81702280D01*
X117748572Y-81709500D01*
X117748571Y-81709500D01*
X117743501Y-81710578D01*
X117738767Y-81712686D01*
X117738763Y-81712687D01*
X117589711Y-81779050D01*
X117589709Y-81779051D01*
X117584977Y-81781158D01*
X117444590Y-81883155D01*
X117441124Y-81887004D01*
X117441120Y-81887008D01*
X117331950Y-82008254D01*
X117331946Y-82008259D01*
X117328478Y-82012111D01*
X117241714Y-82162389D01*
X117188092Y-82327424D01*
X117169953Y-82500000D01*
X115650500Y-82500000D01*
X115650500Y-74633079D01*
X116062049Y-74633079D01*
X116063011Y-74641204D01*
X116065814Y-74664889D01*
X116066161Y-74670781D01*
X116066164Y-74670781D01*
X116066500Y-74674848D01*
X116066500Y-74678933D01*
X116067170Y-74682959D01*
X116067171Y-74682970D01*
X116069496Y-74696937D01*
X116070152Y-74701544D01*
X116075764Y-74748956D01*
X116079118Y-74755940D01*
X116079539Y-74757272D01*
X116080812Y-74764921D01*
X116103505Y-74806978D01*
X116105605Y-74811101D01*
X116123580Y-74848535D01*
X116123582Y-74848539D01*
X116126274Y-74854144D01*
X116129592Y-74858092D01*
X116131100Y-74859600D01*
X116132282Y-74860889D01*
X116133148Y-74861915D01*
X116136222Y-74867612D01*
X116142227Y-74873163D01*
X116142231Y-74873168D01*
X116173018Y-74901627D01*
X116175821Y-74904321D01*
X131065504Y-89794004D01*
X131093281Y-89848521D01*
X131094500Y-89864008D01*
X131094500Y-90122052D01*
X131092282Y-90142888D01*
X131090049Y-90153261D01*
X131091011Y-90161386D01*
X131093814Y-90185071D01*
X131094161Y-90190963D01*
X131094164Y-90190963D01*
X131094500Y-90195030D01*
X131094500Y-90199115D01*
X131095170Y-90203141D01*
X131095171Y-90203152D01*
X131097496Y-90217119D01*
X131098152Y-90221726D01*
X131103764Y-90269138D01*
X131107118Y-90276122D01*
X131107539Y-90277454D01*
X131108812Y-90285103D01*
X131131505Y-90327160D01*
X131133605Y-90331283D01*
X131151580Y-90368717D01*
X131151582Y-90368721D01*
X131154274Y-90374326D01*
X131157592Y-90378274D01*
X131159100Y-90379782D01*
X131160282Y-90381071D01*
X131161148Y-90382097D01*
X131164222Y-90387794D01*
X131170227Y-90393345D01*
X131170231Y-90393350D01*
X131201018Y-90421809D01*
X131203821Y-90424503D01*
X132244054Y-91464736D01*
X132262260Y-91489795D01*
X132284523Y-91533489D01*
X132367511Y-91616477D01*
X132374448Y-91620012D01*
X132374450Y-91620013D01*
X132465141Y-91666222D01*
X132465144Y-91666223D01*
X132472082Y-91669758D01*
X132479776Y-91670977D01*
X132479777Y-91670977D01*
X132580304Y-91686899D01*
X132588000Y-91688118D01*
X132595696Y-91686899D01*
X132696223Y-91670977D01*
X132696224Y-91670977D01*
X132703918Y-91669758D01*
X132710856Y-91666223D01*
X132710859Y-91666222D01*
X132801550Y-91620013D01*
X132801552Y-91620012D01*
X132808489Y-91616477D01*
X132891477Y-91533489D01*
X132920859Y-91475823D01*
X132941222Y-91435859D01*
X132941223Y-91435856D01*
X132944758Y-91428918D01*
X132963118Y-91313000D01*
X132955056Y-91262101D01*
X132945977Y-91204777D01*
X132945977Y-91204776D01*
X132944758Y-91197082D01*
X132941223Y-91190144D01*
X132941222Y-91190141D01*
X132895013Y-91099450D01*
X132895012Y-91099448D01*
X132891477Y-91092511D01*
X132808489Y-91009523D01*
X132801552Y-91005988D01*
X132801550Y-91005987D01*
X132764795Y-90987260D01*
X132739736Y-90969054D01*
X132299069Y-90528387D01*
X132271292Y-90473870D01*
X132280863Y-90413438D01*
X132324128Y-90370173D01*
X132384560Y-90360602D01*
X132414017Y-90370173D01*
X132472082Y-90399758D01*
X132479776Y-90400977D01*
X132479777Y-90400977D01*
X132580304Y-90416899D01*
X132588000Y-90418118D01*
X132595696Y-90416899D01*
X132696223Y-90400977D01*
X132696224Y-90400977D01*
X132703918Y-90399758D01*
X132710856Y-90396223D01*
X132710859Y-90396222D01*
X132801550Y-90350013D01*
X132801552Y-90350012D01*
X132808489Y-90346477D01*
X132891477Y-90263489D01*
X132913933Y-90219417D01*
X132941222Y-90165859D01*
X132941223Y-90165856D01*
X132944758Y-90158918D01*
X132946922Y-90145259D01*
X132961899Y-90050696D01*
X132963118Y-90043000D01*
X132944758Y-89927082D01*
X132941223Y-89920144D01*
X132941222Y-89920141D01*
X132895013Y-89829450D01*
X132895012Y-89829448D01*
X132891477Y-89822511D01*
X132808489Y-89739523D01*
X132801552Y-89735988D01*
X132801550Y-89735987D01*
X132764795Y-89717260D01*
X132739736Y-89699054D01*
X117346496Y-74305814D01*
X117318719Y-74251297D01*
X117317500Y-74235810D01*
X117317500Y-69878952D01*
X117336407Y-69820761D01*
X117346496Y-69808948D01*
X117406419Y-69749025D01*
X117460936Y-69721248D01*
X117521368Y-69730819D01*
X117563941Y-69773392D01*
X117564881Y-69776937D01*
X117568796Y-69783215D01*
X117568797Y-69783217D01*
X117579843Y-69800928D01*
X117586453Y-69813438D01*
X117596605Y-69836510D01*
X117606410Y-69848174D01*
X117613131Y-69856170D01*
X117621350Y-69867483D01*
X117632648Y-69885599D01*
X117632650Y-69885602D01*
X117636567Y-69891882D01*
X117650971Y-69904381D01*
X117655012Y-69907888D01*
X117665906Y-69918954D01*
X117679639Y-69935291D01*
X117704236Y-69951664D01*
X117714257Y-69959298D01*
X117738883Y-69980667D01*
X117757699Y-69988986D01*
X117772518Y-69997116D01*
X117787060Y-70006796D01*
X117793790Y-70008899D01*
X117793791Y-70008899D01*
X117818947Y-70016758D01*
X117829448Y-70020705D01*
X117862783Y-70035442D01*
X117876920Y-70037115D01*
X117879369Y-70037405D01*
X117897251Y-70041222D01*
X117910233Y-70045278D01*
X117930611Y-70045651D01*
X117947489Y-70045961D01*
X117957310Y-70046630D01*
X117983250Y-70049700D01*
X117997310Y-70051364D01*
X118006394Y-70049705D01*
X118009933Y-70049059D01*
X118029530Y-70047465D01*
X118032200Y-70047514D01*
X118032201Y-70047514D01*
X118039255Y-70047643D01*
X118046058Y-70045788D01*
X118046060Y-70045788D01*
X118078946Y-70036822D01*
X118087195Y-70034948D01*
X118130573Y-70027025D01*
X118137137Y-70023615D01*
X118137144Y-70023613D01*
X118138528Y-70022894D01*
X118153652Y-70016982D01*
X118156947Y-70015556D01*
X118163755Y-70013700D01*
X118169767Y-70010009D01*
X118169771Y-70010007D01*
X118202107Y-69990153D01*
X118208268Y-69986667D01*
X118245777Y-69967182D01*
X118250788Y-69964579D01*
X118255828Y-69960275D01*
X118257193Y-69958910D01*
X118258522Y-69957682D01*
X118262464Y-69954229D01*
X118267719Y-69949866D01*
X118273724Y-69946179D01*
X118278453Y-69940955D01*
X118278456Y-69940952D01*
X118308328Y-69907949D01*
X118311722Y-69904381D01*
X119017607Y-69198496D01*
X119072124Y-69170719D01*
X119087611Y-69169500D01*
X136828389Y-69169500D01*
X136886580Y-69188407D01*
X136898393Y-69198496D01*
X137401358Y-69701461D01*
X137407137Y-69707763D01*
X137429100Y-69733892D01*
X137429103Y-69733894D01*
X137433639Y-69739291D01*
X137476352Y-69767723D01*
X137480313Y-69770502D01*
X137497528Y-69783217D01*
X137523816Y-69802634D01*
X137530794Y-69805084D01*
X137532216Y-69805837D01*
X137535886Y-69807352D01*
X137541060Y-69810796D01*
X137593780Y-69827267D01*
X137597044Y-69828350D01*
X137644644Y-69845066D01*
X137644648Y-69845067D01*
X137651631Y-69847519D01*
X137659027Y-69847809D01*
X137660327Y-69848057D01*
X137664233Y-69849278D01*
X137723483Y-69850364D01*
X137725483Y-69850421D01*
X137786994Y-69852838D01*
X137791614Y-69851613D01*
X137793255Y-69851643D01*
X137796974Y-69850629D01*
X137796975Y-69850629D01*
X137855126Y-69834775D01*
X137855792Y-69834596D01*
X137907968Y-69820761D01*
X137917936Y-69818118D01*
X137972551Y-69784058D01*
X137973112Y-69783711D01*
X137979620Y-69779715D01*
X138027724Y-69750179D01*
X138028825Y-69748962D01*
X138032881Y-69746433D01*
X138073172Y-69700001D01*
X138074534Y-69698465D01*
X138109591Y-69659734D01*
X138109592Y-69659733D01*
X138114322Y-69654507D01*
X138116109Y-69650818D01*
X138116815Y-69649706D01*
X138121666Y-69644116D01*
X138145061Y-69591200D01*
X138146493Y-69588107D01*
X138170588Y-69538375D01*
X138171619Y-69532244D01*
X138173024Y-69528542D01*
X138173450Y-69526983D01*
X138176442Y-69520217D01*
X138182799Y-69466504D01*
X138183485Y-69461715D01*
X138191363Y-69414891D01*
X138191364Y-69414885D01*
X138191997Y-69411120D01*
X138192133Y-69400000D01*
X138191636Y-69396527D01*
X138191545Y-69394647D01*
X138191494Y-69393036D01*
X138192364Y-69385689D01*
X138191035Y-69378413D01*
X138191035Y-69378409D01*
X138182140Y-69329710D01*
X138181529Y-69325957D01*
X138178351Y-69303767D01*
X138173839Y-69272259D01*
X138171020Y-69266059D01*
X138169877Y-69261232D01*
X138169355Y-69259707D01*
X138168025Y-69252427D01*
X138164616Y-69245865D01*
X138164615Y-69245861D01*
X138143535Y-69205281D01*
X138141267Y-69200621D01*
X138123349Y-69161212D01*
X138123348Y-69161211D01*
X138120428Y-69154788D01*
X138115822Y-69149442D01*
X138112024Y-69143504D01*
X138112509Y-69143194D01*
X138111541Y-69141764D01*
X138111336Y-69141902D01*
X138108181Y-69137220D01*
X138105579Y-69132211D01*
X138101275Y-69127172D01*
X138070311Y-69096208D01*
X138065316Y-69090827D01*
X138040798Y-69062372D01*
X138040797Y-69062371D01*
X138036193Y-69057028D01*
X138030273Y-69053191D01*
X138029505Y-69052521D01*
X138014419Y-69040316D01*
X137397619Y-68423516D01*
X137389877Y-68414803D01*
X137372453Y-68392701D01*
X137367872Y-68386890D01*
X137319251Y-68353286D01*
X137316728Y-68351483D01*
X137275139Y-68320764D01*
X137275137Y-68320763D01*
X137269184Y-68316366D01*
X137262368Y-68313973D01*
X137256431Y-68309869D01*
X137249372Y-68307636D01*
X137249371Y-68307636D01*
X137229027Y-68301202D01*
X137200071Y-68292044D01*
X137197186Y-68291082D01*
X137141369Y-68271481D01*
X137135327Y-68271244D01*
X137132653Y-68270723D01*
X137127270Y-68269020D01*
X137120663Y-68268500D01*
X137067459Y-68268500D01*
X137063572Y-68268424D01*
X137013397Y-68266452D01*
X137013394Y-68266452D01*
X137006006Y-68266162D01*
X136999228Y-68267959D01*
X136989403Y-68268500D01*
X119125952Y-68268500D01*
X119067761Y-68249593D01*
X119031797Y-68200093D01*
X119031797Y-68138907D01*
X119055948Y-68099496D01*
X120735948Y-66419496D01*
X120790465Y-66391719D01*
X120805952Y-66390500D01*
X126049208Y-66390500D01*
X126107399Y-66409407D01*
X126119212Y-66419496D01*
X126228153Y-66528437D01*
X126241318Y-66544740D01*
X126242631Y-66546774D01*
X126242634Y-66546778D01*
X126247073Y-66553652D01*
X126272230Y-66573484D01*
X126276636Y-66577400D01*
X126276637Y-66577399D01*
X126279766Y-66580050D01*
X126282645Y-66582929D01*
X126285959Y-66585297D01*
X126285960Y-66585298D01*
X126297489Y-66593537D01*
X126301217Y-66596336D01*
X126314959Y-66607169D01*
X126338709Y-66625892D01*
X126346012Y-66628457D01*
X126347267Y-66629109D01*
X126353568Y-66633611D01*
X126391374Y-66644917D01*
X126399310Y-66647291D01*
X126403744Y-66648732D01*
X126442928Y-66662492D01*
X126442932Y-66662493D01*
X126448804Y-66664555D01*
X126453942Y-66665000D01*
X126456080Y-66665000D01*
X126457799Y-66665074D01*
X126459160Y-66665189D01*
X126465362Y-66667044D01*
X126473533Y-66666723D01*
X126515452Y-66665076D01*
X126519339Y-66665000D01*
X127058552Y-66665000D01*
X127079388Y-66667218D01*
X127080670Y-66667494D01*
X127089761Y-66669451D01*
X127121571Y-66665686D01*
X127127463Y-66665339D01*
X127127463Y-66665336D01*
X127131530Y-66665000D01*
X127135615Y-66665000D01*
X127139641Y-66664330D01*
X127139652Y-66664329D01*
X127153619Y-66662004D01*
X127158226Y-66661348D01*
X127181189Y-66658630D01*
X127197512Y-66656698D01*
X127197513Y-66656698D01*
X127205638Y-66655736D01*
X127212622Y-66652382D01*
X127213954Y-66651961D01*
X127221603Y-66650688D01*
X127263660Y-66627995D01*
X127267783Y-66625895D01*
X127305217Y-66607920D01*
X127305221Y-66607918D01*
X127310826Y-66605226D01*
X127314774Y-66601908D01*
X127316282Y-66600400D01*
X127317571Y-66599218D01*
X127318597Y-66598352D01*
X127324294Y-66595278D01*
X127329845Y-66589273D01*
X127329850Y-66589269D01*
X127358309Y-66558482D01*
X127361003Y-66555679D01*
X127975937Y-65940745D01*
X127992240Y-65927580D01*
X127994274Y-65926267D01*
X127994278Y-65926264D01*
X128001152Y-65921825D01*
X128020985Y-65896668D01*
X128024899Y-65892263D01*
X128024898Y-65892262D01*
X128027551Y-65889131D01*
X128030428Y-65886254D01*
X128041044Y-65871399D01*
X128043835Y-65867681D01*
X128068327Y-65836614D01*
X128068327Y-65836613D01*
X128073392Y-65830189D01*
X128075958Y-65822882D01*
X128076605Y-65821637D01*
X128081111Y-65815331D01*
X128094792Y-65769585D01*
X128096233Y-65765149D01*
X128109993Y-65725967D01*
X128109994Y-65725964D01*
X128112055Y-65720094D01*
X128112500Y-65714956D01*
X128112500Y-65712818D01*
X128112574Y-65711099D01*
X128112689Y-65709738D01*
X128114544Y-65703536D01*
X128112576Y-65653446D01*
X128112500Y-65649559D01*
X128112500Y-63646914D01*
X128116801Y-63619760D01*
X128118758Y-63615918D01*
X128137118Y-63500000D01*
X128132922Y-63473511D01*
X128119977Y-63391777D01*
X128119977Y-63391776D01*
X128118758Y-63384082D01*
X128115223Y-63377144D01*
X128115222Y-63377141D01*
X128069013Y-63286450D01*
X128069012Y-63286448D01*
X128065477Y-63279511D01*
X127982489Y-63196523D01*
X127975552Y-63192988D01*
X127975550Y-63192987D01*
X127884859Y-63146778D01*
X127884856Y-63146777D01*
X127877918Y-63143242D01*
X127870224Y-63142023D01*
X127870223Y-63142023D01*
X127769696Y-63126101D01*
X127762000Y-63124882D01*
X127754304Y-63126101D01*
X127653777Y-63142023D01*
X127653776Y-63142023D01*
X127646082Y-63143242D01*
X127639144Y-63146777D01*
X127639141Y-63146778D01*
X127548450Y-63192987D01*
X127548448Y-63192988D01*
X127541511Y-63196523D01*
X127458523Y-63279511D01*
X127454988Y-63286448D01*
X127454987Y-63286450D01*
X127408778Y-63377141D01*
X127408777Y-63377144D01*
X127405242Y-63384082D01*
X127404023Y-63391776D01*
X127404023Y-63391777D01*
X127391078Y-63473511D01*
X127386882Y-63500000D01*
X127405242Y-63615918D01*
X127407199Y-63619760D01*
X127411500Y-63646914D01*
X127411500Y-65472810D01*
X127392593Y-65531001D01*
X127382504Y-65542814D01*
X127263597Y-65661721D01*
X127209080Y-65689498D01*
X127148648Y-65679927D01*
X127105383Y-65636662D01*
X127103205Y-65631403D01*
X127102758Y-65628582D01*
X127049477Y-65524011D01*
X126966489Y-65441023D01*
X126959552Y-65437488D01*
X126959550Y-65437487D01*
X126922795Y-65418760D01*
X126897736Y-65400554D01*
X126688245Y-65191063D01*
X126675080Y-65174760D01*
X126673767Y-65172726D01*
X126673764Y-65172722D01*
X126669325Y-65165848D01*
X126644168Y-65146015D01*
X126639763Y-65142101D01*
X126639762Y-65142102D01*
X126636631Y-65139449D01*
X126633754Y-65136572D01*
X126618899Y-65125956D01*
X126615181Y-65123165D01*
X126612226Y-65120835D01*
X126577689Y-65093608D01*
X126570382Y-65091042D01*
X126569137Y-65090395D01*
X126562831Y-65085889D01*
X126531042Y-65076382D01*
X126517085Y-65072208D01*
X126512649Y-65070767D01*
X126473467Y-65057007D01*
X126473464Y-65057006D01*
X126467594Y-65054945D01*
X126462456Y-65054500D01*
X126460318Y-65054500D01*
X126458599Y-65054426D01*
X126457238Y-65054311D01*
X126451036Y-65052456D01*
X126442865Y-65052777D01*
X126400946Y-65054424D01*
X126397059Y-65054500D01*
X120524892Y-65054500D01*
X120504056Y-65052282D01*
X120502774Y-65052006D01*
X120493683Y-65050049D01*
X120462524Y-65053737D01*
X120461873Y-65053814D01*
X120455981Y-65054161D01*
X120455981Y-65054164D01*
X120451914Y-65054500D01*
X120447829Y-65054500D01*
X120443803Y-65055170D01*
X120443792Y-65055171D01*
X120429825Y-65057496D01*
X120425218Y-65058152D01*
X120402255Y-65060870D01*
X120385932Y-65062802D01*
X120385931Y-65062802D01*
X120377806Y-65063764D01*
X120370822Y-65067118D01*
X120369490Y-65067539D01*
X120361841Y-65068812D01*
X120319784Y-65091505D01*
X120315661Y-65093605D01*
X120278227Y-65111580D01*
X120278223Y-65111582D01*
X120272618Y-65114274D01*
X120268670Y-65117592D01*
X120267162Y-65119100D01*
X120265873Y-65120282D01*
X120264847Y-65121148D01*
X120259150Y-65124222D01*
X120253599Y-65130227D01*
X120253594Y-65130231D01*
X120225135Y-65161018D01*
X120222441Y-65163821D01*
X116203063Y-69183199D01*
X116186760Y-69196364D01*
X116184726Y-69197677D01*
X116184722Y-69197680D01*
X116177848Y-69202119D01*
X116158015Y-69227276D01*
X116154101Y-69231681D01*
X116154102Y-69231682D01*
X116151449Y-69234813D01*
X116148572Y-69237690D01*
X116137956Y-69252545D01*
X116135170Y-69256256D01*
X116105608Y-69293755D01*
X116103042Y-69301062D01*
X116102395Y-69302307D01*
X116097889Y-69308613D01*
X116095545Y-69316452D01*
X116084208Y-69354359D01*
X116082767Y-69358795D01*
X116070177Y-69394647D01*
X116066945Y-69403850D01*
X116066500Y-69408988D01*
X116066500Y-69411120D01*
X116066426Y-69412845D01*
X116066311Y-69414206D01*
X116064456Y-69420408D01*
X116064777Y-69428579D01*
X116066424Y-69470498D01*
X116066500Y-69474385D01*
X116066500Y-74601870D01*
X116064282Y-74622706D01*
X116062049Y-74633079D01*
X115650500Y-74633079D01*
X115650500Y-63100000D01*
X124529534Y-63100000D01*
X124549313Y-63250236D01*
X124551797Y-63256233D01*
X124604819Y-63384240D01*
X124604821Y-63384244D01*
X124607302Y-63390233D01*
X124611248Y-63395375D01*
X124611250Y-63395379D01*
X124685624Y-63492304D01*
X124699549Y-63510451D01*
X124704698Y-63514402D01*
X124814621Y-63598750D01*
X124814625Y-63598752D01*
X124819767Y-63602698D01*
X124825756Y-63605179D01*
X124825760Y-63605181D01*
X124926513Y-63646914D01*
X124959764Y-63660687D01*
X125072280Y-63675500D01*
X125147720Y-63675500D01*
X125260236Y-63660687D01*
X125293487Y-63646914D01*
X125394240Y-63605181D01*
X125394244Y-63605179D01*
X125400233Y-63602698D01*
X125405375Y-63598752D01*
X125405379Y-63598750D01*
X125515302Y-63514402D01*
X125520451Y-63510451D01*
X125534376Y-63492304D01*
X125608750Y-63395379D01*
X125608752Y-63395375D01*
X125612698Y-63390233D01*
X125615179Y-63384244D01*
X125615181Y-63384240D01*
X125668203Y-63256233D01*
X125670687Y-63250236D01*
X125690466Y-63100000D01*
X130309534Y-63100000D01*
X130329313Y-63250236D01*
X130331797Y-63256233D01*
X130384819Y-63384240D01*
X130384821Y-63384244D01*
X130387302Y-63390233D01*
X130391248Y-63395375D01*
X130391250Y-63395379D01*
X130465624Y-63492304D01*
X130479549Y-63510451D01*
X130484698Y-63514402D01*
X130594621Y-63598750D01*
X130594625Y-63598752D01*
X130599767Y-63602698D01*
X130605756Y-63605179D01*
X130605760Y-63605181D01*
X130706513Y-63646914D01*
X130739764Y-63660687D01*
X130852280Y-63675500D01*
X130927720Y-63675500D01*
X131040236Y-63660687D01*
X131073487Y-63646914D01*
X131174240Y-63605181D01*
X131174244Y-63605179D01*
X131180233Y-63602698D01*
X131185375Y-63598752D01*
X131185379Y-63598750D01*
X131295302Y-63514402D01*
X131300451Y-63510451D01*
X131314376Y-63492304D01*
X131388750Y-63395379D01*
X131388752Y-63395375D01*
X131392698Y-63390233D01*
X131395179Y-63384244D01*
X131395181Y-63384240D01*
X131448203Y-63256233D01*
X131450687Y-63250236D01*
X131470466Y-63100000D01*
X131450687Y-62949764D01*
X131448203Y-62943767D01*
X131395181Y-62815760D01*
X131395179Y-62815756D01*
X131392698Y-62809767D01*
X131388752Y-62804625D01*
X131388750Y-62804621D01*
X131304402Y-62694698D01*
X131300451Y-62689549D01*
X131295302Y-62685598D01*
X131185379Y-62601250D01*
X131185375Y-62601248D01*
X131180233Y-62597302D01*
X131174244Y-62594821D01*
X131174240Y-62594819D01*
X131046233Y-62541797D01*
X131040236Y-62539313D01*
X130927720Y-62524500D01*
X130852280Y-62524500D01*
X130739764Y-62539313D01*
X130733767Y-62541797D01*
X130605760Y-62594819D01*
X130605756Y-62594821D01*
X130599767Y-62597302D01*
X130594625Y-62601248D01*
X130594621Y-62601250D01*
X130484698Y-62685598D01*
X130479549Y-62689549D01*
X130475598Y-62694698D01*
X130391250Y-62804621D01*
X130391248Y-62804625D01*
X130387302Y-62809767D01*
X130384821Y-62815756D01*
X130384819Y-62815760D01*
X130331797Y-62943767D01*
X130329313Y-62949764D01*
X130309534Y-63100000D01*
X125690466Y-63100000D01*
X125670687Y-62949764D01*
X125668203Y-62943767D01*
X125615181Y-62815760D01*
X125615179Y-62815756D01*
X125612698Y-62809767D01*
X125608752Y-62804625D01*
X125608750Y-62804621D01*
X125524402Y-62694698D01*
X125520451Y-62689549D01*
X125515302Y-62685598D01*
X125405379Y-62601250D01*
X125405375Y-62601248D01*
X125400233Y-62597302D01*
X125394244Y-62594821D01*
X125394240Y-62594819D01*
X125266233Y-62541797D01*
X125260236Y-62539313D01*
X125147720Y-62524500D01*
X125072280Y-62524500D01*
X124959764Y-62539313D01*
X124953767Y-62541797D01*
X124825760Y-62594819D01*
X124825756Y-62594821D01*
X124819767Y-62597302D01*
X124814625Y-62601248D01*
X124814621Y-62601250D01*
X124704698Y-62685598D01*
X124699549Y-62689549D01*
X124695598Y-62694698D01*
X124611250Y-62804621D01*
X124611248Y-62804625D01*
X124607302Y-62809767D01*
X124604821Y-62815756D01*
X124604819Y-62815760D01*
X124551797Y-62943767D01*
X124549313Y-62949764D01*
X124529534Y-63100000D01*
X115650500Y-63100000D01*
X115650500Y-61065862D01*
X145695497Y-61065862D01*
X145725134Y-61238340D01*
X145727387Y-61243635D01*
X145790127Y-61391083D01*
X145793654Y-61399373D01*
X145897383Y-61540324D01*
X145901765Y-61544047D01*
X145901767Y-61544049D01*
X145969600Y-61601677D01*
X146030755Y-61653632D01*
X146110337Y-61694269D01*
X146181492Y-61730603D01*
X146181495Y-61730604D01*
X146186616Y-61733219D01*
X146192201Y-61734586D01*
X146192202Y-61734586D01*
X146352326Y-61773768D01*
X146352329Y-61773768D01*
X146356606Y-61774815D01*
X146361004Y-61775088D01*
X146361005Y-61775088D01*
X146366132Y-61775406D01*
X146366133Y-61775406D01*
X146367648Y-61775500D01*
X146493822Y-61775500D01*
X146499698Y-61774815D01*
X146508678Y-61773768D01*
X146623828Y-61760343D01*
X146629234Y-61758381D01*
X146629237Y-61758380D01*
X146782923Y-61702594D01*
X146788331Y-61700631D01*
X146793140Y-61697478D01*
X146793144Y-61697476D01*
X146929877Y-61607829D01*
X146934685Y-61604677D01*
X146938634Y-61600508D01*
X146938638Y-61600505D01*
X147051084Y-61481804D01*
X147055040Y-61477628D01*
X147059672Y-61469655D01*
X147140050Y-61331272D01*
X147140050Y-61331271D01*
X147142939Y-61326298D01*
X147193667Y-61158807D01*
X147199619Y-61062862D01*
X153695497Y-61062862D01*
X153725134Y-61235340D01*
X153793654Y-61396373D01*
X153897383Y-61537324D01*
X153901765Y-61541047D01*
X153901767Y-61541049D01*
X154026369Y-61646906D01*
X154030755Y-61650632D01*
X154110337Y-61691269D01*
X154181492Y-61727603D01*
X154181495Y-61727604D01*
X154186616Y-61730219D01*
X154192201Y-61731586D01*
X154192202Y-61731586D01*
X154352326Y-61770768D01*
X154352329Y-61770768D01*
X154356606Y-61771815D01*
X154361004Y-61772088D01*
X154361005Y-61772088D01*
X154366132Y-61772406D01*
X154366133Y-61772406D01*
X154367648Y-61772500D01*
X154493822Y-61772500D01*
X154499698Y-61771815D01*
X154508678Y-61770768D01*
X154623828Y-61757343D01*
X154629234Y-61755381D01*
X154629237Y-61755380D01*
X154782923Y-61699594D01*
X154788331Y-61697631D01*
X154793140Y-61694478D01*
X154793144Y-61694476D01*
X154884946Y-61634288D01*
X154934685Y-61601677D01*
X154938634Y-61597508D01*
X154938638Y-61597505D01*
X155051084Y-61478804D01*
X155055040Y-61474628D01*
X155098752Y-61399373D01*
X155140050Y-61328272D01*
X155140050Y-61328271D01*
X155142939Y-61323298D01*
X155193667Y-61155807D01*
X155204503Y-60981138D01*
X155174866Y-60808660D01*
X155135323Y-60715728D01*
X155108597Y-60652917D01*
X155108597Y-60652916D01*
X155106346Y-60647627D01*
X155002617Y-60506676D01*
X154998235Y-60502953D01*
X154998233Y-60502951D01*
X154873631Y-60397094D01*
X154873630Y-60397093D01*
X154869245Y-60393368D01*
X154779234Y-60347406D01*
X154718508Y-60316397D01*
X154718505Y-60316396D01*
X154713384Y-60313781D01*
X154707799Y-60312414D01*
X154707798Y-60312414D01*
X154547674Y-60273232D01*
X154547671Y-60273232D01*
X154543394Y-60272185D01*
X154538996Y-60271912D01*
X154538995Y-60271912D01*
X154533868Y-60271594D01*
X154533867Y-60271594D01*
X154532352Y-60271500D01*
X154406178Y-60271500D01*
X154403331Y-60271832D01*
X154403330Y-60271832D01*
X154392662Y-60273076D01*
X154276172Y-60286657D01*
X154270766Y-60288619D01*
X154270763Y-60288620D01*
X154196948Y-60315414D01*
X154111669Y-60346369D01*
X154106860Y-60349522D01*
X154106856Y-60349524D01*
X154029725Y-60400094D01*
X153965315Y-60442323D01*
X153961366Y-60446492D01*
X153961362Y-60446495D01*
X153852451Y-60561464D01*
X153844960Y-60569372D01*
X153842073Y-60574342D01*
X153842071Y-60574345D01*
X153796433Y-60652917D01*
X153757061Y-60720702D01*
X153706333Y-60888193D01*
X153695497Y-61062862D01*
X147199619Y-61062862D01*
X147204503Y-60984138D01*
X147174866Y-60811660D01*
X147106346Y-60650627D01*
X147002617Y-60509676D01*
X146998235Y-60505953D01*
X146998233Y-60505951D01*
X146873631Y-60400094D01*
X146873630Y-60400093D01*
X146869245Y-60396368D01*
X146777507Y-60349524D01*
X146718508Y-60319397D01*
X146718505Y-60319396D01*
X146713384Y-60316781D01*
X146707799Y-60315414D01*
X146707798Y-60315414D01*
X146547674Y-60276232D01*
X146547671Y-60276232D01*
X146543394Y-60275185D01*
X146538996Y-60274912D01*
X146538995Y-60274912D01*
X146533868Y-60274594D01*
X146533867Y-60274594D01*
X146532352Y-60274500D01*
X146406178Y-60274500D01*
X146403331Y-60274832D01*
X146403330Y-60274832D01*
X146392662Y-60276076D01*
X146276172Y-60289657D01*
X146270766Y-60291619D01*
X146270763Y-60291620D01*
X146194240Y-60319397D01*
X146111669Y-60349369D01*
X146106860Y-60352522D01*
X146106856Y-60352524D01*
X146015054Y-60412712D01*
X145965315Y-60445323D01*
X145961366Y-60449492D01*
X145961362Y-60449495D01*
X145852451Y-60564464D01*
X145844960Y-60572372D01*
X145842073Y-60577342D01*
X145842071Y-60577345D01*
X145799506Y-60650627D01*
X145757061Y-60723702D01*
X145706333Y-60891193D01*
X145695497Y-61065862D01*
X115650500Y-61065862D01*
X115650500Y-56749500D01*
X115669407Y-56691309D01*
X115718907Y-56655345D01*
X115749500Y-56650500D01*
X158250500Y-56650500D01*
X158308691Y-56669407D01*
G37*
%TD.AperFunction*%
%TD*%
%TA.AperFunction,Conductor*%
%TO.N,GND*%
G36*
X201308691Y-56669407D02*
G01*
X201344655Y-56718907D01*
X201349500Y-56749500D01*
X201349500Y-95250500D01*
X201330593Y-95308691D01*
X201281093Y-95344655D01*
X201250500Y-95349500D01*
X158749500Y-95349500D01*
X158691309Y-95330593D01*
X158655345Y-95281093D01*
X158650500Y-95250500D01*
X158650500Y-82500000D01*
X160169953Y-82500000D01*
X160188092Y-82672576D01*
X160241714Y-82837611D01*
X160328478Y-82987889D01*
X160331946Y-82991741D01*
X160331950Y-82991746D01*
X160441120Y-83112992D01*
X160441124Y-83112996D01*
X160444590Y-83116845D01*
X160584976Y-83218842D01*
X160589708Y-83220949D01*
X160589710Y-83220950D01*
X160738763Y-83287313D01*
X160738767Y-83287314D01*
X160743501Y-83289422D01*
X160748571Y-83290500D01*
X160748572Y-83290500D01*
X160765368Y-83294070D01*
X160913236Y-83325500D01*
X161086764Y-83325500D01*
X161144385Y-83313252D01*
X161234634Y-83294070D01*
X161295484Y-83300466D01*
X161325221Y-83320903D01*
X172255253Y-94250934D01*
X172268418Y-94267236D01*
X172274175Y-94276152D01*
X172280604Y-94281220D01*
X172299328Y-94295981D01*
X172303737Y-94299898D01*
X172303738Y-94299897D01*
X172306867Y-94302548D01*
X172309747Y-94305428D01*
X172313065Y-94307799D01*
X172313066Y-94307800D01*
X172324584Y-94316031D01*
X172328313Y-94318831D01*
X172365811Y-94348392D01*
X172373116Y-94350957D01*
X172374366Y-94351607D01*
X172380669Y-94356111D01*
X172412458Y-94365618D01*
X172426415Y-94369792D01*
X172430851Y-94371233D01*
X172470033Y-94384993D01*
X172470036Y-94384994D01*
X172475906Y-94387055D01*
X172481044Y-94387500D01*
X172483182Y-94387500D01*
X172484901Y-94387574D01*
X172486262Y-94387689D01*
X172492464Y-94389544D01*
X172500635Y-94389223D01*
X172542554Y-94387576D01*
X172546441Y-94387500D01*
X191866052Y-94387500D01*
X191886888Y-94389718D01*
X191888170Y-94389994D01*
X191897261Y-94391951D01*
X191929071Y-94388186D01*
X191934963Y-94387839D01*
X191934963Y-94387836D01*
X191939030Y-94387500D01*
X191943115Y-94387500D01*
X191947141Y-94386830D01*
X191947152Y-94386829D01*
X191961119Y-94384504D01*
X191965726Y-94383848D01*
X191988689Y-94381130D01*
X192005012Y-94379198D01*
X192005013Y-94379198D01*
X192013138Y-94378236D01*
X192020122Y-94374882D01*
X192021454Y-94374461D01*
X192029103Y-94373188D01*
X192071160Y-94350495D01*
X192075283Y-94348395D01*
X192112717Y-94330420D01*
X192112721Y-94330418D01*
X192118326Y-94327726D01*
X192122274Y-94324408D01*
X192123782Y-94322900D01*
X192125071Y-94321718D01*
X192126097Y-94320852D01*
X192131794Y-94317778D01*
X192137345Y-94311773D01*
X192137350Y-94311769D01*
X192165809Y-94280982D01*
X192168503Y-94278179D01*
X193134867Y-93311815D01*
X193178831Y-93286305D01*
X193200468Y-93280406D01*
X193294755Y-93254700D01*
X193404724Y-93187179D01*
X193473352Y-93111360D01*
X193486590Y-93096735D01*
X193486590Y-93096734D01*
X193491322Y-93091507D01*
X193525718Y-93020515D01*
X193544512Y-92981724D01*
X193544512Y-92981723D01*
X193547588Y-92975375D01*
X193566571Y-92862540D01*
X193568363Y-92851891D01*
X193568363Y-92851886D01*
X193568997Y-92848120D01*
X193569133Y-92837000D01*
X193550839Y-92709259D01*
X193508669Y-92616511D01*
X193500349Y-92598212D01*
X193500348Y-92598211D01*
X193497428Y-92591788D01*
X193492822Y-92586442D01*
X193489024Y-92580504D01*
X193490989Y-92579247D01*
X193471470Y-92532691D01*
X193485498Y-92473136D01*
X193531853Y-92433200D01*
X193570131Y-92425500D01*
X196483810Y-92425500D01*
X196542001Y-92444407D01*
X196553814Y-92454496D01*
X197088054Y-92988736D01*
X197106260Y-93013795D01*
X197128523Y-93057489D01*
X197211511Y-93140477D01*
X197218448Y-93144012D01*
X197218450Y-93144013D01*
X197309141Y-93190222D01*
X197309144Y-93190223D01*
X197316082Y-93193758D01*
X197323776Y-93194977D01*
X197323777Y-93194977D01*
X197424304Y-93210899D01*
X197432000Y-93212118D01*
X197439696Y-93210899D01*
X197540223Y-93194977D01*
X197540224Y-93194977D01*
X197547918Y-93193758D01*
X197554856Y-93190223D01*
X197554859Y-93190222D01*
X197645550Y-93144013D01*
X197645552Y-93144012D01*
X197652489Y-93140477D01*
X197735477Y-93057489D01*
X197767448Y-92994742D01*
X197785222Y-92959859D01*
X197785223Y-92959856D01*
X197788758Y-92952918D01*
X197790970Y-92938956D01*
X197805899Y-92844696D01*
X197807118Y-92837000D01*
X197788758Y-92721082D01*
X197785223Y-92714144D01*
X197785222Y-92714141D01*
X197739013Y-92623450D01*
X197739012Y-92623448D01*
X197735477Y-92616511D01*
X197652489Y-92533523D01*
X197645552Y-92529988D01*
X197645550Y-92529987D01*
X197608795Y-92511260D01*
X197583736Y-92493054D01*
X197135186Y-92044504D01*
X197107409Y-91989987D01*
X197116980Y-91929555D01*
X197160245Y-91886290D01*
X197205190Y-91875500D01*
X197838810Y-91875500D01*
X197897001Y-91894407D01*
X197908814Y-91904496D01*
X198993054Y-92988736D01*
X199011260Y-93013795D01*
X199033523Y-93057489D01*
X199116511Y-93140477D01*
X199123448Y-93144012D01*
X199123450Y-93144013D01*
X199214141Y-93190222D01*
X199214144Y-93190223D01*
X199221082Y-93193758D01*
X199228776Y-93194977D01*
X199228777Y-93194977D01*
X199329304Y-93210899D01*
X199337000Y-93212118D01*
X199344696Y-93210899D01*
X199445223Y-93194977D01*
X199445224Y-93194977D01*
X199452918Y-93193758D01*
X199459856Y-93190223D01*
X199459859Y-93190222D01*
X199550550Y-93144013D01*
X199550552Y-93144012D01*
X199557489Y-93140477D01*
X199640477Y-93057489D01*
X199672448Y-92994742D01*
X199690222Y-92959859D01*
X199690223Y-92959856D01*
X199693758Y-92952918D01*
X199695970Y-92938956D01*
X199710899Y-92844696D01*
X199712118Y-92837000D01*
X199693758Y-92721082D01*
X199690223Y-92714144D01*
X199690222Y-92714141D01*
X199644013Y-92623450D01*
X199644012Y-92623448D01*
X199640477Y-92616511D01*
X199557489Y-92533523D01*
X199550552Y-92529988D01*
X199550550Y-92529987D01*
X199513795Y-92511260D01*
X199488736Y-92493054D01*
X198306745Y-91311063D01*
X198293580Y-91294760D01*
X198292267Y-91292726D01*
X198292264Y-91292722D01*
X198287825Y-91285848D01*
X198262668Y-91266015D01*
X198258263Y-91262101D01*
X198258262Y-91262102D01*
X198255131Y-91259449D01*
X198252254Y-91256572D01*
X198237399Y-91245956D01*
X198233681Y-91243165D01*
X198202614Y-91218673D01*
X198202613Y-91218673D01*
X198196189Y-91213608D01*
X198188882Y-91211042D01*
X198187637Y-91210395D01*
X198181331Y-91205889D01*
X198149542Y-91196382D01*
X198135585Y-91192208D01*
X198131149Y-91190767D01*
X198091967Y-91177007D01*
X198091964Y-91177006D01*
X198086094Y-91174945D01*
X198080956Y-91174500D01*
X198078818Y-91174500D01*
X198077099Y-91174426D01*
X198075738Y-91174311D01*
X198069536Y-91172456D01*
X198061365Y-91172777D01*
X198019446Y-91174424D01*
X198015559Y-91174500D01*
X195638190Y-91174500D01*
X195579999Y-91155593D01*
X195544035Y-91106093D01*
X195544035Y-91044907D01*
X195568186Y-91005496D01*
X200123734Y-86449947D01*
X200148793Y-86431741D01*
X200185550Y-86413013D01*
X200185552Y-86413012D01*
X200192489Y-86409477D01*
X200275477Y-86326489D01*
X200279013Y-86319550D01*
X200325222Y-86228859D01*
X200325223Y-86228856D01*
X200328758Y-86221918D01*
X200347118Y-86106000D01*
X200328758Y-85990082D01*
X200325223Y-85983144D01*
X200325222Y-85983141D01*
X200279013Y-85892450D01*
X200279012Y-85892448D01*
X200275477Y-85885511D01*
X200192489Y-85802523D01*
X200185552Y-85798988D01*
X200185550Y-85798987D01*
X200094859Y-85752778D01*
X200094856Y-85752777D01*
X200087918Y-85749242D01*
X200080224Y-85748023D01*
X200080223Y-85748023D01*
X199979696Y-85732101D01*
X199972000Y-85730882D01*
X199964304Y-85732101D01*
X199863777Y-85748023D01*
X199863776Y-85748023D01*
X199856082Y-85749242D01*
X199849144Y-85752777D01*
X199849141Y-85752778D01*
X199758450Y-85798987D01*
X199758448Y-85798988D01*
X199751511Y-85802523D01*
X199668523Y-85885511D01*
X199664988Y-85892448D01*
X199664987Y-85892450D01*
X199646260Y-85929205D01*
X199628054Y-85954264D01*
X194986814Y-90595504D01*
X194932297Y-90623281D01*
X194916810Y-90624500D01*
X194156190Y-90624500D01*
X194097999Y-90605593D01*
X194062035Y-90556093D01*
X194062035Y-90494907D01*
X194086186Y-90455496D01*
X198091736Y-86449946D01*
X198116795Y-86431740D01*
X198153550Y-86413013D01*
X198153552Y-86413012D01*
X198160489Y-86409477D01*
X198243477Y-86326489D01*
X198247013Y-86319550D01*
X198293222Y-86228859D01*
X198293223Y-86228856D01*
X198296758Y-86221918D01*
X198315118Y-86106000D01*
X198296758Y-85990082D01*
X198293223Y-85983144D01*
X198293222Y-85983141D01*
X198247013Y-85892450D01*
X198247012Y-85892448D01*
X198243477Y-85885511D01*
X198160489Y-85802523D01*
X198153552Y-85798988D01*
X198153550Y-85798987D01*
X198062859Y-85752778D01*
X198062856Y-85752777D01*
X198055918Y-85749242D01*
X198048224Y-85748023D01*
X198048223Y-85748023D01*
X197947696Y-85732101D01*
X197940000Y-85730882D01*
X197932304Y-85732101D01*
X197831777Y-85748023D01*
X197831776Y-85748023D01*
X197824082Y-85749242D01*
X197817144Y-85752777D01*
X197817141Y-85752778D01*
X197726450Y-85798987D01*
X197726448Y-85798988D01*
X197719511Y-85802523D01*
X197636523Y-85885511D01*
X197632988Y-85892448D01*
X197632987Y-85892450D01*
X197614260Y-85929205D01*
X197596054Y-85954264D01*
X193504814Y-90045504D01*
X193450297Y-90073281D01*
X193434810Y-90074500D01*
X183635948Y-90074500D01*
X183615112Y-90072282D01*
X183613830Y-90072006D01*
X183604739Y-90070049D01*
X183572929Y-90073814D01*
X183567037Y-90074161D01*
X183567037Y-90074164D01*
X183562970Y-90074500D01*
X183558885Y-90074500D01*
X183554859Y-90075170D01*
X183554848Y-90075171D01*
X183540881Y-90077496D01*
X183536269Y-90078153D01*
X183488861Y-90083764D01*
X183481878Y-90087117D01*
X183480544Y-90087539D01*
X183472897Y-90088812D01*
X183465696Y-90092698D01*
X183465695Y-90092698D01*
X183430861Y-90111494D01*
X183426703Y-90113612D01*
X183389288Y-90131578D01*
X183389287Y-90131579D01*
X183383674Y-90134274D01*
X183379726Y-90137592D01*
X183378216Y-90139102D01*
X183376929Y-90140282D01*
X183375903Y-90141148D01*
X183370206Y-90144222D01*
X183364655Y-90150227D01*
X183364650Y-90150231D01*
X183336191Y-90181018D01*
X183333497Y-90183821D01*
X181156183Y-92361135D01*
X181113384Y-92386320D01*
X180996935Y-92419601D01*
X180996933Y-92419602D01*
X180990155Y-92421539D01*
X180984191Y-92425302D01*
X180953912Y-92444407D01*
X180881019Y-92490399D01*
X180795596Y-92587122D01*
X180784383Y-92611005D01*
X180761895Y-92658903D01*
X180720049Y-92703542D01*
X180659958Y-92715059D01*
X180602276Y-92686833D01*
X180539496Y-92624053D01*
X180511719Y-92569536D01*
X180510500Y-92554049D01*
X180510500Y-89848190D01*
X180529407Y-89789999D01*
X180539496Y-89778186D01*
X197802185Y-72515496D01*
X197856702Y-72487719D01*
X197872189Y-72486500D01*
X198639541Y-72486500D01*
X198694398Y-72503088D01*
X198760060Y-72546796D01*
X198766788Y-72548898D01*
X198766790Y-72548899D01*
X198821646Y-72566037D01*
X198883233Y-72585278D01*
X198947744Y-72586461D01*
X199005202Y-72587514D01*
X199005204Y-72587514D01*
X199012255Y-72587643D01*
X199019058Y-72585788D01*
X199019060Y-72585788D01*
X199060828Y-72574400D01*
X199136755Y-72553700D01*
X199246724Y-72486179D01*
X199333322Y-72390507D01*
X199389588Y-72274375D01*
X199410997Y-72147120D01*
X199411133Y-72136000D01*
X199392839Y-72008259D01*
X199339428Y-71890788D01*
X199264386Y-71803697D01*
X199259798Y-71798372D01*
X199259797Y-71798371D01*
X199255193Y-71793028D01*
X199249276Y-71789193D01*
X199249274Y-71789191D01*
X199152824Y-71726677D01*
X199146906Y-71722841D01*
X199140150Y-71720821D01*
X199140149Y-71720820D01*
X199097335Y-71708016D01*
X199023273Y-71685866D01*
X198946644Y-71685398D01*
X198901282Y-71685121D01*
X198894231Y-71685078D01*
X198887454Y-71687015D01*
X198887453Y-71687015D01*
X198776935Y-71718601D01*
X198776933Y-71718602D01*
X198770155Y-71720539D01*
X198764191Y-71724302D01*
X198691405Y-71770227D01*
X198638577Y-71785500D01*
X197733948Y-71785500D01*
X197713112Y-71783282D01*
X197711830Y-71783006D01*
X197702739Y-71781049D01*
X197670929Y-71784814D01*
X197665037Y-71785161D01*
X197665037Y-71785164D01*
X197660970Y-71785500D01*
X197656885Y-71785500D01*
X197652859Y-71786170D01*
X197652848Y-71786171D01*
X197638881Y-71788496D01*
X197634274Y-71789152D01*
X197611311Y-71791870D01*
X197594988Y-71793802D01*
X197594987Y-71793802D01*
X197586862Y-71794764D01*
X197579878Y-71798118D01*
X197578546Y-71798539D01*
X197570897Y-71799812D01*
X197528840Y-71822505D01*
X197524717Y-71824605D01*
X197487283Y-71842580D01*
X197487279Y-71842582D01*
X197481674Y-71845274D01*
X197477726Y-71848592D01*
X197476218Y-71850100D01*
X197474929Y-71851282D01*
X197473903Y-71852148D01*
X197468206Y-71855222D01*
X197462655Y-71861227D01*
X197462650Y-71861231D01*
X197434191Y-71892018D01*
X197431497Y-71894821D01*
X179946063Y-89380255D01*
X179929760Y-89393420D01*
X179927726Y-89394733D01*
X179927722Y-89394736D01*
X179920848Y-89399175D01*
X179901015Y-89424332D01*
X179897101Y-89428737D01*
X179897102Y-89428738D01*
X179894449Y-89431869D01*
X179891572Y-89434746D01*
X179880956Y-89449601D01*
X179878170Y-89453312D01*
X179848608Y-89490811D01*
X179846042Y-89498118D01*
X179845395Y-89499363D01*
X179840889Y-89505669D01*
X179838545Y-89513508D01*
X179827208Y-89551415D01*
X179825767Y-89555851D01*
X179809945Y-89600906D01*
X179809500Y-89606044D01*
X179809500Y-89608182D01*
X179809426Y-89609901D01*
X179809311Y-89611262D01*
X179807456Y-89617464D01*
X179807777Y-89625635D01*
X179809424Y-89667554D01*
X179809500Y-89671441D01*
X179809500Y-92692291D01*
X179807282Y-92713127D01*
X179805049Y-92723500D01*
X179806011Y-92731625D01*
X179808814Y-92755310D01*
X179809161Y-92761202D01*
X179809164Y-92761202D01*
X179809500Y-92765269D01*
X179809500Y-92769354D01*
X179810170Y-92773380D01*
X179810171Y-92773391D01*
X179812496Y-92787358D01*
X179813152Y-92791965D01*
X179818764Y-92839377D01*
X179822118Y-92846361D01*
X179822539Y-92847693D01*
X179823812Y-92855342D01*
X179846505Y-92897399D01*
X179848605Y-92901522D01*
X179866580Y-92938956D01*
X179866582Y-92938960D01*
X179869274Y-92944565D01*
X179872592Y-92948513D01*
X179874100Y-92950021D01*
X179875282Y-92951310D01*
X179876148Y-92952336D01*
X179879222Y-92958033D01*
X179885227Y-92963584D01*
X179885231Y-92963589D01*
X179916018Y-92992048D01*
X179918821Y-92994742D01*
X180441575Y-93517496D01*
X180469352Y-93572013D01*
X180459781Y-93632445D01*
X180416516Y-93675710D01*
X180371571Y-93686500D01*
X172723190Y-93686500D01*
X172664999Y-93667593D01*
X172653186Y-93657504D01*
X161819578Y-82823896D01*
X161791801Y-82769379D01*
X161795427Y-82723300D01*
X161810307Y-82677504D01*
X161810307Y-82677502D01*
X161811908Y-82672576D01*
X161830047Y-82500000D01*
X161811908Y-82327424D01*
X161758286Y-82162389D01*
X161671522Y-82012111D01*
X161668054Y-82008259D01*
X161668050Y-82008254D01*
X161558880Y-81887008D01*
X161558876Y-81887004D01*
X161555410Y-81883155D01*
X161415024Y-81781158D01*
X161410292Y-81779051D01*
X161410290Y-81779050D01*
X161261237Y-81712687D01*
X161261233Y-81712686D01*
X161256499Y-81710578D01*
X161251429Y-81709500D01*
X161251428Y-81709500D01*
X161217461Y-81702280D01*
X161086764Y-81674500D01*
X160913236Y-81674500D01*
X160782539Y-81702280D01*
X160748572Y-81709500D01*
X160748571Y-81709500D01*
X160743501Y-81710578D01*
X160738767Y-81712686D01*
X160738763Y-81712687D01*
X160589711Y-81779050D01*
X160589709Y-81779051D01*
X160584977Y-81781158D01*
X160444590Y-81883155D01*
X160441124Y-81887004D01*
X160441120Y-81887008D01*
X160331950Y-82008254D01*
X160331946Y-82008259D01*
X160328478Y-82012111D01*
X160241714Y-82162389D01*
X160188092Y-82327424D01*
X160169953Y-82500000D01*
X158650500Y-82500000D01*
X158650500Y-74633079D01*
X159062049Y-74633079D01*
X159063011Y-74641204D01*
X159065814Y-74664889D01*
X159066161Y-74670781D01*
X159066164Y-74670781D01*
X159066500Y-74674848D01*
X159066500Y-74678933D01*
X159067170Y-74682959D01*
X159067171Y-74682970D01*
X159069496Y-74696937D01*
X159070152Y-74701544D01*
X159075764Y-74748956D01*
X159079118Y-74755940D01*
X159079539Y-74757272D01*
X159080812Y-74764921D01*
X159103505Y-74806978D01*
X159105605Y-74811101D01*
X159123580Y-74848535D01*
X159123582Y-74848539D01*
X159126274Y-74854144D01*
X159129592Y-74858092D01*
X159131100Y-74859600D01*
X159132282Y-74860889D01*
X159133148Y-74861915D01*
X159136222Y-74867612D01*
X159142227Y-74873163D01*
X159142231Y-74873168D01*
X159173018Y-74901627D01*
X159175821Y-74904321D01*
X174065504Y-89794004D01*
X174093281Y-89848521D01*
X174094500Y-89864008D01*
X174094500Y-90122052D01*
X174092282Y-90142888D01*
X174090049Y-90153261D01*
X174091011Y-90161386D01*
X174093814Y-90185071D01*
X174094161Y-90190963D01*
X174094164Y-90190963D01*
X174094500Y-90195030D01*
X174094500Y-90199115D01*
X174095170Y-90203141D01*
X174095171Y-90203152D01*
X174097496Y-90217119D01*
X174098152Y-90221726D01*
X174103764Y-90269138D01*
X174107118Y-90276122D01*
X174107539Y-90277454D01*
X174108812Y-90285103D01*
X174131505Y-90327160D01*
X174133605Y-90331283D01*
X174151580Y-90368717D01*
X174151582Y-90368721D01*
X174154274Y-90374326D01*
X174157592Y-90378274D01*
X174159100Y-90379782D01*
X174160282Y-90381071D01*
X174161148Y-90382097D01*
X174164222Y-90387794D01*
X174170227Y-90393345D01*
X174170231Y-90393350D01*
X174201018Y-90421809D01*
X174203821Y-90424503D01*
X175244054Y-91464736D01*
X175262260Y-91489795D01*
X175284523Y-91533489D01*
X175367511Y-91616477D01*
X175374448Y-91620012D01*
X175374450Y-91620013D01*
X175465141Y-91666222D01*
X175465144Y-91666223D01*
X175472082Y-91669758D01*
X175479776Y-91670977D01*
X175479777Y-91670977D01*
X175580304Y-91686899D01*
X175588000Y-91688118D01*
X175595696Y-91686899D01*
X175696223Y-91670977D01*
X175696224Y-91670977D01*
X175703918Y-91669758D01*
X175710856Y-91666223D01*
X175710859Y-91666222D01*
X175801550Y-91620013D01*
X175801552Y-91620012D01*
X175808489Y-91616477D01*
X175891477Y-91533489D01*
X175920859Y-91475823D01*
X175941222Y-91435859D01*
X175941223Y-91435856D01*
X175944758Y-91428918D01*
X175963118Y-91313000D01*
X175955056Y-91262101D01*
X175945977Y-91204777D01*
X175945977Y-91204776D01*
X175944758Y-91197082D01*
X175941223Y-91190144D01*
X175941222Y-91190141D01*
X175895013Y-91099450D01*
X175895012Y-91099448D01*
X175891477Y-91092511D01*
X175808489Y-91009523D01*
X175801552Y-91005988D01*
X175801550Y-91005987D01*
X175764795Y-90987260D01*
X175739736Y-90969054D01*
X175299069Y-90528387D01*
X175271292Y-90473870D01*
X175280863Y-90413438D01*
X175324128Y-90370173D01*
X175384560Y-90360602D01*
X175414017Y-90370173D01*
X175472082Y-90399758D01*
X175479776Y-90400977D01*
X175479777Y-90400977D01*
X175580304Y-90416899D01*
X175588000Y-90418118D01*
X175595696Y-90416899D01*
X175696223Y-90400977D01*
X175696224Y-90400977D01*
X175703918Y-90399758D01*
X175710856Y-90396223D01*
X175710859Y-90396222D01*
X175801550Y-90350013D01*
X175801552Y-90350012D01*
X175808489Y-90346477D01*
X175891477Y-90263489D01*
X175913933Y-90219417D01*
X175941222Y-90165859D01*
X175941223Y-90165856D01*
X175944758Y-90158918D01*
X175946922Y-90145259D01*
X175961899Y-90050696D01*
X175963118Y-90043000D01*
X175944758Y-89927082D01*
X175941223Y-89920144D01*
X175941222Y-89920141D01*
X175895013Y-89829450D01*
X175895012Y-89829448D01*
X175891477Y-89822511D01*
X175808489Y-89739523D01*
X175801552Y-89735988D01*
X175801550Y-89735987D01*
X175764795Y-89717260D01*
X175739736Y-89699054D01*
X160346496Y-74305814D01*
X160318719Y-74251297D01*
X160317500Y-74235810D01*
X160317500Y-69878952D01*
X160336407Y-69820761D01*
X160346496Y-69808948D01*
X160406419Y-69749025D01*
X160460936Y-69721248D01*
X160521368Y-69730819D01*
X160563941Y-69773392D01*
X160564881Y-69776937D01*
X160568796Y-69783215D01*
X160568797Y-69783217D01*
X160579843Y-69800928D01*
X160586453Y-69813438D01*
X160596605Y-69836510D01*
X160606410Y-69848174D01*
X160613131Y-69856170D01*
X160621350Y-69867483D01*
X160632648Y-69885599D01*
X160632650Y-69885602D01*
X160636567Y-69891882D01*
X160650971Y-69904381D01*
X160655012Y-69907888D01*
X160665906Y-69918954D01*
X160679639Y-69935291D01*
X160704236Y-69951664D01*
X160714257Y-69959298D01*
X160738883Y-69980667D01*
X160757699Y-69988986D01*
X160772518Y-69997116D01*
X160787060Y-70006796D01*
X160793790Y-70008899D01*
X160793791Y-70008899D01*
X160818947Y-70016758D01*
X160829448Y-70020705D01*
X160862783Y-70035442D01*
X160876920Y-70037115D01*
X160879369Y-70037405D01*
X160897251Y-70041222D01*
X160910233Y-70045278D01*
X160930611Y-70045651D01*
X160947489Y-70045961D01*
X160957310Y-70046630D01*
X160983250Y-70049700D01*
X160997310Y-70051364D01*
X161006394Y-70049705D01*
X161009933Y-70049059D01*
X161029530Y-70047465D01*
X161032200Y-70047514D01*
X161032201Y-70047514D01*
X161039255Y-70047643D01*
X161046058Y-70045788D01*
X161046060Y-70045788D01*
X161078946Y-70036822D01*
X161087195Y-70034948D01*
X161130573Y-70027025D01*
X161137137Y-70023615D01*
X161137144Y-70023613D01*
X161138528Y-70022894D01*
X161153652Y-70016982D01*
X161156947Y-70015556D01*
X161163755Y-70013700D01*
X161169767Y-70010009D01*
X161169771Y-70010007D01*
X161202107Y-69990153D01*
X161208268Y-69986667D01*
X161245777Y-69967182D01*
X161250788Y-69964579D01*
X161255828Y-69960275D01*
X161257193Y-69958910D01*
X161258522Y-69957682D01*
X161262464Y-69954229D01*
X161267719Y-69949866D01*
X161273724Y-69946179D01*
X161278453Y-69940955D01*
X161278456Y-69940952D01*
X161308328Y-69907949D01*
X161311722Y-69904381D01*
X162017607Y-69198496D01*
X162072124Y-69170719D01*
X162087611Y-69169500D01*
X179828389Y-69169500D01*
X179886580Y-69188407D01*
X179898393Y-69198496D01*
X180401358Y-69701461D01*
X180407137Y-69707763D01*
X180429100Y-69733892D01*
X180429103Y-69733894D01*
X180433639Y-69739291D01*
X180476352Y-69767723D01*
X180480313Y-69770502D01*
X180497528Y-69783217D01*
X180523816Y-69802634D01*
X180530794Y-69805084D01*
X180532216Y-69805837D01*
X180535886Y-69807352D01*
X180541060Y-69810796D01*
X180593780Y-69827267D01*
X180597044Y-69828350D01*
X180644644Y-69845066D01*
X180644648Y-69845067D01*
X180651631Y-69847519D01*
X180659027Y-69847809D01*
X180660327Y-69848057D01*
X180664233Y-69849278D01*
X180723483Y-69850364D01*
X180725483Y-69850421D01*
X180786994Y-69852838D01*
X180791614Y-69851613D01*
X180793255Y-69851643D01*
X180796974Y-69850629D01*
X180796975Y-69850629D01*
X180855126Y-69834775D01*
X180855792Y-69834596D01*
X180907968Y-69820761D01*
X180917936Y-69818118D01*
X180972551Y-69784058D01*
X180973112Y-69783711D01*
X180979620Y-69779715D01*
X181027724Y-69750179D01*
X181028825Y-69748962D01*
X181032881Y-69746433D01*
X181073172Y-69700001D01*
X181074534Y-69698465D01*
X181109591Y-69659734D01*
X181109592Y-69659733D01*
X181114322Y-69654507D01*
X181116109Y-69650818D01*
X181116815Y-69649706D01*
X181121666Y-69644116D01*
X181145061Y-69591200D01*
X181146493Y-69588107D01*
X181170588Y-69538375D01*
X181171619Y-69532244D01*
X181173024Y-69528542D01*
X181173450Y-69526983D01*
X181176442Y-69520217D01*
X181182799Y-69466504D01*
X181183485Y-69461715D01*
X181191363Y-69414891D01*
X181191364Y-69414885D01*
X181191997Y-69411120D01*
X181192133Y-69400000D01*
X181191636Y-69396527D01*
X181191545Y-69394647D01*
X181191494Y-69393036D01*
X181192364Y-69385689D01*
X181191035Y-69378413D01*
X181191035Y-69378409D01*
X181182140Y-69329710D01*
X181181529Y-69325957D01*
X181178351Y-69303767D01*
X181173839Y-69272259D01*
X181171020Y-69266059D01*
X181169877Y-69261232D01*
X181169355Y-69259707D01*
X181168025Y-69252427D01*
X181164616Y-69245865D01*
X181164615Y-69245861D01*
X181143535Y-69205281D01*
X181141267Y-69200621D01*
X181123349Y-69161212D01*
X181123348Y-69161211D01*
X181120428Y-69154788D01*
X181115822Y-69149442D01*
X181112024Y-69143504D01*
X181112509Y-69143194D01*
X181111541Y-69141764D01*
X181111336Y-69141902D01*
X181108181Y-69137220D01*
X181105579Y-69132211D01*
X181101275Y-69127172D01*
X181070311Y-69096208D01*
X181065316Y-69090827D01*
X181040798Y-69062372D01*
X181040797Y-69062371D01*
X181036193Y-69057028D01*
X181030273Y-69053191D01*
X181029505Y-69052521D01*
X181014419Y-69040316D01*
X180397619Y-68423516D01*
X180389877Y-68414803D01*
X180372453Y-68392701D01*
X180367872Y-68386890D01*
X180319251Y-68353286D01*
X180316728Y-68351483D01*
X180275139Y-68320764D01*
X180275137Y-68320763D01*
X180269184Y-68316366D01*
X180262368Y-68313973D01*
X180256431Y-68309869D01*
X180249372Y-68307636D01*
X180249371Y-68307636D01*
X180229027Y-68301202D01*
X180200071Y-68292044D01*
X180197186Y-68291082D01*
X180141369Y-68271481D01*
X180135327Y-68271244D01*
X180132653Y-68270723D01*
X180127270Y-68269020D01*
X180120663Y-68268500D01*
X180067459Y-68268500D01*
X180063572Y-68268424D01*
X180013397Y-68266452D01*
X180013394Y-68266452D01*
X180006006Y-68266162D01*
X179999228Y-68267959D01*
X179989403Y-68268500D01*
X162125952Y-68268500D01*
X162067761Y-68249593D01*
X162031797Y-68200093D01*
X162031797Y-68138907D01*
X162055948Y-68099496D01*
X163735948Y-66419496D01*
X163790465Y-66391719D01*
X163805952Y-66390500D01*
X169049208Y-66390500D01*
X169107399Y-66409407D01*
X169119212Y-66419496D01*
X169228153Y-66528437D01*
X169241318Y-66544740D01*
X169242631Y-66546774D01*
X169242634Y-66546778D01*
X169247073Y-66553652D01*
X169272230Y-66573484D01*
X169276636Y-66577400D01*
X169276637Y-66577399D01*
X169279766Y-66580050D01*
X169282645Y-66582929D01*
X169285959Y-66585297D01*
X169285960Y-66585298D01*
X169297489Y-66593537D01*
X169301217Y-66596336D01*
X169314959Y-66607169D01*
X169338709Y-66625892D01*
X169346012Y-66628457D01*
X169347267Y-66629109D01*
X169353568Y-66633611D01*
X169391374Y-66644917D01*
X169399310Y-66647291D01*
X169403744Y-66648732D01*
X169442928Y-66662492D01*
X169442932Y-66662493D01*
X169448804Y-66664555D01*
X169453942Y-66665000D01*
X169456080Y-66665000D01*
X169457799Y-66665074D01*
X169459160Y-66665189D01*
X169465362Y-66667044D01*
X169473533Y-66666723D01*
X169515452Y-66665076D01*
X169519339Y-66665000D01*
X170058552Y-66665000D01*
X170079388Y-66667218D01*
X170080670Y-66667494D01*
X170089761Y-66669451D01*
X170121571Y-66665686D01*
X170127463Y-66665339D01*
X170127463Y-66665336D01*
X170131530Y-66665000D01*
X170135615Y-66665000D01*
X170139641Y-66664330D01*
X170139652Y-66664329D01*
X170153619Y-66662004D01*
X170158226Y-66661348D01*
X170181189Y-66658630D01*
X170197512Y-66656698D01*
X170197513Y-66656698D01*
X170205638Y-66655736D01*
X170212622Y-66652382D01*
X170213954Y-66651961D01*
X170221603Y-66650688D01*
X170263660Y-66627995D01*
X170267783Y-66625895D01*
X170305217Y-66607920D01*
X170305221Y-66607918D01*
X170310826Y-66605226D01*
X170314774Y-66601908D01*
X170316282Y-66600400D01*
X170317571Y-66599218D01*
X170318597Y-66598352D01*
X170324294Y-66595278D01*
X170329845Y-66589273D01*
X170329850Y-66589269D01*
X170358309Y-66558482D01*
X170361003Y-66555679D01*
X170975937Y-65940745D01*
X170992240Y-65927580D01*
X170994274Y-65926267D01*
X170994278Y-65926264D01*
X171001152Y-65921825D01*
X171020985Y-65896668D01*
X171024899Y-65892263D01*
X171024898Y-65892262D01*
X171027551Y-65889131D01*
X171030428Y-65886254D01*
X171041044Y-65871399D01*
X171043835Y-65867681D01*
X171068327Y-65836614D01*
X171068327Y-65836613D01*
X171073392Y-65830189D01*
X171075958Y-65822882D01*
X171076605Y-65821637D01*
X171081111Y-65815331D01*
X171094792Y-65769585D01*
X171096233Y-65765149D01*
X171109993Y-65725967D01*
X171109994Y-65725964D01*
X171112055Y-65720094D01*
X171112500Y-65714956D01*
X171112500Y-65712818D01*
X171112574Y-65711099D01*
X171112689Y-65709738D01*
X171114544Y-65703536D01*
X171112576Y-65653446D01*
X171112500Y-65649559D01*
X171112500Y-63646914D01*
X171116801Y-63619760D01*
X171118758Y-63615918D01*
X171137118Y-63500000D01*
X171132922Y-63473511D01*
X171119977Y-63391777D01*
X171119977Y-63391776D01*
X171118758Y-63384082D01*
X171115223Y-63377144D01*
X171115222Y-63377141D01*
X171069013Y-63286450D01*
X171069012Y-63286448D01*
X171065477Y-63279511D01*
X170982489Y-63196523D01*
X170975552Y-63192988D01*
X170975550Y-63192987D01*
X170884859Y-63146778D01*
X170884856Y-63146777D01*
X170877918Y-63143242D01*
X170870224Y-63142023D01*
X170870223Y-63142023D01*
X170769696Y-63126101D01*
X170762000Y-63124882D01*
X170754304Y-63126101D01*
X170653777Y-63142023D01*
X170653776Y-63142023D01*
X170646082Y-63143242D01*
X170639144Y-63146777D01*
X170639141Y-63146778D01*
X170548450Y-63192987D01*
X170548448Y-63192988D01*
X170541511Y-63196523D01*
X170458523Y-63279511D01*
X170454988Y-63286448D01*
X170454987Y-63286450D01*
X170408778Y-63377141D01*
X170408777Y-63377144D01*
X170405242Y-63384082D01*
X170404023Y-63391776D01*
X170404023Y-63391777D01*
X170391078Y-63473511D01*
X170386882Y-63500000D01*
X170405242Y-63615918D01*
X170407199Y-63619760D01*
X170411500Y-63646914D01*
X170411500Y-65472810D01*
X170392593Y-65531001D01*
X170382504Y-65542814D01*
X170263597Y-65661721D01*
X170209080Y-65689498D01*
X170148648Y-65679927D01*
X170105383Y-65636662D01*
X170103205Y-65631403D01*
X170102758Y-65628582D01*
X170049477Y-65524011D01*
X169966489Y-65441023D01*
X169959552Y-65437488D01*
X169959550Y-65437487D01*
X169922795Y-65418760D01*
X169897736Y-65400554D01*
X169688245Y-65191063D01*
X169675080Y-65174760D01*
X169673767Y-65172726D01*
X169673764Y-65172722D01*
X169669325Y-65165848D01*
X169644168Y-65146015D01*
X169639763Y-65142101D01*
X169639762Y-65142102D01*
X169636631Y-65139449D01*
X169633754Y-65136572D01*
X169618899Y-65125956D01*
X169615181Y-65123165D01*
X169612226Y-65120835D01*
X169577689Y-65093608D01*
X169570382Y-65091042D01*
X169569137Y-65090395D01*
X169562831Y-65085889D01*
X169531042Y-65076382D01*
X169517085Y-65072208D01*
X169512649Y-65070767D01*
X169473467Y-65057007D01*
X169473464Y-65057006D01*
X169467594Y-65054945D01*
X169462456Y-65054500D01*
X169460318Y-65054500D01*
X169458599Y-65054426D01*
X169457238Y-65054311D01*
X169451036Y-65052456D01*
X169442865Y-65052777D01*
X169400946Y-65054424D01*
X169397059Y-65054500D01*
X163524892Y-65054500D01*
X163504056Y-65052282D01*
X163502774Y-65052006D01*
X163493683Y-65050049D01*
X163462524Y-65053737D01*
X163461873Y-65053814D01*
X163455981Y-65054161D01*
X163455981Y-65054164D01*
X163451914Y-65054500D01*
X163447829Y-65054500D01*
X163443803Y-65055170D01*
X163443792Y-65055171D01*
X163429825Y-65057496D01*
X163425218Y-65058152D01*
X163402255Y-65060870D01*
X163385932Y-65062802D01*
X163385931Y-65062802D01*
X163377806Y-65063764D01*
X163370822Y-65067118D01*
X163369490Y-65067539D01*
X163361841Y-65068812D01*
X163319784Y-65091505D01*
X163315661Y-65093605D01*
X163278227Y-65111580D01*
X163278223Y-65111582D01*
X163272618Y-65114274D01*
X163268670Y-65117592D01*
X163267162Y-65119100D01*
X163265873Y-65120282D01*
X163264847Y-65121148D01*
X163259150Y-65124222D01*
X163253599Y-65130227D01*
X163253594Y-65130231D01*
X163225135Y-65161018D01*
X163222441Y-65163821D01*
X159203063Y-69183199D01*
X159186760Y-69196364D01*
X159184726Y-69197677D01*
X159184722Y-69197680D01*
X159177848Y-69202119D01*
X159158015Y-69227276D01*
X159154101Y-69231681D01*
X159154102Y-69231682D01*
X159151449Y-69234813D01*
X159148572Y-69237690D01*
X159137956Y-69252545D01*
X159135170Y-69256256D01*
X159105608Y-69293755D01*
X159103042Y-69301062D01*
X159102395Y-69302307D01*
X159097889Y-69308613D01*
X159095545Y-69316452D01*
X159084208Y-69354359D01*
X159082767Y-69358795D01*
X159070177Y-69394647D01*
X159066945Y-69403850D01*
X159066500Y-69408988D01*
X159066500Y-69411120D01*
X159066426Y-69412845D01*
X159066311Y-69414206D01*
X159064456Y-69420408D01*
X159064777Y-69428579D01*
X159066424Y-69470498D01*
X159066500Y-69474385D01*
X159066500Y-74601870D01*
X159064282Y-74622706D01*
X159062049Y-74633079D01*
X158650500Y-74633079D01*
X158650500Y-63100000D01*
X167529534Y-63100000D01*
X167549313Y-63250236D01*
X167551797Y-63256233D01*
X167604819Y-63384240D01*
X167604821Y-63384244D01*
X167607302Y-63390233D01*
X167611248Y-63395375D01*
X167611250Y-63395379D01*
X167685624Y-63492304D01*
X167699549Y-63510451D01*
X167704698Y-63514402D01*
X167814621Y-63598750D01*
X167814625Y-63598752D01*
X167819767Y-63602698D01*
X167825756Y-63605179D01*
X167825760Y-63605181D01*
X167926513Y-63646914D01*
X167959764Y-63660687D01*
X168072280Y-63675500D01*
X168147720Y-63675500D01*
X168260236Y-63660687D01*
X168293487Y-63646914D01*
X168394240Y-63605181D01*
X168394244Y-63605179D01*
X168400233Y-63602698D01*
X168405375Y-63598752D01*
X168405379Y-63598750D01*
X168515302Y-63514402D01*
X168520451Y-63510451D01*
X168534376Y-63492304D01*
X168608750Y-63395379D01*
X168608752Y-63395375D01*
X168612698Y-63390233D01*
X168615179Y-63384244D01*
X168615181Y-63384240D01*
X168668203Y-63256233D01*
X168670687Y-63250236D01*
X168690466Y-63100000D01*
X173309534Y-63100000D01*
X173329313Y-63250236D01*
X173331797Y-63256233D01*
X173384819Y-63384240D01*
X173384821Y-63384244D01*
X173387302Y-63390233D01*
X173391248Y-63395375D01*
X173391250Y-63395379D01*
X173465624Y-63492304D01*
X173479549Y-63510451D01*
X173484698Y-63514402D01*
X173594621Y-63598750D01*
X173594625Y-63598752D01*
X173599767Y-63602698D01*
X173605756Y-63605179D01*
X173605760Y-63605181D01*
X173706513Y-63646914D01*
X173739764Y-63660687D01*
X173852280Y-63675500D01*
X173927720Y-63675500D01*
X174040236Y-63660687D01*
X174073487Y-63646914D01*
X174174240Y-63605181D01*
X174174244Y-63605179D01*
X174180233Y-63602698D01*
X174185375Y-63598752D01*
X174185379Y-63598750D01*
X174295302Y-63514402D01*
X174300451Y-63510451D01*
X174314376Y-63492304D01*
X174388750Y-63395379D01*
X174388752Y-63395375D01*
X174392698Y-63390233D01*
X174395179Y-63384244D01*
X174395181Y-63384240D01*
X174448203Y-63256233D01*
X174450687Y-63250236D01*
X174470466Y-63100000D01*
X174450687Y-62949764D01*
X174448203Y-62943767D01*
X174395181Y-62815760D01*
X174395179Y-62815756D01*
X174392698Y-62809767D01*
X174388752Y-62804625D01*
X174388750Y-62804621D01*
X174304402Y-62694698D01*
X174300451Y-62689549D01*
X174295302Y-62685598D01*
X174185379Y-62601250D01*
X174185375Y-62601248D01*
X174180233Y-62597302D01*
X174174244Y-62594821D01*
X174174240Y-62594819D01*
X174046233Y-62541797D01*
X174040236Y-62539313D01*
X173927720Y-62524500D01*
X173852280Y-62524500D01*
X173739764Y-62539313D01*
X173733767Y-62541797D01*
X173605760Y-62594819D01*
X173605756Y-62594821D01*
X173599767Y-62597302D01*
X173594625Y-62601248D01*
X173594621Y-62601250D01*
X173484698Y-62685598D01*
X173479549Y-62689549D01*
X173475598Y-62694698D01*
X173391250Y-62804621D01*
X173391248Y-62804625D01*
X173387302Y-62809767D01*
X173384821Y-62815756D01*
X173384819Y-62815760D01*
X173331797Y-62943767D01*
X173329313Y-62949764D01*
X173309534Y-63100000D01*
X168690466Y-63100000D01*
X168670687Y-62949764D01*
X168668203Y-62943767D01*
X168615181Y-62815760D01*
X168615179Y-62815756D01*
X168612698Y-62809767D01*
X168608752Y-62804625D01*
X168608750Y-62804621D01*
X168524402Y-62694698D01*
X168520451Y-62689549D01*
X168515302Y-62685598D01*
X168405379Y-62601250D01*
X168405375Y-62601248D01*
X168400233Y-62597302D01*
X168394244Y-62594821D01*
X168394240Y-62594819D01*
X168266233Y-62541797D01*
X168260236Y-62539313D01*
X168147720Y-62524500D01*
X168072280Y-62524500D01*
X167959764Y-62539313D01*
X167953767Y-62541797D01*
X167825760Y-62594819D01*
X167825756Y-62594821D01*
X167819767Y-62597302D01*
X167814625Y-62601248D01*
X167814621Y-62601250D01*
X167704698Y-62685598D01*
X167699549Y-62689549D01*
X167695598Y-62694698D01*
X167611250Y-62804621D01*
X167611248Y-62804625D01*
X167607302Y-62809767D01*
X167604821Y-62815756D01*
X167604819Y-62815760D01*
X167551797Y-62943767D01*
X167549313Y-62949764D01*
X167529534Y-63100000D01*
X158650500Y-63100000D01*
X158650500Y-61065862D01*
X188695497Y-61065862D01*
X188725134Y-61238340D01*
X188727387Y-61243635D01*
X188790127Y-61391083D01*
X188793654Y-61399373D01*
X188897383Y-61540324D01*
X188901765Y-61544047D01*
X188901767Y-61544049D01*
X188969600Y-61601677D01*
X189030755Y-61653632D01*
X189110337Y-61694269D01*
X189181492Y-61730603D01*
X189181495Y-61730604D01*
X189186616Y-61733219D01*
X189192201Y-61734586D01*
X189192202Y-61734586D01*
X189352326Y-61773768D01*
X189352329Y-61773768D01*
X189356606Y-61774815D01*
X189361004Y-61775088D01*
X189361005Y-61775088D01*
X189366132Y-61775406D01*
X189366133Y-61775406D01*
X189367648Y-61775500D01*
X189493822Y-61775500D01*
X189499698Y-61774815D01*
X189508678Y-61773768D01*
X189623828Y-61760343D01*
X189629234Y-61758381D01*
X189629237Y-61758380D01*
X189782923Y-61702594D01*
X189788331Y-61700631D01*
X189793140Y-61697478D01*
X189793144Y-61697476D01*
X189929877Y-61607829D01*
X189934685Y-61604677D01*
X189938634Y-61600508D01*
X189938638Y-61600505D01*
X190051084Y-61481804D01*
X190055040Y-61477628D01*
X190059672Y-61469655D01*
X190140050Y-61331272D01*
X190140050Y-61331271D01*
X190142939Y-61326298D01*
X190193667Y-61158807D01*
X190199619Y-61062862D01*
X196695497Y-61062862D01*
X196725134Y-61235340D01*
X196793654Y-61396373D01*
X196897383Y-61537324D01*
X196901765Y-61541047D01*
X196901767Y-61541049D01*
X197026369Y-61646906D01*
X197030755Y-61650632D01*
X197110337Y-61691269D01*
X197181492Y-61727603D01*
X197181495Y-61727604D01*
X197186616Y-61730219D01*
X197192201Y-61731586D01*
X197192202Y-61731586D01*
X197352326Y-61770768D01*
X197352329Y-61770768D01*
X197356606Y-61771815D01*
X197361004Y-61772088D01*
X197361005Y-61772088D01*
X197366132Y-61772406D01*
X197366133Y-61772406D01*
X197367648Y-61772500D01*
X197493822Y-61772500D01*
X197499698Y-61771815D01*
X197508678Y-61770768D01*
X197623828Y-61757343D01*
X197629234Y-61755381D01*
X197629237Y-61755380D01*
X197782923Y-61699594D01*
X197788331Y-61697631D01*
X197793140Y-61694478D01*
X197793144Y-61694476D01*
X197884946Y-61634288D01*
X197934685Y-61601677D01*
X197938634Y-61597508D01*
X197938638Y-61597505D01*
X198051084Y-61478804D01*
X198055040Y-61474628D01*
X198098752Y-61399373D01*
X198140050Y-61328272D01*
X198140050Y-61328271D01*
X198142939Y-61323298D01*
X198193667Y-61155807D01*
X198204503Y-60981138D01*
X198174866Y-60808660D01*
X198135323Y-60715728D01*
X198108597Y-60652917D01*
X198108597Y-60652916D01*
X198106346Y-60647627D01*
X198002617Y-60506676D01*
X197998235Y-60502953D01*
X197998233Y-60502951D01*
X197873631Y-60397094D01*
X197873630Y-60397093D01*
X197869245Y-60393368D01*
X197779234Y-60347406D01*
X197718508Y-60316397D01*
X197718505Y-60316396D01*
X197713384Y-60313781D01*
X197707799Y-60312414D01*
X197707798Y-60312414D01*
X197547674Y-60273232D01*
X197547671Y-60273232D01*
X197543394Y-60272185D01*
X197538996Y-60271912D01*
X197538995Y-60271912D01*
X197533868Y-60271594D01*
X197533867Y-60271594D01*
X197532352Y-60271500D01*
X197406178Y-60271500D01*
X197403331Y-60271832D01*
X197403330Y-60271832D01*
X197392662Y-60273076D01*
X197276172Y-60286657D01*
X197270766Y-60288619D01*
X197270763Y-60288620D01*
X197196948Y-60315414D01*
X197111669Y-60346369D01*
X197106860Y-60349522D01*
X197106856Y-60349524D01*
X197029725Y-60400094D01*
X196965315Y-60442323D01*
X196961366Y-60446492D01*
X196961362Y-60446495D01*
X196852451Y-60561464D01*
X196844960Y-60569372D01*
X196842073Y-60574342D01*
X196842071Y-60574345D01*
X196796433Y-60652917D01*
X196757061Y-60720702D01*
X196706333Y-60888193D01*
X196695497Y-61062862D01*
X190199619Y-61062862D01*
X190204503Y-60984138D01*
X190174866Y-60811660D01*
X190106346Y-60650627D01*
X190002617Y-60509676D01*
X189998235Y-60505953D01*
X189998233Y-60505951D01*
X189873631Y-60400094D01*
X189873630Y-60400093D01*
X189869245Y-60396368D01*
X189777507Y-60349524D01*
X189718508Y-60319397D01*
X189718505Y-60319396D01*
X189713384Y-60316781D01*
X189707799Y-60315414D01*
X189707798Y-60315414D01*
X189547674Y-60276232D01*
X189547671Y-60276232D01*
X189543394Y-60275185D01*
X189538996Y-60274912D01*
X189538995Y-60274912D01*
X189533868Y-60274594D01*
X189533867Y-60274594D01*
X189532352Y-60274500D01*
X189406178Y-60274500D01*
X189403331Y-60274832D01*
X189403330Y-60274832D01*
X189392662Y-60276076D01*
X189276172Y-60289657D01*
X189270766Y-60291619D01*
X189270763Y-60291620D01*
X189194240Y-60319397D01*
X189111669Y-60349369D01*
X189106860Y-60352522D01*
X189106856Y-60352524D01*
X189015054Y-60412712D01*
X188965315Y-60445323D01*
X188961366Y-60449492D01*
X188961362Y-60449495D01*
X188852451Y-60564464D01*
X188844960Y-60572372D01*
X188842073Y-60577342D01*
X188842071Y-60577345D01*
X188799506Y-60650627D01*
X188757061Y-60723702D01*
X188706333Y-60891193D01*
X188695497Y-61065862D01*
X158650500Y-61065862D01*
X158650500Y-56749500D01*
X158669407Y-56691309D01*
X158718907Y-56655345D01*
X158749500Y-56650500D01*
X201250500Y-56650500D01*
X201308691Y-56669407D01*
G37*
%TD.AperFunction*%
%TD*%
%TA.AperFunction,Conductor*%
%TO.N,GND*%
G36*
X158308691Y-95669407D02*
G01*
X158344655Y-95718907D01*
X158349500Y-95749500D01*
X158349500Y-134250500D01*
X158330593Y-134308691D01*
X158281093Y-134344655D01*
X158250500Y-134349500D01*
X115749500Y-134349500D01*
X115691309Y-134330593D01*
X115655345Y-134281093D01*
X115650500Y-134250500D01*
X115650500Y-121500000D01*
X117169953Y-121500000D01*
X117188092Y-121672576D01*
X117241714Y-121837611D01*
X117328478Y-121987889D01*
X117331946Y-121991741D01*
X117331950Y-121991746D01*
X117441120Y-122112992D01*
X117441124Y-122112996D01*
X117444590Y-122116845D01*
X117584976Y-122218842D01*
X117589708Y-122220949D01*
X117589710Y-122220950D01*
X117738763Y-122287313D01*
X117738767Y-122287314D01*
X117743501Y-122289422D01*
X117748571Y-122290500D01*
X117748572Y-122290500D01*
X117765368Y-122294070D01*
X117913236Y-122325500D01*
X118086764Y-122325500D01*
X118144385Y-122313252D01*
X118234634Y-122294070D01*
X118295484Y-122300466D01*
X118325221Y-122320903D01*
X129255253Y-133250934D01*
X129268418Y-133267236D01*
X129274175Y-133276152D01*
X129280604Y-133281220D01*
X129299328Y-133295981D01*
X129303737Y-133299898D01*
X129303738Y-133299897D01*
X129306867Y-133302548D01*
X129309747Y-133305428D01*
X129313065Y-133307799D01*
X129313066Y-133307800D01*
X129324584Y-133316031D01*
X129328313Y-133318831D01*
X129365811Y-133348392D01*
X129373116Y-133350957D01*
X129374366Y-133351607D01*
X129380669Y-133356111D01*
X129412458Y-133365618D01*
X129426415Y-133369792D01*
X129430851Y-133371233D01*
X129470033Y-133384993D01*
X129470036Y-133384994D01*
X129475906Y-133387055D01*
X129481044Y-133387500D01*
X129483182Y-133387500D01*
X129484901Y-133387574D01*
X129486262Y-133387689D01*
X129492464Y-133389544D01*
X129500635Y-133389223D01*
X129542554Y-133387576D01*
X129546441Y-133387500D01*
X148866052Y-133387500D01*
X148886888Y-133389718D01*
X148888170Y-133389994D01*
X148897261Y-133391951D01*
X148929071Y-133388186D01*
X148934963Y-133387839D01*
X148934963Y-133387836D01*
X148939030Y-133387500D01*
X148943115Y-133387500D01*
X148947141Y-133386830D01*
X148947152Y-133386829D01*
X148961119Y-133384504D01*
X148965726Y-133383848D01*
X148988689Y-133381130D01*
X149005012Y-133379198D01*
X149005013Y-133379198D01*
X149013138Y-133378236D01*
X149020122Y-133374882D01*
X149021454Y-133374461D01*
X149029103Y-133373188D01*
X149071160Y-133350495D01*
X149075283Y-133348395D01*
X149112717Y-133330420D01*
X149112721Y-133330418D01*
X149118326Y-133327726D01*
X149122274Y-133324408D01*
X149123782Y-133322900D01*
X149125071Y-133321718D01*
X149126097Y-133320852D01*
X149131794Y-133317778D01*
X149137345Y-133311773D01*
X149137350Y-133311769D01*
X149165809Y-133280982D01*
X149168503Y-133278179D01*
X150134867Y-132311815D01*
X150178831Y-132286305D01*
X150200468Y-132280406D01*
X150294755Y-132254700D01*
X150404724Y-132187179D01*
X150473352Y-132111360D01*
X150486590Y-132096735D01*
X150486590Y-132096734D01*
X150491322Y-132091507D01*
X150525718Y-132020515D01*
X150544512Y-131981724D01*
X150544512Y-131981723D01*
X150547588Y-131975375D01*
X150566571Y-131862540D01*
X150568363Y-131851891D01*
X150568363Y-131851886D01*
X150568997Y-131848120D01*
X150569133Y-131837000D01*
X150550839Y-131709259D01*
X150508669Y-131616511D01*
X150500349Y-131598212D01*
X150500348Y-131598211D01*
X150497428Y-131591788D01*
X150492822Y-131586442D01*
X150489024Y-131580504D01*
X150490989Y-131579247D01*
X150471470Y-131532691D01*
X150485498Y-131473136D01*
X150531853Y-131433200D01*
X150570131Y-131425500D01*
X153483810Y-131425500D01*
X153542001Y-131444407D01*
X153553814Y-131454496D01*
X154088054Y-131988736D01*
X154106260Y-132013795D01*
X154128523Y-132057489D01*
X154211511Y-132140477D01*
X154218448Y-132144012D01*
X154218450Y-132144013D01*
X154309141Y-132190222D01*
X154309144Y-132190223D01*
X154316082Y-132193758D01*
X154323776Y-132194977D01*
X154323777Y-132194977D01*
X154424304Y-132210899D01*
X154432000Y-132212118D01*
X154439696Y-132210899D01*
X154540223Y-132194977D01*
X154540224Y-132194977D01*
X154547918Y-132193758D01*
X154554856Y-132190223D01*
X154554859Y-132190222D01*
X154645550Y-132144013D01*
X154645552Y-132144012D01*
X154652489Y-132140477D01*
X154735477Y-132057489D01*
X154767448Y-131994742D01*
X154785222Y-131959859D01*
X154785223Y-131959856D01*
X154788758Y-131952918D01*
X154790970Y-131938956D01*
X154805899Y-131844696D01*
X154807118Y-131837000D01*
X154788758Y-131721082D01*
X154785223Y-131714144D01*
X154785222Y-131714141D01*
X154739013Y-131623450D01*
X154739012Y-131623448D01*
X154735477Y-131616511D01*
X154652489Y-131533523D01*
X154645552Y-131529988D01*
X154645550Y-131529987D01*
X154608795Y-131511260D01*
X154583736Y-131493054D01*
X154135186Y-131044504D01*
X154107409Y-130989987D01*
X154116980Y-130929555D01*
X154160245Y-130886290D01*
X154205190Y-130875500D01*
X154838810Y-130875500D01*
X154897001Y-130894407D01*
X154908814Y-130904496D01*
X155993054Y-131988736D01*
X156011260Y-132013795D01*
X156033523Y-132057489D01*
X156116511Y-132140477D01*
X156123448Y-132144012D01*
X156123450Y-132144013D01*
X156214141Y-132190222D01*
X156214144Y-132190223D01*
X156221082Y-132193758D01*
X156228776Y-132194977D01*
X156228777Y-132194977D01*
X156329304Y-132210899D01*
X156337000Y-132212118D01*
X156344696Y-132210899D01*
X156445223Y-132194977D01*
X156445224Y-132194977D01*
X156452918Y-132193758D01*
X156459856Y-132190223D01*
X156459859Y-132190222D01*
X156550550Y-132144013D01*
X156550552Y-132144012D01*
X156557489Y-132140477D01*
X156640477Y-132057489D01*
X156672448Y-131994742D01*
X156690222Y-131959859D01*
X156690223Y-131959856D01*
X156693758Y-131952918D01*
X156695970Y-131938956D01*
X156710899Y-131844696D01*
X156712118Y-131837000D01*
X156693758Y-131721082D01*
X156690223Y-131714144D01*
X156690222Y-131714141D01*
X156644013Y-131623450D01*
X156644012Y-131623448D01*
X156640477Y-131616511D01*
X156557489Y-131533523D01*
X156550552Y-131529988D01*
X156550550Y-131529987D01*
X156513795Y-131511260D01*
X156488736Y-131493054D01*
X155306745Y-130311063D01*
X155293580Y-130294760D01*
X155292267Y-130292726D01*
X155292264Y-130292722D01*
X155287825Y-130285848D01*
X155262668Y-130266015D01*
X155258263Y-130262101D01*
X155258262Y-130262102D01*
X155255131Y-130259449D01*
X155252254Y-130256572D01*
X155237399Y-130245956D01*
X155233681Y-130243165D01*
X155202614Y-130218673D01*
X155202613Y-130218673D01*
X155196189Y-130213608D01*
X155188882Y-130211042D01*
X155187637Y-130210395D01*
X155181331Y-130205889D01*
X155149542Y-130196382D01*
X155135585Y-130192208D01*
X155131149Y-130190767D01*
X155091967Y-130177007D01*
X155091964Y-130177006D01*
X155086094Y-130174945D01*
X155080956Y-130174500D01*
X155078818Y-130174500D01*
X155077099Y-130174426D01*
X155075738Y-130174311D01*
X155069536Y-130172456D01*
X155061365Y-130172777D01*
X155019446Y-130174424D01*
X155015559Y-130174500D01*
X152638190Y-130174500D01*
X152579999Y-130155593D01*
X152544035Y-130106093D01*
X152544035Y-130044907D01*
X152568186Y-130005496D01*
X157123734Y-125449947D01*
X157148793Y-125431741D01*
X157185550Y-125413013D01*
X157185552Y-125413012D01*
X157192489Y-125409477D01*
X157275477Y-125326489D01*
X157279013Y-125319550D01*
X157325222Y-125228859D01*
X157325223Y-125228856D01*
X157328758Y-125221918D01*
X157347118Y-125106000D01*
X157328758Y-124990082D01*
X157325223Y-124983144D01*
X157325222Y-124983141D01*
X157279013Y-124892450D01*
X157279012Y-124892448D01*
X157275477Y-124885511D01*
X157192489Y-124802523D01*
X157185552Y-124798988D01*
X157185550Y-124798987D01*
X157094859Y-124752778D01*
X157094856Y-124752777D01*
X157087918Y-124749242D01*
X157080224Y-124748023D01*
X157080223Y-124748023D01*
X156979696Y-124732101D01*
X156972000Y-124730882D01*
X156964304Y-124732101D01*
X156863777Y-124748023D01*
X156863776Y-124748023D01*
X156856082Y-124749242D01*
X156849144Y-124752777D01*
X156849141Y-124752778D01*
X156758450Y-124798987D01*
X156758448Y-124798988D01*
X156751511Y-124802523D01*
X156668523Y-124885511D01*
X156664988Y-124892448D01*
X156664987Y-124892450D01*
X156646260Y-124929205D01*
X156628054Y-124954264D01*
X151986814Y-129595504D01*
X151932297Y-129623281D01*
X151916810Y-129624500D01*
X151156190Y-129624500D01*
X151097999Y-129605593D01*
X151062035Y-129556093D01*
X151062035Y-129494907D01*
X151086186Y-129455496D01*
X155091736Y-125449946D01*
X155116795Y-125431740D01*
X155153550Y-125413013D01*
X155153552Y-125413012D01*
X155160489Y-125409477D01*
X155243477Y-125326489D01*
X155247013Y-125319550D01*
X155293222Y-125228859D01*
X155293223Y-125228856D01*
X155296758Y-125221918D01*
X155315118Y-125106000D01*
X155296758Y-124990082D01*
X155293223Y-124983144D01*
X155293222Y-124983141D01*
X155247013Y-124892450D01*
X155247012Y-124892448D01*
X155243477Y-124885511D01*
X155160489Y-124802523D01*
X155153552Y-124798988D01*
X155153550Y-124798987D01*
X155062859Y-124752778D01*
X155062856Y-124752777D01*
X155055918Y-124749242D01*
X155048224Y-124748023D01*
X155048223Y-124748023D01*
X154947696Y-124732101D01*
X154940000Y-124730882D01*
X154932304Y-124732101D01*
X154831777Y-124748023D01*
X154831776Y-124748023D01*
X154824082Y-124749242D01*
X154817144Y-124752777D01*
X154817141Y-124752778D01*
X154726450Y-124798987D01*
X154726448Y-124798988D01*
X154719511Y-124802523D01*
X154636523Y-124885511D01*
X154632988Y-124892448D01*
X154632987Y-124892450D01*
X154614260Y-124929205D01*
X154596054Y-124954264D01*
X150504814Y-129045504D01*
X150450297Y-129073281D01*
X150434810Y-129074500D01*
X140635948Y-129074500D01*
X140615112Y-129072282D01*
X140613830Y-129072006D01*
X140604739Y-129070049D01*
X140572929Y-129073814D01*
X140567037Y-129074161D01*
X140567037Y-129074164D01*
X140562970Y-129074500D01*
X140558885Y-129074500D01*
X140554859Y-129075170D01*
X140554848Y-129075171D01*
X140540881Y-129077496D01*
X140536269Y-129078153D01*
X140488861Y-129083764D01*
X140481878Y-129087117D01*
X140480544Y-129087539D01*
X140472897Y-129088812D01*
X140465696Y-129092698D01*
X140465695Y-129092698D01*
X140430861Y-129111494D01*
X140426703Y-129113612D01*
X140389288Y-129131578D01*
X140389287Y-129131579D01*
X140383674Y-129134274D01*
X140379726Y-129137592D01*
X140378216Y-129139102D01*
X140376929Y-129140282D01*
X140375903Y-129141148D01*
X140370206Y-129144222D01*
X140364655Y-129150227D01*
X140364650Y-129150231D01*
X140336191Y-129181018D01*
X140333497Y-129183821D01*
X138156183Y-131361135D01*
X138113384Y-131386320D01*
X137996935Y-131419601D01*
X137996933Y-131419602D01*
X137990155Y-131421539D01*
X137984191Y-131425302D01*
X137953912Y-131444407D01*
X137881019Y-131490399D01*
X137795596Y-131587122D01*
X137784383Y-131611005D01*
X137761895Y-131658903D01*
X137720049Y-131703542D01*
X137659958Y-131715059D01*
X137602276Y-131686833D01*
X137539496Y-131624053D01*
X137511719Y-131569536D01*
X137510500Y-131554049D01*
X137510500Y-128848190D01*
X137529407Y-128789999D01*
X137539496Y-128778186D01*
X154802185Y-111515496D01*
X154856702Y-111487719D01*
X154872189Y-111486500D01*
X155639541Y-111486500D01*
X155694398Y-111503088D01*
X155760060Y-111546796D01*
X155766788Y-111548898D01*
X155766790Y-111548899D01*
X155821646Y-111566037D01*
X155883233Y-111585278D01*
X155947744Y-111586461D01*
X156005202Y-111587514D01*
X156005204Y-111587514D01*
X156012255Y-111587643D01*
X156019058Y-111585788D01*
X156019060Y-111585788D01*
X156060828Y-111574400D01*
X156136755Y-111553700D01*
X156246724Y-111486179D01*
X156333322Y-111390507D01*
X156389588Y-111274375D01*
X156410997Y-111147120D01*
X156411133Y-111136000D01*
X156392839Y-111008259D01*
X156339428Y-110890788D01*
X156264386Y-110803697D01*
X156259798Y-110798372D01*
X156259797Y-110798371D01*
X156255193Y-110793028D01*
X156249276Y-110789193D01*
X156249274Y-110789191D01*
X156152824Y-110726677D01*
X156146906Y-110722841D01*
X156140150Y-110720821D01*
X156140149Y-110720820D01*
X156097335Y-110708016D01*
X156023273Y-110685866D01*
X155946644Y-110685398D01*
X155901282Y-110685121D01*
X155894231Y-110685078D01*
X155887454Y-110687015D01*
X155887453Y-110687015D01*
X155776935Y-110718601D01*
X155776933Y-110718602D01*
X155770155Y-110720539D01*
X155764191Y-110724302D01*
X155691405Y-110770227D01*
X155638577Y-110785500D01*
X154733948Y-110785500D01*
X154713112Y-110783282D01*
X154711830Y-110783006D01*
X154702739Y-110781049D01*
X154670929Y-110784814D01*
X154665037Y-110785161D01*
X154665037Y-110785164D01*
X154660970Y-110785500D01*
X154656885Y-110785500D01*
X154652859Y-110786170D01*
X154652848Y-110786171D01*
X154638881Y-110788496D01*
X154634274Y-110789152D01*
X154611311Y-110791870D01*
X154594988Y-110793802D01*
X154594987Y-110793802D01*
X154586862Y-110794764D01*
X154579878Y-110798118D01*
X154578546Y-110798539D01*
X154570897Y-110799812D01*
X154528840Y-110822505D01*
X154524717Y-110824605D01*
X154487283Y-110842580D01*
X154487279Y-110842582D01*
X154481674Y-110845274D01*
X154477726Y-110848592D01*
X154476218Y-110850100D01*
X154474929Y-110851282D01*
X154473903Y-110852148D01*
X154468206Y-110855222D01*
X154462655Y-110861227D01*
X154462650Y-110861231D01*
X154434191Y-110892018D01*
X154431497Y-110894821D01*
X136946063Y-128380255D01*
X136929760Y-128393420D01*
X136927726Y-128394733D01*
X136927722Y-128394736D01*
X136920848Y-128399175D01*
X136901015Y-128424332D01*
X136897101Y-128428737D01*
X136897102Y-128428738D01*
X136894449Y-128431869D01*
X136891572Y-128434746D01*
X136880956Y-128449601D01*
X136878170Y-128453312D01*
X136848608Y-128490811D01*
X136846042Y-128498118D01*
X136845395Y-128499363D01*
X136840889Y-128505669D01*
X136838545Y-128513508D01*
X136827208Y-128551415D01*
X136825767Y-128555851D01*
X136809945Y-128600906D01*
X136809500Y-128606044D01*
X136809500Y-128608182D01*
X136809426Y-128609901D01*
X136809311Y-128611262D01*
X136807456Y-128617464D01*
X136807777Y-128625635D01*
X136809424Y-128667554D01*
X136809500Y-128671441D01*
X136809500Y-131692291D01*
X136807282Y-131713127D01*
X136805049Y-131723500D01*
X136806011Y-131731625D01*
X136808814Y-131755310D01*
X136809161Y-131761202D01*
X136809164Y-131761202D01*
X136809500Y-131765269D01*
X136809500Y-131769354D01*
X136810170Y-131773380D01*
X136810171Y-131773391D01*
X136812496Y-131787358D01*
X136813152Y-131791965D01*
X136818764Y-131839377D01*
X136822118Y-131846361D01*
X136822539Y-131847693D01*
X136823812Y-131855342D01*
X136846505Y-131897399D01*
X136848605Y-131901522D01*
X136866580Y-131938956D01*
X136866582Y-131938960D01*
X136869274Y-131944565D01*
X136872592Y-131948513D01*
X136874100Y-131950021D01*
X136875282Y-131951310D01*
X136876148Y-131952336D01*
X136879222Y-131958033D01*
X136885227Y-131963584D01*
X136885231Y-131963589D01*
X136916018Y-131992048D01*
X136918821Y-131994742D01*
X137441575Y-132517496D01*
X137469352Y-132572013D01*
X137459781Y-132632445D01*
X137416516Y-132675710D01*
X137371571Y-132686500D01*
X129723190Y-132686500D01*
X129664999Y-132667593D01*
X129653186Y-132657504D01*
X118819578Y-121823896D01*
X118791801Y-121769379D01*
X118795427Y-121723300D01*
X118810307Y-121677504D01*
X118810307Y-121677502D01*
X118811908Y-121672576D01*
X118830047Y-121500000D01*
X118811908Y-121327424D01*
X118758286Y-121162389D01*
X118671522Y-121012111D01*
X118668054Y-121008259D01*
X118668050Y-121008254D01*
X118558880Y-120887008D01*
X118558876Y-120887004D01*
X118555410Y-120883155D01*
X118415024Y-120781158D01*
X118410292Y-120779051D01*
X118410290Y-120779050D01*
X118261237Y-120712687D01*
X118261233Y-120712686D01*
X118256499Y-120710578D01*
X118251429Y-120709500D01*
X118251428Y-120709500D01*
X118217461Y-120702280D01*
X118086764Y-120674500D01*
X117913236Y-120674500D01*
X117782539Y-120702280D01*
X117748572Y-120709500D01*
X117748571Y-120709500D01*
X117743501Y-120710578D01*
X117738767Y-120712686D01*
X117738763Y-120712687D01*
X117589711Y-120779050D01*
X117589709Y-120779051D01*
X117584977Y-120781158D01*
X117444590Y-120883155D01*
X117441124Y-120887004D01*
X117441120Y-120887008D01*
X117331950Y-121008254D01*
X117331946Y-121008259D01*
X117328478Y-121012111D01*
X117241714Y-121162389D01*
X117188092Y-121327424D01*
X117169953Y-121500000D01*
X115650500Y-121500000D01*
X115650500Y-113633079D01*
X116062049Y-113633079D01*
X116063011Y-113641204D01*
X116065814Y-113664889D01*
X116066161Y-113670781D01*
X116066164Y-113670781D01*
X116066500Y-113674848D01*
X116066500Y-113678933D01*
X116067170Y-113682959D01*
X116067171Y-113682970D01*
X116069496Y-113696937D01*
X116070152Y-113701544D01*
X116075764Y-113748956D01*
X116079118Y-113755940D01*
X116079539Y-113757272D01*
X116080812Y-113764921D01*
X116103505Y-113806978D01*
X116105605Y-113811101D01*
X116123580Y-113848535D01*
X116123582Y-113848539D01*
X116126274Y-113854144D01*
X116129592Y-113858092D01*
X116131100Y-113859600D01*
X116132282Y-113860889D01*
X116133148Y-113861915D01*
X116136222Y-113867612D01*
X116142227Y-113873163D01*
X116142231Y-113873168D01*
X116173018Y-113901627D01*
X116175821Y-113904321D01*
X131065504Y-128794004D01*
X131093281Y-128848521D01*
X131094500Y-128864008D01*
X131094500Y-129122052D01*
X131092282Y-129142888D01*
X131090049Y-129153261D01*
X131091011Y-129161386D01*
X131093814Y-129185071D01*
X131094161Y-129190963D01*
X131094164Y-129190963D01*
X131094500Y-129195030D01*
X131094500Y-129199115D01*
X131095170Y-129203141D01*
X131095171Y-129203152D01*
X131097496Y-129217119D01*
X131098152Y-129221726D01*
X131103764Y-129269138D01*
X131107118Y-129276122D01*
X131107539Y-129277454D01*
X131108812Y-129285103D01*
X131131505Y-129327160D01*
X131133605Y-129331283D01*
X131151580Y-129368717D01*
X131151582Y-129368721D01*
X131154274Y-129374326D01*
X131157592Y-129378274D01*
X131159100Y-129379782D01*
X131160282Y-129381071D01*
X131161148Y-129382097D01*
X131164222Y-129387794D01*
X131170227Y-129393345D01*
X131170231Y-129393350D01*
X131201018Y-129421809D01*
X131203821Y-129424503D01*
X132244054Y-130464736D01*
X132262260Y-130489795D01*
X132284523Y-130533489D01*
X132367511Y-130616477D01*
X132374448Y-130620012D01*
X132374450Y-130620013D01*
X132465141Y-130666222D01*
X132465144Y-130666223D01*
X132472082Y-130669758D01*
X132479776Y-130670977D01*
X132479777Y-130670977D01*
X132580304Y-130686899D01*
X132588000Y-130688118D01*
X132595696Y-130686899D01*
X132696223Y-130670977D01*
X132696224Y-130670977D01*
X132703918Y-130669758D01*
X132710856Y-130666223D01*
X132710859Y-130666222D01*
X132801550Y-130620013D01*
X132801552Y-130620012D01*
X132808489Y-130616477D01*
X132891477Y-130533489D01*
X132920859Y-130475823D01*
X132941222Y-130435859D01*
X132941223Y-130435856D01*
X132944758Y-130428918D01*
X132963118Y-130313000D01*
X132955056Y-130262101D01*
X132945977Y-130204777D01*
X132945977Y-130204776D01*
X132944758Y-130197082D01*
X132941223Y-130190144D01*
X132941222Y-130190141D01*
X132895013Y-130099450D01*
X132895012Y-130099448D01*
X132891477Y-130092511D01*
X132808489Y-130009523D01*
X132801552Y-130005988D01*
X132801550Y-130005987D01*
X132764795Y-129987260D01*
X132739736Y-129969054D01*
X132299069Y-129528387D01*
X132271292Y-129473870D01*
X132280863Y-129413438D01*
X132324128Y-129370173D01*
X132384560Y-129360602D01*
X132414017Y-129370173D01*
X132472082Y-129399758D01*
X132479776Y-129400977D01*
X132479777Y-129400977D01*
X132580304Y-129416899D01*
X132588000Y-129418118D01*
X132595696Y-129416899D01*
X132696223Y-129400977D01*
X132696224Y-129400977D01*
X132703918Y-129399758D01*
X132710856Y-129396223D01*
X132710859Y-129396222D01*
X132801550Y-129350013D01*
X132801552Y-129350012D01*
X132808489Y-129346477D01*
X132891477Y-129263489D01*
X132913933Y-129219417D01*
X132941222Y-129165859D01*
X132941223Y-129165856D01*
X132944758Y-129158918D01*
X132946922Y-129145259D01*
X132961899Y-129050696D01*
X132963118Y-129043000D01*
X132944758Y-128927082D01*
X132941223Y-128920144D01*
X132941222Y-128920141D01*
X132895013Y-128829450D01*
X132895012Y-128829448D01*
X132891477Y-128822511D01*
X132808489Y-128739523D01*
X132801552Y-128735988D01*
X132801550Y-128735987D01*
X132764795Y-128717260D01*
X132739736Y-128699054D01*
X117346496Y-113305814D01*
X117318719Y-113251297D01*
X117317500Y-113235810D01*
X117317500Y-108878952D01*
X117336407Y-108820761D01*
X117346496Y-108808948D01*
X117406419Y-108749025D01*
X117460936Y-108721248D01*
X117521368Y-108730819D01*
X117563941Y-108773392D01*
X117564881Y-108776937D01*
X117568796Y-108783215D01*
X117568797Y-108783217D01*
X117579843Y-108800928D01*
X117586453Y-108813438D01*
X117596605Y-108836510D01*
X117606410Y-108848174D01*
X117613131Y-108856170D01*
X117621350Y-108867483D01*
X117632648Y-108885599D01*
X117632650Y-108885602D01*
X117636567Y-108891882D01*
X117650971Y-108904381D01*
X117655012Y-108907888D01*
X117665906Y-108918954D01*
X117679639Y-108935291D01*
X117704236Y-108951664D01*
X117714257Y-108959298D01*
X117738883Y-108980667D01*
X117757699Y-108988986D01*
X117772518Y-108997116D01*
X117787060Y-109006796D01*
X117793790Y-109008899D01*
X117793791Y-109008899D01*
X117818947Y-109016758D01*
X117829448Y-109020705D01*
X117862783Y-109035442D01*
X117876920Y-109037115D01*
X117879369Y-109037405D01*
X117897251Y-109041222D01*
X117910233Y-109045278D01*
X117930611Y-109045651D01*
X117947489Y-109045961D01*
X117957310Y-109046630D01*
X117983250Y-109049700D01*
X117997310Y-109051364D01*
X118006394Y-109049705D01*
X118009933Y-109049059D01*
X118029530Y-109047465D01*
X118032200Y-109047514D01*
X118032201Y-109047514D01*
X118039255Y-109047643D01*
X118046058Y-109045788D01*
X118046060Y-109045788D01*
X118078946Y-109036822D01*
X118087195Y-109034948D01*
X118130573Y-109027025D01*
X118137137Y-109023615D01*
X118137144Y-109023613D01*
X118138528Y-109022894D01*
X118153652Y-109016982D01*
X118156947Y-109015556D01*
X118163755Y-109013700D01*
X118169767Y-109010009D01*
X118169771Y-109010007D01*
X118202107Y-108990153D01*
X118208268Y-108986667D01*
X118245777Y-108967182D01*
X118250788Y-108964579D01*
X118255828Y-108960275D01*
X118257193Y-108958910D01*
X118258522Y-108957682D01*
X118262464Y-108954229D01*
X118267719Y-108949866D01*
X118273724Y-108946179D01*
X118278453Y-108940955D01*
X118278456Y-108940952D01*
X118308328Y-108907949D01*
X118311722Y-108904381D01*
X119017607Y-108198496D01*
X119072124Y-108170719D01*
X119087611Y-108169500D01*
X136828389Y-108169500D01*
X136886580Y-108188407D01*
X136898393Y-108198496D01*
X137401358Y-108701461D01*
X137407137Y-108707763D01*
X137429100Y-108733892D01*
X137429103Y-108733894D01*
X137433639Y-108739291D01*
X137476352Y-108767723D01*
X137480313Y-108770502D01*
X137497528Y-108783217D01*
X137523816Y-108802634D01*
X137530794Y-108805084D01*
X137532216Y-108805837D01*
X137535886Y-108807352D01*
X137541060Y-108810796D01*
X137593780Y-108827267D01*
X137597044Y-108828350D01*
X137644644Y-108845066D01*
X137644648Y-108845067D01*
X137651631Y-108847519D01*
X137659027Y-108847809D01*
X137660327Y-108848057D01*
X137664233Y-108849278D01*
X137723483Y-108850364D01*
X137725483Y-108850421D01*
X137786994Y-108852838D01*
X137791614Y-108851613D01*
X137793255Y-108851643D01*
X137796974Y-108850629D01*
X137796975Y-108850629D01*
X137855126Y-108834775D01*
X137855792Y-108834596D01*
X137907968Y-108820761D01*
X137917936Y-108818118D01*
X137972551Y-108784058D01*
X137973112Y-108783711D01*
X137979620Y-108779715D01*
X138027724Y-108750179D01*
X138028825Y-108748962D01*
X138032881Y-108746433D01*
X138073172Y-108700001D01*
X138074534Y-108698465D01*
X138109591Y-108659734D01*
X138109592Y-108659733D01*
X138114322Y-108654507D01*
X138116109Y-108650818D01*
X138116815Y-108649706D01*
X138121666Y-108644116D01*
X138145061Y-108591200D01*
X138146493Y-108588107D01*
X138170588Y-108538375D01*
X138171619Y-108532244D01*
X138173024Y-108528542D01*
X138173450Y-108526983D01*
X138176442Y-108520217D01*
X138182799Y-108466504D01*
X138183485Y-108461715D01*
X138191363Y-108414891D01*
X138191364Y-108414885D01*
X138191997Y-108411120D01*
X138192133Y-108400000D01*
X138191636Y-108396527D01*
X138191545Y-108394647D01*
X138191494Y-108393036D01*
X138192364Y-108385689D01*
X138191035Y-108378413D01*
X138191035Y-108378409D01*
X138182140Y-108329710D01*
X138181529Y-108325957D01*
X138178351Y-108303767D01*
X138173839Y-108272259D01*
X138171020Y-108266059D01*
X138169877Y-108261232D01*
X138169355Y-108259707D01*
X138168025Y-108252427D01*
X138164616Y-108245865D01*
X138164615Y-108245861D01*
X138143535Y-108205281D01*
X138141267Y-108200621D01*
X138123349Y-108161212D01*
X138123348Y-108161211D01*
X138120428Y-108154788D01*
X138115822Y-108149442D01*
X138112024Y-108143504D01*
X138112509Y-108143194D01*
X138111541Y-108141764D01*
X138111336Y-108141902D01*
X138108181Y-108137220D01*
X138105579Y-108132211D01*
X138101275Y-108127172D01*
X138070311Y-108096208D01*
X138065316Y-108090827D01*
X138040798Y-108062372D01*
X138040797Y-108062371D01*
X138036193Y-108057028D01*
X138030273Y-108053191D01*
X138029505Y-108052521D01*
X138014419Y-108040316D01*
X137397619Y-107423516D01*
X137389877Y-107414803D01*
X137372453Y-107392701D01*
X137367872Y-107386890D01*
X137319251Y-107353286D01*
X137316728Y-107351483D01*
X137275139Y-107320764D01*
X137275137Y-107320763D01*
X137269184Y-107316366D01*
X137262368Y-107313973D01*
X137256431Y-107309869D01*
X137249372Y-107307636D01*
X137249371Y-107307636D01*
X137229027Y-107301202D01*
X137200071Y-107292044D01*
X137197186Y-107291082D01*
X137141369Y-107271481D01*
X137135327Y-107271244D01*
X137132653Y-107270723D01*
X137127270Y-107269020D01*
X137120663Y-107268500D01*
X137067459Y-107268500D01*
X137063572Y-107268424D01*
X137013397Y-107266452D01*
X137013394Y-107266452D01*
X137006006Y-107266162D01*
X136999228Y-107267959D01*
X136989403Y-107268500D01*
X119125952Y-107268500D01*
X119067761Y-107249593D01*
X119031797Y-107200093D01*
X119031797Y-107138907D01*
X119055948Y-107099496D01*
X120735948Y-105419496D01*
X120790465Y-105391719D01*
X120805952Y-105390500D01*
X126049208Y-105390500D01*
X126107399Y-105409407D01*
X126119212Y-105419496D01*
X126228153Y-105528437D01*
X126241318Y-105544740D01*
X126242631Y-105546774D01*
X126242634Y-105546778D01*
X126247073Y-105553652D01*
X126272230Y-105573484D01*
X126276636Y-105577400D01*
X126276637Y-105577399D01*
X126279766Y-105580050D01*
X126282645Y-105582929D01*
X126285959Y-105585297D01*
X126285960Y-105585298D01*
X126297489Y-105593537D01*
X126301217Y-105596336D01*
X126314959Y-105607169D01*
X126338709Y-105625892D01*
X126346012Y-105628457D01*
X126347267Y-105629109D01*
X126353568Y-105633611D01*
X126391374Y-105644917D01*
X126399310Y-105647291D01*
X126403744Y-105648732D01*
X126442928Y-105662492D01*
X126442932Y-105662493D01*
X126448804Y-105664555D01*
X126453942Y-105665000D01*
X126456080Y-105665000D01*
X126457799Y-105665074D01*
X126459160Y-105665189D01*
X126465362Y-105667044D01*
X126473533Y-105666723D01*
X126515452Y-105665076D01*
X126519339Y-105665000D01*
X127058552Y-105665000D01*
X127079388Y-105667218D01*
X127080670Y-105667494D01*
X127089761Y-105669451D01*
X127121571Y-105665686D01*
X127127463Y-105665339D01*
X127127463Y-105665336D01*
X127131530Y-105665000D01*
X127135615Y-105665000D01*
X127139641Y-105664330D01*
X127139652Y-105664329D01*
X127153619Y-105662004D01*
X127158226Y-105661348D01*
X127181189Y-105658630D01*
X127197512Y-105656698D01*
X127197513Y-105656698D01*
X127205638Y-105655736D01*
X127212622Y-105652382D01*
X127213954Y-105651961D01*
X127221603Y-105650688D01*
X127263660Y-105627995D01*
X127267783Y-105625895D01*
X127305217Y-105607920D01*
X127305221Y-105607918D01*
X127310826Y-105605226D01*
X127314774Y-105601908D01*
X127316282Y-105600400D01*
X127317571Y-105599218D01*
X127318597Y-105598352D01*
X127324294Y-105595278D01*
X127329845Y-105589273D01*
X127329850Y-105589269D01*
X127358309Y-105558482D01*
X127361003Y-105555679D01*
X127975937Y-104940745D01*
X127992240Y-104927580D01*
X127994274Y-104926267D01*
X127994278Y-104926264D01*
X128001152Y-104921825D01*
X128020985Y-104896668D01*
X128024899Y-104892263D01*
X128024898Y-104892262D01*
X128027551Y-104889131D01*
X128030428Y-104886254D01*
X128041044Y-104871399D01*
X128043835Y-104867681D01*
X128068327Y-104836614D01*
X128068327Y-104836613D01*
X128073392Y-104830189D01*
X128075958Y-104822882D01*
X128076605Y-104821637D01*
X128081111Y-104815331D01*
X128094792Y-104769585D01*
X128096233Y-104765149D01*
X128109993Y-104725967D01*
X128109994Y-104725964D01*
X128112055Y-104720094D01*
X128112500Y-104714956D01*
X128112500Y-104712818D01*
X128112574Y-104711099D01*
X128112689Y-104709738D01*
X128114544Y-104703536D01*
X128112576Y-104653446D01*
X128112500Y-104649559D01*
X128112500Y-102646914D01*
X128116801Y-102619760D01*
X128118758Y-102615918D01*
X128137118Y-102500000D01*
X128132922Y-102473511D01*
X128119977Y-102391777D01*
X128119977Y-102391776D01*
X128118758Y-102384082D01*
X128115223Y-102377144D01*
X128115222Y-102377141D01*
X128069013Y-102286450D01*
X128069012Y-102286448D01*
X128065477Y-102279511D01*
X127982489Y-102196523D01*
X127975552Y-102192988D01*
X127975550Y-102192987D01*
X127884859Y-102146778D01*
X127884856Y-102146777D01*
X127877918Y-102143242D01*
X127870224Y-102142023D01*
X127870223Y-102142023D01*
X127769696Y-102126101D01*
X127762000Y-102124882D01*
X127754304Y-102126101D01*
X127653777Y-102142023D01*
X127653776Y-102142023D01*
X127646082Y-102143242D01*
X127639144Y-102146777D01*
X127639141Y-102146778D01*
X127548450Y-102192987D01*
X127548448Y-102192988D01*
X127541511Y-102196523D01*
X127458523Y-102279511D01*
X127454988Y-102286448D01*
X127454987Y-102286450D01*
X127408778Y-102377141D01*
X127408777Y-102377144D01*
X127405242Y-102384082D01*
X127404023Y-102391776D01*
X127404023Y-102391777D01*
X127391078Y-102473511D01*
X127386882Y-102500000D01*
X127405242Y-102615918D01*
X127407199Y-102619760D01*
X127411500Y-102646914D01*
X127411500Y-104472810D01*
X127392593Y-104531001D01*
X127382504Y-104542814D01*
X127263597Y-104661721D01*
X127209080Y-104689498D01*
X127148648Y-104679927D01*
X127105383Y-104636662D01*
X127103205Y-104631403D01*
X127102758Y-104628582D01*
X127049477Y-104524011D01*
X126966489Y-104441023D01*
X126959552Y-104437488D01*
X126959550Y-104437487D01*
X126922795Y-104418760D01*
X126897736Y-104400554D01*
X126688245Y-104191063D01*
X126675080Y-104174760D01*
X126673767Y-104172726D01*
X126673764Y-104172722D01*
X126669325Y-104165848D01*
X126644168Y-104146015D01*
X126639763Y-104142101D01*
X126639762Y-104142102D01*
X126636631Y-104139449D01*
X126633754Y-104136572D01*
X126618899Y-104125956D01*
X126615181Y-104123165D01*
X126612226Y-104120835D01*
X126577689Y-104093608D01*
X126570382Y-104091042D01*
X126569137Y-104090395D01*
X126562831Y-104085889D01*
X126531042Y-104076382D01*
X126517085Y-104072208D01*
X126512649Y-104070767D01*
X126473467Y-104057007D01*
X126473464Y-104057006D01*
X126467594Y-104054945D01*
X126462456Y-104054500D01*
X126460318Y-104054500D01*
X126458599Y-104054426D01*
X126457238Y-104054311D01*
X126451036Y-104052456D01*
X126442865Y-104052777D01*
X126400946Y-104054424D01*
X126397059Y-104054500D01*
X120524892Y-104054500D01*
X120504056Y-104052282D01*
X120502774Y-104052006D01*
X120493683Y-104050049D01*
X120462524Y-104053737D01*
X120461873Y-104053814D01*
X120455981Y-104054161D01*
X120455981Y-104054164D01*
X120451914Y-104054500D01*
X120447829Y-104054500D01*
X120443803Y-104055170D01*
X120443792Y-104055171D01*
X120429825Y-104057496D01*
X120425218Y-104058152D01*
X120402255Y-104060870D01*
X120385932Y-104062802D01*
X120385931Y-104062802D01*
X120377806Y-104063764D01*
X120370822Y-104067118D01*
X120369490Y-104067539D01*
X120361841Y-104068812D01*
X120319784Y-104091505D01*
X120315661Y-104093605D01*
X120278227Y-104111580D01*
X120278223Y-104111582D01*
X120272618Y-104114274D01*
X120268670Y-104117592D01*
X120267162Y-104119100D01*
X120265873Y-104120282D01*
X120264847Y-104121148D01*
X120259150Y-104124222D01*
X120253599Y-104130227D01*
X120253594Y-104130231D01*
X120225135Y-104161018D01*
X120222441Y-104163821D01*
X116203063Y-108183199D01*
X116186760Y-108196364D01*
X116184726Y-108197677D01*
X116184722Y-108197680D01*
X116177848Y-108202119D01*
X116158015Y-108227276D01*
X116154101Y-108231681D01*
X116154102Y-108231682D01*
X116151449Y-108234813D01*
X116148572Y-108237690D01*
X116137956Y-108252545D01*
X116135170Y-108256256D01*
X116105608Y-108293755D01*
X116103042Y-108301062D01*
X116102395Y-108302307D01*
X116097889Y-108308613D01*
X116095545Y-108316452D01*
X116084208Y-108354359D01*
X116082767Y-108358795D01*
X116070177Y-108394647D01*
X116066945Y-108403850D01*
X116066500Y-108408988D01*
X116066500Y-108411120D01*
X116066426Y-108412845D01*
X116066311Y-108414206D01*
X116064456Y-108420408D01*
X116064777Y-108428579D01*
X116066424Y-108470498D01*
X116066500Y-108474385D01*
X116066500Y-113601870D01*
X116064282Y-113622706D01*
X116062049Y-113633079D01*
X115650500Y-113633079D01*
X115650500Y-102100000D01*
X124529534Y-102100000D01*
X124549313Y-102250236D01*
X124551797Y-102256233D01*
X124604819Y-102384240D01*
X124604821Y-102384244D01*
X124607302Y-102390233D01*
X124611248Y-102395375D01*
X124611250Y-102395379D01*
X124685624Y-102492304D01*
X124699549Y-102510451D01*
X124704698Y-102514402D01*
X124814621Y-102598750D01*
X124814625Y-102598752D01*
X124819767Y-102602698D01*
X124825756Y-102605179D01*
X124825760Y-102605181D01*
X124926513Y-102646914D01*
X124959764Y-102660687D01*
X125072280Y-102675500D01*
X125147720Y-102675500D01*
X125260236Y-102660687D01*
X125293487Y-102646914D01*
X125394240Y-102605181D01*
X125394244Y-102605179D01*
X125400233Y-102602698D01*
X125405375Y-102598752D01*
X125405379Y-102598750D01*
X125515302Y-102514402D01*
X125520451Y-102510451D01*
X125534376Y-102492304D01*
X125608750Y-102395379D01*
X125608752Y-102395375D01*
X125612698Y-102390233D01*
X125615179Y-102384244D01*
X125615181Y-102384240D01*
X125668203Y-102256233D01*
X125670687Y-102250236D01*
X125690466Y-102100000D01*
X130309534Y-102100000D01*
X130329313Y-102250236D01*
X130331797Y-102256233D01*
X130384819Y-102384240D01*
X130384821Y-102384244D01*
X130387302Y-102390233D01*
X130391248Y-102395375D01*
X130391250Y-102395379D01*
X130465624Y-102492304D01*
X130479549Y-102510451D01*
X130484698Y-102514402D01*
X130594621Y-102598750D01*
X130594625Y-102598752D01*
X130599767Y-102602698D01*
X130605756Y-102605179D01*
X130605760Y-102605181D01*
X130706513Y-102646914D01*
X130739764Y-102660687D01*
X130852280Y-102675500D01*
X130927720Y-102675500D01*
X131040236Y-102660687D01*
X131073487Y-102646914D01*
X131174240Y-102605181D01*
X131174244Y-102605179D01*
X131180233Y-102602698D01*
X131185375Y-102598752D01*
X131185379Y-102598750D01*
X131295302Y-102514402D01*
X131300451Y-102510451D01*
X131314376Y-102492304D01*
X131388750Y-102395379D01*
X131388752Y-102395375D01*
X131392698Y-102390233D01*
X131395179Y-102384244D01*
X131395181Y-102384240D01*
X131448203Y-102256233D01*
X131450687Y-102250236D01*
X131470466Y-102100000D01*
X131450687Y-101949764D01*
X131448203Y-101943767D01*
X131395181Y-101815760D01*
X131395179Y-101815756D01*
X131392698Y-101809767D01*
X131388752Y-101804625D01*
X131388750Y-101804621D01*
X131304402Y-101694698D01*
X131300451Y-101689549D01*
X131295302Y-101685598D01*
X131185379Y-101601250D01*
X131185375Y-101601248D01*
X131180233Y-101597302D01*
X131174244Y-101594821D01*
X131174240Y-101594819D01*
X131046233Y-101541797D01*
X131040236Y-101539313D01*
X130927720Y-101524500D01*
X130852280Y-101524500D01*
X130739764Y-101539313D01*
X130733767Y-101541797D01*
X130605760Y-101594819D01*
X130605756Y-101594821D01*
X130599767Y-101597302D01*
X130594625Y-101601248D01*
X130594621Y-101601250D01*
X130484698Y-101685598D01*
X130479549Y-101689549D01*
X130475598Y-101694698D01*
X130391250Y-101804621D01*
X130391248Y-101804625D01*
X130387302Y-101809767D01*
X130384821Y-101815756D01*
X130384819Y-101815760D01*
X130331797Y-101943767D01*
X130329313Y-101949764D01*
X130309534Y-102100000D01*
X125690466Y-102100000D01*
X125670687Y-101949764D01*
X125668203Y-101943767D01*
X125615181Y-101815760D01*
X125615179Y-101815756D01*
X125612698Y-101809767D01*
X125608752Y-101804625D01*
X125608750Y-101804621D01*
X125524402Y-101694698D01*
X125520451Y-101689549D01*
X125515302Y-101685598D01*
X125405379Y-101601250D01*
X125405375Y-101601248D01*
X125400233Y-101597302D01*
X125394244Y-101594821D01*
X125394240Y-101594819D01*
X125266233Y-101541797D01*
X125260236Y-101539313D01*
X125147720Y-101524500D01*
X125072280Y-101524500D01*
X124959764Y-101539313D01*
X124953767Y-101541797D01*
X124825760Y-101594819D01*
X124825756Y-101594821D01*
X124819767Y-101597302D01*
X124814625Y-101601248D01*
X124814621Y-101601250D01*
X124704698Y-101685598D01*
X124699549Y-101689549D01*
X124695598Y-101694698D01*
X124611250Y-101804621D01*
X124611248Y-101804625D01*
X124607302Y-101809767D01*
X124604821Y-101815756D01*
X124604819Y-101815760D01*
X124551797Y-101943767D01*
X124549313Y-101949764D01*
X124529534Y-102100000D01*
X115650500Y-102100000D01*
X115650500Y-100065862D01*
X145695497Y-100065862D01*
X145725134Y-100238340D01*
X145727387Y-100243635D01*
X145790127Y-100391083D01*
X145793654Y-100399373D01*
X145897383Y-100540324D01*
X145901765Y-100544047D01*
X145901767Y-100544049D01*
X145969600Y-100601677D01*
X146030755Y-100653632D01*
X146110337Y-100694269D01*
X146181492Y-100730603D01*
X146181495Y-100730604D01*
X146186616Y-100733219D01*
X146192201Y-100734586D01*
X146192202Y-100734586D01*
X146352326Y-100773768D01*
X146352329Y-100773768D01*
X146356606Y-100774815D01*
X146361004Y-100775088D01*
X146361005Y-100775088D01*
X146366132Y-100775406D01*
X146366133Y-100775406D01*
X146367648Y-100775500D01*
X146493822Y-100775500D01*
X146499698Y-100774815D01*
X146508678Y-100773768D01*
X146623828Y-100760343D01*
X146629234Y-100758381D01*
X146629237Y-100758380D01*
X146782923Y-100702594D01*
X146788331Y-100700631D01*
X146793140Y-100697478D01*
X146793144Y-100697476D01*
X146929877Y-100607829D01*
X146934685Y-100604677D01*
X146938634Y-100600508D01*
X146938638Y-100600505D01*
X147051084Y-100481804D01*
X147055040Y-100477628D01*
X147059672Y-100469655D01*
X147140050Y-100331272D01*
X147140050Y-100331271D01*
X147142939Y-100326298D01*
X147193667Y-100158807D01*
X147199619Y-100062862D01*
X153695497Y-100062862D01*
X153725134Y-100235340D01*
X153793654Y-100396373D01*
X153897383Y-100537324D01*
X153901765Y-100541047D01*
X153901767Y-100541049D01*
X154026369Y-100646906D01*
X154030755Y-100650632D01*
X154110337Y-100691269D01*
X154181492Y-100727603D01*
X154181495Y-100727604D01*
X154186616Y-100730219D01*
X154192201Y-100731586D01*
X154192202Y-100731586D01*
X154352326Y-100770768D01*
X154352329Y-100770768D01*
X154356606Y-100771815D01*
X154361004Y-100772088D01*
X154361005Y-100772088D01*
X154366132Y-100772406D01*
X154366133Y-100772406D01*
X154367648Y-100772500D01*
X154493822Y-100772500D01*
X154499698Y-100771815D01*
X154508678Y-100770768D01*
X154623828Y-100757343D01*
X154629234Y-100755381D01*
X154629237Y-100755380D01*
X154782923Y-100699594D01*
X154788331Y-100697631D01*
X154793140Y-100694478D01*
X154793144Y-100694476D01*
X154884946Y-100634288D01*
X154934685Y-100601677D01*
X154938634Y-100597508D01*
X154938638Y-100597505D01*
X155051084Y-100478804D01*
X155055040Y-100474628D01*
X155098752Y-100399373D01*
X155140050Y-100328272D01*
X155140050Y-100328271D01*
X155142939Y-100323298D01*
X155193667Y-100155807D01*
X155204503Y-99981138D01*
X155174866Y-99808660D01*
X155135323Y-99715728D01*
X155108597Y-99652917D01*
X155108597Y-99652916D01*
X155106346Y-99647627D01*
X155002617Y-99506676D01*
X154998235Y-99502953D01*
X154998233Y-99502951D01*
X154873631Y-99397094D01*
X154873630Y-99397093D01*
X154869245Y-99393368D01*
X154779234Y-99347406D01*
X154718508Y-99316397D01*
X154718505Y-99316396D01*
X154713384Y-99313781D01*
X154707799Y-99312414D01*
X154707798Y-99312414D01*
X154547674Y-99273232D01*
X154547671Y-99273232D01*
X154543394Y-99272185D01*
X154538996Y-99271912D01*
X154538995Y-99271912D01*
X154533868Y-99271594D01*
X154533867Y-99271594D01*
X154532352Y-99271500D01*
X154406178Y-99271500D01*
X154403331Y-99271832D01*
X154403330Y-99271832D01*
X154392662Y-99273076D01*
X154276172Y-99286657D01*
X154270766Y-99288619D01*
X154270763Y-99288620D01*
X154196948Y-99315414D01*
X154111669Y-99346369D01*
X154106860Y-99349522D01*
X154106856Y-99349524D01*
X154029725Y-99400094D01*
X153965315Y-99442323D01*
X153961366Y-99446492D01*
X153961362Y-99446495D01*
X153852451Y-99561464D01*
X153844960Y-99569372D01*
X153842073Y-99574342D01*
X153842071Y-99574345D01*
X153796433Y-99652917D01*
X153757061Y-99720702D01*
X153706333Y-99888193D01*
X153695497Y-100062862D01*
X147199619Y-100062862D01*
X147204503Y-99984138D01*
X147174866Y-99811660D01*
X147106346Y-99650627D01*
X147002617Y-99509676D01*
X146998235Y-99505953D01*
X146998233Y-99505951D01*
X146873631Y-99400094D01*
X146873630Y-99400093D01*
X146869245Y-99396368D01*
X146777507Y-99349524D01*
X146718508Y-99319397D01*
X146718505Y-99319396D01*
X146713384Y-99316781D01*
X146707799Y-99315414D01*
X146707798Y-99315414D01*
X146547674Y-99276232D01*
X146547671Y-99276232D01*
X146543394Y-99275185D01*
X146538996Y-99274912D01*
X146538995Y-99274912D01*
X146533868Y-99274594D01*
X146533867Y-99274594D01*
X146532352Y-99274500D01*
X146406178Y-99274500D01*
X146403331Y-99274832D01*
X146403330Y-99274832D01*
X146392662Y-99276076D01*
X146276172Y-99289657D01*
X146270766Y-99291619D01*
X146270763Y-99291620D01*
X146194240Y-99319397D01*
X146111669Y-99349369D01*
X146106860Y-99352522D01*
X146106856Y-99352524D01*
X146015054Y-99412712D01*
X145965315Y-99445323D01*
X145961366Y-99449492D01*
X145961362Y-99449495D01*
X145852451Y-99564464D01*
X145844960Y-99572372D01*
X145842073Y-99577342D01*
X145842071Y-99577345D01*
X145799506Y-99650627D01*
X145757061Y-99723702D01*
X145706333Y-99891193D01*
X145695497Y-100065862D01*
X115650500Y-100065862D01*
X115650500Y-95749500D01*
X115669407Y-95691309D01*
X115718907Y-95655345D01*
X115749500Y-95650500D01*
X158250500Y-95650500D01*
X158308691Y-95669407D01*
G37*
%TD.AperFunction*%
%TD*%
%TA.AperFunction,Conductor*%
%TO.N,GND*%
G36*
X201308691Y-95669407D02*
G01*
X201344655Y-95718907D01*
X201349500Y-95749500D01*
X201349500Y-134250500D01*
X201330593Y-134308691D01*
X201281093Y-134344655D01*
X201250500Y-134349500D01*
X158749500Y-134349500D01*
X158691309Y-134330593D01*
X158655345Y-134281093D01*
X158650500Y-134250500D01*
X158650500Y-121500000D01*
X160169953Y-121500000D01*
X160188092Y-121672576D01*
X160241714Y-121837611D01*
X160328478Y-121987889D01*
X160331946Y-121991741D01*
X160331950Y-121991746D01*
X160441120Y-122112992D01*
X160441124Y-122112996D01*
X160444590Y-122116845D01*
X160584976Y-122218842D01*
X160589708Y-122220949D01*
X160589710Y-122220950D01*
X160738763Y-122287313D01*
X160738767Y-122287314D01*
X160743501Y-122289422D01*
X160748571Y-122290500D01*
X160748572Y-122290500D01*
X160765368Y-122294070D01*
X160913236Y-122325500D01*
X161086764Y-122325500D01*
X161144385Y-122313252D01*
X161234634Y-122294070D01*
X161295484Y-122300466D01*
X161325221Y-122320903D01*
X172255253Y-133250934D01*
X172268418Y-133267236D01*
X172274175Y-133276152D01*
X172280604Y-133281220D01*
X172299328Y-133295981D01*
X172303737Y-133299898D01*
X172303738Y-133299897D01*
X172306867Y-133302548D01*
X172309747Y-133305428D01*
X172313065Y-133307799D01*
X172313066Y-133307800D01*
X172324584Y-133316031D01*
X172328313Y-133318831D01*
X172365811Y-133348392D01*
X172373116Y-133350957D01*
X172374366Y-133351607D01*
X172380669Y-133356111D01*
X172412458Y-133365618D01*
X172426415Y-133369792D01*
X172430851Y-133371233D01*
X172470033Y-133384993D01*
X172470036Y-133384994D01*
X172475906Y-133387055D01*
X172481044Y-133387500D01*
X172483182Y-133387500D01*
X172484901Y-133387574D01*
X172486262Y-133387689D01*
X172492464Y-133389544D01*
X172500635Y-133389223D01*
X172542554Y-133387576D01*
X172546441Y-133387500D01*
X191866052Y-133387500D01*
X191886888Y-133389718D01*
X191888170Y-133389994D01*
X191897261Y-133391951D01*
X191929071Y-133388186D01*
X191934963Y-133387839D01*
X191934963Y-133387836D01*
X191939030Y-133387500D01*
X191943115Y-133387500D01*
X191947141Y-133386830D01*
X191947152Y-133386829D01*
X191961119Y-133384504D01*
X191965726Y-133383848D01*
X191988689Y-133381130D01*
X192005012Y-133379198D01*
X192005013Y-133379198D01*
X192013138Y-133378236D01*
X192020122Y-133374882D01*
X192021454Y-133374461D01*
X192029103Y-133373188D01*
X192071160Y-133350495D01*
X192075283Y-133348395D01*
X192112717Y-133330420D01*
X192112721Y-133330418D01*
X192118326Y-133327726D01*
X192122274Y-133324408D01*
X192123782Y-133322900D01*
X192125071Y-133321718D01*
X192126097Y-133320852D01*
X192131794Y-133317778D01*
X192137345Y-133311773D01*
X192137350Y-133311769D01*
X192165809Y-133280982D01*
X192168503Y-133278179D01*
X193134867Y-132311815D01*
X193178831Y-132286305D01*
X193200468Y-132280406D01*
X193294755Y-132254700D01*
X193404724Y-132187179D01*
X193473352Y-132111360D01*
X193486590Y-132096735D01*
X193486590Y-132096734D01*
X193491322Y-132091507D01*
X193525718Y-132020515D01*
X193544512Y-131981724D01*
X193544512Y-131981723D01*
X193547588Y-131975375D01*
X193566571Y-131862540D01*
X193568363Y-131851891D01*
X193568363Y-131851886D01*
X193568997Y-131848120D01*
X193569133Y-131837000D01*
X193550839Y-131709259D01*
X193508669Y-131616511D01*
X193500349Y-131598212D01*
X193500348Y-131598211D01*
X193497428Y-131591788D01*
X193492822Y-131586442D01*
X193489024Y-131580504D01*
X193490989Y-131579247D01*
X193471470Y-131532691D01*
X193485498Y-131473136D01*
X193531853Y-131433200D01*
X193570131Y-131425500D01*
X196483810Y-131425500D01*
X196542001Y-131444407D01*
X196553814Y-131454496D01*
X197088054Y-131988736D01*
X197106260Y-132013795D01*
X197128523Y-132057489D01*
X197211511Y-132140477D01*
X197218448Y-132144012D01*
X197218450Y-132144013D01*
X197309141Y-132190222D01*
X197309144Y-132190223D01*
X197316082Y-132193758D01*
X197323776Y-132194977D01*
X197323777Y-132194977D01*
X197424304Y-132210899D01*
X197432000Y-132212118D01*
X197439696Y-132210899D01*
X197540223Y-132194977D01*
X197540224Y-132194977D01*
X197547918Y-132193758D01*
X197554856Y-132190223D01*
X197554859Y-132190222D01*
X197645550Y-132144013D01*
X197645552Y-132144012D01*
X197652489Y-132140477D01*
X197735477Y-132057489D01*
X197767448Y-131994742D01*
X197785222Y-131959859D01*
X197785223Y-131959856D01*
X197788758Y-131952918D01*
X197790970Y-131938956D01*
X197805899Y-131844696D01*
X197807118Y-131837000D01*
X197788758Y-131721082D01*
X197785223Y-131714144D01*
X197785222Y-131714141D01*
X197739013Y-131623450D01*
X197739012Y-131623448D01*
X197735477Y-131616511D01*
X197652489Y-131533523D01*
X197645552Y-131529988D01*
X197645550Y-131529987D01*
X197608795Y-131511260D01*
X197583736Y-131493054D01*
X197135186Y-131044504D01*
X197107409Y-130989987D01*
X197116980Y-130929555D01*
X197160245Y-130886290D01*
X197205190Y-130875500D01*
X197838810Y-130875500D01*
X197897001Y-130894407D01*
X197908814Y-130904496D01*
X198993054Y-131988736D01*
X199011260Y-132013795D01*
X199033523Y-132057489D01*
X199116511Y-132140477D01*
X199123448Y-132144012D01*
X199123450Y-132144013D01*
X199214141Y-132190222D01*
X199214144Y-132190223D01*
X199221082Y-132193758D01*
X199228776Y-132194977D01*
X199228777Y-132194977D01*
X199329304Y-132210899D01*
X199337000Y-132212118D01*
X199344696Y-132210899D01*
X199445223Y-132194977D01*
X199445224Y-132194977D01*
X199452918Y-132193758D01*
X199459856Y-132190223D01*
X199459859Y-132190222D01*
X199550550Y-132144013D01*
X199550552Y-132144012D01*
X199557489Y-132140477D01*
X199640477Y-132057489D01*
X199672448Y-131994742D01*
X199690222Y-131959859D01*
X199690223Y-131959856D01*
X199693758Y-131952918D01*
X199695970Y-131938956D01*
X199710899Y-131844696D01*
X199712118Y-131837000D01*
X199693758Y-131721082D01*
X199690223Y-131714144D01*
X199690222Y-131714141D01*
X199644013Y-131623450D01*
X199644012Y-131623448D01*
X199640477Y-131616511D01*
X199557489Y-131533523D01*
X199550552Y-131529988D01*
X199550550Y-131529987D01*
X199513795Y-131511260D01*
X199488736Y-131493054D01*
X198306745Y-130311063D01*
X198293580Y-130294760D01*
X198292267Y-130292726D01*
X198292264Y-130292722D01*
X198287825Y-130285848D01*
X198262668Y-130266015D01*
X198258263Y-130262101D01*
X198258262Y-130262102D01*
X198255131Y-130259449D01*
X198252254Y-130256572D01*
X198237399Y-130245956D01*
X198233681Y-130243165D01*
X198202614Y-130218673D01*
X198202613Y-130218673D01*
X198196189Y-130213608D01*
X198188882Y-130211042D01*
X198187637Y-130210395D01*
X198181331Y-130205889D01*
X198149542Y-130196382D01*
X198135585Y-130192208D01*
X198131149Y-130190767D01*
X198091967Y-130177007D01*
X198091964Y-130177006D01*
X198086094Y-130174945D01*
X198080956Y-130174500D01*
X198078818Y-130174500D01*
X198077099Y-130174426D01*
X198075738Y-130174311D01*
X198069536Y-130172456D01*
X198061365Y-130172777D01*
X198019446Y-130174424D01*
X198015559Y-130174500D01*
X195638190Y-130174500D01*
X195579999Y-130155593D01*
X195544035Y-130106093D01*
X195544035Y-130044907D01*
X195568186Y-130005496D01*
X200123734Y-125449947D01*
X200148793Y-125431741D01*
X200185550Y-125413013D01*
X200185552Y-125413012D01*
X200192489Y-125409477D01*
X200275477Y-125326489D01*
X200279013Y-125319550D01*
X200325222Y-125228859D01*
X200325223Y-125228856D01*
X200328758Y-125221918D01*
X200347118Y-125106000D01*
X200328758Y-124990082D01*
X200325223Y-124983144D01*
X200325222Y-124983141D01*
X200279013Y-124892450D01*
X200279012Y-124892448D01*
X200275477Y-124885511D01*
X200192489Y-124802523D01*
X200185552Y-124798988D01*
X200185550Y-124798987D01*
X200094859Y-124752778D01*
X200094856Y-124752777D01*
X200087918Y-124749242D01*
X200080224Y-124748023D01*
X200080223Y-124748023D01*
X199979696Y-124732101D01*
X199972000Y-124730882D01*
X199964304Y-124732101D01*
X199863777Y-124748023D01*
X199863776Y-124748023D01*
X199856082Y-124749242D01*
X199849144Y-124752777D01*
X199849141Y-124752778D01*
X199758450Y-124798987D01*
X199758448Y-124798988D01*
X199751511Y-124802523D01*
X199668523Y-124885511D01*
X199664988Y-124892448D01*
X199664987Y-124892450D01*
X199646260Y-124929205D01*
X199628054Y-124954264D01*
X194986814Y-129595504D01*
X194932297Y-129623281D01*
X194916810Y-129624500D01*
X194156190Y-129624500D01*
X194097999Y-129605593D01*
X194062035Y-129556093D01*
X194062035Y-129494907D01*
X194086186Y-129455496D01*
X198091736Y-125449946D01*
X198116795Y-125431740D01*
X198153550Y-125413013D01*
X198153552Y-125413012D01*
X198160489Y-125409477D01*
X198243477Y-125326489D01*
X198247013Y-125319550D01*
X198293222Y-125228859D01*
X198293223Y-125228856D01*
X198296758Y-125221918D01*
X198315118Y-125106000D01*
X198296758Y-124990082D01*
X198293223Y-124983144D01*
X198293222Y-124983141D01*
X198247013Y-124892450D01*
X198247012Y-124892448D01*
X198243477Y-124885511D01*
X198160489Y-124802523D01*
X198153552Y-124798988D01*
X198153550Y-124798987D01*
X198062859Y-124752778D01*
X198062856Y-124752777D01*
X198055918Y-124749242D01*
X198048224Y-124748023D01*
X198048223Y-124748023D01*
X197947696Y-124732101D01*
X197940000Y-124730882D01*
X197932304Y-124732101D01*
X197831777Y-124748023D01*
X197831776Y-124748023D01*
X197824082Y-124749242D01*
X197817144Y-124752777D01*
X197817141Y-124752778D01*
X197726450Y-124798987D01*
X197726448Y-124798988D01*
X197719511Y-124802523D01*
X197636523Y-124885511D01*
X197632988Y-124892448D01*
X197632987Y-124892450D01*
X197614260Y-124929205D01*
X197596054Y-124954264D01*
X193504814Y-129045504D01*
X193450297Y-129073281D01*
X193434810Y-129074500D01*
X183635948Y-129074500D01*
X183615112Y-129072282D01*
X183613830Y-129072006D01*
X183604739Y-129070049D01*
X183572929Y-129073814D01*
X183567037Y-129074161D01*
X183567037Y-129074164D01*
X183562970Y-129074500D01*
X183558885Y-129074500D01*
X183554859Y-129075170D01*
X183554848Y-129075171D01*
X183540881Y-129077496D01*
X183536269Y-129078153D01*
X183488861Y-129083764D01*
X183481878Y-129087117D01*
X183480544Y-129087539D01*
X183472897Y-129088812D01*
X183465696Y-129092698D01*
X183465695Y-129092698D01*
X183430861Y-129111494D01*
X183426703Y-129113612D01*
X183389288Y-129131578D01*
X183389287Y-129131579D01*
X183383674Y-129134274D01*
X183379726Y-129137592D01*
X183378216Y-129139102D01*
X183376929Y-129140282D01*
X183375903Y-129141148D01*
X183370206Y-129144222D01*
X183364655Y-129150227D01*
X183364650Y-129150231D01*
X183336191Y-129181018D01*
X183333497Y-129183821D01*
X181156183Y-131361135D01*
X181113384Y-131386320D01*
X180996935Y-131419601D01*
X180996933Y-131419602D01*
X180990155Y-131421539D01*
X180984191Y-131425302D01*
X180953912Y-131444407D01*
X180881019Y-131490399D01*
X180795596Y-131587122D01*
X180784383Y-131611005D01*
X180761895Y-131658903D01*
X180720049Y-131703542D01*
X180659958Y-131715059D01*
X180602276Y-131686833D01*
X180539496Y-131624053D01*
X180511719Y-131569536D01*
X180510500Y-131554049D01*
X180510500Y-128848190D01*
X180529407Y-128789999D01*
X180539496Y-128778186D01*
X197802185Y-111515496D01*
X197856702Y-111487719D01*
X197872189Y-111486500D01*
X198639541Y-111486500D01*
X198694398Y-111503088D01*
X198760060Y-111546796D01*
X198766788Y-111548898D01*
X198766790Y-111548899D01*
X198821646Y-111566037D01*
X198883233Y-111585278D01*
X198947744Y-111586461D01*
X199005202Y-111587514D01*
X199005204Y-111587514D01*
X199012255Y-111587643D01*
X199019058Y-111585788D01*
X199019060Y-111585788D01*
X199060828Y-111574400D01*
X199136755Y-111553700D01*
X199246724Y-111486179D01*
X199333322Y-111390507D01*
X199389588Y-111274375D01*
X199410997Y-111147120D01*
X199411133Y-111136000D01*
X199392839Y-111008259D01*
X199339428Y-110890788D01*
X199264386Y-110803697D01*
X199259798Y-110798372D01*
X199259797Y-110798371D01*
X199255193Y-110793028D01*
X199249276Y-110789193D01*
X199249274Y-110789191D01*
X199152824Y-110726677D01*
X199146906Y-110722841D01*
X199140150Y-110720821D01*
X199140149Y-110720820D01*
X199097335Y-110708016D01*
X199023273Y-110685866D01*
X198946644Y-110685398D01*
X198901282Y-110685121D01*
X198894231Y-110685078D01*
X198887454Y-110687015D01*
X198887453Y-110687015D01*
X198776935Y-110718601D01*
X198776933Y-110718602D01*
X198770155Y-110720539D01*
X198764191Y-110724302D01*
X198691405Y-110770227D01*
X198638577Y-110785500D01*
X197733948Y-110785500D01*
X197713112Y-110783282D01*
X197711830Y-110783006D01*
X197702739Y-110781049D01*
X197670929Y-110784814D01*
X197665037Y-110785161D01*
X197665037Y-110785164D01*
X197660970Y-110785500D01*
X197656885Y-110785500D01*
X197652859Y-110786170D01*
X197652848Y-110786171D01*
X197638881Y-110788496D01*
X197634274Y-110789152D01*
X197611311Y-110791870D01*
X197594988Y-110793802D01*
X197594987Y-110793802D01*
X197586862Y-110794764D01*
X197579878Y-110798118D01*
X197578546Y-110798539D01*
X197570897Y-110799812D01*
X197528840Y-110822505D01*
X197524717Y-110824605D01*
X197487283Y-110842580D01*
X197487279Y-110842582D01*
X197481674Y-110845274D01*
X197477726Y-110848592D01*
X197476218Y-110850100D01*
X197474929Y-110851282D01*
X197473903Y-110852148D01*
X197468206Y-110855222D01*
X197462655Y-110861227D01*
X197462650Y-110861231D01*
X197434191Y-110892018D01*
X197431497Y-110894821D01*
X179946063Y-128380255D01*
X179929760Y-128393420D01*
X179927726Y-128394733D01*
X179927722Y-128394736D01*
X179920848Y-128399175D01*
X179901015Y-128424332D01*
X179897101Y-128428737D01*
X179897102Y-128428738D01*
X179894449Y-128431869D01*
X179891572Y-128434746D01*
X179880956Y-128449601D01*
X179878170Y-128453312D01*
X179848608Y-128490811D01*
X179846042Y-128498118D01*
X179845395Y-128499363D01*
X179840889Y-128505669D01*
X179838545Y-128513508D01*
X179827208Y-128551415D01*
X179825767Y-128555851D01*
X179809945Y-128600906D01*
X179809500Y-128606044D01*
X179809500Y-128608182D01*
X179809426Y-128609901D01*
X179809311Y-128611262D01*
X179807456Y-128617464D01*
X179807777Y-128625635D01*
X179809424Y-128667554D01*
X179809500Y-128671441D01*
X179809500Y-131692291D01*
X179807282Y-131713127D01*
X179805049Y-131723500D01*
X179806011Y-131731625D01*
X179808814Y-131755310D01*
X179809161Y-131761202D01*
X179809164Y-131761202D01*
X179809500Y-131765269D01*
X179809500Y-131769354D01*
X179810170Y-131773380D01*
X179810171Y-131773391D01*
X179812496Y-131787358D01*
X179813152Y-131791965D01*
X179818764Y-131839377D01*
X179822118Y-131846361D01*
X179822539Y-131847693D01*
X179823812Y-131855342D01*
X179846505Y-131897399D01*
X179848605Y-131901522D01*
X179866580Y-131938956D01*
X179866582Y-131938960D01*
X179869274Y-131944565D01*
X179872592Y-131948513D01*
X179874100Y-131950021D01*
X179875282Y-131951310D01*
X179876148Y-131952336D01*
X179879222Y-131958033D01*
X179885227Y-131963584D01*
X179885231Y-131963589D01*
X179916018Y-131992048D01*
X179918821Y-131994742D01*
X180441575Y-132517496D01*
X180469352Y-132572013D01*
X180459781Y-132632445D01*
X180416516Y-132675710D01*
X180371571Y-132686500D01*
X172723190Y-132686500D01*
X172664999Y-132667593D01*
X172653186Y-132657504D01*
X161819578Y-121823896D01*
X161791801Y-121769379D01*
X161795427Y-121723300D01*
X161810307Y-121677504D01*
X161810307Y-121677502D01*
X161811908Y-121672576D01*
X161830047Y-121500000D01*
X161811908Y-121327424D01*
X161758286Y-121162389D01*
X161671522Y-121012111D01*
X161668054Y-121008259D01*
X161668050Y-121008254D01*
X161558880Y-120887008D01*
X161558876Y-120887004D01*
X161555410Y-120883155D01*
X161415024Y-120781158D01*
X161410292Y-120779051D01*
X161410290Y-120779050D01*
X161261237Y-120712687D01*
X161261233Y-120712686D01*
X161256499Y-120710578D01*
X161251429Y-120709500D01*
X161251428Y-120709500D01*
X161217461Y-120702280D01*
X161086764Y-120674500D01*
X160913236Y-120674500D01*
X160782539Y-120702280D01*
X160748572Y-120709500D01*
X160748571Y-120709500D01*
X160743501Y-120710578D01*
X160738767Y-120712686D01*
X160738763Y-120712687D01*
X160589711Y-120779050D01*
X160589709Y-120779051D01*
X160584977Y-120781158D01*
X160444590Y-120883155D01*
X160441124Y-120887004D01*
X160441120Y-120887008D01*
X160331950Y-121008254D01*
X160331946Y-121008259D01*
X160328478Y-121012111D01*
X160241714Y-121162389D01*
X160188092Y-121327424D01*
X160169953Y-121500000D01*
X158650500Y-121500000D01*
X158650500Y-113633079D01*
X159062049Y-113633079D01*
X159063011Y-113641204D01*
X159065814Y-113664889D01*
X159066161Y-113670781D01*
X159066164Y-113670781D01*
X159066500Y-113674848D01*
X159066500Y-113678933D01*
X159067170Y-113682959D01*
X159067171Y-113682970D01*
X159069496Y-113696937D01*
X159070152Y-113701544D01*
X159075764Y-113748956D01*
X159079118Y-113755940D01*
X159079539Y-113757272D01*
X159080812Y-113764921D01*
X159103505Y-113806978D01*
X159105605Y-113811101D01*
X159123580Y-113848535D01*
X159123582Y-113848539D01*
X159126274Y-113854144D01*
X159129592Y-113858092D01*
X159131100Y-113859600D01*
X159132282Y-113860889D01*
X159133148Y-113861915D01*
X159136222Y-113867612D01*
X159142227Y-113873163D01*
X159142231Y-113873168D01*
X159173018Y-113901627D01*
X159175821Y-113904321D01*
X174065504Y-128794004D01*
X174093281Y-128848521D01*
X174094500Y-128864008D01*
X174094500Y-129122052D01*
X174092282Y-129142888D01*
X174090049Y-129153261D01*
X174091011Y-129161386D01*
X174093814Y-129185071D01*
X174094161Y-129190963D01*
X174094164Y-129190963D01*
X174094500Y-129195030D01*
X174094500Y-129199115D01*
X174095170Y-129203141D01*
X174095171Y-129203152D01*
X174097496Y-129217119D01*
X174098152Y-129221726D01*
X174103764Y-129269138D01*
X174107118Y-129276122D01*
X174107539Y-129277454D01*
X174108812Y-129285103D01*
X174131505Y-129327160D01*
X174133605Y-129331283D01*
X174151580Y-129368717D01*
X174151582Y-129368721D01*
X174154274Y-129374326D01*
X174157592Y-129378274D01*
X174159100Y-129379782D01*
X174160282Y-129381071D01*
X174161148Y-129382097D01*
X174164222Y-129387794D01*
X174170227Y-129393345D01*
X174170231Y-129393350D01*
X174201018Y-129421809D01*
X174203821Y-129424503D01*
X175244054Y-130464736D01*
X175262260Y-130489795D01*
X175284523Y-130533489D01*
X175367511Y-130616477D01*
X175374448Y-130620012D01*
X175374450Y-130620013D01*
X175465141Y-130666222D01*
X175465144Y-130666223D01*
X175472082Y-130669758D01*
X175479776Y-130670977D01*
X175479777Y-130670977D01*
X175580304Y-130686899D01*
X175588000Y-130688118D01*
X175595696Y-130686899D01*
X175696223Y-130670977D01*
X175696224Y-130670977D01*
X175703918Y-130669758D01*
X175710856Y-130666223D01*
X175710859Y-130666222D01*
X175801550Y-130620013D01*
X175801552Y-130620012D01*
X175808489Y-130616477D01*
X175891477Y-130533489D01*
X175920859Y-130475823D01*
X175941222Y-130435859D01*
X175941223Y-130435856D01*
X175944758Y-130428918D01*
X175963118Y-130313000D01*
X175955056Y-130262101D01*
X175945977Y-130204777D01*
X175945977Y-130204776D01*
X175944758Y-130197082D01*
X175941223Y-130190144D01*
X175941222Y-130190141D01*
X175895013Y-130099450D01*
X175895012Y-130099448D01*
X175891477Y-130092511D01*
X175808489Y-130009523D01*
X175801552Y-130005988D01*
X175801550Y-130005987D01*
X175764795Y-129987260D01*
X175739736Y-129969054D01*
X175299069Y-129528387D01*
X175271292Y-129473870D01*
X175280863Y-129413438D01*
X175324128Y-129370173D01*
X175384560Y-129360602D01*
X175414017Y-129370173D01*
X175472082Y-129399758D01*
X175479776Y-129400977D01*
X175479777Y-129400977D01*
X175580304Y-129416899D01*
X175588000Y-129418118D01*
X175595696Y-129416899D01*
X175696223Y-129400977D01*
X175696224Y-129400977D01*
X175703918Y-129399758D01*
X175710856Y-129396223D01*
X175710859Y-129396222D01*
X175801550Y-129350013D01*
X175801552Y-129350012D01*
X175808489Y-129346477D01*
X175891477Y-129263489D01*
X175913933Y-129219417D01*
X175941222Y-129165859D01*
X175941223Y-129165856D01*
X175944758Y-129158918D01*
X175946922Y-129145259D01*
X175961899Y-129050696D01*
X175963118Y-129043000D01*
X175944758Y-128927082D01*
X175941223Y-128920144D01*
X175941222Y-128920141D01*
X175895013Y-128829450D01*
X175895012Y-128829448D01*
X175891477Y-128822511D01*
X175808489Y-128739523D01*
X175801552Y-128735988D01*
X175801550Y-128735987D01*
X175764795Y-128717260D01*
X175739736Y-128699054D01*
X160346496Y-113305814D01*
X160318719Y-113251297D01*
X160317500Y-113235810D01*
X160317500Y-108878952D01*
X160336407Y-108820761D01*
X160346496Y-108808948D01*
X160406419Y-108749025D01*
X160460936Y-108721248D01*
X160521368Y-108730819D01*
X160563941Y-108773392D01*
X160564881Y-108776937D01*
X160568796Y-108783215D01*
X160568797Y-108783217D01*
X160579843Y-108800928D01*
X160586453Y-108813438D01*
X160596605Y-108836510D01*
X160606410Y-108848174D01*
X160613131Y-108856170D01*
X160621350Y-108867483D01*
X160632648Y-108885599D01*
X160632650Y-108885602D01*
X160636567Y-108891882D01*
X160650971Y-108904381D01*
X160655012Y-108907888D01*
X160665906Y-108918954D01*
X160679639Y-108935291D01*
X160704236Y-108951664D01*
X160714257Y-108959298D01*
X160738883Y-108980667D01*
X160757699Y-108988986D01*
X160772518Y-108997116D01*
X160787060Y-109006796D01*
X160793790Y-109008899D01*
X160793791Y-109008899D01*
X160818947Y-109016758D01*
X160829448Y-109020705D01*
X160862783Y-109035442D01*
X160876920Y-109037115D01*
X160879369Y-109037405D01*
X160897251Y-109041222D01*
X160910233Y-109045278D01*
X160930611Y-109045651D01*
X160947489Y-109045961D01*
X160957310Y-109046630D01*
X160983250Y-109049700D01*
X160997310Y-109051364D01*
X161006394Y-109049705D01*
X161009933Y-109049059D01*
X161029530Y-109047465D01*
X161032200Y-109047514D01*
X161032201Y-109047514D01*
X161039255Y-109047643D01*
X161046058Y-109045788D01*
X161046060Y-109045788D01*
X161078946Y-109036822D01*
X161087195Y-109034948D01*
X161130573Y-109027025D01*
X161137137Y-109023615D01*
X161137144Y-109023613D01*
X161138528Y-109022894D01*
X161153652Y-109016982D01*
X161156947Y-109015556D01*
X161163755Y-109013700D01*
X161169767Y-109010009D01*
X161169771Y-109010007D01*
X161202107Y-108990153D01*
X161208268Y-108986667D01*
X161245777Y-108967182D01*
X161250788Y-108964579D01*
X161255828Y-108960275D01*
X161257193Y-108958910D01*
X161258522Y-108957682D01*
X161262464Y-108954229D01*
X161267719Y-108949866D01*
X161273724Y-108946179D01*
X161278453Y-108940955D01*
X161278456Y-108940952D01*
X161308328Y-108907949D01*
X161311722Y-108904381D01*
X162017607Y-108198496D01*
X162072124Y-108170719D01*
X162087611Y-108169500D01*
X179828389Y-108169500D01*
X179886580Y-108188407D01*
X179898393Y-108198496D01*
X180401358Y-108701461D01*
X180407137Y-108707763D01*
X180429100Y-108733892D01*
X180429103Y-108733894D01*
X180433639Y-108739291D01*
X180476352Y-108767723D01*
X180480313Y-108770502D01*
X180497528Y-108783217D01*
X180523816Y-108802634D01*
X180530794Y-108805084D01*
X180532216Y-108805837D01*
X180535886Y-108807352D01*
X180541060Y-108810796D01*
X180593780Y-108827267D01*
X180597044Y-108828350D01*
X180644644Y-108845066D01*
X180644648Y-108845067D01*
X180651631Y-108847519D01*
X180659027Y-108847809D01*
X180660327Y-108848057D01*
X180664233Y-108849278D01*
X180723483Y-108850364D01*
X180725483Y-108850421D01*
X180786994Y-108852838D01*
X180791614Y-108851613D01*
X180793255Y-108851643D01*
X180796974Y-108850629D01*
X180796975Y-108850629D01*
X180855126Y-108834775D01*
X180855792Y-108834596D01*
X180907968Y-108820761D01*
X180917936Y-108818118D01*
X180972551Y-108784058D01*
X180973112Y-108783711D01*
X180979620Y-108779715D01*
X181027724Y-108750179D01*
X181028825Y-108748962D01*
X181032881Y-108746433D01*
X181073172Y-108700001D01*
X181074534Y-108698465D01*
X181109591Y-108659734D01*
X181109592Y-108659733D01*
X181114322Y-108654507D01*
X181116109Y-108650818D01*
X181116815Y-108649706D01*
X181121666Y-108644116D01*
X181145061Y-108591200D01*
X181146493Y-108588107D01*
X181170588Y-108538375D01*
X181171619Y-108532244D01*
X181173024Y-108528542D01*
X181173450Y-108526983D01*
X181176442Y-108520217D01*
X181182799Y-108466504D01*
X181183485Y-108461715D01*
X181191363Y-108414891D01*
X181191364Y-108414885D01*
X181191997Y-108411120D01*
X181192133Y-108400000D01*
X181191636Y-108396527D01*
X181191545Y-108394647D01*
X181191494Y-108393036D01*
X181192364Y-108385689D01*
X181191035Y-108378413D01*
X181191035Y-108378409D01*
X181182140Y-108329710D01*
X181181529Y-108325957D01*
X181178351Y-108303767D01*
X181173839Y-108272259D01*
X181171020Y-108266059D01*
X181169877Y-108261232D01*
X181169355Y-108259707D01*
X181168025Y-108252427D01*
X181164616Y-108245865D01*
X181164615Y-108245861D01*
X181143535Y-108205281D01*
X181141267Y-108200621D01*
X181123349Y-108161212D01*
X181123348Y-108161211D01*
X181120428Y-108154788D01*
X181115822Y-108149442D01*
X181112024Y-108143504D01*
X181112509Y-108143194D01*
X181111541Y-108141764D01*
X181111336Y-108141902D01*
X181108181Y-108137220D01*
X181105579Y-108132211D01*
X181101275Y-108127172D01*
X181070311Y-108096208D01*
X181065316Y-108090827D01*
X181040798Y-108062372D01*
X181040797Y-108062371D01*
X181036193Y-108057028D01*
X181030273Y-108053191D01*
X181029505Y-108052521D01*
X181014419Y-108040316D01*
X180397619Y-107423516D01*
X180389877Y-107414803D01*
X180372453Y-107392701D01*
X180367872Y-107386890D01*
X180319251Y-107353286D01*
X180316728Y-107351483D01*
X180275139Y-107320764D01*
X180275137Y-107320763D01*
X180269184Y-107316366D01*
X180262368Y-107313973D01*
X180256431Y-107309869D01*
X180249372Y-107307636D01*
X180249371Y-107307636D01*
X180229027Y-107301202D01*
X180200071Y-107292044D01*
X180197186Y-107291082D01*
X180141369Y-107271481D01*
X180135327Y-107271244D01*
X180132653Y-107270723D01*
X180127270Y-107269020D01*
X180120663Y-107268500D01*
X180067459Y-107268500D01*
X180063572Y-107268424D01*
X180013397Y-107266452D01*
X180013394Y-107266452D01*
X180006006Y-107266162D01*
X179999228Y-107267959D01*
X179989403Y-107268500D01*
X162125952Y-107268500D01*
X162067761Y-107249593D01*
X162031797Y-107200093D01*
X162031797Y-107138907D01*
X162055948Y-107099496D01*
X163735948Y-105419496D01*
X163790465Y-105391719D01*
X163805952Y-105390500D01*
X169049208Y-105390500D01*
X169107399Y-105409407D01*
X169119212Y-105419496D01*
X169228153Y-105528437D01*
X169241318Y-105544740D01*
X169242631Y-105546774D01*
X169242634Y-105546778D01*
X169247073Y-105553652D01*
X169272230Y-105573484D01*
X169276636Y-105577400D01*
X169276637Y-105577399D01*
X169279766Y-105580050D01*
X169282645Y-105582929D01*
X169285959Y-105585297D01*
X169285960Y-105585298D01*
X169297489Y-105593537D01*
X169301217Y-105596336D01*
X169314959Y-105607169D01*
X169338709Y-105625892D01*
X169346012Y-105628457D01*
X169347267Y-105629109D01*
X169353568Y-105633611D01*
X169391374Y-105644917D01*
X169399310Y-105647291D01*
X169403744Y-105648732D01*
X169442928Y-105662492D01*
X169442932Y-105662493D01*
X169448804Y-105664555D01*
X169453942Y-105665000D01*
X169456080Y-105665000D01*
X169457799Y-105665074D01*
X169459160Y-105665189D01*
X169465362Y-105667044D01*
X169473533Y-105666723D01*
X169515452Y-105665076D01*
X169519339Y-105665000D01*
X170058552Y-105665000D01*
X170079388Y-105667218D01*
X170080670Y-105667494D01*
X170089761Y-105669451D01*
X170121571Y-105665686D01*
X170127463Y-105665339D01*
X170127463Y-105665336D01*
X170131530Y-105665000D01*
X170135615Y-105665000D01*
X170139641Y-105664330D01*
X170139652Y-105664329D01*
X170153619Y-105662004D01*
X170158226Y-105661348D01*
X170181189Y-105658630D01*
X170197512Y-105656698D01*
X170197513Y-105656698D01*
X170205638Y-105655736D01*
X170212622Y-105652382D01*
X170213954Y-105651961D01*
X170221603Y-105650688D01*
X170263660Y-105627995D01*
X170267783Y-105625895D01*
X170305217Y-105607920D01*
X170305221Y-105607918D01*
X170310826Y-105605226D01*
X170314774Y-105601908D01*
X170316282Y-105600400D01*
X170317571Y-105599218D01*
X170318597Y-105598352D01*
X170324294Y-105595278D01*
X170329845Y-105589273D01*
X170329850Y-105589269D01*
X170358309Y-105558482D01*
X170361003Y-105555679D01*
X170975937Y-104940745D01*
X170992240Y-104927580D01*
X170994274Y-104926267D01*
X170994278Y-104926264D01*
X171001152Y-104921825D01*
X171020985Y-104896668D01*
X171024899Y-104892263D01*
X171024898Y-104892262D01*
X171027551Y-104889131D01*
X171030428Y-104886254D01*
X171041044Y-104871399D01*
X171043835Y-104867681D01*
X171068327Y-104836614D01*
X171068327Y-104836613D01*
X171073392Y-104830189D01*
X171075958Y-104822882D01*
X171076605Y-104821637D01*
X171081111Y-104815331D01*
X171094792Y-104769585D01*
X171096233Y-104765149D01*
X171109993Y-104725967D01*
X171109994Y-104725964D01*
X171112055Y-104720094D01*
X171112500Y-104714956D01*
X171112500Y-104712818D01*
X171112574Y-104711099D01*
X171112689Y-104709738D01*
X171114544Y-104703536D01*
X171112576Y-104653446D01*
X171112500Y-104649559D01*
X171112500Y-102646914D01*
X171116801Y-102619760D01*
X171118758Y-102615918D01*
X171137118Y-102500000D01*
X171132922Y-102473511D01*
X171119977Y-102391777D01*
X171119977Y-102391776D01*
X171118758Y-102384082D01*
X171115223Y-102377144D01*
X171115222Y-102377141D01*
X171069013Y-102286450D01*
X171069012Y-102286448D01*
X171065477Y-102279511D01*
X170982489Y-102196523D01*
X170975552Y-102192988D01*
X170975550Y-102192987D01*
X170884859Y-102146778D01*
X170884856Y-102146777D01*
X170877918Y-102143242D01*
X170870224Y-102142023D01*
X170870223Y-102142023D01*
X170769696Y-102126101D01*
X170762000Y-102124882D01*
X170754304Y-102126101D01*
X170653777Y-102142023D01*
X170653776Y-102142023D01*
X170646082Y-102143242D01*
X170639144Y-102146777D01*
X170639141Y-102146778D01*
X170548450Y-102192987D01*
X170548448Y-102192988D01*
X170541511Y-102196523D01*
X170458523Y-102279511D01*
X170454988Y-102286448D01*
X170454987Y-102286450D01*
X170408778Y-102377141D01*
X170408777Y-102377144D01*
X170405242Y-102384082D01*
X170404023Y-102391776D01*
X170404023Y-102391777D01*
X170391078Y-102473511D01*
X170386882Y-102500000D01*
X170405242Y-102615918D01*
X170407199Y-102619760D01*
X170411500Y-102646914D01*
X170411500Y-104472810D01*
X170392593Y-104531001D01*
X170382504Y-104542814D01*
X170263597Y-104661721D01*
X170209080Y-104689498D01*
X170148648Y-104679927D01*
X170105383Y-104636662D01*
X170103205Y-104631403D01*
X170102758Y-104628582D01*
X170049477Y-104524011D01*
X169966489Y-104441023D01*
X169959552Y-104437488D01*
X169959550Y-104437487D01*
X169922795Y-104418760D01*
X169897736Y-104400554D01*
X169688245Y-104191063D01*
X169675080Y-104174760D01*
X169673767Y-104172726D01*
X169673764Y-104172722D01*
X169669325Y-104165848D01*
X169644168Y-104146015D01*
X169639763Y-104142101D01*
X169639762Y-104142102D01*
X169636631Y-104139449D01*
X169633754Y-104136572D01*
X169618899Y-104125956D01*
X169615181Y-104123165D01*
X169612226Y-104120835D01*
X169577689Y-104093608D01*
X169570382Y-104091042D01*
X169569137Y-104090395D01*
X169562831Y-104085889D01*
X169531042Y-104076382D01*
X169517085Y-104072208D01*
X169512649Y-104070767D01*
X169473467Y-104057007D01*
X169473464Y-104057006D01*
X169467594Y-104054945D01*
X169462456Y-104054500D01*
X169460318Y-104054500D01*
X169458599Y-104054426D01*
X169457238Y-104054311D01*
X169451036Y-104052456D01*
X169442865Y-104052777D01*
X169400946Y-104054424D01*
X169397059Y-104054500D01*
X163524892Y-104054500D01*
X163504056Y-104052282D01*
X163502774Y-104052006D01*
X163493683Y-104050049D01*
X163462524Y-104053737D01*
X163461873Y-104053814D01*
X163455981Y-104054161D01*
X163455981Y-104054164D01*
X163451914Y-104054500D01*
X163447829Y-104054500D01*
X163443803Y-104055170D01*
X163443792Y-104055171D01*
X163429825Y-104057496D01*
X163425218Y-104058152D01*
X163402255Y-104060870D01*
X163385932Y-104062802D01*
X163385931Y-104062802D01*
X163377806Y-104063764D01*
X163370822Y-104067118D01*
X163369490Y-104067539D01*
X163361841Y-104068812D01*
X163319784Y-104091505D01*
X163315661Y-104093605D01*
X163278227Y-104111580D01*
X163278223Y-104111582D01*
X163272618Y-104114274D01*
X163268670Y-104117592D01*
X163267162Y-104119100D01*
X163265873Y-104120282D01*
X163264847Y-104121148D01*
X163259150Y-104124222D01*
X163253599Y-104130227D01*
X163253594Y-104130231D01*
X163225135Y-104161018D01*
X163222441Y-104163821D01*
X159203063Y-108183199D01*
X159186760Y-108196364D01*
X159184726Y-108197677D01*
X159184722Y-108197680D01*
X159177848Y-108202119D01*
X159158015Y-108227276D01*
X159154101Y-108231681D01*
X159154102Y-108231682D01*
X159151449Y-108234813D01*
X159148572Y-108237690D01*
X159137956Y-108252545D01*
X159135170Y-108256256D01*
X159105608Y-108293755D01*
X159103042Y-108301062D01*
X159102395Y-108302307D01*
X159097889Y-108308613D01*
X159095545Y-108316452D01*
X159084208Y-108354359D01*
X159082767Y-108358795D01*
X159070177Y-108394647D01*
X159066945Y-108403850D01*
X159066500Y-108408988D01*
X159066500Y-108411120D01*
X159066426Y-108412845D01*
X159066311Y-108414206D01*
X159064456Y-108420408D01*
X159064777Y-108428579D01*
X159066424Y-108470498D01*
X159066500Y-108474385D01*
X159066500Y-113601870D01*
X159064282Y-113622706D01*
X159062049Y-113633079D01*
X158650500Y-113633079D01*
X158650500Y-102100000D01*
X167529534Y-102100000D01*
X167549313Y-102250236D01*
X167551797Y-102256233D01*
X167604819Y-102384240D01*
X167604821Y-102384244D01*
X167607302Y-102390233D01*
X167611248Y-102395375D01*
X167611250Y-102395379D01*
X167685624Y-102492304D01*
X167699549Y-102510451D01*
X167704698Y-102514402D01*
X167814621Y-102598750D01*
X167814625Y-102598752D01*
X167819767Y-102602698D01*
X167825756Y-102605179D01*
X167825760Y-102605181D01*
X167926513Y-102646914D01*
X167959764Y-102660687D01*
X168072280Y-102675500D01*
X168147720Y-102675500D01*
X168260236Y-102660687D01*
X168293487Y-102646914D01*
X168394240Y-102605181D01*
X168394244Y-102605179D01*
X168400233Y-102602698D01*
X168405375Y-102598752D01*
X168405379Y-102598750D01*
X168515302Y-102514402D01*
X168520451Y-102510451D01*
X168534376Y-102492304D01*
X168608750Y-102395379D01*
X168608752Y-102395375D01*
X168612698Y-102390233D01*
X168615179Y-102384244D01*
X168615181Y-102384240D01*
X168668203Y-102256233D01*
X168670687Y-102250236D01*
X168690466Y-102100000D01*
X173309534Y-102100000D01*
X173329313Y-102250236D01*
X173331797Y-102256233D01*
X173384819Y-102384240D01*
X173384821Y-102384244D01*
X173387302Y-102390233D01*
X173391248Y-102395375D01*
X173391250Y-102395379D01*
X173465624Y-102492304D01*
X173479549Y-102510451D01*
X173484698Y-102514402D01*
X173594621Y-102598750D01*
X173594625Y-102598752D01*
X173599767Y-102602698D01*
X173605756Y-102605179D01*
X173605760Y-102605181D01*
X173706513Y-102646914D01*
X173739764Y-102660687D01*
X173852280Y-102675500D01*
X173927720Y-102675500D01*
X174040236Y-102660687D01*
X174073487Y-102646914D01*
X174174240Y-102605181D01*
X174174244Y-102605179D01*
X174180233Y-102602698D01*
X174185375Y-102598752D01*
X174185379Y-102598750D01*
X174295302Y-102514402D01*
X174300451Y-102510451D01*
X174314376Y-102492304D01*
X174388750Y-102395379D01*
X174388752Y-102395375D01*
X174392698Y-102390233D01*
X174395179Y-102384244D01*
X174395181Y-102384240D01*
X174448203Y-102256233D01*
X174450687Y-102250236D01*
X174470466Y-102100000D01*
X174450687Y-101949764D01*
X174448203Y-101943767D01*
X174395181Y-101815760D01*
X174395179Y-101815756D01*
X174392698Y-101809767D01*
X174388752Y-101804625D01*
X174388750Y-101804621D01*
X174304402Y-101694698D01*
X174300451Y-101689549D01*
X174295302Y-101685598D01*
X174185379Y-101601250D01*
X174185375Y-101601248D01*
X174180233Y-101597302D01*
X174174244Y-101594821D01*
X174174240Y-101594819D01*
X174046233Y-101541797D01*
X174040236Y-101539313D01*
X173927720Y-101524500D01*
X173852280Y-101524500D01*
X173739764Y-101539313D01*
X173733767Y-101541797D01*
X173605760Y-101594819D01*
X173605756Y-101594821D01*
X173599767Y-101597302D01*
X173594625Y-101601248D01*
X173594621Y-101601250D01*
X173484698Y-101685598D01*
X173479549Y-101689549D01*
X173475598Y-101694698D01*
X173391250Y-101804621D01*
X173391248Y-101804625D01*
X173387302Y-101809767D01*
X173384821Y-101815756D01*
X173384819Y-101815760D01*
X173331797Y-101943767D01*
X173329313Y-101949764D01*
X173309534Y-102100000D01*
X168690466Y-102100000D01*
X168670687Y-101949764D01*
X168668203Y-101943767D01*
X168615181Y-101815760D01*
X168615179Y-101815756D01*
X168612698Y-101809767D01*
X168608752Y-101804625D01*
X168608750Y-101804621D01*
X168524402Y-101694698D01*
X168520451Y-101689549D01*
X168515302Y-101685598D01*
X168405379Y-101601250D01*
X168405375Y-101601248D01*
X168400233Y-101597302D01*
X168394244Y-101594821D01*
X168394240Y-101594819D01*
X168266233Y-101541797D01*
X168260236Y-101539313D01*
X168147720Y-101524500D01*
X168072280Y-101524500D01*
X167959764Y-101539313D01*
X167953767Y-101541797D01*
X167825760Y-101594819D01*
X167825756Y-101594821D01*
X167819767Y-101597302D01*
X167814625Y-101601248D01*
X167814621Y-101601250D01*
X167704698Y-101685598D01*
X167699549Y-101689549D01*
X167695598Y-101694698D01*
X167611250Y-101804621D01*
X167611248Y-101804625D01*
X167607302Y-101809767D01*
X167604821Y-101815756D01*
X167604819Y-101815760D01*
X167551797Y-101943767D01*
X167549313Y-101949764D01*
X167529534Y-102100000D01*
X158650500Y-102100000D01*
X158650500Y-100065862D01*
X188695497Y-100065862D01*
X188725134Y-100238340D01*
X188727387Y-100243635D01*
X188790127Y-100391083D01*
X188793654Y-100399373D01*
X188897383Y-100540324D01*
X188901765Y-100544047D01*
X188901767Y-100544049D01*
X188969600Y-100601677D01*
X189030755Y-100653632D01*
X189110337Y-100694269D01*
X189181492Y-100730603D01*
X189181495Y-100730604D01*
X189186616Y-100733219D01*
X189192201Y-100734586D01*
X189192202Y-100734586D01*
X189352326Y-100773768D01*
X189352329Y-100773768D01*
X189356606Y-100774815D01*
X189361004Y-100775088D01*
X189361005Y-100775088D01*
X189366132Y-100775406D01*
X189366133Y-100775406D01*
X189367648Y-100775500D01*
X189493822Y-100775500D01*
X189499698Y-100774815D01*
X189508678Y-100773768D01*
X189623828Y-100760343D01*
X189629234Y-100758381D01*
X189629237Y-100758380D01*
X189782923Y-100702594D01*
X189788331Y-100700631D01*
X189793140Y-100697478D01*
X189793144Y-100697476D01*
X189929877Y-100607829D01*
X189934685Y-100604677D01*
X189938634Y-100600508D01*
X189938638Y-100600505D01*
X190051084Y-100481804D01*
X190055040Y-100477628D01*
X190059672Y-100469655D01*
X190140050Y-100331272D01*
X190140050Y-100331271D01*
X190142939Y-100326298D01*
X190193667Y-100158807D01*
X190199619Y-100062862D01*
X196695497Y-100062862D01*
X196725134Y-100235340D01*
X196793654Y-100396373D01*
X196897383Y-100537324D01*
X196901765Y-100541047D01*
X196901767Y-100541049D01*
X197026369Y-100646906D01*
X197030755Y-100650632D01*
X197110337Y-100691269D01*
X197181492Y-100727603D01*
X197181495Y-100727604D01*
X197186616Y-100730219D01*
X197192201Y-100731586D01*
X197192202Y-100731586D01*
X197352326Y-100770768D01*
X197352329Y-100770768D01*
X197356606Y-100771815D01*
X197361004Y-100772088D01*
X197361005Y-100772088D01*
X197366132Y-100772406D01*
X197366133Y-100772406D01*
X197367648Y-100772500D01*
X197493822Y-100772500D01*
X197499698Y-100771815D01*
X197508678Y-100770768D01*
X197623828Y-100757343D01*
X197629234Y-100755381D01*
X197629237Y-100755380D01*
X197782923Y-100699594D01*
X197788331Y-100697631D01*
X197793140Y-100694478D01*
X197793144Y-100694476D01*
X197884946Y-100634288D01*
X197934685Y-100601677D01*
X197938634Y-100597508D01*
X197938638Y-100597505D01*
X198051084Y-100478804D01*
X198055040Y-100474628D01*
X198098752Y-100399373D01*
X198140050Y-100328272D01*
X198140050Y-100328271D01*
X198142939Y-100323298D01*
X198193667Y-100155807D01*
X198204503Y-99981138D01*
X198174866Y-99808660D01*
X198135323Y-99715728D01*
X198108597Y-99652917D01*
X198108597Y-99652916D01*
X198106346Y-99647627D01*
X198002617Y-99506676D01*
X197998235Y-99502953D01*
X197998233Y-99502951D01*
X197873631Y-99397094D01*
X197873630Y-99397093D01*
X197869245Y-99393368D01*
X197779234Y-99347406D01*
X197718508Y-99316397D01*
X197718505Y-99316396D01*
X197713384Y-99313781D01*
X197707799Y-99312414D01*
X197707798Y-99312414D01*
X197547674Y-99273232D01*
X197547671Y-99273232D01*
X197543394Y-99272185D01*
X197538996Y-99271912D01*
X197538995Y-99271912D01*
X197533868Y-99271594D01*
X197533867Y-99271594D01*
X197532352Y-99271500D01*
X197406178Y-99271500D01*
X197403331Y-99271832D01*
X197403330Y-99271832D01*
X197392662Y-99273076D01*
X197276172Y-99286657D01*
X197270766Y-99288619D01*
X197270763Y-99288620D01*
X197196948Y-99315414D01*
X197111669Y-99346369D01*
X197106860Y-99349522D01*
X197106856Y-99349524D01*
X197029725Y-99400094D01*
X196965315Y-99442323D01*
X196961366Y-99446492D01*
X196961362Y-99446495D01*
X196852451Y-99561464D01*
X196844960Y-99569372D01*
X196842073Y-99574342D01*
X196842071Y-99574345D01*
X196796433Y-99652917D01*
X196757061Y-99720702D01*
X196706333Y-99888193D01*
X196695497Y-100062862D01*
X190199619Y-100062862D01*
X190204503Y-99984138D01*
X190174866Y-99811660D01*
X190106346Y-99650627D01*
X190002617Y-99509676D01*
X189998235Y-99505953D01*
X189998233Y-99505951D01*
X189873631Y-99400094D01*
X189873630Y-99400093D01*
X189869245Y-99396368D01*
X189777507Y-99349524D01*
X189718508Y-99319397D01*
X189718505Y-99319396D01*
X189713384Y-99316781D01*
X189707799Y-99315414D01*
X189707798Y-99315414D01*
X189547674Y-99276232D01*
X189547671Y-99276232D01*
X189543394Y-99275185D01*
X189538996Y-99274912D01*
X189538995Y-99274912D01*
X189533868Y-99274594D01*
X189533867Y-99274594D01*
X189532352Y-99274500D01*
X189406178Y-99274500D01*
X189403331Y-99274832D01*
X189403330Y-99274832D01*
X189392662Y-99276076D01*
X189276172Y-99289657D01*
X189270766Y-99291619D01*
X189270763Y-99291620D01*
X189194240Y-99319397D01*
X189111669Y-99349369D01*
X189106860Y-99352522D01*
X189106856Y-99352524D01*
X189015054Y-99412712D01*
X188965315Y-99445323D01*
X188961366Y-99449492D01*
X188961362Y-99449495D01*
X188852451Y-99564464D01*
X188844960Y-99572372D01*
X188842073Y-99577342D01*
X188842071Y-99577345D01*
X188799506Y-99650627D01*
X188757061Y-99723702D01*
X188706333Y-99891193D01*
X188695497Y-100065862D01*
X158650500Y-100065862D01*
X158650500Y-95749500D01*
X158669407Y-95691309D01*
X158718907Y-95655345D01*
X158749500Y-95650500D01*
X201250500Y-95650500D01*
X201308691Y-95669407D01*
G37*
%TD.AperFunction*%
%TD*%
M02*
