%TF.GenerationSoftware,KiCad,Pcbnew,(6.0.7)*%
%TF.CreationDate,2023-02-26T08:18:57+08:00*%
%TF.ProjectId,Led_Control_Circuit_Panelization,4c65645f-436f-46e7-9472-6f6c5f436972,rev?*%
%TF.SameCoordinates,Original*%
%TF.FileFunction,Other,ECO1*%
%FSLAX46Y46*%
G04 Gerber Fmt 4.6, Leading zero omitted, Abs format (unit mm)*
G04 Created by KiCad (PCBNEW (6.0.7)) date 2023-02-26 08:18:57*
%MOMM*%
%LPD*%
G01*
G04 APERTURE LIST*
%ADD10C,0.150000*%
G04 APERTURE END LIST*
D10*
X157900619Y-136564952D02*
X156900619Y-136898285D01*
X157900619Y-137231619D01*
X157281571Y-137564952D02*
X157281571Y-138326857D01*
X156948238Y-139231619D02*
X156900619Y-139136380D01*
X156900619Y-138945904D01*
X156948238Y-138850666D01*
X156995857Y-138803047D01*
X157091095Y-138755428D01*
X157376809Y-138755428D01*
X157472047Y-138803047D01*
X157519666Y-138850666D01*
X157567285Y-138945904D01*
X157567285Y-139136380D01*
X157519666Y-139231619D01*
X157567285Y-140088761D02*
X156900619Y-140088761D01*
X157567285Y-139660190D02*
X157043476Y-139660190D01*
X156948238Y-139707809D01*
X156900619Y-139803047D01*
X156900619Y-139945904D01*
X156948238Y-140041142D01*
X156995857Y-140088761D01*
X157567285Y-140422095D02*
X157567285Y-140803047D01*
X157900619Y-140564952D02*
X157043476Y-140564952D01*
X156948238Y-140612571D01*
X156900619Y-140707809D01*
X156900619Y-140803047D01*
X158496000Y-135128000D02*
X157861000Y-135890000D01*
X158496000Y-135128000D02*
X158496000Y-140970000D01*
X203366952Y-96099380D02*
X203700285Y-97099380D01*
X204033619Y-96099380D01*
X204366952Y-96718428D02*
X205128857Y-96718428D01*
X206033619Y-97051761D02*
X205938380Y-97099380D01*
X205747904Y-97099380D01*
X205652666Y-97051761D01*
X205605047Y-97004142D01*
X205557428Y-96908904D01*
X205557428Y-96623190D01*
X205605047Y-96527952D01*
X205652666Y-96480333D01*
X205747904Y-96432714D01*
X205938380Y-96432714D01*
X206033619Y-96480333D01*
X206890761Y-96432714D02*
X206890761Y-97099380D01*
X206462190Y-96432714D02*
X206462190Y-96956523D01*
X206509809Y-97051761D01*
X206605047Y-97099380D01*
X206747904Y-97099380D01*
X206843142Y-97051761D01*
X206890761Y-97004142D01*
X207224095Y-96432714D02*
X207605047Y-96432714D01*
X207366952Y-96099380D02*
X207366952Y-96956523D01*
X207414571Y-97051761D01*
X207509809Y-97099380D01*
X207605047Y-97099380D01*
X201930000Y-95504000D02*
X202692000Y-96139000D01*
X201930000Y-95504000D02*
X207772000Y-95504000D01*
X132857142Y-48135714D02*
X132857142Y-48802380D01*
X132619047Y-47754761D02*
X132380952Y-48469047D01*
X133000000Y-48469047D01*
X133285714Y-47802380D02*
X133904761Y-47802380D01*
X133571428Y-48183333D01*
X133714285Y-48183333D01*
X133809523Y-48230952D01*
X133857142Y-48278571D01*
X133904761Y-48373809D01*
X133904761Y-48611904D01*
X133857142Y-48707142D01*
X133809523Y-48754761D01*
X133714285Y-48802380D01*
X133428571Y-48802380D01*
X133333333Y-48754761D01*
X133285714Y-48707142D01*
X134333333Y-48707142D02*
X134380952Y-48754761D01*
X134333333Y-48802380D01*
X134285714Y-48754761D01*
X134333333Y-48707142D01*
X134333333Y-48802380D01*
X135000000Y-47802380D02*
X135095238Y-47802380D01*
X135190476Y-47850000D01*
X135238095Y-47897619D01*
X135285714Y-47992857D01*
X135333333Y-48183333D01*
X135333333Y-48421428D01*
X135285714Y-48611904D01*
X135238095Y-48707142D01*
X135190476Y-48754761D01*
X135095238Y-48802380D01*
X135000000Y-48802380D01*
X134904761Y-48754761D01*
X134857142Y-48707142D01*
X134809523Y-48611904D01*
X134761904Y-48421428D01*
X134761904Y-48183333D01*
X134809523Y-47992857D01*
X134857142Y-47897619D01*
X134904761Y-47850000D01*
X135000000Y-47802380D01*
X135952380Y-47802380D02*
X136047619Y-47802380D01*
X136142857Y-47850000D01*
X136190476Y-47897619D01*
X136238095Y-47992857D01*
X136285714Y-48183333D01*
X136285714Y-48421428D01*
X136238095Y-48611904D01*
X136190476Y-48707142D01*
X136142857Y-48754761D01*
X136047619Y-48802380D01*
X135952380Y-48802380D01*
X135857142Y-48754761D01*
X135809523Y-48707142D01*
X135761904Y-48611904D01*
X135714285Y-48421428D01*
X135714285Y-48183333D01*
X135761904Y-47992857D01*
X135809523Y-47897619D01*
X135857142Y-47850000D01*
X135952380Y-47802380D01*
X136904761Y-47802380D02*
X137000000Y-47802380D01*
X137095238Y-47850000D01*
X137142857Y-47897619D01*
X137190476Y-47992857D01*
X137238095Y-48183333D01*
X137238095Y-48421428D01*
X137190476Y-48611904D01*
X137142857Y-48707142D01*
X137095238Y-48754761D01*
X137000000Y-48802380D01*
X136904761Y-48802380D01*
X136809523Y-48754761D01*
X136761904Y-48707142D01*
X136714285Y-48611904D01*
X136666666Y-48421428D01*
X136666666Y-48183333D01*
X136714285Y-47992857D01*
X136761904Y-47897619D01*
X136809523Y-47850000D01*
X136904761Y-47802380D01*
X137857142Y-47802380D02*
X137952380Y-47802380D01*
X138047619Y-47850000D01*
X138095238Y-47897619D01*
X138142857Y-47992857D01*
X138190476Y-48183333D01*
X138190476Y-48421428D01*
X138142857Y-48611904D01*
X138095238Y-48707142D01*
X138047619Y-48754761D01*
X137952380Y-48802380D01*
X137857142Y-48802380D01*
X137761904Y-48754761D01*
X137714285Y-48707142D01*
X137666666Y-48611904D01*
X137619047Y-48421428D01*
X137619047Y-48183333D01*
X137666666Y-47992857D01*
X137714285Y-47897619D01*
X137761904Y-47850000D01*
X137857142Y-47802380D01*
X139380952Y-48802380D02*
X139380952Y-48135714D01*
X139380952Y-48230952D02*
X139428571Y-48183333D01*
X139523809Y-48135714D01*
X139666666Y-48135714D01*
X139761904Y-48183333D01*
X139809523Y-48278571D01*
X139809523Y-48802380D01*
X139809523Y-48278571D02*
X139857142Y-48183333D01*
X139952380Y-48135714D01*
X140095238Y-48135714D01*
X140190476Y-48183333D01*
X140238095Y-48278571D01*
X140238095Y-48802380D01*
X140714285Y-48802380D02*
X140714285Y-48135714D01*
X140714285Y-48230952D02*
X140761904Y-48183333D01*
X140857142Y-48135714D01*
X141000000Y-48135714D01*
X141095238Y-48183333D01*
X141142857Y-48278571D01*
X141142857Y-48802380D01*
X141142857Y-48278571D02*
X141190476Y-48183333D01*
X141285714Y-48135714D01*
X141428571Y-48135714D01*
X141523809Y-48183333D01*
X141571428Y-48278571D01*
X141571428Y-48802380D01*
X158500000Y-56000000D02*
X158500000Y-48913580D01*
X115500000Y-56000000D02*
X115500000Y-48913580D01*
X158500000Y-49500000D02*
X115500000Y-49500000D01*
X158500000Y-49500000D02*
X115500000Y-49500000D01*
X158500000Y-49500000D02*
X157373496Y-48913579D01*
X158500000Y-49500000D02*
X157373496Y-50086421D01*
X115500000Y-49500000D02*
X116626504Y-50086421D01*
X115500000Y-49500000D02*
X116626504Y-48913579D01*
X110897619Y-73619047D02*
X110850000Y-73571428D01*
X110802380Y-73476190D01*
X110802380Y-73238095D01*
X110850000Y-73142857D01*
X110897619Y-73095238D01*
X110992857Y-73047619D01*
X111088095Y-73047619D01*
X111230952Y-73095238D01*
X111802380Y-73666666D01*
X111802380Y-73047619D01*
X110802380Y-72142857D02*
X110802380Y-72619047D01*
X111278571Y-72666666D01*
X111230952Y-72619047D01*
X111183333Y-72523809D01*
X111183333Y-72285714D01*
X111230952Y-72190476D01*
X111278571Y-72142857D01*
X111373809Y-72095238D01*
X111611904Y-72095238D01*
X111707142Y-72142857D01*
X111754761Y-72190476D01*
X111802380Y-72285714D01*
X111802380Y-72523809D01*
X111754761Y-72619047D01*
X111707142Y-72666666D01*
X111707142Y-71666666D02*
X111754761Y-71619047D01*
X111802380Y-71666666D01*
X111754761Y-71714285D01*
X111707142Y-71666666D01*
X111802380Y-71666666D01*
X110802380Y-71000000D02*
X110802380Y-70904761D01*
X110850000Y-70809523D01*
X110897619Y-70761904D01*
X110992857Y-70714285D01*
X111183333Y-70666666D01*
X111421428Y-70666666D01*
X111611904Y-70714285D01*
X111707142Y-70761904D01*
X111754761Y-70809523D01*
X111802380Y-70904761D01*
X111802380Y-71000000D01*
X111754761Y-71095238D01*
X111707142Y-71142857D01*
X111611904Y-71190476D01*
X111421428Y-71238095D01*
X111183333Y-71238095D01*
X110992857Y-71190476D01*
X110897619Y-71142857D01*
X110850000Y-71095238D01*
X110802380Y-71000000D01*
X110802380Y-70047619D02*
X110802380Y-69952380D01*
X110850000Y-69857142D01*
X110897619Y-69809523D01*
X110992857Y-69761904D01*
X111183333Y-69714285D01*
X111421428Y-69714285D01*
X111611904Y-69761904D01*
X111707142Y-69809523D01*
X111754761Y-69857142D01*
X111802380Y-69952380D01*
X111802380Y-70047619D01*
X111754761Y-70142857D01*
X111707142Y-70190476D01*
X111611904Y-70238095D01*
X111421428Y-70285714D01*
X111183333Y-70285714D01*
X110992857Y-70238095D01*
X110897619Y-70190476D01*
X110850000Y-70142857D01*
X110802380Y-70047619D01*
X110802380Y-69095238D02*
X110802380Y-69000000D01*
X110850000Y-68904761D01*
X110897619Y-68857142D01*
X110992857Y-68809523D01*
X111183333Y-68761904D01*
X111421428Y-68761904D01*
X111611904Y-68809523D01*
X111707142Y-68857142D01*
X111754761Y-68904761D01*
X111802380Y-69000000D01*
X111802380Y-69095238D01*
X111754761Y-69190476D01*
X111707142Y-69238095D01*
X111611904Y-69285714D01*
X111421428Y-69333333D01*
X111183333Y-69333333D01*
X110992857Y-69285714D01*
X110897619Y-69238095D01*
X110850000Y-69190476D01*
X110802380Y-69095238D01*
X110802380Y-68142857D02*
X110802380Y-68047619D01*
X110850000Y-67952380D01*
X110897619Y-67904761D01*
X110992857Y-67857142D01*
X111183333Y-67809523D01*
X111421428Y-67809523D01*
X111611904Y-67857142D01*
X111707142Y-67904761D01*
X111754761Y-67952380D01*
X111802380Y-68047619D01*
X111802380Y-68142857D01*
X111754761Y-68238095D01*
X111707142Y-68285714D01*
X111611904Y-68333333D01*
X111421428Y-68380952D01*
X111183333Y-68380952D01*
X110992857Y-68333333D01*
X110897619Y-68285714D01*
X110850000Y-68238095D01*
X110802380Y-68142857D01*
X111802380Y-66619047D02*
X111135714Y-66619047D01*
X111230952Y-66619047D02*
X111183333Y-66571428D01*
X111135714Y-66476190D01*
X111135714Y-66333333D01*
X111183333Y-66238095D01*
X111278571Y-66190476D01*
X111802380Y-66190476D01*
X111278571Y-66190476D02*
X111183333Y-66142857D01*
X111135714Y-66047619D01*
X111135714Y-65904761D01*
X111183333Y-65809523D01*
X111278571Y-65761904D01*
X111802380Y-65761904D01*
X111802380Y-65285714D02*
X111135714Y-65285714D01*
X111230952Y-65285714D02*
X111183333Y-65238095D01*
X111135714Y-65142857D01*
X111135714Y-65000000D01*
X111183333Y-64904761D01*
X111278571Y-64857142D01*
X111802380Y-64857142D01*
X111278571Y-64857142D02*
X111183333Y-64809523D01*
X111135714Y-64714285D01*
X111135714Y-64571428D01*
X111183333Y-64476190D01*
X111278571Y-64428571D01*
X111802380Y-64428571D01*
X115000000Y-56500000D02*
X111913580Y-56500000D01*
X115000000Y-81500000D02*
X111913580Y-81500000D01*
X112500000Y-56500000D02*
X112500000Y-81500000D01*
X112500000Y-56500000D02*
X112500000Y-81500000D01*
X112500000Y-56500000D02*
X111913579Y-57626504D01*
X112500000Y-56500000D02*
X113086421Y-57626504D01*
X112500000Y-81500000D02*
X113086421Y-80373496D01*
X112500000Y-81500000D02*
X111913579Y-80373496D01*
X106302380Y-80666666D02*
X106302380Y-80047619D01*
X106683333Y-80380952D01*
X106683333Y-80238095D01*
X106730952Y-80142857D01*
X106778571Y-80095238D01*
X106873809Y-80047619D01*
X107111904Y-80047619D01*
X107207142Y-80095238D01*
X107254761Y-80142857D01*
X107302380Y-80238095D01*
X107302380Y-80523809D01*
X107254761Y-80619047D01*
X107207142Y-80666666D01*
X107302380Y-79571428D02*
X107302380Y-79380952D01*
X107254761Y-79285714D01*
X107207142Y-79238095D01*
X107064285Y-79142857D01*
X106873809Y-79095238D01*
X106492857Y-79095238D01*
X106397619Y-79142857D01*
X106350000Y-79190476D01*
X106302380Y-79285714D01*
X106302380Y-79476190D01*
X106350000Y-79571428D01*
X106397619Y-79619047D01*
X106492857Y-79666666D01*
X106730952Y-79666666D01*
X106826190Y-79619047D01*
X106873809Y-79571428D01*
X106921428Y-79476190D01*
X106921428Y-79285714D01*
X106873809Y-79190476D01*
X106826190Y-79142857D01*
X106730952Y-79095238D01*
X107207142Y-78666666D02*
X107254761Y-78619047D01*
X107302380Y-78666666D01*
X107254761Y-78714285D01*
X107207142Y-78666666D01*
X107302380Y-78666666D01*
X106302380Y-78000000D02*
X106302380Y-77904761D01*
X106350000Y-77809523D01*
X106397619Y-77761904D01*
X106492857Y-77714285D01*
X106683333Y-77666666D01*
X106921428Y-77666666D01*
X107111904Y-77714285D01*
X107207142Y-77761904D01*
X107254761Y-77809523D01*
X107302380Y-77904761D01*
X107302380Y-78000000D01*
X107254761Y-78095238D01*
X107207142Y-78142857D01*
X107111904Y-78190476D01*
X106921428Y-78238095D01*
X106683333Y-78238095D01*
X106492857Y-78190476D01*
X106397619Y-78142857D01*
X106350000Y-78095238D01*
X106302380Y-78000000D01*
X106302380Y-77047619D02*
X106302380Y-76952380D01*
X106350000Y-76857142D01*
X106397619Y-76809523D01*
X106492857Y-76761904D01*
X106683333Y-76714285D01*
X106921428Y-76714285D01*
X107111904Y-76761904D01*
X107207142Y-76809523D01*
X107254761Y-76857142D01*
X107302380Y-76952380D01*
X107302380Y-77047619D01*
X107254761Y-77142857D01*
X107207142Y-77190476D01*
X107111904Y-77238095D01*
X106921428Y-77285714D01*
X106683333Y-77285714D01*
X106492857Y-77238095D01*
X106397619Y-77190476D01*
X106350000Y-77142857D01*
X106302380Y-77047619D01*
X106302380Y-76095238D02*
X106302380Y-76000000D01*
X106350000Y-75904761D01*
X106397619Y-75857142D01*
X106492857Y-75809523D01*
X106683333Y-75761904D01*
X106921428Y-75761904D01*
X107111904Y-75809523D01*
X107207142Y-75857142D01*
X107254761Y-75904761D01*
X107302380Y-76000000D01*
X107302380Y-76095238D01*
X107254761Y-76190476D01*
X107207142Y-76238095D01*
X107111904Y-76285714D01*
X106921428Y-76333333D01*
X106683333Y-76333333D01*
X106492857Y-76285714D01*
X106397619Y-76238095D01*
X106350000Y-76190476D01*
X106302380Y-76095238D01*
X106302380Y-75142857D02*
X106302380Y-75047619D01*
X106350000Y-74952380D01*
X106397619Y-74904761D01*
X106492857Y-74857142D01*
X106683333Y-74809523D01*
X106921428Y-74809523D01*
X107111904Y-74857142D01*
X107207142Y-74904761D01*
X107254761Y-74952380D01*
X107302380Y-75047619D01*
X107302380Y-75142857D01*
X107254761Y-75238095D01*
X107207142Y-75285714D01*
X107111904Y-75333333D01*
X106921428Y-75380952D01*
X106683333Y-75380952D01*
X106492857Y-75333333D01*
X106397619Y-75285714D01*
X106350000Y-75238095D01*
X106302380Y-75142857D01*
X107302380Y-73619047D02*
X106635714Y-73619047D01*
X106730952Y-73619047D02*
X106683333Y-73571428D01*
X106635714Y-73476190D01*
X106635714Y-73333333D01*
X106683333Y-73238095D01*
X106778571Y-73190476D01*
X107302380Y-73190476D01*
X106778571Y-73190476D02*
X106683333Y-73142857D01*
X106635714Y-73047619D01*
X106635714Y-72904761D01*
X106683333Y-72809523D01*
X106778571Y-72761904D01*
X107302380Y-72761904D01*
X107302380Y-72285714D02*
X106635714Y-72285714D01*
X106730952Y-72285714D02*
X106683333Y-72238095D01*
X106635714Y-72142857D01*
X106635714Y-72000000D01*
X106683333Y-71904761D01*
X106778571Y-71857142D01*
X107302380Y-71857142D01*
X106778571Y-71857142D02*
X106683333Y-71809523D01*
X106635714Y-71714285D01*
X106635714Y-71571428D01*
X106683333Y-71476190D01*
X106778571Y-71428571D01*
X107302380Y-71428571D01*
X115000000Y-56500000D02*
X107413580Y-56500000D01*
X115000000Y-95500000D02*
X107413580Y-95500000D01*
X108000000Y-56500000D02*
X108000000Y-95500000D01*
X108000000Y-56500000D02*
X108000000Y-95500000D01*
X108000000Y-56500000D02*
X107413579Y-57626504D01*
X108000000Y-56500000D02*
X108586421Y-57626504D01*
X108000000Y-95500000D02*
X108586421Y-94373496D01*
X108000000Y-95500000D02*
X107413579Y-94373496D01*
X123380952Y-51897619D02*
X123428571Y-51850000D01*
X123523809Y-51802380D01*
X123761904Y-51802380D01*
X123857142Y-51850000D01*
X123904761Y-51897619D01*
X123952380Y-51992857D01*
X123952380Y-52088095D01*
X123904761Y-52230952D01*
X123333333Y-52802380D01*
X123952380Y-52802380D01*
X124857142Y-51802380D02*
X124380952Y-51802380D01*
X124333333Y-52278571D01*
X124380952Y-52230952D01*
X124476190Y-52183333D01*
X124714285Y-52183333D01*
X124809523Y-52230952D01*
X124857142Y-52278571D01*
X124904761Y-52373809D01*
X124904761Y-52611904D01*
X124857142Y-52707142D01*
X124809523Y-52754761D01*
X124714285Y-52802380D01*
X124476190Y-52802380D01*
X124380952Y-52754761D01*
X124333333Y-52707142D01*
X125333333Y-52707142D02*
X125380952Y-52754761D01*
X125333333Y-52802380D01*
X125285714Y-52754761D01*
X125333333Y-52707142D01*
X125333333Y-52802380D01*
X126000000Y-51802380D02*
X126095238Y-51802380D01*
X126190476Y-51850000D01*
X126238095Y-51897619D01*
X126285714Y-51992857D01*
X126333333Y-52183333D01*
X126333333Y-52421428D01*
X126285714Y-52611904D01*
X126238095Y-52707142D01*
X126190476Y-52754761D01*
X126095238Y-52802380D01*
X126000000Y-52802380D01*
X125904761Y-52754761D01*
X125857142Y-52707142D01*
X125809523Y-52611904D01*
X125761904Y-52421428D01*
X125761904Y-52183333D01*
X125809523Y-51992857D01*
X125857142Y-51897619D01*
X125904761Y-51850000D01*
X126000000Y-51802380D01*
X126952380Y-51802380D02*
X127047619Y-51802380D01*
X127142857Y-51850000D01*
X127190476Y-51897619D01*
X127238095Y-51992857D01*
X127285714Y-52183333D01*
X127285714Y-52421428D01*
X127238095Y-52611904D01*
X127190476Y-52707142D01*
X127142857Y-52754761D01*
X127047619Y-52802380D01*
X126952380Y-52802380D01*
X126857142Y-52754761D01*
X126809523Y-52707142D01*
X126761904Y-52611904D01*
X126714285Y-52421428D01*
X126714285Y-52183333D01*
X126761904Y-51992857D01*
X126809523Y-51897619D01*
X126857142Y-51850000D01*
X126952380Y-51802380D01*
X127904761Y-51802380D02*
X128000000Y-51802380D01*
X128095238Y-51850000D01*
X128142857Y-51897619D01*
X128190476Y-51992857D01*
X128238095Y-52183333D01*
X128238095Y-52421428D01*
X128190476Y-52611904D01*
X128142857Y-52707142D01*
X128095238Y-52754761D01*
X128000000Y-52802380D01*
X127904761Y-52802380D01*
X127809523Y-52754761D01*
X127761904Y-52707142D01*
X127714285Y-52611904D01*
X127666666Y-52421428D01*
X127666666Y-52183333D01*
X127714285Y-51992857D01*
X127761904Y-51897619D01*
X127809523Y-51850000D01*
X127904761Y-51802380D01*
X128857142Y-51802380D02*
X128952380Y-51802380D01*
X129047619Y-51850000D01*
X129095238Y-51897619D01*
X129142857Y-51992857D01*
X129190476Y-52183333D01*
X129190476Y-52421428D01*
X129142857Y-52611904D01*
X129095238Y-52707142D01*
X129047619Y-52754761D01*
X128952380Y-52802380D01*
X128857142Y-52802380D01*
X128761904Y-52754761D01*
X128714285Y-52707142D01*
X128666666Y-52611904D01*
X128619047Y-52421428D01*
X128619047Y-52183333D01*
X128666666Y-51992857D01*
X128714285Y-51897619D01*
X128761904Y-51850000D01*
X128857142Y-51802380D01*
X130380952Y-52802380D02*
X130380952Y-52135714D01*
X130380952Y-52230952D02*
X130428571Y-52183333D01*
X130523809Y-52135714D01*
X130666666Y-52135714D01*
X130761904Y-52183333D01*
X130809523Y-52278571D01*
X130809523Y-52802380D01*
X130809523Y-52278571D02*
X130857142Y-52183333D01*
X130952380Y-52135714D01*
X131095238Y-52135714D01*
X131190476Y-52183333D01*
X131238095Y-52278571D01*
X131238095Y-52802380D01*
X131714285Y-52802380D02*
X131714285Y-52135714D01*
X131714285Y-52230952D02*
X131761904Y-52183333D01*
X131857142Y-52135714D01*
X132000000Y-52135714D01*
X132095238Y-52183333D01*
X132142857Y-52278571D01*
X132142857Y-52802380D01*
X132142857Y-52278571D02*
X132190476Y-52183333D01*
X132285714Y-52135714D01*
X132428571Y-52135714D01*
X132523809Y-52183333D01*
X132571428Y-52278571D01*
X132571428Y-52802380D01*
X115500000Y-56000000D02*
X115500000Y-52913580D01*
X140500000Y-56000000D02*
X140500000Y-52913580D01*
X115500000Y-53500000D02*
X140500000Y-53500000D01*
X115500000Y-53500000D02*
X140500000Y-53500000D01*
X115500000Y-53500000D02*
X116626504Y-54086421D01*
X115500000Y-53500000D02*
X116626504Y-52913579D01*
X140500000Y-53500000D02*
X139373496Y-52913579D01*
X140500000Y-53500000D02*
X139373496Y-54086421D01*
M02*
