M48
; DRILL file {KiCad (6.0.7)} date Sat Feb 25 07:44:44 2023
; FORMAT={-:-/ absolute / inch / decimal}
; #@! TF.CreationDate,2023-02-25T07:44:44+08:00
; #@! TF.GenerationSoftware,Kicad,Pcbnew,(6.0.7)
; #@! TF.FileFunction,Plated,1,2,PTH
FMAT,2
INCH
; #@! TA.AperFunction,Plated,PTH,ViaDrill
T1C0.0118
; #@! TA.AperFunction,Plated,PTH,ComponentDrill
T2C0.0394
%
G90
G05
T1
X4.4013Y-2.4078
X4.4013Y-2.5078
X4.4013Y-2.6078
X4.4013Y-2.7078
X4.4013Y-2.8078
X4.4013Y-2.9078
X4.4013Y-3.0078
X4.4013Y-3.1078
X4.4013Y-3.2078
X4.4013Y-3.3078
X4.4013Y-3.4708
X4.4013Y-3.5708
X4.4013Y-3.6708
X4.4013Y-3.7708
X4.4013Y-3.8708
X4.4013Y-3.9708
X4.4013Y-4.0708
X4.4013Y-4.1708
X4.4013Y-4.2708
X4.4013Y-4.3708
X4.4013Y-4.5338
X4.4013Y-4.6338
X4.4013Y-4.7338
X4.4013Y-4.8338
X4.4013Y-4.9338
X4.4013Y-5.0338
X4.4013Y-5.1338
X4.4013Y-5.2338
X4.4013Y-5.3338
X4.4013Y-5.4338
X5.0505Y-2.4078
X5.0505Y-2.5078
X5.0505Y-2.6078
X5.0505Y-2.7078
X5.0505Y-2.8078
X5.0505Y-2.9078
X5.0505Y-3.0078
X5.0505Y-3.1078
X5.0505Y-3.2078
X5.0505Y-3.3078
X5.0505Y-3.4708
X5.0505Y-3.5708
X5.0505Y-3.6708
X5.0505Y-3.7708
X5.0505Y-3.8708
X5.0505Y-3.9708
X5.0505Y-4.0708
X5.0505Y-4.1708
X5.0505Y-4.2708
X5.0505Y-4.3708
X5.0505Y-4.5338
X5.0505Y-4.6338
X5.0505Y-4.7338
X5.0505Y-4.8338
X5.0505Y-4.9338
X5.0505Y-5.0338
X5.0505Y-5.1338
X5.0505Y-5.2338
X5.0505Y-5.3338
X5.0505Y-5.4338
X5.6997Y-2.4078
X5.6997Y-2.5078
X5.6997Y-2.6078
X5.6997Y-2.7078
X5.6997Y-2.8078
X5.6997Y-2.9078
X5.6997Y-3.0078
X5.6997Y-3.1078
X5.6997Y-3.2078
X5.6997Y-3.3078
X5.6997Y-3.4708
X5.6997Y-3.5708
X5.6997Y-3.6708
X5.6997Y-3.7708
X5.6997Y-3.8708
X5.6997Y-3.9708
X5.6997Y-4.0708
X5.6997Y-4.1708
X5.6997Y-4.2708
X5.6997Y-4.3708
X5.6997Y-4.5338
X5.6997Y-4.6338
X5.6997Y-4.7338
X5.6997Y-4.8338
X5.6997Y-4.9338
X5.6997Y-5.0338
X5.6997Y-5.1338
X5.6997Y-5.2338
X5.6997Y-5.3338
X5.6997Y-5.4338
X6.3489Y-2.4078
X6.3489Y-2.5078
X6.3489Y-2.6078
X6.3489Y-2.7078
X6.3489Y-2.8078
X6.3489Y-2.9078
X6.3489Y-3.0078
X6.3489Y-3.1078
X6.3489Y-3.2078
X6.3489Y-3.3078
X6.3489Y-3.4708
X6.3489Y-3.5708
X6.3489Y-3.6708
X6.3489Y-3.7708
X6.3489Y-3.8708
X6.3489Y-3.9708
X6.3489Y-4.0708
X6.3489Y-4.1708
X6.3489Y-4.2708
X6.3489Y-4.3708
X6.3489Y-4.5338
X6.3489Y-4.6338
X6.3489Y-4.7338
X6.3489Y-4.8338
X6.3489Y-4.9338
X6.3489Y-5.0338
X6.3489Y-5.1338
X6.3489Y-5.2338
X6.3489Y-5.3338
X6.3489Y-5.4338
X6.9981Y-2.4078
X6.9981Y-2.5078
X6.9981Y-2.6078
X6.9981Y-2.7078
X6.9981Y-2.8078
X6.9981Y-2.9078
X6.9981Y-3.0078
X6.9981Y-3.1078
X6.9981Y-3.2078
X6.9981Y-3.3078
X6.9981Y-3.4708
X6.9981Y-3.5708
X6.9981Y-3.6708
X6.9981Y-3.7708
X6.9981Y-3.8708
X6.9981Y-3.9708
X6.9981Y-4.0708
X6.9981Y-4.1708
X6.9981Y-4.2708
X6.9981Y-4.3708
X6.9981Y-4.5338
X6.9981Y-4.6338
X6.9981Y-4.7338
X6.9981Y-4.8338
X6.9981Y-4.9338
X6.9981Y-5.0338
X6.9981Y-5.1338
X6.9981Y-5.2338
X6.9981Y-5.3338
X6.9981Y-5.4338
T2
X4.533Y-2.5084
X4.533Y-2.6084
X4.533Y-2.7084
X4.533Y-2.8084
X4.533Y-2.9084
X4.533Y-3.0084
X4.533Y-3.1084
X4.533Y-3.2084
X4.533Y-3.5714
X4.533Y-3.6714
X4.533Y-3.7714
X4.533Y-3.8714
X4.533Y-3.9714
X4.533Y-4.0714
X4.533Y-4.1714
X4.533Y-4.2714
X4.533Y-4.6344
X4.533Y-4.7344
X4.533Y-4.8344
X4.533Y-4.9344
X4.533Y-5.0344
X4.533Y-5.1344
X4.533Y-5.2344
X4.533Y-5.3344
X4.633Y-2.5084
X4.633Y-2.6084
X4.633Y-2.7084
X4.633Y-2.8084
X4.633Y-2.9084
X4.633Y-3.0084
X4.633Y-3.1084
X4.633Y-3.2084
X4.633Y-3.5714
X4.633Y-3.6714
X4.633Y-3.7714
X4.633Y-3.8714
X4.633Y-3.9714
X4.633Y-4.0714
X4.633Y-4.1714
X4.633Y-4.2714
X4.633Y-4.6344
X4.633Y-4.7344
X4.633Y-4.8344
X4.633Y-4.9344
X4.633Y-5.0344
X4.633Y-5.1344
X4.633Y-5.2344
X4.633Y-5.3344
X5.1822Y-2.5084
X5.1822Y-2.6084
X5.1822Y-2.7084
X5.1822Y-2.8084
X5.1822Y-2.9084
X5.1822Y-3.0084
X5.1822Y-3.1084
X5.1822Y-3.2084
X5.1822Y-3.5714
X5.1822Y-3.6714
X5.1822Y-3.7714
X5.1822Y-3.8714
X5.1822Y-3.9714
X5.1822Y-4.0714
X5.1822Y-4.1714
X5.1822Y-4.2714
X5.1822Y-4.6344
X5.1822Y-4.7344
X5.1822Y-4.8344
X5.1822Y-4.9344
X5.1822Y-5.0344
X5.1822Y-5.1344
X5.1822Y-5.2344
X5.1822Y-5.3344
X5.2822Y-2.5084
X5.2822Y-2.6084
X5.2822Y-2.7084
X5.2822Y-2.8084
X5.2822Y-2.9084
X5.2822Y-3.0084
X5.2822Y-3.1084
X5.2822Y-3.2084
X5.2822Y-3.5714
X5.2822Y-3.6714
X5.2822Y-3.7714
X5.2822Y-3.8714
X5.2822Y-3.9714
X5.2822Y-4.0714
X5.2822Y-4.1714
X5.2822Y-4.2714
X5.2822Y-4.6344
X5.2822Y-4.7344
X5.2822Y-4.8344
X5.2822Y-4.9344
X5.2822Y-5.0344
X5.2822Y-5.1344
X5.2822Y-5.2344
X5.2822Y-5.3344
X5.8314Y-2.5084
X5.8314Y-2.6084
X5.8314Y-2.7084
X5.8314Y-2.8084
X5.8314Y-2.9084
X5.8314Y-3.0084
X5.8314Y-3.1084
X5.8314Y-3.2084
X5.8314Y-3.5714
X5.8314Y-3.6714
X5.8314Y-3.7714
X5.8314Y-3.8714
X5.8314Y-3.9714
X5.8314Y-4.0714
X5.8314Y-4.1714
X5.8314Y-4.2714
X5.8314Y-4.6344
X5.8314Y-4.7344
X5.8314Y-4.8344
X5.8314Y-4.9344
X5.8314Y-5.0344
X5.8314Y-5.1344
X5.8314Y-5.2344
X5.8314Y-5.3344
X5.9314Y-2.5084
X5.9314Y-2.6084
X5.9314Y-2.7084
X5.9314Y-2.8084
X5.9314Y-2.9084
X5.9314Y-3.0084
X5.9314Y-3.1084
X5.9314Y-3.2084
X5.9314Y-3.5714
X5.9314Y-3.6714
X5.9314Y-3.7714
X5.9314Y-3.8714
X5.9314Y-3.9714
X5.9314Y-4.0714
X5.9314Y-4.1714
X5.9314Y-4.2714
X5.9314Y-4.6344
X5.9314Y-4.7344
X5.9314Y-4.8344
X5.9314Y-4.9344
X5.9314Y-5.0344
X5.9314Y-5.1344
X5.9314Y-5.2344
X5.9314Y-5.3344
X6.4806Y-2.5084
X6.4806Y-2.6084
X6.4806Y-2.7084
X6.4806Y-2.8084
X6.4806Y-2.9084
X6.4806Y-3.0084
X6.4806Y-3.1084
X6.4806Y-3.2084
X6.4806Y-3.5714
X6.4806Y-3.6714
X6.4806Y-3.7714
X6.4806Y-3.8714
X6.4806Y-3.9714
X6.4806Y-4.0714
X6.4806Y-4.1714
X6.4806Y-4.2714
X6.4806Y-4.6344
X6.4806Y-4.7344
X6.4806Y-4.8344
X6.4806Y-4.9344
X6.4806Y-5.0344
X6.4806Y-5.1344
X6.4806Y-5.2344
X6.4806Y-5.3344
X6.5806Y-2.5084
X6.5806Y-2.6084
X6.5806Y-2.7084
X6.5806Y-2.8084
X6.5806Y-2.9084
X6.5806Y-3.0084
X6.5806Y-3.1084
X6.5806Y-3.2084
X6.5806Y-3.5714
X6.5806Y-3.6714
X6.5806Y-3.7714
X6.5806Y-3.8714
X6.5806Y-3.9714
X6.5806Y-4.0714
X6.5806Y-4.1714
X6.5806Y-4.2714
X6.5806Y-4.6344
X6.5806Y-4.7344
X6.5806Y-4.8344
X6.5806Y-4.9344
X6.5806Y-5.0344
X6.5806Y-5.1344
X6.5806Y-5.2344
X6.5806Y-5.3344
X7.1298Y-2.5084
X7.1298Y-2.6084
X7.1298Y-2.7084
X7.1298Y-2.8084
X7.1298Y-2.9084
X7.1298Y-3.0084
X7.1298Y-3.1084
X7.1298Y-3.2084
X7.1298Y-3.5714
X7.1298Y-3.6714
X7.1298Y-3.7714
X7.1298Y-3.8714
X7.1298Y-3.9714
X7.1298Y-4.0714
X7.1298Y-4.1714
X7.1298Y-4.2714
X7.1298Y-4.6344
X7.1298Y-4.7344
X7.1298Y-4.8344
X7.1298Y-4.9344
X7.1298Y-5.0344
X7.1298Y-5.1344
X7.1298Y-5.2344
X7.1298Y-5.3344
X7.2298Y-2.5084
X7.2298Y-2.6084
X7.2298Y-2.7084
X7.2298Y-2.8084
X7.2298Y-2.9084
X7.2298Y-3.0084
X7.2298Y-3.1084
X7.2298Y-3.2084
X7.2298Y-3.5714
X7.2298Y-3.6714
X7.2298Y-3.7714
X7.2298Y-3.8714
X7.2298Y-3.9714
X7.2298Y-4.0714
X7.2298Y-4.1714
X7.2298Y-4.2714
X7.2298Y-4.6344
X7.2298Y-4.7344
X7.2298Y-4.8344
X7.2298Y-4.9344
X7.2298Y-5.0344
X7.2298Y-5.1344
X7.2298Y-5.2344
X7.2298Y-5.3344
T0
M30
