%TF.GenerationSoftware,KiCad,Pcbnew,(6.0.7)*%
%TF.CreationDate,2023-02-25T07:44:42+08:00*%
%TF.ProjectId,BoardCoverter,426f6172-6443-46f7-9665-727465722e6b,rev?*%
%TF.SameCoordinates,Original*%
%TF.FileFunction,Legend,Bot*%
%TF.FilePolarity,Positive*%
%FSLAX46Y46*%
G04 Gerber Fmt 4.6, Leading zero omitted, Abs format (unit mm)*
G04 Created by KiCad (PCBNEW (6.0.7)) date 2023-02-25 07:44:42*
%MOMM*%
%LPD*%
G01*
G04 APERTURE LIST*
%ADD10C,0.150000*%
%ADD11C,0.120000*%
G04 APERTURE END LIST*
D10*
%TO.C,J2*%
X179795833Y-60339880D02*
X179795833Y-61054166D01*
X179843452Y-61197023D01*
X179938690Y-61292261D01*
X180081547Y-61339880D01*
X180176785Y-61339880D01*
X179367261Y-60435119D02*
X179319642Y-60387500D01*
X179224404Y-60339880D01*
X178986309Y-60339880D01*
X178891071Y-60387500D01*
X178843452Y-60435119D01*
X178795833Y-60530357D01*
X178795833Y-60625595D01*
X178843452Y-60768452D01*
X179414880Y-61339880D01*
X178795833Y-61339880D01*
X179795833Y-114339880D02*
X179795833Y-115054166D01*
X179843452Y-115197023D01*
X179938690Y-115292261D01*
X180081547Y-115339880D01*
X180176785Y-115339880D01*
X179367261Y-114435119D02*
X179319642Y-114387500D01*
X179224404Y-114339880D01*
X178986309Y-114339880D01*
X178891071Y-114387500D01*
X178843452Y-114435119D01*
X178795833Y-114530357D01*
X178795833Y-114625595D01*
X178843452Y-114768452D01*
X179414880Y-115339880D01*
X178795833Y-115339880D01*
X146815833Y-87339880D02*
X146815833Y-88054166D01*
X146863452Y-88197023D01*
X146958690Y-88292261D01*
X147101547Y-88339880D01*
X147196785Y-88339880D01*
X146387261Y-87435119D02*
X146339642Y-87387500D01*
X146244404Y-87339880D01*
X146006309Y-87339880D01*
X145911071Y-87387500D01*
X145863452Y-87435119D01*
X145815833Y-87530357D01*
X145815833Y-87625595D01*
X145863452Y-87768452D01*
X146434880Y-88339880D01*
X145815833Y-88339880D01*
X179795833Y-87339880D02*
X179795833Y-88054166D01*
X179843452Y-88197023D01*
X179938690Y-88292261D01*
X180081547Y-88339880D01*
X180176785Y-88339880D01*
X179367261Y-87435119D02*
X179319642Y-87387500D01*
X179224404Y-87339880D01*
X178986309Y-87339880D01*
X178891071Y-87387500D01*
X178843452Y-87435119D01*
X178795833Y-87530357D01*
X178795833Y-87625595D01*
X178843452Y-87768452D01*
X179414880Y-88339880D01*
X178795833Y-88339880D01*
X146815833Y-114339880D02*
X146815833Y-115054166D01*
X146863452Y-115197023D01*
X146958690Y-115292261D01*
X147101547Y-115339880D01*
X147196785Y-115339880D01*
X146387261Y-114435119D02*
X146339642Y-114387500D01*
X146244404Y-114339880D01*
X146006309Y-114339880D01*
X145911071Y-114387500D01*
X145863452Y-114435119D01*
X145815833Y-114530357D01*
X145815833Y-114625595D01*
X145863452Y-114768452D01*
X146434880Y-115339880D01*
X145815833Y-115339880D01*
X130325833Y-60339880D02*
X130325833Y-61054166D01*
X130373452Y-61197023D01*
X130468690Y-61292261D01*
X130611547Y-61339880D01*
X130706785Y-61339880D01*
X129897261Y-60435119D02*
X129849642Y-60387500D01*
X129754404Y-60339880D01*
X129516309Y-60339880D01*
X129421071Y-60387500D01*
X129373452Y-60435119D01*
X129325833Y-60530357D01*
X129325833Y-60625595D01*
X129373452Y-60768452D01*
X129944880Y-61339880D01*
X129325833Y-61339880D01*
X113835833Y-114339880D02*
X113835833Y-115054166D01*
X113883452Y-115197023D01*
X113978690Y-115292261D01*
X114121547Y-115339880D01*
X114216785Y-115339880D01*
X113407261Y-114435119D02*
X113359642Y-114387500D01*
X113264404Y-114339880D01*
X113026309Y-114339880D01*
X112931071Y-114387500D01*
X112883452Y-114435119D01*
X112835833Y-114530357D01*
X112835833Y-114625595D01*
X112883452Y-114768452D01*
X113454880Y-115339880D01*
X112835833Y-115339880D01*
X130325833Y-114339880D02*
X130325833Y-115054166D01*
X130373452Y-115197023D01*
X130468690Y-115292261D01*
X130611547Y-115339880D01*
X130706785Y-115339880D01*
X129897261Y-114435119D02*
X129849642Y-114387500D01*
X129754404Y-114339880D01*
X129516309Y-114339880D01*
X129421071Y-114387500D01*
X129373452Y-114435119D01*
X129325833Y-114530357D01*
X129325833Y-114625595D01*
X129373452Y-114768452D01*
X129944880Y-115339880D01*
X129325833Y-115339880D01*
X146815833Y-60339880D02*
X146815833Y-61054166D01*
X146863452Y-61197023D01*
X146958690Y-61292261D01*
X147101547Y-61339880D01*
X147196785Y-61339880D01*
X146387261Y-60435119D02*
X146339642Y-60387500D01*
X146244404Y-60339880D01*
X146006309Y-60339880D01*
X145911071Y-60387500D01*
X145863452Y-60435119D01*
X145815833Y-60530357D01*
X145815833Y-60625595D01*
X145863452Y-60768452D01*
X146434880Y-61339880D01*
X145815833Y-61339880D01*
X113835833Y-87339880D02*
X113835833Y-88054166D01*
X113883452Y-88197023D01*
X113978690Y-88292261D01*
X114121547Y-88339880D01*
X114216785Y-88339880D01*
X113407261Y-87435119D02*
X113359642Y-87387500D01*
X113264404Y-87339880D01*
X113026309Y-87339880D01*
X112931071Y-87387500D01*
X112883452Y-87435119D01*
X112835833Y-87530357D01*
X112835833Y-87625595D01*
X112883452Y-87768452D01*
X113454880Y-88339880D01*
X112835833Y-88339880D01*
X163305833Y-87339880D02*
X163305833Y-88054166D01*
X163353452Y-88197023D01*
X163448690Y-88292261D01*
X163591547Y-88339880D01*
X163686785Y-88339880D01*
X162877261Y-87435119D02*
X162829642Y-87387500D01*
X162734404Y-87339880D01*
X162496309Y-87339880D01*
X162401071Y-87387500D01*
X162353452Y-87435119D01*
X162305833Y-87530357D01*
X162305833Y-87625595D01*
X162353452Y-87768452D01*
X162924880Y-88339880D01*
X162305833Y-88339880D01*
X130325833Y-87339880D02*
X130325833Y-88054166D01*
X130373452Y-88197023D01*
X130468690Y-88292261D01*
X130611547Y-88339880D01*
X130706785Y-88339880D01*
X129897261Y-87435119D02*
X129849642Y-87387500D01*
X129754404Y-87339880D01*
X129516309Y-87339880D01*
X129421071Y-87387500D01*
X129373452Y-87435119D01*
X129325833Y-87530357D01*
X129325833Y-87625595D01*
X129373452Y-87768452D01*
X129944880Y-88339880D01*
X129325833Y-88339880D01*
X163305833Y-114339880D02*
X163305833Y-115054166D01*
X163353452Y-115197023D01*
X163448690Y-115292261D01*
X163591547Y-115339880D01*
X163686785Y-115339880D01*
X162877261Y-114435119D02*
X162829642Y-114387500D01*
X162734404Y-114339880D01*
X162496309Y-114339880D01*
X162401071Y-114387500D01*
X162353452Y-114435119D01*
X162305833Y-114530357D01*
X162305833Y-114625595D01*
X162353452Y-114768452D01*
X162924880Y-115339880D01*
X162305833Y-115339880D01*
X113835833Y-60339880D02*
X113835833Y-61054166D01*
X113883452Y-61197023D01*
X113978690Y-61292261D01*
X114121547Y-61339880D01*
X114216785Y-61339880D01*
X113407261Y-60435119D02*
X113359642Y-60387500D01*
X113264404Y-60339880D01*
X113026309Y-60339880D01*
X112931071Y-60387500D01*
X112883452Y-60435119D01*
X112835833Y-60530357D01*
X112835833Y-60625595D01*
X112883452Y-60768452D01*
X113454880Y-61339880D01*
X112835833Y-61339880D01*
X163305833Y-60339880D02*
X163305833Y-61054166D01*
X163353452Y-61197023D01*
X163448690Y-61292261D01*
X163591547Y-61339880D01*
X163686785Y-61339880D01*
X162877261Y-60435119D02*
X162829642Y-60387500D01*
X162734404Y-60339880D01*
X162496309Y-60339880D01*
X162401071Y-60387500D01*
X162353452Y-60435119D01*
X162305833Y-60530357D01*
X162305833Y-60625595D01*
X162353452Y-60768452D01*
X162924880Y-61339880D01*
X162305833Y-61339880D01*
D11*
X176972500Y-77157500D02*
X176972500Y-78177500D01*
X171772500Y-82237500D02*
X171772500Y-83257500D01*
X171772500Y-59827500D02*
X171772500Y-60397500D01*
X176972500Y-74617500D02*
X176972500Y-75637500D01*
X176972500Y-82237500D02*
X176972500Y-83257500D01*
X176972500Y-64457500D02*
X176972500Y-65477500D01*
X171772500Y-72077500D02*
X171772500Y-73097500D01*
X171772500Y-69537500D02*
X171772500Y-70557500D01*
X176972500Y-59827500D02*
X176972500Y-60397500D01*
X171772500Y-64457500D02*
X171772500Y-65477500D01*
X171772500Y-66997500D02*
X171772500Y-68017500D01*
X171772500Y-61917500D02*
X171772500Y-62937500D01*
X171772500Y-84777500D02*
X171772500Y-85347500D01*
X176972500Y-66997500D02*
X176972500Y-68017500D01*
X176972500Y-79697500D02*
X176972500Y-80717500D01*
X176972500Y-59827500D02*
X171772500Y-59827500D01*
X176972500Y-72077500D02*
X176972500Y-73097500D01*
X176972500Y-85347500D02*
X171772500Y-85347500D01*
X176972500Y-61917500D02*
X176972500Y-62937500D01*
X171772500Y-74617500D02*
X171772500Y-75637500D01*
X176972500Y-69537500D02*
X176972500Y-70557500D01*
X171772500Y-77157500D02*
X171772500Y-78177500D01*
X171772500Y-60397500D02*
X170412500Y-60397500D01*
X171772500Y-79697500D02*
X171772500Y-80717500D01*
X176972500Y-84777500D02*
X176972500Y-85347500D01*
X176972500Y-126077500D02*
X176972500Y-127097500D01*
X171772500Y-115917500D02*
X171772500Y-116937500D01*
X176972500Y-123537500D02*
X176972500Y-124557500D01*
X171772500Y-113827500D02*
X171772500Y-114397500D01*
X171772500Y-131157500D02*
X171772500Y-132177500D01*
X171772500Y-138777500D02*
X171772500Y-139347500D01*
X176972500Y-133697500D02*
X176972500Y-134717500D01*
X176972500Y-138777500D02*
X176972500Y-139347500D01*
X171772500Y-120997500D02*
X171772500Y-122017500D01*
X176972500Y-131157500D02*
X176972500Y-132177500D01*
X171772500Y-123537500D02*
X171772500Y-124557500D01*
X176972500Y-113827500D02*
X176972500Y-114397500D01*
X176972500Y-136237500D02*
X176972500Y-137257500D01*
X171772500Y-118457500D02*
X171772500Y-119477500D01*
X171772500Y-133697500D02*
X171772500Y-134717500D01*
X176972500Y-128617500D02*
X176972500Y-129637500D01*
X171772500Y-114397500D02*
X170412500Y-114397500D01*
X176972500Y-120997500D02*
X176972500Y-122017500D01*
X176972500Y-113827500D02*
X171772500Y-113827500D01*
X176972500Y-118457500D02*
X176972500Y-119477500D01*
X171772500Y-126077500D02*
X171772500Y-127097500D01*
X171772500Y-136237500D02*
X171772500Y-137257500D01*
X176972500Y-115917500D02*
X176972500Y-116937500D01*
X171772500Y-128617500D02*
X171772500Y-129637500D01*
X176972500Y-139347500D02*
X171772500Y-139347500D01*
X143992500Y-109237500D02*
X143992500Y-110257500D01*
X143992500Y-93997500D02*
X143992500Y-95017500D01*
X143992500Y-91457500D02*
X143992500Y-92477500D01*
X138792500Y-93997500D02*
X138792500Y-95017500D01*
X138792500Y-106697500D02*
X138792500Y-107717500D01*
X138792500Y-109237500D02*
X138792500Y-110257500D01*
X143992500Y-86827500D02*
X138792500Y-86827500D01*
X143992500Y-111777500D02*
X143992500Y-112347500D01*
X143992500Y-101617500D02*
X143992500Y-102637500D01*
X138792500Y-86827500D02*
X138792500Y-87397500D01*
X138792500Y-111777500D02*
X138792500Y-112347500D01*
X143992500Y-106697500D02*
X143992500Y-107717500D01*
X143992500Y-86827500D02*
X143992500Y-87397500D01*
X138792500Y-99077500D02*
X138792500Y-100097500D01*
X138792500Y-104157500D02*
X138792500Y-105177500D01*
X138792500Y-101617500D02*
X138792500Y-102637500D01*
X143992500Y-112347500D02*
X138792500Y-112347500D01*
X138792500Y-91457500D02*
X138792500Y-92477500D01*
X138792500Y-96537500D02*
X138792500Y-97557500D01*
X143992500Y-88917500D02*
X143992500Y-89937500D01*
X138792500Y-87397500D02*
X137432500Y-87397500D01*
X143992500Y-104157500D02*
X143992500Y-105177500D01*
X143992500Y-96537500D02*
X143992500Y-97557500D01*
X143992500Y-99077500D02*
X143992500Y-100097500D01*
X138792500Y-88917500D02*
X138792500Y-89937500D01*
X171772500Y-111777500D02*
X171772500Y-112347500D01*
X176972500Y-112347500D02*
X171772500Y-112347500D01*
X171772500Y-96537500D02*
X171772500Y-97557500D01*
X176972500Y-101617500D02*
X176972500Y-102637500D01*
X176972500Y-93997500D02*
X176972500Y-95017500D01*
X171772500Y-88917500D02*
X171772500Y-89937500D01*
X176972500Y-106697500D02*
X176972500Y-107717500D01*
X171772500Y-87397500D02*
X170412500Y-87397500D01*
X171772500Y-101617500D02*
X171772500Y-102637500D01*
X176972500Y-104157500D02*
X176972500Y-105177500D01*
X176972500Y-109237500D02*
X176972500Y-110257500D01*
X176972500Y-86827500D02*
X176972500Y-87397500D01*
X171772500Y-109237500D02*
X171772500Y-110257500D01*
X176972500Y-96537500D02*
X176972500Y-97557500D01*
X176972500Y-99077500D02*
X176972500Y-100097500D01*
X176972500Y-88917500D02*
X176972500Y-89937500D01*
X171772500Y-91457500D02*
X171772500Y-92477500D01*
X171772500Y-93997500D02*
X171772500Y-95017500D01*
X171772500Y-99077500D02*
X171772500Y-100097500D01*
X176972500Y-91457500D02*
X176972500Y-92477500D01*
X171772500Y-86827500D02*
X171772500Y-87397500D01*
X176972500Y-86827500D02*
X171772500Y-86827500D01*
X171772500Y-104157500D02*
X171772500Y-105177500D01*
X171772500Y-106697500D02*
X171772500Y-107717500D01*
X176972500Y-111777500D02*
X176972500Y-112347500D01*
X143992500Y-133697500D02*
X143992500Y-134717500D01*
X143992500Y-128617500D02*
X143992500Y-129637500D01*
X143992500Y-120997500D02*
X143992500Y-122017500D01*
X138792500Y-131157500D02*
X138792500Y-132177500D01*
X138792500Y-114397500D02*
X137432500Y-114397500D01*
X138792500Y-118457500D02*
X138792500Y-119477500D01*
X143992500Y-123537500D02*
X143992500Y-124557500D01*
X138792500Y-128617500D02*
X138792500Y-129637500D01*
X138792500Y-120997500D02*
X138792500Y-122017500D01*
X143992500Y-113827500D02*
X143992500Y-114397500D01*
X138792500Y-123537500D02*
X138792500Y-124557500D01*
X138792500Y-133697500D02*
X138792500Y-134717500D01*
X143992500Y-113827500D02*
X138792500Y-113827500D01*
X143992500Y-138777500D02*
X143992500Y-139347500D01*
X143992500Y-139347500D02*
X138792500Y-139347500D01*
X143992500Y-118457500D02*
X143992500Y-119477500D01*
X143992500Y-126077500D02*
X143992500Y-127097500D01*
X138792500Y-126077500D02*
X138792500Y-127097500D01*
X138792500Y-136237500D02*
X138792500Y-137257500D01*
X143992500Y-136237500D02*
X143992500Y-137257500D01*
X138792500Y-138777500D02*
X138792500Y-139347500D01*
X143992500Y-131157500D02*
X143992500Y-132177500D01*
X138792500Y-113827500D02*
X138792500Y-114397500D01*
X143992500Y-115917500D02*
X143992500Y-116937500D01*
X138792500Y-115917500D02*
X138792500Y-116937500D01*
X122302500Y-79697500D02*
X122302500Y-80717500D01*
X122302500Y-61917500D02*
X122302500Y-62937500D01*
X127502500Y-61917500D02*
X127502500Y-62937500D01*
X122302500Y-66997500D02*
X122302500Y-68017500D01*
X127502500Y-82237500D02*
X127502500Y-83257500D01*
X127502500Y-66997500D02*
X127502500Y-68017500D01*
X122302500Y-64457500D02*
X122302500Y-65477500D01*
X127502500Y-59827500D02*
X122302500Y-59827500D01*
X127502500Y-84777500D02*
X127502500Y-85347500D01*
X122302500Y-60397500D02*
X120942500Y-60397500D01*
X127502500Y-59827500D02*
X127502500Y-60397500D01*
X127502500Y-77157500D02*
X127502500Y-78177500D01*
X127502500Y-85347500D02*
X122302500Y-85347500D01*
X122302500Y-82237500D02*
X122302500Y-83257500D01*
X127502500Y-79697500D02*
X127502500Y-80717500D01*
X127502500Y-72077500D02*
X127502500Y-73097500D01*
X122302500Y-74617500D02*
X122302500Y-75637500D01*
X127502500Y-64457500D02*
X127502500Y-65477500D01*
X122302500Y-84777500D02*
X122302500Y-85347500D01*
X122302500Y-77157500D02*
X122302500Y-78177500D01*
X127502500Y-69537500D02*
X127502500Y-70557500D01*
X122302500Y-72077500D02*
X122302500Y-73097500D01*
X122302500Y-59827500D02*
X122302500Y-60397500D01*
X122302500Y-69537500D02*
X122302500Y-70557500D01*
X127502500Y-74617500D02*
X127502500Y-75637500D01*
X111012500Y-118457500D02*
X111012500Y-119477500D01*
X111012500Y-138777500D02*
X111012500Y-139347500D01*
X105812500Y-115917500D02*
X105812500Y-116937500D01*
X105812500Y-123537500D02*
X105812500Y-124557500D01*
X111012500Y-126077500D02*
X111012500Y-127097500D01*
X111012500Y-113827500D02*
X111012500Y-114397500D01*
X105812500Y-138777500D02*
X105812500Y-139347500D01*
X105812500Y-133697500D02*
X105812500Y-134717500D01*
X105812500Y-131157500D02*
X105812500Y-132177500D01*
X111012500Y-131157500D02*
X111012500Y-132177500D01*
X105812500Y-136237500D02*
X105812500Y-137257500D01*
X111012500Y-136237500D02*
X111012500Y-137257500D01*
X111012500Y-139347500D02*
X105812500Y-139347500D01*
X111012500Y-133697500D02*
X111012500Y-134717500D01*
X105812500Y-113827500D02*
X105812500Y-114397500D01*
X111012500Y-128617500D02*
X111012500Y-129637500D01*
X105812500Y-114397500D02*
X104452500Y-114397500D01*
X105812500Y-120997500D02*
X105812500Y-122017500D01*
X111012500Y-115917500D02*
X111012500Y-116937500D01*
X111012500Y-120997500D02*
X111012500Y-122017500D01*
X111012500Y-123537500D02*
X111012500Y-124557500D01*
X105812500Y-118457500D02*
X105812500Y-119477500D01*
X105812500Y-126077500D02*
X105812500Y-127097500D01*
X111012500Y-113827500D02*
X105812500Y-113827500D01*
X105812500Y-128617500D02*
X105812500Y-129637500D01*
X127502500Y-139347500D02*
X122302500Y-139347500D01*
X122302500Y-114397500D02*
X120942500Y-114397500D01*
X127502500Y-126077500D02*
X127502500Y-127097500D01*
X127502500Y-113827500D02*
X122302500Y-113827500D01*
X122302500Y-133697500D02*
X122302500Y-134717500D01*
X122302500Y-138777500D02*
X122302500Y-139347500D01*
X127502500Y-115917500D02*
X127502500Y-116937500D01*
X127502500Y-118457500D02*
X127502500Y-119477500D01*
X127502500Y-138777500D02*
X127502500Y-139347500D01*
X127502500Y-128617500D02*
X127502500Y-129637500D01*
X127502500Y-123537500D02*
X127502500Y-124557500D01*
X127502500Y-131157500D02*
X127502500Y-132177500D01*
X122302500Y-118457500D02*
X122302500Y-119477500D01*
X122302500Y-115917500D02*
X122302500Y-116937500D01*
X122302500Y-120997500D02*
X122302500Y-122017500D01*
X127502500Y-136237500D02*
X127502500Y-137257500D01*
X122302500Y-113827500D02*
X122302500Y-114397500D01*
X127502500Y-120997500D02*
X127502500Y-122017500D01*
X127502500Y-113827500D02*
X127502500Y-114397500D01*
X122302500Y-126077500D02*
X122302500Y-127097500D01*
X122302500Y-136237500D02*
X122302500Y-137257500D01*
X122302500Y-128617500D02*
X122302500Y-129637500D01*
X127502500Y-133697500D02*
X127502500Y-134717500D01*
X122302500Y-131157500D02*
X122302500Y-132177500D01*
X122302500Y-123537500D02*
X122302500Y-124557500D01*
X143992500Y-69537500D02*
X143992500Y-70557500D01*
X143992500Y-82237500D02*
X143992500Y-83257500D01*
X143992500Y-59827500D02*
X143992500Y-60397500D01*
X138792500Y-69537500D02*
X138792500Y-70557500D01*
X138792500Y-59827500D02*
X138792500Y-60397500D01*
X138792500Y-79697500D02*
X138792500Y-80717500D01*
X143992500Y-66997500D02*
X143992500Y-68017500D01*
X143992500Y-79697500D02*
X143992500Y-80717500D01*
X143992500Y-72077500D02*
X143992500Y-73097500D01*
X143992500Y-59827500D02*
X138792500Y-59827500D01*
X138792500Y-84777500D02*
X138792500Y-85347500D01*
X138792500Y-64457500D02*
X138792500Y-65477500D01*
X143992500Y-85347500D02*
X138792500Y-85347500D01*
X143992500Y-64457500D02*
X143992500Y-65477500D01*
X138792500Y-60397500D02*
X137432500Y-60397500D01*
X143992500Y-77157500D02*
X143992500Y-78177500D01*
X138792500Y-72077500D02*
X138792500Y-73097500D01*
X138792500Y-77157500D02*
X138792500Y-78177500D01*
X138792500Y-74617500D02*
X138792500Y-75637500D01*
X138792500Y-82237500D02*
X138792500Y-83257500D01*
X138792500Y-61917500D02*
X138792500Y-62937500D01*
X143992500Y-74617500D02*
X143992500Y-75637500D01*
X143992500Y-61917500D02*
X143992500Y-62937500D01*
X138792500Y-66997500D02*
X138792500Y-68017500D01*
X143992500Y-84777500D02*
X143992500Y-85347500D01*
X105812500Y-109237500D02*
X105812500Y-110257500D01*
X105812500Y-86827500D02*
X105812500Y-87397500D01*
X111012500Y-112347500D02*
X105812500Y-112347500D01*
X105812500Y-101617500D02*
X105812500Y-102637500D01*
X111012500Y-86827500D02*
X105812500Y-86827500D01*
X111012500Y-99077500D02*
X111012500Y-100097500D01*
X111012500Y-111777500D02*
X111012500Y-112347500D01*
X105812500Y-87397500D02*
X104452500Y-87397500D01*
X111012500Y-86827500D02*
X111012500Y-87397500D01*
X111012500Y-109237500D02*
X111012500Y-110257500D01*
X105812500Y-111777500D02*
X105812500Y-112347500D01*
X105812500Y-99077500D02*
X105812500Y-100097500D01*
X111012500Y-93997500D02*
X111012500Y-95017500D01*
X105812500Y-106697500D02*
X105812500Y-107717500D01*
X105812500Y-93997500D02*
X105812500Y-95017500D01*
X105812500Y-104157500D02*
X105812500Y-105177500D01*
X111012500Y-88917500D02*
X111012500Y-89937500D01*
X111012500Y-91457500D02*
X111012500Y-92477500D01*
X105812500Y-88917500D02*
X105812500Y-89937500D01*
X105812500Y-96537500D02*
X105812500Y-97557500D01*
X111012500Y-106697500D02*
X111012500Y-107717500D01*
X105812500Y-91457500D02*
X105812500Y-92477500D01*
X111012500Y-96537500D02*
X111012500Y-97557500D01*
X111012500Y-101617500D02*
X111012500Y-102637500D01*
X111012500Y-104157500D02*
X111012500Y-105177500D01*
X155282500Y-99077500D02*
X155282500Y-100097500D01*
X160482500Y-86827500D02*
X160482500Y-87397500D01*
X160482500Y-104157500D02*
X160482500Y-105177500D01*
X155282500Y-104157500D02*
X155282500Y-105177500D01*
X155282500Y-101617500D02*
X155282500Y-102637500D01*
X160482500Y-96537500D02*
X160482500Y-97557500D01*
X155282500Y-91457500D02*
X155282500Y-92477500D01*
X155282500Y-88917500D02*
X155282500Y-89937500D01*
X160482500Y-99077500D02*
X160482500Y-100097500D01*
X155282500Y-87397500D02*
X153922500Y-87397500D01*
X160482500Y-86827500D02*
X155282500Y-86827500D01*
X155282500Y-106697500D02*
X155282500Y-107717500D01*
X160482500Y-101617500D02*
X160482500Y-102637500D01*
X160482500Y-109237500D02*
X160482500Y-110257500D01*
X160482500Y-88917500D02*
X160482500Y-89937500D01*
X155282500Y-86827500D02*
X155282500Y-87397500D01*
X155282500Y-111777500D02*
X155282500Y-112347500D01*
X160482500Y-91457500D02*
X160482500Y-92477500D01*
X155282500Y-93997500D02*
X155282500Y-95017500D01*
X160482500Y-111777500D02*
X160482500Y-112347500D01*
X155282500Y-96537500D02*
X155282500Y-97557500D01*
X160482500Y-93997500D02*
X160482500Y-95017500D01*
X155282500Y-109237500D02*
X155282500Y-110257500D01*
X160482500Y-112347500D02*
X155282500Y-112347500D01*
X160482500Y-106697500D02*
X160482500Y-107717500D01*
X122302500Y-109237500D02*
X122302500Y-110257500D01*
X127502500Y-86827500D02*
X127502500Y-87397500D01*
X127502500Y-111777500D02*
X127502500Y-112347500D01*
X127502500Y-104157500D02*
X127502500Y-105177500D01*
X127502500Y-88917500D02*
X127502500Y-89937500D01*
X122302500Y-101617500D02*
X122302500Y-102637500D01*
X122302500Y-87397500D02*
X120942500Y-87397500D01*
X122302500Y-93997500D02*
X122302500Y-95017500D01*
X127502500Y-91457500D02*
X127502500Y-92477500D01*
X127502500Y-99077500D02*
X127502500Y-100097500D01*
X127502500Y-112347500D02*
X122302500Y-112347500D01*
X127502500Y-109237500D02*
X127502500Y-110257500D01*
X122302500Y-99077500D02*
X122302500Y-100097500D01*
X122302500Y-88917500D02*
X122302500Y-89937500D01*
X127502500Y-96537500D02*
X127502500Y-97557500D01*
X122302500Y-96537500D02*
X122302500Y-97557500D01*
X122302500Y-86827500D02*
X122302500Y-87397500D01*
X127502500Y-93997500D02*
X127502500Y-95017500D01*
X122302500Y-106697500D02*
X122302500Y-107717500D01*
X127502500Y-86827500D02*
X122302500Y-86827500D01*
X127502500Y-106697500D02*
X127502500Y-107717500D01*
X122302500Y-104157500D02*
X122302500Y-105177500D01*
X122302500Y-111777500D02*
X122302500Y-112347500D01*
X127502500Y-101617500D02*
X127502500Y-102637500D01*
X122302500Y-91457500D02*
X122302500Y-92477500D01*
X160482500Y-128617500D02*
X160482500Y-129637500D01*
X160482500Y-115917500D02*
X160482500Y-116937500D01*
X155282500Y-113827500D02*
X155282500Y-114397500D01*
X155282500Y-118457500D02*
X155282500Y-119477500D01*
X160482500Y-123537500D02*
X160482500Y-124557500D01*
X155282500Y-115917500D02*
X155282500Y-116937500D01*
X155282500Y-133697500D02*
X155282500Y-134717500D01*
X155282500Y-131157500D02*
X155282500Y-132177500D01*
X155282500Y-136237500D02*
X155282500Y-137257500D01*
X155282500Y-128617500D02*
X155282500Y-129637500D01*
X160482500Y-131157500D02*
X160482500Y-132177500D01*
X155282500Y-114397500D02*
X153922500Y-114397500D01*
X160482500Y-113827500D02*
X160482500Y-114397500D01*
X160482500Y-126077500D02*
X160482500Y-127097500D01*
X160482500Y-113827500D02*
X155282500Y-113827500D01*
X160482500Y-120997500D02*
X160482500Y-122017500D01*
X160482500Y-139347500D02*
X155282500Y-139347500D01*
X160482500Y-118457500D02*
X160482500Y-119477500D01*
X155282500Y-126077500D02*
X155282500Y-127097500D01*
X155282500Y-120997500D02*
X155282500Y-122017500D01*
X160482500Y-138777500D02*
X160482500Y-139347500D01*
X155282500Y-138777500D02*
X155282500Y-139347500D01*
X155282500Y-123537500D02*
X155282500Y-124557500D01*
X160482500Y-136237500D02*
X160482500Y-137257500D01*
X160482500Y-133697500D02*
X160482500Y-134717500D01*
X105812500Y-77157500D02*
X105812500Y-78177500D01*
X111012500Y-85347500D02*
X105812500Y-85347500D01*
X105812500Y-59827500D02*
X105812500Y-60397500D01*
X105812500Y-82237500D02*
X105812500Y-83257500D01*
X111012500Y-84777500D02*
X111012500Y-85347500D01*
X111012500Y-72077500D02*
X111012500Y-73097500D01*
X111012500Y-66997500D02*
X111012500Y-68017500D01*
X111012500Y-82237500D02*
X111012500Y-83257500D01*
X105812500Y-72077500D02*
X105812500Y-73097500D01*
X105812500Y-64457500D02*
X105812500Y-65477500D01*
X105812500Y-69537500D02*
X105812500Y-70557500D01*
X105812500Y-84777500D02*
X105812500Y-85347500D01*
X105812500Y-79697500D02*
X105812500Y-80717500D01*
X111012500Y-74617500D02*
X111012500Y-75637500D01*
X111012500Y-79697500D02*
X111012500Y-80717500D01*
X105812500Y-66997500D02*
X105812500Y-68017500D01*
X111012500Y-77157500D02*
X111012500Y-78177500D01*
X105812500Y-60397500D02*
X104452500Y-60397500D01*
X111012500Y-59827500D02*
X111012500Y-60397500D01*
X111012500Y-69537500D02*
X111012500Y-70557500D01*
X105812500Y-74617500D02*
X105812500Y-75637500D01*
X111012500Y-59827500D02*
X105812500Y-59827500D01*
X111012500Y-61917500D02*
X111012500Y-62937500D01*
X111012500Y-64457500D02*
X111012500Y-65477500D01*
X105812500Y-61917500D02*
X105812500Y-62937500D01*
X155282500Y-72077500D02*
X155282500Y-73097500D01*
X160482500Y-61917500D02*
X160482500Y-62937500D01*
X160482500Y-72077500D02*
X160482500Y-73097500D01*
X160482500Y-82237500D02*
X160482500Y-83257500D01*
X155282500Y-74617500D02*
X155282500Y-75637500D01*
X155282500Y-64457500D02*
X155282500Y-65477500D01*
X155282500Y-60397500D02*
X153922500Y-60397500D01*
X160482500Y-77157500D02*
X160482500Y-78177500D01*
X160482500Y-69537500D02*
X160482500Y-70557500D01*
X160482500Y-59827500D02*
X160482500Y-60397500D01*
X155282500Y-77157500D02*
X155282500Y-78177500D01*
X160482500Y-66997500D02*
X160482500Y-68017500D01*
X155282500Y-79697500D02*
X155282500Y-80717500D01*
X155282500Y-66997500D02*
X155282500Y-68017500D01*
X160482500Y-85347500D02*
X155282500Y-85347500D01*
X160482500Y-79697500D02*
X160482500Y-80717500D01*
X160482500Y-59827500D02*
X155282500Y-59827500D01*
X155282500Y-59827500D02*
X155282500Y-60397500D01*
X155282500Y-84777500D02*
X155282500Y-85347500D01*
X160482500Y-74617500D02*
X160482500Y-75637500D01*
X155282500Y-61917500D02*
X155282500Y-62937500D01*
X160482500Y-64457500D02*
X160482500Y-65477500D01*
X155282500Y-82237500D02*
X155282500Y-83257500D01*
X155282500Y-69537500D02*
X155282500Y-70557500D01*
X160482500Y-84777500D02*
X160482500Y-85347500D01*
%TD*%
M02*
