%TF.GenerationSoftware,KiCad,Pcbnew,(6.0.7)*%
%TF.CreationDate,2023-02-25T07:44:42+08:00*%
%TF.ProjectId,BoardCoverter,426f6172-6443-46f7-9665-727465722e6b,rev?*%
%TF.SameCoordinates,Original*%
%TF.FileFunction,Soldermask,Bot*%
%TF.FilePolarity,Negative*%
%FSLAX46Y46*%
G04 Gerber Fmt 4.6, Leading zero omitted, Abs format (unit mm)*
G04 Created by KiCad (PCBNEW (6.0.7)) date 2023-02-25 07:44:42*
%MOMM*%
%LPD*%
G01*
G04 APERTURE LIST*
%ADD10R,1.700000X1.700000*%
%ADD11O,1.700000X1.700000*%
%ADD12R,3.000000X1.000000*%
G04 APERTURE END LIST*
D10*
%TO.C,J1*%
X148117500Y-63712500D03*
D11*
X150657500Y-63712500D03*
X148117500Y-66252500D03*
X150657500Y-66252500D03*
X148117500Y-68792500D03*
X150657500Y-68792500D03*
X148117500Y-71332500D03*
X150657500Y-71332500D03*
X148117500Y-73872500D03*
X150657500Y-73872500D03*
X148117500Y-76412500D03*
X150657500Y-76412500D03*
X148117500Y-78952500D03*
X150657500Y-78952500D03*
X148117500Y-81492500D03*
X150657500Y-81492500D03*
%TD*%
D12*
%TO.C,J2*%
X171852500Y-61157500D03*
X176892500Y-61157500D03*
X171852500Y-63697500D03*
X176892500Y-63697500D03*
X171852500Y-66237500D03*
X176892500Y-66237500D03*
X171852500Y-68777500D03*
X176892500Y-68777500D03*
X171852500Y-71317500D03*
X176892500Y-71317500D03*
X171852500Y-73857500D03*
X176892500Y-73857500D03*
X171852500Y-76397500D03*
X176892500Y-76397500D03*
X171852500Y-78937500D03*
X176892500Y-78937500D03*
X171852500Y-81477500D03*
X176892500Y-81477500D03*
X171852500Y-84017500D03*
X176892500Y-84017500D03*
%TD*%
%TO.C,J2*%
X171852500Y-115157500D03*
X176892500Y-115157500D03*
X171852500Y-117697500D03*
X176892500Y-117697500D03*
X171852500Y-120237500D03*
X176892500Y-120237500D03*
X171852500Y-122777500D03*
X176892500Y-122777500D03*
X171852500Y-125317500D03*
X176892500Y-125317500D03*
X171852500Y-127857500D03*
X176892500Y-127857500D03*
X171852500Y-130397500D03*
X176892500Y-130397500D03*
X171852500Y-132937500D03*
X176892500Y-132937500D03*
X171852500Y-135477500D03*
X176892500Y-135477500D03*
X171852500Y-138017500D03*
X176892500Y-138017500D03*
%TD*%
%TO.C,J2*%
X138872500Y-88157500D03*
X143912500Y-88157500D03*
X138872500Y-90697500D03*
X143912500Y-90697500D03*
X138872500Y-93237500D03*
X143912500Y-93237500D03*
X138872500Y-95777500D03*
X143912500Y-95777500D03*
X138872500Y-98317500D03*
X143912500Y-98317500D03*
X138872500Y-100857500D03*
X143912500Y-100857500D03*
X138872500Y-103397500D03*
X143912500Y-103397500D03*
X138872500Y-105937500D03*
X143912500Y-105937500D03*
X138872500Y-108477500D03*
X143912500Y-108477500D03*
X138872500Y-111017500D03*
X143912500Y-111017500D03*
%TD*%
%TO.C,J2*%
X171852500Y-88157500D03*
X176892500Y-88157500D03*
X171852500Y-90697500D03*
X176892500Y-90697500D03*
X171852500Y-93237500D03*
X176892500Y-93237500D03*
X171852500Y-95777500D03*
X176892500Y-95777500D03*
X171852500Y-98317500D03*
X176892500Y-98317500D03*
X171852500Y-100857500D03*
X176892500Y-100857500D03*
X171852500Y-103397500D03*
X176892500Y-103397500D03*
X171852500Y-105937500D03*
X176892500Y-105937500D03*
X171852500Y-108477500D03*
X176892500Y-108477500D03*
X171852500Y-111017500D03*
X176892500Y-111017500D03*
%TD*%
D10*
%TO.C,J1*%
X115137500Y-63712500D03*
D11*
X117677500Y-63712500D03*
X115137500Y-66252500D03*
X117677500Y-66252500D03*
X115137500Y-68792500D03*
X117677500Y-68792500D03*
X115137500Y-71332500D03*
X117677500Y-71332500D03*
X115137500Y-73872500D03*
X117677500Y-73872500D03*
X115137500Y-76412500D03*
X117677500Y-76412500D03*
X115137500Y-78952500D03*
X117677500Y-78952500D03*
X115137500Y-81492500D03*
X117677500Y-81492500D03*
%TD*%
D12*
%TO.C,J2*%
X138872500Y-115157500D03*
X143912500Y-115157500D03*
X138872500Y-117697500D03*
X143912500Y-117697500D03*
X138872500Y-120237500D03*
X143912500Y-120237500D03*
X138872500Y-122777500D03*
X143912500Y-122777500D03*
X138872500Y-125317500D03*
X143912500Y-125317500D03*
X138872500Y-127857500D03*
X143912500Y-127857500D03*
X138872500Y-130397500D03*
X143912500Y-130397500D03*
X138872500Y-132937500D03*
X143912500Y-132937500D03*
X138872500Y-135477500D03*
X143912500Y-135477500D03*
X138872500Y-138017500D03*
X143912500Y-138017500D03*
%TD*%
D10*
%TO.C,J1*%
X164607500Y-90712500D03*
D11*
X167147500Y-90712500D03*
X164607500Y-93252500D03*
X167147500Y-93252500D03*
X164607500Y-95792500D03*
X167147500Y-95792500D03*
X164607500Y-98332500D03*
X167147500Y-98332500D03*
X164607500Y-100872500D03*
X167147500Y-100872500D03*
X164607500Y-103412500D03*
X167147500Y-103412500D03*
X164607500Y-105952500D03*
X167147500Y-105952500D03*
X164607500Y-108492500D03*
X167147500Y-108492500D03*
%TD*%
D10*
%TO.C,J1*%
X115137500Y-90712500D03*
D11*
X117677500Y-90712500D03*
X115137500Y-93252500D03*
X117677500Y-93252500D03*
X115137500Y-95792500D03*
X117677500Y-95792500D03*
X115137500Y-98332500D03*
X117677500Y-98332500D03*
X115137500Y-100872500D03*
X117677500Y-100872500D03*
X115137500Y-103412500D03*
X117677500Y-103412500D03*
X115137500Y-105952500D03*
X117677500Y-105952500D03*
X115137500Y-108492500D03*
X117677500Y-108492500D03*
%TD*%
D12*
%TO.C,J2*%
X122382500Y-61157500D03*
X127422500Y-61157500D03*
X122382500Y-63697500D03*
X127422500Y-63697500D03*
X122382500Y-66237500D03*
X127422500Y-66237500D03*
X122382500Y-68777500D03*
X127422500Y-68777500D03*
X122382500Y-71317500D03*
X127422500Y-71317500D03*
X122382500Y-73857500D03*
X127422500Y-73857500D03*
X122382500Y-76397500D03*
X127422500Y-76397500D03*
X122382500Y-78937500D03*
X127422500Y-78937500D03*
X122382500Y-81477500D03*
X127422500Y-81477500D03*
X122382500Y-84017500D03*
X127422500Y-84017500D03*
%TD*%
%TO.C,J2*%
X105892500Y-115157500D03*
X110932500Y-115157500D03*
X105892500Y-117697500D03*
X110932500Y-117697500D03*
X105892500Y-120237500D03*
X110932500Y-120237500D03*
X105892500Y-122777500D03*
X110932500Y-122777500D03*
X105892500Y-125317500D03*
X110932500Y-125317500D03*
X105892500Y-127857500D03*
X110932500Y-127857500D03*
X105892500Y-130397500D03*
X110932500Y-130397500D03*
X105892500Y-132937500D03*
X110932500Y-132937500D03*
X105892500Y-135477500D03*
X110932500Y-135477500D03*
X105892500Y-138017500D03*
X110932500Y-138017500D03*
%TD*%
%TO.C,J2*%
X122382500Y-115157500D03*
X127422500Y-115157500D03*
X122382500Y-117697500D03*
X127422500Y-117697500D03*
X122382500Y-120237500D03*
X127422500Y-120237500D03*
X122382500Y-122777500D03*
X127422500Y-122777500D03*
X122382500Y-125317500D03*
X127422500Y-125317500D03*
X122382500Y-127857500D03*
X127422500Y-127857500D03*
X122382500Y-130397500D03*
X127422500Y-130397500D03*
X122382500Y-132937500D03*
X127422500Y-132937500D03*
X122382500Y-135477500D03*
X127422500Y-135477500D03*
X122382500Y-138017500D03*
X127422500Y-138017500D03*
%TD*%
D10*
%TO.C,J1*%
X181097500Y-63712500D03*
D11*
X183637500Y-63712500D03*
X181097500Y-66252500D03*
X183637500Y-66252500D03*
X181097500Y-68792500D03*
X183637500Y-68792500D03*
X181097500Y-71332500D03*
X183637500Y-71332500D03*
X181097500Y-73872500D03*
X183637500Y-73872500D03*
X181097500Y-76412500D03*
X183637500Y-76412500D03*
X181097500Y-78952500D03*
X183637500Y-78952500D03*
X181097500Y-81492500D03*
X183637500Y-81492500D03*
%TD*%
D12*
%TO.C,J2*%
X138872500Y-61157500D03*
X143912500Y-61157500D03*
X138872500Y-63697500D03*
X143912500Y-63697500D03*
X138872500Y-66237500D03*
X143912500Y-66237500D03*
X138872500Y-68777500D03*
X143912500Y-68777500D03*
X138872500Y-71317500D03*
X143912500Y-71317500D03*
X138872500Y-73857500D03*
X143912500Y-73857500D03*
X138872500Y-76397500D03*
X143912500Y-76397500D03*
X138872500Y-78937500D03*
X143912500Y-78937500D03*
X138872500Y-81477500D03*
X143912500Y-81477500D03*
X138872500Y-84017500D03*
X143912500Y-84017500D03*
%TD*%
%TO.C,J2*%
X105892500Y-88157500D03*
X110932500Y-88157500D03*
X105892500Y-90697500D03*
X110932500Y-90697500D03*
X105892500Y-93237500D03*
X110932500Y-93237500D03*
X105892500Y-95777500D03*
X110932500Y-95777500D03*
X105892500Y-98317500D03*
X110932500Y-98317500D03*
X105892500Y-100857500D03*
X110932500Y-100857500D03*
X105892500Y-103397500D03*
X110932500Y-103397500D03*
X105892500Y-105937500D03*
X110932500Y-105937500D03*
X105892500Y-108477500D03*
X110932500Y-108477500D03*
X105892500Y-111017500D03*
X110932500Y-111017500D03*
%TD*%
D10*
%TO.C,J1*%
X164607500Y-63712500D03*
D11*
X167147500Y-63712500D03*
X164607500Y-66252500D03*
X167147500Y-66252500D03*
X164607500Y-68792500D03*
X167147500Y-68792500D03*
X164607500Y-71332500D03*
X167147500Y-71332500D03*
X164607500Y-73872500D03*
X167147500Y-73872500D03*
X164607500Y-76412500D03*
X167147500Y-76412500D03*
X164607500Y-78952500D03*
X167147500Y-78952500D03*
X164607500Y-81492500D03*
X167147500Y-81492500D03*
%TD*%
D10*
%TO.C,J1*%
X131627500Y-117712500D03*
D11*
X134167500Y-117712500D03*
X131627500Y-120252500D03*
X134167500Y-120252500D03*
X131627500Y-122792500D03*
X134167500Y-122792500D03*
X131627500Y-125332500D03*
X134167500Y-125332500D03*
X131627500Y-127872500D03*
X134167500Y-127872500D03*
X131627500Y-130412500D03*
X134167500Y-130412500D03*
X131627500Y-132952500D03*
X134167500Y-132952500D03*
X131627500Y-135492500D03*
X134167500Y-135492500D03*
%TD*%
D12*
%TO.C,J2*%
X155362500Y-88157500D03*
X160402500Y-88157500D03*
X155362500Y-90697500D03*
X160402500Y-90697500D03*
X155362500Y-93237500D03*
X160402500Y-93237500D03*
X155362500Y-95777500D03*
X160402500Y-95777500D03*
X155362500Y-98317500D03*
X160402500Y-98317500D03*
X155362500Y-100857500D03*
X160402500Y-100857500D03*
X155362500Y-103397500D03*
X160402500Y-103397500D03*
X155362500Y-105937500D03*
X160402500Y-105937500D03*
X155362500Y-108477500D03*
X160402500Y-108477500D03*
X155362500Y-111017500D03*
X160402500Y-111017500D03*
%TD*%
D10*
%TO.C,J1*%
X181097500Y-117712500D03*
D11*
X183637500Y-117712500D03*
X181097500Y-120252500D03*
X183637500Y-120252500D03*
X181097500Y-122792500D03*
X183637500Y-122792500D03*
X181097500Y-125332500D03*
X183637500Y-125332500D03*
X181097500Y-127872500D03*
X183637500Y-127872500D03*
X181097500Y-130412500D03*
X183637500Y-130412500D03*
X181097500Y-132952500D03*
X183637500Y-132952500D03*
X181097500Y-135492500D03*
X183637500Y-135492500D03*
%TD*%
D10*
%TO.C,J1*%
X148117500Y-90712500D03*
D11*
X150657500Y-90712500D03*
X148117500Y-93252500D03*
X150657500Y-93252500D03*
X148117500Y-95792500D03*
X150657500Y-95792500D03*
X148117500Y-98332500D03*
X150657500Y-98332500D03*
X148117500Y-100872500D03*
X150657500Y-100872500D03*
X148117500Y-103412500D03*
X150657500Y-103412500D03*
X148117500Y-105952500D03*
X150657500Y-105952500D03*
X148117500Y-108492500D03*
X150657500Y-108492500D03*
%TD*%
D10*
%TO.C,J1*%
X131627500Y-90712500D03*
D11*
X134167500Y-90712500D03*
X131627500Y-93252500D03*
X134167500Y-93252500D03*
X131627500Y-95792500D03*
X134167500Y-95792500D03*
X131627500Y-98332500D03*
X134167500Y-98332500D03*
X131627500Y-100872500D03*
X134167500Y-100872500D03*
X131627500Y-103412500D03*
X134167500Y-103412500D03*
X131627500Y-105952500D03*
X134167500Y-105952500D03*
X131627500Y-108492500D03*
X134167500Y-108492500D03*
%TD*%
D10*
%TO.C,J1*%
X115137500Y-117712500D03*
D11*
X117677500Y-117712500D03*
X115137500Y-120252500D03*
X117677500Y-120252500D03*
X115137500Y-122792500D03*
X117677500Y-122792500D03*
X115137500Y-125332500D03*
X117677500Y-125332500D03*
X115137500Y-127872500D03*
X117677500Y-127872500D03*
X115137500Y-130412500D03*
X117677500Y-130412500D03*
X115137500Y-132952500D03*
X117677500Y-132952500D03*
X115137500Y-135492500D03*
X117677500Y-135492500D03*
%TD*%
D10*
%TO.C,J1*%
X148117500Y-117712500D03*
D11*
X150657500Y-117712500D03*
X148117500Y-120252500D03*
X150657500Y-120252500D03*
X148117500Y-122792500D03*
X150657500Y-122792500D03*
X148117500Y-125332500D03*
X150657500Y-125332500D03*
X148117500Y-127872500D03*
X150657500Y-127872500D03*
X148117500Y-130412500D03*
X150657500Y-130412500D03*
X148117500Y-132952500D03*
X150657500Y-132952500D03*
X148117500Y-135492500D03*
X150657500Y-135492500D03*
%TD*%
D12*
%TO.C,J2*%
X122382500Y-88157500D03*
X127422500Y-88157500D03*
X122382500Y-90697500D03*
X127422500Y-90697500D03*
X122382500Y-93237500D03*
X127422500Y-93237500D03*
X122382500Y-95777500D03*
X127422500Y-95777500D03*
X122382500Y-98317500D03*
X127422500Y-98317500D03*
X122382500Y-100857500D03*
X127422500Y-100857500D03*
X122382500Y-103397500D03*
X127422500Y-103397500D03*
X122382500Y-105937500D03*
X127422500Y-105937500D03*
X122382500Y-108477500D03*
X127422500Y-108477500D03*
X122382500Y-111017500D03*
X127422500Y-111017500D03*
%TD*%
%TO.C,J2*%
X155362500Y-115157500D03*
X160402500Y-115157500D03*
X155362500Y-117697500D03*
X160402500Y-117697500D03*
X155362500Y-120237500D03*
X160402500Y-120237500D03*
X155362500Y-122777500D03*
X160402500Y-122777500D03*
X155362500Y-125317500D03*
X160402500Y-125317500D03*
X155362500Y-127857500D03*
X160402500Y-127857500D03*
X155362500Y-130397500D03*
X160402500Y-130397500D03*
X155362500Y-132937500D03*
X160402500Y-132937500D03*
X155362500Y-135477500D03*
X160402500Y-135477500D03*
X155362500Y-138017500D03*
X160402500Y-138017500D03*
%TD*%
D10*
%TO.C,J1*%
X131627500Y-63712500D03*
D11*
X134167500Y-63712500D03*
X131627500Y-66252500D03*
X134167500Y-66252500D03*
X131627500Y-68792500D03*
X134167500Y-68792500D03*
X131627500Y-71332500D03*
X134167500Y-71332500D03*
X131627500Y-73872500D03*
X134167500Y-73872500D03*
X131627500Y-76412500D03*
X134167500Y-76412500D03*
X131627500Y-78952500D03*
X134167500Y-78952500D03*
X131627500Y-81492500D03*
X134167500Y-81492500D03*
%TD*%
D10*
%TO.C,J1*%
X164607500Y-117712500D03*
D11*
X167147500Y-117712500D03*
X164607500Y-120252500D03*
X167147500Y-120252500D03*
X164607500Y-122792500D03*
X167147500Y-122792500D03*
X164607500Y-125332500D03*
X167147500Y-125332500D03*
X164607500Y-127872500D03*
X167147500Y-127872500D03*
X164607500Y-130412500D03*
X167147500Y-130412500D03*
X164607500Y-132952500D03*
X167147500Y-132952500D03*
X164607500Y-135492500D03*
X167147500Y-135492500D03*
%TD*%
D10*
%TO.C,J1*%
X181097500Y-90712500D03*
D11*
X183637500Y-90712500D03*
X181097500Y-93252500D03*
X183637500Y-93252500D03*
X181097500Y-95792500D03*
X183637500Y-95792500D03*
X181097500Y-98332500D03*
X183637500Y-98332500D03*
X181097500Y-100872500D03*
X183637500Y-100872500D03*
X181097500Y-103412500D03*
X183637500Y-103412500D03*
X181097500Y-105952500D03*
X183637500Y-105952500D03*
X181097500Y-108492500D03*
X183637500Y-108492500D03*
%TD*%
D12*
%TO.C,J2*%
X105892500Y-61157500D03*
X110932500Y-61157500D03*
X105892500Y-63697500D03*
X110932500Y-63697500D03*
X105892500Y-66237500D03*
X110932500Y-66237500D03*
X105892500Y-68777500D03*
X110932500Y-68777500D03*
X105892500Y-71317500D03*
X110932500Y-71317500D03*
X105892500Y-73857500D03*
X110932500Y-73857500D03*
X105892500Y-76397500D03*
X110932500Y-76397500D03*
X105892500Y-78937500D03*
X110932500Y-78937500D03*
X105892500Y-81477500D03*
X110932500Y-81477500D03*
X105892500Y-84017500D03*
X110932500Y-84017500D03*
%TD*%
%TO.C,J2*%
X155362500Y-61157500D03*
X160402500Y-61157500D03*
X155362500Y-63697500D03*
X160402500Y-63697500D03*
X155362500Y-66237500D03*
X160402500Y-66237500D03*
X155362500Y-68777500D03*
X160402500Y-68777500D03*
X155362500Y-71317500D03*
X160402500Y-71317500D03*
X155362500Y-73857500D03*
X160402500Y-73857500D03*
X155362500Y-76397500D03*
X160402500Y-76397500D03*
X155362500Y-78937500D03*
X160402500Y-78937500D03*
X155362500Y-81477500D03*
X160402500Y-81477500D03*
X155362500Y-84017500D03*
X160402500Y-84017500D03*
%TD*%
M02*
