%TF.GenerationSoftware,KiCad,Pcbnew,(6.0.7)*%
%TF.CreationDate,2023-02-25T07:44:42+08:00*%
%TF.ProjectId,BoardCoverter,426f6172-6443-46f7-9665-727465722e6b,rev?*%
%TF.SameCoordinates,Original*%
%TF.FileFunction,Soldermask,Top*%
%TF.FilePolarity,Negative*%
%FSLAX46Y46*%
G04 Gerber Fmt 4.6, Leading zero omitted, Abs format (unit mm)*
G04 Created by KiCad (PCBNEW (6.0.7)) date 2023-02-25 07:44:42*
%MOMM*%
%LPD*%
G01*
G04 APERTURE LIST*
%ADD10R,1.700000X1.700000*%
%ADD11O,1.700000X1.700000*%
G04 APERTURE END LIST*
D10*
%TO.C,J1*%
X148117500Y-63712500D03*
D11*
X150657500Y-63712500D03*
X148117500Y-66252500D03*
X150657500Y-66252500D03*
X148117500Y-68792500D03*
X150657500Y-68792500D03*
X148117500Y-71332500D03*
X150657500Y-71332500D03*
X148117500Y-73872500D03*
X150657500Y-73872500D03*
X148117500Y-76412500D03*
X150657500Y-76412500D03*
X148117500Y-78952500D03*
X150657500Y-78952500D03*
X148117500Y-81492500D03*
X150657500Y-81492500D03*
%TD*%
D10*
%TO.C,J1*%
X115137500Y-63712500D03*
D11*
X117677500Y-63712500D03*
X115137500Y-66252500D03*
X117677500Y-66252500D03*
X115137500Y-68792500D03*
X117677500Y-68792500D03*
X115137500Y-71332500D03*
X117677500Y-71332500D03*
X115137500Y-73872500D03*
X117677500Y-73872500D03*
X115137500Y-76412500D03*
X117677500Y-76412500D03*
X115137500Y-78952500D03*
X117677500Y-78952500D03*
X115137500Y-81492500D03*
X117677500Y-81492500D03*
%TD*%
D10*
%TO.C,J1*%
X164607500Y-90712500D03*
D11*
X167147500Y-90712500D03*
X164607500Y-93252500D03*
X167147500Y-93252500D03*
X164607500Y-95792500D03*
X167147500Y-95792500D03*
X164607500Y-98332500D03*
X167147500Y-98332500D03*
X164607500Y-100872500D03*
X167147500Y-100872500D03*
X164607500Y-103412500D03*
X167147500Y-103412500D03*
X164607500Y-105952500D03*
X167147500Y-105952500D03*
X164607500Y-108492500D03*
X167147500Y-108492500D03*
%TD*%
D10*
%TO.C,J1*%
X115137500Y-90712500D03*
D11*
X117677500Y-90712500D03*
X115137500Y-93252500D03*
X117677500Y-93252500D03*
X115137500Y-95792500D03*
X117677500Y-95792500D03*
X115137500Y-98332500D03*
X117677500Y-98332500D03*
X115137500Y-100872500D03*
X117677500Y-100872500D03*
X115137500Y-103412500D03*
X117677500Y-103412500D03*
X115137500Y-105952500D03*
X117677500Y-105952500D03*
X115137500Y-108492500D03*
X117677500Y-108492500D03*
%TD*%
D10*
%TO.C,J1*%
X181097500Y-63712500D03*
D11*
X183637500Y-63712500D03*
X181097500Y-66252500D03*
X183637500Y-66252500D03*
X181097500Y-68792500D03*
X183637500Y-68792500D03*
X181097500Y-71332500D03*
X183637500Y-71332500D03*
X181097500Y-73872500D03*
X183637500Y-73872500D03*
X181097500Y-76412500D03*
X183637500Y-76412500D03*
X181097500Y-78952500D03*
X183637500Y-78952500D03*
X181097500Y-81492500D03*
X183637500Y-81492500D03*
%TD*%
D10*
%TO.C,J1*%
X164607500Y-63712500D03*
D11*
X167147500Y-63712500D03*
X164607500Y-66252500D03*
X167147500Y-66252500D03*
X164607500Y-68792500D03*
X167147500Y-68792500D03*
X164607500Y-71332500D03*
X167147500Y-71332500D03*
X164607500Y-73872500D03*
X167147500Y-73872500D03*
X164607500Y-76412500D03*
X167147500Y-76412500D03*
X164607500Y-78952500D03*
X167147500Y-78952500D03*
X164607500Y-81492500D03*
X167147500Y-81492500D03*
%TD*%
D10*
%TO.C,J1*%
X131627500Y-117712500D03*
D11*
X134167500Y-117712500D03*
X131627500Y-120252500D03*
X134167500Y-120252500D03*
X131627500Y-122792500D03*
X134167500Y-122792500D03*
X131627500Y-125332500D03*
X134167500Y-125332500D03*
X131627500Y-127872500D03*
X134167500Y-127872500D03*
X131627500Y-130412500D03*
X134167500Y-130412500D03*
X131627500Y-132952500D03*
X134167500Y-132952500D03*
X131627500Y-135492500D03*
X134167500Y-135492500D03*
%TD*%
D10*
%TO.C,J1*%
X181097500Y-117712500D03*
D11*
X183637500Y-117712500D03*
X181097500Y-120252500D03*
X183637500Y-120252500D03*
X181097500Y-122792500D03*
X183637500Y-122792500D03*
X181097500Y-125332500D03*
X183637500Y-125332500D03*
X181097500Y-127872500D03*
X183637500Y-127872500D03*
X181097500Y-130412500D03*
X183637500Y-130412500D03*
X181097500Y-132952500D03*
X183637500Y-132952500D03*
X181097500Y-135492500D03*
X183637500Y-135492500D03*
%TD*%
D10*
%TO.C,J1*%
X148117500Y-90712500D03*
D11*
X150657500Y-90712500D03*
X148117500Y-93252500D03*
X150657500Y-93252500D03*
X148117500Y-95792500D03*
X150657500Y-95792500D03*
X148117500Y-98332500D03*
X150657500Y-98332500D03*
X148117500Y-100872500D03*
X150657500Y-100872500D03*
X148117500Y-103412500D03*
X150657500Y-103412500D03*
X148117500Y-105952500D03*
X150657500Y-105952500D03*
X148117500Y-108492500D03*
X150657500Y-108492500D03*
%TD*%
D10*
%TO.C,J1*%
X131627500Y-90712500D03*
D11*
X134167500Y-90712500D03*
X131627500Y-93252500D03*
X134167500Y-93252500D03*
X131627500Y-95792500D03*
X134167500Y-95792500D03*
X131627500Y-98332500D03*
X134167500Y-98332500D03*
X131627500Y-100872500D03*
X134167500Y-100872500D03*
X131627500Y-103412500D03*
X134167500Y-103412500D03*
X131627500Y-105952500D03*
X134167500Y-105952500D03*
X131627500Y-108492500D03*
X134167500Y-108492500D03*
%TD*%
D10*
%TO.C,J1*%
X115137500Y-117712500D03*
D11*
X117677500Y-117712500D03*
X115137500Y-120252500D03*
X117677500Y-120252500D03*
X115137500Y-122792500D03*
X117677500Y-122792500D03*
X115137500Y-125332500D03*
X117677500Y-125332500D03*
X115137500Y-127872500D03*
X117677500Y-127872500D03*
X115137500Y-130412500D03*
X117677500Y-130412500D03*
X115137500Y-132952500D03*
X117677500Y-132952500D03*
X115137500Y-135492500D03*
X117677500Y-135492500D03*
%TD*%
D10*
%TO.C,J1*%
X148117500Y-117712500D03*
D11*
X150657500Y-117712500D03*
X148117500Y-120252500D03*
X150657500Y-120252500D03*
X148117500Y-122792500D03*
X150657500Y-122792500D03*
X148117500Y-125332500D03*
X150657500Y-125332500D03*
X148117500Y-127872500D03*
X150657500Y-127872500D03*
X148117500Y-130412500D03*
X150657500Y-130412500D03*
X148117500Y-132952500D03*
X150657500Y-132952500D03*
X148117500Y-135492500D03*
X150657500Y-135492500D03*
%TD*%
D10*
%TO.C,J1*%
X131627500Y-63712500D03*
D11*
X134167500Y-63712500D03*
X131627500Y-66252500D03*
X134167500Y-66252500D03*
X131627500Y-68792500D03*
X134167500Y-68792500D03*
X131627500Y-71332500D03*
X134167500Y-71332500D03*
X131627500Y-73872500D03*
X134167500Y-73872500D03*
X131627500Y-76412500D03*
X134167500Y-76412500D03*
X131627500Y-78952500D03*
X134167500Y-78952500D03*
X131627500Y-81492500D03*
X134167500Y-81492500D03*
%TD*%
D10*
%TO.C,J1*%
X164607500Y-117712500D03*
D11*
X167147500Y-117712500D03*
X164607500Y-120252500D03*
X167147500Y-120252500D03*
X164607500Y-122792500D03*
X167147500Y-122792500D03*
X164607500Y-125332500D03*
X167147500Y-125332500D03*
X164607500Y-127872500D03*
X167147500Y-127872500D03*
X164607500Y-130412500D03*
X167147500Y-130412500D03*
X164607500Y-132952500D03*
X167147500Y-132952500D03*
X164607500Y-135492500D03*
X167147500Y-135492500D03*
%TD*%
D10*
%TO.C,J1*%
X181097500Y-90712500D03*
D11*
X183637500Y-90712500D03*
X181097500Y-93252500D03*
X183637500Y-93252500D03*
X181097500Y-95792500D03*
X183637500Y-95792500D03*
X181097500Y-98332500D03*
X183637500Y-98332500D03*
X181097500Y-100872500D03*
X183637500Y-100872500D03*
X181097500Y-103412500D03*
X183637500Y-103412500D03*
X181097500Y-105952500D03*
X183637500Y-105952500D03*
X181097500Y-108492500D03*
X183637500Y-108492500D03*
%TD*%
M02*
