%TF.GenerationSoftware,KiCad,Pcbnew,(6.0.7)*%
%TF.CreationDate,2023-02-25T07:44:42+08:00*%
%TF.ProjectId,BoardCoverter,426f6172-6443-46f7-9665-727465722e6b,rev?*%
%TF.SameCoordinates,Original*%
%TF.FileFunction,Profile,NP*%
%FSLAX46Y46*%
G04 Gerber Fmt 4.6, Leading zero omitted, Abs format (unit mm)*
G04 Created by KiCad (PCBNEW (6.0.7)) date 2023-02-25 07:44:42*
%MOMM*%
%LPD*%
G01*
G04 APERTURE LIST*
%TA.AperFunction,Profile*%
%ADD10C,0.100000*%
%TD*%
G04 APERTURE END LIST*
D10*
X103412500Y-86087500D02*
X103412500Y-113087500D01*
X136392500Y-113087500D02*
X136392500Y-140087500D01*
X119902500Y-113087500D02*
X119902500Y-140087500D01*
X152882500Y-140087500D02*
X169372500Y-140087500D01*
X169372500Y-113087500D02*
X169372500Y-140087500D01*
X152882500Y-86087500D02*
X152882500Y-113087500D01*
X119902500Y-113087500D02*
X103412500Y-113087500D01*
X152882500Y-59087500D02*
X136392500Y-59087500D01*
X136392500Y-113087500D02*
X152882500Y-113087500D01*
X152882500Y-113087500D02*
X152882500Y-140087500D01*
X103412500Y-113087500D02*
X103412500Y-140087500D01*
X136392500Y-59087500D02*
X136392500Y-86087500D01*
X152882500Y-86087500D02*
X152882500Y-113087500D01*
X136392500Y-59087500D02*
X119902500Y-59087500D01*
X103412500Y-86087500D02*
X119902500Y-86087500D01*
X152882500Y-113087500D02*
X152882500Y-140087500D01*
X185862500Y-86087500D02*
X185862500Y-113087500D01*
X136392500Y-113087500D02*
X119902500Y-113087500D01*
X169372500Y-86087500D02*
X152882500Y-86087500D01*
X136392500Y-86087500D02*
X136392500Y-113087500D01*
X136392500Y-86087500D02*
X136392500Y-113087500D01*
X185862500Y-113087500D02*
X185862500Y-140087500D01*
X169372500Y-86087500D02*
X185862500Y-86087500D01*
X136392500Y-86087500D02*
X152882500Y-86087500D01*
X152882500Y-113087500D02*
X136392500Y-113087500D01*
X119902500Y-59087500D02*
X119902500Y-86087500D01*
X185862500Y-113087500D02*
X169372500Y-113087500D01*
X169372500Y-59087500D02*
X152882500Y-59087500D01*
X185862500Y-59087500D02*
X169372500Y-59087500D01*
X185862500Y-59087500D02*
X185862500Y-86087500D01*
X136392500Y-140087500D02*
X152882500Y-140087500D01*
X169372500Y-113087500D02*
X185862500Y-113087500D01*
X103412500Y-59087500D02*
X103412500Y-86087500D01*
X119902500Y-86087500D02*
X103412500Y-86087500D01*
X119902500Y-113087500D02*
X119902500Y-140087500D01*
X136392500Y-59087500D02*
X136392500Y-86087500D01*
X152882500Y-86087500D02*
X136392500Y-86087500D01*
X119902500Y-86087500D02*
X119902500Y-113087500D01*
X103412500Y-140087500D02*
X119902500Y-140087500D01*
X119902500Y-140087500D02*
X136392500Y-140087500D01*
X119902500Y-59087500D02*
X119902500Y-86087500D01*
X152882500Y-59087500D02*
X152882500Y-86087500D01*
X119902500Y-86087500D02*
X119902500Y-113087500D01*
X136392500Y-86087500D02*
X119902500Y-86087500D01*
X119902500Y-86087500D02*
X136392500Y-86087500D01*
X169372500Y-113087500D02*
X152882500Y-113087500D01*
X103412500Y-113087500D02*
X119902500Y-113087500D01*
X169372500Y-140087500D02*
X185862500Y-140087500D01*
X169372500Y-59087500D02*
X169372500Y-86087500D01*
X169372500Y-113087500D02*
X169372500Y-140087500D01*
X169372500Y-86087500D02*
X169372500Y-113087500D01*
X136392500Y-113087500D02*
X136392500Y-140087500D01*
X169372500Y-59087500D02*
X169372500Y-86087500D01*
X152882500Y-59087500D02*
X152882500Y-86087500D01*
X152882500Y-86087500D02*
X169372500Y-86087500D01*
X119902500Y-113087500D02*
X136392500Y-113087500D01*
X119902500Y-59087500D02*
X103412500Y-59087500D01*
X169372500Y-86087500D02*
X169372500Y-113087500D01*
X185862500Y-86087500D02*
X169372500Y-86087500D01*
X152882500Y-113087500D02*
X169372500Y-113087500D01*
M02*
